%TF.GenerationSoftware,Altium Limited,Altium Designer,21.2.1 (34)*%
G04 Layer_Physical_Order=2*
G04 Layer_Color=7250688*
%FSLAX45Y45*%
%MOMM*%
%TF.SameCoordinates,33E7FE8D-E1FD-4CC8-B6C0-267CAA33A984*%
%TF.FilePolarity,Positive*%
%TF.FileFunction,Copper,L2,Inr,Signal*%
%TF.Part,Single*%
G01*
G75*
%TA.AperFunction,Conductor*%
%ADD30C,0.50800*%
%TA.AperFunction,ComponentPad*%
%ADD31C,1.05000*%
%ADD32R,1.05000X1.05000*%
%ADD33R,2.00000X1.60000*%
%ADD34O,2.00000X1.60000*%
%ADD35O,1.60000X2.00000*%
%ADD36R,1.60000X2.00000*%
%ADD37O,4.00000X2.00000*%
%ADD38O,2.00000X4.00000*%
%ADD39R,1.57000X1.57000*%
%ADD40C,1.57000*%
%ADD41R,1.65000X1.65000*%
%ADD42C,1.65000*%
%ADD43R,1.57000X1.57000*%
%TA.AperFunction,ViaPad*%
%ADD44C,5.00000*%
%ADD45C,1.00000*%
G36*
X2211232Y7883780D02*
X2213610Y7874141D01*
X2206986Y7867516D01*
X2197441Y7850984D01*
X2192500Y7832545D01*
Y7813455D01*
X2197441Y7795016D01*
X2206986Y7778484D01*
X2220484Y7764986D01*
X2237016Y7755441D01*
X2255455Y7750500D01*
X2274545D01*
X2292984Y7755441D01*
X2309516Y7764986D01*
X2316720Y7772189D01*
X2328369Y7774870D01*
X2333269Y7771564D01*
X2344168Y7760665D01*
X2361932Y7750409D01*
X2379299Y7745755D01*
Y7823000D01*
X2404699D01*
Y7745755D01*
X2422068Y7750409D01*
X2439832Y7760665D01*
X2446978Y7767811D01*
X2455500Y7774284D01*
X2464022Y7767811D01*
X2471168Y7760665D01*
X2488932Y7750409D01*
X2506299Y7745755D01*
Y7823000D01*
X2531699D01*
Y7745755D01*
X2549068Y7750409D01*
X2566832Y7760665D01*
X2573978Y7767811D01*
X2582500Y7774284D01*
X2591022Y7767811D01*
X2598168Y7760665D01*
X2615932Y7750409D01*
X2633299Y7745755D01*
Y7823000D01*
X2658699D01*
Y7745755D01*
X2676068Y7750409D01*
X2693832Y7760665D01*
X2704731Y7771564D01*
X2709631Y7774870D01*
X2721280Y7772189D01*
X2728484Y7764986D01*
X2745016Y7755441D01*
X2763455Y7750500D01*
X2782545D01*
X2800984Y7755441D01*
X2817516Y7764986D01*
X2828673Y7776142D01*
X2836500Y7777519D01*
X2844327Y7776142D01*
X2850000Y7770470D01*
Y7650000D01*
X2229518Y7029518D01*
X2217492Y7033600D01*
X2217426Y7034105D01*
X2207349Y7058431D01*
X2191320Y7079321D01*
X2170431Y7095350D01*
X2146105Y7105426D01*
X2120000Y7108863D01*
X2079999D01*
X2053894Y7105426D01*
X2029568Y7095350D01*
X2008679Y7079321D01*
X1992650Y7058431D01*
X1982574Y7034105D01*
X1979137Y7008000D01*
X1982574Y6981895D01*
X1992650Y6957569D01*
X2008679Y6936679D01*
X2029568Y6920650D01*
X2053894Y6910574D01*
X2079999Y6907137D01*
X2090544D01*
X2095404Y6895404D01*
X2049680Y6849680D01*
X2029568Y6841350D01*
X2008679Y6825321D01*
X1992650Y6804431D01*
X1984319Y6784319D01*
X1299999Y6099999D01*
Y5349999D01*
X1150000Y5200000D01*
Y5100000D01*
X1300000Y4950000D01*
X1550000D01*
Y4959001D01*
X1969527Y5378527D01*
X1980000Y5384000D01*
Y5384000D01*
X1980000Y5384000D01*
X2220000D01*
Y5479608D01*
X2320392Y5479608D01*
X2841553D01*
X2934190Y5386972D01*
X2930394Y5372807D01*
X2920896Y5370262D01*
X2903703Y5360335D01*
X2889665Y5346297D01*
X2879738Y5329103D01*
X2875343Y5312700D01*
X2950000D01*
Y5300000D01*
X2962700D01*
Y5225343D01*
X2979103Y5229738D01*
X2996296Y5239665D01*
X3010335Y5253703D01*
X3020261Y5270897D01*
X3022806Y5280395D01*
X3036971Y5284190D01*
X3279608Y5041553D01*
Y4508447D01*
X3215935Y4444773D01*
X3215187Y4443654D01*
X3214176Y4442768D01*
X3212996Y4440375D01*
X3211514Y4438157D01*
X3211252Y4436838D01*
X3210657Y4435632D01*
X3210482Y4432970D01*
X3209962Y4430354D01*
X3210224Y4429034D01*
X3210137Y4427692D01*
X3210994Y4425167D01*
X3211514Y4422550D01*
X3212262Y4421432D01*
X3212694Y4420158D01*
X3215426Y4415426D01*
X3184575Y4384575D01*
X3179843Y4387307D01*
X3178569Y4387739D01*
X3177451Y4388487D01*
X3174834Y4389007D01*
X3172309Y4389864D01*
X3170966Y4389776D01*
X3169647Y4390039D01*
X3167031Y4389519D01*
X3164369Y4389344D01*
X3163162Y4388749D01*
X3161843Y4388487D01*
X3159626Y4387005D01*
X3157233Y4385825D01*
X3156346Y4384813D01*
X3155228Y4384066D01*
X3141553Y4370392D01*
X2970392D01*
X2968433Y4370002D01*
X2966435Y4370004D01*
X2964568Y4369234D01*
X2962588Y4368840D01*
X2961036Y4367803D01*
X2620392Y4708447D01*
Y5050000D01*
X2618840Y5057804D01*
X2614419Y5064419D01*
X2607804Y5068840D01*
X2600000Y5070392D01*
X2250001D01*
X2250000Y5070392D01*
X2242196Y5068840D01*
X2235581Y5064419D01*
X1935581Y4764419D01*
X1741553Y4570392D01*
X1550000D01*
X1542196Y4568840D01*
X1535581Y4564419D01*
X1535580Y4564419D01*
X1235581Y4264420D01*
X1231161Y4257804D01*
X1229609Y4250000D01*
X1229608Y4120392D01*
X1229608Y4120392D01*
X620392D01*
Y5650000D01*
X618840Y5657803D01*
X614419Y5664419D01*
X607804Y5668839D01*
X600000Y5670392D01*
Y6800000D01*
X1250000D01*
X1850000Y7400000D01*
Y7433859D01*
X1862700Y7440706D01*
X1872981Y7434770D01*
X1890784Y7430000D01*
X1909216D01*
X1927019Y7434770D01*
X1942981Y7443986D01*
X1956014Y7457019D01*
X1965229Y7472981D01*
X1970000Y7490784D01*
Y7509216D01*
X1965229Y7527019D01*
X1956014Y7542981D01*
X1942981Y7556014D01*
X1927019Y7565229D01*
X1909216Y7570000D01*
X1890784D01*
X1872981Y7565229D01*
X1862700Y7559294D01*
X1850000Y7566141D01*
X1850000Y7870632D01*
X1858981Y7879613D01*
X2189250Y7879611D01*
X2191866Y7880131D01*
X2194528Y7880306D01*
X2195734Y7880901D01*
X2197054Y7881163D01*
X2199272Y7882645D01*
X2201664Y7883825D01*
X2202193Y7884428D01*
X2208373Y7884462D01*
X2211232Y7883780D01*
D02*
G37*
G36*
X3420699Y7744522D02*
X3429584Y7737705D01*
X3429585Y7508423D01*
X2525184Y6604023D01*
X2515022Y6611821D01*
X2520262Y6620897D01*
X2524657Y6637300D01*
X2462700D01*
Y6575343D01*
X2479103Y6579738D01*
X2488179Y6584978D01*
X2495977Y6574815D01*
X2219094Y6297933D01*
X2203999Y6300798D01*
X2191320Y6317321D01*
X2170431Y6333350D01*
X2146105Y6343426D01*
X2120000Y6346863D01*
X2079999D01*
X2053894Y6343426D01*
X2029568Y6333350D01*
X2008679Y6317321D01*
X1992650Y6296431D01*
X1982574Y6272105D01*
X1979137Y6246000D01*
X1982574Y6219895D01*
X1992650Y6195569D01*
X2008679Y6174679D01*
X2029568Y6158650D01*
X2052395Y6149195D01*
X2057507Y6137930D01*
X2057909Y6136748D01*
X2043837Y6122676D01*
X2043461Y6122113D01*
X2042925Y6121702D01*
X2041263Y6118824D01*
X2039416Y6116060D01*
X2039284Y6115397D01*
X2038946Y6114811D01*
X2038512Y6111515D01*
X2037864Y6108257D01*
X2037996Y6107593D01*
X2037908Y6106923D01*
X2038768Y6103714D01*
X2039416Y6100453D01*
X2039792Y6099890D01*
X2039967Y6099237D01*
X2043029Y6093029D01*
X2028627Y6078627D01*
X2008679Y6063321D01*
X1992650Y6042431D01*
X1982574Y6018105D01*
X1979137Y5992000D01*
X1982574Y5965895D01*
X1992650Y5941569D01*
X1994866Y5938680D01*
X1991764Y5923196D01*
X1990984Y5922811D01*
X1988348Y5920789D01*
X1985583Y5918942D01*
X1985207Y5918379D01*
X1984671Y5917968D01*
X1983010Y5915090D01*
X1981163Y5912326D01*
X1981031Y5911663D01*
X1980693Y5911077D01*
X1980259Y5907781D01*
X1979610Y5904522D01*
X1979609Y5817758D01*
X1980368Y5813946D01*
X1981115Y5810067D01*
X1981150Y5810015D01*
X1981162Y5809954D01*
X1983326Y5806715D01*
X1985496Y5803425D01*
X1985547Y5803390D01*
X1985582Y5803339D01*
X1987234Y5802235D01*
X1989677Y5798376D01*
X1992650Y5788431D01*
X1982574Y5764105D01*
X1979137Y5738000D01*
X1982574Y5711895D01*
X1992650Y5687569D01*
X1989685Y5677652D01*
X1987231Y5673768D01*
X1985580Y5672665D01*
X1985546Y5672613D01*
X1985496Y5672579D01*
X1983343Y5669316D01*
X1981160Y5666049D01*
X1981148Y5665989D01*
X1981114Y5665938D01*
X1980371Y5662081D01*
X1979608Y5658245D01*
X1979607Y5596537D01*
X1979607Y5592981D01*
X1979606Y5592980D01*
X1979999Y5583999D01*
X1980000Y5583999D01*
Y5416890D01*
X1978191Y5404311D01*
X1975231Y5403443D01*
X1972196Y5402840D01*
X1971434Y5402330D01*
X1970556Y5402073D01*
X1960083Y5396601D01*
X1957677Y5394664D01*
X1955108Y5392947D01*
X1535581Y4973420D01*
X1533558Y4970392D01*
X1308446D01*
X1170392Y5108447D01*
Y5191553D01*
X1314419Y5335580D01*
X1318839Y5342196D01*
X1320391Y5349999D01*
Y6091553D01*
X1633868Y6405029D01*
X1646100Y6399300D01*
X1646100Y6393105D01*
Y6312700D01*
X1737301D01*
Y6403900D01*
X1657790D01*
X1650700Y6403901D01*
X1644971Y6416132D01*
X1969415Y6740577D01*
X1981442Y6736494D01*
X1982574Y6727895D01*
X1992650Y6703569D01*
X2008679Y6682679D01*
X2029568Y6666650D01*
X2053894Y6656574D01*
X2079999Y6653137D01*
X2120000D01*
X2146105Y6656574D01*
X2170431Y6666650D01*
X2191320Y6682679D01*
X2207349Y6703569D01*
X2217426Y6727895D01*
X2220862Y6754000D01*
X2217426Y6780105D01*
X2207349Y6804431D01*
X2191320Y6825321D01*
X2170431Y6841350D01*
X2146105Y6851426D01*
X2120000Y6854863D01*
X2100295D01*
X2095434Y6866596D01*
X2109823Y6880984D01*
X2109823Y6880985D01*
X2114244Y6887600D01*
X2115796Y6895404D01*
X2116388Y6897057D01*
X2125030Y6907543D01*
X2125977Y6907924D01*
X2146105Y6910574D01*
X2170431Y6920650D01*
X2191320Y6936679D01*
X2207349Y6957569D01*
X2217426Y6981895D01*
X2219576Y6998228D01*
X2219728Y6998764D01*
X2221252Y7001336D01*
X2226145Y7005947D01*
X2230852Y7009170D01*
X2234061Y7010030D01*
X2237322Y7010678D01*
X2237884Y7011054D01*
X2238538Y7011229D01*
X2241174Y7013252D01*
X2243938Y7015099D01*
X2864419Y7635580D01*
X2868840Y7642196D01*
X2870392Y7650000D01*
Y7742728D01*
X2883092Y7752473D01*
X2890455Y7750500D01*
X2909545D01*
X2927984Y7755441D01*
X2944516Y7764986D01*
X2955673Y7776142D01*
X2963500Y7777519D01*
X2971327Y7776142D01*
X2982484Y7764986D01*
X2999016Y7755441D01*
X3017455Y7750500D01*
X3036545D01*
X3054984Y7755441D01*
X3071516Y7764986D01*
X3078720Y7772189D01*
X3090369Y7774870D01*
X3095269Y7771564D01*
X3106168Y7760665D01*
X3123932Y7750409D01*
X3141299Y7745755D01*
Y7823000D01*
X3166699D01*
Y7745755D01*
X3184068Y7750409D01*
X3201832Y7760665D01*
X3208978Y7767811D01*
X3217500Y7774284D01*
X3226022Y7767811D01*
X3233168Y7760665D01*
X3250932Y7750409D01*
X3268299Y7745755D01*
Y7823000D01*
X3293699D01*
Y7745755D01*
X3311068Y7750409D01*
X3328832Y7760665D01*
X3335978Y7767811D01*
X3344500Y7774284D01*
X3353022Y7767811D01*
X3360168Y7760665D01*
X3377932Y7750409D01*
X3395299Y7745755D01*
Y7823000D01*
X3420699D01*
Y7744522D01*
D02*
G37*
G36*
X5250000Y5520392D02*
X4307550D01*
X4299747Y5518840D01*
X4293131Y5514419D01*
X4288711Y5507804D01*
X4276560Y5508743D01*
X4266563Y5514515D01*
X4240494Y5521500D01*
X4213506D01*
X4187436Y5514515D01*
X4177439Y5508743D01*
X4165289Y5507804D01*
X4160869Y5514419D01*
X4154253Y5518840D01*
X4146449Y5520392D01*
X4054917D01*
X4051242Y5519661D01*
X4047555Y5519016D01*
X4047351Y5518887D01*
X4047114Y5518840D01*
X4043994Y5516755D01*
X4040838Y5514751D01*
X4040699Y5514554D01*
X4040498Y5514419D01*
X4038415Y5511302D01*
X4036264Y5508240D01*
X4028067Y5505564D01*
X4012563Y5514515D01*
X3986494Y5521500D01*
X3959506D01*
X3933436Y5514515D01*
X3910064Y5501020D01*
X3890980Y5481936D01*
X3877485Y5458564D01*
X3870500Y5432494D01*
Y5405506D01*
X3877485Y5379437D01*
X3886200Y5364342D01*
X3884103Y5362941D01*
X3735581Y5214419D01*
X3731160Y5207804D01*
X3729608Y5200000D01*
Y1670392D01*
X3703900D01*
Y1737300D01*
X3600000D01*
X3496100D01*
Y1670392D01*
X3450000D01*
X3442197Y1668840D01*
X3435581Y1664419D01*
X3431161Y1657804D01*
X3429608Y1650000D01*
Y1350003D01*
X3429608Y1350000D01*
X3431160Y1342196D01*
X3435581Y1335581D01*
X3435581Y1335580D01*
X3629608Y1141553D01*
Y858447D01*
X3073681Y302520D01*
X3069260Y295904D01*
X3068072Y289929D01*
X3062096Y288740D01*
X3055481Y284319D01*
X2851354Y80193D01*
X2840588Y87387D01*
X2847426Y103895D01*
X2850862Y130000D01*
Y170000D01*
X2847426Y196106D01*
X2837349Y220432D01*
X2821320Y241321D01*
X2800431Y257350D01*
X2776105Y267426D01*
X2750000Y270863D01*
X2723895Y267426D01*
X2699569Y257350D01*
X2678679Y241321D01*
X2662650Y220432D01*
X2652574Y196106D01*
X2649137Y170000D01*
Y130000D01*
X2652574Y103895D01*
X2662650Y79569D01*
X2678679Y58679D01*
X2699569Y42650D01*
X2723895Y32574D01*
X2750000Y29137D01*
X2776105Y32574D01*
X2792613Y39412D01*
X2799807Y28645D01*
X2797314Y26153D01*
X2792893Y19537D01*
X2791341Y11733D01*
X2786948Y4849D01*
X2781408Y0D01*
X0D01*
Y629608D01*
X358228D01*
X359228Y616908D01*
X336775Y613352D01*
X296356Y600219D01*
X258489Y580925D01*
X224107Y555945D01*
X194055Y525893D01*
X169075Y491511D01*
X149781Y453644D01*
X136648Y413225D01*
X130000Y371249D01*
Y328751D01*
X136648Y286775D01*
X149781Y246356D01*
X169075Y208489D01*
X194055Y174107D01*
X224107Y144056D01*
X258489Y119075D01*
X296356Y99781D01*
X336775Y86648D01*
X378751Y80000D01*
X421249D01*
X463225Y86648D01*
X503644Y99781D01*
X541511Y119075D01*
X575893Y144056D01*
X605944Y174107D01*
X630925Y208489D01*
X650219Y246356D01*
X663352Y286775D01*
X670000Y328751D01*
Y371249D01*
X663352Y413225D01*
X650219Y453644D01*
X630925Y491511D01*
X605944Y525893D01*
X575893Y555945D01*
X541511Y580925D01*
X503644Y600219D01*
X463225Y613352D01*
X440772Y616908D01*
X441772Y629608D01*
X1899999Y629608D01*
X1900001Y629608D01*
X2233860D01*
X2236762Y630185D01*
X2239709Y630465D01*
X2240635Y630956D01*
X2241663Y631160D01*
X2244125Y632805D01*
X2246740Y634191D01*
X2247407Y634998D01*
X2248279Y635581D01*
X2253088Y640205D01*
X2265555Y639058D01*
X2272981Y634770D01*
X2290785Y630000D01*
X2309216D01*
X2327019Y634770D01*
X2334445Y639058D01*
X2346913Y640205D01*
X2351722Y635580D01*
X2352593Y634998D01*
X2353261Y634191D01*
X2355876Y632804D01*
X2358337Y631160D01*
X2359365Y630956D01*
X2360291Y630465D01*
X2363238Y630185D01*
X2366141Y629608D01*
X2750000D01*
X2757804Y631160D01*
X2764419Y635581D01*
X2764420Y635581D01*
X2914419Y785581D01*
X2918840Y792196D01*
X2920392Y800000D01*
Y1150000D01*
X2918840Y1157804D01*
X2914419Y1164419D01*
X2914419Y1164420D01*
X2764419Y1314419D01*
X2757804Y1318840D01*
X2750000Y1320392D01*
X2058447D01*
X1920392Y1458447D01*
Y1627575D01*
X1933092Y1629246D01*
X1934771Y1622981D01*
X1943986Y1607019D01*
X1957019Y1593986D01*
X1972981Y1584771D01*
X1990784Y1580000D01*
X2009216D01*
X2027019Y1584771D01*
X2042981Y1593986D01*
X2056014Y1607019D01*
X2065230Y1622981D01*
X2070000Y1640784D01*
Y1659216D01*
X2065230Y1677019D01*
X2056014Y1692981D01*
X2042981Y1706014D01*
X2027019Y1715229D01*
X2009216Y1720000D01*
X1990784D01*
X1972981Y1715229D01*
X1957019Y1706014D01*
X1943986Y1692981D01*
X1934771Y1677019D01*
X1933092Y1670754D01*
X1920392Y1672426D01*
X1920392Y2100000D01*
X1918840Y2107804D01*
X1914419Y2114419D01*
X1791478Y2237361D01*
X1789206Y2238879D01*
X1787140Y2240667D01*
X1785926Y2241070D01*
X1784862Y2241781D01*
X1782182Y2242314D01*
X1779590Y2243176D01*
X1773327Y2248966D01*
X1770728Y2252887D01*
X1770000Y2254900D01*
Y2259216D01*
X1765229Y2277019D01*
X1756014Y2292981D01*
X1742981Y2306014D01*
X1727019Y2315230D01*
X1709216Y2320000D01*
X1704900D01*
X1702890Y2320727D01*
X1698964Y2323328D01*
X1693175Y2329590D01*
X1692314Y2332182D01*
X1691781Y2334862D01*
X1691070Y2335926D01*
X1690667Y2337140D01*
X1688879Y2339206D01*
X1687361Y2341478D01*
X620392Y3408447D01*
Y4100000D01*
X1229608D01*
X1231160Y4092196D01*
X1235581Y4085581D01*
X1870141Y3451020D01*
X1870371Y3450867D01*
X1870529Y3450642D01*
X1873666Y3448665D01*
X1876757Y3446600D01*
X1877027Y3446546D01*
X1877260Y3446399D01*
X1880919Y3445772D01*
X1884560Y3445048D01*
X1884830Y3445102D01*
X1885102Y3445055D01*
X1888724Y3445876D01*
X1888800Y3445891D01*
X1896916Y3442786D01*
X1902523Y3437215D01*
X1908213Y3415980D01*
X1921181Y3393520D01*
X1939520Y3375180D01*
X1961981Y3362213D01*
X1983216Y3356523D01*
X1988786Y3350916D01*
X1991891Y3342800D01*
X1991875Y3342719D01*
X1991055Y3339102D01*
X1991101Y3338831D01*
X1991048Y3338560D01*
X1991772Y3334919D01*
X1992399Y3331260D01*
X1992546Y3331027D01*
X1992600Y3330757D01*
X1994663Y3327669D01*
X1996642Y3324529D01*
X1996867Y3324371D01*
X1997020Y3324141D01*
X2005528Y3315633D01*
X2000668Y3303900D01*
X1896100D01*
Y3212699D01*
X2000000D01*
Y3199999D01*
X2012700D01*
Y3096100D01*
X2103900D01*
Y3200668D01*
X2115633Y3205528D01*
X2389106Y2932056D01*
X2384803Y2918397D01*
X2372981Y2915230D01*
X2357019Y2906014D01*
X2343986Y2892981D01*
X2334771Y2877019D01*
X2330000Y2859216D01*
Y2840785D01*
X2334771Y2822981D01*
X2343986Y2807019D01*
X2357019Y2793986D01*
X2372981Y2784771D01*
X2390784Y2780000D01*
X2409216D01*
X2427019Y2784771D01*
X2442981Y2793986D01*
X2456014Y2807019D01*
X2465230Y2822981D01*
X2468397Y2834803D01*
X2482055Y2839106D01*
X3035581Y2285581D01*
X3042196Y2281160D01*
X3050000Y2279608D01*
X3341858D01*
X3341859Y2279608D01*
X3349663Y2281160D01*
X3356279Y2285581D01*
X3356279Y2285581D01*
X3364419Y2293721D01*
X3368840Y2300337D01*
X3370392Y2308141D01*
Y2749999D01*
X3370392Y2750000D01*
X3368840Y2757804D01*
X3364419Y2764419D01*
X3364418Y2764420D01*
X2970392Y3158447D01*
Y4349999D01*
X2970392Y4350000D01*
X3150000D01*
X3169647Y4369647D01*
X3181034Y4363073D01*
X3180000Y4359216D01*
Y4340785D01*
X3184771Y4322982D01*
X3193986Y4307020D01*
X3207019Y4293987D01*
X3222981Y4284771D01*
X3240784Y4280001D01*
X3259216D01*
X3277019Y4284771D01*
X3292981Y4293987D01*
X3306014Y4307020D01*
X3315230Y4322982D01*
X3320000Y4340785D01*
Y4359216D01*
X3315230Y4377020D01*
X3306014Y4392982D01*
X3292981Y4406015D01*
X3277019Y4415230D01*
X3259216Y4420001D01*
X3240784D01*
X3236928Y4418967D01*
X3230354Y4430354D01*
X3300000Y4500000D01*
Y5050000D01*
X2850000Y5500000D01*
X2320392D01*
X2220000Y5500000D01*
Y5584000D01*
X2008979D01*
X1999999Y5592980D01*
X2000000Y5658245D01*
X2012700Y5663594D01*
X2029568Y5650650D01*
X2053894Y5640574D01*
X2079999Y5637137D01*
X2120000D01*
X2146105Y5640574D01*
X2170431Y5650650D01*
X2191320Y5666679D01*
X2207349Y5687569D01*
X2217426Y5711895D01*
X2220862Y5738000D01*
X2217426Y5764105D01*
X2207349Y5788431D01*
X2191320Y5809321D01*
X2170431Y5825350D01*
X2146105Y5835426D01*
X2120000Y5838863D01*
X2079999D01*
X2053894Y5835426D01*
X2029568Y5825350D01*
X2012702Y5812407D01*
X2000001Y5817758D01*
X2000002Y5904522D01*
X2012703Y5910785D01*
X2026845Y5899933D01*
X2052485Y5889313D01*
X2079999Y5885691D01*
X2087299D01*
Y5992000D01*
X2099999D01*
D01*
X2087299D01*
Y6098309D01*
X2079999D01*
X2064188Y6096228D01*
X2058256Y6108257D01*
X2095137Y6145137D01*
X2120000D01*
X2146105Y6148574D01*
X2170431Y6158650D01*
X2191320Y6174679D01*
X2207349Y6195569D01*
X2217426Y6219895D01*
X2220862Y6246000D01*
X2217970Y6267970D01*
X3449977Y7499976D01*
X3449976Y7763519D01*
X3452516Y7764986D01*
X3466014Y7778484D01*
X3475559Y7795016D01*
X3480500Y7813455D01*
Y7832545D01*
X3475559Y7850984D01*
X3467583Y7864800D01*
X3472277Y7877500D01*
X3480500D01*
Y8022500D01*
X3335500D01*
Y8014277D01*
X3322800Y8009583D01*
X3308984Y8017559D01*
X3290545Y8022500D01*
X3271455D01*
X3253016Y8017559D01*
X3236484Y8008014D01*
X3229280Y8000811D01*
X3217631Y7998130D01*
X3212731Y8001437D01*
X3201832Y8012336D01*
X3184068Y8022591D01*
X3166699Y8027246D01*
Y7950000D01*
X3141299D01*
Y8027245D01*
X3123932Y8022591D01*
X3106168Y8012336D01*
X3099022Y8005189D01*
X3090500Y7998717D01*
X3081978Y8005189D01*
X3074832Y8012336D01*
X3057068Y8022591D01*
X3039699Y8027246D01*
Y7950000D01*
X3014299D01*
Y8027245D01*
X2996932Y8022591D01*
X2979168Y8012336D01*
X2972022Y8005189D01*
X2963500Y7998717D01*
X2954978Y8005189D01*
X2947832Y8012336D01*
X2930068Y8022591D01*
X2912699Y8027246D01*
Y7950000D01*
X2887299D01*
Y8027245D01*
X2869932Y8022591D01*
X2852168Y8012336D01*
X2841269Y8001437D01*
X2836369Y7998130D01*
X2824720Y8000811D01*
X2817516Y8008014D01*
X2800984Y8017559D01*
X2782545Y8022500D01*
X2763455D01*
X2745016Y8017559D01*
X2728484Y8008014D01*
X2717327Y7996858D01*
X2709500Y7995481D01*
X2701673Y7996858D01*
X2690516Y8008014D01*
X2673984Y8017559D01*
X2655545Y8022500D01*
X2636455D01*
X2618016Y8017559D01*
X2601484Y8008014D01*
X2590327Y7996858D01*
X2582500Y7995481D01*
X2574673Y7996858D01*
X2563516Y8008014D01*
X2546984Y8017559D01*
X2528545Y8022500D01*
X2509455D01*
X2491016Y8017559D01*
X2474484Y8008014D01*
X2467280Y8000811D01*
X2455631Y7998130D01*
X2450731Y8001437D01*
X2439832Y8012336D01*
X2422068Y8022591D01*
X2404699Y8027246D01*
Y7950000D01*
X2379299D01*
Y8027245D01*
X2361932Y8022591D01*
X2344168Y8012336D01*
X2337022Y8005189D01*
X2328500Y7998717D01*
X2319978Y8005189D01*
X2312832Y8012336D01*
X2295068Y8022591D01*
X2277699Y8027246D01*
Y7950000D01*
X2264999D01*
Y7937300D01*
X2187755D01*
X2192409Y7919932D01*
X2196583Y7912703D01*
X2189250Y7900003D01*
X1850000Y7900005D01*
X1850000Y8249999D01*
X5249999Y8250000D01*
X5250000Y5520392D01*
D02*
G37*
G36*
X1829608Y7900005D02*
X1831160Y7892201D01*
X1835580Y7885586D01*
X1835628Y7885099D01*
X1835581Y7885052D01*
X1831160Y7878436D01*
X1829608Y7870632D01*
X1829608Y7566141D01*
X1830186Y7563238D01*
X1830465Y7560291D01*
X1830956Y7559365D01*
X1831161Y7558337D01*
X1832806Y7555875D01*
X1834191Y7553261D01*
X1834999Y7552593D01*
X1835581Y7551721D01*
X1840206Y7546912D01*
X1839058Y7534445D01*
X1834771Y7527019D01*
X1830000Y7509216D01*
Y7490784D01*
X1834771Y7472981D01*
X1839058Y7465555D01*
X1840206Y7453088D01*
X1835581Y7448278D01*
X1834999Y7447407D01*
X1834191Y7446739D01*
X1832805Y7444124D01*
X1831161Y7441663D01*
X1830956Y7440635D01*
X1830465Y7439709D01*
X1830186Y7436762D01*
X1829608Y7433859D01*
Y7408447D01*
X1241553Y6820392D01*
X600000D01*
X592196Y6818840D01*
X585580Y6814419D01*
X581160Y6807804D01*
X579608Y6800000D01*
Y5670392D01*
X-1D01*
Y8237300D01*
X1Y8249999D01*
X1829608D01*
X1829608Y7900005D01*
D02*
G37*
G36*
X5250000Y0D02*
X2816594D01*
X2811733Y11733D01*
X3069900Y269900D01*
X3082600Y264640D01*
Y162700D01*
X3175300D01*
Y275400D01*
X3093361D01*
X3088100Y288100D01*
X3650000Y850000D01*
Y1150000D01*
X3450000Y1350000D01*
X3450000Y1350000D01*
Y1650000D01*
X3750000D01*
Y5200000D01*
X3898522Y5348522D01*
X3910064Y5336980D01*
X3933436Y5323485D01*
X3959506Y5316500D01*
X3986494D01*
X4012563Y5323485D01*
X4035936Y5336980D01*
X4055020Y5356064D01*
X4068515Y5379437D01*
X4075500Y5405506D01*
Y5432494D01*
X4068515Y5458564D01*
X4055020Y5481936D01*
X4049414Y5487542D01*
X4054917Y5500000D01*
X4146449D01*
X4151310Y5488267D01*
X4144980Y5481936D01*
X4131485Y5458564D01*
X4124500Y5432494D01*
Y5405506D01*
X4131485Y5379437D01*
X4144980Y5356064D01*
X4164064Y5336980D01*
X4187436Y5323485D01*
X4213506Y5316500D01*
X4240494D01*
X4266563Y5323485D01*
X4289936Y5336980D01*
X4309020Y5356064D01*
X4322515Y5379437D01*
X4329500Y5405506D01*
Y5432494D01*
X4322515Y5458564D01*
X4309020Y5481936D01*
X4302690Y5488267D01*
X4307550Y5500000D01*
X5250000D01*
Y0D01*
D02*
G37*
G36*
X2600000Y4700000D02*
X2950000Y4350000D01*
Y3150000D01*
X3350000Y2750000D01*
Y2308141D01*
X3341859Y2300000D01*
X3050000D01*
X2098500Y3251500D01*
Y3298500D01*
X2051500D01*
X2011440Y3338560D01*
X2016977Y3350984D01*
X2040104Y3357180D01*
X2063796Y3370859D01*
X2083141Y3390204D01*
X2096820Y3413896D01*
X2103900Y3440321D01*
Y3441299D01*
X2000000D01*
Y3453999D01*
X1987300D01*
Y3557900D01*
X1986321D01*
X1959896Y3550819D01*
X1936204Y3537141D01*
X1916859Y3517796D01*
X1903181Y3494104D01*
X1896984Y3470977D01*
X1884560Y3465440D01*
X1250000Y4100000D01*
X1250001Y4250000D01*
X1550000Y4550000D01*
X1750000D01*
X1950000Y4750000D01*
X2250000Y5050000D01*
X2600000D01*
Y4700000D01*
D02*
G37*
G36*
X600000Y3400000D02*
X1672941Y2327059D01*
X1669069Y2312971D01*
X1657019Y2306014D01*
X1643986Y2292981D01*
X1634770Y2277019D01*
X1630000Y2259216D01*
Y2240784D01*
X1634770Y2222981D01*
X1643986Y2207019D01*
X1657019Y2193986D01*
X1672981Y2184771D01*
X1690784Y2180000D01*
X1709216D01*
X1727019Y2184771D01*
X1742981Y2193986D01*
X1756014Y2207019D01*
X1762971Y2219069D01*
X1777059Y2222941D01*
X1900000Y2100000D01*
X1900000Y1450000D01*
X2050000Y1300000D01*
X2750000D01*
X2900000Y1150000D01*
Y800000D01*
X2750000Y650000D01*
X2366141D01*
X2359294Y662700D01*
X2365230Y672981D01*
X2370000Y690784D01*
Y709215D01*
X2365230Y727019D01*
X2356014Y742981D01*
X2342981Y756014D01*
X2327019Y765229D01*
X2309216Y770000D01*
X2290785D01*
X2272981Y765229D01*
X2257019Y756014D01*
X2243986Y742981D01*
X2234771Y727019D01*
X2230000Y709215D01*
Y690784D01*
X2234771Y672981D01*
X2240706Y662700D01*
X2233860Y650000D01*
X1900000D01*
X1899999Y650000D01*
X0Y650000D01*
X-1Y5650000D01*
X600000D01*
Y3400000D01*
D02*
G37*
%LPC*%
G36*
X1112700Y6724657D02*
Y6662700D01*
X1174657D01*
X1170262Y6679103D01*
X1160335Y6696296D01*
X1146297Y6710335D01*
X1129103Y6720262D01*
X1112700Y6724657D01*
D02*
G37*
G36*
X1087300D02*
X1070897Y6720262D01*
X1053704Y6710335D01*
X1039665Y6696296D01*
X1029738Y6679103D01*
X1025343Y6662700D01*
X1087300D01*
Y6724657D01*
D02*
G37*
G36*
X1174657Y6637300D02*
X1112700D01*
Y6575343D01*
X1129103Y6579738D01*
X1146297Y6589665D01*
X1160335Y6603703D01*
X1170262Y6620897D01*
X1174657Y6637300D01*
D02*
G37*
G36*
X1087300D02*
X1025343D01*
X1029738Y6620897D01*
X1039665Y6603703D01*
X1053704Y6589665D01*
X1070897Y6579738D01*
X1087300Y6575343D01*
Y6637300D01*
D02*
G37*
G36*
X1209216Y6520000D02*
X1190784D01*
X1172981Y6515230D01*
X1157019Y6506014D01*
X1143986Y6492981D01*
X1134770Y6477019D01*
X1130000Y6459216D01*
Y6440784D01*
X1134770Y6422981D01*
X1143986Y6407019D01*
X1157019Y6393986D01*
X1172981Y6384771D01*
X1190784Y6380000D01*
X1209216D01*
X1227019Y6384771D01*
X1242981Y6393986D01*
X1256014Y6407019D01*
X1265229Y6422981D01*
X1270000Y6440784D01*
Y6459216D01*
X1265229Y6477019D01*
X1256014Y6492981D01*
X1242981Y6506014D01*
X1227019Y6515230D01*
X1209216Y6520000D01*
D02*
G37*
G36*
X2359216Y5370000D02*
X2340784D01*
X2322981Y5365230D01*
X2307019Y5356014D01*
X2293986Y5342981D01*
X2284771Y5327019D01*
X2280000Y5309216D01*
Y5290784D01*
X2284771Y5272981D01*
X2293986Y5257019D01*
X2307019Y5243986D01*
X2322981Y5234771D01*
X2340784Y5230000D01*
X2359216D01*
X2377019Y5234771D01*
X2392981Y5243986D01*
X2406014Y5257019D01*
X2415230Y5272981D01*
X2420000Y5290784D01*
Y5309216D01*
X2415230Y5327019D01*
X2406014Y5342981D01*
X2392981Y5356014D01*
X2377019Y5365230D01*
X2359216Y5370000D01*
D02*
G37*
G36*
X2937300Y5287300D02*
X2875343D01*
X2879738Y5270897D01*
X2889665Y5253703D01*
X2903703Y5239665D01*
X2920896Y5229738D01*
X2937300Y5225343D01*
Y5287300D01*
D02*
G37*
G36*
X3112700Y4774657D02*
Y4712700D01*
X3174657D01*
X3170262Y4729104D01*
X3160335Y4746297D01*
X3146296Y4760335D01*
X3129103Y4770262D01*
X3112700Y4774657D01*
D02*
G37*
G36*
X3087300D02*
X3070897Y4770262D01*
X3053703Y4760335D01*
X3039665Y4746297D01*
X3029738Y4729104D01*
X3025343Y4712700D01*
X3087300D01*
Y4774657D01*
D02*
G37*
G36*
X1062700D02*
Y4712700D01*
X1124657D01*
X1120262Y4729104D01*
X1110335Y4746297D01*
X1096297Y4760335D01*
X1079104Y4770262D01*
X1062700Y4774657D01*
D02*
G37*
G36*
X1037300D02*
X1020897Y4770262D01*
X1003704Y4760335D01*
X989665Y4746297D01*
X979738Y4729104D01*
X975343Y4712700D01*
X1037300D01*
Y4774657D01*
D02*
G37*
G36*
X3174657Y4687300D02*
X3112700D01*
Y4625344D01*
X3129103Y4629739D01*
X3146296Y4639665D01*
X3160335Y4653704D01*
X3170262Y4670897D01*
X3174657Y4687300D01*
D02*
G37*
G36*
X3087300D02*
X3025343D01*
X3029738Y4670897D01*
X3039665Y4653704D01*
X3053703Y4639665D01*
X3070897Y4629739D01*
X3087300Y4625344D01*
Y4687300D01*
D02*
G37*
G36*
X1124657D02*
X1062700D01*
Y4625344D01*
X1079104Y4629739D01*
X1096297Y4639665D01*
X1110335Y4653704D01*
X1120262Y4670897D01*
X1124657Y4687300D01*
D02*
G37*
G36*
X1037300D02*
X975343D01*
X979738Y4670897D01*
X989665Y4653704D01*
X1003704Y4639665D01*
X1020897Y4629739D01*
X1037300Y4625344D01*
Y4687300D01*
D02*
G37*
G36*
X1217923Y4426207D02*
X1199492D01*
X1181689Y4421437D01*
X1165727Y4412221D01*
X1152694Y4399188D01*
X1143478Y4383226D01*
X1138708Y4365423D01*
Y4346992D01*
X1143478Y4329188D01*
X1152694Y4313226D01*
X1165727Y4300193D01*
X1181689Y4290978D01*
X1199492Y4286207D01*
X1217923D01*
X1235727Y4290978D01*
X1251689Y4300193D01*
X1264722Y4313226D01*
X1273937Y4329188D01*
X1278708Y4346992D01*
Y4365423D01*
X1273937Y4383226D01*
X1264722Y4399188D01*
X1251689Y4412221D01*
X1235727Y4421437D01*
X1217923Y4426207D01*
D02*
G37*
G36*
X2462700Y6724657D02*
Y6662700D01*
X2524657D01*
X2520262Y6679103D01*
X2510335Y6696296D01*
X2496297Y6710335D01*
X2479103Y6720262D01*
X2462700Y6724657D01*
D02*
G37*
G36*
X2437300D02*
X2420897Y6720262D01*
X2403703Y6710335D01*
X2389665Y6696296D01*
X2379738Y6679103D01*
X2375343Y6662700D01*
X2437300D01*
Y6724657D01*
D02*
G37*
G36*
Y6637300D02*
X2375343D01*
X2379738Y6620897D01*
X2389665Y6603703D01*
X2403703Y6589665D01*
X2420897Y6579738D01*
X2437300Y6575343D01*
Y6637300D01*
D02*
G37*
G36*
X2120000Y6600863D02*
X2079999D01*
X2053894Y6597426D01*
X2029568Y6587350D01*
X2008679Y6571321D01*
X1992650Y6550431D01*
X1982574Y6526105D01*
X1979137Y6500000D01*
X1982574Y6473895D01*
X1992650Y6449569D01*
X2008679Y6428679D01*
X2029568Y6412650D01*
X2053894Y6402574D01*
X2079999Y6399137D01*
X2120000D01*
X2146105Y6402574D01*
X2170431Y6412650D01*
X2191320Y6428679D01*
X2207349Y6449569D01*
X2217426Y6473895D01*
X2220862Y6500000D01*
X2217426Y6526105D01*
X2207349Y6550431D01*
X2191320Y6571321D01*
X2170431Y6587350D01*
X2146105Y6597426D01*
X2120000Y6600863D01*
D02*
G37*
G36*
X1762701Y6403900D02*
Y6312700D01*
X1853900D01*
Y6403900D01*
X1762701D01*
D02*
G37*
G36*
X1853900Y6287300D02*
X1762701D01*
Y6196100D01*
X1853900D01*
Y6287300D01*
D02*
G37*
G36*
X1737301D02*
X1646100D01*
Y6196100D01*
X1737301D01*
Y6287300D01*
D02*
G37*
G36*
X1762968Y6144500D02*
X1737032D01*
X1711981Y6137787D01*
X1689520Y6124820D01*
X1671181Y6106481D01*
X1658213Y6084020D01*
X1651500Y6058968D01*
Y6033032D01*
X1658213Y6007981D01*
X1671181Y5985520D01*
X1689520Y5967181D01*
X1711981Y5954213D01*
X1737032Y5947500D01*
X1762968D01*
X1788020Y5954213D01*
X1810481Y5967181D01*
X1828820Y5985520D01*
X1841787Y6007981D01*
X1848500Y6033032D01*
Y6058968D01*
X1841787Y6084020D01*
X1828820Y6106481D01*
X1810481Y6124820D01*
X1788020Y6137787D01*
X1762968Y6144500D01*
D02*
G37*
G36*
X1362700Y5174657D02*
Y5112700D01*
X1424657D01*
X1420262Y5129103D01*
X1410335Y5146297D01*
X1396297Y5160335D01*
X1379103Y5170262D01*
X1362700Y5174657D01*
D02*
G37*
G36*
X1337300D02*
X1320897Y5170262D01*
X1303704Y5160335D01*
X1289665Y5146297D01*
X1279738Y5129103D01*
X1275343Y5112700D01*
X1337300D01*
Y5174657D01*
D02*
G37*
G36*
X1424657Y5087300D02*
X1362700D01*
Y5025343D01*
X1379103Y5029738D01*
X1396297Y5039665D01*
X1410335Y5053703D01*
X1420262Y5070897D01*
X1424657Y5087300D01*
D02*
G37*
G36*
X1337300D02*
X1275343D01*
X1279738Y5070897D01*
X1289665Y5053703D01*
X1303704Y5039665D01*
X1320897Y5029738D01*
X1337300Y5025343D01*
Y5087300D01*
D02*
G37*
G36*
X2252299Y8027245D02*
X2234932Y8022591D01*
X2217168Y8012336D01*
X2202665Y7997832D01*
X2192409Y7980068D01*
X2187755Y7962700D01*
X2252299D01*
Y8027245D01*
D02*
G37*
G36*
X3459216Y7420000D02*
X3440784D01*
X3422981Y7415230D01*
X3407019Y7406014D01*
X3393986Y7392981D01*
X3384770Y7377019D01*
X3380000Y7359216D01*
Y7340784D01*
X3384770Y7322981D01*
X3393986Y7307019D01*
X3407019Y7293986D01*
X3422981Y7284771D01*
X3440784Y7280000D01*
X3459216D01*
X3477019Y7284771D01*
X3492981Y7293986D01*
X3506014Y7307019D01*
X3515229Y7322981D01*
X3520000Y7340784D01*
Y7359216D01*
X3515229Y7377019D01*
X3506014Y7392981D01*
X3492981Y7406014D01*
X3477019Y7415230D01*
X3459216Y7420000D01*
D02*
G37*
G36*
X4944545Y7199500D02*
X4925455D01*
X4907016Y7194559D01*
X4890484Y7185014D01*
X4879327Y7173858D01*
X4871500Y7172481D01*
X4863673Y7173858D01*
X4852516Y7185014D01*
X4835984Y7194559D01*
X4817545Y7199500D01*
X4798455D01*
X4780016Y7194559D01*
X4763484Y7185014D01*
X4752327Y7173858D01*
X4744500Y7172481D01*
X4736673Y7173858D01*
X4725516Y7185014D01*
X4708984Y7194559D01*
X4690545Y7199500D01*
X4671455D01*
X4653016Y7194559D01*
X4636484Y7185014D01*
X4625327Y7173858D01*
X4617500Y7172481D01*
X4609673Y7173858D01*
X4598516Y7185014D01*
X4581984Y7194559D01*
X4563545Y7199500D01*
X4544455D01*
X4526016Y7194559D01*
X4509484Y7185014D01*
X4498327Y7173858D01*
X4490500Y7172481D01*
X4482673Y7173858D01*
X4471516Y7185014D01*
X4454984Y7194559D01*
X4436545Y7199500D01*
X4417455D01*
X4399016Y7194559D01*
X4382484Y7185014D01*
X4371327Y7173858D01*
X4363500Y7172481D01*
X4355673Y7173858D01*
X4344516Y7185014D01*
X4327984Y7194559D01*
X4309545Y7199500D01*
X4290455D01*
X4272016Y7194559D01*
X4255484Y7185014D01*
X4244327Y7173858D01*
X4236500Y7172481D01*
X4228673Y7173858D01*
X4217516Y7185014D01*
X4200984Y7194559D01*
X4182545Y7199500D01*
X4163455D01*
X4145016Y7194559D01*
X4128484Y7185014D01*
X4117327Y7173858D01*
X4109500Y7172481D01*
X4101673Y7173858D01*
X4090516Y7185014D01*
X4073984Y7194559D01*
X4055545Y7199500D01*
X4036455D01*
X4018016Y7194559D01*
X4001484Y7185014D01*
X3990327Y7173858D01*
X3982500Y7172481D01*
X3974673Y7173858D01*
X3963516Y7185014D01*
X3946984Y7194559D01*
X3928545Y7199500D01*
X3909455D01*
X3891016Y7194559D01*
X3874484Y7185014D01*
X3863327Y7173858D01*
X3855500Y7172481D01*
X3847673Y7173858D01*
X3836516Y7185014D01*
X3819984Y7194559D01*
X3801545Y7199500D01*
X3782455D01*
X3764016Y7194559D01*
X3747484Y7185014D01*
X3733986Y7171516D01*
X3724441Y7154984D01*
X3719500Y7136545D01*
Y7117455D01*
X3724441Y7099016D01*
X3732417Y7085200D01*
X3727723Y7072500D01*
X3719500D01*
Y6927500D01*
X3864500D01*
Y6935723D01*
X3877200Y6940417D01*
X3891016Y6932441D01*
X3909455Y6927500D01*
X3928545D01*
X3946984Y6932441D01*
X3963516Y6941986D01*
X3974673Y6953142D01*
X3982500Y6954519D01*
X3990327Y6953142D01*
X4001484Y6941986D01*
X4018016Y6932441D01*
X4036455Y6927500D01*
X4055545D01*
X4073984Y6932441D01*
X4090516Y6941986D01*
X4101673Y6953142D01*
X4109500Y6954519D01*
X4117327Y6953142D01*
X4128484Y6941986D01*
X4145016Y6932441D01*
X4163455Y6927500D01*
X4182545D01*
X4200984Y6932441D01*
X4217516Y6941986D01*
X4228673Y6953142D01*
X4236500Y6954519D01*
X4244327Y6953142D01*
X4255484Y6941986D01*
X4272016Y6932441D01*
X4290455Y6927500D01*
X4309545D01*
X4327984Y6932441D01*
X4344516Y6941986D01*
X4355673Y6953142D01*
X4363500Y6954519D01*
X4371327Y6953142D01*
X4382484Y6941986D01*
X4399016Y6932441D01*
X4417455Y6927500D01*
X4436545D01*
X4454984Y6932441D01*
X4471516Y6941986D01*
X4482673Y6953142D01*
X4490500Y6954519D01*
X4498327Y6953142D01*
X4509484Y6941986D01*
X4526016Y6932441D01*
X4544455Y6927500D01*
X4563545D01*
X4581984Y6932441D01*
X4598516Y6941986D01*
X4609673Y6953142D01*
X4617500Y6954519D01*
X4625327Y6953142D01*
X4636484Y6941986D01*
X4653016Y6932441D01*
X4671455Y6927500D01*
X4690545D01*
X4708984Y6932441D01*
X4725516Y6941986D01*
X4736673Y6953142D01*
X4744500Y6954519D01*
X4752327Y6953142D01*
X4763484Y6941986D01*
X4780016Y6932441D01*
X4798455Y6927500D01*
X4817545D01*
X4835984Y6932441D01*
X4852516Y6941986D01*
X4863673Y6953142D01*
X4871500Y6954519D01*
X4879327Y6953142D01*
X4890484Y6941986D01*
X4907016Y6932441D01*
X4925455Y6927500D01*
X4944545D01*
X4962984Y6932441D01*
X4979516Y6941986D01*
X4993014Y6955484D01*
X5002559Y6972016D01*
X5007500Y6990455D01*
Y7009545D01*
X5002559Y7027984D01*
X4993014Y7044516D01*
X4981858Y7055673D01*
X4980481Y7063500D01*
X4981858Y7071327D01*
X4993014Y7082484D01*
X5002559Y7099016D01*
X5007500Y7117455D01*
Y7136545D01*
X5002559Y7154984D01*
X4993014Y7171516D01*
X4979516Y7185014D01*
X4962984Y7194559D01*
X4944545Y7199500D01*
D02*
G37*
G36*
X3459216Y7020000D02*
X3440784D01*
X3422981Y7015230D01*
X3407019Y7006014D01*
X3393986Y6992981D01*
X3384770Y6977019D01*
X3380000Y6959216D01*
Y6940784D01*
X3384770Y6922981D01*
X3393986Y6907019D01*
X3407019Y6893986D01*
X3422981Y6884771D01*
X3440784Y6880000D01*
X3459216D01*
X3477019Y6884771D01*
X3492981Y6893986D01*
X3506014Y6907019D01*
X3515229Y6922981D01*
X3520000Y6940784D01*
Y6959216D01*
X3515229Y6977019D01*
X3506014Y6992981D01*
X3492981Y7006014D01*
X3477019Y7015230D01*
X3459216Y7020000D01*
D02*
G37*
G36*
Y6620000D02*
X3440784D01*
X3422981Y6615230D01*
X3407019Y6606014D01*
X3393986Y6592981D01*
X3384770Y6577019D01*
X3380000Y6559216D01*
Y6540784D01*
X3384770Y6522981D01*
X3393986Y6507019D01*
X3407019Y6493986D01*
X3422981Y6484771D01*
X3440784Y6480000D01*
X3459216D01*
X3477019Y6484771D01*
X3492981Y6493986D01*
X3506014Y6507019D01*
X3515229Y6522981D01*
X3520000Y6540784D01*
Y6559216D01*
X3515229Y6577019D01*
X3506014Y6592981D01*
X3492981Y6606014D01*
X3477019Y6615230D01*
X3459216Y6620000D01*
D02*
G37*
G36*
X4240494Y6537500D02*
X4213506D01*
X4187436Y6530515D01*
X4164064Y6517020D01*
X4144980Y6497936D01*
X4131485Y6474564D01*
X4124500Y6448494D01*
Y6421506D01*
X4131485Y6395437D01*
X4144980Y6372064D01*
X4164064Y6352980D01*
X4187436Y6339485D01*
X4213506Y6332500D01*
X4240494D01*
X4266563Y6339485D01*
X4289936Y6352980D01*
X4309020Y6372064D01*
X4322515Y6395437D01*
X4329500Y6421506D01*
Y6448494D01*
X4322515Y6474564D01*
X4309020Y6497936D01*
X4289936Y6517020D01*
X4266563Y6530515D01*
X4240494Y6537500D01*
D02*
G37*
G36*
X3986494D02*
X3959506D01*
X3933436Y6530515D01*
X3910064Y6517020D01*
X3890980Y6497936D01*
X3877485Y6474564D01*
X3870500Y6448494D01*
Y6421506D01*
X3877485Y6395437D01*
X3890980Y6372064D01*
X3910064Y6352980D01*
X3933436Y6339485D01*
X3959506Y6332500D01*
X3986494D01*
X4012563Y6339485D01*
X4035936Y6352980D01*
X4055020Y6372064D01*
X4068515Y6395437D01*
X4075500Y6421506D01*
Y6448494D01*
X4068515Y6474564D01*
X4055020Y6497936D01*
X4035936Y6517020D01*
X4012563Y6530515D01*
X3986494Y6537500D01*
D02*
G37*
G36*
X4240494Y6283500D02*
X4213506D01*
X4187436Y6276515D01*
X4164064Y6263020D01*
X4144980Y6243936D01*
X4131485Y6220564D01*
X4124500Y6194494D01*
Y6167506D01*
X4131485Y6141437D01*
X4144980Y6118064D01*
X4164064Y6098980D01*
X4187436Y6085485D01*
X4213506Y6078500D01*
X4240494D01*
X4266563Y6085485D01*
X4289936Y6098980D01*
X4309020Y6118064D01*
X4322515Y6141437D01*
X4329500Y6167506D01*
Y6194494D01*
X4322515Y6220564D01*
X4309020Y6243936D01*
X4289936Y6263020D01*
X4266563Y6276515D01*
X4240494Y6283500D01*
D02*
G37*
G36*
X3986494D02*
X3959506D01*
X3933436Y6276515D01*
X3910064Y6263020D01*
X3890980Y6243936D01*
X3877485Y6220564D01*
X3870500Y6194494D01*
Y6167506D01*
X3877485Y6141437D01*
X3890980Y6118064D01*
X3910064Y6098980D01*
X3933436Y6085485D01*
X3959506Y6078500D01*
X3986494D01*
X4012563Y6085485D01*
X4035936Y6098980D01*
X4055020Y6118064D01*
X4068515Y6141437D01*
X4075500Y6167506D01*
Y6194494D01*
X4068515Y6220564D01*
X4055020Y6243936D01*
X4035936Y6263020D01*
X4012563Y6276515D01*
X3986494Y6283500D01*
D02*
G37*
G36*
X2517327Y6074657D02*
Y6012700D01*
X2579284D01*
X2574889Y6029103D01*
X2564963Y6046297D01*
X2550924Y6060335D01*
X2533731Y6070262D01*
X2517327Y6074657D01*
D02*
G37*
G36*
X2491927D02*
X2475524Y6070262D01*
X2458331Y6060335D01*
X2444292Y6046297D01*
X2434366Y6029103D01*
X2429971Y6012700D01*
X2491927D01*
Y6074657D01*
D02*
G37*
G36*
X2120000Y6098309D02*
X2112699D01*
Y6004700D01*
X2224637D01*
X2222687Y6019515D01*
X2212066Y6045155D01*
X2195172Y6067172D01*
X2173155Y6084067D01*
X2147515Y6094687D01*
X2120000Y6098309D01*
D02*
G37*
G36*
X2579284Y5987300D02*
X2517327D01*
Y5925343D01*
X2533731Y5929738D01*
X2550924Y5939665D01*
X2564963Y5953703D01*
X2574889Y5970897D01*
X2579284Y5987300D01*
D02*
G37*
G36*
X2491927D02*
X2429971D01*
X2434366Y5970897D01*
X2444292Y5953703D01*
X2458331Y5939665D01*
X2475524Y5929738D01*
X2491927Y5925343D01*
Y5987300D01*
D02*
G37*
G36*
X2224637Y5979300D02*
X2112699D01*
Y5885691D01*
X2120000D01*
X2147515Y5889313D01*
X2173155Y5899933D01*
X2195172Y5916828D01*
X2212066Y5938845D01*
X2222687Y5964485D01*
X2224637Y5979300D01*
D02*
G37*
G36*
X4240494Y6029500D02*
X4213506D01*
X4187436Y6022515D01*
X4164064Y6009020D01*
X4144980Y5989936D01*
X4131485Y5966564D01*
X4124500Y5940494D01*
Y5913506D01*
X4131485Y5887437D01*
X4144980Y5864064D01*
X4164064Y5844980D01*
X4187436Y5831485D01*
X4213506Y5824500D01*
X4240494D01*
X4266563Y5831485D01*
X4289936Y5844980D01*
X4309020Y5864064D01*
X4322515Y5887437D01*
X4329500Y5913506D01*
Y5940494D01*
X4322515Y5966564D01*
X4309020Y5989936D01*
X4289936Y6009020D01*
X4266563Y6022515D01*
X4240494Y6029500D01*
D02*
G37*
G36*
X3986494D02*
X3959506D01*
X3933436Y6022515D01*
X3910064Y6009020D01*
X3890980Y5989936D01*
X3877485Y5966564D01*
X3870500Y5940494D01*
Y5913506D01*
X3877485Y5887437D01*
X3890980Y5864064D01*
X3910064Y5844980D01*
X3933436Y5831485D01*
X3959506Y5824500D01*
X3986494D01*
X4012563Y5831485D01*
X4035936Y5844980D01*
X4055020Y5864064D01*
X4068515Y5887437D01*
X4075500Y5913506D01*
Y5940494D01*
X4068515Y5966564D01*
X4055020Y5989936D01*
X4035936Y6009020D01*
X4012563Y6022515D01*
X3986494Y6029500D01*
D02*
G37*
G36*
X4240494Y5775500D02*
X4213506D01*
X4187436Y5768515D01*
X4164064Y5755020D01*
X4144980Y5735936D01*
X4131485Y5712564D01*
X4124500Y5686494D01*
Y5659506D01*
X4131485Y5633437D01*
X4144980Y5610064D01*
X4164064Y5590980D01*
X4187436Y5577485D01*
X4213506Y5570500D01*
X4240494D01*
X4266563Y5577485D01*
X4289936Y5590980D01*
X4309020Y5610064D01*
X4322515Y5633437D01*
X4329500Y5659506D01*
Y5686494D01*
X4322515Y5712564D01*
X4309020Y5735936D01*
X4289936Y5755020D01*
X4266563Y5768515D01*
X4240494Y5775500D01*
D02*
G37*
G36*
X3986494D02*
X3959506D01*
X3933436Y5768515D01*
X3910064Y5755020D01*
X3890980Y5735936D01*
X3877485Y5712564D01*
X3870500Y5686494D01*
Y5659506D01*
X3877485Y5633437D01*
X3890980Y5610064D01*
X3910064Y5590980D01*
X3933436Y5577485D01*
X3959506Y5570500D01*
X3986494D01*
X4012563Y5577485D01*
X4035936Y5590980D01*
X4055020Y5610064D01*
X4068515Y5633437D01*
X4075500Y5659506D01*
Y5686494D01*
X4068515Y5712564D01*
X4055020Y5735936D01*
X4035936Y5755020D01*
X4012563Y5768515D01*
X3986494Y5775500D01*
D02*
G37*
G36*
X2962390Y5673174D02*
X2943958D01*
X2926155Y5668404D01*
X2910193Y5659188D01*
X2897160Y5646155D01*
X2887944Y5630193D01*
X2883174Y5612390D01*
Y5593959D01*
X2887944Y5576155D01*
X2897160Y5560193D01*
X2910193Y5547160D01*
X2926155Y5537945D01*
X2943958Y5533174D01*
X2962390D01*
X2980193Y5537945D01*
X2996155Y5547160D01*
X3009188Y5560193D01*
X3018403Y5576155D01*
X3023174Y5593959D01*
Y5612390D01*
X3018403Y5630193D01*
X3009188Y5646155D01*
X2996155Y5659188D01*
X2980193Y5668404D01*
X2962390Y5673174D01*
D02*
G37*
G36*
X3412700Y5074657D02*
Y5012700D01*
X3474656D01*
X3470262Y5029103D01*
X3460335Y5046297D01*
X3446296Y5060335D01*
X3429103Y5070262D01*
X3412700Y5074657D01*
D02*
G37*
G36*
X3387300D02*
X3370896Y5070262D01*
X3353703Y5060335D01*
X3339665Y5046297D01*
X3329738Y5029103D01*
X3325343Y5012700D01*
X3387300D01*
Y5074657D01*
D02*
G37*
G36*
X3474656Y4987300D02*
X3412700D01*
Y4925343D01*
X3429103Y4929738D01*
X3446296Y4939665D01*
X3460335Y4953704D01*
X3470262Y4970897D01*
X3474656Y4987300D01*
D02*
G37*
G36*
X3387300D02*
X3325343D01*
X3329738Y4970897D01*
X3339665Y4953704D01*
X3353703Y4939665D01*
X3370896Y4929738D01*
X3387300Y4925343D01*
Y4987300D01*
D02*
G37*
G36*
X1067923Y3876207D02*
X1049492D01*
X1031689Y3871437D01*
X1015727Y3862221D01*
X1002694Y3849188D01*
X993478Y3833226D01*
X988708Y3815423D01*
Y3796991D01*
X993478Y3779188D01*
X1002694Y3763226D01*
X1015727Y3750193D01*
X1031689Y3740978D01*
X1049492Y3736207D01*
X1067923D01*
X1085727Y3740978D01*
X1101688Y3750193D01*
X1114721Y3763226D01*
X1123937Y3779188D01*
X1128707Y3796991D01*
Y3815423D01*
X1123937Y3833226D01*
X1114721Y3849188D01*
X1101688Y3862221D01*
X1085727Y3871437D01*
X1067923Y3876207D01*
D02*
G37*
G36*
X3109216Y3870000D02*
X3090784D01*
X3072981Y3865230D01*
X3057019Y3856014D01*
X3043986Y3842981D01*
X3034770Y3827020D01*
X3030000Y3809216D01*
Y3790785D01*
X3034770Y3772982D01*
X3043986Y3757020D01*
X3057019Y3743987D01*
X3072981Y3734771D01*
X3090784Y3730001D01*
X3109216D01*
X3127019Y3734771D01*
X3142981Y3743987D01*
X3156014Y3757020D01*
X3165229Y3772982D01*
X3170000Y3790785D01*
Y3809216D01*
X3165229Y3827020D01*
X3156014Y3842981D01*
X3142981Y3856014D01*
X3127019Y3865230D01*
X3109216Y3870000D01*
D02*
G37*
G36*
X1062700Y3374657D02*
Y3312700D01*
X1124657D01*
X1120262Y3329104D01*
X1110335Y3346297D01*
X1096297Y3360335D01*
X1079104Y3370262D01*
X1062700Y3374657D01*
D02*
G37*
G36*
X1037300D02*
X1020897Y3370262D01*
X1003704Y3360335D01*
X989665Y3346297D01*
X979738Y3329104D01*
X975343Y3312700D01*
X1037300D01*
Y3374657D01*
D02*
G37*
G36*
X3112700Y3374657D02*
Y3312700D01*
X3174657D01*
X3170262Y3329103D01*
X3160335Y3346297D01*
X3146296Y3360335D01*
X3129103Y3370262D01*
X3112700Y3374657D01*
D02*
G37*
G36*
X3087300D02*
X3070897Y3370262D01*
X3053703Y3360335D01*
X3039665Y3346297D01*
X3029738Y3329103D01*
X3025343Y3312700D01*
X3087300D01*
Y3374657D01*
D02*
G37*
G36*
X1124657Y3287300D02*
X1062700D01*
Y3225344D01*
X1079104Y3229739D01*
X1096297Y3239665D01*
X1110335Y3253704D01*
X1120262Y3270897D01*
X1124657Y3287300D01*
D02*
G37*
G36*
X1037300D02*
X975343D01*
X979738Y3270897D01*
X989665Y3253704D01*
X1003704Y3239665D01*
X1020897Y3229739D01*
X1037300Y3225344D01*
Y3287300D01*
D02*
G37*
G36*
X3174657Y3287300D02*
X3112700D01*
Y3225343D01*
X3129103Y3229738D01*
X3146296Y3239665D01*
X3160335Y3253703D01*
X3170262Y3270897D01*
X3174657Y3287300D01*
D02*
G37*
G36*
X3087300D02*
X3025343D01*
X3029738Y3270897D01*
X3039665Y3253703D01*
X3053703Y3239665D01*
X3070897Y3229738D01*
X3087300Y3225343D01*
Y3287300D01*
D02*
G37*
G36*
X1759215Y3270000D02*
X1740784D01*
X1722981Y3265230D01*
X1707019Y3256014D01*
X1693986Y3242981D01*
X1684770Y3227019D01*
X1680000Y3209216D01*
Y3190785D01*
X1684770Y3172981D01*
X1693986Y3157019D01*
X1707019Y3143986D01*
X1722981Y3134771D01*
X1740784Y3130000D01*
X1759215D01*
X1777019Y3134771D01*
X1792981Y3143986D01*
X1806014Y3157019D01*
X1815229Y3172981D01*
X1820000Y3190785D01*
Y3209216D01*
X1815229Y3227019D01*
X1806014Y3242981D01*
X1792981Y3256014D01*
X1777019Y3265230D01*
X1759215Y3270000D01*
D02*
G37*
G36*
X1987300Y3187299D02*
X1896100D01*
Y3096100D01*
X1987300D01*
Y3187299D01*
D02*
G37*
G36*
X2209215Y2920000D02*
X2190784D01*
X2172981Y2915230D01*
X2157019Y2906014D01*
X2143986Y2892981D01*
X2134770Y2877019D01*
X2130000Y2859216D01*
Y2840785D01*
X2134770Y2822981D01*
X2143986Y2807019D01*
X2157019Y2793986D01*
X2172981Y2784771D01*
X2190784Y2780000D01*
X2209215D01*
X2227019Y2784771D01*
X2242981Y2793986D01*
X2256014Y2807019D01*
X2265229Y2822981D01*
X2270000Y2840785D01*
Y2859216D01*
X2265229Y2877019D01*
X2256014Y2892981D01*
X2242981Y2906014D01*
X2227019Y2915230D01*
X2209215Y2920000D01*
D02*
G37*
G36*
X2009215D02*
X1990784D01*
X1972981Y2915230D01*
X1957019Y2906014D01*
X1943986Y2892981D01*
X1934770Y2877019D01*
X1930000Y2859216D01*
Y2840785D01*
X1934770Y2822981D01*
X1943986Y2807019D01*
X1957019Y2793986D01*
X1972981Y2784771D01*
X1990784Y2780000D01*
X2009215D01*
X2027019Y2784771D01*
X2042980Y2793986D01*
X2056013Y2807019D01*
X2065229Y2822981D01*
X2069999Y2840785D01*
Y2859216D01*
X2065229Y2877019D01*
X2056013Y2892981D01*
X2042980Y2906014D01*
X2027019Y2915230D01*
X2009215Y2920000D01*
D02*
G37*
G36*
X1709216Y2720000D02*
X1690784D01*
X1672981Y2715230D01*
X1657019Y2706014D01*
X1643986Y2692981D01*
X1634770Y2677019D01*
X1630000Y2659216D01*
Y2640784D01*
X1634770Y2622981D01*
X1643986Y2607019D01*
X1657019Y2593986D01*
X1672981Y2584771D01*
X1690784Y2580000D01*
X1709216D01*
X1727019Y2584771D01*
X1742981Y2593986D01*
X1756014Y2607019D01*
X1765229Y2622981D01*
X1770000Y2640784D01*
Y2659216D01*
X1765229Y2677019D01*
X1756014Y2692981D01*
X1742981Y2706014D01*
X1727019Y2715230D01*
X1709216Y2720000D01*
D02*
G37*
G36*
Y2520000D02*
X1690784D01*
X1672981Y2515230D01*
X1657019Y2506014D01*
X1643986Y2492981D01*
X1634770Y2477019D01*
X1630000Y2459216D01*
Y2440785D01*
X1634770Y2422981D01*
X1643986Y2407019D01*
X1657019Y2393986D01*
X1672981Y2384771D01*
X1690784Y2380000D01*
X1709216D01*
X1727019Y2384771D01*
X1742981Y2393986D01*
X1756014Y2407019D01*
X1765229Y2422981D01*
X1770000Y2440785D01*
Y2459216D01*
X1765229Y2477019D01*
X1756014Y2492981D01*
X1742981Y2506014D01*
X1727019Y2515230D01*
X1709216Y2520000D01*
D02*
G37*
G36*
X3109216Y2120000D02*
X3090784D01*
X3072981Y2115229D01*
X3057019Y2106014D01*
X3043986Y2092981D01*
X3034770Y2077019D01*
X3030000Y2059216D01*
Y2040784D01*
X3034770Y2022981D01*
X3043986Y2007019D01*
X3057019Y1993986D01*
X3072981Y1984770D01*
X3090784Y1980000D01*
X3109216D01*
X3127019Y1984770D01*
X3142981Y1993986D01*
X3156014Y2007019D01*
X3165229Y2022981D01*
X3170000Y2040784D01*
Y2059216D01*
X3165229Y2077019D01*
X3156014Y2092981D01*
X3142981Y2106014D01*
X3127019Y2115229D01*
X3109216Y2120000D01*
D02*
G37*
G36*
X2309215Y2070000D02*
X2290784D01*
X2272981Y2065230D01*
X2257019Y2056014D01*
X2243986Y2042981D01*
X2234770Y2027019D01*
X2230000Y2009216D01*
Y1990784D01*
X2234770Y1972981D01*
X2243986Y1957019D01*
X2257019Y1943986D01*
X2272981Y1934771D01*
X2290784Y1930000D01*
X2309215D01*
X2327019Y1934771D01*
X2342981Y1943986D01*
X2356014Y1957019D01*
X2365229Y1972981D01*
X2370000Y1990784D01*
Y2009216D01*
X2365229Y2027019D01*
X2356014Y2042981D01*
X2342981Y2056014D01*
X2327019Y2065230D01*
X2309215Y2070000D01*
D02*
G37*
G36*
X3703900Y1853900D02*
X3612700D01*
Y1762700D01*
X3703900D01*
Y1853900D01*
D02*
G37*
G36*
X3587300D02*
X3496100D01*
Y1762700D01*
X3587300D01*
Y1853900D01*
D02*
G37*
G36*
X3109216Y1870000D02*
X3090784D01*
X3072981Y1865229D01*
X3057019Y1856014D01*
X3043986Y1842981D01*
X3034770Y1827019D01*
X3030000Y1809216D01*
Y1790784D01*
X3034770Y1772981D01*
X3043986Y1757019D01*
X3057019Y1743986D01*
X3072981Y1734770D01*
X3090784Y1730000D01*
X3109216D01*
X3127019Y1734770D01*
X3142981Y1743986D01*
X3156014Y1757019D01*
X3165229Y1772981D01*
X3170000Y1790784D01*
Y1809216D01*
X3165229Y1827019D01*
X3156014Y1842981D01*
X3142981Y1856014D01*
X3127019Y1865229D01*
X3109216Y1870000D01*
D02*
G37*
G36*
Y1620000D02*
X3090784D01*
X3072981Y1615229D01*
X3057019Y1606014D01*
X3043986Y1592981D01*
X3034770Y1577019D01*
X3030000Y1559216D01*
Y1540784D01*
X3034770Y1522981D01*
X3043986Y1507019D01*
X3057019Y1493986D01*
X3072981Y1484770D01*
X3090784Y1480000D01*
X3109216D01*
X3127019Y1484770D01*
X3142981Y1493986D01*
X3156014Y1507019D01*
X3165229Y1522981D01*
X3170000Y1540784D01*
Y1559216D01*
X3165229Y1577019D01*
X3156014Y1592981D01*
X3142981Y1606014D01*
X3127019Y1615229D01*
X3109216Y1620000D01*
D02*
G37*
G36*
X2209216D02*
X2190784D01*
X2172981Y1615229D01*
X2157019Y1606014D01*
X2143986Y1592981D01*
X2134770Y1577019D01*
X2130000Y1559216D01*
Y1540784D01*
X2134770Y1522981D01*
X2143986Y1507019D01*
X2157019Y1493986D01*
X2172981Y1484770D01*
X2190784Y1480000D01*
X2209216D01*
X2227019Y1484770D01*
X2242981Y1493986D01*
X2256014Y1507019D01*
X2265229Y1522981D01*
X2270000Y1540784D01*
Y1559216D01*
X2265229Y1577019D01*
X2256014Y1592981D01*
X2242981Y1606014D01*
X2227019Y1615229D01*
X2209216Y1620000D01*
D02*
G37*
G36*
X2409216Y1570000D02*
X2390784D01*
X2372981Y1565230D01*
X2357019Y1556014D01*
X2343986Y1542981D01*
X2334771Y1527019D01*
X2330000Y1509216D01*
Y1490784D01*
X2334771Y1472981D01*
X2343986Y1457019D01*
X2357019Y1443986D01*
X2372981Y1434771D01*
X2390784Y1430000D01*
X2409216D01*
X2427019Y1434771D01*
X2442981Y1443986D01*
X2456014Y1457019D01*
X2465230Y1472981D01*
X2470000Y1490784D01*
Y1509216D01*
X2465230Y1527019D01*
X2456014Y1542981D01*
X2442981Y1556014D01*
X2427019Y1565230D01*
X2409216Y1570000D01*
D02*
G37*
G36*
X2859216Y1470000D02*
X2840784D01*
X2822981Y1465229D01*
X2807019Y1456014D01*
X2793986Y1442981D01*
X2784770Y1427019D01*
X2780000Y1409216D01*
Y1390784D01*
X2784770Y1372981D01*
X2793986Y1357019D01*
X2807019Y1343986D01*
X2822981Y1334771D01*
X2840784Y1330000D01*
X2859216D01*
X2877019Y1334771D01*
X2892981Y1343986D01*
X2906014Y1357019D01*
X2915229Y1372981D01*
X2920000Y1390784D01*
Y1409216D01*
X2915229Y1427019D01*
X2906014Y1442981D01*
X2892981Y1456014D01*
X2877019Y1465229D01*
X2859216Y1470000D01*
D02*
G37*
G36*
X1087300Y374638D02*
X1072485Y372687D01*
X1046845Y362067D01*
X1024828Y345172D01*
X1012700Y329367D01*
X1000000Y333678D01*
Y370000D01*
X800000D01*
Y130000D01*
X1000000D01*
Y166323D01*
X1012700Y170633D01*
X1024828Y154828D01*
X1046845Y137933D01*
X1072485Y127313D01*
X1087300Y125362D01*
Y250000D01*
Y374638D01*
D02*
G37*
G36*
X2093400Y275400D02*
X2000699D01*
Y162701D01*
X2093400D01*
Y275400D01*
D02*
G37*
G36*
X1975299D02*
X1882600D01*
Y162701D01*
X1975299D01*
Y275400D01*
D02*
G37*
G36*
X1112700Y374638D02*
Y250000D01*
Y125362D01*
X1127515Y127313D01*
X1153154Y137933D01*
X1175172Y154828D01*
X1192066Y176845D01*
X1196049Y186460D01*
X1209796D01*
X1212650Y179569D01*
X1228679Y158679D01*
X1249569Y142650D01*
X1273895Y132574D01*
X1300000Y129137D01*
X1326105Y132574D01*
X1350431Y142650D01*
X1371321Y158679D01*
X1387350Y179569D01*
X1393127Y193516D01*
X1406873D01*
X1412650Y179569D01*
X1428679Y158679D01*
X1449569Y142650D01*
X1473895Y132574D01*
X1500000Y129137D01*
X1526105Y132574D01*
X1550431Y142650D01*
X1571321Y158679D01*
X1587350Y179569D01*
X1597426Y203895D01*
X1600863Y230000D01*
Y270000D01*
X1597426Y296105D01*
X1587350Y320431D01*
X1571321Y341321D01*
X1550431Y357350D01*
X1526105Y367426D01*
X1500000Y370863D01*
X1473895Y367426D01*
X1449569Y357350D01*
X1428679Y341321D01*
X1412650Y320431D01*
X1406873Y306484D01*
X1393127D01*
X1387350Y320431D01*
X1371321Y341321D01*
X1350431Y357350D01*
X1326105Y367426D01*
X1300000Y370863D01*
X1273895Y367426D01*
X1249569Y357350D01*
X1228679Y341321D01*
X1212650Y320431D01*
X1209796Y313540D01*
X1196049D01*
X1192066Y323155D01*
X1175172Y345172D01*
X1153154Y362067D01*
X1127515Y372687D01*
X1112700Y374638D01*
D02*
G37*
G36*
X2496000Y270863D02*
X2469895Y267426D01*
X2445569Y257350D01*
X2424679Y241321D01*
X2408650Y220432D01*
X2398574Y196106D01*
X2395137Y170000D01*
Y130000D01*
X2398574Y103895D01*
X2408650Y79569D01*
X2424679Y58679D01*
X2445569Y42650D01*
X2469895Y32574D01*
X2496000Y29137D01*
X2522105Y32574D01*
X2546431Y42650D01*
X2567320Y58679D01*
X2583349Y79569D01*
X2593426Y103895D01*
X2596862Y130000D01*
Y170000D01*
X2593426Y196106D01*
X2583349Y220432D01*
X2567320Y241321D01*
X2546431Y257350D01*
X2522105Y267426D01*
X2496000Y270863D01*
D02*
G37*
G36*
X2242000D02*
X2215895Y267426D01*
X2191569Y257350D01*
X2170679Y241321D01*
X2154650Y220432D01*
X2144574Y196106D01*
X2141137Y170000D01*
Y130000D01*
X2144574Y103895D01*
X2154650Y79569D01*
X2170679Y58679D01*
X2191569Y42650D01*
X2215895Y32574D01*
X2242000Y29137D01*
X2268105Y32574D01*
X2292431Y42650D01*
X2313320Y58679D01*
X2329349Y79569D01*
X2339426Y103895D01*
X2342862Y130000D01*
Y170000D01*
X2339426Y196106D01*
X2329349Y220432D01*
X2313320Y241321D01*
X2292431Y257350D01*
X2268105Y267426D01*
X2242000Y270863D01*
D02*
G37*
G36*
X2093400Y137301D02*
X2000699D01*
Y24600D01*
X2093400D01*
Y137301D01*
D02*
G37*
G36*
X1975299D02*
X1882600D01*
Y24600D01*
X1975299D01*
Y137301D01*
D02*
G37*
G36*
X1467700Y7954810D02*
Y7742701D01*
X1581482D01*
Y7830000D01*
X1577172Y7862736D01*
X1564537Y7893241D01*
X1544437Y7919436D01*
X1518241Y7939537D01*
X1487736Y7952172D01*
X1467700Y7954810D01*
D02*
G37*
G36*
X1442300D02*
X1422264Y7952172D01*
X1391759Y7939537D01*
X1365564Y7919436D01*
X1345463Y7893241D01*
X1332828Y7862736D01*
X1328518Y7830000D01*
Y7742701D01*
X1442300D01*
Y7954810D01*
D02*
G37*
G36*
X845000Y7951035D02*
X813674Y7946911D01*
X784482Y7934820D01*
X759415Y7915585D01*
X740180Y7890518D01*
X728089Y7861326D01*
X723965Y7830000D01*
Y7630000D01*
X728089Y7598674D01*
X740180Y7569482D01*
X759415Y7544415D01*
X784482Y7525180D01*
X813674Y7513089D01*
X845000Y7508965D01*
X876326Y7513089D01*
X905518Y7525180D01*
X930585Y7544415D01*
X949820Y7569482D01*
X961911Y7598674D01*
X966036Y7630000D01*
Y7830000D01*
X961911Y7861326D01*
X949820Y7890518D01*
X930585Y7915585D01*
X905518Y7934820D01*
X876326Y7946911D01*
X845000Y7951035D01*
D02*
G37*
G36*
X1442300Y7717301D02*
X1328518D01*
Y7630000D01*
X1332828Y7597264D01*
X1345463Y7566759D01*
X1365564Y7540564D01*
X1391759Y7520463D01*
X1422264Y7507828D01*
X1442300Y7505190D01*
Y7717301D01*
D02*
G37*
G36*
X1581482D02*
X1467700D01*
Y7505190D01*
X1487736Y7507828D01*
X1518241Y7520463D01*
X1544437Y7540564D01*
X1564537Y7566759D01*
X1577172Y7597264D01*
X1581482Y7630000D01*
Y7717301D01*
D02*
G37*
G36*
X1275000Y7391036D02*
X1075000D01*
X1043674Y7386911D01*
X1014483Y7374820D01*
X989415Y7355585D01*
X970180Y7330518D01*
X958089Y7301326D01*
X953965Y7270000D01*
X958089Y7238674D01*
X970180Y7209482D01*
X989415Y7184415D01*
X1014483Y7165180D01*
X1043674Y7153089D01*
X1075000Y7148964D01*
X1275000D01*
X1306326Y7153089D01*
X1335518Y7165180D01*
X1360585Y7184415D01*
X1379820Y7209482D01*
X1391911Y7238674D01*
X1396036Y7270000D01*
X1391911Y7301326D01*
X1379820Y7330518D01*
X1360585Y7355585D01*
X1335518Y7374820D01*
X1306326Y7386911D01*
X1275000Y7391036D01*
D02*
G37*
G36*
X659215Y7220000D02*
X640784D01*
X622981Y7215230D01*
X607019Y7206014D01*
X593986Y7192981D01*
X584770Y7177019D01*
X580000Y7159216D01*
Y7140785D01*
X584770Y7122981D01*
X593986Y7107019D01*
X607019Y7093986D01*
X622981Y7084771D01*
X640784Y7080000D01*
X659215D01*
X677019Y7084771D01*
X692981Y7093986D01*
X706014Y7107019D01*
X715229Y7122981D01*
X720000Y7140785D01*
Y7159216D01*
X715229Y7177019D01*
X706014Y7192981D01*
X692981Y7206014D01*
X677019Y7215230D01*
X659215Y7220000D01*
D02*
G37*
G36*
X1312700Y7124657D02*
Y7062700D01*
X1374657D01*
X1370262Y7079103D01*
X1360335Y7096297D01*
X1346297Y7110335D01*
X1329103Y7120262D01*
X1312700Y7124657D01*
D02*
G37*
G36*
X1287300D02*
X1270897Y7120262D01*
X1253703Y7110335D01*
X1239665Y7096297D01*
X1229738Y7079103D01*
X1225343Y7062700D01*
X1287300D01*
Y7124657D01*
D02*
G37*
G36*
X1374657Y7037300D02*
X1312700D01*
Y6975343D01*
X1329103Y6979738D01*
X1346297Y6989665D01*
X1360335Y7003704D01*
X1370262Y7020897D01*
X1374657Y7037300D01*
D02*
G37*
G36*
X1287300D02*
X1225343D01*
X1229738Y7020897D01*
X1239665Y7003704D01*
X1253703Y6989665D01*
X1270897Y6979738D01*
X1287300Y6975343D01*
Y7037300D01*
D02*
G37*
G36*
X112700Y6774657D02*
Y6712700D01*
X174656D01*
X170262Y6729103D01*
X160335Y6746297D01*
X146296Y6760335D01*
X129103Y6770262D01*
X112700Y6774657D01*
D02*
G37*
G36*
X87300D02*
X70896Y6770262D01*
X53703Y6760335D01*
X39665Y6746297D01*
X29738Y6729103D01*
X25343Y6712700D01*
X87300D01*
Y6774657D01*
D02*
G37*
G36*
X174656Y6687300D02*
X112700D01*
Y6625343D01*
X129103Y6629738D01*
X146296Y6639665D01*
X160335Y6653703D01*
X170262Y6670897D01*
X174656Y6687300D01*
D02*
G37*
G36*
X87300D02*
X25343D01*
X29738Y6670897D01*
X39665Y6653703D01*
X53703Y6639665D01*
X70896Y6629738D01*
X87300Y6625343D01*
Y6687300D01*
D02*
G37*
G36*
X162700Y6024657D02*
Y5962700D01*
X224656D01*
X220261Y5979104D01*
X210335Y5996297D01*
X196296Y6010335D01*
X179103Y6020262D01*
X162700Y6024657D01*
D02*
G37*
G36*
X137300D02*
X120896Y6020262D01*
X103703Y6010335D01*
X89665Y5996297D01*
X79738Y5979104D01*
X75343Y5962700D01*
X137300D01*
Y6024657D01*
D02*
G37*
G36*
X224656Y5937300D02*
X162700D01*
Y5875344D01*
X179103Y5879739D01*
X196296Y5889665D01*
X210335Y5903704D01*
X220261Y5920897D01*
X224656Y5937300D01*
D02*
G37*
G36*
X137300D02*
X75343D01*
X79738Y5920897D01*
X89665Y5903704D01*
X103703Y5889665D01*
X120896Y5879739D01*
X137300Y5875344D01*
Y5937300D01*
D02*
G37*
G36*
X4240494Y5267500D02*
X4213506D01*
X4187436Y5260515D01*
X4164064Y5247020D01*
X4144980Y5227936D01*
X4131485Y5204564D01*
X4124500Y5178494D01*
Y5151506D01*
X4131485Y5125437D01*
X4144980Y5102064D01*
X4164064Y5082980D01*
X4187436Y5069485D01*
X4213506Y5062500D01*
X4240494D01*
X4266563Y5069485D01*
X4289936Y5082980D01*
X4309020Y5102064D01*
X4322515Y5125437D01*
X4329500Y5151506D01*
Y5178494D01*
X4322515Y5204564D01*
X4309020Y5227936D01*
X4289936Y5247020D01*
X4266563Y5260515D01*
X4240494Y5267500D01*
D02*
G37*
G36*
X4075500D02*
X3870500D01*
Y5062500D01*
X4075500D01*
Y5267500D01*
D02*
G37*
G36*
X3912700Y4974657D02*
Y4912700D01*
X3974657D01*
X3970262Y4929103D01*
X3960335Y4946297D01*
X3946296Y4960335D01*
X3929103Y4970262D01*
X3912700Y4974657D01*
D02*
G37*
G36*
X3887300D02*
X3870896Y4970262D01*
X3853703Y4960335D01*
X3839665Y4946297D01*
X3829738Y4929103D01*
X3825343Y4912700D01*
X3887300D01*
Y4974657D01*
D02*
G37*
G36*
X3974657Y4887300D02*
X3912700D01*
Y4825343D01*
X3929103Y4829738D01*
X3946296Y4839665D01*
X3960335Y4853704D01*
X3970262Y4870897D01*
X3974657Y4887300D01*
D02*
G37*
G36*
X3887300D02*
X3825343D01*
X3829738Y4870897D01*
X3839665Y4853704D01*
X3853703Y4839665D01*
X3870896Y4829738D01*
X3887300Y4825343D01*
Y4887300D01*
D02*
G37*
G36*
X4571249Y4920000D02*
X4528751D01*
X4486775Y4913352D01*
X4446356Y4900219D01*
X4408489Y4880925D01*
X4374107Y4855945D01*
X4344056Y4825893D01*
X4319075Y4791511D01*
X4299781Y4753644D01*
X4286648Y4713225D01*
X4280000Y4671249D01*
Y4628751D01*
X4286648Y4586775D01*
X4299781Y4546356D01*
X4319075Y4508489D01*
X4344056Y4474107D01*
X4374107Y4444056D01*
X4408489Y4419075D01*
X4446356Y4399781D01*
X4486775Y4386648D01*
X4528751Y4380000D01*
X4571249D01*
X4613225Y4386648D01*
X4653644Y4399781D01*
X4691511Y4419075D01*
X4725893Y4444056D01*
X4755945Y4474107D01*
X4780925Y4508489D01*
X4800219Y4546356D01*
X4813352Y4586775D01*
X4820000Y4628751D01*
Y4671249D01*
X4813352Y4713225D01*
X4800219Y4753644D01*
X4780925Y4791511D01*
X4755945Y4825893D01*
X4725893Y4855945D01*
X4691511Y4880925D01*
X4653644Y4900219D01*
X4613225Y4913352D01*
X4571249Y4920000D01*
D02*
G37*
G36*
X4240494Y4237500D02*
X4213506D01*
X4187436Y4230515D01*
X4164064Y4217021D01*
X4144980Y4197936D01*
X4131485Y4174564D01*
X4124500Y4148494D01*
Y4121506D01*
X4131485Y4095437D01*
X4144980Y4072064D01*
X4164064Y4052980D01*
X4187436Y4039485D01*
X4213506Y4032500D01*
X4240494D01*
X4266563Y4039485D01*
X4289936Y4052980D01*
X4309020Y4072064D01*
X4322515Y4095437D01*
X4329500Y4121506D01*
Y4148494D01*
X4322515Y4174564D01*
X4309020Y4197936D01*
X4289936Y4217021D01*
X4266563Y4230515D01*
X4240494Y4237500D01*
D02*
G37*
G36*
X3986494D02*
X3959506D01*
X3933436Y4230515D01*
X3910064Y4217021D01*
X3890980Y4197936D01*
X3877485Y4174564D01*
X3870500Y4148494D01*
Y4121506D01*
X3877485Y4095437D01*
X3890980Y4072064D01*
X3910064Y4052980D01*
X3933436Y4039485D01*
X3959506Y4032500D01*
X3986494D01*
X4012563Y4039485D01*
X4035936Y4052980D01*
X4055020Y4072064D01*
X4068515Y4095437D01*
X4075500Y4121506D01*
Y4148494D01*
X4068515Y4174564D01*
X4055020Y4197936D01*
X4035936Y4217021D01*
X4012563Y4230515D01*
X3986494Y4237500D01*
D02*
G37*
G36*
X4240494Y3983500D02*
X4213506D01*
X4187436Y3976515D01*
X4164064Y3963021D01*
X4144980Y3943936D01*
X4131485Y3920564D01*
X4124500Y3894494D01*
Y3867506D01*
X4131485Y3841437D01*
X4144980Y3818064D01*
X4164064Y3798980D01*
X4187436Y3785485D01*
X4213506Y3778500D01*
X4240494D01*
X4266563Y3785485D01*
X4289936Y3798980D01*
X4309020Y3818064D01*
X4322515Y3841437D01*
X4329500Y3867506D01*
Y3894494D01*
X4322515Y3920564D01*
X4309020Y3943936D01*
X4289936Y3963021D01*
X4266563Y3976515D01*
X4240494Y3983500D01*
D02*
G37*
G36*
X3986494D02*
X3959506D01*
X3933436Y3976515D01*
X3910064Y3963021D01*
X3890980Y3943936D01*
X3877485Y3920564D01*
X3870500Y3894494D01*
Y3867506D01*
X3877485Y3841437D01*
X3890980Y3818064D01*
X3910064Y3798980D01*
X3933436Y3785485D01*
X3959506Y3778500D01*
X3986494D01*
X4012563Y3785485D01*
X4035936Y3798980D01*
X4055020Y3818064D01*
X4068515Y3841437D01*
X4075500Y3867506D01*
Y3894494D01*
X4068515Y3920564D01*
X4055020Y3943936D01*
X4035936Y3963021D01*
X4012563Y3976515D01*
X3986494Y3983500D01*
D02*
G37*
G36*
X4240494Y3729500D02*
X4213506D01*
X4187436Y3722515D01*
X4164064Y3709021D01*
X4144980Y3689936D01*
X4131485Y3666564D01*
X4124500Y3640494D01*
Y3613506D01*
X4131485Y3587437D01*
X4144980Y3564064D01*
X4164064Y3544980D01*
X4187436Y3531485D01*
X4213506Y3524500D01*
X4240494D01*
X4266563Y3531485D01*
X4289936Y3544980D01*
X4309020Y3564064D01*
X4322515Y3587437D01*
X4329500Y3613506D01*
Y3640494D01*
X4322515Y3666564D01*
X4309020Y3689936D01*
X4289936Y3709021D01*
X4266563Y3722515D01*
X4240494Y3729500D01*
D02*
G37*
G36*
X3986494D02*
X3959506D01*
X3933436Y3722515D01*
X3910064Y3709021D01*
X3890980Y3689936D01*
X3877485Y3666564D01*
X3870500Y3640494D01*
Y3613506D01*
X3877485Y3587437D01*
X3890980Y3564064D01*
X3910064Y3544980D01*
X3933436Y3531485D01*
X3959506Y3524500D01*
X3986494D01*
X4012563Y3531485D01*
X4035936Y3544980D01*
X4055020Y3564064D01*
X4068515Y3587437D01*
X4075500Y3613506D01*
Y3640494D01*
X4068515Y3666564D01*
X4055020Y3689936D01*
X4035936Y3709021D01*
X4012563Y3722515D01*
X3986494Y3729500D01*
D02*
G37*
G36*
X4240494Y3475500D02*
X4213506D01*
X4187436Y3468515D01*
X4164064Y3455021D01*
X4144980Y3435936D01*
X4131485Y3412564D01*
X4124500Y3386494D01*
Y3359506D01*
X4131485Y3333437D01*
X4144980Y3310064D01*
X4164064Y3290980D01*
X4187436Y3277485D01*
X4213506Y3270500D01*
X4240494D01*
X4266563Y3277485D01*
X4289936Y3290980D01*
X4309020Y3310064D01*
X4322515Y3333437D01*
X4329500Y3359506D01*
Y3386494D01*
X4322515Y3412564D01*
X4309020Y3435936D01*
X4289936Y3455021D01*
X4266563Y3468515D01*
X4240494Y3475500D01*
D02*
G37*
G36*
X3986494D02*
X3959506D01*
X3933436Y3468515D01*
X3910064Y3455021D01*
X3890980Y3435936D01*
X3877485Y3412564D01*
X3870500Y3386494D01*
Y3359506D01*
X3877485Y3333437D01*
X3890980Y3310064D01*
X3910064Y3290980D01*
X3933436Y3277485D01*
X3959506Y3270500D01*
X3986494D01*
X4012563Y3277485D01*
X4035936Y3290980D01*
X4055020Y3310064D01*
X4068515Y3333437D01*
X4075500Y3359506D01*
Y3386494D01*
X4068515Y3412564D01*
X4055020Y3435936D01*
X4035936Y3455021D01*
X4012563Y3468515D01*
X3986494Y3475500D01*
D02*
G37*
G36*
X4240494Y3221500D02*
X4213506D01*
X4187436Y3214515D01*
X4164064Y3201021D01*
X4144980Y3181936D01*
X4131485Y3158564D01*
X4124500Y3132494D01*
Y3105506D01*
X4131485Y3079437D01*
X4144980Y3056064D01*
X4164064Y3036980D01*
X4187436Y3023485D01*
X4213506Y3016500D01*
X4240494D01*
X4266563Y3023485D01*
X4289936Y3036980D01*
X4309020Y3056064D01*
X4322515Y3079437D01*
X4329500Y3105506D01*
Y3132494D01*
X4322515Y3158564D01*
X4309020Y3181936D01*
X4289936Y3201021D01*
X4266563Y3214515D01*
X4240494Y3221500D01*
D02*
G37*
G36*
X3986494D02*
X3959506D01*
X3933436Y3214515D01*
X3910064Y3201021D01*
X3890980Y3181936D01*
X3877485Y3158564D01*
X3870500Y3132494D01*
Y3105506D01*
X3877485Y3079437D01*
X3890980Y3056064D01*
X3910064Y3036980D01*
X3933436Y3023485D01*
X3959506Y3016500D01*
X3986494D01*
X4012563Y3023485D01*
X4035936Y3036980D01*
X4055020Y3056064D01*
X4068515Y3079437D01*
X4075500Y3105506D01*
Y3132494D01*
X4068515Y3158564D01*
X4055020Y3181936D01*
X4035936Y3201021D01*
X4012563Y3214515D01*
X3986494Y3221500D01*
D02*
G37*
G36*
X4240494Y2967500D02*
X4213506D01*
X4187436Y2960515D01*
X4164064Y2947021D01*
X4144980Y2927936D01*
X4131485Y2904564D01*
X4124500Y2878494D01*
Y2851506D01*
X4131485Y2825437D01*
X4144980Y2802064D01*
X4164064Y2782980D01*
X4187436Y2769485D01*
X4213506Y2762500D01*
X4240494D01*
X4266563Y2769485D01*
X4289936Y2782980D01*
X4309020Y2802064D01*
X4322515Y2825437D01*
X4329500Y2851506D01*
Y2878494D01*
X4322515Y2904564D01*
X4309020Y2927936D01*
X4289936Y2947021D01*
X4266563Y2960515D01*
X4240494Y2967500D01*
D02*
G37*
G36*
X4075500D02*
X3870500D01*
Y2762500D01*
X4075500D01*
Y2967500D01*
D02*
G37*
G36*
X4571249Y2620000D02*
X4528751D01*
X4486775Y2613352D01*
X4446356Y2600219D01*
X4408489Y2580925D01*
X4374107Y2555945D01*
X4344056Y2525893D01*
X4319075Y2491511D01*
X4299781Y2453644D01*
X4286648Y2413225D01*
X4280000Y2371250D01*
Y2328751D01*
X4286648Y2286775D01*
X4299781Y2246356D01*
X4319075Y2208489D01*
X4344056Y2174107D01*
X4374107Y2144056D01*
X4408489Y2119076D01*
X4446356Y2099781D01*
X4486775Y2086648D01*
X4528751Y2080000D01*
X4571249D01*
X4613225Y2086648D01*
X4653644Y2099781D01*
X4691511Y2119076D01*
X4725893Y2144056D01*
X4755945Y2174107D01*
X4780925Y2208489D01*
X4800219Y2246356D01*
X4813352Y2286775D01*
X4820000Y2328751D01*
Y2371250D01*
X4813352Y2413225D01*
X4800219Y2453644D01*
X4780925Y2491511D01*
X4755945Y2525893D01*
X4725893Y2555945D01*
X4691511Y2580925D01*
X4653644Y2600219D01*
X4613225Y2613352D01*
X4571249Y2620000D01*
D02*
G37*
G36*
X4240494Y1937500D02*
X4213506D01*
X4187436Y1930515D01*
X4164064Y1917020D01*
X4144980Y1897936D01*
X4131485Y1874563D01*
X4124500Y1848494D01*
Y1821506D01*
X4131485Y1795436D01*
X4144980Y1772064D01*
X4164064Y1752979D01*
X4187436Y1739485D01*
X4213506Y1732500D01*
X4240494D01*
X4266563Y1739485D01*
X4289936Y1752979D01*
X4309020Y1772064D01*
X4322515Y1795436D01*
X4329500Y1821506D01*
Y1848494D01*
X4322515Y1874563D01*
X4309020Y1897936D01*
X4289936Y1917020D01*
X4266563Y1930515D01*
X4240494Y1937500D01*
D02*
G37*
G36*
X3986494D02*
X3959506D01*
X3933436Y1930515D01*
X3910064Y1917020D01*
X3890980Y1897936D01*
X3877485Y1874563D01*
X3870500Y1848494D01*
Y1821506D01*
X3877485Y1795436D01*
X3890980Y1772064D01*
X3910064Y1752979D01*
X3933436Y1739485D01*
X3959506Y1732500D01*
X3986494D01*
X4012563Y1739485D01*
X4035936Y1752979D01*
X4055020Y1772064D01*
X4068515Y1795436D01*
X4075500Y1821506D01*
Y1848494D01*
X4068515Y1874563D01*
X4055020Y1897936D01*
X4035936Y1917020D01*
X4012563Y1930515D01*
X3986494Y1937500D01*
D02*
G37*
G36*
X3613679Y1599900D02*
X3612700D01*
Y1508700D01*
X3703900D01*
Y1509679D01*
X3696819Y1536104D01*
X3683141Y1559796D01*
X3663796Y1579141D01*
X3640104Y1592820D01*
X3613679Y1599900D01*
D02*
G37*
G36*
X3587300D02*
X3586321D01*
X3559896Y1592820D01*
X3536204Y1579141D01*
X3516859Y1559796D01*
X3503180Y1536104D01*
X3496100Y1509679D01*
Y1508700D01*
X3587300D01*
Y1599900D01*
D02*
G37*
G36*
X4240494Y1683500D02*
X4213506D01*
X4187436Y1676515D01*
X4164064Y1663020D01*
X4144980Y1643936D01*
X4131485Y1620563D01*
X4124500Y1594494D01*
Y1567506D01*
X4131485Y1541436D01*
X4144980Y1518064D01*
X4164064Y1498979D01*
X4187436Y1485485D01*
X4213506Y1478500D01*
X4240494D01*
X4266563Y1485485D01*
X4289936Y1498979D01*
X4309020Y1518064D01*
X4322515Y1541436D01*
X4329500Y1567506D01*
Y1594494D01*
X4322515Y1620563D01*
X4309020Y1643936D01*
X4289936Y1663020D01*
X4266563Y1676515D01*
X4240494Y1683500D01*
D02*
G37*
G36*
X3986494D02*
X3959506D01*
X3933436Y1676515D01*
X3910064Y1663020D01*
X3890980Y1643936D01*
X3877485Y1620563D01*
X3870500Y1594494D01*
Y1567506D01*
X3877485Y1541436D01*
X3890980Y1518064D01*
X3910064Y1498979D01*
X3933436Y1485485D01*
X3959506Y1478500D01*
X3986494D01*
X4012563Y1485485D01*
X4035936Y1498979D01*
X4055020Y1518064D01*
X4068515Y1541436D01*
X4075500Y1567506D01*
Y1594494D01*
X4068515Y1620563D01*
X4055020Y1643936D01*
X4035936Y1663020D01*
X4012563Y1676515D01*
X3986494Y1683500D01*
D02*
G37*
G36*
X3703900Y1483300D02*
X3612700D01*
Y1392100D01*
X3613679D01*
X3640104Y1399181D01*
X3663796Y1412859D01*
X3683141Y1432204D01*
X3696819Y1455896D01*
X3703900Y1482321D01*
Y1483300D01*
D02*
G37*
G36*
X3587300D02*
X3496100D01*
Y1482321D01*
X3503180Y1455896D01*
X3516859Y1432204D01*
X3536204Y1412859D01*
X3559896Y1399181D01*
X3586321Y1392100D01*
X3587300D01*
Y1483300D01*
D02*
G37*
G36*
X4240494Y1429500D02*
X4213506D01*
X4187436Y1422515D01*
X4164064Y1409020D01*
X4144980Y1389936D01*
X4131485Y1366563D01*
X4124500Y1340494D01*
Y1313506D01*
X4131485Y1287436D01*
X4144980Y1264064D01*
X4164064Y1244979D01*
X4187436Y1231485D01*
X4213506Y1224500D01*
X4240494D01*
X4266563Y1231485D01*
X4289936Y1244979D01*
X4309020Y1264064D01*
X4322515Y1287436D01*
X4329500Y1313506D01*
Y1340494D01*
X4322515Y1366563D01*
X4309020Y1389936D01*
X4289936Y1409020D01*
X4266563Y1422515D01*
X4240494Y1429500D01*
D02*
G37*
G36*
X3986494D02*
X3959506D01*
X3933436Y1422515D01*
X3910064Y1409020D01*
X3890980Y1389936D01*
X3877485Y1366563D01*
X3870500Y1340494D01*
Y1313506D01*
X3877485Y1287436D01*
X3890980Y1264064D01*
X3910064Y1244979D01*
X3933436Y1231485D01*
X3959506Y1224500D01*
X3986494D01*
X4012563Y1231485D01*
X4035936Y1244979D01*
X4055020Y1264064D01*
X4068515Y1287436D01*
X4075500Y1313506D01*
Y1340494D01*
X4068515Y1366563D01*
X4055020Y1389936D01*
X4035936Y1409020D01*
X4012563Y1422515D01*
X3986494Y1429500D01*
D02*
G37*
G36*
X4240494Y1175500D02*
X4213506D01*
X4187436Y1168515D01*
X4164064Y1155020D01*
X4144980Y1135936D01*
X4131485Y1112563D01*
X4124500Y1086494D01*
Y1059506D01*
X4131485Y1033436D01*
X4144980Y1010064D01*
X4164064Y990979D01*
X4187436Y977485D01*
X4213506Y970500D01*
X4240494D01*
X4266563Y977485D01*
X4289936Y990979D01*
X4309020Y1010064D01*
X4322515Y1033436D01*
X4329500Y1059506D01*
Y1086494D01*
X4322515Y1112563D01*
X4309020Y1135936D01*
X4289936Y1155020D01*
X4266563Y1168515D01*
X4240494Y1175500D01*
D02*
G37*
G36*
X3986494D02*
X3959506D01*
X3933436Y1168515D01*
X3910064Y1155020D01*
X3890980Y1135936D01*
X3877485Y1112563D01*
X3870500Y1086494D01*
Y1059506D01*
X3877485Y1033436D01*
X3890980Y1010064D01*
X3910064Y990979D01*
X3933436Y977485D01*
X3959506Y970500D01*
X3986494D01*
X4012563Y977485D01*
X4035936Y990979D01*
X4055020Y1010064D01*
X4068515Y1033436D01*
X4075500Y1059506D01*
Y1086494D01*
X4068515Y1112563D01*
X4055020Y1135936D01*
X4035936Y1155020D01*
X4012563Y1168515D01*
X3986494Y1175500D01*
D02*
G37*
G36*
X4240494Y921500D02*
X4213506D01*
X4187436Y914515D01*
X4164064Y901020D01*
X4144980Y881936D01*
X4131485Y858563D01*
X4124500Y832494D01*
Y805506D01*
X4131485Y779436D01*
X4144980Y756064D01*
X4164064Y736979D01*
X4187436Y723485D01*
X4213506Y716500D01*
X4240494D01*
X4266563Y723485D01*
X4289936Y736979D01*
X4309020Y756064D01*
X4322515Y779436D01*
X4329500Y805506D01*
Y832494D01*
X4322515Y858563D01*
X4309020Y881936D01*
X4289936Y901020D01*
X4266563Y914515D01*
X4240494Y921500D01*
D02*
G37*
G36*
X3986494D02*
X3959506D01*
X3933436Y914515D01*
X3910064Y901020D01*
X3890980Y881936D01*
X3877485Y858563D01*
X3870500Y832494D01*
Y805506D01*
X3877485Y779436D01*
X3890980Y756064D01*
X3910064Y736979D01*
X3933436Y723485D01*
X3959506Y716500D01*
X3986494D01*
X4012563Y723485D01*
X4035936Y736979D01*
X4055020Y756064D01*
X4068515Y779436D01*
X4075500Y805506D01*
Y832494D01*
X4068515Y858563D01*
X4055020Y881936D01*
X4035936Y901020D01*
X4012563Y914515D01*
X3986494Y921500D01*
D02*
G37*
G36*
X4240494Y667500D02*
X4213506D01*
X4187436Y660515D01*
X4164064Y647020D01*
X4144980Y627936D01*
X4131485Y604563D01*
X4124500Y578494D01*
Y551506D01*
X4131485Y525436D01*
X4144980Y502064D01*
X4164064Y482979D01*
X4187436Y469485D01*
X4213506Y462500D01*
X4240494D01*
X4266563Y469485D01*
X4289936Y482979D01*
X4309020Y502064D01*
X4322515Y525436D01*
X4329500Y551506D01*
Y578494D01*
X4322515Y604563D01*
X4309020Y627936D01*
X4289936Y647020D01*
X4266563Y660515D01*
X4240494Y667500D01*
D02*
G37*
G36*
X4075500D02*
X3870500D01*
Y462500D01*
X4075500D01*
Y667500D01*
D02*
G37*
G36*
X3293400Y275400D02*
X3200700D01*
Y162700D01*
X3293400D01*
Y275400D01*
D02*
G37*
G36*
X4458000Y270863D02*
X4431895Y267426D01*
X4407569Y257350D01*
X4386679Y241321D01*
X4370650Y220432D01*
X4360574Y196106D01*
X4357137Y170000D01*
Y130000D01*
X4360574Y103895D01*
X4370650Y79569D01*
X4386679Y58679D01*
X4407569Y42650D01*
X4431895Y32574D01*
X4458000Y29137D01*
X4484105Y32574D01*
X4508431Y42650D01*
X4529321Y58679D01*
X4545350Y79569D01*
X4555426Y103895D01*
X4558863Y130000D01*
Y170000D01*
X4555426Y196106D01*
X4545350Y220432D01*
X4529321Y241321D01*
X4508431Y257350D01*
X4484105Y267426D01*
X4458000Y270863D01*
D02*
G37*
G36*
X4204000D02*
X4177895Y267426D01*
X4153569Y257350D01*
X4132679Y241321D01*
X4116650Y220432D01*
X4106574Y196106D01*
X4103137Y170000D01*
Y130000D01*
X4106574Y103895D01*
X4116650Y79569D01*
X4132679Y58679D01*
X4153569Y42650D01*
X4177895Y32574D01*
X4204000Y29137D01*
X4230105Y32574D01*
X4254431Y42650D01*
X4275321Y58679D01*
X4291350Y79569D01*
X4301426Y103895D01*
X4304863Y130000D01*
Y170000D01*
X4301426Y196106D01*
X4291350Y220432D01*
X4275321Y241321D01*
X4254431Y257350D01*
X4230105Y267426D01*
X4204000Y270863D01*
D02*
G37*
G36*
X3950000D02*
X3923895Y267426D01*
X3899569Y257350D01*
X3878679Y241321D01*
X3862650Y220432D01*
X3852574Y196106D01*
X3849137Y170000D01*
Y130000D01*
X3852574Y103895D01*
X3862650Y79569D01*
X3878679Y58679D01*
X3899569Y42650D01*
X3923895Y32574D01*
X3950000Y29137D01*
X3976105Y32574D01*
X4000431Y42650D01*
X4021321Y58679D01*
X4037350Y79569D01*
X4047426Y103895D01*
X4050863Y130000D01*
Y170000D01*
X4047426Y196106D01*
X4037350Y220432D01*
X4021321Y241321D01*
X4000431Y257350D01*
X3976105Y267426D01*
X3950000Y270863D01*
D02*
G37*
G36*
X3696000D02*
X3669895Y267426D01*
X3645569Y257350D01*
X3624679Y241321D01*
X3608650Y220432D01*
X3598574Y196106D01*
X3595137Y170000D01*
Y130000D01*
X3598574Y103895D01*
X3608650Y79569D01*
X3624679Y58679D01*
X3645569Y42650D01*
X3669895Y32574D01*
X3696000Y29137D01*
X3722105Y32574D01*
X3746431Y42650D01*
X3767321Y58679D01*
X3783350Y79569D01*
X3793426Y103895D01*
X3796863Y130000D01*
Y170000D01*
X3793426Y196106D01*
X3783350Y220432D01*
X3767321Y241321D01*
X3746431Y257350D01*
X3722105Y267426D01*
X3696000Y270863D01*
D02*
G37*
G36*
X3442000D02*
X3415895Y267426D01*
X3391569Y257350D01*
X3370679Y241321D01*
X3354650Y220432D01*
X3344574Y196106D01*
X3341137Y170000D01*
Y130000D01*
X3344574Y103895D01*
X3354650Y79569D01*
X3370679Y58679D01*
X3391569Y42650D01*
X3415895Y32574D01*
X3442000Y29137D01*
X3468105Y32574D01*
X3492431Y42650D01*
X3513321Y58679D01*
X3529350Y79569D01*
X3539426Y103895D01*
X3542863Y130000D01*
Y170000D01*
X3539426Y196106D01*
X3529350Y220432D01*
X3513321Y241321D01*
X3492431Y257350D01*
X3468105Y267426D01*
X3442000Y270863D01*
D02*
G37*
G36*
X3293400Y137300D02*
X3200700D01*
Y24600D01*
X3293400D01*
Y137300D01*
D02*
G37*
G36*
X3175300D02*
X3082600D01*
Y24600D01*
X3175300D01*
Y137300D01*
D02*
G37*
G36*
X2312700Y4974657D02*
Y4912701D01*
X2374657D01*
X2370262Y4929104D01*
X2360335Y4946297D01*
X2346297Y4960336D01*
X2329103Y4970262D01*
X2312700Y4974657D01*
D02*
G37*
G36*
X2287300D02*
X2270897Y4970262D01*
X2253703Y4960336D01*
X2239665Y4946297D01*
X2229738Y4929104D01*
X2225343Y4912701D01*
X2287300D01*
Y4974657D01*
D02*
G37*
G36*
X2374657Y4887301D02*
X2312700D01*
Y4825344D01*
X2329103Y4829739D01*
X2346297Y4839665D01*
X2360335Y4853704D01*
X2370262Y4870897D01*
X2374657Y4887301D01*
D02*
G37*
G36*
X2287300D02*
X2225343D01*
X2229738Y4870897D01*
X2239665Y4853704D01*
X2253703Y4839665D01*
X2270897Y4829739D01*
X2287300Y4825344D01*
Y4887301D01*
D02*
G37*
G36*
X2071249Y4220000D02*
X2028751D01*
X1986775Y4213352D01*
X1946356Y4200219D01*
X1908489Y4180925D01*
X1874107Y4155944D01*
X1844055Y4125893D01*
X1819075Y4091511D01*
X1799781Y4053644D01*
X1786648Y4013225D01*
X1780000Y3971249D01*
Y3928751D01*
X1786648Y3886775D01*
X1799781Y3846356D01*
X1819075Y3808489D01*
X1844055Y3774107D01*
X1874107Y3744056D01*
X1908489Y3719075D01*
X1946356Y3699781D01*
X1986775Y3686648D01*
X2028751Y3680000D01*
X2071249D01*
X2113225Y3686648D01*
X2153644Y3699781D01*
X2191511Y3719075D01*
X2225893Y3744056D01*
X2255944Y3774107D01*
X2280925Y3808489D01*
X2300219Y3846356D01*
X2313352Y3886775D01*
X2320000Y3928751D01*
Y3971249D01*
X2313352Y4013225D01*
X2300219Y4053644D01*
X2280925Y4091511D01*
X2255944Y4125893D01*
X2225893Y4155944D01*
X2191511Y4180925D01*
X2153644Y4200219D01*
X2113225Y4213352D01*
X2071249Y4220000D01*
D02*
G37*
G36*
X2013679Y3557900D02*
X2012700D01*
Y3466699D01*
X2103900D01*
Y3467679D01*
X2096820Y3494104D01*
X2083141Y3517796D01*
X2063796Y3537141D01*
X2040104Y3550819D01*
X2013679Y3557900D01*
D02*
G37*
G36*
X2378575Y3192209D02*
X2360144D01*
X2342341Y3187439D01*
X2326379Y3178223D01*
X2313346Y3165190D01*
X2304130Y3149228D01*
X2299360Y3131425D01*
Y3112994D01*
X2304130Y3095190D01*
X2313346Y3079228D01*
X2326379Y3066195D01*
X2342341Y3056980D01*
X2360144Y3052209D01*
X2378575D01*
X2396379Y3056980D01*
X2412341Y3066195D01*
X2425374Y3079228D01*
X2434589Y3095190D01*
X2439360Y3112994D01*
Y3131425D01*
X2434589Y3149228D01*
X2425374Y3165190D01*
X2412341Y3178223D01*
X2396379Y3187439D01*
X2378575Y3192209D01*
D02*
G37*
G36*
X3162700Y2674657D02*
Y2612700D01*
X3224657D01*
X3220262Y2629103D01*
X3210335Y2646296D01*
X3196297Y2660335D01*
X3179103Y2670262D01*
X3162700Y2674657D01*
D02*
G37*
G36*
X3137300D02*
X3120897Y2670262D01*
X3103703Y2660335D01*
X3089665Y2646296D01*
X3079738Y2629103D01*
X3075343Y2612700D01*
X3137300D01*
Y2674657D01*
D02*
G37*
G36*
X3224657Y2587300D02*
X3162700D01*
Y2525343D01*
X3179103Y2529738D01*
X3196297Y2539665D01*
X3210335Y2553703D01*
X3220262Y2570897D01*
X3224657Y2587300D01*
D02*
G37*
G36*
X3137300D02*
X3075343D01*
X3079738Y2570897D01*
X3089665Y2553703D01*
X3103703Y2539665D01*
X3120897Y2529738D01*
X3137300Y2525343D01*
Y2587300D01*
D02*
G37*
G36*
X236679Y5503900D02*
X235700D01*
Y5412701D01*
X326900D01*
Y5413679D01*
X319820Y5440104D01*
X306141Y5463796D01*
X286796Y5483141D01*
X263104Y5496820D01*
X236679Y5503900D01*
D02*
G37*
G36*
X210300D02*
X209321D01*
X182896Y5496820D01*
X159204Y5483141D01*
X139859Y5463796D01*
X126181Y5440104D01*
X119100Y5413679D01*
Y5412701D01*
X210300D01*
Y5503900D01*
D02*
G37*
G36*
X575500Y5498500D02*
X378500D01*
Y5301500D01*
X575500D01*
Y5498500D01*
D02*
G37*
G36*
X326900Y5387301D02*
X235700D01*
Y5296100D01*
X236679D01*
X263104Y5303181D01*
X286796Y5316859D01*
X306141Y5336204D01*
X319820Y5359896D01*
X326900Y5386321D01*
Y5387301D01*
D02*
G37*
G36*
X210300D02*
X119100D01*
Y5386321D01*
X126181Y5359896D01*
X139859Y5336204D01*
X159204Y5316859D01*
X182896Y5303181D01*
X209321Y5296100D01*
X210300D01*
Y5387301D01*
D02*
G37*
G36*
X280783Y4979032D02*
Y4917075D01*
X342740D01*
X338345Y4933479D01*
X328418Y4950672D01*
X314380Y4964710D01*
X297186Y4974637D01*
X280783Y4979032D01*
D02*
G37*
G36*
X255383D02*
X238980Y4974637D01*
X221786Y4964710D01*
X207748Y4950672D01*
X197821Y4933479D01*
X193426Y4917075D01*
X255383D01*
Y4979032D01*
D02*
G37*
G36*
X342740Y4891675D02*
X280783D01*
Y4829719D01*
X297186Y4834114D01*
X314380Y4844040D01*
X328418Y4858079D01*
X338345Y4875272D01*
X342740Y4891675D01*
D02*
G37*
G36*
X255383D02*
X193426D01*
X197821Y4875272D01*
X207748Y4858079D01*
X221786Y4844040D01*
X238980Y4834114D01*
X255383Y4829719D01*
Y4891675D01*
D02*
G37*
G36*
X975400Y2817400D02*
X862700D01*
Y2724700D01*
X975400D01*
Y2817400D01*
D02*
G37*
G36*
X837300D02*
X724600D01*
Y2724700D01*
X837300D01*
Y2817400D01*
D02*
G37*
G36*
X625400Y2813400D02*
X512700D01*
Y2720700D01*
X625400D01*
Y2813400D01*
D02*
G37*
G36*
X487300D02*
X374600D01*
Y2720700D01*
X487300D01*
Y2813400D01*
D02*
G37*
G36*
X275400Y2809400D02*
X162700D01*
Y2716700D01*
X275400D01*
Y2809400D01*
D02*
G37*
G36*
X137300D02*
X24600D01*
Y2716700D01*
X137300D01*
Y2809400D01*
D02*
G37*
G36*
X975400Y2699300D02*
X862700D01*
Y2606600D01*
X975400D01*
Y2699300D01*
D02*
G37*
G36*
X837300D02*
X724600D01*
Y2606600D01*
X837300D01*
Y2699300D01*
D02*
G37*
G36*
X625400Y2695300D02*
X512700D01*
Y2602600D01*
X625400D01*
Y2695300D01*
D02*
G37*
G36*
X487300D02*
X374600D01*
Y2602600D01*
X487300D01*
Y2695300D01*
D02*
G37*
G36*
X275400Y2691300D02*
X162700D01*
Y2598600D01*
X275400D01*
Y2691300D01*
D02*
G37*
G36*
X137300D02*
X24600D01*
Y2598600D01*
X137300D01*
Y2691300D01*
D02*
G37*
G36*
X870000Y2558863D02*
X830000D01*
X803895Y2555426D01*
X779568Y2545350D01*
X758679Y2529321D01*
X742650Y2508431D01*
X732574Y2484105D01*
X729137Y2458000D01*
X732574Y2431895D01*
X742650Y2407569D01*
X758679Y2386680D01*
X779568Y2370651D01*
X803895Y2360574D01*
X830000Y2357138D01*
X870000D01*
X896105Y2360574D01*
X920431Y2370651D01*
X941321Y2386680D01*
X957350Y2407569D01*
X967426Y2431895D01*
X970863Y2458000D01*
X967426Y2484105D01*
X957350Y2508431D01*
X941321Y2529321D01*
X920431Y2545350D01*
X896105Y2555426D01*
X870000Y2558863D01*
D02*
G37*
G36*
X520000Y2554863D02*
X480000D01*
X453895Y2551426D01*
X429569Y2541350D01*
X408679Y2525321D01*
X392650Y2504431D01*
X382574Y2480105D01*
X379137Y2454000D01*
X382574Y2427895D01*
X392650Y2403569D01*
X408679Y2382680D01*
X429569Y2366651D01*
X453895Y2356574D01*
X480000Y2353138D01*
X520000D01*
X546105Y2356574D01*
X570431Y2366651D01*
X591321Y2382680D01*
X607350Y2403569D01*
X617426Y2427895D01*
X620863Y2454000D01*
X617426Y2480105D01*
X607350Y2504431D01*
X591321Y2525321D01*
X570431Y2541350D01*
X546105Y2551426D01*
X520000Y2554863D01*
D02*
G37*
G36*
X170000Y2550863D02*
X130000D01*
X103895Y2547426D01*
X79568Y2537350D01*
X58679Y2521321D01*
X42650Y2500431D01*
X32574Y2476105D01*
X29137Y2450000D01*
X32574Y2423895D01*
X42650Y2399569D01*
X58679Y2378680D01*
X79568Y2362651D01*
X103895Y2352574D01*
X130000Y2349138D01*
X170000D01*
X196105Y2352574D01*
X220432Y2362651D01*
X241321Y2378680D01*
X257350Y2399569D01*
X267426Y2423895D01*
X270863Y2450000D01*
X267426Y2476105D01*
X257350Y2500431D01*
X241321Y2521321D01*
X220432Y2537350D01*
X196105Y2547426D01*
X170000Y2550863D01*
D02*
G37*
G36*
X870000Y2304863D02*
X830000D01*
X803895Y2301426D01*
X779568Y2291350D01*
X758679Y2275321D01*
X742650Y2254431D01*
X732574Y2230105D01*
X729137Y2204000D01*
X732574Y2177895D01*
X742650Y2153569D01*
X758679Y2132680D01*
X779568Y2116651D01*
X803895Y2106574D01*
X830000Y2103138D01*
X870000D01*
X896105Y2106574D01*
X920431Y2116651D01*
X941321Y2132680D01*
X957350Y2153569D01*
X967426Y2177895D01*
X970863Y2204000D01*
X967426Y2230105D01*
X957350Y2254431D01*
X941321Y2275321D01*
X920431Y2291350D01*
X896105Y2301426D01*
X870000Y2304863D01*
D02*
G37*
G36*
X520000Y2300863D02*
X480000D01*
X453895Y2297426D01*
X429569Y2287350D01*
X408679Y2271321D01*
X392650Y2250431D01*
X382574Y2226105D01*
X379137Y2200000D01*
X382574Y2173895D01*
X392650Y2149569D01*
X408679Y2128680D01*
X429569Y2112651D01*
X453895Y2102574D01*
X480000Y2099138D01*
X520000D01*
X546105Y2102574D01*
X570431Y2112651D01*
X591321Y2128680D01*
X607350Y2149569D01*
X617426Y2173895D01*
X620863Y2200000D01*
X617426Y2226105D01*
X607350Y2250431D01*
X591321Y2271321D01*
X570431Y2287350D01*
X546105Y2297426D01*
X520000Y2300863D01*
D02*
G37*
G36*
X170000Y2296863D02*
X130000D01*
X103895Y2293426D01*
X79568Y2283350D01*
X58679Y2267321D01*
X42650Y2246431D01*
X32574Y2222105D01*
X29137Y2196000D01*
X32574Y2169895D01*
X42650Y2145569D01*
X58679Y2124680D01*
X79568Y2108651D01*
X103895Y2098574D01*
X130000Y2095138D01*
X170000D01*
X196105Y2098574D01*
X220432Y2108651D01*
X241321Y2124680D01*
X257350Y2145569D01*
X267426Y2169895D01*
X270863Y2196000D01*
X267426Y2222105D01*
X257350Y2246431D01*
X241321Y2267321D01*
X220432Y2283350D01*
X196105Y2293426D01*
X170000Y2296863D01*
D02*
G37*
G36*
X1709216Y2120000D02*
X1690784D01*
X1672981Y2115230D01*
X1657019Y2106014D01*
X1643986Y2092981D01*
X1634770Y2077019D01*
X1630000Y2059216D01*
Y2040785D01*
X1634770Y2022981D01*
X1643986Y2007019D01*
X1657019Y1993986D01*
X1672981Y1984771D01*
X1690784Y1980000D01*
X1709216D01*
X1727019Y1984771D01*
X1742981Y1993986D01*
X1756014Y2007019D01*
X1765229Y2022981D01*
X1770000Y2040785D01*
Y2059216D01*
X1765229Y2077019D01*
X1756014Y2092981D01*
X1742981Y2106014D01*
X1727019Y2115230D01*
X1709216Y2120000D01*
D02*
G37*
G36*
X1712700Y1940785D02*
Y1878828D01*
X1774657D01*
X1770262Y1895231D01*
X1760335Y1912424D01*
X1746296Y1926463D01*
X1729103Y1936390D01*
X1712700Y1940785D01*
D02*
G37*
G36*
X1687300D02*
X1670897Y1936390D01*
X1653703Y1926463D01*
X1639665Y1912424D01*
X1629738Y1895231D01*
X1625343Y1878828D01*
X1687300D01*
Y1940785D01*
D02*
G37*
G36*
X870000Y2050863D02*
X830000D01*
X803895Y2047426D01*
X779568Y2037350D01*
X758679Y2021321D01*
X742650Y2000431D01*
X732574Y1976105D01*
X729137Y1950000D01*
X732574Y1923895D01*
X742650Y1899569D01*
X758679Y1878680D01*
X779568Y1862651D01*
X803895Y1852574D01*
X830000Y1849138D01*
X870000D01*
X896105Y1852574D01*
X920431Y1862651D01*
X941321Y1878680D01*
X957350Y1899569D01*
X967426Y1923895D01*
X970863Y1950000D01*
X967426Y1976105D01*
X957350Y2000431D01*
X941321Y2021321D01*
X920431Y2037350D01*
X896105Y2047426D01*
X870000Y2050863D01*
D02*
G37*
G36*
X520000Y2046863D02*
X480000D01*
X453895Y2043426D01*
X429569Y2033350D01*
X408679Y2017321D01*
X392650Y1996431D01*
X382574Y1972105D01*
X379137Y1946000D01*
X382574Y1919895D01*
X392650Y1895569D01*
X408679Y1874680D01*
X429569Y1858651D01*
X453895Y1848574D01*
X480000Y1845138D01*
X520000D01*
X546105Y1848574D01*
X570431Y1858651D01*
X591321Y1874680D01*
X607350Y1895569D01*
X617426Y1919895D01*
X620863Y1946000D01*
X617426Y1972105D01*
X607350Y1996431D01*
X591321Y2017321D01*
X570431Y2033350D01*
X546105Y2043426D01*
X520000Y2046863D01*
D02*
G37*
G36*
X170000Y2042863D02*
X130000D01*
X103895Y2039426D01*
X79568Y2029350D01*
X58679Y2013321D01*
X42650Y1992431D01*
X32574Y1968105D01*
X29137Y1942000D01*
X32574Y1915895D01*
X42650Y1891569D01*
X58679Y1870680D01*
X79568Y1854651D01*
X103895Y1844574D01*
X130000Y1841138D01*
X170000D01*
X196105Y1844574D01*
X220432Y1854651D01*
X241321Y1870680D01*
X257350Y1891569D01*
X267426Y1915895D01*
X270863Y1942000D01*
X267426Y1968105D01*
X257350Y1992431D01*
X241321Y2013321D01*
X220432Y2029350D01*
X196105Y2039426D01*
X170000Y2042863D01*
D02*
G37*
G36*
X1774657Y1853428D02*
X1712700D01*
Y1791471D01*
X1729103Y1795866D01*
X1746296Y1805793D01*
X1760335Y1819831D01*
X1770262Y1837025D01*
X1774657Y1853428D01*
D02*
G37*
G36*
X1687300D02*
X1625343D01*
X1629738Y1837025D01*
X1639665Y1819831D01*
X1653703Y1805793D01*
X1670897Y1795866D01*
X1687300Y1791471D01*
Y1853428D01*
D02*
G37*
G36*
X1709216Y1720000D02*
X1690784D01*
X1672981Y1715229D01*
X1657019Y1706014D01*
X1643986Y1692981D01*
X1634770Y1677019D01*
X1630000Y1659216D01*
Y1640784D01*
X1634770Y1622981D01*
X1643986Y1607019D01*
X1657019Y1593986D01*
X1672981Y1584771D01*
X1690784Y1580000D01*
X1709216D01*
X1727019Y1584771D01*
X1742981Y1593986D01*
X1756014Y1607019D01*
X1765229Y1622981D01*
X1770000Y1640784D01*
Y1659216D01*
X1765229Y1677019D01*
X1756014Y1692981D01*
X1742981Y1706014D01*
X1727019Y1715229D01*
X1709216Y1720000D01*
D02*
G37*
G36*
X275400Y1667400D02*
X162700D01*
Y1574700D01*
X275400D01*
Y1667400D01*
D02*
G37*
G36*
X137300D02*
X24600D01*
Y1574700D01*
X137300D01*
Y1667400D01*
D02*
G37*
G36*
X625400Y1659400D02*
X512700D01*
Y1566700D01*
X625400D01*
Y1659400D01*
D02*
G37*
G36*
X487300D02*
X374600D01*
Y1566700D01*
X487300D01*
Y1659400D01*
D02*
G37*
G36*
X275400Y1549300D02*
X162700D01*
Y1456600D01*
X275400D01*
Y1549300D01*
D02*
G37*
G36*
X137300D02*
X24600D01*
Y1456600D01*
X137300D01*
Y1549300D01*
D02*
G37*
G36*
X625400Y1541300D02*
X512700D01*
Y1448600D01*
X625400D01*
Y1541300D01*
D02*
G37*
G36*
X487300D02*
X374600D01*
Y1448600D01*
X487300D01*
Y1541300D01*
D02*
G37*
G36*
X170000Y1408863D02*
X130000D01*
X103895Y1405426D01*
X79568Y1395350D01*
X58679Y1379321D01*
X42650Y1358432D01*
X32574Y1334105D01*
X29137Y1308000D01*
X32574Y1281895D01*
X42650Y1257569D01*
X58679Y1236680D01*
X79568Y1220651D01*
X103895Y1210574D01*
X130000Y1207138D01*
X170000D01*
X196105Y1210574D01*
X220432Y1220651D01*
X241321Y1236680D01*
X257350Y1257569D01*
X267426Y1281895D01*
X270863Y1308000D01*
X267426Y1334105D01*
X257350Y1358432D01*
X241321Y1379321D01*
X220432Y1395350D01*
X196105Y1405426D01*
X170000Y1408863D01*
D02*
G37*
G36*
X520000Y1400863D02*
X480000D01*
X453895Y1397426D01*
X429569Y1387350D01*
X408679Y1371321D01*
X392650Y1350432D01*
X382574Y1326105D01*
X379137Y1300000D01*
X382574Y1273895D01*
X392650Y1249569D01*
X408679Y1228680D01*
X429569Y1212651D01*
X453895Y1202574D01*
X480000Y1199138D01*
X520000D01*
X546105Y1202574D01*
X570431Y1212651D01*
X591321Y1228680D01*
X607350Y1249569D01*
X617426Y1273895D01*
X620863Y1300000D01*
X617426Y1326105D01*
X607350Y1350432D01*
X591321Y1371321D01*
X570431Y1387350D01*
X546105Y1397426D01*
X520000Y1400863D01*
D02*
G37*
G36*
X170000Y1154863D02*
X130000D01*
X103895Y1151426D01*
X79568Y1141350D01*
X58679Y1125321D01*
X42650Y1104432D01*
X32574Y1080105D01*
X29137Y1054000D01*
X32574Y1027895D01*
X42650Y1003569D01*
X58679Y982680D01*
X79568Y966651D01*
X103895Y956574D01*
X130000Y953138D01*
X170000D01*
X196105Y956574D01*
X220432Y966651D01*
X241321Y982680D01*
X257350Y1003569D01*
X267426Y1027895D01*
X270863Y1054000D01*
X267426Y1080105D01*
X257350Y1104432D01*
X241321Y1125321D01*
X220432Y1141350D01*
X196105Y1151426D01*
X170000Y1154863D01*
D02*
G37*
G36*
X520000Y1146863D02*
X480000D01*
X453895Y1143426D01*
X429569Y1133350D01*
X408679Y1117321D01*
X392650Y1096432D01*
X382574Y1072105D01*
X379137Y1046000D01*
X382574Y1019895D01*
X392650Y995569D01*
X408679Y974680D01*
X429569Y958651D01*
X453895Y948574D01*
X480000Y945138D01*
X520000D01*
X546105Y948574D01*
X570431Y958651D01*
X591321Y974680D01*
X607350Y995569D01*
X617426Y1019895D01*
X620863Y1046000D01*
X617426Y1072105D01*
X607350Y1096432D01*
X591321Y1117321D01*
X570431Y1133350D01*
X546105Y1143426D01*
X520000Y1146863D01*
D02*
G37*
G36*
X1762700Y924657D02*
Y862700D01*
X1824657D01*
X1820262Y879103D01*
X1810335Y896297D01*
X1796297Y910335D01*
X1779103Y920262D01*
X1762700Y924657D01*
D02*
G37*
G36*
X1737300D02*
X1720897Y920262D01*
X1703703Y910335D01*
X1689665Y896297D01*
X1679738Y879103D01*
X1675343Y862700D01*
X1737300D01*
Y924657D01*
D02*
G37*
G36*
X2729841Y874657D02*
Y812700D01*
X2791798D01*
X2787403Y829103D01*
X2777476Y846297D01*
X2763437Y860335D01*
X2746244Y870262D01*
X2729841Y874657D01*
D02*
G37*
G36*
X2704441D02*
X2688038Y870262D01*
X2670844Y860335D01*
X2656806Y846297D01*
X2646879Y829103D01*
X2642484Y812700D01*
X2704441D01*
Y874657D01*
D02*
G37*
G36*
X1824657Y837300D02*
X1762700D01*
Y775343D01*
X1779103Y779738D01*
X1796297Y789665D01*
X1810335Y803703D01*
X1820262Y820897D01*
X1824657Y837300D01*
D02*
G37*
G36*
X1737300D02*
X1675343D01*
X1679738Y820897D01*
X1689665Y803703D01*
X1703703Y789665D01*
X1720897Y779738D01*
X1737300Y775343D01*
Y837300D01*
D02*
G37*
G36*
X2791798Y787300D02*
X2729841D01*
Y725343D01*
X2746244Y729738D01*
X2763437Y739665D01*
X2777476Y753703D01*
X2787403Y770897D01*
X2791798Y787300D01*
D02*
G37*
G36*
X2704441D02*
X2642484D01*
X2646879Y770897D01*
X2656806Y753703D01*
X2670844Y739665D01*
X2688038Y729738D01*
X2704441Y725343D01*
Y787300D01*
D02*
G37*
G36*
X170000Y900863D02*
X130000D01*
X103895Y897426D01*
X79568Y887350D01*
X58679Y871321D01*
X42650Y850432D01*
X32574Y826105D01*
X29137Y800000D01*
X32574Y773895D01*
X42650Y749569D01*
X58679Y728680D01*
X79568Y712651D01*
X103895Y702574D01*
X130000Y699138D01*
X170000D01*
X196105Y702574D01*
X220432Y712651D01*
X241321Y728680D01*
X257350Y749569D01*
X267426Y773895D01*
X270863Y800000D01*
X267426Y826105D01*
X257350Y850432D01*
X241321Y871321D01*
X220432Y887350D01*
X196105Y897426D01*
X170000Y900863D01*
D02*
G37*
G36*
X520000Y892863D02*
X480000D01*
X453895Y889426D01*
X429569Y879350D01*
X408679Y863321D01*
X392650Y842432D01*
X382574Y818105D01*
X379137Y792000D01*
X382574Y765895D01*
X392650Y741569D01*
X408679Y720680D01*
X429569Y704651D01*
X453895Y694574D01*
X480000Y691138D01*
X520000D01*
X546105Y694574D01*
X570431Y704651D01*
X591321Y720680D01*
X607350Y741569D01*
X617426Y765895D01*
X620863Y792000D01*
X617426Y818105D01*
X607350Y842432D01*
X591321Y863321D01*
X570431Y879350D01*
X546105Y889426D01*
X520000Y892863D01*
D02*
G37*
%LPD*%
D30*
X2049999Y5434000D02*
X2100000Y5484000D01*
D31*
X4935000Y7127000D02*
D03*
Y7000000D02*
D03*
X4808000Y7127000D02*
D03*
Y7000000D02*
D03*
X4681000Y7127000D02*
D03*
Y7000000D02*
D03*
X4554000Y7127000D02*
D03*
Y7000000D02*
D03*
X4427000Y7127000D02*
D03*
X4300000D02*
D03*
Y7000000D02*
D03*
X4173000Y7127000D02*
D03*
Y7000000D02*
D03*
X4046000Y7127000D02*
D03*
Y7000000D02*
D03*
X3919000Y7127000D02*
D03*
Y7000000D02*
D03*
X3792000Y7127000D02*
D03*
X4427000Y7000000D02*
D03*
X2265000Y7823000D02*
D03*
Y7950000D02*
D03*
X2392000Y7823000D02*
D03*
Y7950000D02*
D03*
X2519000Y7823000D02*
D03*
Y7950000D02*
D03*
X2646000Y7823000D02*
D03*
Y7950000D02*
D03*
X2773000Y7823000D02*
D03*
X2900000D02*
D03*
Y7950000D02*
D03*
X3027000Y7823000D02*
D03*
Y7950000D02*
D03*
X3154000Y7823000D02*
D03*
Y7950000D02*
D03*
X3281000Y7823000D02*
D03*
Y7950000D02*
D03*
X3408000Y7823000D02*
D03*
X2773000Y7950000D02*
D03*
D32*
X3792000Y7000000D02*
D03*
X3408000Y7950000D02*
D03*
D33*
X2100000Y5484000D02*
D03*
X500000Y2708000D02*
D03*
X850000Y2712000D02*
D03*
X150000Y2704000D02*
D03*
X500000Y1554000D02*
D03*
X150000Y1562000D02*
D03*
D34*
X2100000Y5738000D02*
D03*
Y5992000D02*
D03*
Y6246000D02*
D03*
Y6500000D02*
D03*
Y6754000D02*
D03*
Y7008000D02*
D03*
X500000Y1946000D02*
D03*
Y2200000D02*
D03*
Y2454000D02*
D03*
X850000Y1950000D02*
D03*
Y2204000D02*
D03*
Y2458000D02*
D03*
X150000Y2450000D02*
D03*
Y2196000D02*
D03*
Y1942000D02*
D03*
X500000Y792000D02*
D03*
Y1046000D02*
D03*
Y1300000D02*
D03*
X150000Y800000D02*
D03*
Y1054000D02*
D03*
Y1308000D02*
D03*
D35*
X4458000Y150000D02*
D03*
X4204000D02*
D03*
X3950000D02*
D03*
X3696000D02*
D03*
X3442000D02*
D03*
X1500000Y250000D02*
D03*
X1300000D02*
D03*
X1100000D02*
D03*
X2242000Y150000D02*
D03*
X2496000D02*
D03*
X2750000D02*
D03*
D36*
X3188000D02*
D03*
X900000Y250000D02*
D03*
X1988000Y150000D02*
D03*
D37*
X1175000Y7270000D02*
D03*
D38*
X1455000Y7730000D02*
D03*
X845000D02*
D03*
D39*
X477000Y5400000D02*
D03*
D40*
X223000D02*
D03*
X1750000Y6046000D02*
D03*
X3600000Y1496000D02*
D03*
X2000000Y3454000D02*
D03*
D41*
X3973000Y565000D02*
D03*
Y5165000D02*
D03*
Y2865000D02*
D03*
D42*
Y819000D02*
D03*
X4227000Y565000D02*
D03*
Y819000D02*
D03*
X3973000Y1327000D02*
D03*
X4227000D02*
D03*
X3973000Y1835000D02*
D03*
X4227000D02*
D03*
Y1581000D02*
D03*
X3973000D02*
D03*
X4227000Y1073000D02*
D03*
X3973000D02*
D03*
Y5419000D02*
D03*
X4227000Y5165000D02*
D03*
Y5419000D02*
D03*
X3973000Y5927000D02*
D03*
X4227000D02*
D03*
X3973000Y6435000D02*
D03*
X4227000D02*
D03*
Y6181000D02*
D03*
X3973000D02*
D03*
X4227000Y5673000D02*
D03*
X3973000D02*
D03*
Y3119000D02*
D03*
X4227000Y2865000D02*
D03*
Y3119000D02*
D03*
X3973000Y3627000D02*
D03*
X4227000D02*
D03*
X3973000Y4135000D02*
D03*
X4227000D02*
D03*
Y3881000D02*
D03*
X3973000D02*
D03*
X4227000Y3373000D02*
D03*
X3973000D02*
D03*
D43*
X1750000Y6300000D02*
D03*
X3600000Y1750000D02*
D03*
X2000000Y3200000D02*
D03*
D44*
X2050000Y3950000D02*
D03*
X400000Y350000D02*
D03*
X4550000Y4650000D02*
D03*
Y2350000D02*
D03*
D45*
X2350000Y5300000D02*
D03*
X2504627Y6000000D02*
D03*
X3100000Y1550000D02*
D03*
X2717141Y800000D02*
D03*
X2953174Y5603174D02*
D03*
X3400000Y5000000D02*
D03*
X1900000Y7500000D02*
D03*
X1300000Y7050000D02*
D03*
X2369360Y3122209D02*
D03*
X3150000Y2600000D02*
D03*
X3100000Y1800000D02*
D03*
Y2050000D02*
D03*
X2000000Y1650000D02*
D03*
X2200000Y1550000D02*
D03*
X1700000Y1650000D02*
D03*
Y1866128D02*
D03*
Y2050000D02*
D03*
Y2250000D02*
D03*
Y2450000D02*
D03*
Y2650000D02*
D03*
X2400000Y2850000D02*
D03*
X2200000D02*
D03*
X2000000D02*
D03*
X2400000Y1500000D02*
D03*
X1750000Y850000D02*
D03*
X2450000Y6650000D02*
D03*
X3100000Y3800001D02*
D03*
X1350000Y5100000D02*
D03*
X1100000Y6650000D02*
D03*
X650000Y7150000D02*
D03*
X1200000Y6450000D02*
D03*
X100000Y6700000D02*
D03*
X150000Y5950000D02*
D03*
X3450000Y6950000D02*
D03*
X2300000Y700000D02*
D03*
X2850000Y1400000D02*
D03*
X2300000Y2000000D02*
D03*
X2950000Y5300000D02*
D03*
X3450000Y7350000D02*
D03*
X3100000Y3300000D02*
D03*
X3900000Y4900000D02*
D03*
X3100000Y4700000D02*
D03*
X2300000Y4900001D02*
D03*
X3250000Y4350001D02*
D03*
X1208708Y4356207D02*
D03*
X1058708Y3806207D02*
D03*
X1050000Y3300000D02*
D03*
X268083Y4904375D02*
D03*
X1050000Y4700000D02*
D03*
X1750000Y3200000D02*
D03*
X3450000Y6550000D02*
D03*
%TF.MD5,dad8868695daac1550e9e82f3ccaabd3*%
M02*
