%TF.GenerationSoftware,Altium Limited,Altium Designer,21.2.1 (34)*%
G04 Layer_Color=65535*
%FSLAX45Y45*%
%MOMM*%
%TF.SameCoordinates,33E7FE8D-E1FD-4CC8-B6C0-267CAA33A984*%
%TF.FilePolarity,Positive*%
%TF.FileFunction,Legend,Top*%
%TF.Part,Single*%
G01*
G75*
%TA.AperFunction,NonConductor*%
%ADD58C,0.60000*%
%ADD59C,0.25000*%
%ADD60C,0.20000*%
%ADD61C,0.50800*%
%ADD62C,0.10000*%
%ADD63C,0.12700*%
%ADD64C,0.15240*%
%ADD65C,0.15000*%
G36*
X1239708Y2441935D02*
X1259500D01*
Y2436987D01*
X1269396D01*
Y2432039D01*
X1284240D01*
Y2427091D01*
X1294136D01*
Y2422143D01*
X1308981D01*
Y2417195D01*
X1318877D01*
Y2412247D01*
X1328773D01*
Y2407299D01*
X1338669D01*
Y2402351D01*
X1348565D01*
Y2397403D01*
X1358461D01*
Y2392455D01*
X1368357D01*
Y2387507D01*
X1373305D01*
Y2382559D01*
X1383201D01*
Y2377610D01*
X1393097D01*
Y2372662D01*
X1402994D01*
Y2367714D01*
X1407942D01*
Y2362766D01*
X1417838D01*
Y2357818D01*
X1427734D01*
Y2352870D01*
X1432682D01*
Y2347922D01*
X1437630D01*
Y2342974D01*
X1447526D01*
Y2338026D01*
X1452474D01*
Y2333078D01*
X1457422D01*
Y2328130D01*
X1462370D01*
Y2323182D01*
X1467318D01*
Y2318234D01*
X1472266D01*
Y2313286D01*
X1477214D01*
Y2303390D01*
X1482162D01*
Y2288546D01*
X1487110D01*
Y2278649D01*
X1482162D01*
Y2263805D01*
X1477214D01*
Y2258857D01*
X1472266D01*
Y2263805D01*
X1462370D01*
Y2268753D01*
X1452474D01*
Y2273701D01*
X1442578D01*
Y2278649D01*
X1437630D01*
Y2283597D01*
X1427734D01*
Y2288546D01*
X1417838D01*
Y2293494D01*
X1407942D01*
Y2298442D01*
X1398045D01*
Y2303390D01*
X1388149D01*
Y2308338D01*
X1378253D01*
Y2313286D01*
X1368357D01*
Y2318234D01*
X1358461D01*
Y2323182D01*
X1343617D01*
Y2328130D01*
X1333721D01*
Y2333078D01*
X1318877D01*
Y2338026D01*
X1264448D01*
Y2333078D01*
X1259500D01*
Y2328130D01*
X1254552D01*
Y2323182D01*
X1249604D01*
Y2318234D01*
X1244656D01*
Y2313286D01*
X1239708D01*
Y2303390D01*
X1234760D01*
Y2293494D01*
X1229812D01*
Y2268753D01*
X1224864D01*
Y2120312D01*
X1229812D01*
Y2115364D01*
X1210019D01*
Y2120312D01*
X1200123D01*
Y2125260D01*
X1190227D01*
Y2130208D01*
X1185279D01*
Y2140104D01*
X1180331D01*
Y2145052D01*
X1175383D01*
Y2159896D01*
X1170435D01*
Y2179688D01*
X1165487D01*
Y2209377D01*
X1160539D01*
Y2244013D01*
X1155591D01*
Y2367714D01*
X1160539D01*
Y2407299D01*
X1165487D01*
Y2422143D01*
X1170435D01*
Y2432039D01*
X1175383D01*
Y2436987D01*
X1180331D01*
Y2441935D01*
X1190227D01*
Y2446883D01*
X1239708D01*
Y2441935D01*
D02*
G37*
G36*
X1284240Y2214325D02*
X1299085D01*
Y2209377D01*
X1304032D01*
Y2204429D01*
X1313929D01*
Y2199480D01*
X1318877D01*
Y2194533D01*
X1328773D01*
Y2189584D01*
X1338669D01*
Y2179688D01*
X1348565D01*
Y2164844D01*
X1343617D01*
Y2159896D01*
X1333721D01*
Y2150000D01*
X1318877D01*
Y2140104D01*
X1304032D01*
Y2130208D01*
X1289188D01*
Y2120312D01*
X1264448D01*
Y2125260D01*
X1259500D01*
Y2199480D01*
Y2204429D01*
Y2214325D01*
X1264448D01*
Y2219273D01*
X1269396D01*
Y2224221D01*
X1274344D01*
Y2219273D01*
X1279292D01*
Y2224221D01*
X1284240D01*
Y2214325D01*
D02*
G37*
G36*
X1135799Y2154948D02*
X1140747D01*
Y2120312D01*
X1145695D01*
Y2100520D01*
X1150643D01*
Y2085675D01*
X1155591D01*
Y2080727D01*
X1160539D01*
Y2070831D01*
X1165487D01*
Y2065883D01*
X1170435D01*
Y2060935D01*
X1175383D01*
Y2055987D01*
X1180331D01*
Y2051039D01*
X1229812D01*
Y2055987D01*
X1244656D01*
Y2060935D01*
X1259500D01*
Y2065883D01*
X1269396D01*
Y2070831D01*
X1279292D01*
Y2075779D01*
X1289188D01*
Y2080727D01*
X1299085D01*
Y2085675D01*
X1308981D01*
Y2090623D01*
X1313929D01*
Y2095571D01*
X1323825D01*
Y2100520D01*
X1333721D01*
Y2105467D01*
X1338669D01*
Y2110416D01*
X1348565D01*
Y2115364D01*
X1353513D01*
Y2120312D01*
X1363409D01*
Y2125260D01*
X1368357D01*
Y2130208D01*
X1378253D01*
Y2135156D01*
X1383201D01*
Y2140104D01*
X1388149D01*
Y2135156D01*
X1393097D01*
Y2125260D01*
X1398045D01*
Y2100520D01*
X1393097D01*
Y2090623D01*
X1388149D01*
Y2085675D01*
X1383201D01*
Y2075779D01*
X1378253D01*
Y2070831D01*
X1373305D01*
Y2065883D01*
X1368357D01*
Y2060935D01*
X1363409D01*
Y2055987D01*
X1353513D01*
Y2051039D01*
X1348565D01*
Y2046091D01*
X1343617D01*
Y2041143D01*
X1338669D01*
Y2036195D01*
X1328773D01*
Y2031247D01*
X1323825D01*
Y2026299D01*
X1313929D01*
Y2021351D01*
X1308981D01*
Y2016403D01*
X1299085D01*
Y2011455D01*
X1294136D01*
Y2006507D01*
X1284240D01*
Y2001559D01*
X1274344D01*
Y1996610D01*
X1269396D01*
Y1991662D01*
X1259500D01*
Y1986714D01*
X1254552D01*
Y1981766D01*
X1244656D01*
Y1976818D01*
X1234760D01*
Y1971870D01*
X1229812D01*
Y1966922D01*
X1219916D01*
Y1961974D01*
X1210019D01*
Y1957026D01*
X1205072D01*
Y1952078D01*
X1190227D01*
Y1947130D01*
X1180331D01*
Y1942182D01*
X1165487D01*
Y1937234D01*
X1120955D01*
Y1942182D01*
X1116006D01*
Y1947130D01*
X1106110D01*
Y1957026D01*
X1101162D01*
Y1961974D01*
X1096214D01*
Y1976818D01*
X1091266D01*
Y1991662D01*
X1086318D01*
Y2016403D01*
X1081370D01*
Y2051039D01*
X1076422D01*
Y2209377D01*
X1081370D01*
Y2234117D01*
X1086318D01*
Y2244013D01*
X1091266D01*
Y2253909D01*
X1096214D01*
Y2258857D01*
X1101162D01*
Y2263805D01*
X1106110D01*
Y2268753D01*
X1116006D01*
Y2273701D01*
X1135799D01*
Y2154948D01*
D02*
G37*
G36*
X1358461Y2273701D02*
X1388149D01*
Y2268753D01*
X1398045D01*
Y2263805D01*
X1407942D01*
Y2258857D01*
X1417838D01*
Y2253909D01*
X1427734D01*
Y2248961D01*
X1437630D01*
Y2244013D01*
X1447526D01*
Y2239065D01*
X1452474D01*
Y2234117D01*
X1457422D01*
Y2229169D01*
X1467318D01*
Y2224221D01*
X1482162D01*
Y2219273D01*
X1487110D01*
Y2214325D01*
X1492058D01*
Y2209377D01*
X1501955D01*
Y2204429D01*
X1506902D01*
Y2199480D01*
X1516799D01*
Y2194533D01*
X1531643D01*
Y2189584D01*
X1536591D01*
Y2184636D01*
X1541539D01*
Y2179688D01*
X1551435D01*
Y2174740D01*
X1561331D01*
Y2169792D01*
X1566279D01*
Y2164844D01*
X1571227D01*
Y2159896D01*
X1581123D01*
Y2150000D01*
X1586072D01*
Y2145052D01*
X1591019D01*
Y2140104D01*
X1595968D01*
Y2135156D01*
X1600916D01*
Y2130208D01*
X1605864D01*
Y2125260D01*
X1610812D01*
Y2110416D01*
X1615760D01*
Y2100520D01*
X1610812D01*
Y2090623D01*
X1605864D01*
Y2080727D01*
X1600916D01*
Y2075779D01*
X1595968D01*
Y2070831D01*
X1591019D01*
Y2065883D01*
X1586072D01*
Y2060935D01*
X1581123D01*
Y2055987D01*
X1576175D01*
Y2046091D01*
X1561331D01*
Y2041143D01*
X1556383D01*
Y2031247D01*
X1551435D01*
Y2026299D01*
X1546487D01*
Y2021351D01*
X1531643D01*
Y2016403D01*
X1521747D01*
Y2011455D01*
X1516799D01*
Y2006507D01*
X1506902D01*
Y2001559D01*
X1501955D01*
Y1996610D01*
X1487110D01*
Y1991662D01*
X1482162D01*
Y1986714D01*
X1472266D01*
Y1981766D01*
X1457422D01*
Y1976818D01*
X1447526D01*
Y1971870D01*
X1437630D01*
Y1966922D01*
X1427734D01*
Y1961974D01*
X1417838D01*
Y1957026D01*
X1407942D01*
Y1952078D01*
X1393097D01*
Y1947130D01*
X1383201D01*
Y1942182D01*
X1368357D01*
Y1937234D01*
X1353513D01*
Y1932286D01*
X1299085D01*
Y1937234D01*
X1289188D01*
Y1942182D01*
X1284240D01*
Y1952078D01*
X1289188D01*
Y1961974D01*
X1294136D01*
Y1966922D01*
X1304032D01*
Y1971870D01*
X1313929D01*
Y1976818D01*
X1328773D01*
Y1981766D01*
X1338669D01*
Y1986714D01*
X1348565D01*
Y1991662D01*
X1353513D01*
Y1996610D01*
X1368357D01*
Y2001559D01*
X1373305D01*
Y2006507D01*
X1388149D01*
Y2011455D01*
X1393097D01*
Y2016403D01*
X1398045D01*
Y2021351D01*
X1407942D01*
Y2026299D01*
X1412890D01*
Y2031247D01*
X1422786D01*
Y2036195D01*
X1427734D01*
Y2046091D01*
X1437630D01*
Y2051039D01*
X1442578D01*
Y2055987D01*
X1447526D01*
Y2060935D01*
X1452474D01*
Y2065883D01*
X1457422D01*
Y2070831D01*
X1462370D01*
Y2080727D01*
X1467318D01*
Y2090623D01*
X1472266D01*
Y2125260D01*
X1467318D01*
Y2135156D01*
X1462370D01*
Y2140104D01*
X1457422D01*
Y2145052D01*
X1452474D01*
Y2150000D01*
X1447526D01*
Y2154948D01*
X1442578D01*
Y2164844D01*
X1432682D01*
Y2169792D01*
X1427734D01*
Y2174740D01*
X1422786D01*
Y2179688D01*
X1417838D01*
Y2184636D01*
X1412890D01*
Y2189584D01*
X1402994D01*
Y2194533D01*
X1393097D01*
Y2199480D01*
X1383201D01*
Y2204429D01*
X1373305D01*
Y2209377D01*
X1363409D01*
Y2214325D01*
X1353513D01*
Y2219273D01*
X1348565D01*
Y2224221D01*
X1343617D01*
Y2229169D01*
X1333721D01*
Y2234117D01*
X1318877D01*
Y2239065D01*
X1313929D01*
Y2244013D01*
X1304032D01*
Y2248961D01*
X1299085D01*
Y2258857D01*
X1304032D01*
Y2263805D01*
X1308981D01*
Y2268753D01*
X1313929D01*
Y2273701D01*
X1328773D01*
Y2278649D01*
X1358461D01*
Y2273701D01*
D02*
G37*
G36*
X1393097Y1635403D02*
X1363409D01*
Y1699727D01*
Y1704675D01*
Y1749208D01*
X1393097D01*
Y1635403D01*
D02*
G37*
G36*
X1482162Y1625507D02*
X1442578D01*
Y1778896D01*
X1304032D01*
Y1625507D01*
X1269396D01*
Y1813533D01*
X1482162D01*
Y1625507D01*
D02*
G37*
G36*
Y1556234D02*
X1304032D01*
Y1412740D01*
X1269396D01*
Y1590870D01*
X1482162D01*
Y1556234D01*
D02*
G37*
G36*
X1447526Y1383052D02*
X1452474D01*
Y1378104D01*
X1462370D01*
Y1373156D01*
X1467318D01*
Y1363260D01*
X1472266D01*
Y1353364D01*
X1477214D01*
Y1333571D01*
X1482162D01*
Y1204922D01*
Y1199974D01*
Y1175234D01*
X1442578D01*
Y1343467D01*
X1437630D01*
Y1348416D01*
X1427734D01*
Y1353364D01*
X1407942D01*
Y1348416D01*
X1398045D01*
Y1338520D01*
X1393097D01*
Y1219766D01*
X1388149D01*
Y1195026D01*
X1383201D01*
Y1185130D01*
X1378253D01*
Y1180182D01*
X1373305D01*
Y1175234D01*
X1368357D01*
Y1170286D01*
X1358461D01*
Y1165338D01*
X1304032D01*
Y1170286D01*
X1294136D01*
Y1175234D01*
X1289188D01*
Y1180182D01*
X1284240D01*
Y1185130D01*
X1279292D01*
Y1195026D01*
X1274344D01*
Y1209870D01*
X1269396D01*
Y1388000D01*
X1304032D01*
Y1214818D01*
X1308981D01*
Y1209870D01*
X1313929D01*
Y1199974D01*
X1328773D01*
Y1195026D01*
X1338669D01*
Y1199974D01*
X1353513D01*
Y1209870D01*
X1358461D01*
Y1219766D01*
X1363409D01*
Y1353364D01*
X1368357D01*
Y1363260D01*
X1373305D01*
Y1368208D01*
X1378253D01*
Y1373156D01*
X1383201D01*
Y1378104D01*
X1388149D01*
Y1383052D01*
X1398045D01*
Y1388000D01*
X1447526D01*
Y1383052D01*
D02*
G37*
G36*
X1219916Y1160390D02*
X1214968D01*
Y1150494D01*
X1210019D01*
Y1140597D01*
X1205072D01*
Y1135649D01*
X1195175D01*
Y1130701D01*
X1165487D01*
Y1135649D01*
X1160539D01*
Y1140597D01*
X1155591D01*
Y1145546D01*
X1150643D01*
Y1150494D01*
X1145695D01*
Y1165338D01*
X1140747D01*
Y1219766D01*
X1219916D01*
Y1160390D01*
D02*
G37*
G36*
Y1031740D02*
X1214968D01*
Y1096065D01*
X1185279D01*
Y1036688D01*
X1180331D01*
Y1061429D01*
Y1066377D01*
Y1091117D01*
X1175383D01*
Y1096065D01*
X1150643D01*
Y1091117D01*
X1145695D01*
Y1031740D01*
X1140747D01*
Y1105961D01*
X1219916D01*
Y1031740D01*
D02*
G37*
G36*
X1155591Y997104D02*
X1150643D01*
Y987208D01*
X1145695D01*
Y957520D01*
X1150643D01*
Y952571D01*
X1155591D01*
Y947623D01*
X1170435D01*
Y957520D01*
X1175383D01*
Y972364D01*
X1180331D01*
Y992156D01*
X1185279D01*
Y1002052D01*
X1190227D01*
Y1007000D01*
X1214968D01*
Y997104D01*
X1219916D01*
Y987208D01*
X1224864D01*
Y972364D01*
Y967416D01*
Y962467D01*
X1219916D01*
Y947623D01*
X1214968D01*
Y942675D01*
X1210019D01*
Y957520D01*
X1214968D01*
Y992156D01*
X1210019D01*
Y997104D01*
X1195175D01*
Y992156D01*
X1190227D01*
Y982260D01*
X1185279D01*
Y962467D01*
X1180331D01*
Y947623D01*
X1175383D01*
Y942675D01*
X1170435D01*
Y937727D01*
X1155591D01*
Y942675D01*
X1145695D01*
Y952571D01*
X1140747D01*
Y997104D01*
X1145695D01*
Y1007000D01*
X1150643D01*
Y1011948D01*
X1155591D01*
Y997104D01*
D02*
G37*
G36*
X1219916Y903091D02*
X1140747D01*
Y912987D01*
X1219916D01*
Y903091D01*
D02*
G37*
G36*
X1482162Y1096065D02*
X1477214D01*
Y1091117D01*
X1472266D01*
Y1086169D01*
X1467318D01*
Y1081221D01*
X1457422D01*
Y1076273D01*
X1452474D01*
Y1071325D01*
X1447526D01*
Y1066377D01*
X1442578D01*
Y1061429D01*
X1437630D01*
Y1056480D01*
X1427734D01*
Y1051533D01*
X1422786D01*
Y1046584D01*
X1417838D01*
Y1041636D01*
X1412890D01*
Y1036688D01*
X1407942D01*
Y1031740D01*
X1402994D01*
Y1026792D01*
X1393097D01*
Y1021844D01*
X1388149D01*
Y1016896D01*
X1383201D01*
Y1011948D01*
X1388149D01*
Y1007000D01*
X1393097D01*
Y1002052D01*
X1398045D01*
Y997104D01*
X1402994D01*
Y992156D01*
X1407942D01*
Y987208D01*
X1417838D01*
Y982260D01*
X1422786D01*
Y977312D01*
X1427734D01*
Y972364D01*
X1432682D01*
Y967416D01*
X1437630D01*
Y962467D01*
X1442578D01*
Y957520D01*
X1452474D01*
Y952571D01*
X1457422D01*
Y947623D01*
X1462370D01*
Y942675D01*
X1467318D01*
Y937727D01*
X1472266D01*
Y932779D01*
X1477214D01*
Y927831D01*
X1482162D01*
Y888247D01*
X1472266D01*
Y893195D01*
X1467318D01*
Y898143D01*
X1462370D01*
Y903091D01*
X1457422D01*
Y908039D01*
X1447526D01*
Y912987D01*
X1442578D01*
Y917935D01*
X1437630D01*
Y922883D01*
X1432682D01*
Y927831D01*
X1427734D01*
Y932779D01*
X1422786D01*
Y937727D01*
X1417838D01*
Y942675D01*
X1407942D01*
Y947623D01*
X1402994D01*
Y952571D01*
X1398045D01*
Y957520D01*
X1393097D01*
Y962467D01*
X1388149D01*
Y967416D01*
X1383201D01*
Y972364D01*
X1373305D01*
Y977312D01*
X1368357D01*
Y982260D01*
X1363409D01*
Y987208D01*
X1358461D01*
Y992156D01*
X1353513D01*
Y997104D01*
X1269396D01*
Y1031740D01*
X1353513D01*
Y1036688D01*
X1358461D01*
Y1041636D01*
X1363409D01*
Y1046584D01*
X1368357D01*
Y1051533D01*
X1373305D01*
Y1056480D01*
X1378253D01*
Y1061429D01*
X1388149D01*
Y1066377D01*
X1393097D01*
Y1071325D01*
X1398045D01*
Y1076273D01*
X1402994D01*
Y1081221D01*
X1407942D01*
Y1086169D01*
X1412890D01*
Y1091117D01*
X1422786D01*
Y1096065D01*
X1427734D01*
Y1101013D01*
X1432682D01*
Y1105961D01*
X1437630D01*
Y1110909D01*
X1442578D01*
Y1115857D01*
X1447526D01*
Y1120805D01*
X1457422D01*
Y1125753D01*
X1462370D01*
Y1130701D01*
X1467318D01*
Y1135649D01*
X1472266D01*
Y1140597D01*
X1482162D01*
Y1096065D01*
D02*
G37*
G36*
X1200123Y868455D02*
X1205072D01*
Y863507D01*
X1210019D01*
Y858559D01*
X1214968D01*
Y853610D01*
X1219916D01*
Y833818D01*
X1224864D01*
Y809078D01*
X1219916D01*
Y794234D01*
X1214968D01*
Y789286D01*
X1210019D01*
Y804130D01*
X1214968D01*
Y843714D01*
X1210019D01*
Y848662D01*
X1205072D01*
Y858559D01*
X1195175D01*
Y863507D01*
X1165487D01*
Y858559D01*
X1160539D01*
Y853610D01*
X1155591D01*
Y848662D01*
X1150643D01*
Y838766D01*
X1145695D01*
Y823922D01*
Y818974D01*
Y809078D01*
X1150643D01*
Y794234D01*
X1175383D01*
Y823922D01*
X1185279D01*
Y784338D01*
X1150643D01*
Y789286D01*
X1145695D01*
Y799182D01*
X1140747D01*
Y848662D01*
X1145695D01*
Y858559D01*
X1150643D01*
Y863507D01*
X1155591D01*
Y868455D01*
X1165487D01*
Y873403D01*
X1200123D01*
Y868455D01*
D02*
G37*
G36*
X1442578Y873403D02*
X1452474D01*
Y868455D01*
X1462370D01*
Y863507D01*
X1467318D01*
Y853610D01*
X1472266D01*
Y843714D01*
X1477214D01*
Y818974D01*
X1482162D01*
Y665584D01*
X1442578D01*
Y833818D01*
X1437630D01*
Y838766D01*
X1427734D01*
Y843714D01*
X1407942D01*
Y838766D01*
X1398045D01*
Y828870D01*
X1393097D01*
Y710117D01*
X1388149D01*
Y685377D01*
X1383201D01*
Y675480D01*
X1378253D01*
Y670533D01*
X1373305D01*
Y665584D01*
X1368357D01*
Y660636D01*
X1358461D01*
Y655688D01*
X1304032D01*
Y660636D01*
X1294136D01*
Y665584D01*
X1289188D01*
Y670533D01*
X1284240D01*
Y675480D01*
X1279292D01*
Y685377D01*
X1274344D01*
Y700221D01*
X1269396D01*
Y878351D01*
X1304032D01*
Y705169D01*
X1308981D01*
Y695273D01*
X1313929D01*
Y690325D01*
X1328773D01*
Y685377D01*
X1338669D01*
Y690325D01*
X1353513D01*
Y700221D01*
X1358461D01*
Y710117D01*
X1363409D01*
Y843714D01*
X1368357D01*
Y853610D01*
X1373305D01*
Y858559D01*
X1378253D01*
Y863507D01*
X1383201D01*
Y868455D01*
X1388149D01*
Y873403D01*
X1398045D01*
Y878351D01*
X1442578D01*
Y873403D01*
D02*
G37*
G36*
X1219916Y739805D02*
X1214968D01*
Y734857D01*
X1210019D01*
Y729909D01*
X1200123D01*
Y724961D01*
X1195175D01*
Y720013D01*
X1190227D01*
Y715065D01*
X1185279D01*
Y710117D01*
X1180331D01*
Y705169D01*
X1175383D01*
Y700221D01*
X1170435D01*
Y695273D01*
X1165487D01*
Y690325D01*
X1160539D01*
Y685377D01*
X1155591D01*
Y680429D01*
X1219916D01*
Y670533D01*
X1140747D01*
Y680429D01*
X1145695D01*
Y685377D01*
X1150643D01*
Y690325D01*
X1155591D01*
Y695273D01*
X1160539D01*
Y700221D01*
X1165487D01*
Y705169D01*
X1170435D01*
Y710117D01*
X1175383D01*
Y715065D01*
X1180331D01*
Y720013D01*
X1185279D01*
Y724961D01*
X1190227D01*
Y729909D01*
X1195175D01*
Y734857D01*
X1200123D01*
Y739805D01*
X1205072D01*
Y744753D01*
X1140747D01*
Y754649D01*
X1219916D01*
Y739805D01*
D02*
G37*
G36*
X909306Y1649857D02*
X910293Y1649575D01*
X910434Y1649434D01*
X910857Y1649293D01*
X911421Y1649011D01*
X911984Y1648729D01*
X912125Y1648588D01*
X912689Y1648306D01*
X913394Y1647883D01*
X914240Y1647320D01*
X971192Y1610949D01*
Y1647179D01*
X971333Y1647883D01*
X971474Y1648165D01*
X972038Y1648588D01*
X972179D01*
X972461Y1648729D01*
X972883Y1648870D01*
X973447Y1649011D01*
X973588D01*
X974011D01*
X974575Y1649152D01*
X975421D01*
X975562D01*
X976126D01*
X976690D01*
X977395Y1649011D01*
X977536D01*
X977958Y1648870D01*
X978804Y1648588D01*
X978945D01*
X979086Y1648447D01*
X979650Y1647883D01*
Y1647742D01*
X979791Y1647601D01*
X979932Y1646897D01*
Y1602773D01*
X979791Y1602068D01*
X979509Y1601222D01*
X978945Y1600518D01*
X978804Y1600377D01*
X978240Y1599954D01*
X977254Y1599672D01*
X975985Y1599531D01*
X973729D01*
X973588D01*
X973165D01*
X972602D01*
X971897Y1599672D01*
X971756D01*
X971474D01*
X970910Y1599813D01*
X970346Y1600095D01*
X970205D01*
X969923Y1600236D01*
X969359Y1600518D01*
X968654Y1600940D01*
X968513Y1601081D01*
X968091Y1601222D01*
X967386Y1601645D01*
X966540Y1602209D01*
X910011Y1638438D01*
Y1599813D01*
X909870Y1599390D01*
X909588Y1598826D01*
X908883Y1598403D01*
X908742Y1598262D01*
X908037Y1598121D01*
X907051Y1597980D01*
X905500Y1597839D01*
X905359D01*
X904795D01*
X904231D01*
X903526Y1597980D01*
X903385D01*
X903103D01*
X902117Y1598262D01*
X901976D01*
X901835Y1598403D01*
X901271Y1598967D01*
Y1599249D01*
X901130Y1599954D01*
Y1646756D01*
X901271Y1647320D01*
X901553Y1648165D01*
X901976Y1649011D01*
X902117Y1649152D01*
X902821Y1649434D01*
X903808Y1649857D01*
X905218Y1649998D01*
X907473D01*
X907614D01*
X907896D01*
X908883D01*
X909024D01*
X909306Y1649857D01*
D02*
G37*
G36*
X1038688D02*
X1039675D01*
X1041931Y1649716D01*
X1044609Y1649434D01*
X1047569Y1649011D01*
X1050530Y1648447D01*
X1053490Y1647601D01*
X1053631D01*
X1053772Y1647461D01*
X1054195Y1647320D01*
X1054759Y1647179D01*
X1056169Y1646615D01*
X1058001Y1645769D01*
X1060116Y1644782D01*
X1062230Y1643513D01*
X1064486Y1642104D01*
X1066600Y1640553D01*
X1066882Y1640271D01*
X1067446Y1639707D01*
X1068433Y1638720D01*
X1069702Y1637452D01*
X1070970Y1635760D01*
X1072380Y1633927D01*
X1073649Y1631813D01*
X1074777Y1629557D01*
Y1629416D01*
X1074918Y1629275D01*
X1075200Y1628430D01*
X1075622Y1627161D01*
X1076186Y1625328D01*
X1076750Y1623214D01*
X1077173Y1620817D01*
X1077455Y1618139D01*
X1077596Y1615319D01*
Y1614051D01*
X1077455Y1613205D01*
Y1612218D01*
X1077314Y1611090D01*
X1076891Y1608694D01*
Y1608553D01*
X1076750Y1608130D01*
X1076609Y1607566D01*
X1076468Y1606720D01*
X1075904Y1604888D01*
X1075200Y1602773D01*
Y1602632D01*
X1075059Y1602350D01*
X1074777Y1601786D01*
X1074495Y1601081D01*
X1073790Y1599531D01*
X1072944Y1597839D01*
Y1597698D01*
X1072803Y1597557D01*
X1072239Y1596711D01*
X1071534Y1595725D01*
X1070829Y1594879D01*
X1070688Y1594738D01*
X1070407Y1594456D01*
X1069984Y1594033D01*
X1069561Y1593892D01*
X1069279Y1593751D01*
X1068574Y1593469D01*
X1068433D01*
X1068151Y1593328D01*
X1067728D01*
X1067164Y1593187D01*
X1067023D01*
X1066741Y1593046D01*
X1066036D01*
X1065332D01*
X1065191D01*
X1064627D01*
X1064063D01*
X1063358Y1593187D01*
X1063217D01*
X1062794Y1593328D01*
X1061807Y1593610D01*
X1061666D01*
X1061525Y1593751D01*
X1060962Y1594174D01*
Y1594315D01*
X1060821Y1595020D01*
Y1595161D01*
X1060962Y1595584D01*
X1061243Y1596429D01*
X1061948Y1597416D01*
X1062089Y1597698D01*
X1062653Y1598544D01*
X1063499Y1599672D01*
X1064486Y1601363D01*
X1064627Y1601504D01*
X1064768Y1601786D01*
X1065050Y1602350D01*
X1065473Y1603055D01*
X1065896Y1603901D01*
X1066318Y1604888D01*
X1067164Y1607284D01*
Y1607425D01*
X1067305Y1607848D01*
X1067587Y1608553D01*
X1067869Y1609540D01*
X1068010Y1610808D01*
X1068292Y1612218D01*
X1068433Y1613769D01*
Y1616447D01*
X1068292Y1617434D01*
X1068151Y1618703D01*
X1067869Y1620253D01*
X1067587Y1621804D01*
X1067023Y1623496D01*
X1066318Y1625187D01*
X1066177Y1625328D01*
X1065896Y1625892D01*
X1065473Y1626738D01*
X1064768Y1627725D01*
X1063922Y1628852D01*
X1062794Y1630121D01*
X1061525Y1631249D01*
X1060116Y1632518D01*
X1059975Y1632659D01*
X1059411Y1633082D01*
X1058565Y1633645D01*
X1057296Y1634209D01*
X1055887Y1635055D01*
X1054195Y1635901D01*
X1052221Y1636606D01*
X1050107Y1637311D01*
X1049825D01*
X1049120Y1637593D01*
X1047851Y1637734D01*
X1046301Y1638016D01*
X1044327Y1638297D01*
X1042072Y1638579D01*
X1039534Y1638720D01*
X1036715Y1638861D01*
X1036574D01*
X1036433D01*
X1036010D01*
X1035446D01*
X1034036Y1638720D01*
X1032204D01*
X1030230Y1638438D01*
X1027975Y1638156D01*
X1025719Y1637875D01*
X1023464Y1637311D01*
X1023182Y1637170D01*
X1022477Y1637029D01*
X1021490Y1636606D01*
X1020080Y1636042D01*
X1018530Y1635478D01*
X1016979Y1634632D01*
X1015428Y1633645D01*
X1013878Y1632659D01*
X1013737Y1632518D01*
X1013314Y1632095D01*
X1012609Y1631390D01*
X1011763Y1630544D01*
X1010776Y1629416D01*
X1009789Y1628148D01*
X1008944Y1626738D01*
X1008098Y1625187D01*
X1007957Y1625046D01*
X1007816Y1624341D01*
X1007534Y1623496D01*
X1007111Y1622227D01*
X1006688Y1620817D01*
X1006406Y1619126D01*
X1006265Y1617293D01*
X1006124Y1615178D01*
Y1613487D01*
X1006265Y1612359D01*
X1006406Y1611090D01*
X1006547Y1609822D01*
X1007252Y1607002D01*
Y1606861D01*
X1007393Y1606438D01*
X1007675Y1605733D01*
X1007957Y1604888D01*
X1008803Y1603055D01*
X1009789Y1601081D01*
Y1600940D01*
X1010071Y1600658D01*
X1010353Y1600236D01*
X1010635Y1599672D01*
X1011481Y1598262D01*
X1012327Y1596993D01*
Y1596852D01*
X1012468Y1596711D01*
X1013032Y1596006D01*
X1013455Y1595161D01*
X1013596Y1594456D01*
Y1594174D01*
X1013314Y1593751D01*
Y1593610D01*
X1013173Y1593469D01*
X1013032Y1593328D01*
X1012609Y1593187D01*
X1012468D01*
X1012327Y1593046D01*
X1011904D01*
X1011199Y1592905D01*
X1011058D01*
X1010635Y1592764D01*
X1009930D01*
X1008944D01*
X1008803D01*
X1008380D01*
X1007816D01*
X1007111Y1592905D01*
X1006970D01*
X1006688D01*
X1005842Y1593187D01*
X1005560Y1593328D01*
X1004996Y1593610D01*
X1004855D01*
X1004715Y1593751D01*
X1004292Y1594033D01*
X1003869Y1594456D01*
X1003728Y1594597D01*
X1003446Y1595020D01*
X1002882Y1595725D01*
X1002036Y1596993D01*
Y1597134D01*
X1001754Y1597275D01*
X1001613Y1597698D01*
X1001190Y1598262D01*
X1000485Y1599813D01*
X999499Y1601786D01*
Y1601927D01*
X999358Y1602350D01*
X999076Y1602914D01*
X998794Y1603619D01*
X998512Y1604606D01*
X998230Y1605733D01*
X997666Y1608412D01*
Y1608553D01*
X997525Y1609117D01*
X997384Y1609822D01*
X997243Y1610808D01*
X997102Y1612077D01*
X996961Y1613487D01*
X996820Y1616588D01*
Y1617857D01*
X996961Y1619407D01*
X997102Y1621240D01*
X997384Y1623355D01*
X997948Y1625751D01*
X998512Y1628148D01*
X999358Y1630544D01*
X999499Y1630826D01*
X999781Y1631531D01*
X1000485Y1632659D01*
X1001190Y1634068D01*
X1002318Y1635760D01*
X1003587Y1637452D01*
X1005137Y1639284D01*
X1006829Y1640976D01*
X1007111Y1641117D01*
X1007675Y1641681D01*
X1008803Y1642527D01*
X1010353Y1643513D01*
X1012045Y1644500D01*
X1014160Y1645628D01*
X1016556Y1646756D01*
X1019234Y1647742D01*
X1019375D01*
X1019516Y1647883D01*
X1019939D01*
X1020503Y1648024D01*
X1021208Y1648306D01*
X1022054Y1648447D01*
X1024168Y1648870D01*
X1026565Y1649293D01*
X1029525Y1649575D01*
X1032627Y1649857D01*
X1036151Y1649998D01*
X1036292D01*
X1036574D01*
X1037138D01*
X1037842D01*
X1038688Y1649857D01*
D02*
G37*
G36*
X979650Y1593046D02*
X979791Y1592905D01*
X979932Y1592623D01*
X980073Y1592059D01*
X980214Y1591354D01*
Y1591073D01*
X980355Y1590509D01*
Y1586139D01*
X980214Y1585152D01*
Y1585011D01*
X980073Y1584447D01*
X979932Y1584024D01*
X979791Y1583460D01*
Y1583319D01*
X979650Y1583037D01*
X979509Y1582755D01*
X979227Y1582473D01*
Y1582332D01*
X978945Y1582191D01*
X978240Y1581768D01*
X955544Y1570773D01*
X955403D01*
X954980Y1570491D01*
X954275Y1570209D01*
X953430Y1569927D01*
X952443Y1569363D01*
X951315Y1568940D01*
X948778Y1567812D01*
X948637Y1567671D01*
X948214Y1567531D01*
X947509Y1567249D01*
X946522Y1566826D01*
X945535Y1566403D01*
X944267Y1565839D01*
X941588Y1564711D01*
Y1564570D01*
X941729D01*
X942152Y1564288D01*
X942857Y1564006D01*
X943844Y1563724D01*
X944830Y1563301D01*
X945958Y1562738D01*
X948496Y1561751D01*
X948637Y1561610D01*
X949060Y1561469D01*
X949764Y1561187D01*
X950751Y1560764D01*
X951738Y1560341D01*
X952866Y1559777D01*
X955403Y1558790D01*
X978099Y1547795D01*
X978240D01*
X978522Y1547654D01*
X979227Y1547231D01*
X979368D01*
X979509Y1546949D01*
X979791Y1546385D01*
Y1546244D01*
X979932Y1545962D01*
X980073Y1545539D01*
X980214Y1544834D01*
Y1544693D01*
X980355Y1544129D01*
Y1540887D01*
X980214Y1539759D01*
X980073Y1538632D01*
Y1538491D01*
X979932Y1537927D01*
X979791Y1537363D01*
X979509Y1536940D01*
X979368Y1536799D01*
X979227Y1536658D01*
X978804Y1536517D01*
X978240Y1536658D01*
X978099D01*
X977676Y1536799D01*
X977113Y1536940D01*
X976267Y1537363D01*
X931720Y1559636D01*
X902539D01*
X902258D01*
X901694Y1559918D01*
X901553Y1560059D01*
X901271Y1560764D01*
Y1560905D01*
X901130Y1561187D01*
Y1561751D01*
X900989Y1562456D01*
Y1562597D01*
X900848Y1563160D01*
X900707Y1563865D01*
Y1565698D01*
X900848Y1566544D01*
X900989Y1567390D01*
Y1567531D01*
X901130Y1567953D01*
X901271Y1569081D01*
Y1569222D01*
X901412Y1569363D01*
X901694Y1569927D01*
X901835D01*
X901976D01*
X902539Y1570068D01*
X931720D01*
X976267Y1592482D01*
X976549Y1592623D01*
X976972Y1592764D01*
X977676Y1593046D01*
X978381Y1593328D01*
X978522D01*
X978804D01*
X979227D01*
X979650Y1593046D01*
D02*
G37*
G36*
X999781Y1587125D02*
X1000485Y1586984D01*
X1001472Y1586702D01*
X1074777Y1560341D01*
X1074918D01*
X1075200Y1560200D01*
X1075904Y1559777D01*
X1076045Y1559636D01*
X1076186Y1559495D01*
X1076468Y1558649D01*
Y1558508D01*
X1076609Y1558086D01*
X1076750Y1557522D01*
X1076891Y1556676D01*
Y1556394D01*
X1077032Y1555830D01*
Y1551319D01*
X1076891Y1550332D01*
Y1550050D01*
X1076750Y1549627D01*
X1076609Y1548922D01*
X1076468Y1548359D01*
Y1548218D01*
X1076327Y1547936D01*
X1076186Y1547513D01*
X1075763Y1547090D01*
Y1546949D01*
X1075481Y1546808D01*
X1074777Y1546385D01*
X1001472Y1519883D01*
X1001190Y1519742D01*
X1000626Y1519601D01*
X999922Y1519460D01*
X999217D01*
X999076D01*
X998794D01*
X998371Y1519601D01*
X997948Y1519883D01*
Y1520024D01*
X997807Y1520165D01*
X997666Y1520728D01*
X997525Y1521433D01*
Y1522279D01*
X997384Y1523266D01*
Y1526508D01*
X997525Y1527495D01*
Y1527636D01*
X997666Y1528059D01*
Y1528623D01*
X997807Y1529187D01*
Y1529328D01*
X997948Y1529469D01*
X998230Y1530033D01*
X998371D01*
X998512Y1530173D01*
X999217Y1530596D01*
X1018530Y1537363D01*
Y1570209D01*
X999499Y1576553D01*
X999358D01*
X999217Y1576694D01*
X998512Y1577116D01*
X998230Y1577257D01*
X997807Y1577962D01*
Y1578103D01*
X997666Y1578385D01*
Y1578949D01*
X997525Y1579654D01*
Y1580359D01*
X997384Y1581205D01*
Y1583319D01*
X997525Y1584306D01*
X997666Y1585293D01*
Y1585434D01*
X997807Y1585857D01*
X997948Y1586420D01*
X998089Y1586843D01*
X998230D01*
X998371Y1586984D01*
X998794Y1587125D01*
X999217Y1587266D01*
X999358D01*
X999781Y1587125D01*
D02*
G37*
G36*
X976831Y1523830D02*
X977958Y1523548D01*
X978945Y1522843D01*
X979086Y1522561D01*
X979509Y1521997D01*
X979791Y1521151D01*
X979932Y1520165D01*
Y1499583D01*
X979791Y1498032D01*
X979650Y1496200D01*
X979368Y1494226D01*
X978945Y1492394D01*
X978522Y1490561D01*
Y1490420D01*
X978240Y1489856D01*
X977958Y1489010D01*
X977536Y1487882D01*
X976267Y1485486D01*
X975421Y1484217D01*
X974575Y1483089D01*
X974434Y1482949D01*
X974152Y1482526D01*
X973588Y1481962D01*
X972883Y1481398D01*
X971897Y1480552D01*
X970769Y1479847D01*
X969641Y1479142D01*
X968231Y1478437D01*
X968091Y1478297D01*
X967527Y1478156D01*
X966822Y1477874D01*
X965835Y1477592D01*
X964566Y1477310D01*
X963157Y1477169D01*
X961606Y1476887D01*
X959914D01*
X959773D01*
X959491D01*
X958927D01*
X958223Y1477028D01*
X956531Y1477169D01*
X954557Y1477592D01*
X954416D01*
X954134Y1477733D01*
X953571Y1477874D01*
X953007Y1478156D01*
X951456Y1478719D01*
X949764Y1479706D01*
X949623D01*
X949482Y1479988D01*
X948496Y1480552D01*
X947227Y1481539D01*
X945958Y1482949D01*
Y1483089D01*
X945676Y1483230D01*
X945394Y1483653D01*
X944971Y1484217D01*
X944126Y1485627D01*
X943139Y1487460D01*
Y1487319D01*
X942998Y1486896D01*
X942857Y1486332D01*
X942716Y1485486D01*
X942011Y1483512D01*
X940883Y1481398D01*
Y1481257D01*
X940601Y1480975D01*
X940319Y1480411D01*
X939756Y1479706D01*
X938487Y1478156D01*
X936795Y1476605D01*
X936654Y1476464D01*
X936372Y1476182D01*
X935808Y1475900D01*
X935104Y1475336D01*
X934258Y1474913D01*
X933271Y1474349D01*
X930874Y1473222D01*
X930733D01*
X930311Y1473081D01*
X929606Y1472799D01*
X928760Y1472517D01*
X927632Y1472376D01*
X926504Y1472094D01*
X923685Y1471953D01*
X923544D01*
X922980D01*
X922275D01*
X921429Y1472094D01*
X920302Y1472235D01*
X919174Y1472376D01*
X916777Y1472940D01*
X916636D01*
X916214Y1473081D01*
X915650Y1473363D01*
X914945Y1473644D01*
X913112Y1474490D01*
X911139Y1475618D01*
X910998Y1475759D01*
X910716Y1475900D01*
X910293Y1476323D01*
X909588Y1476746D01*
X908178Y1478015D01*
X906769Y1479706D01*
X906628Y1479847D01*
X906487Y1480129D01*
X906064Y1480693D01*
X905641Y1481257D01*
X905218Y1482103D01*
X904654Y1483089D01*
X903667Y1485204D01*
Y1485345D01*
X903526Y1485768D01*
X903244Y1486332D01*
X902962Y1487178D01*
X902680Y1488023D01*
X902258Y1489151D01*
X901694Y1491689D01*
Y1491830D01*
X901553Y1492253D01*
Y1492957D01*
X901412Y1493944D01*
X901271Y1495072D01*
Y1496482D01*
X901130Y1497891D01*
Y1520447D01*
X901271Y1521010D01*
X901553Y1521856D01*
X901976Y1522843D01*
X902117Y1522984D01*
X902821Y1523407D01*
X903808Y1523830D01*
X905359Y1523971D01*
X975562D01*
X975703D01*
X975985D01*
X976831Y1523830D01*
D02*
G37*
G36*
X1073508Y1506631D02*
X1074636Y1506350D01*
X1075622Y1505645D01*
X1075763Y1505363D01*
X1076186Y1504799D01*
X1076468Y1503953D01*
X1076609Y1502966D01*
Y1484499D01*
X1076468Y1482808D01*
X1076327Y1481257D01*
Y1480975D01*
X1076186Y1479988D01*
Y1478860D01*
X1076045Y1477592D01*
Y1477451D01*
X1075904Y1476887D01*
X1075763Y1476041D01*
X1075481Y1474913D01*
X1075059Y1473644D01*
X1074636Y1472235D01*
X1073508Y1469556D01*
X1073367Y1469415D01*
X1073226Y1468992D01*
X1072803Y1468288D01*
X1072380Y1467442D01*
X1070970Y1465609D01*
X1069138Y1463636D01*
X1068997Y1463495D01*
X1068715Y1463213D01*
X1068151Y1462790D01*
X1067446Y1462226D01*
X1066600Y1461662D01*
X1065614Y1461098D01*
X1063217Y1460111D01*
X1063076D01*
X1062653Y1459970D01*
X1061948Y1459688D01*
X1060962Y1459407D01*
X1059975Y1459266D01*
X1058706Y1458984D01*
X1055746Y1458843D01*
X1055605D01*
X1055041D01*
X1054336D01*
X1053349Y1458984D01*
X1052221Y1459125D01*
X1051094Y1459266D01*
X1048556Y1459970D01*
X1048415D01*
X1047992Y1460111D01*
X1047428Y1460393D01*
X1046724Y1460816D01*
X1044891Y1461803D01*
X1043058Y1463072D01*
X1042917Y1463213D01*
X1042635Y1463354D01*
X1042213Y1463777D01*
X1041649Y1464340D01*
X1040239Y1465891D01*
X1038829Y1467865D01*
Y1468006D01*
X1038547Y1468288D01*
X1038265Y1468992D01*
X1037842Y1469697D01*
X1037420Y1470684D01*
X1036997Y1471671D01*
X1036010Y1474208D01*
Y1474067D01*
X1035869Y1473926D01*
X1035305Y1473081D01*
X1034600Y1471953D01*
X1033754Y1470684D01*
Y1470543D01*
X1033472Y1470402D01*
X1032909Y1469697D01*
X1031922Y1468711D01*
X1030653Y1467724D01*
X1030512D01*
X1030371Y1467442D01*
X1029948Y1467160D01*
X1029384Y1466878D01*
X1028116Y1466032D01*
X1026424Y1465186D01*
X1026283D01*
X1026001Y1464904D01*
X1025578Y1464763D01*
X1024873Y1464340D01*
X1023182Y1463636D01*
X1021067Y1462649D01*
X1003728Y1455600D01*
X1003587D01*
X1003305Y1455459D01*
X1002459Y1455177D01*
X1001472Y1454755D01*
X1000626Y1454614D01*
X1000485D01*
X1000203Y1454473D01*
X999217Y1454332D01*
X998935D01*
X998371Y1454473D01*
X998230Y1454614D01*
X998089Y1454895D01*
X997807Y1455318D01*
Y1455459D01*
X997666Y1455741D01*
Y1456305D01*
X997525Y1457010D01*
Y1457715D01*
X997384Y1458561D01*
Y1461662D01*
X997525Y1462508D01*
Y1462649D01*
X997666Y1463072D01*
Y1463636D01*
X997807Y1464059D01*
Y1464200D01*
X997948Y1464340D01*
X998512Y1465045D01*
X998653D01*
X998935Y1465186D01*
X999781Y1465609D01*
X1018389Y1472799D01*
X1018530D01*
X1018952Y1473081D01*
X1019516Y1473222D01*
X1020362Y1473644D01*
X1022195Y1474490D01*
X1024168Y1475477D01*
X1024309D01*
X1024591Y1475759D01*
X1025155Y1476041D01*
X1025719Y1476464D01*
X1027270Y1477451D01*
X1028679Y1478860D01*
X1028820Y1479001D01*
X1028961Y1479142D01*
X1029384Y1479565D01*
X1029807Y1480129D01*
X1030794Y1481539D01*
X1031781Y1483230D01*
Y1483371D01*
X1031922Y1483653D01*
X1032204Y1484217D01*
X1032345Y1484922D01*
X1032627Y1485909D01*
X1032768Y1486896D01*
X1032909Y1489433D01*
Y1496341D01*
X999217D01*
X998935D01*
X998371Y1496623D01*
X998230Y1496905D01*
X998089Y1497186D01*
X997948Y1497609D01*
Y1497750D01*
X997807Y1498032D01*
Y1498455D01*
X997666Y1499160D01*
Y1499301D01*
X997525Y1499865D01*
X997384Y1500570D01*
Y1502402D01*
X997525Y1503248D01*
X997666Y1504094D01*
Y1504235D01*
X997807Y1504658D01*
X997948Y1505786D01*
Y1505927D01*
X998089Y1506068D01*
X998371Y1506631D01*
X998512D01*
X998653D01*
X999217Y1506772D01*
X1072239D01*
X1072380D01*
X1072662D01*
X1073508Y1506631D01*
D02*
G37*
G36*
X943421Y1460393D02*
X945676Y1460252D01*
X948214Y1459970D01*
X951174Y1459688D01*
X953994Y1459125D01*
X956954Y1458420D01*
X957095D01*
X957236Y1458279D01*
X957659Y1458138D01*
X958223Y1457997D01*
X959632Y1457433D01*
X961465Y1456728D01*
X963439Y1455741D01*
X965553Y1454614D01*
X967668Y1453204D01*
X969782Y1451653D01*
X970064Y1451371D01*
X970628Y1450807D01*
X971615Y1449821D01*
X972883Y1448552D01*
X974152Y1446860D01*
X975562Y1445028D01*
X976831Y1442772D01*
X978099Y1440376D01*
Y1440235D01*
X978240Y1440094D01*
X978381Y1439671D01*
X978522Y1439107D01*
X979086Y1437697D01*
X979650Y1435865D01*
X980073Y1433609D01*
X980637Y1430790D01*
X980919Y1427829D01*
X981060Y1424587D01*
Y1423177D01*
X980919Y1421486D01*
X980778Y1419371D01*
X980355Y1416975D01*
X979932Y1414437D01*
X979227Y1411900D01*
X978381Y1409362D01*
Y1409221D01*
X978240Y1409080D01*
X977958Y1408234D01*
X977254Y1407107D01*
X976408Y1405556D01*
X975280Y1403864D01*
X974011Y1402032D01*
X972461Y1400340D01*
X970628Y1398648D01*
X970346Y1398507D01*
X969782Y1397944D01*
X968654Y1397098D01*
X967245Y1396252D01*
X965412Y1395124D01*
X963298Y1393996D01*
X960901Y1393010D01*
X958223Y1392164D01*
X958082D01*
X957941Y1392023D01*
X957518D01*
X956954Y1391882D01*
X956249Y1391600D01*
X955403Y1391459D01*
X953430Y1391036D01*
X950892Y1390754D01*
X947932Y1390331D01*
X944830Y1390190D01*
X941306Y1390049D01*
X941165D01*
X940883D01*
X940319D01*
X939756D01*
X938910D01*
X937923Y1390190D01*
X935667Y1390331D01*
X932989Y1390613D01*
X930029Y1391036D01*
X927068Y1391600D01*
X924108Y1392305D01*
X923967D01*
X923826Y1392446D01*
X923403Y1392587D01*
X922839Y1392728D01*
X921429Y1393292D01*
X919597Y1393996D01*
X917623Y1394983D01*
X915368Y1396111D01*
X913253Y1397521D01*
X911139Y1399071D01*
X910857Y1399212D01*
X910293Y1399917D01*
X909306Y1400904D01*
X908037Y1402173D01*
X906769Y1403864D01*
X905359Y1405697D01*
X904090Y1407952D01*
X902821Y1410349D01*
Y1410490D01*
X902680Y1410631D01*
X902539Y1411054D01*
X902398Y1411477D01*
X901976Y1413027D01*
X901412Y1414860D01*
X900848Y1417116D01*
X900425Y1419794D01*
X900143Y1422895D01*
X900002Y1426138D01*
Y1427688D01*
X900143Y1428393D01*
Y1429239D01*
X900284Y1431353D01*
X900566Y1433750D01*
X901130Y1436428D01*
X901694Y1438966D01*
X902539Y1441503D01*
X902680Y1441785D01*
X903103Y1442631D01*
X903667Y1443759D01*
X904513Y1445310D01*
X905641Y1447001D01*
X906910Y1448693D01*
X908460Y1450525D01*
X910293Y1452217D01*
X910575Y1452358D01*
X911139Y1452922D01*
X912266Y1453627D01*
X913817Y1454614D01*
X915650Y1455600D01*
X917764Y1456728D01*
X920161Y1457715D01*
X922839Y1458561D01*
X922980D01*
X923121Y1458702D01*
X923544D01*
X924108Y1458843D01*
X924813Y1458984D01*
X925659Y1459125D01*
X927773Y1459548D01*
X930311Y1459970D01*
X933271Y1460252D01*
X936513Y1460393D01*
X940037Y1460534D01*
X940178D01*
X940460D01*
X940883D01*
X941588D01*
X942434D01*
X943421Y1460393D01*
D02*
G37*
G36*
X1074072Y1448411D02*
X1074213D01*
X1074636Y1448270D01*
X1075481Y1448129D01*
X1075622D01*
X1075763Y1447988D01*
X1076327Y1447424D01*
Y1447283D01*
X1076468Y1447142D01*
X1076609Y1446578D01*
Y1391459D01*
X1076327Y1390895D01*
Y1390754D01*
X1076186Y1390613D01*
X1075481Y1390190D01*
X1075340D01*
X1075059Y1390049D01*
X1074636Y1389908D01*
X1074072Y1389767D01*
X1073931D01*
X1073508Y1389626D01*
X1072944D01*
X1072098D01*
X1071957D01*
X1071393D01*
X1070688D01*
X1069984Y1389767D01*
X1069843D01*
X1069561Y1389908D01*
X1068574Y1390190D01*
X1068292Y1390331D01*
X1067869Y1390895D01*
Y1391177D01*
X1067728Y1391741D01*
Y1413873D01*
X999217D01*
X998935D01*
X998371Y1414155D01*
X998230Y1414437D01*
X998089Y1414719D01*
X997948Y1415142D01*
Y1415283D01*
X997807Y1415565D01*
Y1415988D01*
X997666Y1416693D01*
Y1416834D01*
X997525Y1417397D01*
X997384Y1418102D01*
Y1419935D01*
X997525Y1420781D01*
X997666Y1421627D01*
Y1421768D01*
X997807Y1422190D01*
X997948Y1423318D01*
Y1423459D01*
X998089Y1423600D01*
X998371Y1424164D01*
X998512D01*
X998653D01*
X999217Y1424305D01*
X1067728D01*
Y1446860D01*
X1067869Y1447424D01*
X1068010Y1447706D01*
X1068574Y1448129D01*
X1068715D01*
X1068997Y1448270D01*
X1069420D01*
X1069984Y1448411D01*
X1070125D01*
X1070548D01*
X1071252Y1448552D01*
X1072098D01*
X1072239D01*
X1072803D01*
X1073367D01*
X1074072Y1448411D01*
D02*
G37*
G36*
X1073508Y1378067D02*
X1074636Y1377785D01*
X1075622Y1377080D01*
X1075763Y1376798D01*
X1076186Y1376234D01*
X1076468Y1375388D01*
X1076609Y1374402D01*
Y1336622D01*
X1076327Y1336058D01*
Y1335917D01*
X1076186Y1335776D01*
X1075481Y1335494D01*
X1075340D01*
X1075059Y1335353D01*
X1074636Y1335212D01*
X1074072Y1335071D01*
X1073931D01*
X1073508Y1334930D01*
X1072944Y1334789D01*
X1072098D01*
X1071957D01*
X1071393D01*
X1070829Y1334930D01*
X1070125Y1335071D01*
X1069984D01*
X1069702Y1335212D01*
X1068715Y1335494D01*
X1068433Y1335635D01*
X1068010Y1336058D01*
Y1336340D01*
X1067869Y1336904D01*
Y1367776D01*
X1043199D01*
Y1341133D01*
X1042917Y1340569D01*
Y1340428D01*
X1042776Y1340287D01*
X1042072Y1339864D01*
X1041931D01*
X1041790Y1339723D01*
X1041367Y1339582D01*
X1040803Y1339441D01*
X1040662D01*
X1040239Y1339300D01*
X1039534D01*
X1038688D01*
X1038547D01*
X1038124D01*
X1037561D01*
X1036856Y1339441D01*
X1036715D01*
X1036433Y1339582D01*
X1036010Y1339723D01*
X1035587Y1339864D01*
X1035305Y1340005D01*
X1034882Y1340569D01*
Y1340851D01*
X1034741Y1341415D01*
Y1367776D01*
X1006547D01*
Y1336340D01*
X1006265Y1335776D01*
Y1335635D01*
X1006124Y1335494D01*
X1005419Y1335071D01*
X1005278Y1334930D01*
X1005137Y1334789D01*
X1004715Y1334648D01*
X1004151Y1334507D01*
X1004010D01*
X1003587Y1334366D01*
X1002882D01*
X1002036D01*
X1001895D01*
X1001331D01*
X1000767D01*
X1000063Y1334507D01*
X999922D01*
X999640Y1334648D01*
X998794Y1335071D01*
X998653D01*
X998512Y1335212D01*
X997948Y1335776D01*
Y1335917D01*
X997807Y1336622D01*
Y1374684D01*
X997948Y1375247D01*
X998230Y1376093D01*
X998653Y1377080D01*
X998794Y1377221D01*
X999499Y1377644D01*
X1000485Y1378067D01*
X1002036Y1378208D01*
X1072239D01*
X1072380D01*
X1072662D01*
X1073508Y1378067D01*
D02*
G37*
G36*
X909306Y1352128D02*
X910293Y1351846D01*
X910434Y1351705D01*
X910857Y1351564D01*
X911421Y1351283D01*
X911984Y1351001D01*
X912125Y1350860D01*
X912689Y1350578D01*
X913394Y1350155D01*
X914240Y1349591D01*
X971192Y1313221D01*
Y1349450D01*
X971333Y1350155D01*
X971474Y1350437D01*
X972038Y1350860D01*
X972179D01*
X972461Y1351001D01*
X972883Y1351142D01*
X973447Y1351283D01*
X973588D01*
X974011D01*
X974575Y1351424D01*
X975421D01*
X975562D01*
X976126D01*
X976690D01*
X977395Y1351283D01*
X977536D01*
X977958Y1351142D01*
X978804Y1350860D01*
X978945D01*
X979086Y1350719D01*
X979650Y1350155D01*
Y1350014D01*
X979791Y1349873D01*
X979932Y1349168D01*
Y1305044D01*
X979791Y1304340D01*
X979509Y1303494D01*
X978945Y1302789D01*
X978804Y1302648D01*
X978240Y1302225D01*
X977254Y1301943D01*
X975985Y1301802D01*
X973729D01*
X973588D01*
X973165D01*
X972602D01*
X971897Y1301943D01*
X971756D01*
X971474D01*
X970910Y1302084D01*
X970346Y1302366D01*
X970205D01*
X969923Y1302507D01*
X969359Y1302789D01*
X968654Y1303212D01*
X968513Y1303353D01*
X968091Y1303494D01*
X967386Y1303917D01*
X966540Y1304480D01*
X910011Y1340710D01*
Y1302084D01*
X909870Y1301661D01*
X909588Y1301097D01*
X908883Y1300674D01*
X908742Y1300533D01*
X908037Y1300392D01*
X907051Y1300251D01*
X905500Y1300110D01*
X905359D01*
X904795D01*
X904231D01*
X903526Y1300251D01*
X903385D01*
X903103D01*
X902117Y1300533D01*
X901976D01*
X901835Y1300674D01*
X901271Y1301238D01*
Y1301520D01*
X901130Y1302225D01*
Y1349027D01*
X901271Y1349591D01*
X901553Y1350437D01*
X901976Y1351283D01*
X902117Y1351424D01*
X902821Y1351705D01*
X903808Y1352128D01*
X905218Y1352269D01*
X907473D01*
X907614D01*
X907896D01*
X908883D01*
X909024D01*
X909306Y1352128D01*
D02*
G37*
G36*
X1075763Y1288974D02*
X1075904D01*
X1076045Y1288692D01*
X1076327Y1288128D01*
Y1287987D01*
X1076468Y1287705D01*
X1076609Y1287141D01*
X1076750Y1286436D01*
Y1286295D01*
X1076891Y1285731D01*
X1077032Y1284886D01*
Y1283053D01*
X1076891Y1282348D01*
X1076750Y1281502D01*
Y1281361D01*
X1076609Y1280939D01*
X1076468Y1280375D01*
X1076327Y1279952D01*
Y1279811D01*
X1076186Y1279529D01*
X1076045Y1279247D01*
X1075763Y1278965D01*
X1075622Y1278824D01*
X1075059Y1278683D01*
X999217D01*
X998935D01*
X998371Y1278965D01*
X998230Y1279247D01*
X998089Y1279529D01*
X997948Y1279952D01*
Y1280093D01*
X997807Y1280375D01*
Y1280798D01*
X997666Y1281502D01*
Y1281643D01*
X997525Y1282207D01*
X997384Y1282912D01*
Y1284745D01*
X997525Y1285591D01*
X997666Y1286436D01*
Y1286577D01*
X997807Y1287000D01*
X997948Y1288128D01*
Y1288269D01*
X998089Y1288410D01*
X998371Y1288974D01*
X998512D01*
X998653D01*
X999217Y1289115D01*
X1075059D01*
X1075200D01*
X1075340D01*
X1075763Y1288974D01*
D02*
G37*
G36*
X977254Y1291229D02*
X977395D01*
X977817Y1291088D01*
X978663Y1290806D01*
X978804D01*
X979086Y1290665D01*
X979368Y1290383D01*
X979650Y1290102D01*
Y1289961D01*
X979791Y1289820D01*
X979932Y1289115D01*
Y1242595D01*
X979650Y1241749D01*
Y1241608D01*
X979509Y1241326D01*
X979368Y1241044D01*
X978945Y1240762D01*
X978804Y1240621D01*
X978522Y1240480D01*
X978099Y1240339D01*
X977536Y1240198D01*
X977395D01*
X976972Y1240057D01*
X976267Y1239916D01*
X975421D01*
X975280D01*
X974716D01*
X974011D01*
X973306Y1240057D01*
X973165D01*
X972743Y1240198D01*
X972179D01*
X971615Y1240339D01*
X971474D01*
X971192Y1240480D01*
X970628Y1240621D01*
X970064Y1240762D01*
X969923D01*
X969641Y1240903D01*
X969077Y1241044D01*
X968513Y1241326D01*
X902962Y1269802D01*
X902821D01*
X902539Y1269943D01*
X901835Y1270648D01*
Y1270789D01*
X901553Y1270930D01*
X901130Y1271775D01*
Y1271916D01*
X900989Y1272198D01*
Y1272903D01*
X900848Y1273608D01*
Y1274313D01*
X900707Y1275159D01*
Y1277414D01*
X900848Y1278401D01*
X900989Y1279529D01*
Y1279670D01*
X901130Y1280093D01*
X901271Y1280657D01*
X901412Y1281220D01*
X901553D01*
X901694Y1281361D01*
X901976Y1281502D01*
X902398Y1281643D01*
X902539D01*
X902821Y1281502D01*
X903244Y1281361D01*
X903808Y1281079D01*
X970769Y1251194D01*
Y1289256D01*
X970910Y1289679D01*
X971192Y1290243D01*
X971897Y1290806D01*
X972179Y1290947D01*
X972743Y1291088D01*
X973870Y1291229D01*
X975280Y1291370D01*
X975421D01*
X975985D01*
X976549D01*
X977254Y1291229D01*
D02*
G37*
G36*
X1073367Y1257537D02*
X1074495Y1257115D01*
X1075481Y1256410D01*
X1075622Y1256128D01*
X1076045Y1255423D01*
X1076468Y1254436D01*
X1076609Y1253308D01*
Y1247106D01*
X1076468Y1246260D01*
X1076186Y1245273D01*
Y1244991D01*
X1075904Y1244568D01*
X1075622Y1243722D01*
X1075200Y1243018D01*
X1075059Y1242877D01*
X1074636Y1242454D01*
X1074072Y1241890D01*
X1073226Y1241185D01*
X1073085Y1241044D01*
X1072380Y1240621D01*
X1071393Y1239916D01*
X1070125Y1239211D01*
X1035587Y1220603D01*
X1035446Y1220462D01*
X1035023Y1220321D01*
X1034459Y1220039D01*
X1033613Y1219617D01*
X1032627Y1219053D01*
X1031499Y1218489D01*
X1029243Y1217361D01*
X1029102Y1217220D01*
X1028679Y1217079D01*
X1028116Y1216797D01*
X1027411Y1216374D01*
X1025437Y1215387D01*
X1023323Y1214260D01*
X1023182Y1214119D01*
X1022900Y1213978D01*
X1022336Y1213696D01*
X1021631Y1213273D01*
X1019798Y1212286D01*
X1017684Y1211299D01*
X1017543D01*
X1017261Y1211017D01*
X1016697Y1210735D01*
X1015851Y1210454D01*
X1014019Y1209467D01*
X1011904Y1208480D01*
Y1208339D01*
X1012186D01*
X1012750D01*
X1013737D01*
X1015005D01*
X1016415Y1208480D01*
X1018107D01*
X1019939D01*
X1021913D01*
X1022195D01*
X1022759D01*
X1023886D01*
X1025155D01*
X1026706D01*
X1028397D01*
X1031922D01*
X1074777D01*
X1074918D01*
X1075059D01*
X1075481Y1208339D01*
X1075622D01*
X1075763Y1208057D01*
X1076186Y1207493D01*
Y1207352D01*
X1076327Y1207070D01*
X1076468Y1206506D01*
X1076609Y1205801D01*
Y1205661D01*
X1076750Y1205097D01*
Y1201713D01*
X1076609Y1200868D01*
Y1200727D01*
X1076468Y1200163D01*
X1076327Y1199740D01*
X1076186Y1199176D01*
Y1199035D01*
X1076045Y1198894D01*
X1075481Y1198330D01*
X1075340Y1198189D01*
X1074777Y1198048D01*
X1002036D01*
X1001895D01*
X1001331D01*
X1000767Y1198189D01*
X1000063Y1198471D01*
X999922Y1198612D01*
X999640Y1198753D01*
X998653Y1199599D01*
X998512Y1199740D01*
X998371Y1200022D01*
X998089Y1200586D01*
X997807Y1201149D01*
Y1201572D01*
X997666Y1202136D01*
Y1207211D01*
X997807Y1208057D01*
X997948Y1209044D01*
Y1209185D01*
X998230Y1209749D01*
X998512Y1210594D01*
X999076Y1211440D01*
X999217Y1211581D01*
X999640Y1212004D01*
X1000485Y1212709D01*
X1001472Y1213555D01*
X1001613D01*
X1001754Y1213696D01*
X1002600Y1214260D01*
X1003728Y1215106D01*
X1005419Y1215951D01*
X1050248Y1240057D01*
X1050389Y1240198D01*
X1050812Y1240339D01*
X1051517Y1240762D01*
X1052362Y1241185D01*
X1053490Y1241749D01*
X1054759Y1242454D01*
X1057437Y1243863D01*
X1057578Y1244004D01*
X1058142Y1244145D01*
X1058847Y1244568D01*
X1059834Y1244991D01*
X1060962Y1245555D01*
X1062230Y1246119D01*
X1064909Y1247388D01*
Y1247529D01*
X1064768D01*
X1064204D01*
X1063217D01*
X1062089Y1247388D01*
X1060821D01*
X1059270D01*
X1055887D01*
X1055746D01*
X1055182D01*
X1054195D01*
X1053067Y1247247D01*
X1051658D01*
X1050248D01*
X1046865D01*
X999217D01*
X998935D01*
X998371Y1247529D01*
X998230Y1247811D01*
X998089Y1248092D01*
X997948Y1248515D01*
Y1248656D01*
X997807Y1248938D01*
Y1249361D01*
X997666Y1250066D01*
Y1250207D01*
X997525Y1250771D01*
X997384Y1251617D01*
Y1253449D01*
X997525Y1254295D01*
X997666Y1255141D01*
Y1255282D01*
X997807Y1255705D01*
Y1256269D01*
X997948Y1256692D01*
Y1256833D01*
X998089Y1256974D01*
X998371Y1257537D01*
X998512D01*
X998653D01*
X999217Y1257678D01*
X1072098D01*
X1072239D01*
X1072521D01*
X1073367Y1257537D01*
D02*
G37*
G36*
X977254Y1199740D02*
X977395D01*
X977817Y1199599D01*
X978663Y1199317D01*
X978804D01*
X979086Y1199176D01*
X979368Y1198894D01*
X979650Y1198612D01*
Y1198471D01*
X979791Y1198330D01*
X979932Y1197625D01*
Y1151105D01*
X979650Y1150259D01*
Y1150118D01*
X979509Y1149836D01*
X979368Y1149554D01*
X978945Y1149273D01*
X978804Y1149132D01*
X978522Y1148991D01*
X978099Y1148850D01*
X977536Y1148709D01*
X977395D01*
X976972Y1148568D01*
X976267Y1148427D01*
X975421D01*
X975280D01*
X974716D01*
X974011D01*
X973306Y1148568D01*
X973165D01*
X972743Y1148709D01*
X972179D01*
X971615Y1148850D01*
X971474D01*
X971192Y1148991D01*
X970628Y1149132D01*
X970064Y1149273D01*
X969923D01*
X969641Y1149414D01*
X969077Y1149554D01*
X968513Y1149836D01*
X902962Y1178312D01*
X902821D01*
X902539Y1178453D01*
X901835Y1179158D01*
Y1179299D01*
X901553Y1179440D01*
X901130Y1180286D01*
Y1180427D01*
X900989Y1180709D01*
Y1181414D01*
X900848Y1182119D01*
Y1182823D01*
X900707Y1183669D01*
Y1185925D01*
X900848Y1186912D01*
X900989Y1188039D01*
Y1188180D01*
X901130Y1188603D01*
X901271Y1189167D01*
X901412Y1189731D01*
X901553D01*
X901694Y1189872D01*
X901976Y1190013D01*
X902398Y1190154D01*
X902539D01*
X902821Y1190013D01*
X903244Y1189872D01*
X903808Y1189590D01*
X970769Y1159704D01*
Y1197766D01*
X970910Y1198189D01*
X971192Y1198753D01*
X971897Y1199317D01*
X972179Y1199458D01*
X972743Y1199599D01*
X973870Y1199740D01*
X975280Y1199881D01*
X975421D01*
X975985D01*
X976549D01*
X977254Y1199740D01*
D02*
G37*
G36*
X1074072Y1186630D02*
X1074213D01*
X1074636Y1186489D01*
X1075481Y1186348D01*
X1075622D01*
X1075763Y1186207D01*
X1076327Y1185643D01*
Y1185502D01*
X1076468Y1185361D01*
X1076609Y1184797D01*
Y1129678D01*
X1076327Y1129114D01*
Y1128973D01*
X1076186Y1128832D01*
X1075481Y1128409D01*
X1075340D01*
X1075059Y1128268D01*
X1074636Y1128127D01*
X1074072Y1127986D01*
X1073931D01*
X1073508Y1127845D01*
X1072944D01*
X1072098D01*
X1071957D01*
X1071393D01*
X1070688D01*
X1069984Y1127986D01*
X1069843D01*
X1069561Y1128127D01*
X1068574Y1128409D01*
X1068292Y1128550D01*
X1067869Y1129114D01*
Y1129396D01*
X1067728Y1129960D01*
Y1152092D01*
X999217D01*
X998935D01*
X998371Y1152374D01*
X998230Y1152656D01*
X998089Y1152938D01*
X997948Y1153361D01*
Y1153502D01*
X997807Y1153784D01*
Y1154206D01*
X997666Y1154911D01*
Y1155052D01*
X997525Y1155616D01*
X997384Y1156321D01*
Y1158154D01*
X997525Y1158999D01*
X997666Y1159845D01*
Y1159986D01*
X997807Y1160409D01*
X997948Y1161537D01*
Y1161678D01*
X998089Y1161819D01*
X998371Y1162383D01*
X998512D01*
X998653D01*
X999217Y1162524D01*
X1067728D01*
Y1185079D01*
X1067869Y1185643D01*
X1068010Y1185925D01*
X1068574Y1186348D01*
X1068715D01*
X1068997Y1186489D01*
X1069420D01*
X1069984Y1186630D01*
X1070125D01*
X1070548D01*
X1071252Y1186771D01*
X1072098D01*
X1072239D01*
X1072803D01*
X1073367D01*
X1074072Y1186630D01*
D02*
G37*
G36*
X943562Y1138136D02*
X945817D01*
X948355Y1137995D01*
X951033Y1137713D01*
X953994Y1137290D01*
X956813Y1136867D01*
X956954D01*
X957095Y1136726D01*
X957518D01*
X958082Y1136585D01*
X959491Y1136303D01*
X961183Y1135739D01*
X963298Y1135176D01*
X965412Y1134330D01*
X967527Y1133343D01*
X969641Y1132215D01*
X969923Y1132074D01*
X970487Y1131651D01*
X971474Y1130805D01*
X972743Y1129819D01*
X974152Y1128550D01*
X975562Y1127140D01*
X976831Y1125449D01*
X978099Y1123475D01*
X978240Y1123193D01*
X978522Y1122488D01*
X979086Y1121360D01*
X979650Y1119810D01*
X980073Y1117977D01*
X980637Y1115722D01*
X980919Y1113184D01*
X981060Y1110365D01*
Y1109096D01*
X980919Y1107686D01*
X980778Y1105854D01*
X980355Y1103880D01*
X979932Y1101766D01*
X979227Y1099651D01*
X978381Y1097678D01*
X978240Y1097396D01*
X977817Y1096832D01*
X977254Y1095845D01*
X976408Y1094717D01*
X975280Y1093448D01*
X973870Y1092039D01*
X972320Y1090770D01*
X970487Y1089501D01*
X970205Y1089360D01*
X969641Y1088937D01*
X968513Y1088514D01*
X966963Y1087810D01*
X965130Y1087105D01*
X963016Y1086400D01*
X960478Y1085695D01*
X957800Y1085131D01*
X957659D01*
X957518D01*
X957095Y1084990D01*
X956531Y1084849D01*
X955826D01*
X954980Y1084708D01*
X952866Y1084426D01*
X950328Y1084144D01*
X947368Y1084003D01*
X944126Y1083721D01*
X940601D01*
X940460D01*
X940178D01*
X939756D01*
X939051D01*
X938346D01*
X937359Y1083862D01*
X935104D01*
X932566Y1084144D01*
X929888Y1084426D01*
X926927Y1084708D01*
X924108Y1085272D01*
X923967D01*
X923826D01*
X923403Y1085413D01*
X922839Y1085554D01*
X921429Y1085836D01*
X919738Y1086400D01*
X917623Y1087105D01*
X915509Y1087951D01*
X913253Y1088937D01*
X911139Y1090065D01*
X910857Y1090206D01*
X910293Y1090629D01*
X909306Y1091334D01*
X908037Y1092321D01*
X906769Y1093589D01*
X905359Y1094999D01*
X904090Y1096691D01*
X902821Y1098664D01*
X902680Y1098946D01*
X902398Y1099651D01*
X901976Y1100779D01*
X901412Y1102330D01*
X900848Y1104303D01*
X900425Y1106559D01*
X900143Y1109096D01*
X900002Y1111915D01*
Y1113184D01*
X900143Y1114594D01*
X900284Y1116286D01*
X900566Y1118259D01*
X901130Y1120374D01*
X901694Y1122488D01*
X902539Y1124462D01*
X902680Y1124744D01*
X903103Y1125308D01*
X903667Y1126294D01*
X904513Y1127422D01*
X905641Y1128691D01*
X906910Y1130101D01*
X908460Y1131369D01*
X910293Y1132638D01*
X910575Y1132779D01*
X911280Y1133202D01*
X912407Y1133625D01*
X913817Y1134330D01*
X915650Y1135035D01*
X917905Y1135739D01*
X920302Y1136444D01*
X922980Y1137008D01*
X923121D01*
X923262D01*
X923685Y1137149D01*
X924390D01*
X925095Y1137290D01*
X925940Y1137431D01*
X928055Y1137572D01*
X930593Y1137854D01*
X933553Y1138136D01*
X936795Y1138277D01*
X940319D01*
X940460D01*
X940742D01*
X941165D01*
X941870D01*
X942575D01*
X943562Y1138136D01*
D02*
G37*
G36*
X1073508Y1116286D02*
X1074636Y1116004D01*
X1075622Y1115299D01*
X1075763Y1115017D01*
X1076186Y1114453D01*
X1076468Y1113607D01*
X1076609Y1112620D01*
Y1074840D01*
X1076327Y1074276D01*
Y1074136D01*
X1076186Y1073995D01*
X1075481Y1073713D01*
X1075340D01*
X1075059Y1073572D01*
X1074636Y1073431D01*
X1074072Y1073290D01*
X1073931D01*
X1073508Y1073149D01*
X1072944Y1073008D01*
X1072098D01*
X1071957D01*
X1071393D01*
X1070829Y1073149D01*
X1070125Y1073290D01*
X1069984D01*
X1069702Y1073431D01*
X1068715Y1073713D01*
X1068433Y1073854D01*
X1068010Y1074276D01*
Y1074558D01*
X1067869Y1075122D01*
Y1105995D01*
X1043199D01*
Y1079351D01*
X1042917Y1078788D01*
Y1078647D01*
X1042776Y1078506D01*
X1042072Y1078083D01*
X1041931D01*
X1041790Y1077942D01*
X1041367Y1077801D01*
X1040803Y1077660D01*
X1040662D01*
X1040239Y1077519D01*
X1039534D01*
X1038688D01*
X1038547D01*
X1038124D01*
X1037561D01*
X1036856Y1077660D01*
X1036715D01*
X1036433Y1077801D01*
X1036010Y1077942D01*
X1035587Y1078083D01*
X1035305Y1078224D01*
X1034882Y1078788D01*
Y1079069D01*
X1034741Y1079633D01*
Y1105995D01*
X1006547D01*
Y1074558D01*
X1006265Y1073995D01*
Y1073854D01*
X1006124Y1073713D01*
X1005419Y1073290D01*
X1005278Y1073149D01*
X1005137Y1073008D01*
X1004715Y1072867D01*
X1004151Y1072726D01*
X1004010D01*
X1003587Y1072585D01*
X1002882D01*
X1002036D01*
X1001895D01*
X1001331D01*
X1000767D01*
X1000063Y1072726D01*
X999922D01*
X999640Y1072867D01*
X998794Y1073290D01*
X998653D01*
X998512Y1073431D01*
X997948Y1073995D01*
Y1074136D01*
X997807Y1074840D01*
Y1112902D01*
X997948Y1113466D01*
X998230Y1114312D01*
X998653Y1115299D01*
X998794Y1115440D01*
X999499Y1115863D01*
X1000485Y1116286D01*
X1002036Y1116427D01*
X1072239D01*
X1072380D01*
X1072662D01*
X1073508Y1116286D01*
D02*
G37*
G36*
X908319Y1072303D02*
X909306Y1072021D01*
X909447D01*
X909729Y1071880D01*
X910716Y1071316D01*
X910857Y1071175D01*
X911139Y1070893D01*
X911703Y1070470D01*
X912266Y1070047D01*
X928478Y1054259D01*
X928760Y1053977D01*
X929465Y1053413D01*
X930452Y1052285D01*
X931720Y1051157D01*
X933271Y1049748D01*
X934963Y1048197D01*
X936654Y1046787D01*
X938346Y1045519D01*
X938487Y1045378D01*
X939051Y1044955D01*
X940037Y1044391D01*
X941024Y1043545D01*
X942293Y1042840D01*
X943703Y1041994D01*
X945112Y1041149D01*
X946522Y1040444D01*
X946663Y1040303D01*
X947086Y1040162D01*
X947791Y1039880D01*
X948778Y1039457D01*
X950892Y1038611D01*
X953148Y1038047D01*
X953289D01*
X953712Y1037906D01*
X954275Y1037765D01*
X954980Y1037624D01*
X956813Y1037483D01*
X958786Y1037342D01*
X958927D01*
X959209D01*
X959773D01*
X960478Y1037483D01*
X962029Y1037765D01*
X963720Y1038329D01*
X963861D01*
X964143Y1038470D01*
X964566Y1038611D01*
X965130Y1038893D01*
X966399Y1039739D01*
X967809Y1040867D01*
X967950Y1041008D01*
X968091Y1041149D01*
X968795Y1041994D01*
X969782Y1043404D01*
X970628Y1045096D01*
Y1045237D01*
X970769Y1045519D01*
X971051Y1046082D01*
X971192Y1046787D01*
X971474Y1047633D01*
X971615Y1048620D01*
X971756Y1050875D01*
Y1052285D01*
X971615Y1053131D01*
X971474Y1054259D01*
X971333Y1055387D01*
X970628Y1057783D01*
Y1057924D01*
X970487Y1058347D01*
X970205Y1058911D01*
X969923Y1059616D01*
X969218Y1061307D01*
X968372Y1063140D01*
Y1063281D01*
X968231Y1063563D01*
X967950Y1063986D01*
X967668Y1064409D01*
X966822Y1065677D01*
X966117Y1066946D01*
X965976Y1067228D01*
X965694Y1067792D01*
X965271Y1068638D01*
X965130Y1069343D01*
Y1069624D01*
X965271Y1070188D01*
X965553Y1070329D01*
X966117Y1070752D01*
X966258D01*
X966540Y1070893D01*
X966963D01*
X967527Y1071034D01*
X967668D01*
X968231D01*
X968936D01*
X969782D01*
X969923D01*
X970346D01*
X971333D01*
X971474D01*
X971756D01*
X972461Y1070893D01*
X972602D01*
X972743Y1070752D01*
X973447Y1070470D01*
X973588D01*
X973729Y1070188D01*
X974011Y1069906D01*
X974434Y1069484D01*
X974575Y1069343D01*
X974998Y1068920D01*
X975562Y1068074D01*
X976267Y1066946D01*
Y1066805D01*
X976408Y1066664D01*
X976690Y1066241D01*
X976972Y1065677D01*
X977676Y1064268D01*
X978381Y1062435D01*
Y1062294D01*
X978522Y1061871D01*
X978804Y1061307D01*
X979086Y1060602D01*
X979368Y1059757D01*
X979650Y1058629D01*
X980214Y1056373D01*
Y1056232D01*
X980355Y1055809D01*
X980496Y1055105D01*
X980637Y1054259D01*
X980778Y1053272D01*
X980919Y1052144D01*
X981060Y1049607D01*
Y1048620D01*
X980919Y1047492D01*
Y1046223D01*
X980637Y1044673D01*
X980355Y1042981D01*
X979932Y1041290D01*
X979368Y1039598D01*
Y1039457D01*
X979086Y1038893D01*
X978663Y1038047D01*
X978240Y1037060D01*
X976831Y1034664D01*
X975985Y1033536D01*
X974998Y1032408D01*
X974857Y1032267D01*
X974434Y1031985D01*
X973870Y1031422D01*
X973165Y1030717D01*
X972179Y1030012D01*
X971051Y1029307D01*
X969782Y1028602D01*
X968372Y1028038D01*
X968231D01*
X967809Y1027756D01*
X966963Y1027615D01*
X965976Y1027333D01*
X964848Y1027052D01*
X963439Y1026911D01*
X960478Y1026629D01*
X960337D01*
X959914D01*
X959068D01*
X958223Y1026770D01*
X957095D01*
X955826Y1026911D01*
X953007Y1027333D01*
X952866D01*
X952302Y1027474D01*
X951597Y1027615D01*
X950610Y1027897D01*
X949342Y1028320D01*
X947932Y1028884D01*
X946381Y1029448D01*
X944830Y1030294D01*
X944689Y1030435D01*
X944126Y1030717D01*
X943280Y1031140D01*
X942011Y1031845D01*
X940601Y1032690D01*
X939051Y1033818D01*
X937218Y1035087D01*
X935245Y1036497D01*
X934963Y1036637D01*
X934258Y1037201D01*
X933130Y1038188D01*
X931720Y1039316D01*
X929888Y1041008D01*
X927773Y1042840D01*
X925518Y1044955D01*
X922980Y1047351D01*
X910011Y1059757D01*
Y1025219D01*
X909729Y1024655D01*
Y1024514D01*
X909588Y1024373D01*
X908883Y1023809D01*
X908742D01*
X908460Y1023668D01*
X908037Y1023527D01*
X907473Y1023386D01*
X907332D01*
X906910Y1023245D01*
X906346Y1023104D01*
X905500D01*
X905359D01*
X904936D01*
X904372Y1023245D01*
X903667Y1023386D01*
X903526D01*
X903103Y1023527D01*
X902117Y1023809D01*
X901976D01*
X901835Y1023950D01*
X901271Y1024514D01*
Y1024796D01*
X901130Y1025501D01*
Y1069624D01*
X901271Y1070611D01*
Y1070752D01*
X901412Y1070893D01*
X901976Y1071598D01*
X902117D01*
X902258Y1071880D01*
X902680Y1072021D01*
X903244Y1072303D01*
X903385D01*
X903949D01*
X904654Y1072444D01*
X905641D01*
X905923D01*
X906346D01*
X907051D01*
X907755D01*
X907896D01*
X908319Y1072303D01*
D02*
G37*
G36*
X1073508Y1055387D02*
X1074636Y1055105D01*
X1075622Y1054400D01*
X1075763Y1054118D01*
X1076186Y1053554D01*
X1076468Y1052708D01*
X1076609Y1051721D01*
Y1033254D01*
X1076468Y1031563D01*
X1076327Y1030012D01*
Y1029730D01*
X1076186Y1028743D01*
Y1027615D01*
X1076045Y1026347D01*
Y1026206D01*
X1075904Y1025642D01*
X1075763Y1024796D01*
X1075481Y1023668D01*
X1075059Y1022400D01*
X1074636Y1020990D01*
X1073508Y1018311D01*
X1073367Y1018170D01*
X1073226Y1017748D01*
X1072803Y1017043D01*
X1072380Y1016197D01*
X1070970Y1014364D01*
X1069138Y1012391D01*
X1068997Y1012250D01*
X1068715Y1011968D01*
X1068151Y1011545D01*
X1067446Y1010981D01*
X1066600Y1010417D01*
X1065614Y1009853D01*
X1063217Y1008866D01*
X1063076D01*
X1062653Y1008725D01*
X1061948Y1008443D01*
X1060962Y1008162D01*
X1059975Y1008021D01*
X1058706Y1007739D01*
X1055746Y1007598D01*
X1055605D01*
X1055041D01*
X1054336D01*
X1053349Y1007739D01*
X1052221Y1007880D01*
X1051094Y1008021D01*
X1048556Y1008725D01*
X1048415D01*
X1047992Y1008866D01*
X1047428Y1009148D01*
X1046724Y1009571D01*
X1044891Y1010558D01*
X1043058Y1011827D01*
X1042917Y1011968D01*
X1042635Y1012109D01*
X1042213Y1012532D01*
X1041649Y1013096D01*
X1040239Y1014646D01*
X1038829Y1016620D01*
Y1016761D01*
X1038547Y1017043D01*
X1038265Y1017748D01*
X1037842Y1018452D01*
X1037420Y1019439D01*
X1036997Y1020426D01*
X1036010Y1022963D01*
Y1022822D01*
X1035869Y1022681D01*
X1035305Y1021836D01*
X1034600Y1020708D01*
X1033754Y1019439D01*
Y1019298D01*
X1033472Y1019157D01*
X1032909Y1018452D01*
X1031922Y1017466D01*
X1030653Y1016479D01*
X1030512D01*
X1030371Y1016197D01*
X1029948Y1015915D01*
X1029384Y1015633D01*
X1028116Y1014787D01*
X1026424Y1013941D01*
X1026283D01*
X1026001Y1013659D01*
X1025578Y1013518D01*
X1024873Y1013096D01*
X1023182Y1012391D01*
X1021067Y1011404D01*
X1003728Y1004355D01*
X1003587D01*
X1003305Y1004214D01*
X1002459Y1003932D01*
X1001472Y1003510D01*
X1000626Y1003369D01*
X1000485D01*
X1000203Y1003228D01*
X999217Y1003087D01*
X998935D01*
X998371Y1003228D01*
X998230Y1003369D01*
X998089Y1003651D01*
X997807Y1004073D01*
Y1004214D01*
X997666Y1004496D01*
Y1005060D01*
X997525Y1005765D01*
Y1006470D01*
X997384Y1007316D01*
Y1010417D01*
X997525Y1011263D01*
Y1011404D01*
X997666Y1011827D01*
Y1012391D01*
X997807Y1012814D01*
Y1012955D01*
X997948Y1013096D01*
X998512Y1013800D01*
X998653D01*
X998935Y1013941D01*
X999781Y1014364D01*
X1018389Y1021554D01*
X1018530D01*
X1018952Y1021836D01*
X1019516Y1021977D01*
X1020362Y1022400D01*
X1022195Y1023245D01*
X1024168Y1024232D01*
X1024309D01*
X1024591Y1024514D01*
X1025155Y1024796D01*
X1025719Y1025219D01*
X1027270Y1026206D01*
X1028679Y1027615D01*
X1028820Y1027756D01*
X1028961Y1027897D01*
X1029384Y1028320D01*
X1029807Y1028884D01*
X1030794Y1030294D01*
X1031781Y1031985D01*
Y1032126D01*
X1031922Y1032408D01*
X1032204Y1032972D01*
X1032345Y1033677D01*
X1032627Y1034664D01*
X1032768Y1035651D01*
X1032909Y1038188D01*
Y1045096D01*
X999217D01*
X998935D01*
X998371Y1045378D01*
X998230Y1045660D01*
X998089Y1045942D01*
X997948Y1046364D01*
Y1046505D01*
X997807Y1046787D01*
Y1047210D01*
X997666Y1047915D01*
Y1048056D01*
X997525Y1048620D01*
X997384Y1049325D01*
Y1051157D01*
X997525Y1052003D01*
X997666Y1052849D01*
Y1052990D01*
X997807Y1053413D01*
X997948Y1054541D01*
Y1054682D01*
X998089Y1054823D01*
X998371Y1055387D01*
X998512D01*
X998653D01*
X999217Y1055527D01*
X1072239D01*
X1072380D01*
X1072662D01*
X1073508Y1055387D01*
D02*
G37*
G36*
X943562Y1011545D02*
X945817D01*
X948355Y1011404D01*
X951033Y1011122D01*
X953994Y1010699D01*
X956813Y1010276D01*
X956954D01*
X957095Y1010135D01*
X957518D01*
X958082Y1009994D01*
X959491Y1009712D01*
X961183Y1009148D01*
X963298Y1008584D01*
X965412Y1007739D01*
X967527Y1006752D01*
X969641Y1005624D01*
X969923Y1005483D01*
X970487Y1005060D01*
X971474Y1004214D01*
X972743Y1003228D01*
X974152Y1001959D01*
X975562Y1000549D01*
X976831Y998858D01*
X978099Y996884D01*
X978240Y996602D01*
X978522Y995897D01*
X979086Y994769D01*
X979650Y993219D01*
X980073Y991386D01*
X980637Y989131D01*
X980919Y986593D01*
X981060Y983774D01*
Y982505D01*
X980919Y981095D01*
X980778Y979263D01*
X980355Y977289D01*
X979932Y975175D01*
X979227Y973060D01*
X978381Y971086D01*
X978240Y970805D01*
X977817Y970241D01*
X977254Y969254D01*
X976408Y968126D01*
X975280Y966857D01*
X973870Y965448D01*
X972320Y964179D01*
X970487Y962910D01*
X970205Y962769D01*
X969641Y962346D01*
X968513Y961923D01*
X966963Y961219D01*
X965130Y960514D01*
X963016Y959809D01*
X960478Y959104D01*
X957800Y958540D01*
X957659D01*
X957518D01*
X957095Y958399D01*
X956531Y958258D01*
X955826D01*
X954980Y958117D01*
X952866Y957835D01*
X950328Y957553D01*
X947368Y957412D01*
X944126Y957130D01*
X940601D01*
X940460D01*
X940178D01*
X939756D01*
X939051D01*
X938346D01*
X937359Y957271D01*
X935104D01*
X932566Y957553D01*
X929888Y957835D01*
X926927Y958117D01*
X924108Y958681D01*
X923967D01*
X923826D01*
X923403Y958822D01*
X922839Y958963D01*
X921429Y959245D01*
X919738Y959809D01*
X917623Y960514D01*
X915509Y961360D01*
X913253Y962346D01*
X911139Y963474D01*
X910857Y963615D01*
X910293Y964038D01*
X909306Y964743D01*
X908037Y965730D01*
X906769Y966998D01*
X905359Y968408D01*
X904090Y970100D01*
X902821Y972073D01*
X902680Y972355D01*
X902398Y973060D01*
X901976Y974188D01*
X901412Y975738D01*
X900848Y977712D01*
X900425Y979968D01*
X900143Y982505D01*
X900002Y985324D01*
Y986593D01*
X900143Y988003D01*
X900284Y989694D01*
X900566Y991668D01*
X901130Y993783D01*
X901694Y995897D01*
X902539Y997871D01*
X902680Y998153D01*
X903103Y998717D01*
X903667Y999703D01*
X904513Y1000831D01*
X905641Y1002100D01*
X906910Y1003510D01*
X908460Y1004778D01*
X910293Y1006047D01*
X910575Y1006188D01*
X911280Y1006611D01*
X912407Y1007034D01*
X913817Y1007739D01*
X915650Y1008443D01*
X917905Y1009148D01*
X920302Y1009853D01*
X922980Y1010417D01*
X923121D01*
X923262D01*
X923685Y1010558D01*
X924390D01*
X925095Y1010699D01*
X925940Y1010840D01*
X928055Y1010981D01*
X930593Y1011263D01*
X933553Y1011545D01*
X936795Y1011686D01*
X940319D01*
X940460D01*
X940742D01*
X941165D01*
X941870D01*
X942575D01*
X943562Y1011545D01*
D02*
G37*
G36*
X1073508Y987580D02*
X1074636Y987298D01*
X1075622Y986593D01*
X1075763Y986311D01*
X1076186Y985747D01*
X1076468Y984902D01*
X1076609Y983915D01*
Y948108D01*
X1076327Y947685D01*
Y947544D01*
X1076186Y947403D01*
X1075481Y946981D01*
X1075340Y946840D01*
X1075059Y946699D01*
X1074636Y946558D01*
X1074072Y946417D01*
X1073931D01*
X1073508Y946276D01*
X1072944D01*
X1072098D01*
X1071957D01*
X1071393D01*
X1070688D01*
X1069984Y946417D01*
X1069843D01*
X1069561Y946558D01*
X1068574Y946981D01*
X1068292Y947122D01*
X1067869Y947685D01*
Y947826D01*
X1067728Y948390D01*
Y977289D01*
X1040944D01*
Y949659D01*
X1040662Y949236D01*
Y949095D01*
X1040521Y948954D01*
X1039957Y948531D01*
X1039816Y948390D01*
X1039675Y948249D01*
X1039252Y948108D01*
X1038688D01*
X1038547D01*
X1038124Y947967D01*
X1037420D01*
X1036574D01*
X1036433D01*
X1035869D01*
X1035164D01*
X1034459Y948108D01*
X1034318D01*
X1034036D01*
X1033613Y948249D01*
X1033190Y948531D01*
X1033049D01*
X1032909Y948672D01*
X1032345Y949236D01*
Y949377D01*
X1032204Y949941D01*
Y977289D01*
X999217D01*
X998935D01*
X998371Y977571D01*
X998230Y977853D01*
X998089Y978135D01*
X997948Y978558D01*
Y978699D01*
X997807Y978981D01*
Y979404D01*
X997666Y980109D01*
Y980250D01*
X997525Y980672D01*
X997384Y981518D01*
Y983351D01*
X997525Y984197D01*
X997666Y985042D01*
Y985183D01*
X997807Y985606D01*
X997948Y986734D01*
Y986875D01*
X998089Y987016D01*
X998371Y987580D01*
X998512D01*
X998653D01*
X999217Y987721D01*
X1072239D01*
X1072380D01*
X1072662D01*
X1073508Y987580D01*
D02*
G37*
G36*
X908319Y917518D02*
X909306Y917236D01*
X909447D01*
X909729Y917095D01*
X910716Y916531D01*
X910857Y916390D01*
X911139Y916108D01*
X911703Y915685D01*
X912266Y915262D01*
X928478Y899474D01*
X928760Y899192D01*
X929465Y898628D01*
X930452Y897500D01*
X931720Y896372D01*
X933271Y894963D01*
X934963Y893412D01*
X936654Y892002D01*
X938346Y890734D01*
X938487Y890593D01*
X939051Y890170D01*
X940037Y889606D01*
X941024Y888760D01*
X942293Y888055D01*
X943703Y887209D01*
X945112Y886363D01*
X946522Y885659D01*
X946663Y885518D01*
X947086Y885377D01*
X947791Y885095D01*
X948778Y884672D01*
X950892Y883826D01*
X953148Y883262D01*
X953289D01*
X953712Y883121D01*
X954275Y882980D01*
X954980Y882839D01*
X956813Y882698D01*
X958786Y882557D01*
X958927D01*
X959209D01*
X959773D01*
X960478Y882698D01*
X962029Y882980D01*
X963720Y883544D01*
X963861D01*
X964143Y883685D01*
X964566Y883826D01*
X965130Y884108D01*
X966399Y884954D01*
X967809Y886082D01*
X967950Y886223D01*
X968091Y886363D01*
X968795Y887209D01*
X969782Y888619D01*
X970628Y890311D01*
Y890452D01*
X970769Y890734D01*
X971051Y891297D01*
X971192Y892002D01*
X971474Y892848D01*
X971615Y893835D01*
X971756Y896090D01*
Y897500D01*
X971615Y898346D01*
X971474Y899474D01*
X971333Y900601D01*
X970628Y902998D01*
Y903139D01*
X970487Y903562D01*
X970205Y904126D01*
X969923Y904831D01*
X969218Y906522D01*
X968372Y908355D01*
Y908496D01*
X968231Y908778D01*
X967950Y909201D01*
X967668Y909624D01*
X966822Y910892D01*
X966117Y912161D01*
X965976Y912443D01*
X965694Y913007D01*
X965271Y913853D01*
X965130Y914557D01*
Y914839D01*
X965271Y915403D01*
X965553Y915544D01*
X966117Y915967D01*
X966258D01*
X966540Y916108D01*
X966963D01*
X967527Y916249D01*
X967668D01*
X968231D01*
X968936D01*
X969782D01*
X969923D01*
X970346D01*
X971333D01*
X971474D01*
X971756D01*
X972461Y916108D01*
X972602D01*
X972743Y915967D01*
X973447Y915685D01*
X973588D01*
X973729Y915403D01*
X974011Y915121D01*
X974434Y914698D01*
X974575Y914557D01*
X974998Y914135D01*
X975562Y913289D01*
X976267Y912161D01*
Y912020D01*
X976408Y911879D01*
X976690Y911456D01*
X976972Y910892D01*
X977676Y909483D01*
X978381Y907650D01*
Y907509D01*
X978522Y907086D01*
X978804Y906522D01*
X979086Y905817D01*
X979368Y904972D01*
X979650Y903844D01*
X980214Y901588D01*
Y901447D01*
X980355Y901024D01*
X980496Y900320D01*
X980637Y899474D01*
X980778Y898487D01*
X980919Y897359D01*
X981060Y894822D01*
Y893835D01*
X980919Y892707D01*
Y891438D01*
X980637Y889888D01*
X980355Y888196D01*
X979932Y886504D01*
X979368Y884813D01*
Y884672D01*
X979086Y884108D01*
X978663Y883262D01*
X978240Y882275D01*
X976831Y879879D01*
X975985Y878751D01*
X974998Y877623D01*
X974857Y877482D01*
X974434Y877200D01*
X973870Y876637D01*
X973165Y875932D01*
X972179Y875227D01*
X971051Y874522D01*
X969782Y873817D01*
X968372Y873253D01*
X968231D01*
X967809Y872971D01*
X966963Y872830D01*
X965976Y872548D01*
X964848Y872266D01*
X963439Y872126D01*
X960478Y871844D01*
X960337D01*
X959914D01*
X959068D01*
X958223Y871985D01*
X957095D01*
X955826Y872126D01*
X953007Y872548D01*
X952866D01*
X952302Y872689D01*
X951597Y872830D01*
X950610Y873112D01*
X949342Y873535D01*
X947932Y874099D01*
X946381Y874663D01*
X944830Y875509D01*
X944689Y875650D01*
X944126Y875932D01*
X943280Y876355D01*
X942011Y877059D01*
X940601Y877905D01*
X939051Y879033D01*
X937218Y880302D01*
X935245Y881711D01*
X934963Y881852D01*
X934258Y882416D01*
X933130Y883403D01*
X931720Y884531D01*
X929888Y886223D01*
X927773Y888055D01*
X925518Y890170D01*
X922980Y892566D01*
X910011Y904972D01*
Y870434D01*
X909729Y869870D01*
Y869729D01*
X909588Y869588D01*
X908883Y869024D01*
X908742D01*
X908460Y868883D01*
X908037Y868742D01*
X907473Y868601D01*
X907332D01*
X906910Y868460D01*
X906346Y868319D01*
X905500D01*
X905359D01*
X904936D01*
X904372Y868460D01*
X903667Y868601D01*
X903526D01*
X903103Y868742D01*
X902117Y869024D01*
X901976D01*
X901835Y869165D01*
X901271Y869729D01*
Y870011D01*
X901130Y870716D01*
Y914839D01*
X901271Y915826D01*
Y915967D01*
X901412Y916108D01*
X901976Y916813D01*
X902117D01*
X902258Y917095D01*
X902680Y917236D01*
X903244Y917518D01*
X903385D01*
X903949D01*
X904654Y917659D01*
X905641D01*
X905923D01*
X906346D01*
X907051D01*
X907755D01*
X907896D01*
X908319Y917518D01*
D02*
G37*
G36*
X999781Y938522D02*
X1000485Y938381D01*
X1001472Y938099D01*
X1074777Y911738D01*
X1074918D01*
X1075200Y911597D01*
X1075904Y911174D01*
X1076045Y911033D01*
X1076186Y910892D01*
X1076468Y910046D01*
Y909905D01*
X1076609Y909483D01*
X1076750Y908919D01*
X1076891Y908073D01*
Y907791D01*
X1077032Y907227D01*
Y902716D01*
X1076891Y901729D01*
Y901447D01*
X1076750Y901024D01*
X1076609Y900320D01*
X1076468Y899756D01*
Y899615D01*
X1076327Y899333D01*
X1076186Y898910D01*
X1075763Y898487D01*
Y898346D01*
X1075481Y898205D01*
X1074777Y897782D01*
X1001472Y871280D01*
X1001190Y871139D01*
X1000626Y870998D01*
X999922Y870857D01*
X999217D01*
X999076D01*
X998794D01*
X998371Y870998D01*
X997948Y871280D01*
Y871421D01*
X997807Y871562D01*
X997666Y872126D01*
X997525Y872830D01*
Y873676D01*
X997384Y874663D01*
Y877905D01*
X997525Y878892D01*
Y879033D01*
X997666Y879456D01*
Y880020D01*
X997807Y880584D01*
Y880725D01*
X997948Y880866D01*
X998230Y881430D01*
X998371D01*
X998512Y881570D01*
X999217Y881993D01*
X1018530Y888760D01*
Y921606D01*
X999499Y927950D01*
X999358D01*
X999217Y928091D01*
X998512Y928514D01*
X998230Y928654D01*
X997807Y929359D01*
Y929500D01*
X997666Y929782D01*
Y930346D01*
X997525Y931051D01*
Y931756D01*
X997384Y932602D01*
Y934716D01*
X997525Y935703D01*
X997666Y936690D01*
Y936831D01*
X997807Y937254D01*
X997948Y937818D01*
X998089Y938240D01*
X998230D01*
X998371Y938381D01*
X998794Y938522D01*
X999217Y938663D01*
X999358D01*
X999781Y938522D01*
D02*
G37*
G36*
X1038688Y862540D02*
X1039675D01*
X1041931Y862399D01*
X1044609Y862117D01*
X1047569Y861694D01*
X1050530Y861130D01*
X1053490Y860284D01*
X1053631D01*
X1053772Y860143D01*
X1054195Y860002D01*
X1054759Y859861D01*
X1056169Y859297D01*
X1058001Y858451D01*
X1060116Y857465D01*
X1062230Y856196D01*
X1064486Y854786D01*
X1066600Y853236D01*
X1066882Y852954D01*
X1067446Y852390D01*
X1068433Y851403D01*
X1069702Y850134D01*
X1070970Y848443D01*
X1072380Y846610D01*
X1073649Y844495D01*
X1074777Y842240D01*
Y842099D01*
X1074918Y841958D01*
X1075200Y841112D01*
X1075622Y839843D01*
X1076186Y838011D01*
X1076750Y835896D01*
X1077173Y833500D01*
X1077455Y830821D01*
X1077596Y828002D01*
Y826733D01*
X1077455Y825887D01*
Y824901D01*
X1077314Y823773D01*
X1076891Y821376D01*
Y821235D01*
X1076750Y820812D01*
X1076609Y820249D01*
X1076468Y819403D01*
X1075904Y817570D01*
X1075200Y815456D01*
Y815315D01*
X1075059Y815033D01*
X1074777Y814469D01*
X1074495Y813764D01*
X1073790Y812213D01*
X1072944Y810522D01*
Y810381D01*
X1072803Y810240D01*
X1072239Y809394D01*
X1071534Y808407D01*
X1070829Y807561D01*
X1070688Y807420D01*
X1070407Y807138D01*
X1069984Y806715D01*
X1069561Y806574D01*
X1069279Y806433D01*
X1068574Y806152D01*
X1068433D01*
X1068151Y806011D01*
X1067728D01*
X1067164Y805870D01*
X1067023D01*
X1066741Y805729D01*
X1066036D01*
X1065332D01*
X1065191D01*
X1064627D01*
X1064063D01*
X1063358Y805870D01*
X1063217D01*
X1062794Y806011D01*
X1061807Y806293D01*
X1061666D01*
X1061525Y806433D01*
X1060962Y806856D01*
Y806997D01*
X1060821Y807702D01*
Y807843D01*
X1060962Y808266D01*
X1061243Y809112D01*
X1061948Y810099D01*
X1062089Y810381D01*
X1062653Y811226D01*
X1063499Y812354D01*
X1064486Y814046D01*
X1064627Y814187D01*
X1064768Y814469D01*
X1065050Y815033D01*
X1065473Y815738D01*
X1065896Y816583D01*
X1066318Y817570D01*
X1067164Y819967D01*
Y820108D01*
X1067305Y820530D01*
X1067587Y821235D01*
X1067869Y822222D01*
X1068010Y823491D01*
X1068292Y824901D01*
X1068433Y826451D01*
Y829130D01*
X1068292Y830116D01*
X1068151Y831385D01*
X1067869Y832936D01*
X1067587Y834487D01*
X1067023Y836178D01*
X1066318Y837870D01*
X1066177Y838011D01*
X1065896Y838575D01*
X1065473Y839420D01*
X1064768Y840407D01*
X1063922Y841535D01*
X1062794Y842804D01*
X1061525Y843932D01*
X1060116Y845200D01*
X1059975Y845341D01*
X1059411Y845764D01*
X1058565Y846328D01*
X1057296Y846892D01*
X1055887Y847738D01*
X1054195Y848584D01*
X1052221Y849288D01*
X1050107Y849993D01*
X1049825D01*
X1049120Y850275D01*
X1047851Y850416D01*
X1046301Y850698D01*
X1044327Y850980D01*
X1042072Y851262D01*
X1039534Y851403D01*
X1036715Y851544D01*
X1036574D01*
X1036433D01*
X1036010D01*
X1035446D01*
X1034036Y851403D01*
X1032204D01*
X1030230Y851121D01*
X1027975Y850839D01*
X1025719Y850557D01*
X1023464Y849993D01*
X1023182Y849852D01*
X1022477Y849711D01*
X1021490Y849288D01*
X1020080Y848724D01*
X1018530Y848161D01*
X1016979Y847315D01*
X1015428Y846328D01*
X1013878Y845341D01*
X1013737Y845200D01*
X1013314Y844777D01*
X1012609Y844072D01*
X1011763Y843227D01*
X1010776Y842099D01*
X1009789Y840830D01*
X1008944Y839420D01*
X1008098Y837870D01*
X1007957Y837729D01*
X1007816Y837024D01*
X1007534Y836178D01*
X1007111Y834909D01*
X1006688Y833500D01*
X1006406Y831808D01*
X1006265Y829975D01*
X1006124Y827861D01*
Y826169D01*
X1006265Y825042D01*
X1006406Y823773D01*
X1006547Y822504D01*
X1007252Y819685D01*
Y819544D01*
X1007393Y819121D01*
X1007675Y818416D01*
X1007957Y817570D01*
X1008803Y815738D01*
X1009789Y813764D01*
Y813623D01*
X1010071Y813341D01*
X1010353Y812918D01*
X1010635Y812354D01*
X1011481Y810945D01*
X1012327Y809676D01*
Y809535D01*
X1012468Y809394D01*
X1013032Y808689D01*
X1013455Y807843D01*
X1013596Y807138D01*
Y806856D01*
X1013314Y806433D01*
Y806293D01*
X1013173Y806152D01*
X1013032Y806011D01*
X1012609Y805870D01*
X1012468D01*
X1012327Y805729D01*
X1011904D01*
X1011199Y805588D01*
X1011058D01*
X1010635Y805447D01*
X1009930D01*
X1008944D01*
X1008803D01*
X1008380D01*
X1007816D01*
X1007111Y805588D01*
X1006970D01*
X1006688D01*
X1005842Y805870D01*
X1005560Y806011D01*
X1004996Y806293D01*
X1004855D01*
X1004715Y806433D01*
X1004292Y806715D01*
X1003869Y807138D01*
X1003728Y807279D01*
X1003446Y807702D01*
X1002882Y808407D01*
X1002036Y809676D01*
Y809817D01*
X1001754Y809958D01*
X1001613Y810381D01*
X1001190Y810945D01*
X1000485Y812495D01*
X999499Y814469D01*
Y814610D01*
X999358Y815033D01*
X999076Y815597D01*
X998794Y816301D01*
X998512Y817288D01*
X998230Y818416D01*
X997666Y821094D01*
Y821235D01*
X997525Y821799D01*
X997384Y822504D01*
X997243Y823491D01*
X997102Y824760D01*
X996961Y826169D01*
X996820Y829271D01*
Y830539D01*
X996961Y832090D01*
X997102Y833923D01*
X997384Y836037D01*
X997948Y838434D01*
X998512Y840830D01*
X999358Y843227D01*
X999499Y843509D01*
X999781Y844213D01*
X1000485Y845341D01*
X1001190Y846751D01*
X1002318Y848443D01*
X1003587Y850134D01*
X1005137Y851967D01*
X1006829Y853658D01*
X1007111Y853799D01*
X1007675Y854363D01*
X1008803Y855209D01*
X1010353Y856196D01*
X1012045Y857183D01*
X1014160Y858310D01*
X1016556Y859438D01*
X1019234Y860425D01*
X1019375D01*
X1019516Y860566D01*
X1019939D01*
X1020503Y860707D01*
X1021208Y860989D01*
X1022054Y861130D01*
X1024168Y861553D01*
X1026565Y861976D01*
X1029525Y862258D01*
X1032627Y862540D01*
X1036151Y862681D01*
X1036292D01*
X1036574D01*
X1037138D01*
X1037842D01*
X1038688Y862540D01*
D02*
G37*
G36*
X943562Y856760D02*
X945817D01*
X948355Y856619D01*
X951033Y856337D01*
X953994Y855914D01*
X956813Y855491D01*
X956954D01*
X957095Y855350D01*
X957518D01*
X958082Y855209D01*
X959491Y854927D01*
X961183Y854363D01*
X963298Y853799D01*
X965412Y852954D01*
X967527Y851967D01*
X969641Y850839D01*
X969923Y850698D01*
X970487Y850275D01*
X971474Y849429D01*
X972743Y848443D01*
X974152Y847174D01*
X975562Y845764D01*
X976831Y844072D01*
X978099Y842099D01*
X978240Y841817D01*
X978522Y841112D01*
X979086Y839984D01*
X979650Y838434D01*
X980073Y836601D01*
X980637Y834346D01*
X980919Y831808D01*
X981060Y828989D01*
Y827720D01*
X980919Y826310D01*
X980778Y824478D01*
X980355Y822504D01*
X979932Y820390D01*
X979227Y818275D01*
X978381Y816301D01*
X978240Y816019D01*
X977817Y815456D01*
X977254Y814469D01*
X976408Y813341D01*
X975280Y812072D01*
X973870Y810663D01*
X972320Y809394D01*
X970487Y808125D01*
X970205Y807984D01*
X969641Y807561D01*
X968513Y807138D01*
X966963Y806433D01*
X965130Y805729D01*
X963016Y805024D01*
X960478Y804319D01*
X957800Y803755D01*
X957659D01*
X957518D01*
X957095Y803614D01*
X956531Y803473D01*
X955826D01*
X954980Y803332D01*
X952866Y803050D01*
X950328Y802768D01*
X947368Y802627D01*
X944126Y802345D01*
X940601D01*
X940460D01*
X940178D01*
X939756D01*
X939051D01*
X938346D01*
X937359Y802486D01*
X935104D01*
X932566Y802768D01*
X929888Y803050D01*
X926927Y803332D01*
X924108Y803896D01*
X923967D01*
X923826D01*
X923403Y804037D01*
X922839Y804178D01*
X921429Y804460D01*
X919738Y805024D01*
X917623Y805729D01*
X915509Y806574D01*
X913253Y807561D01*
X911139Y808689D01*
X910857Y808830D01*
X910293Y809253D01*
X909306Y809958D01*
X908037Y810945D01*
X906769Y812213D01*
X905359Y813623D01*
X904090Y815315D01*
X902821Y817288D01*
X902680Y817570D01*
X902398Y818275D01*
X901976Y819403D01*
X901412Y820953D01*
X900848Y822927D01*
X900425Y825183D01*
X900143Y827720D01*
X900002Y830539D01*
Y831808D01*
X900143Y833218D01*
X900284Y834909D01*
X900566Y836883D01*
X901130Y838998D01*
X901694Y841112D01*
X902539Y843086D01*
X902680Y843368D01*
X903103Y843932D01*
X903667Y844918D01*
X904513Y846046D01*
X905641Y847315D01*
X906910Y848724D01*
X908460Y849993D01*
X910293Y851262D01*
X910575Y851403D01*
X911280Y851826D01*
X912407Y852249D01*
X913817Y852954D01*
X915650Y853658D01*
X917905Y854363D01*
X920302Y855068D01*
X922980Y855632D01*
X923121D01*
X923262D01*
X923685Y855773D01*
X924390D01*
X925095Y855914D01*
X925940Y856055D01*
X928055Y856196D01*
X930593Y856478D01*
X933553Y856760D01*
X936795Y856901D01*
X940319D01*
X940460D01*
X940742D01*
X941165D01*
X941870D01*
X942575D01*
X943562Y856760D01*
D02*
G37*
G36*
X1073508Y791491D02*
X1074636Y791209D01*
X1075622Y790504D01*
X1075763Y790222D01*
X1076186Y789658D01*
X1076468Y788812D01*
X1076609Y787825D01*
Y750045D01*
X1076327Y749482D01*
Y749341D01*
X1076186Y749200D01*
X1075481Y748918D01*
X1075340D01*
X1075059Y748777D01*
X1074636Y748636D01*
X1074072Y748495D01*
X1073931D01*
X1073508Y748354D01*
X1072944Y748213D01*
X1072098D01*
X1071957D01*
X1071393D01*
X1070829Y748354D01*
X1070125Y748495D01*
X1069984D01*
X1069702Y748636D01*
X1068715Y748918D01*
X1068433Y749059D01*
X1068010Y749482D01*
Y749764D01*
X1067869Y750327D01*
Y781200D01*
X1043199D01*
Y754557D01*
X1042917Y753993D01*
Y753852D01*
X1042776Y753711D01*
X1042072Y753288D01*
X1041931D01*
X1041790Y753147D01*
X1041367Y753006D01*
X1040803Y752865D01*
X1040662D01*
X1040239Y752724D01*
X1039534D01*
X1038688D01*
X1038547D01*
X1038124D01*
X1037561D01*
X1036856Y752865D01*
X1036715D01*
X1036433Y753006D01*
X1036010Y753147D01*
X1035587Y753288D01*
X1035305Y753429D01*
X1034882Y753993D01*
Y754275D01*
X1034741Y754838D01*
Y781200D01*
X1006547D01*
Y749764D01*
X1006265Y749200D01*
Y749059D01*
X1006124Y748918D01*
X1005419Y748495D01*
X1005278Y748354D01*
X1005137Y748213D01*
X1004715Y748072D01*
X1004151Y747931D01*
X1004010D01*
X1003587Y747790D01*
X1002882D01*
X1002036D01*
X1001895D01*
X1001331D01*
X1000767D01*
X1000063Y747931D01*
X999922D01*
X999640Y748072D01*
X998794Y748495D01*
X998653D01*
X998512Y748636D01*
X997948Y749200D01*
Y749341D01*
X997807Y750045D01*
Y788107D01*
X997948Y788671D01*
X998230Y789517D01*
X998653Y790504D01*
X998794Y790645D01*
X999499Y791068D01*
X1000485Y791491D01*
X1002036Y791632D01*
X1072239D01*
X1072380D01*
X1072662D01*
X1073508Y791491D01*
D02*
G37*
G36*
X908319Y790927D02*
X909306Y790645D01*
X909447D01*
X909729Y790504D01*
X910716Y789940D01*
X910857Y789799D01*
X911139Y789517D01*
X911703Y789094D01*
X912266Y788671D01*
X928478Y772883D01*
X928760Y772601D01*
X929465Y772037D01*
X930452Y770909D01*
X931720Y769781D01*
X933271Y768372D01*
X934963Y766821D01*
X936654Y765411D01*
X938346Y764142D01*
X938487Y764002D01*
X939051Y763579D01*
X940037Y763015D01*
X941024Y762169D01*
X942293Y761464D01*
X943703Y760618D01*
X945112Y759772D01*
X946522Y759068D01*
X946663Y758927D01*
X947086Y758786D01*
X947791Y758504D01*
X948778Y758081D01*
X950892Y757235D01*
X953148Y756671D01*
X953289D01*
X953712Y756530D01*
X954275Y756389D01*
X954980Y756248D01*
X956813Y756107D01*
X958786Y755966D01*
X958927D01*
X959209D01*
X959773D01*
X960478Y756107D01*
X962029Y756389D01*
X963720Y756953D01*
X963861D01*
X964143Y757094D01*
X964566Y757235D01*
X965130Y757517D01*
X966399Y758363D01*
X967809Y759490D01*
X967950Y759631D01*
X968091Y759772D01*
X968795Y760618D01*
X969782Y762028D01*
X970628Y763720D01*
Y763861D01*
X970769Y764142D01*
X971051Y764706D01*
X971192Y765411D01*
X971474Y766257D01*
X971615Y767244D01*
X971756Y769499D01*
Y770909D01*
X971615Y771755D01*
X971474Y772883D01*
X971333Y774010D01*
X970628Y776407D01*
Y776548D01*
X970487Y776971D01*
X970205Y777535D01*
X969923Y778239D01*
X969218Y779931D01*
X968372Y781764D01*
Y781905D01*
X968231Y782187D01*
X967950Y782610D01*
X967668Y783032D01*
X966822Y784301D01*
X966117Y785570D01*
X965976Y785852D01*
X965694Y786416D01*
X965271Y787262D01*
X965130Y787966D01*
Y788248D01*
X965271Y788812D01*
X965553Y788953D01*
X966117Y789376D01*
X966258D01*
X966540Y789517D01*
X966963D01*
X967527Y789658D01*
X967668D01*
X968231D01*
X968936D01*
X969782D01*
X969923D01*
X970346D01*
X971333D01*
X971474D01*
X971756D01*
X972461Y789517D01*
X972602D01*
X972743Y789376D01*
X973447Y789094D01*
X973588D01*
X973729Y788812D01*
X974011Y788530D01*
X974434Y788107D01*
X974575Y787966D01*
X974998Y787544D01*
X975562Y786698D01*
X976267Y785570D01*
Y785429D01*
X976408Y785288D01*
X976690Y784865D01*
X976972Y784301D01*
X977676Y782891D01*
X978381Y781059D01*
Y780918D01*
X978522Y780495D01*
X978804Y779931D01*
X979086Y779226D01*
X979368Y778380D01*
X979650Y777253D01*
X980214Y774997D01*
Y774856D01*
X980355Y774433D01*
X980496Y773728D01*
X980637Y772883D01*
X980778Y771896D01*
X980919Y770768D01*
X981060Y768231D01*
Y767244D01*
X980919Y766116D01*
Y764847D01*
X980637Y763297D01*
X980355Y761605D01*
X979932Y759913D01*
X979368Y758222D01*
Y758081D01*
X979086Y757517D01*
X978663Y756671D01*
X978240Y755684D01*
X976831Y753288D01*
X975985Y752160D01*
X974998Y751032D01*
X974857Y750891D01*
X974434Y750609D01*
X973870Y750045D01*
X973165Y749341D01*
X972179Y748636D01*
X971051Y747931D01*
X969782Y747226D01*
X968372Y746662D01*
X968231D01*
X967809Y746380D01*
X966963Y746239D01*
X965976Y745957D01*
X964848Y745675D01*
X963439Y745534D01*
X960478Y745253D01*
X960337D01*
X959914D01*
X959068D01*
X958223Y745393D01*
X957095D01*
X955826Y745534D01*
X953007Y745957D01*
X952866D01*
X952302Y746098D01*
X951597Y746239D01*
X950610Y746521D01*
X949342Y746944D01*
X947932Y747508D01*
X946381Y748072D01*
X944830Y748918D01*
X944689Y749059D01*
X944126Y749341D01*
X943280Y749764D01*
X942011Y750468D01*
X940601Y751314D01*
X939051Y752442D01*
X937218Y753711D01*
X935245Y755120D01*
X934963Y755261D01*
X934258Y755825D01*
X933130Y756812D01*
X931720Y757940D01*
X929888Y759631D01*
X927773Y761464D01*
X925518Y763579D01*
X922980Y765975D01*
X910011Y778380D01*
Y743843D01*
X909729Y743279D01*
Y743138D01*
X909588Y742997D01*
X908883Y742433D01*
X908742D01*
X908460Y742292D01*
X908037Y742151D01*
X907473Y742010D01*
X907332D01*
X906910Y741869D01*
X906346Y741728D01*
X905500D01*
X905359D01*
X904936D01*
X904372Y741869D01*
X903667Y742010D01*
X903526D01*
X903103Y742151D01*
X902117Y742433D01*
X901976D01*
X901835Y742574D01*
X901271Y743138D01*
Y743420D01*
X901130Y744125D01*
Y788248D01*
X901271Y789235D01*
Y789376D01*
X901412Y789517D01*
X901976Y790222D01*
X902117D01*
X902258Y790504D01*
X902680Y790645D01*
X903244Y790927D01*
X903385D01*
X903949D01*
X904654Y791068D01*
X905641D01*
X905923D01*
X906346D01*
X907051D01*
X907755D01*
X907896D01*
X908319Y790927D01*
D02*
G37*
G36*
Y727631D02*
X909306Y727349D01*
X909447D01*
X909729Y727208D01*
X910716Y726644D01*
X910857Y726503D01*
X911139Y726222D01*
X911703Y725799D01*
X912266Y725376D01*
X928478Y709587D01*
X928760Y709305D01*
X929465Y708741D01*
X930452Y707614D01*
X931720Y706486D01*
X933271Y705076D01*
X934963Y703525D01*
X936654Y702116D01*
X938346Y700847D01*
X938487Y700706D01*
X939051Y700283D01*
X940037Y699719D01*
X941024Y698873D01*
X942293Y698169D01*
X943703Y697323D01*
X945112Y696477D01*
X946522Y695772D01*
X946663Y695631D01*
X947086Y695490D01*
X947791Y695208D01*
X948778Y694785D01*
X950892Y693939D01*
X953148Y693376D01*
X953289D01*
X953712Y693235D01*
X954275Y693094D01*
X954980Y692953D01*
X956813Y692812D01*
X958786Y692671D01*
X958927D01*
X959209D01*
X959773D01*
X960478Y692812D01*
X962029Y693094D01*
X963720Y693657D01*
X963861D01*
X964143Y693798D01*
X964566Y693939D01*
X965130Y694221D01*
X966399Y695067D01*
X967809Y696195D01*
X967950Y696336D01*
X968091Y696477D01*
X968795Y697323D01*
X969782Y698732D01*
X970628Y700424D01*
Y700565D01*
X970769Y700847D01*
X971051Y701411D01*
X971192Y702116D01*
X971474Y702962D01*
X971615Y703948D01*
X971756Y706204D01*
Y707614D01*
X971615Y708459D01*
X971474Y709587D01*
X971333Y710715D01*
X970628Y713111D01*
Y713252D01*
X970487Y713675D01*
X970205Y714239D01*
X969923Y714944D01*
X969218Y716636D01*
X968372Y718468D01*
Y718609D01*
X968231Y718891D01*
X967950Y719314D01*
X967668Y719737D01*
X966822Y721006D01*
X966117Y722274D01*
X965976Y722556D01*
X965694Y723120D01*
X965271Y723966D01*
X965130Y724671D01*
Y724953D01*
X965271Y725517D01*
X965553Y725658D01*
X966117Y726081D01*
X966258D01*
X966540Y726222D01*
X966963D01*
X967527Y726363D01*
X967668D01*
X968231D01*
X968936D01*
X969782D01*
X969923D01*
X970346D01*
X971333D01*
X971474D01*
X971756D01*
X972461Y726222D01*
X972602D01*
X972743Y726081D01*
X973447Y725799D01*
X973588D01*
X973729Y725517D01*
X974011Y725235D01*
X974434Y724812D01*
X974575Y724671D01*
X974998Y724248D01*
X975562Y723402D01*
X976267Y722274D01*
Y722133D01*
X976408Y721992D01*
X976690Y721570D01*
X976972Y721006D01*
X977676Y719596D01*
X978381Y717763D01*
Y717622D01*
X978522Y717199D01*
X978804Y716636D01*
X979086Y715931D01*
X979368Y715085D01*
X979650Y713957D01*
X980214Y711702D01*
Y711561D01*
X980355Y711138D01*
X980496Y710433D01*
X980637Y709587D01*
X980778Y708600D01*
X980919Y707473D01*
X981060Y704935D01*
Y703948D01*
X980919Y702821D01*
Y701552D01*
X980637Y700001D01*
X980355Y698309D01*
X979932Y696618D01*
X979368Y694926D01*
Y694785D01*
X979086Y694221D01*
X978663Y693376D01*
X978240Y692389D01*
X976831Y689992D01*
X975985Y688865D01*
X974998Y687737D01*
X974857Y687596D01*
X974434Y687314D01*
X973870Y686750D01*
X973165Y686045D01*
X972179Y685340D01*
X971051Y684635D01*
X969782Y683931D01*
X968372Y683367D01*
X968231D01*
X967809Y683085D01*
X966963Y682944D01*
X965976Y682662D01*
X964848Y682380D01*
X963439Y682239D01*
X960478Y681957D01*
X960337D01*
X959914D01*
X959068D01*
X958223Y682098D01*
X957095D01*
X955826Y682239D01*
X953007Y682662D01*
X952866D01*
X952302Y682803D01*
X951597Y682944D01*
X950610Y683226D01*
X949342Y683649D01*
X947932Y684213D01*
X946381Y684776D01*
X944830Y685622D01*
X944689Y685763D01*
X944126Y686045D01*
X943280Y686468D01*
X942011Y687173D01*
X940601Y688019D01*
X939051Y689146D01*
X937218Y690415D01*
X935245Y691825D01*
X934963Y691966D01*
X934258Y692530D01*
X933130Y693517D01*
X931720Y694644D01*
X929888Y696336D01*
X927773Y698169D01*
X925518Y700283D01*
X922980Y702680D01*
X910011Y715085D01*
Y680547D01*
X909729Y679983D01*
Y679842D01*
X909588Y679701D01*
X908883Y679138D01*
X908742D01*
X908460Y678997D01*
X908037Y678856D01*
X907473Y678715D01*
X907332D01*
X906910Y678574D01*
X906346Y678433D01*
X905500D01*
X905359D01*
X904936D01*
X904372Y678574D01*
X903667Y678715D01*
X903526D01*
X903103Y678856D01*
X902117Y679138D01*
X901976D01*
X901835Y679279D01*
X901271Y679842D01*
Y680124D01*
X901130Y680829D01*
Y724953D01*
X901271Y725940D01*
Y726081D01*
X901412Y726222D01*
X901976Y726926D01*
X902117D01*
X902258Y727208D01*
X902680Y727349D01*
X903244Y727631D01*
X903385D01*
X903949D01*
X904654Y727772D01*
X905641D01*
X905923D01*
X906346D01*
X907051D01*
X907755D01*
X907896D01*
X908319Y727631D01*
D02*
G37*
%LPC*%
G36*
X1214968Y1209870D02*
X1150643D01*
Y1204922D01*
X1145695D01*
Y1175234D01*
X1150643D01*
Y1160390D01*
X1155591D01*
Y1150494D01*
X1160539D01*
Y1145546D01*
X1170435D01*
Y1140597D01*
X1190227D01*
Y1145546D01*
X1200123D01*
Y1150494D01*
X1205072D01*
Y1155442D01*
X1210019D01*
Y1165338D01*
X1214968D01*
Y1209870D01*
D02*
G37*
G36*
X1026847Y1567531D02*
Y1540041D01*
X1066177Y1553856D01*
Y1553997D01*
X1026847Y1567531D01*
D02*
G37*
G36*
X971333Y1513539D02*
X945817D01*
Y1500147D01*
X945958Y1499160D01*
X946240Y1497046D01*
X946522Y1496059D01*
X946804Y1495072D01*
Y1494931D01*
X946945Y1494649D01*
X947227Y1494226D01*
X947650Y1493521D01*
X948496Y1492253D01*
X949623Y1490843D01*
X949764Y1490702D01*
X949905Y1490561D01*
X950328Y1490279D01*
X950892Y1489856D01*
X952161Y1489151D01*
X953853Y1488446D01*
X953994D01*
X954275Y1488305D01*
X954698Y1488164D01*
X955403Y1488023D01*
X956954Y1487741D01*
X958786Y1487601D01*
X958927D01*
X959350D01*
X959914D01*
X960619Y1487741D01*
X962311Y1487882D01*
X964002Y1488446D01*
X964143D01*
X964425Y1488587D01*
X964848Y1488728D01*
X965412Y1489010D01*
X966681Y1489856D01*
X967950Y1490984D01*
X968091Y1491125D01*
X968231Y1491266D01*
X968513Y1491689D01*
X968795Y1492112D01*
X969641Y1493662D01*
X970346Y1495495D01*
Y1495636D01*
X970487Y1495918D01*
X970628Y1496623D01*
X970910Y1497327D01*
X971051Y1498455D01*
X971192Y1499583D01*
X971333Y1501134D01*
Y1513539D01*
D02*
G37*
G36*
X937500D02*
X909729D01*
Y1497046D01*
X909870Y1496200D01*
X910152Y1494226D01*
X910575Y1492112D01*
Y1491971D01*
X910716Y1491689D01*
X910998Y1491125D01*
X911139Y1490561D01*
X911984Y1489010D01*
X912971Y1487460D01*
X913112Y1487319D01*
X913253Y1487037D01*
X914099Y1486191D01*
X915509Y1485204D01*
X917200Y1484217D01*
X917341D01*
X917623Y1484076D01*
X918187Y1483794D01*
X918892Y1483512D01*
X919738Y1483371D01*
X920725Y1483089D01*
X922980Y1482949D01*
X923121D01*
X923544D01*
X924249D01*
X925095Y1483089D01*
X927068Y1483371D01*
X929183Y1484076D01*
X929324D01*
X929606Y1484217D01*
X930170Y1484499D01*
X930733Y1484922D01*
X932284Y1485909D01*
X933694Y1487460D01*
X933835Y1487601D01*
X933976Y1487882D01*
X934399Y1488305D01*
X934681Y1488869D01*
X935245Y1489715D01*
X935667Y1490561D01*
X936513Y1492816D01*
Y1492957D01*
X936654Y1493380D01*
X936795Y1494085D01*
X937077Y1495072D01*
X937218Y1496200D01*
X937359Y1497609D01*
X937500Y1499160D01*
Y1513539D01*
D02*
G37*
G36*
X1068010Y1496341D02*
X1041367D01*
Y1484640D01*
X1041508Y1483653D01*
X1041790Y1481398D01*
X1042354Y1479001D01*
Y1478860D01*
X1042494Y1478437D01*
X1042776Y1477874D01*
X1043058Y1477169D01*
X1043904Y1475477D01*
X1045032Y1473926D01*
X1045173Y1473785D01*
X1045314Y1473644D01*
X1045737Y1473222D01*
X1046301Y1472799D01*
X1047569Y1471812D01*
X1049261Y1470966D01*
X1049402D01*
X1049684Y1470825D01*
X1050248Y1470684D01*
X1050953Y1470402D01*
X1052644Y1470120D01*
X1054618Y1469979D01*
X1054759D01*
X1055464D01*
X1056310Y1470120D01*
X1057296Y1470261D01*
X1058565Y1470543D01*
X1059975Y1470825D01*
X1061243Y1471389D01*
X1062512Y1472094D01*
X1062653Y1472235D01*
X1063076Y1472517D01*
X1063640Y1473081D01*
X1064345Y1473785D01*
X1065050Y1474772D01*
X1065896Y1475900D01*
X1066600Y1477451D01*
X1067164Y1479142D01*
X1067305Y1479424D01*
X1067446Y1480129D01*
X1067587Y1481116D01*
X1067728Y1482526D01*
Y1482808D01*
X1067869Y1483371D01*
Y1484640D01*
X1068010Y1485486D01*
Y1496341D01*
D02*
G37*
G36*
X942998Y1449398D02*
X940742D01*
X940601D01*
X940460D01*
X939615D01*
X938205D01*
X936513Y1449257D01*
X934540Y1449116D01*
X932425Y1448975D01*
X927914Y1448270D01*
X927632D01*
X926927Y1447988D01*
X925800Y1447706D01*
X924531Y1447424D01*
X922980Y1446860D01*
X921288Y1446155D01*
X919597Y1445450D01*
X917905Y1444464D01*
X917764Y1444323D01*
X917200Y1443900D01*
X916496Y1443336D01*
X915509Y1442490D01*
X914381Y1441362D01*
X913394Y1440235D01*
X912266Y1438684D01*
X911280Y1437133D01*
X911139Y1436851D01*
X910998Y1436287D01*
X910575Y1435301D01*
X910152Y1433891D01*
X909729Y1432199D01*
X909447Y1430226D01*
X909165Y1428111D01*
X909024Y1425574D01*
Y1424446D01*
X909165Y1423177D01*
X909306Y1421627D01*
X909588Y1419794D01*
X910152Y1417961D01*
X910716Y1415988D01*
X911562Y1414155D01*
X911703Y1413873D01*
X911984Y1413309D01*
X912548Y1412464D01*
X913394Y1411336D01*
X914381Y1410208D01*
X915509Y1408939D01*
X916777Y1407671D01*
X918328Y1406543D01*
X918469Y1406402D01*
X919174Y1406120D01*
X920020Y1405556D01*
X921288Y1404992D01*
X922698Y1404287D01*
X924390Y1403582D01*
X926363Y1403019D01*
X928478Y1402455D01*
X928760D01*
X929465Y1402314D01*
X930593Y1402032D01*
X932143Y1401750D01*
X933976Y1401609D01*
X936090Y1401327D01*
X938205Y1401186D01*
X940601D01*
X940742D01*
X940883D01*
X941729D01*
X942998D01*
X944689Y1401327D01*
X946522Y1401468D01*
X948637Y1401750D01*
X953007Y1402455D01*
X953289D01*
X953994Y1402737D01*
X955121Y1403019D01*
X956390Y1403300D01*
X957941Y1403864D01*
X959632Y1404569D01*
X961324Y1405415D01*
X963016Y1406402D01*
X963157Y1406543D01*
X963720Y1406825D01*
X964425Y1407530D01*
X965412Y1408375D01*
X966540Y1409362D01*
X967668Y1410631D01*
X968654Y1412041D01*
X969641Y1413732D01*
X969782Y1413873D01*
X970064Y1414578D01*
X970346Y1415565D01*
X970910Y1416834D01*
X971333Y1418525D01*
X971615Y1420499D01*
X971897Y1422754D01*
X972038Y1425151D01*
Y1426279D01*
X971897Y1427547D01*
X971756Y1429098D01*
X971333Y1430931D01*
X970910Y1432763D01*
X970205Y1434737D01*
X969359Y1436569D01*
X969218Y1436710D01*
X968936Y1437274D01*
X968372Y1438261D01*
X967527Y1439248D01*
X966540Y1440517D01*
X965412Y1441785D01*
X964143Y1443054D01*
X962593Y1444182D01*
X962452Y1444323D01*
X961888Y1444605D01*
X960901Y1445169D01*
X959773Y1445732D01*
X958364Y1446437D01*
X956531Y1447142D01*
X954698Y1447706D01*
X952584Y1448270D01*
X952302D01*
X951597Y1448411D01*
X950469Y1448552D01*
X949060Y1448834D01*
X947227Y1448975D01*
X945253Y1449257D01*
X942998Y1449398D01*
D02*
G37*
G36*
X943421Y1127563D02*
X941024D01*
X940883D01*
X940601D01*
X940178D01*
X939615D01*
X937923D01*
X935808Y1127422D01*
X933412D01*
X930874Y1127140D01*
X928337Y1126999D01*
X925940Y1126717D01*
X925659D01*
X924954Y1126576D01*
X923826Y1126294D01*
X922416Y1126012D01*
X920866Y1125590D01*
X919174Y1125167D01*
X917482Y1124603D01*
X915932Y1123898D01*
X915791Y1123757D01*
X915368Y1123475D01*
X914663Y1123052D01*
X913817Y1122488D01*
X911984Y1120797D01*
X910998Y1119951D01*
X910293Y1118823D01*
Y1118682D01*
X910011Y1118259D01*
X909729Y1117554D01*
X909447Y1116708D01*
X909165Y1115581D01*
X908883Y1114312D01*
X908742Y1112902D01*
X908601Y1111352D01*
Y1110083D01*
X908742Y1109237D01*
X909024Y1107263D01*
X909588Y1105290D01*
Y1105149D01*
X909870Y1104867D01*
X910011Y1104303D01*
X910434Y1103739D01*
X911421Y1102189D01*
X912689Y1100779D01*
X912830Y1100638D01*
X913112Y1100497D01*
X913535Y1100074D01*
X914099Y1099651D01*
X915650Y1098805D01*
X917623Y1097818D01*
X917764D01*
X918187Y1097537D01*
X918751Y1097396D01*
X919456Y1097114D01*
X920443Y1096832D01*
X921429Y1096409D01*
X923967Y1095845D01*
X924108D01*
X924531Y1095704D01*
X925236Y1095563D01*
X926222Y1095422D01*
X927350Y1095140D01*
X928619Y1094999D01*
X931438Y1094717D01*
X931579D01*
X932143D01*
X932989Y1094576D01*
X933976D01*
X935245D01*
X936795Y1094435D01*
X939897D01*
X940178D01*
X940883D01*
X942011D01*
X943421D01*
X945112Y1094576D01*
X946804Y1094717D01*
X950469Y1094999D01*
X950610D01*
X951315Y1095140D01*
X952161D01*
X953289Y1095281D01*
X954557Y1095422D01*
X955826Y1095704D01*
X958646Y1096268D01*
X958786D01*
X959209Y1096409D01*
X959914Y1096550D01*
X960760Y1096832D01*
X962875Y1097396D01*
X964848Y1098382D01*
X964989D01*
X965271Y1098664D01*
X965835Y1098946D01*
X966399Y1099228D01*
X967809Y1100215D01*
X969218Y1101484D01*
X969359Y1101625D01*
X969500Y1101766D01*
X969782Y1102189D01*
X970205Y1102752D01*
X970910Y1104021D01*
X971615Y1105713D01*
Y1105854D01*
X971756Y1106136D01*
X971897Y1106559D01*
X972038Y1107263D01*
X972320Y1108814D01*
X972461Y1110929D01*
Y1111775D01*
X972320Y1112761D01*
X972179Y1113889D01*
X971897Y1115299D01*
X971333Y1116708D01*
X970769Y1118118D01*
X969923Y1119387D01*
X969782Y1119528D01*
X969500Y1119951D01*
X968936Y1120515D01*
X968231Y1121219D01*
X967245Y1122065D01*
X966117Y1122911D01*
X964848Y1123757D01*
X963298Y1124462D01*
X963157Y1124603D01*
X962593Y1124744D01*
X961606Y1125026D01*
X960478Y1125449D01*
X959068Y1125872D01*
X957236Y1126294D01*
X955403Y1126717D01*
X953289Y1126999D01*
X953007D01*
X952302Y1127140D01*
X951174D01*
X949623Y1127281D01*
X947791Y1127422D01*
X945676D01*
X943421Y1127563D01*
D02*
G37*
G36*
X1068010Y1045096D02*
X1041367D01*
Y1033395D01*
X1041508Y1032408D01*
X1041790Y1030153D01*
X1042354Y1027756D01*
Y1027615D01*
X1042494Y1027193D01*
X1042776Y1026629D01*
X1043058Y1025924D01*
X1043904Y1024232D01*
X1045032Y1022681D01*
X1045173Y1022541D01*
X1045314Y1022400D01*
X1045737Y1021977D01*
X1046301Y1021554D01*
X1047569Y1020567D01*
X1049261Y1019721D01*
X1049402D01*
X1049684Y1019580D01*
X1050248Y1019439D01*
X1050953Y1019157D01*
X1052644Y1018875D01*
X1054618Y1018734D01*
X1054759D01*
X1055464D01*
X1056310Y1018875D01*
X1057296Y1019016D01*
X1058565Y1019298D01*
X1059975Y1019580D01*
X1061243Y1020144D01*
X1062512Y1020849D01*
X1062653Y1020990D01*
X1063076Y1021272D01*
X1063640Y1021836D01*
X1064345Y1022541D01*
X1065050Y1023527D01*
X1065896Y1024655D01*
X1066600Y1026206D01*
X1067164Y1027897D01*
X1067305Y1028179D01*
X1067446Y1028884D01*
X1067587Y1029871D01*
X1067728Y1031281D01*
Y1031563D01*
X1067869Y1032126D01*
Y1033395D01*
X1068010Y1034241D01*
Y1045096D01*
D02*
G37*
G36*
X943421Y1000972D02*
X941024D01*
X940883D01*
X940601D01*
X940178D01*
X939615D01*
X937923D01*
X935808Y1000831D01*
X933412D01*
X930874Y1000549D01*
X928337Y1000408D01*
X925940Y1000126D01*
X925659D01*
X924954Y999985D01*
X923826Y999703D01*
X922416Y999421D01*
X920866Y998999D01*
X919174Y998576D01*
X917482Y998012D01*
X915932Y997307D01*
X915791Y997166D01*
X915368Y996884D01*
X914663Y996461D01*
X913817Y995897D01*
X911984Y994206D01*
X910998Y993360D01*
X910293Y992232D01*
Y992091D01*
X910011Y991668D01*
X909729Y990963D01*
X909447Y990117D01*
X909165Y988990D01*
X908883Y987721D01*
X908742Y986311D01*
X908601Y984761D01*
Y983492D01*
X908742Y982646D01*
X909024Y980672D01*
X909588Y978699D01*
Y978558D01*
X909870Y978276D01*
X910011Y977712D01*
X910434Y977148D01*
X911421Y975597D01*
X912689Y974188D01*
X912830Y974047D01*
X913112Y973906D01*
X913535Y973483D01*
X914099Y973060D01*
X915650Y972214D01*
X917623Y971227D01*
X917764D01*
X918187Y970945D01*
X918751Y970805D01*
X919456Y970523D01*
X920443Y970241D01*
X921429Y969818D01*
X923967Y969254D01*
X924108D01*
X924531Y969113D01*
X925236Y968972D01*
X926222Y968831D01*
X927350Y968549D01*
X928619Y968408D01*
X931438Y968126D01*
X931579D01*
X932143D01*
X932989Y967985D01*
X933976D01*
X935245D01*
X936795Y967844D01*
X939897D01*
X940178D01*
X940883D01*
X942011D01*
X943421D01*
X945112Y967985D01*
X946804Y968126D01*
X950469Y968408D01*
X950610D01*
X951315Y968549D01*
X952161D01*
X953289Y968690D01*
X954557Y968831D01*
X955826Y969113D01*
X958646Y969677D01*
X958786D01*
X959209Y969818D01*
X959914Y969959D01*
X960760Y970241D01*
X962875Y970805D01*
X964848Y971791D01*
X964989D01*
X965271Y972073D01*
X965835Y972355D01*
X966399Y972637D01*
X967809Y973624D01*
X969218Y974893D01*
X969359Y975034D01*
X969500Y975175D01*
X969782Y975597D01*
X970205Y976161D01*
X970910Y977430D01*
X971615Y979122D01*
Y979263D01*
X971756Y979545D01*
X971897Y979968D01*
X972038Y980672D01*
X972320Y982223D01*
X972461Y984338D01*
Y985183D01*
X972320Y986170D01*
X972179Y987298D01*
X971897Y988708D01*
X971333Y990117D01*
X970769Y991527D01*
X969923Y992796D01*
X969782Y992937D01*
X969500Y993360D01*
X968936Y993924D01*
X968231Y994628D01*
X967245Y995474D01*
X966117Y996320D01*
X964848Y997166D01*
X963298Y997871D01*
X963157Y998012D01*
X962593Y998153D01*
X961606Y998435D01*
X960478Y998858D01*
X959068Y999280D01*
X957236Y999703D01*
X955403Y1000126D01*
X953289Y1000408D01*
X953007D01*
X952302Y1000549D01*
X951174D01*
X949623Y1000690D01*
X947791Y1000831D01*
X945676D01*
X943421Y1000972D01*
D02*
G37*
G36*
X1026847Y918928D02*
Y891438D01*
X1066177Y905253D01*
Y905394D01*
X1026847Y918928D01*
D02*
G37*
G36*
X943421Y846187D02*
X941024D01*
X940883D01*
X940601D01*
X940178D01*
X939615D01*
X937923D01*
X935808Y846046D01*
X933412D01*
X930874Y845764D01*
X928337Y845623D01*
X925940Y845341D01*
X925659D01*
X924954Y845200D01*
X923826Y844918D01*
X922416Y844636D01*
X920866Y844213D01*
X919174Y843791D01*
X917482Y843227D01*
X915932Y842522D01*
X915791Y842381D01*
X915368Y842099D01*
X914663Y841676D01*
X913817Y841112D01*
X911984Y839420D01*
X910998Y838575D01*
X910293Y837447D01*
Y837306D01*
X910011Y836883D01*
X909729Y836178D01*
X909447Y835332D01*
X909165Y834205D01*
X908883Y832936D01*
X908742Y831526D01*
X908601Y829975D01*
Y828707D01*
X908742Y827861D01*
X909024Y825887D01*
X909588Y823914D01*
Y823773D01*
X909870Y823491D01*
X910011Y822927D01*
X910434Y822363D01*
X911421Y820812D01*
X912689Y819403D01*
X912830Y819262D01*
X913112Y819121D01*
X913535Y818698D01*
X914099Y818275D01*
X915650Y817429D01*
X917623Y816442D01*
X917764D01*
X918187Y816160D01*
X918751Y816019D01*
X919456Y815738D01*
X920443Y815456D01*
X921429Y815033D01*
X923967Y814469D01*
X924108D01*
X924531Y814328D01*
X925236Y814187D01*
X926222Y814046D01*
X927350Y813764D01*
X928619Y813623D01*
X931438Y813341D01*
X931579D01*
X932143D01*
X932989Y813200D01*
X933976D01*
X935245D01*
X936795Y813059D01*
X939897D01*
X940178D01*
X940883D01*
X942011D01*
X943421D01*
X945112Y813200D01*
X946804Y813341D01*
X950469Y813623D01*
X950610D01*
X951315Y813764D01*
X952161D01*
X953289Y813905D01*
X954557Y814046D01*
X955826Y814328D01*
X958646Y814892D01*
X958786D01*
X959209Y815033D01*
X959914Y815174D01*
X960760Y815456D01*
X962875Y816019D01*
X964848Y817006D01*
X964989D01*
X965271Y817288D01*
X965835Y817570D01*
X966399Y817852D01*
X967809Y818839D01*
X969218Y820108D01*
X969359Y820249D01*
X969500Y820390D01*
X969782Y820812D01*
X970205Y821376D01*
X970910Y822645D01*
X971615Y824337D01*
Y824478D01*
X971756Y824760D01*
X971897Y825183D01*
X972038Y825887D01*
X972320Y827438D01*
X972461Y829553D01*
Y830398D01*
X972320Y831385D01*
X972179Y832513D01*
X971897Y833923D01*
X971333Y835332D01*
X970769Y836742D01*
X969923Y838011D01*
X969782Y838152D01*
X969500Y838575D01*
X968936Y839139D01*
X968231Y839843D01*
X967245Y840689D01*
X966117Y841535D01*
X964848Y842381D01*
X963298Y843086D01*
X963157Y843227D01*
X962593Y843368D01*
X961606Y843650D01*
X960478Y844072D01*
X959068Y844495D01*
X957236Y844918D01*
X955403Y845341D01*
X953289Y845623D01*
X953007D01*
X952302Y845764D01*
X951174D01*
X949623Y845905D01*
X947791Y846046D01*
X945676D01*
X943421Y846187D01*
D02*
G37*
%LPD*%
D58*
X2415000Y2280000D02*
G03*
X2415000Y2280000I-30000J0D01*
G01*
X2415001Y980000D02*
G03*
X2415001Y980000I-30000J0D01*
G01*
D59*
X2607500Y2145000D02*
G03*
X2607500Y2145000I-12500J0D01*
G01*
X2607501Y845000D02*
G03*
X2607501Y845000I-12500J0D01*
G01*
X922500Y4055000D02*
G03*
X922500Y4055000I-12500J0D01*
G01*
X2972500Y4055001D02*
G03*
X2972500Y4055001I-12500J0D01*
G01*
X997500Y6370000D02*
G03*
X997500Y6370000I-12500J0D01*
G01*
X3392500Y5885000D02*
G03*
X3392500Y5885000I-12500J0D01*
G01*
X705000Y5400000D02*
G03*
X705000Y5400000I-12500J0D01*
G01*
X1985000Y7350000D02*
G03*
X1985000Y7350000I-12500J0D01*
G01*
X2985000Y7250000D02*
G03*
X2985000Y7250000I-12500J0D01*
G01*
X2982500Y6450000D02*
G03*
X2982500Y6450000I-12500J0D01*
G01*
X3402810Y1002500D02*
G03*
X3402810Y1002500I-12500J0D01*
G01*
X2985000Y6850000D02*
G03*
X2985000Y6850000I-12500J0D01*
G01*
X2772190Y2447500D02*
G03*
X2772190Y2447500I-12500J0D01*
G01*
X1762500Y6515500D02*
G03*
X1762500Y6515500I-12500J0D01*
G01*
X3612500Y1965500D02*
G03*
X3612500Y1965500I-12500J0D01*
G01*
X2012500Y2984500D02*
G03*
X2012500Y2984500I-12500J0D01*
G01*
D60*
X3514500Y7000000D02*
G03*
X3514500Y7000000I-10000J0D01*
G01*
X3705500Y7950000D02*
G03*
X3705500Y7950000I-10000J0D01*
G01*
X3438000Y6350000D02*
G03*
X3438000Y6350000I-10000J0D01*
G01*
X1635000Y7730000D02*
G03*
X1635000Y7730000I-10000J0D01*
G01*
X3658350Y4905001D02*
G03*
X3658350Y4905001I-10000J0D01*
G01*
X3438000Y6750000D02*
G03*
X3438000Y6750000I-10000J0D01*
G01*
X3442000Y7145000D02*
G03*
X3442000Y7145000I-10000J0D01*
G01*
X511650Y5095000D02*
G03*
X511650Y5095000I-10000J0D01*
G01*
X2557750Y5097501D02*
G03*
X2557750Y5097501I-10000J0D01*
G01*
X1608350Y4905000D02*
G03*
X1608350Y4905000I-10000J0D01*
G01*
X2115000Y2720000D02*
X2485000D01*
X2115000Y2180000D02*
X2485000D01*
X2115000D02*
Y2720000D01*
X2485000Y2180000D02*
Y2720000D01*
X2115001Y1420000D02*
X2485001D01*
X2115001Y880000D02*
X2485001D01*
X2115001D02*
Y1420000D01*
X2485001Y880000D02*
Y1420000D01*
X940000Y4120000D02*
Y4180000D01*
X1160000Y4120000D02*
Y4180000D01*
X940000Y4120000D02*
X1160000D01*
X940000Y4180000D02*
X1160000D01*
X2990000Y4180001D02*
X3210000D01*
X2990000Y4120001D02*
X3210000D01*
Y4180001D01*
X2990000Y4120001D02*
Y4180001D01*
X895000Y6395000D02*
Y6705000D01*
X805000Y6395000D02*
Y6705000D01*
Y6395000D02*
X895000D01*
X805000Y6705000D02*
X895000D01*
X3569500Y6777500D02*
X5157500D01*
X3569500Y7349500D02*
X5157500D01*
Y6777500D02*
Y7349500D01*
X3569500Y6777500D02*
Y7349500D01*
X2042500Y8172500D02*
X3630500D01*
X2042500Y7600500D02*
X3630500D01*
X2042500D02*
Y8172500D01*
X3630500Y7600500D02*
Y8172500D01*
X3475000Y5857500D02*
X3525000D01*
X3475000Y5547500D02*
X3525000D01*
X3475000D02*
Y5857500D01*
X3525000Y5547500D02*
Y5857500D01*
X545000Y6115000D02*
X755000D01*
X545000Y5785000D02*
X755000D01*
X1972499Y7158500D02*
X1973000Y7158000D01*
X1972499Y7158500D02*
X2227500D01*
Y5331000D02*
Y7158500D01*
X2227000Y5331500D02*
Y5332000D01*
X2226499Y5331000D02*
X2227000Y5331500D01*
X1972499Y5331000D02*
X2226499D01*
X1972499D02*
Y7157500D01*
X3035500Y276500D02*
X3036000Y277000D01*
X3035500Y22500D02*
Y276500D01*
Y22500D02*
X4610500D01*
Y277500D01*
X3035500D02*
X4610500D01*
X3035500D02*
X3036000Y277000D01*
X374000Y2860000D02*
X627000D01*
X373000Y2859000D02*
X374000Y2860000D01*
X373000Y1792500D02*
Y2859000D01*
Y1792500D02*
X627000D01*
Y2860000D01*
X3583400Y4855001D02*
Y4917501D01*
Y4855001D02*
Y4917501D01*
Y4855001D02*
X3645901D01*
X3583400Y5082501D02*
Y5145001D01*
Y5082501D02*
Y5145001D01*
X3645901D01*
X3713400Y4972501D02*
Y5000001D01*
Y5027501D01*
X71000Y5268000D02*
X629000D01*
X71000D02*
Y5532000D01*
X629000D01*
Y5268000D02*
Y5532000D01*
X1715000Y7430000D02*
X1885000D01*
X1715000Y7270000D02*
X1885000D01*
X2715000Y7170000D02*
X2885000D01*
X2715000Y7330000D02*
X2885000D01*
X2685000Y6365000D02*
X2915000D01*
X2685000Y6535000D02*
X2915000D01*
X237093Y6813107D02*
X558306D01*
X237093Y6586893D02*
X558306D01*
X3263107Y5239394D02*
Y5560607D01*
X3036893Y5239394D02*
Y5560607D01*
X2960000Y1270000D02*
X3240000D01*
X2960000Y930000D02*
X3240000D01*
X2842911Y5709589D02*
Y5995411D01*
X2657089Y5709589D02*
Y5995411D01*
X274503Y6357089D02*
X560325D01*
X274503Y6542911D02*
X560325D01*
X2874503Y2892911D02*
X3160325D01*
X2874503Y2707089D02*
X3160325D01*
X857775Y6992911D02*
X932497D01*
X857775Y6807089D02*
X932497D01*
X700000Y550000D02*
X1700000D01*
X700000Y32500D02*
X1700000D01*
X700000D02*
Y550000D01*
X1700000Y32500D02*
Y550000D01*
X4634500Y533000D02*
X5207000D01*
X4634500Y597000D02*
X5207000D01*
Y533000D02*
X5227000Y553000D01*
X5207000Y597000D02*
X5227000Y577000D01*
Y553000D02*
Y577000D01*
X4634500Y1041000D02*
X5207000D01*
X4634500Y1105000D02*
X5207000D01*
Y1041000D02*
X5227000Y1061000D01*
X5207000Y1105000D02*
X5227000Y1085000D01*
Y1061000D02*
Y1085000D01*
X4634500Y1549000D02*
X5207000D01*
X4634500Y1613000D02*
X5207000D01*
Y1549000D02*
X5227000Y1569000D01*
X5207000Y1613000D02*
X5227000Y1593000D01*
Y1569000D02*
Y1593000D01*
Y1823000D02*
Y1847000D01*
X5207000Y1867000D02*
X5227000Y1847000D01*
X5207000Y1803000D02*
X5227000Y1823000D01*
X4634500Y1867000D02*
X5207000D01*
X4634500Y1803000D02*
X5207000D01*
X4365500Y423000D02*
X4634500D01*
Y1977000D01*
X4365500D02*
X4634500D01*
X4365500Y423000D02*
Y1977000D01*
X5227000Y1315000D02*
Y1339000D01*
X5207000Y1359000D02*
X5227000Y1339000D01*
X5207000Y1295000D02*
X5227000Y1315000D01*
X4634500Y1359000D02*
X5207000D01*
X4634500Y1295000D02*
X5207000D01*
X5227000Y807000D02*
Y831000D01*
X5207000Y851000D02*
X5227000Y831000D01*
X5207000Y787000D02*
X5227000Y807000D01*
X4634500Y851000D02*
X5207000D01*
X4634500Y787000D02*
X5207000D01*
X1623089Y5657089D02*
X1908911D01*
X1623089Y5842911D02*
X1908911D01*
X1623089Y5407089D02*
X1908911D01*
X1623089Y5592911D02*
X1908911D01*
X742911Y4457089D02*
Y4742911D01*
X557089Y4457089D02*
Y4742911D01*
X492911Y4457089D02*
Y4742911D01*
X307089Y4457089D02*
Y4742911D01*
X642911Y3507089D02*
Y3792911D01*
X457089Y3507089D02*
Y3792911D01*
X2792911Y4462090D02*
Y4747912D01*
X2607089Y4462090D02*
Y4747912D01*
X2542911Y4462090D02*
Y4747912D01*
X2357089Y4462090D02*
Y4747912D01*
X2692911Y3507090D02*
Y3792912D01*
X2507089Y3507090D02*
Y3792912D01*
X1542911Y4457089D02*
Y4742911D01*
X1357089Y4457089D02*
Y4742911D01*
X2042911Y4457089D02*
Y4742911D01*
X1857089Y4457089D02*
Y4742911D01*
X1592911Y3507089D02*
Y3792911D01*
X1407089Y3507089D02*
Y3792911D01*
X3592911Y4457090D02*
Y4742912D01*
X3407089Y4457090D02*
Y4742912D01*
X4092911Y4457090D02*
Y4742912D01*
X3907089Y4457090D02*
Y4742912D01*
X3692911Y3507090D02*
Y3792912D01*
X3507089Y3507090D02*
Y3792912D01*
X2715000Y6930000D02*
X2885000D01*
X2715000Y6770000D02*
X2885000D01*
X724000Y2864000D02*
X977000D01*
X723000Y2863000D02*
X724000Y2864000D01*
X723000Y1796500D02*
Y2863000D01*
Y1796500D02*
X977000D01*
Y2864000D01*
X277000Y1788500D02*
Y2856000D01*
X23000Y1788500D02*
X277000D01*
X23000D02*
Y2855000D01*
X24000Y2856000D01*
X277000D01*
X374000Y1706000D02*
X627000D01*
X373000Y1705000D02*
X374000Y1706000D01*
X373000Y638500D02*
Y1705000D01*
Y638500D02*
X627000D01*
Y1706000D01*
X24000Y1714000D02*
X277000D01*
X23000Y1713000D02*
X24000Y1714000D01*
X23000Y646500D02*
Y1713000D01*
Y646500D02*
X277000D01*
Y1714000D01*
X1836000Y277000D02*
X2903500D01*
Y23000D02*
Y277000D01*
X1837000Y23000D02*
X2903500D01*
X1836000Y24000D02*
X1837000Y23000D01*
X1836000Y24000D02*
Y277000D01*
X436600Y4972500D02*
Y5000000D01*
Y5027500D01*
X504100Y4855000D02*
X566600D01*
Y4917500D01*
Y4855000D02*
Y4917500D01*
X504100Y5145000D02*
X566600D01*
Y5082500D02*
Y5145000D01*
Y5082500D02*
Y5145000D01*
X2482700Y4975000D02*
Y5002501D01*
Y5030001D01*
X2550200Y4857501D02*
X2612700D01*
Y4920001D01*
Y4857501D02*
Y4920001D01*
X2550200Y5147500D02*
X2612700D01*
Y5085000D02*
Y5147500D01*
Y5085000D02*
Y5147500D01*
X1663400Y5000000D02*
Y5027500D01*
Y4972500D02*
Y5000000D01*
X1533400Y5145000D02*
X1595900D01*
X1533400Y5082500D02*
Y5145000D01*
Y5082500D02*
Y5145000D01*
Y4855000D02*
X1595900D01*
X1533400D02*
Y4917500D01*
Y4855000D02*
Y4917500D01*
X1339394Y4113107D02*
X1660607D01*
X1339394Y3886894D02*
X1660607D01*
X1339394Y4363107D02*
X1660607D01*
X1339394Y4136894D02*
X1660607D01*
X3863107Y4439394D02*
Y4760607D01*
X3636893Y4439394D02*
Y4760607D01*
X3136893Y4439394D02*
Y4760607D01*
X3363107Y4439394D02*
Y4760607D01*
X3186893Y3041894D02*
Y3363107D01*
X3413106Y3041894D02*
Y3363107D01*
X3713107Y3039394D02*
Y3360607D01*
X3486893Y3039394D02*
Y3360607D01*
X3413106Y3489394D02*
Y3810607D01*
X3186893Y3489394D02*
Y3810607D01*
X3389394Y4113107D02*
X3710606D01*
X3389394Y3886894D02*
X3710606D01*
X3386893Y4363107D02*
X3708106D01*
X3386893Y4136894D02*
X3708106D01*
X2289393Y6963107D02*
X2610606D01*
X2289393Y6736893D02*
X2610606D01*
X2289393Y7363107D02*
X2610606D01*
X2289393Y7136893D02*
X2610606D01*
X2289393Y6563107D02*
X2610606D01*
X2289393Y6336893D02*
X2610606D01*
X263107Y4439394D02*
Y4760607D01*
X36893Y4439394D02*
Y4760607D01*
X786893Y4439394D02*
Y4760607D01*
X1013107Y4439394D02*
Y4760607D01*
X736893Y3039394D02*
Y3360607D01*
X963107Y3039394D02*
Y3360607D01*
X663107Y3039394D02*
Y3360607D01*
X436893Y3039394D02*
Y3360607D01*
X963107Y3489394D02*
Y3810607D01*
X736893Y3489394D02*
Y3810607D01*
X439393Y3886893D02*
X760606D01*
X439393Y4113107D02*
X760606D01*
X439393Y4136893D02*
X760606D01*
X439393Y4363107D02*
X760606D01*
X2313107Y4444394D02*
Y4765607D01*
X2086893Y4444394D02*
Y4765607D01*
X2836893Y4441894D02*
Y4763107D01*
X3063107Y4441894D02*
Y4763107D01*
X2786893Y3039394D02*
Y3360607D01*
X3013106Y3039394D02*
Y3360607D01*
X2713106Y3039394D02*
Y3360607D01*
X2486893Y3039394D02*
Y3360607D01*
X3013106Y3489394D02*
Y3810607D01*
X2786893Y3489394D02*
Y3810607D01*
X2439393Y3886893D02*
X2760606D01*
X2439393Y4113107D02*
X2760606D01*
X2439393Y4136893D02*
X2760606D01*
X2439393Y4363107D02*
X2760606D01*
X1813107Y4439394D02*
Y4760607D01*
X1586893Y4439394D02*
Y4760607D01*
X1086893Y4439394D02*
Y4760607D01*
X1313107Y4439394D02*
Y4760607D01*
X1136893Y3039394D02*
Y3360607D01*
X1363107Y3039394D02*
Y3360607D01*
X1663107Y3039394D02*
Y3360607D01*
X1436893Y3039394D02*
Y3360607D01*
X1363107Y3489394D02*
Y3810607D01*
X1136893Y3489394D02*
Y3810607D01*
X2592911Y5559589D02*
Y5845411D01*
X2407089Y5559589D02*
Y5845411D01*
X3092911Y5709589D02*
Y5995411D01*
X2907089Y5709589D02*
Y5995411D01*
X2863107Y5241894D02*
Y5563107D01*
X2636893Y5241894D02*
Y5563107D01*
X2910000Y2180000D02*
X3190000D01*
X2910000Y2520000D02*
X3190000D01*
X1907089Y1907089D02*
X2192911D01*
X1907089Y2092911D02*
X2192911D01*
X1907089Y792911D02*
X2192912D01*
X1907089Y607089D02*
X2192912D01*
X1882000Y5894000D02*
Y6452000D01*
X1618000Y5894000D02*
X1882000D01*
X1618000D02*
Y6452000D01*
X1882000D01*
X3468000Y1902000D02*
X3732000D01*
X3468000Y1344000D02*
Y1902000D01*
Y1344000D02*
X3732000D01*
Y1902000D01*
X1868000Y3048000D02*
X2132000D01*
Y3606000D01*
X1868000D02*
X2132000D01*
X1868000Y3048000D02*
Y3606000D01*
X239393Y6886893D02*
X560606D01*
X239393Y7113107D02*
X560606D01*
X1491894Y7213107D02*
X1813107D01*
X1491894Y6986893D02*
X1813107D01*
X2889675Y657089D02*
X3175497D01*
X2889675Y842911D02*
X3175497D01*
X2689393Y1686893D02*
X3010606D01*
X2689393Y1913107D02*
X3010606D01*
X2689393Y1936893D02*
X3010606D01*
X2689393Y2163107D02*
X3010606D01*
X3186893Y1439394D02*
Y1760607D01*
X3413107Y1439394D02*
Y1760607D01*
X3613107Y2286893D02*
Y2608106D01*
X3386893Y2286893D02*
Y2608106D01*
X3989394Y7386893D02*
X4310607D01*
X3989394Y7613107D02*
X4310607D01*
X3989394Y7636893D02*
X4310607D01*
X3989394Y7863107D02*
X4310607D01*
X3663107Y5989393D02*
Y6310606D01*
X3436893Y5989393D02*
Y6310606D01*
X2689393Y1436893D02*
X3010606D01*
X2689393Y1663107D02*
X3010606D01*
X4634500Y5133000D02*
X5207000D01*
X4634500Y5197000D02*
X5207000D01*
Y5133000D02*
X5227000Y5153000D01*
X5207000Y5197000D02*
X5227000Y5177000D01*
Y5153000D02*
Y5177000D01*
X4634500Y5641000D02*
X5207000D01*
X4634500Y5705000D02*
X5207000D01*
Y5641000D02*
X5227000Y5661000D01*
X5207000Y5705000D02*
X5227000Y5685000D01*
Y5661000D02*
Y5685000D01*
X4634500Y6149000D02*
X5207000D01*
X4634500Y6213000D02*
X5207000D01*
Y6149000D02*
X5227000Y6169000D01*
X5207000Y6213000D02*
X5227000Y6193000D01*
Y6169000D02*
Y6193000D01*
Y6423000D02*
Y6447000D01*
X5207000Y6467000D02*
X5227000Y6447000D01*
X5207000Y6403000D02*
X5227000Y6423000D01*
X4634500Y6467000D02*
X5207000D01*
X4634500Y6403000D02*
X5207000D01*
X4365500Y5023000D02*
X4634500D01*
Y6577000D01*
X4365500D02*
X4634500D01*
X4365500Y5023000D02*
Y6577000D01*
X5227000Y5915000D02*
Y5939000D01*
X5207000Y5959000D02*
X5227000Y5939000D01*
X5207000Y5895000D02*
X5227000Y5915000D01*
X4634500Y5959000D02*
X5207000D01*
X4634500Y5895000D02*
X5207000D01*
X5227000Y5407000D02*
Y5431000D01*
X5207000Y5451000D02*
X5227000Y5431000D01*
X5207000Y5387000D02*
X5227000Y5407000D01*
X4634500Y5451000D02*
X5207000D01*
X4634500Y5387000D02*
X5207000D01*
X4634500Y2833000D02*
X5207000D01*
X4634500Y2897000D02*
X5207000D01*
Y2833000D02*
X5227000Y2853000D01*
X5207000Y2897000D02*
X5227000Y2877000D01*
Y2853000D02*
Y2877000D01*
X4634500Y3341000D02*
X5207000D01*
X4634500Y3405000D02*
X5207000D01*
Y3341000D02*
X5227000Y3361000D01*
X5207000Y3405000D02*
X5227000Y3385000D01*
Y3361000D02*
Y3385000D01*
X4634500Y3849000D02*
X5207000D01*
X4634500Y3913000D02*
X5207000D01*
Y3849000D02*
X5227000Y3869000D01*
X5207000Y3913000D02*
X5227000Y3893000D01*
Y3869000D02*
Y3893000D01*
Y4123000D02*
Y4147000D01*
X5207000Y4167000D02*
X5227000Y4147000D01*
X5207000Y4103000D02*
X5227000Y4123000D01*
X4634500Y4167000D02*
X5207000D01*
X4634500Y4103000D02*
X5207000D01*
X4365500Y2723000D02*
X4634500D01*
Y4277000D01*
X4365500D02*
X4634500D01*
X4365500Y2723000D02*
Y4277000D01*
X5227000Y3615000D02*
Y3639000D01*
X5207000Y3659000D02*
X5227000Y3639000D01*
X5207000Y3595000D02*
X5227000Y3615000D01*
X4634500Y3659000D02*
X5207000D01*
X4634500Y3595000D02*
X5207000D01*
X5227000Y3107000D02*
Y3131000D01*
X5207000Y3151000D02*
X5227000Y3131000D01*
X5207000Y3087000D02*
X5227000Y3107000D01*
X4634500Y3151000D02*
X5207000D01*
X4634500Y3087000D02*
X5207000D01*
D61*
X2119819Y5331000D02*
G03*
X2119819Y5331000I-20320J0D01*
G01*
X3055820Y149500D02*
G03*
X3055820Y149500I-20320J0D01*
G01*
X520820Y2860000D02*
G03*
X520820Y2860000I-20320J0D01*
G01*
X870820Y2864000D02*
G03*
X870820Y2864000I-20320J0D01*
G01*
X170820Y2856000D02*
G03*
X170820Y2856000I-20320J0D01*
G01*
X520820Y1706000D02*
G03*
X520820Y1706000I-20320J0D01*
G01*
X170820Y1714000D02*
G03*
X170820Y1714000I-20320J0D01*
G01*
X1856320Y150500D02*
G03*
X1856320Y150500I-20320J0D01*
G01*
D62*
X350000Y3450000D02*
G03*
X350000Y3450000I-100000J0D01*
G01*
X5050000Y7950000D02*
G03*
X5050000Y7950000I-100000J0D01*
G01*
X250000Y3300000D02*
Y3600000D01*
X100000Y3450000D02*
X400000D01*
X4800000Y7950000D02*
X5100000D01*
X4950000Y7800000D02*
Y8100000D01*
D63*
X3133000Y6294100D02*
X3263000D01*
X3133000D02*
Y6388500D01*
Y6511500D02*
Y6605900D01*
X3263000Y6415850D02*
Y6484150D01*
X3133000Y6605900D02*
X3263000D01*
X95000Y7280000D02*
Y8180000D01*
Y7280000D02*
X940000D01*
X1410000D02*
X1445000D01*
Y7495000D01*
Y7965000D02*
Y8180000D01*
X95000D02*
X1445000D01*
X1638000Y6700000D02*
Y6800000D01*
X1462000Y6700000D02*
Y6800000D01*
X3133000Y7005900D02*
X3263000D01*
Y6815850D02*
Y6884150D01*
X3133000Y6911500D02*
Y7005900D01*
Y6694100D02*
Y6788500D01*
Y6694100D02*
X3263000D01*
X3137000Y7089100D02*
X3267000D01*
X3137000D02*
Y7183500D01*
Y7306500D02*
Y7400900D01*
X3267000Y7210850D02*
Y7279150D01*
X3137000Y7400900D02*
X3267000D01*
X1388000Y6700000D02*
Y6800000D01*
X1212000Y6700000D02*
Y6800000D01*
D64*
X4250000Y1950000D02*
Y1983856D01*
Y1966928D01*
X4148433D01*
X4165360Y1950000D01*
X4250000Y2102351D02*
Y2034639D01*
X4182289Y2102351D01*
X4165360D01*
X4148433Y2085423D01*
Y2051567D01*
X4165360Y2034639D01*
X3898433Y2067711D02*
X3915360Y2033855D01*
X3949216Y2000000D01*
X3983072D01*
X4000000Y2016928D01*
Y2050783D01*
X3983072Y2067711D01*
X3966144D01*
X3949216Y2050783D01*
Y2000000D01*
X4148433Y350000D02*
Y417711D01*
X4165360D01*
X4233072Y350000D01*
X4250000D01*
X4050000D02*
Y383855D01*
Y366928D01*
X3948433D01*
X3965360Y350000D01*
X4250000Y6550000D02*
Y6583856D01*
Y6566928D01*
X4148433D01*
X4165360Y6550000D01*
X4250000Y6702351D02*
Y6634640D01*
X4182289Y6702351D01*
X4165360D01*
X4148433Y6685423D01*
Y6651567D01*
X4165360Y6634640D01*
X3898433Y6667711D02*
X3915360Y6633856D01*
X3949216Y6600000D01*
X3983072D01*
X4000000Y6616928D01*
Y6650783D01*
X3983072Y6667711D01*
X3966144D01*
X3949216Y6650783D01*
Y6600000D01*
X4148433Y4950000D02*
Y5017711D01*
X4165360D01*
X4233072Y4950000D01*
X4250000D01*
X4050000D02*
Y4983856D01*
Y4966928D01*
X3948433D01*
X3965360Y4950000D01*
X4250000Y4250000D02*
Y4283856D01*
Y4266928D01*
X4148433D01*
X4165360Y4250000D01*
X4250000Y4402351D02*
Y4334639D01*
X4182289Y4402351D01*
X4165360D01*
X4148433Y4385423D01*
Y4351567D01*
X4165360Y4334639D01*
X3898433Y4367711D02*
X3915360Y4333856D01*
X3949216Y4300000D01*
X3983072D01*
X4000000Y4316928D01*
Y4350784D01*
X3983072Y4367711D01*
X3966144D01*
X3949216Y4350784D01*
Y4300000D01*
X4148433Y2650000D02*
Y2717711D01*
X4165360D01*
X4233072Y2650000D01*
X4250000D01*
X4050000D02*
Y2683856D01*
Y2666928D01*
X3948433D01*
X3965360Y2650000D01*
D65*
X5081645Y364968D02*
X5048322D01*
X5064984D01*
Y281661D01*
X5048322Y265000D01*
X5031661D01*
X5015000Y281661D01*
X5181612Y348306D02*
X5164951Y364968D01*
X5131629D01*
X5114967Y348306D01*
Y281661D01*
X5131629Y265000D01*
X5164951D01*
X5181612Y281661D01*
X5081645Y2664967D02*
X5048322D01*
X5064984D01*
Y2581661D01*
X5048322Y2565000D01*
X5031661D01*
X5015000Y2581661D01*
X5114967Y2664967D02*
Y2565000D01*
X5164951D01*
X5181612Y2581661D01*
Y2648306D01*
X5164951Y2664967D01*
X5114967D01*
X5081645Y4964967D02*
X5048322D01*
X5064984D01*
Y4881661D01*
X5048322Y4865000D01*
X5031661D01*
X5015000Y4881661D01*
X5181612Y4964967D02*
X5114967D01*
Y4865000D01*
X5181612D01*
X5114967Y4914984D02*
X5148290D01*
X3765000Y7915000D02*
Y7981645D01*
X3798322Y8014967D01*
X3831645Y7981645D01*
Y7915000D01*
Y7964984D01*
X3765000D01*
X3864968Y8014967D02*
Y7915000D01*
X3931613D01*
X3964935Y8014967D02*
X3998258D01*
X3981597D01*
Y7915000D01*
X3964935D01*
X3998258D01*
X4048242D02*
Y8014967D01*
X4081564Y7981645D01*
X4114887Y8014967D01*
Y7915000D01*
X4248177Y8014967D02*
Y7915000D01*
Y7964984D01*
X4314822D01*
Y8014967D01*
Y7915000D01*
X4398129Y8014967D02*
X4364807D01*
X4348145Y7998306D01*
Y7931661D01*
X4364807Y7915000D01*
X4398129D01*
X4414790Y7931661D01*
Y7998306D01*
X4398129Y8014967D01*
X4448113D02*
Y7915000D01*
X4514758D01*
X4598065Y8014967D02*
X4564742D01*
X4548081Y7998306D01*
Y7931661D01*
X4564742Y7915000D01*
X4598065D01*
X4614726Y7931661D01*
Y7998306D01*
X4598065Y8014967D01*
X3741685Y8199984D02*
X3708363D01*
X3725024D01*
Y8116677D01*
X3708363Y8100016D01*
X3691702D01*
X3675040Y8116677D01*
X3775008Y8100016D02*
X3808331D01*
X3791670D01*
Y8199984D01*
X3775008Y8183322D01*
X3924960Y8100016D02*
X3858315D01*
X3924960Y8166661D01*
Y8183322D01*
X3908299Y8199984D01*
X3874976D01*
X3858315Y8183322D01*
X3658347Y7499984D02*
X3625024D01*
X3641686D01*
Y7416678D01*
X3625024Y7400016D01*
X3608363D01*
X3591702Y7416678D01*
X3691670Y7400016D02*
X3724992D01*
X3708331D01*
Y7499984D01*
X3691670Y7483323D01*
X3774976Y7400016D02*
X3808298D01*
X3791637D01*
Y7499984D01*
X3774976Y7483323D01*
X4799645Y2084348D02*
X4766322D01*
X4782984D01*
Y2001041D01*
X4766322Y1984380D01*
X4749661D01*
X4733000Y2001041D01*
X4832968Y2067686D02*
X4849629Y2084348D01*
X4882952D01*
X4899613Y2067686D01*
Y2051025D01*
X4882952Y2034364D01*
X4866290D01*
X4882952D01*
X4899613Y2017703D01*
Y2001041D01*
X4882952Y1984380D01*
X4849629D01*
X4832968Y2001041D01*
X4982919Y1984380D02*
Y2084348D01*
X4932936Y2034364D01*
X4999581D01*
X4799645Y4383048D02*
X4766322D01*
X4782984D01*
Y4299741D01*
X4766322Y4283080D01*
X4749661D01*
X4733000Y4299741D01*
X4899613Y4283080D02*
X4832968D01*
X4899613Y4349725D01*
Y4366386D01*
X4882952Y4383048D01*
X4849629D01*
X4832968Y4366386D01*
X4999581Y4383048D02*
X4966258Y4366386D01*
X4932936Y4333064D01*
Y4299741D01*
X4949597Y4283080D01*
X4982919D01*
X4999581Y4299741D01*
Y4316403D01*
X4982919Y4333064D01*
X4932936D01*
X4799645Y6684288D02*
X4766322D01*
X4782984D01*
Y6600981D01*
X4766322Y6584320D01*
X4749661D01*
X4733000Y6600981D01*
X4832968Y6584320D02*
X4866290D01*
X4849629D01*
Y6684288D01*
X4832968Y6667626D01*
X4966258Y6584320D02*
Y6684288D01*
X4916274Y6634304D01*
X4982919D01*
X3333355Y2833323D02*
X3316694Y2849984D01*
X3283371D01*
X3266710Y2833323D01*
Y2766677D01*
X3283371Y2750016D01*
X3316694D01*
X3333355Y2766677D01*
X3433323Y2750016D02*
X3366678D01*
X3433323Y2816661D01*
Y2833323D01*
X3416661Y2849984D01*
X3383339D01*
X3366678Y2833323D01*
X3516629Y2750016D02*
Y2849984D01*
X3466645Y2800000D01*
X3533290D01*
X3283355Y783323D02*
X3266693Y799984D01*
X3233371D01*
X3216710Y783323D01*
Y716678D01*
X3233371Y700016D01*
X3266693D01*
X3283355Y716678D01*
X3383322Y700016D02*
X3316677D01*
X3383322Y766661D01*
Y783323D01*
X3366661Y799984D01*
X3333339D01*
X3316677Y783323D01*
X3416645D02*
X3433307Y799984D01*
X3466629D01*
X3483290Y783323D01*
Y766661D01*
X3466629Y750000D01*
X3449968D01*
X3466629D01*
X3483290Y733339D01*
Y716678D01*
X3466629Y700016D01*
X3433307D01*
X3416645Y716678D01*
X1616693Y7599984D02*
Y7500016D01*
X1666677D01*
X1683339Y7516677D01*
Y7583322D01*
X1666677Y7599984D01*
X1616693D01*
X1766645Y7500016D02*
Y7599984D01*
X1716661Y7550000D01*
X1783306D01*
X683371Y6299984D02*
Y6216677D01*
X700032Y6200016D01*
X733355D01*
X750016Y6216677D01*
Y6299984D01*
X849984D02*
X816661Y6283322D01*
X783339Y6250000D01*
Y6216677D01*
X800000Y6200016D01*
X833323D01*
X849984Y6216677D01*
Y6233339D01*
X833323Y6250000D01*
X783339D01*
X883307Y6200016D02*
X916629D01*
X899968D01*
Y6299984D01*
X883307Y6283322D01*
X1083371Y5699984D02*
Y5600016D01*
X1150016D01*
X1249984Y5699984D02*
X1216661Y5683322D01*
X1183339Y5650000D01*
Y5616677D01*
X1200000Y5600016D01*
X1233323D01*
X1249984Y5616677D01*
Y5633338D01*
X1233323Y5650000D01*
X1183339D01*
X1283307Y5600016D02*
X1316629D01*
X1299968D01*
Y5699984D01*
X1283307Y5683322D01*
X850016Y7133323D02*
X833355Y7149984D01*
X800032D01*
X783371Y7133323D01*
Y7066678D01*
X800032Y7050016D01*
X833355D01*
X850016Y7066678D01*
X949984Y7149984D02*
X916661Y7133323D01*
X883339Y7100000D01*
Y7066678D01*
X900000Y7050016D01*
X933323D01*
X949984Y7066678D01*
Y7083339D01*
X933323Y7100000D01*
X883339D01*
X983307Y7050016D02*
X1016629D01*
X999968D01*
Y7149984D01*
X983307Y7133323D01*
X1883323Y6866629D02*
X1899984Y6883290D01*
Y6916612D01*
X1883323Y6933274D01*
X1816678D01*
X1800016Y6916612D01*
Y6883290D01*
X1816678Y6866629D01*
X1899984Y6766661D02*
X1883323Y6799983D01*
X1850000Y6833306D01*
X1816678D01*
X1800016Y6816644D01*
Y6783322D01*
X1816678Y6766661D01*
X1833339D01*
X1850000Y6783322D01*
Y6833306D01*
X1800016Y6666693D02*
Y6733338D01*
X1866661Y6666693D01*
X1883323D01*
X1899984Y6683354D01*
Y6716677D01*
X1883323Y6733338D01*
X1800016Y6566725D02*
Y6633370D01*
X1866661Y6566725D01*
X1883323D01*
X1899984Y6583386D01*
Y6616709D01*
X1883323Y6633370D01*
X1200032Y6333323D02*
X1183371Y6349984D01*
X1150048D01*
X1133387Y6333323D01*
Y6266678D01*
X1150048Y6250016D01*
X1183371D01*
X1200032Y6266678D01*
X1300000Y6349984D02*
X1266677Y6333323D01*
X1233355Y6300000D01*
Y6266678D01*
X1250016Y6250016D01*
X1283339D01*
X1300000Y6266678D01*
Y6283339D01*
X1283339Y6300000D01*
X1233355D01*
X1399968Y6250016D02*
X1333323D01*
X1399968Y6316661D01*
Y6333323D01*
X1383307Y6349984D01*
X1349984D01*
X1333323Y6333323D01*
X1433291Y6250016D02*
X1466613D01*
X1449952D01*
Y6349984D01*
X1433291Y6333323D01*
X133323Y6266645D02*
X149984Y6283306D01*
Y6316629D01*
X133323Y6333290D01*
X66678D01*
X50016Y6316629D01*
Y6283306D01*
X66678Y6266645D01*
X149984Y6166677D02*
X133323Y6200000D01*
X100000Y6233322D01*
X66678D01*
X50016Y6216661D01*
Y6183338D01*
X66678Y6166677D01*
X83339D01*
X100000Y6183338D01*
Y6233322D01*
X133323Y6133355D02*
X149984Y6116693D01*
Y6083371D01*
X133323Y6066709D01*
X116661D01*
X100000Y6083371D01*
Y6100032D01*
Y6083371D01*
X83339Y6066709D01*
X66678D01*
X50016Y6083371D01*
Y6116693D01*
X66678Y6133355D01*
X100016Y5699984D02*
X66694D01*
X83355D01*
Y5616677D01*
X66694Y5600016D01*
X50032D01*
X33371Y5616677D01*
X199984Y5699984D02*
X133339D01*
Y5650000D01*
X166661Y5666661D01*
X183323D01*
X199984Y5650000D01*
Y5616677D01*
X183323Y5600016D01*
X150000D01*
X133339Y5616677D01*
X233307Y5600016D02*
X266629D01*
X249968D01*
Y5699984D01*
X233307Y5683322D01*
X2299984Y3416645D02*
Y3449967D01*
Y3433306D01*
X2216677D01*
X2200016Y3449967D01*
Y3466629D01*
X2216677Y3483290D01*
X2299984Y3316677D02*
Y3383322D01*
X2250000D01*
X2266661Y3350000D01*
Y3333338D01*
X2250000Y3316677D01*
X2216677D01*
X2200016Y3333338D01*
Y3366661D01*
X2216677Y3383322D01*
X2200016Y3216709D02*
Y3283354D01*
X2266661Y3216709D01*
X2283322D01*
X2299984Y3233370D01*
Y3266693D01*
X2283322Y3283354D01*
X3233355Y1999984D02*
X3200032D01*
X3216694D01*
Y1916677D01*
X3200032Y1900016D01*
X3183371D01*
X3166710Y1916677D01*
X3333323Y1999984D02*
X3266677D01*
Y1950000D01*
X3300000Y1966661D01*
X3316661D01*
X3333323Y1950000D01*
Y1916677D01*
X3316661Y1900016D01*
X3283339D01*
X3266677Y1916677D01*
X3416629Y1900016D02*
Y1999984D01*
X3366645Y1950000D01*
X3433290D01*
X1333355Y5999984D02*
X1300032D01*
X1316694D01*
Y5916678D01*
X1300032Y5900016D01*
X1283371D01*
X1266710Y5916678D01*
X1433323Y5999984D02*
X1366677D01*
Y5950000D01*
X1400000Y5966661D01*
X1416661D01*
X1433323Y5950000D01*
Y5916678D01*
X1416661Y5900016D01*
X1383339D01*
X1366677Y5916678D01*
X1466645Y5983323D02*
X1483307Y5999984D01*
X1516629D01*
X1533290Y5983323D01*
Y5966661D01*
X1516629Y5950000D01*
X1499968D01*
X1516629D01*
X1533290Y5933339D01*
Y5916678D01*
X1516629Y5900016D01*
X1483307D01*
X1466645Y5916678D01*
X2149984Y7408314D02*
Y7441637D01*
Y7424975D01*
X2066678D01*
X2050016Y7441637D01*
Y7458298D01*
X2066678Y7474959D01*
X2050016Y7374991D02*
Y7341669D01*
Y7358330D01*
X2149984D01*
X2133323Y7374991D01*
Y7291685D02*
X2149984Y7275024D01*
Y7241701D01*
X2133323Y7225040D01*
X2116661D01*
X2100000Y7241701D01*
Y7258362D01*
Y7241701D01*
X2083339Y7225040D01*
X2066678D01*
X2050016Y7241701D01*
Y7275024D01*
X2066678Y7291685D01*
X1650016Y733323D02*
X1633355Y749984D01*
X1600032D01*
X1583371Y733323D01*
Y666678D01*
X1600032Y650016D01*
X1633355D01*
X1650016Y666678D01*
X1749984Y650016D02*
X1683339D01*
X1749984Y716661D01*
Y733323D01*
X1733323Y749984D01*
X1700000D01*
X1683339Y733323D01*
X1783307Y650016D02*
X1816629D01*
X1799968D01*
Y749984D01*
X1783307Y733323D01*
X1633371Y1399984D02*
Y1316678D01*
X1650033Y1300016D01*
X1683355D01*
X1700016Y1316678D01*
Y1399984D01*
X1799984Y1300016D02*
X1733339D01*
X1799984Y1366661D01*
Y1383323D01*
X1783323Y1399984D01*
X1750000D01*
X1733339Y1383323D01*
X1833307Y1300016D02*
X1866629D01*
X1849968D01*
Y1399984D01*
X1833307Y1383323D01*
X3416710Y1199984D02*
Y1116677D01*
X3433371Y1100016D01*
X3466694D01*
X3483355Y1116677D01*
Y1199984D01*
X3583323Y1100016D02*
X3516677D01*
X3583323Y1166661D01*
Y1183323D01*
X3566661Y1199984D01*
X3533339D01*
X3516677Y1183323D01*
X3616645D02*
X3633307Y1199984D01*
X3666629D01*
X3683290Y1183323D01*
Y1166661D01*
X3666629Y1150000D01*
X3649968D01*
X3666629D01*
X3683290Y1133339D01*
Y1116677D01*
X3666629Y1100016D01*
X3633307D01*
X3616645Y1116677D01*
X2083355Y1833322D02*
X2066694Y1849984D01*
X2033371D01*
X2016710Y1833322D01*
Y1766677D01*
X2033371Y1750016D01*
X2066694D01*
X2083355Y1766677D01*
X2183323Y1750016D02*
X2116678D01*
X2183323Y1816661D01*
Y1833322D01*
X2166661Y1849984D01*
X2133339D01*
X2116678Y1833322D01*
X2283290Y1750016D02*
X2216645D01*
X2283290Y1816661D01*
Y1833322D01*
X2266629Y1849984D01*
X2233307D01*
X2216645Y1833322D01*
X2366710Y2149984D02*
Y2066678D01*
X2383371Y2050016D01*
X2416694D01*
X2433355Y2066678D01*
Y2149984D01*
X2533323Y2050016D02*
X2466678D01*
X2533323Y2116661D01*
Y2133323D01*
X2516661Y2149984D01*
X2483339D01*
X2466678Y2133323D01*
X2633290Y2050016D02*
X2566645D01*
X2633290Y2116661D01*
Y2133323D01*
X2616629Y2149984D01*
X2583307D01*
X2566645Y2133323D01*
X3316710Y2199984D02*
Y2116678D01*
X3333371Y2100016D01*
X3366694D01*
X3383355Y2116678D01*
Y2199984D01*
X3483322Y2100016D02*
X3416677D01*
X3483322Y2166661D01*
Y2183323D01*
X3466661Y2199984D01*
X3433339D01*
X3416677Y2183323D01*
X3566629Y2100016D02*
Y2199984D01*
X3516645Y2150000D01*
X3583290D01*
X3433371Y5499984D02*
Y5416677D01*
X3450032Y5400016D01*
X3483355D01*
X3500016Y5416677D01*
Y5499984D01*
X3533339Y5483322D02*
X3550000Y5499984D01*
X3583323D01*
X3599984Y5483322D01*
Y5466661D01*
X3583323Y5450000D01*
X3566661D01*
X3583323D01*
X3599984Y5433338D01*
Y5416677D01*
X3583323Y5400016D01*
X3550000D01*
X3533339Y5416677D01*
X3633307Y5400016D02*
X3666629D01*
X3649968D01*
Y5499984D01*
X3633307Y5483322D01*
X3083355Y6183322D02*
X3066694Y6199984D01*
X3033371D01*
X3016710Y6183322D01*
Y6116677D01*
X3033371Y6100016D01*
X3066694D01*
X3083355Y6116677D01*
X3116678Y6183322D02*
X3133339Y6199984D01*
X3166661D01*
X3183323Y6183322D01*
Y6166661D01*
X3166661Y6150000D01*
X3150000D01*
X3166661D01*
X3183323Y6133339D01*
Y6116677D01*
X3166661Y6100016D01*
X3133339D01*
X3116678Y6116677D01*
X3266629Y6100016D02*
Y6199984D01*
X3216645Y6150000D01*
X3283290D01*
X2733355Y6183322D02*
X2716694Y6199984D01*
X2683371D01*
X2666710Y6183322D01*
Y6116677D01*
X2683371Y6100016D01*
X2716694D01*
X2733355Y6116677D01*
X2766677Y6183322D02*
X2783339Y6199984D01*
X2816661D01*
X2833323Y6183322D01*
Y6166661D01*
X2816661Y6150000D01*
X2800000D01*
X2816661D01*
X2833323Y6133339D01*
Y6116677D01*
X2816661Y6100016D01*
X2783339D01*
X2766677Y6116677D01*
X2866645Y6183322D02*
X2883307Y6199984D01*
X2916629D01*
X2933290Y6183322D01*
Y6166661D01*
X2916629Y6150000D01*
X2899968D01*
X2916629D01*
X2933290Y6133339D01*
Y6116677D01*
X2916629Y6100016D01*
X2883307D01*
X2866645Y6116677D01*
X2383355Y6183322D02*
X2366694Y6199984D01*
X2333371D01*
X2316710Y6183322D01*
Y6116677D01*
X2333371Y6100016D01*
X2366694D01*
X2383355Y6116677D01*
X2416677Y6183322D02*
X2433339Y6199984D01*
X2466661D01*
X2483322Y6183322D01*
Y6166661D01*
X2466661Y6150000D01*
X2450000D01*
X2466661D01*
X2483322Y6133339D01*
Y6116677D01*
X2466661Y6100016D01*
X2433339D01*
X2416677Y6116677D01*
X2583290Y6100016D02*
X2516645D01*
X2583290Y6166661D01*
Y6183322D01*
X2566629Y6199984D01*
X2533307D01*
X2516645Y6183322D01*
X2533323Y5449984D02*
X2549984Y5466645D01*
Y5499967D01*
X2533323Y5516629D01*
X2466678D01*
X2450016Y5499967D01*
Y5466645D01*
X2466678Y5449984D01*
X2533323Y5416661D02*
X2549984Y5400000D01*
Y5366677D01*
X2533323Y5350016D01*
X2516661D01*
X2500000Y5366677D01*
Y5383338D01*
Y5366677D01*
X2483339Y5350016D01*
X2466678D01*
X2450016Y5366677D01*
Y5400000D01*
X2466678Y5416661D01*
X2450016Y5316693D02*
Y5283371D01*
Y5300032D01*
X2549984D01*
X2533323Y5316693D01*
X1133355Y2849984D02*
X1100032D01*
X1116693D01*
Y2766677D01*
X1100032Y2750016D01*
X1083371D01*
X1066710Y2766677D01*
X1233322Y2750016D02*
X1166677D01*
X1233322Y2816661D01*
Y2833323D01*
X1216661Y2849984D01*
X1183339D01*
X1166677Y2833323D01*
X1333290Y2750016D02*
X1266645D01*
X1333290Y2816661D01*
Y2833323D01*
X1316629Y2849984D01*
X1283307D01*
X1266645Y2833323D01*
X3586425Y5238081D02*
Y5304727D01*
X3569764Y5321388D01*
X3536441D01*
X3519780Y5304727D01*
Y5238081D01*
X3536441Y5221420D01*
X3569764D01*
X3553102Y5254743D02*
X3586425Y5221420D01*
X3569764D02*
X3586425Y5238081D01*
X3686393Y5321388D02*
X3619748D01*
Y5271404D01*
X3653070Y5288065D01*
X3669732D01*
X3686393Y5271404D01*
Y5238081D01*
X3669732Y5221420D01*
X3636409D01*
X3619748Y5238081D01*
X3786360Y5321388D02*
X3753038Y5304727D01*
X3719715Y5271404D01*
Y5238081D01*
X3736377Y5221420D01*
X3769699D01*
X3786360Y5238081D01*
Y5254743D01*
X3769699Y5271404D01*
X3719715D01*
X1833355Y5066677D02*
Y5133322D01*
X1816694Y5149984D01*
X1783371D01*
X1766710Y5133322D01*
Y5066677D01*
X1783371Y5050016D01*
X1816694D01*
X1800032Y5083339D02*
X1833355Y5050016D01*
X1816694D02*
X1833355Y5066677D01*
X1933323Y5149984D02*
X1866677D01*
Y5100000D01*
X1900000Y5116661D01*
X1916661D01*
X1933323Y5100000D01*
Y5066677D01*
X1916661Y5050016D01*
X1883339D01*
X1866677Y5066677D01*
X2033290Y5149984D02*
X1966645D01*
Y5100000D01*
X1999968Y5116661D01*
X2016629D01*
X2033290Y5100000D01*
Y5066677D01*
X2016629Y5050016D01*
X1983307D01*
X1966645Y5066677D01*
X2733355Y5116678D02*
Y5183323D01*
X2716694Y5199984D01*
X2683371D01*
X2666710Y5183323D01*
Y5116678D01*
X2683371Y5100016D01*
X2716694D01*
X2700032Y5133339D02*
X2733355Y5100016D01*
X2716694D02*
X2733355Y5116678D01*
X2833323Y5199984D02*
X2766677D01*
Y5150000D01*
X2800000Y5166661D01*
X2816661D01*
X2833323Y5150000D01*
Y5116678D01*
X2816661Y5100016D01*
X2783339D01*
X2766677Y5116678D01*
X2916629Y5100016D02*
Y5199984D01*
X2866645Y5150000D01*
X2933290D01*
X683355Y5116678D02*
Y5183323D01*
X666694Y5199984D01*
X633371D01*
X616710Y5183323D01*
Y5116678D01*
X633371Y5100016D01*
X666694D01*
X650032Y5133339D02*
X683355Y5100016D01*
X666694D02*
X683355Y5116678D01*
X783323Y5199984D02*
X716678D01*
Y5150000D01*
X750000Y5166661D01*
X766661D01*
X783323Y5150000D01*
Y5116678D01*
X766661Y5100016D01*
X733339D01*
X716678Y5116678D01*
X816645Y5183323D02*
X833307Y5199984D01*
X866629D01*
X883290Y5183323D01*
Y5166661D01*
X866629Y5150000D01*
X849968D01*
X866629D01*
X883290Y5133339D01*
Y5116678D01*
X866629Y5100016D01*
X833307D01*
X816645Y5116678D01*
X2933355Y4316678D02*
Y4383323D01*
X2916693Y4399984D01*
X2883371D01*
X2866710Y4383323D01*
Y4316678D01*
X2883371Y4300016D01*
X2916693D01*
X2900032Y4333339D02*
X2933355Y4300016D01*
X2916693D02*
X2933355Y4316678D01*
X3033322Y4399984D02*
X2966677D01*
Y4350000D01*
X3000000Y4366661D01*
X3016661D01*
X3033322Y4350000D01*
Y4316678D01*
X3016661Y4300016D01*
X2983339D01*
X2966677Y4316678D01*
X3133290Y4300016D02*
X3066645D01*
X3133290Y4366661D01*
Y4383323D01*
X3116629Y4399984D01*
X3083307D01*
X3066645Y4383323D01*
X1050016Y3916677D02*
Y3983322D01*
X1033355Y3999984D01*
X1000033D01*
X983371Y3983322D01*
Y3916677D01*
X1000033Y3900016D01*
X1033355D01*
X1016694Y3933339D02*
X1050016Y3900016D01*
X1033355D02*
X1050016Y3916677D01*
X1149984Y3999984D02*
X1083339D01*
Y3950000D01*
X1116661Y3966661D01*
X1133323D01*
X1149984Y3950000D01*
Y3916677D01*
X1133323Y3900016D01*
X1100000D01*
X1083339Y3916677D01*
X1183307Y3900016D02*
X1216629D01*
X1199968D01*
Y3999984D01*
X1183307Y3983322D01*
X3583355Y6416678D02*
Y6483323D01*
X3566694Y6499984D01*
X3533371D01*
X3516710Y6483323D01*
Y6416678D01*
X3533371Y6400016D01*
X3566694D01*
X3550032Y6433339D02*
X3583355Y6400016D01*
X3566694D02*
X3583355Y6416678D01*
X3666661Y6400016D02*
Y6499984D01*
X3616678Y6450000D01*
X3683323D01*
X3716645Y6483323D02*
X3733307Y6499984D01*
X3766629D01*
X3783290Y6483323D01*
Y6466661D01*
X3766629Y6450000D01*
X3749968D01*
X3766629D01*
X3783290Y6433339D01*
Y6416678D01*
X3766629Y6400016D01*
X3733307D01*
X3716645Y6416678D01*
X3137355Y7461677D02*
Y7528323D01*
X3120694Y7544984D01*
X3087371D01*
X3070710Y7528323D01*
Y7461677D01*
X3087371Y7445016D01*
X3120694D01*
X3104032Y7478339D02*
X3137355Y7445016D01*
X3120694D02*
X3137355Y7461677D01*
X3220661Y7445016D02*
Y7544984D01*
X3170677Y7495000D01*
X3237322D01*
X3337290Y7445016D02*
X3270645D01*
X3337290Y7511661D01*
Y7528323D01*
X3320629Y7544984D01*
X3287307D01*
X3270645Y7528323D01*
X2900016Y7016678D02*
Y7083323D01*
X2883355Y7099984D01*
X2850032D01*
X2833371Y7083323D01*
Y7016678D01*
X2850032Y7000016D01*
X2883355D01*
X2866694Y7033339D02*
X2900016Y7000016D01*
X2883355D02*
X2900016Y7016678D01*
X2983323Y7000016D02*
Y7099984D01*
X2933339Y7050000D01*
X2999984D01*
X3033307Y7000016D02*
X3066629D01*
X3049968D01*
Y7099984D01*
X3033307Y7083323D01*
X1871925Y452208D02*
X1838602D01*
X1855264D01*
Y368901D01*
X1838602Y352240D01*
X1821941D01*
X1805280Y368901D01*
X1905248Y435547D02*
X1921909Y452208D01*
X1955232D01*
X1971893Y435547D01*
Y418885D01*
X1955232Y402224D01*
X1938570D01*
X1955232D01*
X1971893Y385563D01*
Y368901D01*
X1955232Y352240D01*
X1921909D01*
X1905248Y368901D01*
X2005215Y435547D02*
X2021877Y452208D01*
X2055199D01*
X2071860Y435547D01*
Y418885D01*
X2055199Y402224D01*
X2038538D01*
X2055199D01*
X2071860Y385563D01*
Y368901D01*
X2055199Y352240D01*
X2021877D01*
X2005215Y368901D01*
X799984Y816645D02*
Y849968D01*
Y833306D01*
X716677D01*
X700016Y849968D01*
Y866629D01*
X716677Y883290D01*
X783322Y783322D02*
X799984Y766661D01*
Y733338D01*
X783322Y716677D01*
X766661D01*
X750000Y733338D01*
Y750000D01*
Y733338D01*
X733338Y716677D01*
X716677D01*
X700016Y733338D01*
Y766661D01*
X716677Y783322D01*
X700016Y616709D02*
Y683354D01*
X766661Y616709D01*
X783322D01*
X799984Y633371D01*
Y666693D01*
X783322Y683354D01*
X3070805Y452208D02*
X3037482D01*
X3054144D01*
Y368901D01*
X3037482Y352240D01*
X3020821D01*
X3004160Y368901D01*
X3104128Y435547D02*
X3120789Y452208D01*
X3154112D01*
X3170773Y435547D01*
Y418885D01*
X3154112Y402224D01*
X3137450D01*
X3154112D01*
X3170773Y385563D01*
Y368901D01*
X3154112Y352240D01*
X3120789D01*
X3104128Y368901D01*
X3204095Y352240D02*
X3237418D01*
X3220757D01*
Y452208D01*
X3204095Y435547D01*
X799984Y1666645D02*
Y1699968D01*
Y1683307D01*
X716678D01*
X700016Y1699968D01*
Y1716629D01*
X716678Y1733290D01*
X700016Y1566678D02*
Y1633323D01*
X766661Y1566678D01*
X783323D01*
X799984Y1583339D01*
Y1616661D01*
X783323Y1633323D01*
X799984Y1466710D02*
Y1533355D01*
X750000D01*
X766661Y1500032D01*
Y1483371D01*
X750000Y1466710D01*
X716678D01*
X700016Y1483371D01*
Y1516693D01*
X716678Y1533355D01*
X799984Y1316645D02*
Y1349968D01*
Y1333306D01*
X716677D01*
X700016Y1349968D01*
Y1366629D01*
X716677Y1383290D01*
X700016Y1216677D02*
Y1283322D01*
X766661Y1216677D01*
X783322D01*
X799984Y1233338D01*
Y1266661D01*
X783322Y1283322D01*
X700016Y1133371D02*
X799984D01*
X750000Y1183355D01*
Y1116709D01*
X93925Y3068408D02*
X60602D01*
X77264D01*
Y2985101D01*
X60602Y2968440D01*
X43941D01*
X27280Y2985101D01*
X193893Y2968440D02*
X127248D01*
X193893Y3035085D01*
Y3051746D01*
X177232Y3068408D01*
X143909D01*
X127248Y3051746D01*
X227215D02*
X243877Y3068408D01*
X277199D01*
X293860Y3051746D01*
Y3035085D01*
X277199Y3018424D01*
X260538D01*
X277199D01*
X293860Y3001763D01*
Y2985101D01*
X277199Y2968440D01*
X243877D01*
X227215Y2985101D01*
X1150016Y2649984D02*
X1116693D01*
X1133355D01*
Y2566677D01*
X1116693Y2550016D01*
X1100032D01*
X1083371Y2566677D01*
X1249984Y2550016D02*
X1183339D01*
X1249984Y2616661D01*
Y2633322D01*
X1233323Y2649984D01*
X1200000D01*
X1183339Y2633322D01*
X1283307Y2550016D02*
X1316629D01*
X1299968D01*
Y2649984D01*
X1283307Y2633322D01*
X1650016Y8099984D02*
X1616693D01*
X1633355D01*
Y8016677D01*
X1616693Y8000016D01*
X1600032D01*
X1583371Y8016677D01*
X1683339Y8083322D02*
X1700000Y8099984D01*
X1733323D01*
X1749984Y8083322D01*
Y8016677D01*
X1733323Y8000016D01*
X1700000D01*
X1683339Y8016677D01*
Y8083322D01*
X1783307Y8000016D02*
X1816629D01*
X1799968D01*
Y8099984D01*
X1783307Y8083322D01*
X2716694Y6699984D02*
Y6600016D01*
X2766677D01*
X2783339Y6616677D01*
Y6683322D01*
X2766677Y6699984D01*
X2716694D01*
X2816661Y6683322D02*
X2833323Y6699984D01*
X2866645D01*
X2883306Y6683322D01*
Y6666661D01*
X2866645Y6650000D01*
X2849984D01*
X2866645D01*
X2883306Y6633339D01*
Y6616677D01*
X2866645Y6600016D01*
X2833323D01*
X2816661Y6616677D01*
X2716694Y7499984D02*
Y7400016D01*
X2766677D01*
X2783339Y7416678D01*
Y7483323D01*
X2766677Y7499984D01*
X2716694D01*
X2883306Y7400016D02*
X2816661D01*
X2883306Y7466661D01*
Y7483323D01*
X2866645Y7499984D01*
X2833323D01*
X2816661Y7483323D01*
X2633355Y7099984D02*
Y7000016D01*
X2683339D01*
X2700000Y7016678D01*
Y7083323D01*
X2683339Y7099984D01*
X2633355D01*
X2733323Y7000016D02*
X2766645D01*
X2749984D01*
Y7099984D01*
X2733323Y7083323D01*
X3833322Y3808298D02*
X3849984Y3824959D01*
Y3858282D01*
X3833322Y3874943D01*
X3766677D01*
X3750016Y3858282D01*
Y3824959D01*
X3766677Y3808298D01*
X3849984Y3708330D02*
Y3774975D01*
X3800000D01*
X3816661Y3741653D01*
Y3724992D01*
X3800000Y3708330D01*
X3766677D01*
X3750016Y3724992D01*
Y3758314D01*
X3766677Y3774975D01*
X3750016Y3675008D02*
Y3641685D01*
Y3658346D01*
X3849984D01*
X3833322Y3675008D01*
X3750016Y3525056D02*
Y3591701D01*
X3816661Y3525056D01*
X3833322D01*
X3849984Y3541717D01*
Y3575040D01*
X3833322Y3591701D01*
X4233323Y4791637D02*
X4249984Y4808298D01*
Y4841620D01*
X4233323Y4858282D01*
X4166678D01*
X4150016Y4841620D01*
Y4808298D01*
X4166678Y4791637D01*
X4249984Y4691669D02*
Y4758314D01*
X4200000D01*
X4216661Y4724992D01*
Y4708330D01*
X4200000Y4691669D01*
X4166678D01*
X4150016Y4708330D01*
Y4741653D01*
X4166678Y4758314D01*
X4150016Y4658346D02*
Y4625024D01*
Y4641685D01*
X4249984D01*
X4233323Y4658346D01*
X4150016Y4575040D02*
Y4541717D01*
Y4558378D01*
X4249984D01*
X4233323Y4575040D01*
X3191702Y4933323D02*
X3175040Y4949984D01*
X3141718D01*
X3125056Y4933323D01*
Y4866678D01*
X3141718Y4850016D01*
X3175040D01*
X3191702Y4866678D01*
X3291669Y4949984D02*
X3225024D01*
Y4900000D01*
X3258347Y4916661D01*
X3275008D01*
X3291669Y4900000D01*
Y4866678D01*
X3275008Y4850016D01*
X3241686D01*
X3225024Y4866678D01*
X3324992Y4850016D02*
X3358315D01*
X3341653D01*
Y4949984D01*
X3324992Y4933323D01*
X3408298D02*
X3424960Y4949984D01*
X3458282D01*
X3474944Y4933323D01*
Y4866678D01*
X3458282Y4850016D01*
X3424960D01*
X3408298Y4866678D01*
Y4933323D01*
X1783323Y3716645D02*
X1799984Y3733306D01*
Y3766629D01*
X1783323Y3783290D01*
X1716678D01*
X1700016Y3766629D01*
Y3733306D01*
X1716678Y3716645D01*
X1799984Y3616678D02*
Y3683323D01*
X1750000D01*
X1766661Y3650000D01*
Y3633339D01*
X1750000Y3616678D01*
X1716678D01*
X1700016Y3633339D01*
Y3666661D01*
X1716678Y3683323D01*
Y3583355D02*
X1700016Y3566693D01*
Y3533371D01*
X1716678Y3516710D01*
X1783323D01*
X1799984Y3533371D01*
Y3566693D01*
X1783323Y3583355D01*
X1766661D01*
X1750000Y3566693D01*
Y3516710D01*
X1883355Y4933323D02*
X1866693Y4949984D01*
X1833371D01*
X1816710Y4933323D01*
Y4866678D01*
X1833371Y4850016D01*
X1866693D01*
X1883355Y4866678D01*
X1983322Y4949984D02*
X1916677D01*
Y4900000D01*
X1950000Y4916661D01*
X1966661D01*
X1983322Y4900000D01*
Y4866678D01*
X1966661Y4850016D01*
X1933339D01*
X1916677Y4866678D01*
X2016645Y4933323D02*
X2033307Y4949984D01*
X2066629D01*
X2083290Y4933323D01*
Y4916661D01*
X2066629Y4900000D01*
X2083290Y4883339D01*
Y4866678D01*
X2066629Y4850016D01*
X2033307D01*
X2016645Y4866678D01*
Y4883339D01*
X2033307Y4900000D01*
X2016645Y4916661D01*
Y4933323D01*
X2033307Y4900000D02*
X2066629D01*
X1283355Y4883322D02*
X1266694Y4899984D01*
X1233371D01*
X1216710Y4883322D01*
Y4816677D01*
X1233371Y4800016D01*
X1266694D01*
X1283355Y4816677D01*
X1383323Y4899984D02*
X1316678D01*
Y4850000D01*
X1350000Y4866661D01*
X1366661D01*
X1383323Y4850000D01*
Y4816677D01*
X1366661Y4800016D01*
X1333339D01*
X1316678Y4816677D01*
X1416645Y4899984D02*
X1483290D01*
Y4883322D01*
X1416645Y4816677D01*
Y4800016D01*
X2433323Y3716645D02*
X2449984Y3733306D01*
Y3766629D01*
X2433323Y3783290D01*
X2366678D01*
X2350016Y3766629D01*
Y3733306D01*
X2366678Y3716645D01*
X2449984Y3616677D02*
Y3683322D01*
X2400000D01*
X2416661Y3650000D01*
Y3633338D01*
X2400000Y3616677D01*
X2366678D01*
X2350016Y3633338D01*
Y3666661D01*
X2366678Y3683322D01*
X2449984Y3516710D02*
X2433323Y3550032D01*
X2400000Y3583355D01*
X2366678D01*
X2350016Y3566693D01*
Y3533371D01*
X2366678Y3516710D01*
X2383339D01*
X2400000Y3533371D01*
Y3583355D01*
X2133355Y4333323D02*
X2116694Y4349984D01*
X2083371D01*
X2066710Y4333323D01*
Y4266678D01*
X2083371Y4250016D01*
X2116694D01*
X2133355Y4266678D01*
X2233322Y4349984D02*
X2166677D01*
Y4300000D01*
X2200000Y4316661D01*
X2216661D01*
X2233322Y4300000D01*
Y4266678D01*
X2216661Y4250016D01*
X2183339D01*
X2166677Y4266678D01*
X2333290Y4349984D02*
X2266645D01*
Y4300000D01*
X2299968Y4316661D01*
X2316629D01*
X2333290Y4300000D01*
Y4266678D01*
X2316629Y4250016D01*
X2283307D01*
X2266645Y4266678D01*
X2833355Y4933323D02*
X2816694Y4949984D01*
X2783371D01*
X2766710Y4933323D01*
Y4866678D01*
X2783371Y4850016D01*
X2816694D01*
X2833355Y4866678D01*
X2933323Y4949984D02*
X2866678D01*
Y4900000D01*
X2900000Y4916661D01*
X2916661D01*
X2933323Y4900000D01*
Y4866678D01*
X2916661Y4850016D01*
X2883339D01*
X2866678Y4866678D01*
X3016629Y4850016D02*
Y4949984D01*
X2966645Y4900000D01*
X3033290D01*
X183355Y3783323D02*
X166694Y3799984D01*
X133371D01*
X116710Y3783323D01*
Y3716678D01*
X133371Y3700016D01*
X166694D01*
X183355Y3716678D01*
X283323Y3799984D02*
X216677D01*
Y3750000D01*
X250000Y3766661D01*
X266661D01*
X283323Y3750000D01*
Y3716678D01*
X266661Y3700016D01*
X233339D01*
X216677Y3716678D01*
X316645Y3783323D02*
X333307Y3799984D01*
X366629D01*
X383290Y3783323D01*
Y3766661D01*
X366629Y3750000D01*
X349968D01*
X366629D01*
X383290Y3733339D01*
Y3716678D01*
X366629Y3700016D01*
X333307D01*
X316645Y3716678D01*
X133355Y4333323D02*
X116694Y4349984D01*
X83371D01*
X66710Y4333323D01*
Y4266678D01*
X83371Y4250016D01*
X116694D01*
X133355Y4266678D01*
X233323Y4349984D02*
X166678D01*
Y4300000D01*
X200000Y4316661D01*
X216661D01*
X233323Y4300000D01*
Y4266678D01*
X216661Y4250016D01*
X183339D01*
X166678Y4266678D01*
X333290Y4250016D02*
X266645D01*
X333290Y4316661D01*
Y4333323D01*
X316629Y4349984D01*
X283307D01*
X266645Y4333323D01*
X700016Y4933323D02*
X683355Y4949984D01*
X650032D01*
X633371Y4933323D01*
Y4866678D01*
X650032Y4850016D01*
X683355D01*
X700016Y4866678D01*
X799984Y4949984D02*
X733339D01*
Y4900000D01*
X766661Y4916661D01*
X783323D01*
X799984Y4900000D01*
Y4866678D01*
X783323Y4850016D01*
X750000D01*
X733339Y4866678D01*
X833307Y4850016D02*
X866629D01*
X849968D01*
Y4949984D01*
X833307Y4933323D01*
X1391685Y5333323D02*
X1375024Y5349984D01*
X1341702D01*
X1325040Y5333323D01*
Y5266678D01*
X1341702Y5250016D01*
X1375024D01*
X1391685Y5266678D01*
X1425008Y5250016D02*
X1458331D01*
X1441669D01*
Y5349984D01*
X1425008Y5333323D01*
X1508314D02*
X1524976Y5349984D01*
X1558298D01*
X1574960Y5333323D01*
Y5316661D01*
X1558298Y5300000D01*
X1541637D01*
X1558298D01*
X1574960Y5283339D01*
Y5266678D01*
X1558298Y5250016D01*
X1524976D01*
X1508314Y5266678D01*
X1391685Y5533322D02*
X1375024Y5549984D01*
X1341702D01*
X1325040Y5533322D01*
Y5466677D01*
X1341702Y5450016D01*
X1375024D01*
X1391685Y5466677D01*
X1425008Y5450016D02*
X1458331D01*
X1441669D01*
Y5549984D01*
X1425008Y5533322D01*
X1574960Y5450016D02*
X1508314D01*
X1574960Y5516661D01*
Y5533322D01*
X1558298Y5549984D01*
X1524976D01*
X1508314Y5533322D01*
X1408347Y5783322D02*
X1391686Y5799984D01*
X1358363D01*
X1341702Y5783322D01*
Y5716677D01*
X1358363Y5700016D01*
X1391686D01*
X1408347Y5716677D01*
X1441669Y5700016D02*
X1474992D01*
X1458331D01*
Y5799984D01*
X1441669Y5783322D01*
X1524976Y5700016D02*
X1558298D01*
X1541637D01*
Y5799984D01*
X1524976Y5783322D01*
%TF.MD5,7e41506cf3dd14ba546a49b5530ab9ff*%
M02*
