%TF.GenerationSoftware,Altium Limited,Altium Designer,21.2.1 (34)*%
G04 Layer_Physical_Order=2*
G04 Layer_Color=7250688*
%FSLAX45Y45*%
%MOMM*%
%TF.SameCoordinates,53973CC1-9108-4EA7-9D5E-FD48CC852793*%
%TF.FilePolarity,Positive*%
%TF.FileFunction,Copper,L2,Inr,Signal*%
%TF.Part,Single*%
G01*
G75*
%TA.AperFunction,Conductor*%
%ADD30C,0.50800*%
%TA.AperFunction,ComponentPad*%
%ADD32C,0.98500*%
%ADD33R,0.98500X0.98500*%
%ADD34R,2.00000X1.60000*%
%ADD35O,2.00000X1.60000*%
%ADD36O,1.60000X2.00000*%
%ADD37R,1.60000X2.00000*%
%ADD38O,4.00000X2.00000*%
%ADD39O,2.00000X4.00000*%
%ADD40R,1.57000X1.57000*%
%ADD41C,1.57000*%
%ADD42R,1.65000X1.65000*%
%ADD43C,1.65000*%
%ADD44R,1.57000X1.57000*%
%TA.AperFunction,ViaPad*%
%ADD45C,5.00000*%
%ADD46C,0.85000*%
G36*
X2217046Y7872980D02*
X2209586Y7865520D01*
X2200469Y7849730D01*
X2195750Y7832117D01*
Y7813883D01*
X2200469Y7796271D01*
X2209586Y7780480D01*
X2222480Y7767586D01*
X2238271Y7758469D01*
X2255883Y7753750D01*
X2274117D01*
X2291729Y7758469D01*
X2307520Y7767586D01*
X2317416Y7777483D01*
X2331217Y7777683D01*
X2332835Y7776594D01*
X2346164Y7763265D01*
X2363186Y7753438D01*
X2379299Y7749120D01*
Y7823000D01*
X2404699D01*
Y7749120D01*
X2420814Y7753438D01*
X2437836Y7763265D01*
X2447212Y7772641D01*
X2455500Y7775751D01*
X2463788Y7772641D01*
X2473164Y7763265D01*
X2490186Y7753438D01*
X2506299Y7749120D01*
Y7823000D01*
X2531699D01*
Y7749120D01*
X2547814Y7753438D01*
X2564836Y7763265D01*
X2574212Y7772641D01*
X2582500Y7775751D01*
X2590788Y7772641D01*
X2600164Y7763265D01*
X2617186Y7753438D01*
X2633299Y7749120D01*
Y7823000D01*
X2658699D01*
Y7749120D01*
X2674814Y7753438D01*
X2691836Y7763265D01*
X2705165Y7776594D01*
X2706784Y7777683D01*
X2720584Y7777483D01*
X2730480Y7767586D01*
X2746271Y7758469D01*
X2763883Y7753750D01*
X2782117D01*
X2799729Y7758469D01*
X2815520Y7767586D01*
X2828414Y7780480D01*
X2828993Y7781483D01*
X2841838Y7782376D01*
X2850000Y7773748D01*
Y7650000D01*
X2229518Y7029518D01*
X2217492Y7033600D01*
X2217426Y7034105D01*
X2207349Y7058431D01*
X2191320Y7079321D01*
X2170431Y7095350D01*
X2146105Y7105426D01*
X2120000Y7108863D01*
X2079999D01*
X2053894Y7105426D01*
X2029568Y7095350D01*
X2008679Y7079321D01*
X1992650Y7058431D01*
X1982574Y7034105D01*
X1979137Y7008000D01*
X1982574Y6981895D01*
X1992650Y6957569D01*
X2008679Y6936679D01*
X2029568Y6920650D01*
X2053894Y6910574D01*
X2079999Y6907137D01*
X2090544D01*
X2095404Y6895404D01*
X2049680Y6849680D01*
X2029568Y6841350D01*
X2008679Y6825321D01*
X1992650Y6804431D01*
X1984319Y6784319D01*
X1299999Y6099999D01*
Y5349999D01*
X1150000Y5200000D01*
Y5100000D01*
X1300000Y4950000D01*
X1550000D01*
Y4959001D01*
X1969527Y5378527D01*
X1980000Y5384000D01*
Y5384000D01*
X1980000Y5384000D01*
X2220000D01*
Y5479608D01*
X2320392Y5479608D01*
X2841553D01*
X2941482Y5379679D01*
X2936518Y5366683D01*
X2923791Y5363273D01*
X2908308Y5354334D01*
X2895666Y5341692D01*
X2886727Y5326209D01*
X2883107Y5312700D01*
X2950000D01*
Y5300000D01*
X2962700D01*
Y5233108D01*
X2976208Y5236727D01*
X2991691Y5245666D01*
X3004333Y5258309D01*
X3013273Y5273792D01*
X3016683Y5286518D01*
X3029679Y5291483D01*
X3279608Y5041553D01*
Y4508446D01*
X3203823Y4432661D01*
X3202707Y4430991D01*
X3201287Y4429571D01*
X3200518Y4427716D01*
X3199403Y4426046D01*
X3199011Y4424076D01*
X3198242Y4422220D01*
Y4420211D01*
X3197850Y4418242D01*
X3198242Y4416273D01*
Y4414264D01*
X3199011Y4412408D01*
X3199403Y4410438D01*
X3200518Y4408769D01*
X3196572Y4403428D01*
X3191232Y4399482D01*
X3189562Y4400598D01*
X3187592Y4400990D01*
X3185737Y4401759D01*
X3183730D01*
X3181759Y4402151D01*
X3179788Y4401759D01*
X3177781D01*
X3175925Y4400990D01*
X3173955Y4400598D01*
X3172285Y4399482D01*
X3170430Y4398714D01*
X3169009Y4397293D01*
X3167340Y4396178D01*
X3141553Y4370392D01*
X2970392D01*
X2968433Y4370002D01*
X2966435Y4370004D01*
X2964568Y4369234D01*
X2962588Y4368840D01*
X2961036Y4367803D01*
X2620392Y4708447D01*
Y5050000D01*
X2618840Y5057804D01*
X2614419Y5064419D01*
X2607804Y5068840D01*
X2600000Y5070392D01*
X2250001D01*
X2250000Y5070392D01*
X2242196Y5068840D01*
X2235581Y5064419D01*
X1935581Y4764419D01*
X1741553Y4570392D01*
X1550000D01*
X1542196Y4568840D01*
X1535581Y4564419D01*
X1535580Y4564419D01*
X1235581Y4264420D01*
X1231161Y4257804D01*
X1229609Y4250000D01*
X1229608Y4120392D01*
X1229608Y4120392D01*
X620392D01*
Y5650000D01*
X618840Y5657803D01*
X614419Y5664419D01*
X607804Y5668839D01*
X600000Y5670392D01*
Y6800000D01*
X1250000D01*
X1850000Y7400000D01*
Y7445018D01*
X1861734Y7449878D01*
X1864596Y7447015D01*
X1887568Y7437500D01*
X1912432D01*
X1935404Y7447015D01*
X1952985Y7464596D01*
X1962500Y7487568D01*
Y7512432D01*
X1952985Y7535404D01*
X1935404Y7552985D01*
X1912432Y7562500D01*
X1887568D01*
X1864596Y7552985D01*
X1861734Y7550122D01*
X1850000Y7554982D01*
X1850000Y7870632D01*
X1858981Y7879613D01*
X2193003Y7879611D01*
X2195619Y7880131D01*
X2198281Y7880306D01*
X2199487Y7880901D01*
X2200807Y7881163D01*
X2203025Y7882645D01*
X2205417Y7883825D01*
X2206047Y7884544D01*
X2208081Y7885642D01*
X2217760Y7886504D01*
X2217046Y7872980D01*
D02*
G37*
G36*
X3420699Y7747887D02*
X3429584Y7741069D01*
X3429585Y7508423D01*
X2219094Y6297933D01*
X2203999Y6300798D01*
X2191320Y6317321D01*
X2170431Y6333350D01*
X2146105Y6343426D01*
X2120000Y6346863D01*
X2079999D01*
X2053894Y6343426D01*
X2029568Y6333350D01*
X2008679Y6317321D01*
X1992650Y6296431D01*
X1982574Y6272105D01*
X1979137Y6246000D01*
X1982574Y6219895D01*
X1992650Y6195569D01*
X2008679Y6174679D01*
X2029568Y6158650D01*
X2052395Y6149195D01*
X2057507Y6137930D01*
X2057909Y6136748D01*
X2043837Y6122676D01*
X2043461Y6122113D01*
X2042925Y6121702D01*
X2041263Y6118824D01*
X2039416Y6116060D01*
X2039284Y6115397D01*
X2038946Y6114811D01*
X2038512Y6111515D01*
X2037864Y6108257D01*
X2037996Y6107593D01*
X2037908Y6106923D01*
X2038768Y6103714D01*
X2039416Y6100453D01*
X2039792Y6099890D01*
X2039967Y6099237D01*
X2043029Y6093029D01*
X2028627Y6078627D01*
X2008679Y6063321D01*
X1992650Y6042431D01*
X1982574Y6018105D01*
X1979137Y5992000D01*
X1982574Y5965895D01*
X1992650Y5941569D01*
X1994866Y5938680D01*
X1991764Y5923196D01*
X1990984Y5922811D01*
X1988348Y5920789D01*
X1985583Y5918942D01*
X1985207Y5918379D01*
X1984671Y5917968D01*
X1983010Y5915090D01*
X1981163Y5912326D01*
X1981031Y5911663D01*
X1980693Y5911077D01*
X1980259Y5907781D01*
X1979610Y5904522D01*
X1979609Y5817758D01*
X1980368Y5813946D01*
X1981115Y5810067D01*
X1981150Y5810015D01*
X1981162Y5809954D01*
X1983326Y5806715D01*
X1985496Y5803425D01*
X1985547Y5803390D01*
X1985582Y5803339D01*
X1987234Y5802235D01*
X1989677Y5798376D01*
X1992650Y5788431D01*
X1982574Y5764105D01*
X1979137Y5738000D01*
X1982574Y5711895D01*
X1992650Y5687569D01*
X1989685Y5677652D01*
X1987231Y5673768D01*
X1985580Y5672665D01*
X1985546Y5672613D01*
X1985496Y5672579D01*
X1983343Y5669316D01*
X1981160Y5666049D01*
X1981148Y5665989D01*
X1981114Y5665938D01*
X1980371Y5662081D01*
X1979608Y5658245D01*
X1979607Y5596537D01*
X1979607Y5592981D01*
X1979606Y5592980D01*
X1979999Y5583999D01*
X1980000Y5583999D01*
Y5416890D01*
X1978191Y5404311D01*
X1975231Y5403443D01*
X1972196Y5402840D01*
X1971434Y5402330D01*
X1970556Y5402073D01*
X1960083Y5396601D01*
X1957677Y5394664D01*
X1955108Y5392947D01*
X1535581Y4973420D01*
X1533558Y4970392D01*
X1308446D01*
X1170392Y5108447D01*
Y5191553D01*
X1314419Y5335580D01*
X1318839Y5342196D01*
X1320391Y5349999D01*
Y6091553D01*
X1633868Y6405029D01*
X1646100Y6399300D01*
X1646100Y6393105D01*
Y6312700D01*
X1737301D01*
Y6403900D01*
X1657790D01*
X1650700Y6403901D01*
X1644971Y6416132D01*
X1969415Y6740577D01*
X1981442Y6736494D01*
X1982574Y6727895D01*
X1992650Y6703569D01*
X2008679Y6682679D01*
X2029568Y6666650D01*
X2053894Y6656574D01*
X2079999Y6653137D01*
X2120000D01*
X2146105Y6656574D01*
X2170431Y6666650D01*
X2191320Y6682679D01*
X2207349Y6703569D01*
X2217426Y6727895D01*
X2220862Y6754000D01*
X2217426Y6780105D01*
X2207349Y6804431D01*
X2191320Y6825321D01*
X2170431Y6841350D01*
X2146105Y6851426D01*
X2120000Y6854863D01*
X2100295D01*
X2095434Y6866596D01*
X2109823Y6880984D01*
X2109823Y6880985D01*
X2114244Y6887600D01*
X2115796Y6895404D01*
X2116388Y6897057D01*
X2125030Y6907543D01*
X2125977Y6907924D01*
X2146105Y6910574D01*
X2170431Y6920650D01*
X2191320Y6936679D01*
X2207349Y6957569D01*
X2217426Y6981895D01*
X2219576Y6998228D01*
X2219728Y6998764D01*
X2221252Y7001336D01*
X2226145Y7005947D01*
X2230852Y7009170D01*
X2234061Y7010030D01*
X2237322Y7010678D01*
X2237884Y7011054D01*
X2238538Y7011229D01*
X2241174Y7013252D01*
X2243938Y7015099D01*
X2864419Y7635580D01*
X2868840Y7642196D01*
X2870392Y7650000D01*
Y7746093D01*
X2883092Y7755838D01*
X2890883Y7753750D01*
X2909117D01*
X2926729Y7758469D01*
X2942520Y7767586D01*
X2955414Y7780480D01*
X2957150Y7783487D01*
X2969850D01*
X2971586Y7780480D01*
X2984480Y7767586D01*
X3000271Y7758469D01*
X3017883Y7753750D01*
X3036117D01*
X3053729Y7758469D01*
X3069520Y7767586D01*
X3079416Y7777483D01*
X3093217Y7777683D01*
X3094835Y7776594D01*
X3108164Y7763265D01*
X3125186Y7753438D01*
X3141299Y7749120D01*
Y7823000D01*
X3166699D01*
Y7749120D01*
X3182814Y7753438D01*
X3199836Y7763265D01*
X3209212Y7772641D01*
X3217500Y7775751D01*
X3225788Y7772641D01*
X3235164Y7763265D01*
X3252186Y7753438D01*
X3268299Y7749120D01*
Y7823000D01*
X3293699D01*
Y7749120D01*
X3309814Y7753438D01*
X3326836Y7763265D01*
X3336212Y7772641D01*
X3344500Y7775751D01*
X3352788Y7772641D01*
X3362164Y7763265D01*
X3379186Y7753438D01*
X3395299Y7749120D01*
Y7823000D01*
X3420699D01*
Y7747887D01*
D02*
G37*
G36*
X5250000Y5520392D02*
X4307550D01*
X4299747Y5518840D01*
X4293131Y5514419D01*
X4288711Y5507804D01*
X4276560Y5508743D01*
X4266563Y5514515D01*
X4240494Y5521500D01*
X4213506D01*
X4187436Y5514515D01*
X4177439Y5508743D01*
X4165289Y5507804D01*
X4160869Y5514419D01*
X4154253Y5518840D01*
X4146449Y5520392D01*
X4054917D01*
X4051242Y5519661D01*
X4047555Y5519016D01*
X4047351Y5518887D01*
X4047114Y5518840D01*
X4043994Y5516755D01*
X4040838Y5514751D01*
X4040699Y5514554D01*
X4040498Y5514419D01*
X4038415Y5511302D01*
X4036264Y5508240D01*
X4028067Y5505564D01*
X4012563Y5514515D01*
X3986494Y5521500D01*
X3959506D01*
X3933436Y5514515D01*
X3910064Y5501020D01*
X3890980Y5481936D01*
X3877485Y5458564D01*
X3870500Y5432494D01*
Y5405506D01*
X3877485Y5379437D01*
X3886200Y5364342D01*
X3884103Y5362941D01*
X3735581Y5214419D01*
X3731160Y5207804D01*
X3729608Y5200000D01*
Y1670392D01*
X3703900D01*
Y1737300D01*
X3600000D01*
X3496100D01*
Y1670392D01*
X3450000D01*
X3442197Y1668840D01*
X3435581Y1664419D01*
X3431161Y1657804D01*
X3429608Y1650000D01*
Y1350003D01*
X3429608Y1350000D01*
X3431160Y1342196D01*
X3435581Y1335581D01*
X3435581Y1335580D01*
X3629608Y1141553D01*
Y858447D01*
X3073681Y302520D01*
X3069260Y295904D01*
X3068072Y289929D01*
X3062096Y288740D01*
X3055481Y284319D01*
X2851354Y80193D01*
X2840588Y87387D01*
X2847426Y103895D01*
X2850862Y130000D01*
Y170000D01*
X2847426Y196106D01*
X2837349Y220432D01*
X2821320Y241321D01*
X2800431Y257350D01*
X2776105Y267426D01*
X2750000Y270863D01*
X2723895Y267426D01*
X2699569Y257350D01*
X2678679Y241321D01*
X2662650Y220432D01*
X2652574Y196106D01*
X2649137Y170000D01*
Y130000D01*
X2652574Y103895D01*
X2662650Y79569D01*
X2678679Y58679D01*
X2699569Y42650D01*
X2723895Y32574D01*
X2750000Y29137D01*
X2776105Y32574D01*
X2792613Y39412D01*
X2799807Y28645D01*
X2797314Y26153D01*
X2792893Y19537D01*
X2791341Y11733D01*
X2786948Y4849D01*
X2781408Y0D01*
X0D01*
Y629608D01*
X358228D01*
X359228Y616908D01*
X336775Y613352D01*
X296356Y600219D01*
X258489Y580925D01*
X224107Y555945D01*
X194055Y525893D01*
X169075Y491511D01*
X149781Y453644D01*
X136648Y413225D01*
X130000Y371249D01*
Y328751D01*
X136648Y286775D01*
X149781Y246356D01*
X169075Y208489D01*
X194055Y174107D01*
X224107Y144056D01*
X258489Y119075D01*
X296356Y99781D01*
X336775Y86648D01*
X378751Y80000D01*
X421249D01*
X463225Y86648D01*
X503644Y99781D01*
X541511Y119075D01*
X575893Y144056D01*
X605944Y174107D01*
X630925Y208489D01*
X650219Y246356D01*
X663352Y286775D01*
X670000Y328751D01*
Y371249D01*
X663352Y413225D01*
X650219Y453644D01*
X630925Y491511D01*
X605944Y525893D01*
X575893Y555945D01*
X541511Y580925D01*
X503644Y600219D01*
X463225Y613352D01*
X440772Y616908D01*
X441772Y629608D01*
X1899999Y629608D01*
X1900001Y629608D01*
X2245018D01*
X2252822Y631160D01*
X2259437Y635581D01*
X2263858Y642196D01*
X2275785Y642381D01*
X2287568Y637500D01*
X2312432D01*
X2324216Y642381D01*
X2336143Y642196D01*
X2340563Y635581D01*
X2347179Y631160D01*
X2354982Y629608D01*
X2750000D01*
X2757804Y631160D01*
X2764419Y635581D01*
X2764420Y635581D01*
X2914419Y785581D01*
X2918840Y792196D01*
X2920392Y800000D01*
Y1150000D01*
X2918840Y1157804D01*
X2914419Y1164419D01*
X2914419Y1164420D01*
X2764419Y1314419D01*
X2757804Y1318840D01*
X2750000Y1320392D01*
X2058447D01*
X1920392Y1458447D01*
X1920392Y2100000D01*
X1918840Y2107804D01*
X1914419Y2114419D01*
X1914419Y2114420D01*
X1784981Y2243857D01*
X1783312Y2244973D01*
X1781891Y2246394D01*
X1780035Y2247162D01*
X1778366Y2248278D01*
X1776396Y2248669D01*
X1774541Y2249438D01*
X1767938Y2252971D01*
X1764086Y2257581D01*
X1762500Y2260447D01*
Y2262432D01*
X1752985Y2285404D01*
X1735403Y2302985D01*
X1712432Y2312500D01*
X1710446D01*
X1707581Y2314086D01*
X1702971Y2317938D01*
X1699438Y2324541D01*
X1698669Y2326397D01*
X1698278Y2328366D01*
X1697162Y2330035D01*
X1696393Y2331891D01*
X1694973Y2333312D01*
X1693857Y2334982D01*
X620392Y3408447D01*
Y4100000D01*
X1229608D01*
X1231160Y4092196D01*
X1235581Y4085581D01*
X1870141Y3451020D01*
X1870371Y3450867D01*
X1870529Y3450642D01*
X1873666Y3448665D01*
X1876757Y3446600D01*
X1877027Y3446546D01*
X1877260Y3446399D01*
X1880919Y3445772D01*
X1884560Y3445048D01*
X1884830Y3445102D01*
X1885102Y3445055D01*
X1888724Y3445876D01*
X1888800Y3445891D01*
X1896916Y3442786D01*
X1902523Y3437215D01*
X1908213Y3415980D01*
X1921181Y3393520D01*
X1939520Y3375180D01*
X1961981Y3362213D01*
X1983216Y3356523D01*
X1988786Y3350916D01*
X1991891Y3342800D01*
X1991875Y3342719D01*
X1991055Y3339102D01*
X1991101Y3338831D01*
X1991048Y3338560D01*
X1991772Y3334919D01*
X1992399Y3331260D01*
X1992546Y3331027D01*
X1992600Y3330757D01*
X1994663Y3327669D01*
X1996642Y3324529D01*
X1996867Y3324371D01*
X1997020Y3324141D01*
X2005528Y3315633D01*
X2000668Y3303900D01*
X1896100D01*
Y3212699D01*
X2000000D01*
Y3199999D01*
X2012700D01*
Y3096100D01*
X2103900D01*
Y3200668D01*
X2115633Y3205528D01*
X2396928Y2924233D01*
X2392068Y2912500D01*
X2387568D01*
X2364596Y2902985D01*
X2347015Y2885404D01*
X2337500Y2862432D01*
Y2837568D01*
X2347015Y2814597D01*
X2364596Y2797015D01*
X2387568Y2787500D01*
X2412432D01*
X2435404Y2797015D01*
X2452985Y2814597D01*
X2462500Y2837568D01*
Y2842068D01*
X2474233Y2846928D01*
X3035581Y2285581D01*
X3042196Y2281160D01*
X3050000Y2279608D01*
X3341858D01*
X3341859Y2279608D01*
X3349663Y2281160D01*
X3356279Y2285581D01*
X3356279Y2285581D01*
X3364419Y2293721D01*
X3368840Y2300337D01*
X3370392Y2308141D01*
Y2749999D01*
X3370392Y2750000D01*
X3368840Y2757804D01*
X3364419Y2764419D01*
X3364418Y2764420D01*
X2970392Y3158447D01*
Y4349999D01*
X2970392Y4350000D01*
X3150000D01*
X3181759Y4381759D01*
X3192525Y4374565D01*
X3187500Y4362433D01*
Y4337569D01*
X3197015Y4314597D01*
X3214597Y4297016D01*
X3237568Y4287501D01*
X3262432D01*
X3285404Y4297016D01*
X3302985Y4314597D01*
X3312500Y4337569D01*
Y4362433D01*
X3302985Y4385404D01*
X3285404Y4402986D01*
X3262432Y4412501D01*
X3237568D01*
X3225436Y4407476D01*
X3218242Y4418242D01*
X3300000Y4500000D01*
Y5050000D01*
X2850000Y5500000D01*
X2320392D01*
X2220000Y5500000D01*
Y5584000D01*
X2008979D01*
X1999999Y5592980D01*
X2000000Y5658245D01*
X2012700Y5663594D01*
X2029568Y5650650D01*
X2053894Y5640574D01*
X2079999Y5637137D01*
X2120000D01*
X2146105Y5640574D01*
X2170431Y5650650D01*
X2191320Y5666679D01*
X2207349Y5687569D01*
X2217426Y5711895D01*
X2220862Y5738000D01*
X2217426Y5764105D01*
X2207349Y5788431D01*
X2191320Y5809321D01*
X2170431Y5825350D01*
X2146105Y5835426D01*
X2120000Y5838863D01*
X2079999D01*
X2053894Y5835426D01*
X2029568Y5825350D01*
X2012702Y5812407D01*
X2000001Y5817758D01*
X2000002Y5904522D01*
X2012703Y5910785D01*
X2026845Y5899933D01*
X2052485Y5889313D01*
X2079999Y5885691D01*
X2087299D01*
Y5992000D01*
X2099999D01*
D01*
X2087299D01*
Y6098309D01*
X2079999D01*
X2064188Y6096228D01*
X2058256Y6108257D01*
X2095137Y6145137D01*
X2120000D01*
X2146105Y6148574D01*
X2170431Y6158650D01*
X2191320Y6174679D01*
X2207349Y6195569D01*
X2217426Y6219895D01*
X2220862Y6246000D01*
X2217970Y6267970D01*
X3449977Y7499976D01*
X3449976Y7767272D01*
X3450520Y7767586D01*
X3463414Y7780480D01*
X3472531Y7796271D01*
X3477250Y7813883D01*
Y7832117D01*
X3472531Y7849730D01*
X3463414Y7865520D01*
X3460884Y7868050D01*
X3466144Y7880750D01*
X3477250D01*
Y8019250D01*
X3338750D01*
Y8008145D01*
X3326050Y8002884D01*
X3323520Y8005414D01*
X3307729Y8014531D01*
X3290117Y8019250D01*
X3271883D01*
X3254271Y8014531D01*
X3238480Y8005414D01*
X3228584Y7995518D01*
X3214784Y7995318D01*
X3213165Y7996406D01*
X3199836Y8009735D01*
X3182814Y8019563D01*
X3166699Y8023881D01*
Y7950000D01*
X3141299D01*
Y8023880D01*
X3125186Y8019563D01*
X3108164Y8009735D01*
X3098788Y8000359D01*
X3090500Y7997249D01*
X3082212Y8000359D01*
X3072836Y8009735D01*
X3055814Y8019563D01*
X3039699Y8023881D01*
Y7950000D01*
X3014299D01*
Y8023880D01*
X2998186Y8019563D01*
X2981164Y8009735D01*
X2971788Y8000359D01*
X2963500Y7997249D01*
X2955212Y8000359D01*
X2945836Y8009735D01*
X2928814Y8019563D01*
X2912699Y8023881D01*
Y7950000D01*
X2887299D01*
Y8023880D01*
X2871186Y8019563D01*
X2854164Y8009735D01*
X2840835Y7996406D01*
X2839217Y7995318D01*
X2825416Y7995518D01*
X2815520Y8005414D01*
X2799729Y8014531D01*
X2782117Y8019250D01*
X2763883D01*
X2746271Y8014531D01*
X2730480Y8005414D01*
X2717586Y7992520D01*
X2715850Y7989513D01*
X2703150D01*
X2701414Y7992520D01*
X2688520Y8005414D01*
X2672729Y8014531D01*
X2655117Y8019250D01*
X2636883D01*
X2619271Y8014531D01*
X2603480Y8005414D01*
X2590586Y7992520D01*
X2588850Y7989513D01*
X2576150D01*
X2574414Y7992520D01*
X2561520Y8005414D01*
X2545729Y8014531D01*
X2528117Y8019250D01*
X2509883D01*
X2492271Y8014531D01*
X2476480Y8005414D01*
X2466584Y7995518D01*
X2452784Y7995318D01*
X2451165Y7996406D01*
X2437836Y8009735D01*
X2420814Y8019563D01*
X2404699Y8023881D01*
Y7950000D01*
X2379299D01*
Y8023880D01*
X2363186Y8019563D01*
X2346164Y8009735D01*
X2336788Y8000359D01*
X2328500Y7997249D01*
X2320212Y8000359D01*
X2310836Y8009735D01*
X2293814Y8019563D01*
X2277699Y8023881D01*
Y7950000D01*
X2264999D01*
Y7937300D01*
X2191120D01*
X2195438Y7921186D01*
X2200335Y7912703D01*
X2193003Y7900003D01*
X1850000Y7900005D01*
X1850000Y8249999D01*
X5249999Y8250000D01*
X5250000Y5520392D01*
D02*
G37*
G36*
X1829608Y7900005D02*
X1831160Y7892201D01*
X1835580Y7885586D01*
X1835628Y7885099D01*
X1835581Y7885052D01*
X1831160Y7878436D01*
X1829608Y7870632D01*
X1829608Y7554982D01*
X1831161Y7547178D01*
X1835581Y7540563D01*
X1842197Y7536142D01*
X1846571Y7534331D01*
X1837500Y7512432D01*
Y7487568D01*
X1842381Y7475784D01*
X1842196Y7463857D01*
X1835581Y7459437D01*
X1831160Y7452821D01*
X1829608Y7445018D01*
Y7408447D01*
X1241553Y6820392D01*
X600000D01*
X592196Y6818840D01*
X585580Y6814419D01*
X581160Y6807804D01*
X579608Y6800000D01*
Y5670392D01*
X-1D01*
Y8237300D01*
X1Y8249999D01*
X1829608D01*
X1829608Y7900005D01*
D02*
G37*
G36*
X5250000Y0D02*
X2816594D01*
X2811733Y11733D01*
X3069900Y269900D01*
X3082600Y264640D01*
Y162700D01*
X3175300D01*
Y275400D01*
X3093361D01*
X3088100Y288100D01*
X3650000Y850000D01*
Y1150000D01*
X3450000Y1350000D01*
X3450000Y1350000D01*
Y1650000D01*
X3750000D01*
Y5200000D01*
X3898522Y5348522D01*
X3910064Y5336980D01*
X3933436Y5323485D01*
X3959506Y5316500D01*
X3986494D01*
X4012563Y5323485D01*
X4035936Y5336980D01*
X4055020Y5356064D01*
X4068515Y5379437D01*
X4075500Y5405506D01*
Y5432494D01*
X4068515Y5458564D01*
X4055020Y5481936D01*
X4049414Y5487542D01*
X4054917Y5500000D01*
X4146449D01*
X4151310Y5488267D01*
X4144980Y5481936D01*
X4131485Y5458564D01*
X4124500Y5432494D01*
Y5405506D01*
X4131485Y5379437D01*
X4144980Y5356064D01*
X4164064Y5336980D01*
X4187436Y5323485D01*
X4213506Y5316500D01*
X4240494D01*
X4266563Y5323485D01*
X4289936Y5336980D01*
X4309020Y5356064D01*
X4322515Y5379437D01*
X4329500Y5405506D01*
Y5432494D01*
X4322515Y5458564D01*
X4309020Y5481936D01*
X4302690Y5488267D01*
X4307550Y5500000D01*
X5250000D01*
Y0D01*
D02*
G37*
G36*
X2600000Y4700000D02*
X2950000Y4350000D01*
Y3150000D01*
X3350000Y2750000D01*
Y2308141D01*
X3341859Y2300000D01*
X3050000D01*
X2098500Y3251500D01*
Y3298500D01*
X2051500D01*
X2011440Y3338560D01*
X2016977Y3350984D01*
X2040104Y3357180D01*
X2063796Y3370859D01*
X2083141Y3390204D01*
X2096820Y3413896D01*
X2103900Y3440321D01*
Y3441299D01*
X2000000D01*
Y3453999D01*
X1987300D01*
Y3557900D01*
X1986321D01*
X1959896Y3550819D01*
X1936204Y3537141D01*
X1916859Y3517796D01*
X1903181Y3494104D01*
X1896984Y3470977D01*
X1884560Y3465440D01*
X1250000Y4100000D01*
X1250001Y4250000D01*
X1550000Y4550000D01*
X1750000D01*
X1950000Y4750000D01*
X2250000Y5050000D01*
X2600000D01*
Y4700000D01*
D02*
G37*
G36*
X600000Y3400000D02*
X1679438Y2320562D01*
X1676960Y2308106D01*
X1664596Y2302985D01*
X1647015Y2285404D01*
X1637500Y2262432D01*
Y2237568D01*
X1647015Y2214597D01*
X1664596Y2197015D01*
X1687568Y2187500D01*
X1712432D01*
X1735403Y2197015D01*
X1752985Y2214597D01*
X1758106Y2226960D01*
X1770562Y2229438D01*
X1900000Y2100000D01*
X1900000Y1450000D01*
X2050000Y1300000D01*
X2750000D01*
X2900000Y1150000D01*
Y800000D01*
X2750000Y650000D01*
X2354982D01*
X2350122Y661733D01*
X2352985Y664596D01*
X2362500Y687568D01*
Y712432D01*
X2352985Y735403D01*
X2335404Y752985D01*
X2312432Y762500D01*
X2287568D01*
X2264597Y752985D01*
X2247015Y735403D01*
X2237500Y712432D01*
Y687568D01*
X2247015Y664596D01*
X2249878Y661733D01*
X2245018Y650000D01*
X1900000D01*
X1899999Y650000D01*
X0Y650000D01*
X-1Y5650000D01*
X600000D01*
Y3400000D01*
D02*
G37*
%LPC*%
G36*
X1112700Y6716892D02*
Y6662700D01*
X1166893D01*
X1163273Y6676208D01*
X1154334Y6691691D01*
X1141692Y6704334D01*
X1126209Y6713273D01*
X1112700Y6716892D01*
D02*
G37*
G36*
X1087300D02*
X1073792Y6713273D01*
X1058309Y6704334D01*
X1045666Y6691691D01*
X1036727Y6676208D01*
X1033108Y6662700D01*
X1087300D01*
Y6716892D01*
D02*
G37*
G36*
X1166893Y6637300D02*
X1112700D01*
Y6583107D01*
X1126209Y6586727D01*
X1141692Y6595666D01*
X1154334Y6608308D01*
X1163273Y6623791D01*
X1166893Y6637300D01*
D02*
G37*
G36*
X1087300D02*
X1033108D01*
X1036727Y6623791D01*
X1045666Y6608308D01*
X1058309Y6595666D01*
X1073792Y6586727D01*
X1087300Y6583107D01*
Y6637300D01*
D02*
G37*
G36*
X1212432Y6512500D02*
X1187568D01*
X1164596Y6502985D01*
X1147015Y6485404D01*
X1137500Y6462432D01*
Y6437568D01*
X1147015Y6414597D01*
X1164596Y6397015D01*
X1187568Y6387500D01*
X1212432D01*
X1235403Y6397015D01*
X1252985Y6414597D01*
X1262500Y6437568D01*
Y6462432D01*
X1252985Y6485404D01*
X1235403Y6502985D01*
X1212432Y6512500D01*
D02*
G37*
G36*
X2412432Y5362500D02*
X2387568D01*
X2364596Y5352985D01*
X2347015Y5335404D01*
X2337500Y5312432D01*
Y5287568D01*
X2347015Y5264597D01*
X2364596Y5247015D01*
X2387568Y5237500D01*
X2412432D01*
X2435404Y5247015D01*
X2452985Y5264597D01*
X2462500Y5287568D01*
Y5312432D01*
X2452985Y5335404D01*
X2435404Y5352985D01*
X2412432Y5362500D01*
D02*
G37*
G36*
X2937300Y5287300D02*
X2883107D01*
X2886727Y5273792D01*
X2895666Y5258309D01*
X2908308Y5245666D01*
X2923791Y5236727D01*
X2937300Y5233108D01*
Y5287300D01*
D02*
G37*
G36*
X3112700Y4766893D02*
Y4712700D01*
X3166892D01*
X3163273Y4726209D01*
X3154334Y4741692D01*
X3141691Y4754334D01*
X3126208Y4763273D01*
X3112700Y4766893D01*
D02*
G37*
G36*
X3087300D02*
X3073791Y4763273D01*
X3058308Y4754334D01*
X3045666Y4741692D01*
X3036727Y4726209D01*
X3033107Y4712700D01*
X3087300D01*
Y4766893D01*
D02*
G37*
G36*
X1062700D02*
Y4712700D01*
X1116893D01*
X1113273Y4726209D01*
X1104334Y4741692D01*
X1091692Y4754334D01*
X1076209Y4763273D01*
X1062700Y4766893D01*
D02*
G37*
G36*
X1037300D02*
X1023792Y4763273D01*
X1008309Y4754334D01*
X995667Y4741692D01*
X986727Y4726209D01*
X983108Y4712700D01*
X1037300D01*
Y4766893D01*
D02*
G37*
G36*
X3166892Y4687300D02*
X3112700D01*
Y4633108D01*
X3126208Y4636727D01*
X3141691Y4645667D01*
X3154334Y4658309D01*
X3163273Y4673792D01*
X3166892Y4687300D01*
D02*
G37*
G36*
X3087300D02*
X3033107D01*
X3036727Y4673792D01*
X3045666Y4658309D01*
X3058308Y4645667D01*
X3073791Y4636727D01*
X3087300Y4633108D01*
Y4687300D01*
D02*
G37*
G36*
X1116893D02*
X1062700D01*
Y4633108D01*
X1076209Y4636727D01*
X1091692Y4645667D01*
X1104334Y4658309D01*
X1113273Y4673792D01*
X1116893Y4687300D01*
D02*
G37*
G36*
X1037300D02*
X983108D01*
X986727Y4673792D01*
X995667Y4658309D01*
X1008309Y4645667D01*
X1023792Y4636727D01*
X1037300Y4633108D01*
Y4687300D01*
D02*
G37*
G36*
X1221140Y4418707D02*
X1196276D01*
X1173304Y4409192D01*
X1155723Y4391611D01*
X1146208Y4368639D01*
Y4343775D01*
X1155723Y4320804D01*
X1173304Y4303222D01*
X1196276Y4293707D01*
X1221140D01*
X1244111Y4303222D01*
X1261693Y4320804D01*
X1271208Y4343775D01*
Y4368639D01*
X1261693Y4391611D01*
X1244111Y4409192D01*
X1221140Y4418707D01*
D02*
G37*
G36*
X2462700Y6716892D02*
Y6662700D01*
X2516892D01*
X2513273Y6676208D01*
X2504334Y6691691D01*
X2491691Y6704334D01*
X2476208Y6713273D01*
X2462700Y6716892D01*
D02*
G37*
G36*
X2437300D02*
X2423791Y6713273D01*
X2408308Y6704334D01*
X2395666Y6691691D01*
X2386727Y6676208D01*
X2383108Y6662700D01*
X2437300D01*
Y6716892D01*
D02*
G37*
G36*
X2516892Y6637300D02*
X2462700D01*
Y6583107D01*
X2476208Y6586727D01*
X2491691Y6595666D01*
X2504334Y6608308D01*
X2513273Y6623791D01*
X2516892Y6637300D01*
D02*
G37*
G36*
X2437300D02*
X2383108D01*
X2386727Y6623791D01*
X2395666Y6608308D01*
X2408308Y6595666D01*
X2423791Y6586727D01*
X2437300Y6583107D01*
Y6637300D01*
D02*
G37*
G36*
X2120000Y6600863D02*
X2079999D01*
X2053894Y6597426D01*
X2029568Y6587350D01*
X2008679Y6571321D01*
X1992650Y6550431D01*
X1982574Y6526105D01*
X1979137Y6500000D01*
X1982574Y6473895D01*
X1992650Y6449569D01*
X2008679Y6428679D01*
X2029568Y6412650D01*
X2053894Y6402574D01*
X2079999Y6399137D01*
X2120000D01*
X2146105Y6402574D01*
X2170431Y6412650D01*
X2191320Y6428679D01*
X2207349Y6449569D01*
X2217426Y6473895D01*
X2220862Y6500000D01*
X2217426Y6526105D01*
X2207349Y6550431D01*
X2191320Y6571321D01*
X2170431Y6587350D01*
X2146105Y6597426D01*
X2120000Y6600863D01*
D02*
G37*
G36*
X1762701Y6403900D02*
Y6312700D01*
X1853900D01*
Y6403900D01*
X1762701D01*
D02*
G37*
G36*
X1853900Y6287300D02*
X1762701D01*
Y6196100D01*
X1853900D01*
Y6287300D01*
D02*
G37*
G36*
X1737301D02*
X1646100D01*
Y6196100D01*
X1737301D01*
Y6287300D01*
D02*
G37*
G36*
X1762968Y6144500D02*
X1737032D01*
X1711981Y6137787D01*
X1689520Y6124820D01*
X1671181Y6106481D01*
X1658213Y6084020D01*
X1651500Y6058968D01*
Y6033032D01*
X1658213Y6007981D01*
X1671181Y5985520D01*
X1689520Y5967181D01*
X1711981Y5954213D01*
X1737032Y5947500D01*
X1762968D01*
X1788020Y5954213D01*
X1810481Y5967181D01*
X1828820Y5985520D01*
X1841787Y6007981D01*
X1848500Y6033032D01*
Y6058968D01*
X1841787Y6084020D01*
X1828820Y6106481D01*
X1810481Y6124820D01*
X1788020Y6137787D01*
X1762968Y6144500D01*
D02*
G37*
G36*
X1362700Y5166892D02*
Y5112700D01*
X1416893D01*
X1413273Y5126208D01*
X1404334Y5141692D01*
X1391692Y5154334D01*
X1376209Y5163273D01*
X1362700Y5166892D01*
D02*
G37*
G36*
X1337300D02*
X1323792Y5163273D01*
X1308309Y5154334D01*
X1295666Y5141692D01*
X1286727Y5126208D01*
X1283108Y5112700D01*
X1337300D01*
Y5166892D01*
D02*
G37*
G36*
X1416893Y5087300D02*
X1362700D01*
Y5033108D01*
X1376209Y5036727D01*
X1391692Y5045666D01*
X1404334Y5058308D01*
X1413273Y5073791D01*
X1416893Y5087300D01*
D02*
G37*
G36*
X1337300D02*
X1283108D01*
X1286727Y5073791D01*
X1295666Y5058308D01*
X1308309Y5045666D01*
X1323792Y5036727D01*
X1337300Y5033108D01*
Y5087300D01*
D02*
G37*
G36*
X2252299Y8023880D02*
X2236186Y8019563D01*
X2219164Y8009735D01*
X2205265Y7995836D01*
X2195438Y7978814D01*
X2191120Y7962700D01*
X2252299D01*
Y8023880D01*
D02*
G37*
G36*
X3462432Y7412500D02*
X3437568D01*
X3414596Y7402985D01*
X3397015Y7385404D01*
X3387500Y7362432D01*
Y7337568D01*
X3397015Y7314596D01*
X3414596Y7297015D01*
X3437568Y7287500D01*
X3462432D01*
X3485403Y7297015D01*
X3502985Y7314596D01*
X3512500Y7337568D01*
Y7362432D01*
X3502985Y7385404D01*
X3485403Y7402985D01*
X3462432Y7412500D01*
D02*
G37*
G36*
X4944117Y7196250D02*
X4925883D01*
X4908271Y7191531D01*
X4892480Y7182414D01*
X4879586Y7169520D01*
X4877850Y7166513D01*
X4865150D01*
X4863414Y7169520D01*
X4850520Y7182414D01*
X4834729Y7191531D01*
X4817117Y7196250D01*
X4798883D01*
X4781271Y7191531D01*
X4765480Y7182414D01*
X4752586Y7169520D01*
X4750850Y7166513D01*
X4738150D01*
X4736414Y7169520D01*
X4723520Y7182414D01*
X4707729Y7191531D01*
X4690117Y7196250D01*
X4671883D01*
X4654271Y7191531D01*
X4638480Y7182414D01*
X4625586Y7169520D01*
X4623850Y7166513D01*
X4611150D01*
X4609414Y7169520D01*
X4596520Y7182414D01*
X4580729Y7191531D01*
X4563117Y7196250D01*
X4544883D01*
X4527271Y7191531D01*
X4511480Y7182414D01*
X4498586Y7169520D01*
X4496850Y7166513D01*
X4484150D01*
X4482414Y7169520D01*
X4469520Y7182414D01*
X4453729Y7191531D01*
X4436117Y7196250D01*
X4417883D01*
X4400271Y7191531D01*
X4384480Y7182414D01*
X4371586Y7169520D01*
X4369850Y7166513D01*
X4357150D01*
X4355414Y7169520D01*
X4342520Y7182414D01*
X4326729Y7191531D01*
X4309117Y7196250D01*
X4290883D01*
X4273271Y7191531D01*
X4257480Y7182414D01*
X4244586Y7169520D01*
X4242850Y7166513D01*
X4230150D01*
X4228414Y7169520D01*
X4215520Y7182414D01*
X4199729Y7191531D01*
X4182117Y7196250D01*
X4163883D01*
X4146271Y7191531D01*
X4130480Y7182414D01*
X4117586Y7169520D01*
X4115850Y7166513D01*
X4103150D01*
X4101414Y7169520D01*
X4088520Y7182414D01*
X4072729Y7191531D01*
X4055117Y7196250D01*
X4036883D01*
X4019271Y7191531D01*
X4003480Y7182414D01*
X3990586Y7169520D01*
X3988850Y7166513D01*
X3976150D01*
X3974414Y7169520D01*
X3961520Y7182414D01*
X3945729Y7191531D01*
X3928117Y7196250D01*
X3909883D01*
X3892271Y7191531D01*
X3876480Y7182414D01*
X3863586Y7169520D01*
X3861850Y7166513D01*
X3849150D01*
X3847414Y7169520D01*
X3834520Y7182414D01*
X3818729Y7191531D01*
X3801117Y7196250D01*
X3782883D01*
X3765271Y7191531D01*
X3749480Y7182414D01*
X3736586Y7169520D01*
X3727469Y7153729D01*
X3722750Y7136117D01*
Y7117883D01*
X3727469Y7100271D01*
X3736586Y7084480D01*
X3739116Y7081950D01*
X3733856Y7069250D01*
X3722750D01*
Y6930750D01*
X3861250D01*
Y6941856D01*
X3873950Y6947116D01*
X3876480Y6944586D01*
X3892271Y6935469D01*
X3909883Y6930750D01*
X3928117D01*
X3945729Y6935469D01*
X3961520Y6944586D01*
X3974414Y6957480D01*
X3976150Y6960487D01*
X3988850D01*
X3990586Y6957480D01*
X4003480Y6944586D01*
X4019271Y6935469D01*
X4036883Y6930750D01*
X4055117D01*
X4072729Y6935469D01*
X4088520Y6944586D01*
X4101414Y6957480D01*
X4103150Y6960487D01*
X4115850D01*
X4117586Y6957480D01*
X4130480Y6944586D01*
X4146271Y6935469D01*
X4163883Y6930750D01*
X4182117D01*
X4199729Y6935469D01*
X4215520Y6944586D01*
X4228414Y6957480D01*
X4230150Y6960487D01*
X4242850D01*
X4244586Y6957480D01*
X4257480Y6944586D01*
X4273271Y6935469D01*
X4290883Y6930750D01*
X4309117D01*
X4326729Y6935469D01*
X4342520Y6944586D01*
X4355414Y6957480D01*
X4357150Y6960487D01*
X4369850D01*
X4371586Y6957480D01*
X4384480Y6944586D01*
X4400271Y6935469D01*
X4417883Y6930750D01*
X4436117D01*
X4453729Y6935469D01*
X4469520Y6944586D01*
X4482414Y6957480D01*
X4484150Y6960487D01*
X4496850D01*
X4498586Y6957480D01*
X4511480Y6944586D01*
X4527271Y6935469D01*
X4544883Y6930750D01*
X4563117D01*
X4580729Y6935469D01*
X4596520Y6944586D01*
X4609414Y6957480D01*
X4611150Y6960487D01*
X4623850D01*
X4625586Y6957480D01*
X4638480Y6944586D01*
X4654271Y6935469D01*
X4671883Y6930750D01*
X4690117D01*
X4707729Y6935469D01*
X4723520Y6944586D01*
X4736414Y6957480D01*
X4738150Y6960487D01*
X4750850D01*
X4752586Y6957480D01*
X4765480Y6944586D01*
X4781271Y6935469D01*
X4798883Y6930750D01*
X4817117D01*
X4834729Y6935469D01*
X4850520Y6944586D01*
X4863414Y6957480D01*
X4865150Y6960487D01*
X4877850D01*
X4879586Y6957480D01*
X4892480Y6944586D01*
X4908271Y6935469D01*
X4925883Y6930750D01*
X4944117D01*
X4961729Y6935469D01*
X4977520Y6944586D01*
X4990414Y6957480D01*
X4999531Y6973271D01*
X5004250Y6990883D01*
Y7009117D01*
X4999531Y7026729D01*
X4990414Y7042520D01*
X4977520Y7055414D01*
X4974513Y7057150D01*
Y7069850D01*
X4977520Y7071586D01*
X4990414Y7084480D01*
X4999531Y7100271D01*
X5004250Y7117883D01*
Y7136117D01*
X4999531Y7153729D01*
X4990414Y7169520D01*
X4977520Y7182414D01*
X4961729Y7191531D01*
X4944117Y7196250D01*
D02*
G37*
G36*
X3462432Y6962500D02*
X3437568D01*
X3414596Y6952985D01*
X3397015Y6935403D01*
X3387500Y6912432D01*
Y6887568D01*
X3397015Y6864596D01*
X3414596Y6847015D01*
X3437568Y6837500D01*
X3462432D01*
X3485403Y6847015D01*
X3502985Y6864596D01*
X3512500Y6887568D01*
Y6912432D01*
X3502985Y6935403D01*
X3485403Y6952985D01*
X3462432Y6962500D01*
D02*
G37*
G36*
Y6612500D02*
X3437568D01*
X3414596Y6602985D01*
X3397015Y6585404D01*
X3387500Y6562432D01*
Y6537568D01*
X3397015Y6514597D01*
X3414596Y6497015D01*
X3437568Y6487500D01*
X3462432D01*
X3485403Y6497015D01*
X3502985Y6514597D01*
X3512500Y6537568D01*
Y6562432D01*
X3502985Y6585404D01*
X3485403Y6602985D01*
X3462432Y6612500D01*
D02*
G37*
G36*
X4240494Y6537500D02*
X4213506D01*
X4187436Y6530515D01*
X4164064Y6517020D01*
X4144980Y6497936D01*
X4131485Y6474564D01*
X4124500Y6448494D01*
Y6421506D01*
X4131485Y6395437D01*
X4144980Y6372064D01*
X4164064Y6352980D01*
X4187436Y6339485D01*
X4213506Y6332500D01*
X4240494D01*
X4266563Y6339485D01*
X4289936Y6352980D01*
X4309020Y6372064D01*
X4322515Y6395437D01*
X4329500Y6421506D01*
Y6448494D01*
X4322515Y6474564D01*
X4309020Y6497936D01*
X4289936Y6517020D01*
X4266563Y6530515D01*
X4240494Y6537500D01*
D02*
G37*
G36*
X3986494D02*
X3959506D01*
X3933436Y6530515D01*
X3910064Y6517020D01*
X3890980Y6497936D01*
X3877485Y6474564D01*
X3870500Y6448494D01*
Y6421506D01*
X3877485Y6395437D01*
X3890980Y6372064D01*
X3910064Y6352980D01*
X3933436Y6339485D01*
X3959506Y6332500D01*
X3986494D01*
X4012563Y6339485D01*
X4035936Y6352980D01*
X4055020Y6372064D01*
X4068515Y6395437D01*
X4075500Y6421506D01*
Y6448494D01*
X4068515Y6474564D01*
X4055020Y6497936D01*
X4035936Y6517020D01*
X4012563Y6530515D01*
X3986494Y6537500D01*
D02*
G37*
G36*
X4240494Y6283500D02*
X4213506D01*
X4187436Y6276515D01*
X4164064Y6263020D01*
X4144980Y6243936D01*
X4131485Y6220564D01*
X4124500Y6194494D01*
Y6167506D01*
X4131485Y6141437D01*
X4144980Y6118064D01*
X4164064Y6098980D01*
X4187436Y6085485D01*
X4213506Y6078500D01*
X4240494D01*
X4266563Y6085485D01*
X4289936Y6098980D01*
X4309020Y6118064D01*
X4322515Y6141437D01*
X4329500Y6167506D01*
Y6194494D01*
X4322515Y6220564D01*
X4309020Y6243936D01*
X4289936Y6263020D01*
X4266563Y6276515D01*
X4240494Y6283500D01*
D02*
G37*
G36*
X3986494D02*
X3959506D01*
X3933436Y6276515D01*
X3910064Y6263020D01*
X3890980Y6243936D01*
X3877485Y6220564D01*
X3870500Y6194494D01*
Y6167506D01*
X3877485Y6141437D01*
X3890980Y6118064D01*
X3910064Y6098980D01*
X3933436Y6085485D01*
X3959506Y6078500D01*
X3986494D01*
X4012563Y6085485D01*
X4035936Y6098980D01*
X4055020Y6118064D01*
X4068515Y6141437D01*
X4075500Y6167506D01*
Y6194494D01*
X4068515Y6220564D01*
X4055020Y6243936D01*
X4035936Y6263020D01*
X4012563Y6276515D01*
X3986494Y6283500D01*
D02*
G37*
G36*
X2517327Y6066892D02*
Y6012700D01*
X2571520D01*
X2567900Y6026208D01*
X2558961Y6041691D01*
X2546319Y6054334D01*
X2530836Y6063273D01*
X2517327Y6066892D01*
D02*
G37*
G36*
X2491927D02*
X2478419Y6063273D01*
X2462936Y6054334D01*
X2450294Y6041691D01*
X2441355Y6026208D01*
X2437735Y6012700D01*
X2491927D01*
Y6066892D01*
D02*
G37*
G36*
X2120000Y6098309D02*
X2112699D01*
Y6004700D01*
X2224637D01*
X2222687Y6019515D01*
X2212066Y6045155D01*
X2195172Y6067172D01*
X2173155Y6084067D01*
X2147515Y6094687D01*
X2120000Y6098309D01*
D02*
G37*
G36*
X2571520Y5987300D02*
X2517327D01*
Y5933108D01*
X2530836Y5936727D01*
X2546319Y5945666D01*
X2558961Y5958308D01*
X2567900Y5973791D01*
X2571520Y5987300D01*
D02*
G37*
G36*
X2491927D02*
X2437735D01*
X2441355Y5973791D01*
X2450294Y5958308D01*
X2462936Y5945666D01*
X2478419Y5936727D01*
X2491927Y5933108D01*
Y5987300D01*
D02*
G37*
G36*
X2224637Y5979300D02*
X2112699D01*
Y5885691D01*
X2120000D01*
X2147515Y5889313D01*
X2173155Y5899933D01*
X2195172Y5916828D01*
X2212066Y5938845D01*
X2222687Y5964485D01*
X2224637Y5979300D01*
D02*
G37*
G36*
X4240494Y6029500D02*
X4213506D01*
X4187436Y6022515D01*
X4164064Y6009020D01*
X4144980Y5989936D01*
X4131485Y5966564D01*
X4124500Y5940494D01*
Y5913506D01*
X4131485Y5887437D01*
X4144980Y5864064D01*
X4164064Y5844980D01*
X4187436Y5831485D01*
X4213506Y5824500D01*
X4240494D01*
X4266563Y5831485D01*
X4289936Y5844980D01*
X4309020Y5864064D01*
X4322515Y5887437D01*
X4329500Y5913506D01*
Y5940494D01*
X4322515Y5966564D01*
X4309020Y5989936D01*
X4289936Y6009020D01*
X4266563Y6022515D01*
X4240494Y6029500D01*
D02*
G37*
G36*
X3986494D02*
X3959506D01*
X3933436Y6022515D01*
X3910064Y6009020D01*
X3890980Y5989936D01*
X3877485Y5966564D01*
X3870500Y5940494D01*
Y5913506D01*
X3877485Y5887437D01*
X3890980Y5864064D01*
X3910064Y5844980D01*
X3933436Y5831485D01*
X3959506Y5824500D01*
X3986494D01*
X4012563Y5831485D01*
X4035936Y5844980D01*
X4055020Y5864064D01*
X4068515Y5887437D01*
X4075500Y5913506D01*
Y5940494D01*
X4068515Y5966564D01*
X4055020Y5989936D01*
X4035936Y6009020D01*
X4012563Y6022515D01*
X3986494Y6029500D01*
D02*
G37*
G36*
X4240494Y5775500D02*
X4213506D01*
X4187436Y5768515D01*
X4164064Y5755020D01*
X4144980Y5735936D01*
X4131485Y5712564D01*
X4124500Y5686494D01*
Y5659506D01*
X4131485Y5633437D01*
X4144980Y5610064D01*
X4164064Y5590980D01*
X4187436Y5577485D01*
X4213506Y5570500D01*
X4240494D01*
X4266563Y5577485D01*
X4289936Y5590980D01*
X4309020Y5610064D01*
X4322515Y5633437D01*
X4329500Y5659506D01*
Y5686494D01*
X4322515Y5712564D01*
X4309020Y5735936D01*
X4289936Y5755020D01*
X4266563Y5768515D01*
X4240494Y5775500D01*
D02*
G37*
G36*
X3986494D02*
X3959506D01*
X3933436Y5768515D01*
X3910064Y5755020D01*
X3890980Y5735936D01*
X3877485Y5712564D01*
X3870500Y5686494D01*
Y5659506D01*
X3877485Y5633437D01*
X3890980Y5610064D01*
X3910064Y5590980D01*
X3933436Y5577485D01*
X3959506Y5570500D01*
X3986494D01*
X4012563Y5577485D01*
X4035936Y5590980D01*
X4055020Y5610064D01*
X4068515Y5633437D01*
X4075500Y5659506D01*
Y5686494D01*
X4068515Y5712564D01*
X4055020Y5735936D01*
X4035936Y5755020D01*
X4012563Y5768515D01*
X3986494Y5775500D01*
D02*
G37*
G36*
X2965606Y5665674D02*
X2940742D01*
X2917770Y5656159D01*
X2900189Y5638578D01*
X2890674Y5615606D01*
Y5590742D01*
X2900189Y5567771D01*
X2917770Y5550189D01*
X2940742Y5540674D01*
X2965606D01*
X2988577Y5550189D01*
X3006159Y5567771D01*
X3015674Y5590742D01*
Y5615606D01*
X3006159Y5638578D01*
X2988577Y5656159D01*
X2965606Y5665674D01*
D02*
G37*
G36*
X3412700Y5066893D02*
Y5012700D01*
X3466892D01*
X3463273Y5026209D01*
X3454333Y5041692D01*
X3441691Y5054334D01*
X3426208Y5063273D01*
X3412700Y5066893D01*
D02*
G37*
G36*
X3387300D02*
X3373791Y5063273D01*
X3358308Y5054334D01*
X3345666Y5041692D01*
X3336727Y5026209D01*
X3333107Y5012700D01*
X3387300D01*
Y5066893D01*
D02*
G37*
G36*
X3466892Y4987300D02*
X3412700D01*
Y4933108D01*
X3426208Y4936727D01*
X3441691Y4945667D01*
X3454333Y4958309D01*
X3463273Y4973792D01*
X3466892Y4987300D01*
D02*
G37*
G36*
X3387300D02*
X3333107D01*
X3336727Y4973792D01*
X3345666Y4958309D01*
X3358308Y4945667D01*
X3373791Y4936727D01*
X3387300Y4933108D01*
Y4987300D01*
D02*
G37*
G36*
X1071140Y3868707D02*
X1046276D01*
X1023304Y3859192D01*
X1005723Y3841611D01*
X996208Y3818639D01*
Y3793775D01*
X1005723Y3770803D01*
X1023304Y3753222D01*
X1046276Y3743707D01*
X1071140D01*
X1094111Y3753222D01*
X1111692Y3770803D01*
X1121208Y3793775D01*
Y3818639D01*
X1111692Y3841611D01*
X1094111Y3859192D01*
X1071140Y3868707D01*
D02*
G37*
G36*
X3112432Y3862501D02*
X3087568D01*
X3064596Y3852985D01*
X3047015Y3835404D01*
X3037500Y3812433D01*
Y3787568D01*
X3047015Y3764597D01*
X3064596Y3747016D01*
X3087568Y3737501D01*
X3112432D01*
X3135403Y3747016D01*
X3152985Y3764597D01*
X3162500Y3787568D01*
Y3812433D01*
X3152985Y3835404D01*
X3135403Y3852985D01*
X3112432Y3862501D01*
D02*
G37*
G36*
X1062700Y3366893D02*
Y3312700D01*
X1116893D01*
X1113273Y3326209D01*
X1104334Y3341692D01*
X1091692Y3354334D01*
X1076209Y3363273D01*
X1062700Y3366893D01*
D02*
G37*
G36*
X1037300D02*
X1023792Y3363273D01*
X1008309Y3354334D01*
X995667Y3341692D01*
X986727Y3326209D01*
X983108Y3312700D01*
X1037300D01*
Y3366893D01*
D02*
G37*
G36*
X3112700Y3366892D02*
Y3312700D01*
X3166892D01*
X3163273Y3326208D01*
X3154334Y3341692D01*
X3141691Y3354334D01*
X3126208Y3363273D01*
X3112700Y3366892D01*
D02*
G37*
G36*
X3087300D02*
X3073791Y3363273D01*
X3058308Y3354334D01*
X3045666Y3341692D01*
X3036727Y3326208D01*
X3033107Y3312700D01*
X3087300D01*
Y3366892D01*
D02*
G37*
G36*
X1116893Y3287300D02*
X1062700D01*
Y3233108D01*
X1076209Y3236727D01*
X1091692Y3245667D01*
X1104334Y3258309D01*
X1113273Y3273792D01*
X1116893Y3287300D01*
D02*
G37*
G36*
X1037300D02*
X983108D01*
X986727Y3273792D01*
X995667Y3258309D01*
X1008309Y3245667D01*
X1023792Y3236727D01*
X1037300Y3233108D01*
Y3287300D01*
D02*
G37*
G36*
X3166892Y3287300D02*
X3112700D01*
Y3233108D01*
X3126208Y3236727D01*
X3141691Y3245666D01*
X3154334Y3258308D01*
X3163273Y3273792D01*
X3166892Y3287300D01*
D02*
G37*
G36*
X3087300D02*
X3033107D01*
X3036727Y3273792D01*
X3045666Y3258308D01*
X3058308Y3245666D01*
X3073791Y3236727D01*
X3087300Y3233108D01*
Y3287300D01*
D02*
G37*
G36*
X1762432Y3262500D02*
X1737568D01*
X1714596Y3252985D01*
X1697015Y3235404D01*
X1687500Y3212432D01*
Y3187568D01*
X1697015Y3164597D01*
X1714596Y3147015D01*
X1737568Y3137500D01*
X1762432D01*
X1785403Y3147015D01*
X1802985Y3164597D01*
X1812500Y3187568D01*
Y3212432D01*
X1802985Y3235404D01*
X1785403Y3252985D01*
X1762432Y3262500D01*
D02*
G37*
G36*
X1987300Y3187299D02*
X1896100D01*
Y3096100D01*
X1987300D01*
Y3187299D01*
D02*
G37*
G36*
X2212432Y2912500D02*
X2187568D01*
X2164596Y2902985D01*
X2147015Y2885404D01*
X2137500Y2862432D01*
Y2837568D01*
X2147015Y2814597D01*
X2164596Y2797015D01*
X2187568Y2787500D01*
X2212432D01*
X2235403Y2797015D01*
X2252985Y2814597D01*
X2262500Y2837568D01*
Y2862432D01*
X2252985Y2885404D01*
X2235403Y2902985D01*
X2212432Y2912500D01*
D02*
G37*
G36*
X2012432D02*
X1987568D01*
X1964596Y2902985D01*
X1947015Y2885404D01*
X1937500Y2862432D01*
Y2837568D01*
X1947015Y2814597D01*
X1964596Y2797015D01*
X1987568Y2787500D01*
X2012432D01*
X2035403Y2797015D01*
X2052984Y2814597D01*
X2062500Y2837568D01*
Y2862432D01*
X2052984Y2885404D01*
X2035403Y2902985D01*
X2012432Y2912500D01*
D02*
G37*
G36*
X1712432Y2712500D02*
X1687568D01*
X1664596Y2702985D01*
X1647015Y2685404D01*
X1637500Y2662432D01*
Y2637568D01*
X1647015Y2614596D01*
X1664596Y2597015D01*
X1687568Y2587500D01*
X1712432D01*
X1735403Y2597015D01*
X1752985Y2614596D01*
X1762500Y2637568D01*
Y2662432D01*
X1752985Y2685404D01*
X1735403Y2702985D01*
X1712432Y2712500D01*
D02*
G37*
G36*
Y2512500D02*
X1687568D01*
X1664596Y2502985D01*
X1647015Y2485404D01*
X1637500Y2462432D01*
Y2437568D01*
X1647015Y2414597D01*
X1664596Y2397015D01*
X1687568Y2387500D01*
X1712432D01*
X1735403Y2397015D01*
X1752985Y2414597D01*
X1762500Y2437568D01*
Y2462432D01*
X1752985Y2485404D01*
X1735403Y2502985D01*
X1712432Y2512500D01*
D02*
G37*
G36*
X3112432Y2112500D02*
X3087568D01*
X3064596Y2102985D01*
X3047015Y2085403D01*
X3037500Y2062432D01*
Y2037568D01*
X3047015Y2014596D01*
X3064596Y1997015D01*
X3087568Y1987500D01*
X3112432D01*
X3135403Y1997015D01*
X3152985Y2014596D01*
X3162500Y2037568D01*
Y2062432D01*
X3152985Y2085403D01*
X3135403Y2102985D01*
X3112432Y2112500D01*
D02*
G37*
G36*
X2312432Y2062500D02*
X2287568D01*
X2264596Y2052985D01*
X2247015Y2035404D01*
X2237500Y2012432D01*
Y1987568D01*
X2247015Y1964597D01*
X2264596Y1947015D01*
X2287568Y1937500D01*
X2312432D01*
X2335403Y1947015D01*
X2352985Y1964597D01*
X2362500Y1987568D01*
Y2012432D01*
X2352985Y2035404D01*
X2335403Y2052985D01*
X2312432Y2062500D01*
D02*
G37*
G36*
X3703900Y1853900D02*
X3612700D01*
Y1762700D01*
X3703900D01*
Y1853900D01*
D02*
G37*
G36*
X3587300D02*
X3496100D01*
Y1762700D01*
X3587300D01*
Y1853900D01*
D02*
G37*
G36*
X3112432Y1862500D02*
X3087568D01*
X3064596Y1852985D01*
X3047015Y1835403D01*
X3037500Y1812432D01*
Y1787568D01*
X3047015Y1764596D01*
X3064596Y1747015D01*
X3087568Y1737500D01*
X3112432D01*
X3135403Y1747015D01*
X3152985Y1764596D01*
X3162500Y1787568D01*
Y1812432D01*
X3152985Y1835403D01*
X3135403Y1852985D01*
X3112432Y1862500D01*
D02*
G37*
G36*
X2012432Y1712500D02*
X1987568D01*
X1964597Y1702985D01*
X1947015Y1685404D01*
X1937500Y1662432D01*
Y1637568D01*
X1947015Y1614596D01*
X1964597Y1597015D01*
X1987568Y1587500D01*
X2012432D01*
X2035404Y1597015D01*
X2052985Y1614596D01*
X2062500Y1637568D01*
Y1662432D01*
X2052985Y1685404D01*
X2035404Y1702985D01*
X2012432Y1712500D01*
D02*
G37*
G36*
X3112432Y1612500D02*
X3087568D01*
X3064596Y1602985D01*
X3047015Y1585403D01*
X3037500Y1562432D01*
Y1537568D01*
X3047015Y1514596D01*
X3064596Y1497015D01*
X3087568Y1487500D01*
X3112432D01*
X3135403Y1497015D01*
X3152985Y1514596D01*
X3162500Y1537568D01*
Y1562432D01*
X3152985Y1585403D01*
X3135403Y1602985D01*
X3112432Y1612500D01*
D02*
G37*
G36*
X2212432D02*
X2187568D01*
X2164596Y1602985D01*
X2147015Y1585403D01*
X2137500Y1562432D01*
Y1537568D01*
X2147015Y1514596D01*
X2164596Y1497015D01*
X2187568Y1487500D01*
X2212432D01*
X2235403Y1497015D01*
X2252985Y1514596D01*
X2262500Y1537568D01*
Y1562432D01*
X2252985Y1585403D01*
X2235403Y1602985D01*
X2212432Y1612500D01*
D02*
G37*
G36*
X2412432Y1562500D02*
X2387568D01*
X2364596Y1552985D01*
X2347015Y1535404D01*
X2337500Y1512432D01*
Y1487568D01*
X2347015Y1464597D01*
X2364596Y1447015D01*
X2387568Y1437500D01*
X2412432D01*
X2435404Y1447015D01*
X2452985Y1464597D01*
X2462500Y1487568D01*
Y1512432D01*
X2452985Y1535404D01*
X2435404Y1552985D01*
X2412432Y1562500D01*
D02*
G37*
G36*
X2862432Y1462500D02*
X2837568D01*
X2814596Y1452985D01*
X2797015Y1435404D01*
X2787500Y1412432D01*
Y1387568D01*
X2797015Y1364596D01*
X2814596Y1347015D01*
X2837568Y1337500D01*
X2862432D01*
X2885403Y1347015D01*
X2902985Y1364596D01*
X2912500Y1387568D01*
Y1412432D01*
X2902985Y1435404D01*
X2885403Y1452985D01*
X2862432Y1462500D01*
D02*
G37*
G36*
X1087300Y374638D02*
X1072485Y372687D01*
X1046845Y362067D01*
X1024828Y345172D01*
X1012700Y329367D01*
X1000000Y333678D01*
Y370000D01*
X800000D01*
Y130000D01*
X1000000D01*
Y166323D01*
X1012700Y170633D01*
X1024828Y154828D01*
X1046845Y137933D01*
X1072485Y127313D01*
X1087300Y125362D01*
Y250000D01*
Y374638D01*
D02*
G37*
G36*
X2093400Y275400D02*
X2000699D01*
Y162701D01*
X2093400D01*
Y275400D01*
D02*
G37*
G36*
X1975299D02*
X1882600D01*
Y162701D01*
X1975299D01*
Y275400D01*
D02*
G37*
G36*
X1112700Y374638D02*
Y250000D01*
Y125362D01*
X1127515Y127313D01*
X1153154Y137933D01*
X1175172Y154828D01*
X1192066Y176845D01*
X1196049Y186460D01*
X1209796D01*
X1212650Y179569D01*
X1228679Y158679D01*
X1249569Y142650D01*
X1273895Y132574D01*
X1300000Y129137D01*
X1326105Y132574D01*
X1350431Y142650D01*
X1371321Y158679D01*
X1387350Y179569D01*
X1393127Y193516D01*
X1406873D01*
X1412650Y179569D01*
X1428679Y158679D01*
X1449569Y142650D01*
X1473895Y132574D01*
X1500000Y129137D01*
X1526105Y132574D01*
X1550431Y142650D01*
X1571321Y158679D01*
X1587350Y179569D01*
X1597426Y203895D01*
X1600863Y230000D01*
Y270000D01*
X1597426Y296105D01*
X1587350Y320431D01*
X1571321Y341321D01*
X1550431Y357350D01*
X1526105Y367426D01*
X1500000Y370863D01*
X1473895Y367426D01*
X1449569Y357350D01*
X1428679Y341321D01*
X1412650Y320431D01*
X1406873Y306484D01*
X1393127D01*
X1387350Y320431D01*
X1371321Y341321D01*
X1350431Y357350D01*
X1326105Y367426D01*
X1300000Y370863D01*
X1273895Y367426D01*
X1249569Y357350D01*
X1228679Y341321D01*
X1212650Y320431D01*
X1209796Y313540D01*
X1196049D01*
X1192066Y323155D01*
X1175172Y345172D01*
X1153154Y362067D01*
X1127515Y372687D01*
X1112700Y374638D01*
D02*
G37*
G36*
X2496000Y270863D02*
X2469895Y267426D01*
X2445569Y257350D01*
X2424679Y241321D01*
X2408650Y220432D01*
X2398574Y196106D01*
X2395137Y170000D01*
Y130000D01*
X2398574Y103895D01*
X2408650Y79569D01*
X2424679Y58679D01*
X2445569Y42650D01*
X2469895Y32574D01*
X2496000Y29137D01*
X2522105Y32574D01*
X2546431Y42650D01*
X2567320Y58679D01*
X2583349Y79569D01*
X2593426Y103895D01*
X2596862Y130000D01*
Y170000D01*
X2593426Y196106D01*
X2583349Y220432D01*
X2567320Y241321D01*
X2546431Y257350D01*
X2522105Y267426D01*
X2496000Y270863D01*
D02*
G37*
G36*
X2242000D02*
X2215895Y267426D01*
X2191569Y257350D01*
X2170679Y241321D01*
X2154650Y220432D01*
X2144574Y196106D01*
X2141137Y170000D01*
Y130000D01*
X2144574Y103895D01*
X2154650Y79569D01*
X2170679Y58679D01*
X2191569Y42650D01*
X2215895Y32574D01*
X2242000Y29137D01*
X2268105Y32574D01*
X2292431Y42650D01*
X2313320Y58679D01*
X2329349Y79569D01*
X2339426Y103895D01*
X2342862Y130000D01*
Y170000D01*
X2339426Y196106D01*
X2329349Y220432D01*
X2313320Y241321D01*
X2292431Y257350D01*
X2268105Y267426D01*
X2242000Y270863D01*
D02*
G37*
G36*
X2093400Y137301D02*
X2000699D01*
Y24600D01*
X2093400D01*
Y137301D01*
D02*
G37*
G36*
X1975299D02*
X1882600D01*
Y24600D01*
X1975299D01*
Y137301D01*
D02*
G37*
G36*
X1467700Y7954810D02*
Y7742701D01*
X1581482D01*
Y7830000D01*
X1577172Y7862736D01*
X1564537Y7893241D01*
X1544437Y7919436D01*
X1518241Y7939537D01*
X1487736Y7952172D01*
X1467700Y7954810D01*
D02*
G37*
G36*
X1442300D02*
X1422264Y7952172D01*
X1391759Y7939537D01*
X1365564Y7919436D01*
X1345463Y7893241D01*
X1332828Y7862736D01*
X1328518Y7830000D01*
Y7742701D01*
X1442300D01*
Y7954810D01*
D02*
G37*
G36*
X845000Y7951035D02*
X813674Y7946911D01*
X784482Y7934820D01*
X759415Y7915585D01*
X740180Y7890518D01*
X728089Y7861326D01*
X723965Y7830000D01*
Y7630000D01*
X728089Y7598674D01*
X740180Y7569482D01*
X759415Y7544415D01*
X784482Y7525180D01*
X813674Y7513089D01*
X845000Y7508965D01*
X876326Y7513089D01*
X905518Y7525180D01*
X930585Y7544415D01*
X949820Y7569482D01*
X961911Y7598674D01*
X966036Y7630000D01*
Y7830000D01*
X961911Y7861326D01*
X949820Y7890518D01*
X930585Y7915585D01*
X905518Y7934820D01*
X876326Y7946911D01*
X845000Y7951035D01*
D02*
G37*
G36*
X1442300Y7717301D02*
X1328518D01*
Y7630000D01*
X1332828Y7597264D01*
X1345463Y7566759D01*
X1365564Y7540564D01*
X1391759Y7520463D01*
X1422264Y7507828D01*
X1442300Y7505190D01*
Y7717301D01*
D02*
G37*
G36*
X1581482D02*
X1467700D01*
Y7505190D01*
X1487736Y7507828D01*
X1518241Y7520463D01*
X1544437Y7540564D01*
X1564537Y7566759D01*
X1577172Y7597264D01*
X1581482Y7630000D01*
Y7717301D01*
D02*
G37*
G36*
X1275000Y7391036D02*
X1075000D01*
X1043674Y7386911D01*
X1014483Y7374820D01*
X989415Y7355585D01*
X970180Y7330518D01*
X958089Y7301326D01*
X953965Y7270000D01*
X958089Y7238674D01*
X970180Y7209482D01*
X989415Y7184415D01*
X1014483Y7165180D01*
X1043674Y7153089D01*
X1075000Y7148964D01*
X1275000D01*
X1306326Y7153089D01*
X1335518Y7165180D01*
X1360585Y7184415D01*
X1379820Y7209482D01*
X1391911Y7238674D01*
X1396036Y7270000D01*
X1391911Y7301326D01*
X1379820Y7330518D01*
X1360585Y7355585D01*
X1335518Y7374820D01*
X1306326Y7386911D01*
X1275000Y7391036D01*
D02*
G37*
G36*
X662432Y7212500D02*
X637568D01*
X614596Y7202985D01*
X597015Y7185404D01*
X587500Y7162432D01*
Y7137568D01*
X597015Y7114597D01*
X614596Y7097015D01*
X637568Y7087500D01*
X662432D01*
X685403Y7097015D01*
X702985Y7114597D01*
X712500Y7137568D01*
Y7162432D01*
X702985Y7185404D01*
X685403Y7202985D01*
X662432Y7212500D01*
D02*
G37*
G36*
X1312700Y7116893D02*
Y7062700D01*
X1366892D01*
X1363273Y7076209D01*
X1354334Y7091692D01*
X1341691Y7104334D01*
X1326208Y7113273D01*
X1312700Y7116893D01*
D02*
G37*
G36*
X1287300D02*
X1273791Y7113273D01*
X1258308Y7104334D01*
X1245666Y7091692D01*
X1236727Y7076209D01*
X1233108Y7062700D01*
X1287300D01*
Y7116893D01*
D02*
G37*
G36*
X1366892Y7037300D02*
X1312700D01*
Y6983108D01*
X1326208Y6986727D01*
X1341691Y6995666D01*
X1354334Y7008309D01*
X1363273Y7023792D01*
X1366892Y7037300D01*
D02*
G37*
G36*
X1287300D02*
X1233108D01*
X1236727Y7023792D01*
X1245666Y7008309D01*
X1258308Y6995666D01*
X1273791Y6986727D01*
X1287300Y6983108D01*
Y7037300D01*
D02*
G37*
G36*
X112700Y6766892D02*
Y6712700D01*
X166892D01*
X163273Y6726209D01*
X154333Y6741692D01*
X141691Y6754334D01*
X126208Y6763273D01*
X112700Y6766892D01*
D02*
G37*
G36*
X87300D02*
X73791Y6763273D01*
X58308Y6754334D01*
X45666Y6741692D01*
X36727Y6726209D01*
X33107Y6712700D01*
X87300D01*
Y6766892D01*
D02*
G37*
G36*
X166892Y6687300D02*
X112700D01*
Y6633108D01*
X126208Y6636727D01*
X141691Y6645666D01*
X154333Y6658309D01*
X163273Y6673792D01*
X166892Y6687300D01*
D02*
G37*
G36*
X87300D02*
X33107D01*
X36727Y6673792D01*
X45666Y6658309D01*
X58308Y6645666D01*
X73791Y6636727D01*
X87300Y6633108D01*
Y6687300D01*
D02*
G37*
G36*
X162700Y6016893D02*
Y5962700D01*
X216892D01*
X213273Y5976209D01*
X204333Y5991692D01*
X191691Y6004334D01*
X176208Y6013273D01*
X162700Y6016893D01*
D02*
G37*
G36*
X137300D02*
X123791Y6013273D01*
X108308Y6004334D01*
X95666Y5991692D01*
X86727Y5976209D01*
X83107Y5962700D01*
X137300D01*
Y6016893D01*
D02*
G37*
G36*
X216892Y5937300D02*
X162700D01*
Y5883108D01*
X176208Y5886727D01*
X191691Y5895667D01*
X204333Y5908309D01*
X213273Y5923792D01*
X216892Y5937300D01*
D02*
G37*
G36*
X137300D02*
X83107D01*
X86727Y5923792D01*
X95666Y5908309D01*
X108308Y5895667D01*
X123791Y5886727D01*
X137300Y5883108D01*
Y5937300D01*
D02*
G37*
G36*
X4240494Y5267500D02*
X4213506D01*
X4187436Y5260515D01*
X4164064Y5247020D01*
X4144980Y5227936D01*
X4131485Y5204564D01*
X4124500Y5178494D01*
Y5151506D01*
X4131485Y5125437D01*
X4144980Y5102064D01*
X4164064Y5082980D01*
X4187436Y5069485D01*
X4213506Y5062500D01*
X4240494D01*
X4266563Y5069485D01*
X4289936Y5082980D01*
X4309020Y5102064D01*
X4322515Y5125437D01*
X4329500Y5151506D01*
Y5178494D01*
X4322515Y5204564D01*
X4309020Y5227936D01*
X4289936Y5247020D01*
X4266563Y5260515D01*
X4240494Y5267500D01*
D02*
G37*
G36*
X4075500D02*
X3870500D01*
Y5062500D01*
X4075500D01*
Y5267500D01*
D02*
G37*
G36*
X3912700Y4966893D02*
Y4912700D01*
X3966892D01*
X3963273Y4926209D01*
X3954333Y4941692D01*
X3941691Y4954334D01*
X3926208Y4963273D01*
X3912700Y4966893D01*
D02*
G37*
G36*
X3887300D02*
X3873791Y4963273D01*
X3858308Y4954334D01*
X3845666Y4941692D01*
X3836727Y4926209D01*
X3833107Y4912700D01*
X3887300D01*
Y4966893D01*
D02*
G37*
G36*
X3966892Y4887300D02*
X3912700D01*
Y4833108D01*
X3926208Y4836727D01*
X3941691Y4845666D01*
X3954333Y4858309D01*
X3963273Y4873792D01*
X3966892Y4887300D01*
D02*
G37*
G36*
X3887300D02*
X3833107D01*
X3836727Y4873792D01*
X3845666Y4858309D01*
X3858308Y4845666D01*
X3873791Y4836727D01*
X3887300Y4833108D01*
Y4887300D01*
D02*
G37*
G36*
X4571249Y4920000D02*
X4528751D01*
X4486775Y4913352D01*
X4446356Y4900219D01*
X4408489Y4880925D01*
X4374107Y4855945D01*
X4344056Y4825893D01*
X4319075Y4791511D01*
X4299781Y4753644D01*
X4286648Y4713225D01*
X4280000Y4671249D01*
Y4628751D01*
X4286648Y4586775D01*
X4299781Y4546356D01*
X4319075Y4508489D01*
X4344056Y4474107D01*
X4374107Y4444056D01*
X4408489Y4419075D01*
X4446356Y4399781D01*
X4486775Y4386648D01*
X4528751Y4380000D01*
X4571249D01*
X4613225Y4386648D01*
X4653644Y4399781D01*
X4691511Y4419075D01*
X4725893Y4444056D01*
X4755945Y4474107D01*
X4780925Y4508489D01*
X4800219Y4546356D01*
X4813352Y4586775D01*
X4820000Y4628751D01*
Y4671249D01*
X4813352Y4713225D01*
X4800219Y4753644D01*
X4780925Y4791511D01*
X4755945Y4825893D01*
X4725893Y4855945D01*
X4691511Y4880925D01*
X4653644Y4900219D01*
X4613225Y4913352D01*
X4571249Y4920000D01*
D02*
G37*
G36*
X4240494Y4237500D02*
X4213506D01*
X4187436Y4230515D01*
X4164064Y4217021D01*
X4144980Y4197936D01*
X4131485Y4174564D01*
X4124500Y4148494D01*
Y4121506D01*
X4131485Y4095437D01*
X4144980Y4072064D01*
X4164064Y4052980D01*
X4187436Y4039485D01*
X4213506Y4032500D01*
X4240494D01*
X4266563Y4039485D01*
X4289936Y4052980D01*
X4309020Y4072064D01*
X4322515Y4095437D01*
X4329500Y4121506D01*
Y4148494D01*
X4322515Y4174564D01*
X4309020Y4197936D01*
X4289936Y4217021D01*
X4266563Y4230515D01*
X4240494Y4237500D01*
D02*
G37*
G36*
X3986494D02*
X3959506D01*
X3933436Y4230515D01*
X3910064Y4217021D01*
X3890980Y4197936D01*
X3877485Y4174564D01*
X3870500Y4148494D01*
Y4121506D01*
X3877485Y4095437D01*
X3890980Y4072064D01*
X3910064Y4052980D01*
X3933436Y4039485D01*
X3959506Y4032500D01*
X3986494D01*
X4012563Y4039485D01*
X4035936Y4052980D01*
X4055020Y4072064D01*
X4068515Y4095437D01*
X4075500Y4121506D01*
Y4148494D01*
X4068515Y4174564D01*
X4055020Y4197936D01*
X4035936Y4217021D01*
X4012563Y4230515D01*
X3986494Y4237500D01*
D02*
G37*
G36*
X4240494Y3983500D02*
X4213506D01*
X4187436Y3976515D01*
X4164064Y3963021D01*
X4144980Y3943936D01*
X4131485Y3920564D01*
X4124500Y3894494D01*
Y3867506D01*
X4131485Y3841437D01*
X4144980Y3818064D01*
X4164064Y3798980D01*
X4187436Y3785485D01*
X4213506Y3778500D01*
X4240494D01*
X4266563Y3785485D01*
X4289936Y3798980D01*
X4309020Y3818064D01*
X4322515Y3841437D01*
X4329500Y3867506D01*
Y3894494D01*
X4322515Y3920564D01*
X4309020Y3943936D01*
X4289936Y3963021D01*
X4266563Y3976515D01*
X4240494Y3983500D01*
D02*
G37*
G36*
X3986494D02*
X3959506D01*
X3933436Y3976515D01*
X3910064Y3963021D01*
X3890980Y3943936D01*
X3877485Y3920564D01*
X3870500Y3894494D01*
Y3867506D01*
X3877485Y3841437D01*
X3890980Y3818064D01*
X3910064Y3798980D01*
X3933436Y3785485D01*
X3959506Y3778500D01*
X3986494D01*
X4012563Y3785485D01*
X4035936Y3798980D01*
X4055020Y3818064D01*
X4068515Y3841437D01*
X4075500Y3867506D01*
Y3894494D01*
X4068515Y3920564D01*
X4055020Y3943936D01*
X4035936Y3963021D01*
X4012563Y3976515D01*
X3986494Y3983500D01*
D02*
G37*
G36*
X4240494Y3729500D02*
X4213506D01*
X4187436Y3722515D01*
X4164064Y3709021D01*
X4144980Y3689936D01*
X4131485Y3666564D01*
X4124500Y3640494D01*
Y3613506D01*
X4131485Y3587437D01*
X4144980Y3564064D01*
X4164064Y3544980D01*
X4187436Y3531485D01*
X4213506Y3524500D01*
X4240494D01*
X4266563Y3531485D01*
X4289936Y3544980D01*
X4309020Y3564064D01*
X4322515Y3587437D01*
X4329500Y3613506D01*
Y3640494D01*
X4322515Y3666564D01*
X4309020Y3689936D01*
X4289936Y3709021D01*
X4266563Y3722515D01*
X4240494Y3729500D01*
D02*
G37*
G36*
X3986494D02*
X3959506D01*
X3933436Y3722515D01*
X3910064Y3709021D01*
X3890980Y3689936D01*
X3877485Y3666564D01*
X3870500Y3640494D01*
Y3613506D01*
X3877485Y3587437D01*
X3890980Y3564064D01*
X3910064Y3544980D01*
X3933436Y3531485D01*
X3959506Y3524500D01*
X3986494D01*
X4012563Y3531485D01*
X4035936Y3544980D01*
X4055020Y3564064D01*
X4068515Y3587437D01*
X4075500Y3613506D01*
Y3640494D01*
X4068515Y3666564D01*
X4055020Y3689936D01*
X4035936Y3709021D01*
X4012563Y3722515D01*
X3986494Y3729500D01*
D02*
G37*
G36*
X4240494Y3475500D02*
X4213506D01*
X4187436Y3468515D01*
X4164064Y3455021D01*
X4144980Y3435936D01*
X4131485Y3412564D01*
X4124500Y3386494D01*
Y3359506D01*
X4131485Y3333437D01*
X4144980Y3310064D01*
X4164064Y3290980D01*
X4187436Y3277485D01*
X4213506Y3270500D01*
X4240494D01*
X4266563Y3277485D01*
X4289936Y3290980D01*
X4309020Y3310064D01*
X4322515Y3333437D01*
X4329500Y3359506D01*
Y3386494D01*
X4322515Y3412564D01*
X4309020Y3435936D01*
X4289936Y3455021D01*
X4266563Y3468515D01*
X4240494Y3475500D01*
D02*
G37*
G36*
X3986494D02*
X3959506D01*
X3933436Y3468515D01*
X3910064Y3455021D01*
X3890980Y3435936D01*
X3877485Y3412564D01*
X3870500Y3386494D01*
Y3359506D01*
X3877485Y3333437D01*
X3890980Y3310064D01*
X3910064Y3290980D01*
X3933436Y3277485D01*
X3959506Y3270500D01*
X3986494D01*
X4012563Y3277485D01*
X4035936Y3290980D01*
X4055020Y3310064D01*
X4068515Y3333437D01*
X4075500Y3359506D01*
Y3386494D01*
X4068515Y3412564D01*
X4055020Y3435936D01*
X4035936Y3455021D01*
X4012563Y3468515D01*
X3986494Y3475500D01*
D02*
G37*
G36*
X4240494Y3221500D02*
X4213506D01*
X4187436Y3214515D01*
X4164064Y3201021D01*
X4144980Y3181936D01*
X4131485Y3158564D01*
X4124500Y3132494D01*
Y3105506D01*
X4131485Y3079437D01*
X4144980Y3056064D01*
X4164064Y3036980D01*
X4187436Y3023485D01*
X4213506Y3016500D01*
X4240494D01*
X4266563Y3023485D01*
X4289936Y3036980D01*
X4309020Y3056064D01*
X4322515Y3079437D01*
X4329500Y3105506D01*
Y3132494D01*
X4322515Y3158564D01*
X4309020Y3181936D01*
X4289936Y3201021D01*
X4266563Y3214515D01*
X4240494Y3221500D01*
D02*
G37*
G36*
X3986494D02*
X3959506D01*
X3933436Y3214515D01*
X3910064Y3201021D01*
X3890980Y3181936D01*
X3877485Y3158564D01*
X3870500Y3132494D01*
Y3105506D01*
X3877485Y3079437D01*
X3890980Y3056064D01*
X3910064Y3036980D01*
X3933436Y3023485D01*
X3959506Y3016500D01*
X3986494D01*
X4012563Y3023485D01*
X4035936Y3036980D01*
X4055020Y3056064D01*
X4068515Y3079437D01*
X4075500Y3105506D01*
Y3132494D01*
X4068515Y3158564D01*
X4055020Y3181936D01*
X4035936Y3201021D01*
X4012563Y3214515D01*
X3986494Y3221500D01*
D02*
G37*
G36*
X4240494Y2967500D02*
X4213506D01*
X4187436Y2960515D01*
X4164064Y2947021D01*
X4144980Y2927936D01*
X4131485Y2904564D01*
X4124500Y2878494D01*
Y2851506D01*
X4131485Y2825437D01*
X4144980Y2802064D01*
X4164064Y2782980D01*
X4187436Y2769485D01*
X4213506Y2762500D01*
X4240494D01*
X4266563Y2769485D01*
X4289936Y2782980D01*
X4309020Y2802064D01*
X4322515Y2825437D01*
X4329500Y2851506D01*
Y2878494D01*
X4322515Y2904564D01*
X4309020Y2927936D01*
X4289936Y2947021D01*
X4266563Y2960515D01*
X4240494Y2967500D01*
D02*
G37*
G36*
X4075500D02*
X3870500D01*
Y2762500D01*
X4075500D01*
Y2967500D01*
D02*
G37*
G36*
X4571249Y2620000D02*
X4528751D01*
X4486775Y2613352D01*
X4446356Y2600219D01*
X4408489Y2580925D01*
X4374107Y2555945D01*
X4344056Y2525893D01*
X4319075Y2491511D01*
X4299781Y2453644D01*
X4286648Y2413225D01*
X4280000Y2371250D01*
Y2328751D01*
X4286648Y2286775D01*
X4299781Y2246356D01*
X4319075Y2208489D01*
X4344056Y2174107D01*
X4374107Y2144056D01*
X4408489Y2119076D01*
X4446356Y2099781D01*
X4486775Y2086648D01*
X4528751Y2080000D01*
X4571249D01*
X4613225Y2086648D01*
X4653644Y2099781D01*
X4691511Y2119076D01*
X4725893Y2144056D01*
X4755945Y2174107D01*
X4780925Y2208489D01*
X4800219Y2246356D01*
X4813352Y2286775D01*
X4820000Y2328751D01*
Y2371250D01*
X4813352Y2413225D01*
X4800219Y2453644D01*
X4780925Y2491511D01*
X4755945Y2525893D01*
X4725893Y2555945D01*
X4691511Y2580925D01*
X4653644Y2600219D01*
X4613225Y2613352D01*
X4571249Y2620000D01*
D02*
G37*
G36*
X4240494Y1937500D02*
X4213506D01*
X4187436Y1930515D01*
X4164064Y1917020D01*
X4144980Y1897936D01*
X4131485Y1874563D01*
X4124500Y1848494D01*
Y1821506D01*
X4131485Y1795436D01*
X4144980Y1772064D01*
X4164064Y1752979D01*
X4187436Y1739485D01*
X4213506Y1732500D01*
X4240494D01*
X4266563Y1739485D01*
X4289936Y1752979D01*
X4309020Y1772064D01*
X4322515Y1795436D01*
X4329500Y1821506D01*
Y1848494D01*
X4322515Y1874563D01*
X4309020Y1897936D01*
X4289936Y1917020D01*
X4266563Y1930515D01*
X4240494Y1937500D01*
D02*
G37*
G36*
X3986494D02*
X3959506D01*
X3933436Y1930515D01*
X3910064Y1917020D01*
X3890980Y1897936D01*
X3877485Y1874563D01*
X3870500Y1848494D01*
Y1821506D01*
X3877485Y1795436D01*
X3890980Y1772064D01*
X3910064Y1752979D01*
X3933436Y1739485D01*
X3959506Y1732500D01*
X3986494D01*
X4012563Y1739485D01*
X4035936Y1752979D01*
X4055020Y1772064D01*
X4068515Y1795436D01*
X4075500Y1821506D01*
Y1848494D01*
X4068515Y1874563D01*
X4055020Y1897936D01*
X4035936Y1917020D01*
X4012563Y1930515D01*
X3986494Y1937500D01*
D02*
G37*
G36*
X3613679Y1599900D02*
X3612700D01*
Y1508700D01*
X3703900D01*
Y1509679D01*
X3696819Y1536104D01*
X3683141Y1559796D01*
X3663796Y1579141D01*
X3640104Y1592820D01*
X3613679Y1599900D01*
D02*
G37*
G36*
X3587300D02*
X3586321D01*
X3559896Y1592820D01*
X3536204Y1579141D01*
X3516859Y1559796D01*
X3503180Y1536104D01*
X3496100Y1509679D01*
Y1508700D01*
X3587300D01*
Y1599900D01*
D02*
G37*
G36*
X4240494Y1683500D02*
X4213506D01*
X4187436Y1676515D01*
X4164064Y1663020D01*
X4144980Y1643936D01*
X4131485Y1620563D01*
X4124500Y1594494D01*
Y1567506D01*
X4131485Y1541436D01*
X4144980Y1518064D01*
X4164064Y1498979D01*
X4187436Y1485485D01*
X4213506Y1478500D01*
X4240494D01*
X4266563Y1485485D01*
X4289936Y1498979D01*
X4309020Y1518064D01*
X4322515Y1541436D01*
X4329500Y1567506D01*
Y1594494D01*
X4322515Y1620563D01*
X4309020Y1643936D01*
X4289936Y1663020D01*
X4266563Y1676515D01*
X4240494Y1683500D01*
D02*
G37*
G36*
X3986494D02*
X3959506D01*
X3933436Y1676515D01*
X3910064Y1663020D01*
X3890980Y1643936D01*
X3877485Y1620563D01*
X3870500Y1594494D01*
Y1567506D01*
X3877485Y1541436D01*
X3890980Y1518064D01*
X3910064Y1498979D01*
X3933436Y1485485D01*
X3959506Y1478500D01*
X3986494D01*
X4012563Y1485485D01*
X4035936Y1498979D01*
X4055020Y1518064D01*
X4068515Y1541436D01*
X4075500Y1567506D01*
Y1594494D01*
X4068515Y1620563D01*
X4055020Y1643936D01*
X4035936Y1663020D01*
X4012563Y1676515D01*
X3986494Y1683500D01*
D02*
G37*
G36*
X3703900Y1483300D02*
X3612700D01*
Y1392100D01*
X3613679D01*
X3640104Y1399181D01*
X3663796Y1412859D01*
X3683141Y1432204D01*
X3696819Y1455896D01*
X3703900Y1482321D01*
Y1483300D01*
D02*
G37*
G36*
X3587300D02*
X3496100D01*
Y1482321D01*
X3503180Y1455896D01*
X3516859Y1432204D01*
X3536204Y1412859D01*
X3559896Y1399181D01*
X3586321Y1392100D01*
X3587300D01*
Y1483300D01*
D02*
G37*
G36*
X4240494Y1429500D02*
X4213506D01*
X4187436Y1422515D01*
X4164064Y1409020D01*
X4144980Y1389936D01*
X4131485Y1366563D01*
X4124500Y1340494D01*
Y1313506D01*
X4131485Y1287436D01*
X4144980Y1264064D01*
X4164064Y1244979D01*
X4187436Y1231485D01*
X4213506Y1224500D01*
X4240494D01*
X4266563Y1231485D01*
X4289936Y1244979D01*
X4309020Y1264064D01*
X4322515Y1287436D01*
X4329500Y1313506D01*
Y1340494D01*
X4322515Y1366563D01*
X4309020Y1389936D01*
X4289936Y1409020D01*
X4266563Y1422515D01*
X4240494Y1429500D01*
D02*
G37*
G36*
X3986494D02*
X3959506D01*
X3933436Y1422515D01*
X3910064Y1409020D01*
X3890980Y1389936D01*
X3877485Y1366563D01*
X3870500Y1340494D01*
Y1313506D01*
X3877485Y1287436D01*
X3890980Y1264064D01*
X3910064Y1244979D01*
X3933436Y1231485D01*
X3959506Y1224500D01*
X3986494D01*
X4012563Y1231485D01*
X4035936Y1244979D01*
X4055020Y1264064D01*
X4068515Y1287436D01*
X4075500Y1313506D01*
Y1340494D01*
X4068515Y1366563D01*
X4055020Y1389936D01*
X4035936Y1409020D01*
X4012563Y1422515D01*
X3986494Y1429500D01*
D02*
G37*
G36*
X4240494Y1175500D02*
X4213506D01*
X4187436Y1168515D01*
X4164064Y1155020D01*
X4144980Y1135936D01*
X4131485Y1112563D01*
X4124500Y1086494D01*
Y1059506D01*
X4131485Y1033436D01*
X4144980Y1010064D01*
X4164064Y990979D01*
X4187436Y977485D01*
X4213506Y970500D01*
X4240494D01*
X4266563Y977485D01*
X4289936Y990979D01*
X4309020Y1010064D01*
X4322515Y1033436D01*
X4329500Y1059506D01*
Y1086494D01*
X4322515Y1112563D01*
X4309020Y1135936D01*
X4289936Y1155020D01*
X4266563Y1168515D01*
X4240494Y1175500D01*
D02*
G37*
G36*
X3986494D02*
X3959506D01*
X3933436Y1168515D01*
X3910064Y1155020D01*
X3890980Y1135936D01*
X3877485Y1112563D01*
X3870500Y1086494D01*
Y1059506D01*
X3877485Y1033436D01*
X3890980Y1010064D01*
X3910064Y990979D01*
X3933436Y977485D01*
X3959506Y970500D01*
X3986494D01*
X4012563Y977485D01*
X4035936Y990979D01*
X4055020Y1010064D01*
X4068515Y1033436D01*
X4075500Y1059506D01*
Y1086494D01*
X4068515Y1112563D01*
X4055020Y1135936D01*
X4035936Y1155020D01*
X4012563Y1168515D01*
X3986494Y1175500D01*
D02*
G37*
G36*
X4240494Y921500D02*
X4213506D01*
X4187436Y914515D01*
X4164064Y901020D01*
X4144980Y881936D01*
X4131485Y858563D01*
X4124500Y832494D01*
Y805506D01*
X4131485Y779436D01*
X4144980Y756064D01*
X4164064Y736979D01*
X4187436Y723485D01*
X4213506Y716500D01*
X4240494D01*
X4266563Y723485D01*
X4289936Y736979D01*
X4309020Y756064D01*
X4322515Y779436D01*
X4329500Y805506D01*
Y832494D01*
X4322515Y858563D01*
X4309020Y881936D01*
X4289936Y901020D01*
X4266563Y914515D01*
X4240494Y921500D01*
D02*
G37*
G36*
X3986494D02*
X3959506D01*
X3933436Y914515D01*
X3910064Y901020D01*
X3890980Y881936D01*
X3877485Y858563D01*
X3870500Y832494D01*
Y805506D01*
X3877485Y779436D01*
X3890980Y756064D01*
X3910064Y736979D01*
X3933436Y723485D01*
X3959506Y716500D01*
X3986494D01*
X4012563Y723485D01*
X4035936Y736979D01*
X4055020Y756064D01*
X4068515Y779436D01*
X4075500Y805506D01*
Y832494D01*
X4068515Y858563D01*
X4055020Y881936D01*
X4035936Y901020D01*
X4012563Y914515D01*
X3986494Y921500D01*
D02*
G37*
G36*
X4240494Y667500D02*
X4213506D01*
X4187436Y660515D01*
X4164064Y647020D01*
X4144980Y627936D01*
X4131485Y604563D01*
X4124500Y578494D01*
Y551506D01*
X4131485Y525436D01*
X4144980Y502064D01*
X4164064Y482979D01*
X4187436Y469485D01*
X4213506Y462500D01*
X4240494D01*
X4266563Y469485D01*
X4289936Y482979D01*
X4309020Y502064D01*
X4322515Y525436D01*
X4329500Y551506D01*
Y578494D01*
X4322515Y604563D01*
X4309020Y627936D01*
X4289936Y647020D01*
X4266563Y660515D01*
X4240494Y667500D01*
D02*
G37*
G36*
X4075500D02*
X3870500D01*
Y462500D01*
X4075500D01*
Y667500D01*
D02*
G37*
G36*
X3293400Y275400D02*
X3200700D01*
Y162700D01*
X3293400D01*
Y275400D01*
D02*
G37*
G36*
X4458000Y270863D02*
X4431895Y267426D01*
X4407569Y257350D01*
X4386679Y241321D01*
X4370650Y220432D01*
X4360574Y196106D01*
X4357137Y170000D01*
Y130000D01*
X4360574Y103895D01*
X4370650Y79569D01*
X4386679Y58679D01*
X4407569Y42650D01*
X4431895Y32574D01*
X4458000Y29137D01*
X4484105Y32574D01*
X4508431Y42650D01*
X4529321Y58679D01*
X4545350Y79569D01*
X4555426Y103895D01*
X4558863Y130000D01*
Y170000D01*
X4555426Y196106D01*
X4545350Y220432D01*
X4529321Y241321D01*
X4508431Y257350D01*
X4484105Y267426D01*
X4458000Y270863D01*
D02*
G37*
G36*
X4204000D02*
X4177895Y267426D01*
X4153569Y257350D01*
X4132679Y241321D01*
X4116650Y220432D01*
X4106574Y196106D01*
X4103137Y170000D01*
Y130000D01*
X4106574Y103895D01*
X4116650Y79569D01*
X4132679Y58679D01*
X4153569Y42650D01*
X4177895Y32574D01*
X4204000Y29137D01*
X4230105Y32574D01*
X4254431Y42650D01*
X4275321Y58679D01*
X4291350Y79569D01*
X4301426Y103895D01*
X4304863Y130000D01*
Y170000D01*
X4301426Y196106D01*
X4291350Y220432D01*
X4275321Y241321D01*
X4254431Y257350D01*
X4230105Y267426D01*
X4204000Y270863D01*
D02*
G37*
G36*
X3950000D02*
X3923895Y267426D01*
X3899569Y257350D01*
X3878679Y241321D01*
X3862650Y220432D01*
X3852574Y196106D01*
X3849137Y170000D01*
Y130000D01*
X3852574Y103895D01*
X3862650Y79569D01*
X3878679Y58679D01*
X3899569Y42650D01*
X3923895Y32574D01*
X3950000Y29137D01*
X3976105Y32574D01*
X4000431Y42650D01*
X4021321Y58679D01*
X4037350Y79569D01*
X4047426Y103895D01*
X4050863Y130000D01*
Y170000D01*
X4047426Y196106D01*
X4037350Y220432D01*
X4021321Y241321D01*
X4000431Y257350D01*
X3976105Y267426D01*
X3950000Y270863D01*
D02*
G37*
G36*
X3696000D02*
X3669895Y267426D01*
X3645569Y257350D01*
X3624679Y241321D01*
X3608650Y220432D01*
X3598574Y196106D01*
X3595137Y170000D01*
Y130000D01*
X3598574Y103895D01*
X3608650Y79569D01*
X3624679Y58679D01*
X3645569Y42650D01*
X3669895Y32574D01*
X3696000Y29137D01*
X3722105Y32574D01*
X3746431Y42650D01*
X3767321Y58679D01*
X3783350Y79569D01*
X3793426Y103895D01*
X3796863Y130000D01*
Y170000D01*
X3793426Y196106D01*
X3783350Y220432D01*
X3767321Y241321D01*
X3746431Y257350D01*
X3722105Y267426D01*
X3696000Y270863D01*
D02*
G37*
G36*
X3442000D02*
X3415895Y267426D01*
X3391569Y257350D01*
X3370679Y241321D01*
X3354650Y220432D01*
X3344574Y196106D01*
X3341137Y170000D01*
Y130000D01*
X3344574Y103895D01*
X3354650Y79569D01*
X3370679Y58679D01*
X3391569Y42650D01*
X3415895Y32574D01*
X3442000Y29137D01*
X3468105Y32574D01*
X3492431Y42650D01*
X3513321Y58679D01*
X3529350Y79569D01*
X3539426Y103895D01*
X3542863Y130000D01*
Y170000D01*
X3539426Y196106D01*
X3529350Y220432D01*
X3513321Y241321D01*
X3492431Y257350D01*
X3468105Y267426D01*
X3442000Y270863D01*
D02*
G37*
G36*
X3293400Y137300D02*
X3200700D01*
Y24600D01*
X3293400D01*
Y137300D01*
D02*
G37*
G36*
X3175300D02*
X3082600D01*
Y24600D01*
X3175300D01*
Y137300D01*
D02*
G37*
G36*
X2312700Y4966893D02*
Y4912701D01*
X2366892D01*
X2363273Y4926209D01*
X2354334Y4941692D01*
X2341692Y4954334D01*
X2326208Y4963274D01*
X2312700Y4966893D01*
D02*
G37*
G36*
X2287300D02*
X2273791Y4963274D01*
X2258308Y4954334D01*
X2245666Y4941692D01*
X2236727Y4926209D01*
X2233108Y4912701D01*
X2287300D01*
Y4966893D01*
D02*
G37*
G36*
X2366892Y4887301D02*
X2312700D01*
Y4833108D01*
X2326208Y4836728D01*
X2341692Y4845667D01*
X2354334Y4858309D01*
X2363273Y4873792D01*
X2366892Y4887301D01*
D02*
G37*
G36*
X2287300D02*
X2233108D01*
X2236727Y4873792D01*
X2245666Y4858309D01*
X2258308Y4845667D01*
X2273791Y4836728D01*
X2287300Y4833108D01*
Y4887301D01*
D02*
G37*
G36*
X2071249Y4220000D02*
X2028751D01*
X1986775Y4213352D01*
X1946356Y4200219D01*
X1908489Y4180925D01*
X1874107Y4155944D01*
X1844055Y4125893D01*
X1819075Y4091511D01*
X1799781Y4053644D01*
X1786648Y4013225D01*
X1780000Y3971249D01*
Y3928751D01*
X1786648Y3886775D01*
X1799781Y3846356D01*
X1819075Y3808489D01*
X1844055Y3774107D01*
X1874107Y3744056D01*
X1908489Y3719075D01*
X1946356Y3699781D01*
X1986775Y3686648D01*
X2028751Y3680000D01*
X2071249D01*
X2113225Y3686648D01*
X2153644Y3699781D01*
X2191511Y3719075D01*
X2225893Y3744056D01*
X2255944Y3774107D01*
X2280925Y3808489D01*
X2300219Y3846356D01*
X2313352Y3886775D01*
X2320000Y3928751D01*
Y3971249D01*
X2313352Y4013225D01*
X2300219Y4053644D01*
X2280925Y4091511D01*
X2255944Y4125893D01*
X2225893Y4155944D01*
X2191511Y4180925D01*
X2153644Y4200219D01*
X2113225Y4213352D01*
X2071249Y4220000D01*
D02*
G37*
G36*
X2013679Y3557900D02*
X2012700D01*
Y3466699D01*
X2103900D01*
Y3467679D01*
X2096820Y3494104D01*
X2083141Y3517796D01*
X2063796Y3537141D01*
X2040104Y3550819D01*
X2013679Y3557900D01*
D02*
G37*
G36*
X2381792Y3184709D02*
X2356928D01*
X2333956Y3175194D01*
X2316375Y3157613D01*
X2306860Y3134641D01*
Y3109777D01*
X2316375Y3086806D01*
X2333956Y3069224D01*
X2356928Y3059709D01*
X2381792D01*
X2404763Y3069224D01*
X2422345Y3086806D01*
X2431860Y3109777D01*
Y3134641D01*
X2422345Y3157613D01*
X2404763Y3175194D01*
X2381792Y3184709D01*
D02*
G37*
G36*
X3162700Y2666892D02*
Y2612700D01*
X3216892D01*
X3213273Y2626208D01*
X3204334Y2641691D01*
X3191692Y2654334D01*
X3176209Y2663273D01*
X3162700Y2666892D01*
D02*
G37*
G36*
X3137300D02*
X3123792Y2663273D01*
X3108308Y2654334D01*
X3095666Y2641691D01*
X3086727Y2626208D01*
X3083108Y2612700D01*
X3137300D01*
Y2666892D01*
D02*
G37*
G36*
X3216892Y2587300D02*
X3162700D01*
Y2533107D01*
X3176209Y2536727D01*
X3191692Y2545666D01*
X3204334Y2558308D01*
X3213273Y2573791D01*
X3216892Y2587300D01*
D02*
G37*
G36*
X3137300D02*
X3083108D01*
X3086727Y2573791D01*
X3095666Y2558308D01*
X3108308Y2545666D01*
X3123792Y2536727D01*
X3137300Y2533107D01*
Y2587300D01*
D02*
G37*
G36*
X236679Y5503900D02*
X235700D01*
Y5412701D01*
X326900D01*
Y5413679D01*
X319820Y5440104D01*
X306141Y5463796D01*
X286796Y5483141D01*
X263104Y5496820D01*
X236679Y5503900D01*
D02*
G37*
G36*
X210300D02*
X209321D01*
X182896Y5496820D01*
X159204Y5483141D01*
X139859Y5463796D01*
X126181Y5440104D01*
X119100Y5413679D01*
Y5412701D01*
X210300D01*
Y5503900D01*
D02*
G37*
G36*
X575500Y5498500D02*
X378500D01*
Y5301500D01*
X575500D01*
Y5498500D01*
D02*
G37*
G36*
X326900Y5387301D02*
X235700D01*
Y5296100D01*
X236679D01*
X263104Y5303181D01*
X286796Y5316859D01*
X306141Y5336204D01*
X319820Y5359896D01*
X326900Y5386321D01*
Y5387301D01*
D02*
G37*
G36*
X210300D02*
X119100D01*
Y5386321D01*
X126181Y5359896D01*
X139859Y5336204D01*
X159204Y5316859D01*
X182896Y5303181D01*
X209321Y5296100D01*
X210300D01*
Y5387301D01*
D02*
G37*
G36*
X280783Y4971268D02*
Y4917075D01*
X334975D01*
X331356Y4930584D01*
X322417Y4946067D01*
X309775Y4958709D01*
X294292Y4967648D01*
X280783Y4971268D01*
D02*
G37*
G36*
X255383D02*
X241875Y4967648D01*
X226391Y4958709D01*
X213749Y4946067D01*
X204810Y4930584D01*
X201191Y4917075D01*
X255383D01*
Y4971268D01*
D02*
G37*
G36*
X334975Y4891675D02*
X280783D01*
Y4837483D01*
X294292Y4841102D01*
X309775Y4850042D01*
X322417Y4862684D01*
X331356Y4878167D01*
X334975Y4891675D01*
D02*
G37*
G36*
X255383D02*
X201191D01*
X204810Y4878167D01*
X213749Y4862684D01*
X226391Y4850042D01*
X241875Y4841102D01*
X255383Y4837483D01*
Y4891675D01*
D02*
G37*
G36*
X975400Y2817400D02*
X862700D01*
Y2724700D01*
X975400D01*
Y2817400D01*
D02*
G37*
G36*
X837300D02*
X724600D01*
Y2724700D01*
X837300D01*
Y2817400D01*
D02*
G37*
G36*
X625400Y2813400D02*
X512700D01*
Y2720700D01*
X625400D01*
Y2813400D01*
D02*
G37*
G36*
X487300D02*
X374600D01*
Y2720700D01*
X487300D01*
Y2813400D01*
D02*
G37*
G36*
X275400Y2809400D02*
X162700D01*
Y2716700D01*
X275400D01*
Y2809400D01*
D02*
G37*
G36*
X137300D02*
X24600D01*
Y2716700D01*
X137300D01*
Y2809400D01*
D02*
G37*
G36*
X975400Y2699300D02*
X862700D01*
Y2606600D01*
X975400D01*
Y2699300D01*
D02*
G37*
G36*
X837300D02*
X724600D01*
Y2606600D01*
X837300D01*
Y2699300D01*
D02*
G37*
G36*
X625400Y2695300D02*
X512700D01*
Y2602600D01*
X625400D01*
Y2695300D01*
D02*
G37*
G36*
X487300D02*
X374600D01*
Y2602600D01*
X487300D01*
Y2695300D01*
D02*
G37*
G36*
X275400Y2691300D02*
X162700D01*
Y2598600D01*
X275400D01*
Y2691300D01*
D02*
G37*
G36*
X137300D02*
X24600D01*
Y2598600D01*
X137300D01*
Y2691300D01*
D02*
G37*
G36*
X870000Y2558863D02*
X830000D01*
X803895Y2555426D01*
X779568Y2545350D01*
X758679Y2529321D01*
X742650Y2508431D01*
X732574Y2484105D01*
X729137Y2458000D01*
X732574Y2431895D01*
X742650Y2407569D01*
X758679Y2386680D01*
X779568Y2370651D01*
X803895Y2360574D01*
X830000Y2357138D01*
X870000D01*
X896105Y2360574D01*
X920431Y2370651D01*
X941321Y2386680D01*
X957350Y2407569D01*
X967426Y2431895D01*
X970863Y2458000D01*
X967426Y2484105D01*
X957350Y2508431D01*
X941321Y2529321D01*
X920431Y2545350D01*
X896105Y2555426D01*
X870000Y2558863D01*
D02*
G37*
G36*
X520000Y2554863D02*
X480000D01*
X453895Y2551426D01*
X429569Y2541350D01*
X408679Y2525321D01*
X392650Y2504431D01*
X382574Y2480105D01*
X379137Y2454000D01*
X382574Y2427895D01*
X392650Y2403569D01*
X408679Y2382680D01*
X429569Y2366651D01*
X453895Y2356574D01*
X480000Y2353138D01*
X520000D01*
X546105Y2356574D01*
X570431Y2366651D01*
X591321Y2382680D01*
X607350Y2403569D01*
X617426Y2427895D01*
X620863Y2454000D01*
X617426Y2480105D01*
X607350Y2504431D01*
X591321Y2525321D01*
X570431Y2541350D01*
X546105Y2551426D01*
X520000Y2554863D01*
D02*
G37*
G36*
X170000Y2550863D02*
X130000D01*
X103895Y2547426D01*
X79568Y2537350D01*
X58679Y2521321D01*
X42650Y2500431D01*
X32574Y2476105D01*
X29137Y2450000D01*
X32574Y2423895D01*
X42650Y2399569D01*
X58679Y2378680D01*
X79568Y2362651D01*
X103895Y2352574D01*
X130000Y2349138D01*
X170000D01*
X196105Y2352574D01*
X220432Y2362651D01*
X241321Y2378680D01*
X257350Y2399569D01*
X267426Y2423895D01*
X270863Y2450000D01*
X267426Y2476105D01*
X257350Y2500431D01*
X241321Y2521321D01*
X220432Y2537350D01*
X196105Y2547426D01*
X170000Y2550863D01*
D02*
G37*
G36*
X870000Y2304863D02*
X830000D01*
X803895Y2301426D01*
X779568Y2291350D01*
X758679Y2275321D01*
X742650Y2254431D01*
X732574Y2230105D01*
X729137Y2204000D01*
X732574Y2177895D01*
X742650Y2153569D01*
X758679Y2132680D01*
X779568Y2116651D01*
X803895Y2106574D01*
X830000Y2103138D01*
X870000D01*
X896105Y2106574D01*
X920431Y2116651D01*
X941321Y2132680D01*
X957350Y2153569D01*
X967426Y2177895D01*
X970863Y2204000D01*
X967426Y2230105D01*
X957350Y2254431D01*
X941321Y2275321D01*
X920431Y2291350D01*
X896105Y2301426D01*
X870000Y2304863D01*
D02*
G37*
G36*
X520000Y2300863D02*
X480000D01*
X453895Y2297426D01*
X429569Y2287350D01*
X408679Y2271321D01*
X392650Y2250431D01*
X382574Y2226105D01*
X379137Y2200000D01*
X382574Y2173895D01*
X392650Y2149569D01*
X408679Y2128680D01*
X429569Y2112651D01*
X453895Y2102574D01*
X480000Y2099138D01*
X520000D01*
X546105Y2102574D01*
X570431Y2112651D01*
X591321Y2128680D01*
X607350Y2149569D01*
X617426Y2173895D01*
X620863Y2200000D01*
X617426Y2226105D01*
X607350Y2250431D01*
X591321Y2271321D01*
X570431Y2287350D01*
X546105Y2297426D01*
X520000Y2300863D01*
D02*
G37*
G36*
X170000Y2296863D02*
X130000D01*
X103895Y2293426D01*
X79568Y2283350D01*
X58679Y2267321D01*
X42650Y2246431D01*
X32574Y2222105D01*
X29137Y2196000D01*
X32574Y2169895D01*
X42650Y2145569D01*
X58679Y2124680D01*
X79568Y2108651D01*
X103895Y2098574D01*
X130000Y2095138D01*
X170000D01*
X196105Y2098574D01*
X220432Y2108651D01*
X241321Y2124680D01*
X257350Y2145569D01*
X267426Y2169895D01*
X270863Y2196000D01*
X267426Y2222105D01*
X257350Y2246431D01*
X241321Y2267321D01*
X220432Y2283350D01*
X196105Y2293426D01*
X170000Y2296863D01*
D02*
G37*
G36*
X1712432Y2112500D02*
X1687568D01*
X1664596Y2102985D01*
X1647015Y2085404D01*
X1637500Y2062432D01*
Y2037568D01*
X1647015Y2014597D01*
X1664596Y1997015D01*
X1687568Y1987500D01*
X1712432D01*
X1735403Y1997015D01*
X1752985Y2014597D01*
X1762500Y2037568D01*
Y2062432D01*
X1752985Y2085404D01*
X1735403Y2102985D01*
X1712432Y2112500D01*
D02*
G37*
G36*
X1712700Y1933020D02*
Y1878828D01*
X1766892D01*
X1763273Y1892336D01*
X1754334Y1907819D01*
X1741691Y1920461D01*
X1726208Y1929401D01*
X1712700Y1933020D01*
D02*
G37*
G36*
X1687300D02*
X1673791Y1929401D01*
X1658308Y1920461D01*
X1645666Y1907819D01*
X1636727Y1892336D01*
X1633107Y1878828D01*
X1687300D01*
Y1933020D01*
D02*
G37*
G36*
X870000Y2050863D02*
X830000D01*
X803895Y2047426D01*
X779568Y2037350D01*
X758679Y2021321D01*
X742650Y2000431D01*
X732574Y1976105D01*
X729137Y1950000D01*
X732574Y1923895D01*
X742650Y1899569D01*
X758679Y1878680D01*
X779568Y1862651D01*
X803895Y1852574D01*
X830000Y1849138D01*
X870000D01*
X896105Y1852574D01*
X920431Y1862651D01*
X941321Y1878680D01*
X957350Y1899569D01*
X967426Y1923895D01*
X970863Y1950000D01*
X967426Y1976105D01*
X957350Y2000431D01*
X941321Y2021321D01*
X920431Y2037350D01*
X896105Y2047426D01*
X870000Y2050863D01*
D02*
G37*
G36*
X520000Y2046863D02*
X480000D01*
X453895Y2043426D01*
X429569Y2033350D01*
X408679Y2017321D01*
X392650Y1996431D01*
X382574Y1972105D01*
X379137Y1946000D01*
X382574Y1919895D01*
X392650Y1895569D01*
X408679Y1874680D01*
X429569Y1858651D01*
X453895Y1848574D01*
X480000Y1845138D01*
X520000D01*
X546105Y1848574D01*
X570431Y1858651D01*
X591321Y1874680D01*
X607350Y1895569D01*
X617426Y1919895D01*
X620863Y1946000D01*
X617426Y1972105D01*
X607350Y1996431D01*
X591321Y2017321D01*
X570431Y2033350D01*
X546105Y2043426D01*
X520000Y2046863D01*
D02*
G37*
G36*
X170000Y2042863D02*
X130000D01*
X103895Y2039426D01*
X79568Y2029350D01*
X58679Y2013321D01*
X42650Y1992431D01*
X32574Y1968105D01*
X29137Y1942000D01*
X32574Y1915895D01*
X42650Y1891569D01*
X58679Y1870680D01*
X79568Y1854651D01*
X103895Y1844574D01*
X130000Y1841138D01*
X170000D01*
X196105Y1844574D01*
X220432Y1854651D01*
X241321Y1870680D01*
X257350Y1891569D01*
X267426Y1915895D01*
X270863Y1942000D01*
X267426Y1968105D01*
X257350Y1992431D01*
X241321Y2013321D01*
X220432Y2029350D01*
X196105Y2039426D01*
X170000Y2042863D01*
D02*
G37*
G36*
X1766892Y1853428D02*
X1712700D01*
Y1799235D01*
X1726208Y1802855D01*
X1741691Y1811794D01*
X1754334Y1824436D01*
X1763273Y1839919D01*
X1766892Y1853428D01*
D02*
G37*
G36*
X1687300D02*
X1633107D01*
X1636727Y1839919D01*
X1645666Y1824436D01*
X1658308Y1811794D01*
X1673791Y1802855D01*
X1687300Y1799235D01*
Y1853428D01*
D02*
G37*
G36*
X1712432Y1712500D02*
X1687568D01*
X1664596Y1702985D01*
X1647015Y1685404D01*
X1637500Y1662432D01*
Y1637568D01*
X1647015Y1614596D01*
X1664596Y1597015D01*
X1687568Y1587500D01*
X1712432D01*
X1735403Y1597015D01*
X1752985Y1614596D01*
X1762500Y1637568D01*
Y1662432D01*
X1752985Y1685404D01*
X1735403Y1702985D01*
X1712432Y1712500D01*
D02*
G37*
G36*
X275400Y1667400D02*
X162700D01*
Y1574700D01*
X275400D01*
Y1667400D01*
D02*
G37*
G36*
X137300D02*
X24600D01*
Y1574700D01*
X137300D01*
Y1667400D01*
D02*
G37*
G36*
X625400Y1659400D02*
X512700D01*
Y1566700D01*
X625400D01*
Y1659400D01*
D02*
G37*
G36*
X487300D02*
X374600D01*
Y1566700D01*
X487300D01*
Y1659400D01*
D02*
G37*
G36*
X275400Y1549300D02*
X162700D01*
Y1456600D01*
X275400D01*
Y1549300D01*
D02*
G37*
G36*
X137300D02*
X24600D01*
Y1456600D01*
X137300D01*
Y1549300D01*
D02*
G37*
G36*
X625400Y1541300D02*
X512700D01*
Y1448600D01*
X625400D01*
Y1541300D01*
D02*
G37*
G36*
X487300D02*
X374600D01*
Y1448600D01*
X487300D01*
Y1541300D01*
D02*
G37*
G36*
X170000Y1408863D02*
X130000D01*
X103895Y1405426D01*
X79568Y1395350D01*
X58679Y1379321D01*
X42650Y1358432D01*
X32574Y1334105D01*
X29137Y1308000D01*
X32574Y1281895D01*
X42650Y1257569D01*
X58679Y1236680D01*
X79568Y1220651D01*
X103895Y1210574D01*
X130000Y1207138D01*
X170000D01*
X196105Y1210574D01*
X220432Y1220651D01*
X241321Y1236680D01*
X257350Y1257569D01*
X267426Y1281895D01*
X270863Y1308000D01*
X267426Y1334105D01*
X257350Y1358432D01*
X241321Y1379321D01*
X220432Y1395350D01*
X196105Y1405426D01*
X170000Y1408863D01*
D02*
G37*
G36*
X520000Y1400863D02*
X480000D01*
X453895Y1397426D01*
X429569Y1387350D01*
X408679Y1371321D01*
X392650Y1350432D01*
X382574Y1326105D01*
X379137Y1300000D01*
X382574Y1273895D01*
X392650Y1249569D01*
X408679Y1228680D01*
X429569Y1212651D01*
X453895Y1202574D01*
X480000Y1199138D01*
X520000D01*
X546105Y1202574D01*
X570431Y1212651D01*
X591321Y1228680D01*
X607350Y1249569D01*
X617426Y1273895D01*
X620863Y1300000D01*
X617426Y1326105D01*
X607350Y1350432D01*
X591321Y1371321D01*
X570431Y1387350D01*
X546105Y1397426D01*
X520000Y1400863D01*
D02*
G37*
G36*
X170000Y1154863D02*
X130000D01*
X103895Y1151426D01*
X79568Y1141350D01*
X58679Y1125321D01*
X42650Y1104432D01*
X32574Y1080105D01*
X29137Y1054000D01*
X32574Y1027895D01*
X42650Y1003569D01*
X58679Y982680D01*
X79568Y966651D01*
X103895Y956574D01*
X130000Y953138D01*
X170000D01*
X196105Y956574D01*
X220432Y966651D01*
X241321Y982680D01*
X257350Y1003569D01*
X267426Y1027895D01*
X270863Y1054000D01*
X267426Y1080105D01*
X257350Y1104432D01*
X241321Y1125321D01*
X220432Y1141350D01*
X196105Y1151426D01*
X170000Y1154863D01*
D02*
G37*
G36*
X520000Y1146863D02*
X480000D01*
X453895Y1143426D01*
X429569Y1133350D01*
X408679Y1117321D01*
X392650Y1096432D01*
X382574Y1072105D01*
X379137Y1046000D01*
X382574Y1019895D01*
X392650Y995569D01*
X408679Y974680D01*
X429569Y958651D01*
X453895Y948574D01*
X480000Y945138D01*
X520000D01*
X546105Y948574D01*
X570431Y958651D01*
X591321Y974680D01*
X607350Y995569D01*
X617426Y1019895D01*
X620863Y1046000D01*
X617426Y1072105D01*
X607350Y1096432D01*
X591321Y1117321D01*
X570431Y1133350D01*
X546105Y1143426D01*
X520000Y1146863D01*
D02*
G37*
G36*
X1762700Y916893D02*
Y862700D01*
X1816892D01*
X1813273Y876209D01*
X1804334Y891692D01*
X1791692Y904334D01*
X1776209Y913273D01*
X1762700Y916893D01*
D02*
G37*
G36*
X1737300D02*
X1723792Y913273D01*
X1708308Y904334D01*
X1695666Y891692D01*
X1686727Y876209D01*
X1683108Y862700D01*
X1737300D01*
Y916893D01*
D02*
G37*
G36*
X2729841Y866892D02*
Y812700D01*
X2784033D01*
X2780414Y826208D01*
X2771475Y841691D01*
X2758832Y854334D01*
X2743349Y863273D01*
X2729841Y866892D01*
D02*
G37*
G36*
X2704441D02*
X2690932Y863273D01*
X2675449Y854334D01*
X2662807Y841691D01*
X2653868Y826208D01*
X2650248Y812700D01*
X2704441D01*
Y866892D01*
D02*
G37*
G36*
X1816892Y837300D02*
X1762700D01*
Y783108D01*
X1776209Y786727D01*
X1791692Y795666D01*
X1804334Y808309D01*
X1813273Y823792D01*
X1816892Y837300D01*
D02*
G37*
G36*
X1737300D02*
X1683108D01*
X1686727Y823792D01*
X1695666Y808309D01*
X1708308Y795666D01*
X1723792Y786727D01*
X1737300Y783108D01*
Y837300D01*
D02*
G37*
G36*
X2784033Y787300D02*
X2729841D01*
Y733108D01*
X2743349Y736727D01*
X2758832Y745666D01*
X2771475Y758308D01*
X2780414Y773791D01*
X2784033Y787300D01*
D02*
G37*
G36*
X2704441D02*
X2650248D01*
X2653868Y773791D01*
X2662807Y758308D01*
X2675449Y745666D01*
X2690932Y736727D01*
X2704441Y733108D01*
Y787300D01*
D02*
G37*
G36*
X170000Y900863D02*
X130000D01*
X103895Y897426D01*
X79568Y887350D01*
X58679Y871321D01*
X42650Y850432D01*
X32574Y826105D01*
X29137Y800000D01*
X32574Y773895D01*
X42650Y749569D01*
X58679Y728680D01*
X79568Y712651D01*
X103895Y702574D01*
X130000Y699138D01*
X170000D01*
X196105Y702574D01*
X220432Y712651D01*
X241321Y728680D01*
X257350Y749569D01*
X267426Y773895D01*
X270863Y800000D01*
X267426Y826105D01*
X257350Y850432D01*
X241321Y871321D01*
X220432Y887350D01*
X196105Y897426D01*
X170000Y900863D01*
D02*
G37*
G36*
X520000Y892863D02*
X480000D01*
X453895Y889426D01*
X429569Y879350D01*
X408679Y863321D01*
X392650Y842432D01*
X382574Y818105D01*
X379137Y792000D01*
X382574Y765895D01*
X392650Y741569D01*
X408679Y720680D01*
X429569Y704651D01*
X453895Y694574D01*
X480000Y691138D01*
X520000D01*
X546105Y694574D01*
X570431Y704651D01*
X591321Y720680D01*
X607350Y741569D01*
X617426Y765895D01*
X620863Y792000D01*
X617426Y818105D01*
X607350Y842432D01*
X591321Y863321D01*
X570431Y879350D01*
X546105Y889426D01*
X520000Y892863D01*
D02*
G37*
%LPD*%
D30*
X2049999Y5434000D02*
X2100000Y5484000D01*
D32*
X2265000Y7823000D02*
D03*
Y7950000D02*
D03*
X2392000Y7823000D02*
D03*
Y7950000D02*
D03*
X2519000Y7823000D02*
D03*
Y7950000D02*
D03*
X2646000Y7823000D02*
D03*
Y7950000D02*
D03*
X2773000Y7823000D02*
D03*
Y7950000D02*
D03*
X2900000Y7823000D02*
D03*
Y7950000D02*
D03*
X3027000Y7823000D02*
D03*
Y7950000D02*
D03*
X3154000Y7823000D02*
D03*
Y7950000D02*
D03*
X3281000Y7823000D02*
D03*
Y7950000D02*
D03*
X3408000Y7823000D02*
D03*
X4935000Y7127000D02*
D03*
Y7000000D02*
D03*
X4808000Y7127000D02*
D03*
Y7000000D02*
D03*
X4681000Y7127000D02*
D03*
Y7000000D02*
D03*
X4554000Y7127000D02*
D03*
Y7000000D02*
D03*
X4427000Y7127000D02*
D03*
Y7000000D02*
D03*
X4300000Y7127000D02*
D03*
Y7000000D02*
D03*
X4173000Y7127000D02*
D03*
Y7000000D02*
D03*
X4046000Y7127000D02*
D03*
Y7000000D02*
D03*
X3919000Y7127000D02*
D03*
Y7000000D02*
D03*
X3792000Y7127000D02*
D03*
D33*
X3408000Y7950000D02*
D03*
X3792000Y7000000D02*
D03*
D34*
X2100000Y5484000D02*
D03*
X500000Y2708000D02*
D03*
X850000Y2712000D02*
D03*
X150000Y2704000D02*
D03*
X500000Y1554000D02*
D03*
X150000Y1562000D02*
D03*
D35*
X2100000Y5738000D02*
D03*
Y5992000D02*
D03*
Y6246000D02*
D03*
Y6500000D02*
D03*
Y6754000D02*
D03*
Y7008000D02*
D03*
X500000Y1946000D02*
D03*
Y2200000D02*
D03*
Y2454000D02*
D03*
X850000Y1950000D02*
D03*
Y2204000D02*
D03*
Y2458000D02*
D03*
X150000Y2450000D02*
D03*
Y2196000D02*
D03*
Y1942000D02*
D03*
X500000Y792000D02*
D03*
Y1046000D02*
D03*
Y1300000D02*
D03*
X150000Y800000D02*
D03*
Y1054000D02*
D03*
Y1308000D02*
D03*
D36*
X4458000Y150000D02*
D03*
X4204000D02*
D03*
X3950000D02*
D03*
X3696000D02*
D03*
X3442000D02*
D03*
X1500000Y250000D02*
D03*
X1300000D02*
D03*
X1100000D02*
D03*
X2242000Y150000D02*
D03*
X2496000D02*
D03*
X2750000D02*
D03*
D37*
X3188000D02*
D03*
X900000Y250000D02*
D03*
X1988000Y150000D02*
D03*
D38*
X1175000Y7270000D02*
D03*
D39*
X1455000Y7730000D02*
D03*
X845000D02*
D03*
D40*
X477000Y5400000D02*
D03*
D41*
X223000D02*
D03*
X1750000Y6046000D02*
D03*
X3600000Y1496000D02*
D03*
X2000000Y3454000D02*
D03*
D42*
X3973000Y565000D02*
D03*
Y5165000D02*
D03*
Y2865000D02*
D03*
D43*
Y819000D02*
D03*
X4227000Y565000D02*
D03*
Y819000D02*
D03*
X3973000Y1327000D02*
D03*
X4227000D02*
D03*
X3973000Y1835000D02*
D03*
X4227000D02*
D03*
Y1581000D02*
D03*
X3973000D02*
D03*
X4227000Y1073000D02*
D03*
X3973000D02*
D03*
Y5419000D02*
D03*
X4227000Y5165000D02*
D03*
Y5419000D02*
D03*
X3973000Y5927000D02*
D03*
X4227000D02*
D03*
X3973000Y6435000D02*
D03*
X4227000D02*
D03*
Y6181000D02*
D03*
X3973000D02*
D03*
X4227000Y5673000D02*
D03*
X3973000D02*
D03*
Y3119000D02*
D03*
X4227000Y2865000D02*
D03*
Y3119000D02*
D03*
X3973000Y3627000D02*
D03*
X4227000D02*
D03*
X3973000Y4135000D02*
D03*
X4227000D02*
D03*
Y3881000D02*
D03*
X3973000D02*
D03*
X4227000Y3373000D02*
D03*
X3973000D02*
D03*
D44*
X1750000Y6300000D02*
D03*
X3600000Y1750000D02*
D03*
X2000000Y3200000D02*
D03*
D45*
X2050000Y3950000D02*
D03*
X400000Y350000D02*
D03*
X4550000Y4650000D02*
D03*
Y2350000D02*
D03*
D46*
X2504627Y6000000D02*
D03*
X3100000Y1550000D02*
D03*
X2717141Y800000D02*
D03*
X2953174Y5603174D02*
D03*
X3400000Y5000000D02*
D03*
X2400000Y5300000D02*
D03*
X1900000Y7500000D02*
D03*
X1300000Y7050000D02*
D03*
X2369360Y3122209D02*
D03*
X3150000Y2600000D02*
D03*
X3100000Y1800000D02*
D03*
Y2050000D02*
D03*
X2000000Y1650000D02*
D03*
X2200000Y1550000D02*
D03*
X1700000Y1650000D02*
D03*
Y1866128D02*
D03*
Y2050000D02*
D03*
Y2250000D02*
D03*
Y2450000D02*
D03*
Y2650000D02*
D03*
X2400000Y2850000D02*
D03*
X2200000D02*
D03*
X2000000D02*
D03*
X2400000Y1500000D02*
D03*
X1750000Y850000D02*
D03*
X2450000Y6650000D02*
D03*
X3100000Y3800001D02*
D03*
X1350000Y5100000D02*
D03*
X1100000Y6650000D02*
D03*
X650000Y7150000D02*
D03*
X1200000Y6450000D02*
D03*
X100000Y6700000D02*
D03*
X150000Y5950000D02*
D03*
X3450000Y6900000D02*
D03*
X2300000Y700000D02*
D03*
X2850000Y1400000D02*
D03*
X2300000Y2000000D02*
D03*
X2950000Y5300000D02*
D03*
X3450000Y7350000D02*
D03*
X3100000Y3300000D02*
D03*
X3900000Y4900000D02*
D03*
X3100000Y4700000D02*
D03*
X2300000Y4900001D02*
D03*
X3250000Y4350001D02*
D03*
X1208708Y4356207D02*
D03*
X1058708Y3806207D02*
D03*
X1050000Y3300000D02*
D03*
X268083Y4904375D02*
D03*
X1050000Y4700000D02*
D03*
X1750000Y3200000D02*
D03*
X3450000Y6550000D02*
D03*
%TF.MD5,a5ce8a4ec6fef034db9f07ffed5d8fdf*%
M02*
