%TF.GenerationSoftware,Altium Limited,Altium Designer,21.2.1 (34)*%
G04 Layer_Color=65535*
%FSLAX45Y45*%
%MOMM*%
%TF.SameCoordinates,53973CC1-9108-4EA7-9D5E-FD48CC852793*%
%TF.FilePolarity,Positive*%
%TF.FileFunction,Legend,Top*%
%TF.Part,Single*%
G01*
G75*
%TA.AperFunction,NonConductor*%
%ADD59C,0.25000*%
%ADD60C,0.20000*%
%ADD61C,0.50800*%
%ADD62C,0.50000*%
%ADD63C,0.10000*%
%ADD64C,0.12700*%
%ADD65C,0.15000*%
%ADD66C,0.15240*%
G36*
X1239708Y2441935D02*
X1259500D01*
Y2436987D01*
X1269396D01*
Y2432039D01*
X1284240D01*
Y2427091D01*
X1294136D01*
Y2422143D01*
X1308981D01*
Y2417195D01*
X1318877D01*
Y2412247D01*
X1328773D01*
Y2407299D01*
X1338669D01*
Y2402351D01*
X1348565D01*
Y2397403D01*
X1358461D01*
Y2392455D01*
X1368357D01*
Y2387507D01*
X1373305D01*
Y2382559D01*
X1383201D01*
Y2377610D01*
X1393097D01*
Y2372662D01*
X1402994D01*
Y2367714D01*
X1407942D01*
Y2362766D01*
X1417838D01*
Y2357818D01*
X1427734D01*
Y2352870D01*
X1432682D01*
Y2347922D01*
X1437630D01*
Y2342974D01*
X1447526D01*
Y2338026D01*
X1452474D01*
Y2333078D01*
X1457422D01*
Y2328130D01*
X1462370D01*
Y2323182D01*
X1467318D01*
Y2318234D01*
X1472266D01*
Y2313286D01*
X1477214D01*
Y2303390D01*
X1482162D01*
Y2288546D01*
X1487110D01*
Y2278649D01*
X1482162D01*
Y2263805D01*
X1477214D01*
Y2258857D01*
X1472266D01*
Y2263805D01*
X1462370D01*
Y2268753D01*
X1452474D01*
Y2273701D01*
X1442578D01*
Y2278649D01*
X1437630D01*
Y2283597D01*
X1427734D01*
Y2288546D01*
X1417838D01*
Y2293494D01*
X1407942D01*
Y2298442D01*
X1398045D01*
Y2303390D01*
X1388149D01*
Y2308338D01*
X1378253D01*
Y2313286D01*
X1368357D01*
Y2318234D01*
X1358461D01*
Y2323182D01*
X1343617D01*
Y2328130D01*
X1333721D01*
Y2333078D01*
X1318877D01*
Y2338026D01*
X1264448D01*
Y2333078D01*
X1259500D01*
Y2328130D01*
X1254552D01*
Y2323182D01*
X1249604D01*
Y2318234D01*
X1244656D01*
Y2313286D01*
X1239708D01*
Y2303390D01*
X1234760D01*
Y2293494D01*
X1229812D01*
Y2268753D01*
X1224864D01*
Y2120312D01*
X1229812D01*
Y2115364D01*
X1210019D01*
Y2120312D01*
X1200123D01*
Y2125260D01*
X1190227D01*
Y2130208D01*
X1185279D01*
Y2140104D01*
X1180331D01*
Y2145052D01*
X1175383D01*
Y2159896D01*
X1170435D01*
Y2179688D01*
X1165487D01*
Y2209377D01*
X1160539D01*
Y2244013D01*
X1155591D01*
Y2367714D01*
X1160539D01*
Y2407299D01*
X1165487D01*
Y2422143D01*
X1170435D01*
Y2432039D01*
X1175383D01*
Y2436987D01*
X1180331D01*
Y2441935D01*
X1190227D01*
Y2446883D01*
X1239708D01*
Y2441935D01*
D02*
G37*
G36*
X1284240Y2214325D02*
X1299085D01*
Y2209377D01*
X1304032D01*
Y2204429D01*
X1313929D01*
Y2199480D01*
X1318877D01*
Y2194533D01*
X1328773D01*
Y2189584D01*
X1338669D01*
Y2179688D01*
X1348565D01*
Y2164844D01*
X1343617D01*
Y2159896D01*
X1333721D01*
Y2150000D01*
X1318877D01*
Y2140104D01*
X1304032D01*
Y2130208D01*
X1289188D01*
Y2120312D01*
X1264448D01*
Y2125260D01*
X1259500D01*
Y2199480D01*
Y2204429D01*
Y2214325D01*
X1264448D01*
Y2219273D01*
X1269396D01*
Y2224221D01*
X1274344D01*
Y2219273D01*
X1279292D01*
Y2224221D01*
X1284240D01*
Y2214325D01*
D02*
G37*
G36*
X1135799Y2154948D02*
X1140747D01*
Y2120312D01*
X1145695D01*
Y2100520D01*
X1150643D01*
Y2085675D01*
X1155591D01*
Y2080727D01*
X1160539D01*
Y2070831D01*
X1165487D01*
Y2065883D01*
X1170435D01*
Y2060935D01*
X1175383D01*
Y2055987D01*
X1180331D01*
Y2051039D01*
X1229812D01*
Y2055987D01*
X1244656D01*
Y2060935D01*
X1259500D01*
Y2065883D01*
X1269396D01*
Y2070831D01*
X1279292D01*
Y2075779D01*
X1289188D01*
Y2080727D01*
X1299085D01*
Y2085675D01*
X1308981D01*
Y2090623D01*
X1313929D01*
Y2095571D01*
X1323825D01*
Y2100520D01*
X1333721D01*
Y2105467D01*
X1338669D01*
Y2110416D01*
X1348565D01*
Y2115364D01*
X1353513D01*
Y2120312D01*
X1363409D01*
Y2125260D01*
X1368357D01*
Y2130208D01*
X1378253D01*
Y2135156D01*
X1383201D01*
Y2140104D01*
X1388149D01*
Y2135156D01*
X1393097D01*
Y2125260D01*
X1398045D01*
Y2100520D01*
X1393097D01*
Y2090623D01*
X1388149D01*
Y2085675D01*
X1383201D01*
Y2075779D01*
X1378253D01*
Y2070831D01*
X1373305D01*
Y2065883D01*
X1368357D01*
Y2060935D01*
X1363409D01*
Y2055987D01*
X1353513D01*
Y2051039D01*
X1348565D01*
Y2046091D01*
X1343617D01*
Y2041143D01*
X1338669D01*
Y2036195D01*
X1328773D01*
Y2031247D01*
X1323825D01*
Y2026299D01*
X1313929D01*
Y2021351D01*
X1308981D01*
Y2016403D01*
X1299085D01*
Y2011455D01*
X1294136D01*
Y2006507D01*
X1284240D01*
Y2001559D01*
X1274344D01*
Y1996610D01*
X1269396D01*
Y1991662D01*
X1259500D01*
Y1986714D01*
X1254552D01*
Y1981766D01*
X1244656D01*
Y1976818D01*
X1234760D01*
Y1971870D01*
X1229812D01*
Y1966922D01*
X1219916D01*
Y1961974D01*
X1210019D01*
Y1957026D01*
X1205072D01*
Y1952078D01*
X1190227D01*
Y1947130D01*
X1180331D01*
Y1942182D01*
X1165487D01*
Y1937234D01*
X1120955D01*
Y1942182D01*
X1116006D01*
Y1947130D01*
X1106110D01*
Y1957026D01*
X1101162D01*
Y1961974D01*
X1096214D01*
Y1976818D01*
X1091266D01*
Y1991662D01*
X1086318D01*
Y2016403D01*
X1081370D01*
Y2051039D01*
X1076422D01*
Y2209377D01*
X1081370D01*
Y2234117D01*
X1086318D01*
Y2244013D01*
X1091266D01*
Y2253909D01*
X1096214D01*
Y2258857D01*
X1101162D01*
Y2263805D01*
X1106110D01*
Y2268753D01*
X1116006D01*
Y2273701D01*
X1135799D01*
Y2154948D01*
D02*
G37*
G36*
X1358461Y2273701D02*
X1388149D01*
Y2268753D01*
X1398045D01*
Y2263805D01*
X1407942D01*
Y2258857D01*
X1417838D01*
Y2253909D01*
X1427734D01*
Y2248961D01*
X1437630D01*
Y2244013D01*
X1447526D01*
Y2239065D01*
X1452474D01*
Y2234117D01*
X1457422D01*
Y2229169D01*
X1467318D01*
Y2224221D01*
X1482162D01*
Y2219273D01*
X1487110D01*
Y2214325D01*
X1492058D01*
Y2209377D01*
X1501955D01*
Y2204429D01*
X1506902D01*
Y2199480D01*
X1516799D01*
Y2194533D01*
X1531643D01*
Y2189584D01*
X1536591D01*
Y2184636D01*
X1541539D01*
Y2179688D01*
X1551435D01*
Y2174740D01*
X1561331D01*
Y2169792D01*
X1566279D01*
Y2164844D01*
X1571227D01*
Y2159896D01*
X1581123D01*
Y2150000D01*
X1586072D01*
Y2145052D01*
X1591019D01*
Y2140104D01*
X1595968D01*
Y2135156D01*
X1600916D01*
Y2130208D01*
X1605864D01*
Y2125260D01*
X1610812D01*
Y2110416D01*
X1615760D01*
Y2100520D01*
X1610812D01*
Y2090623D01*
X1605864D01*
Y2080727D01*
X1600916D01*
Y2075779D01*
X1595968D01*
Y2070831D01*
X1591019D01*
Y2065883D01*
X1586072D01*
Y2060935D01*
X1581123D01*
Y2055987D01*
X1576175D01*
Y2046091D01*
X1561331D01*
Y2041143D01*
X1556383D01*
Y2031247D01*
X1551435D01*
Y2026299D01*
X1546487D01*
Y2021351D01*
X1531643D01*
Y2016403D01*
X1521747D01*
Y2011455D01*
X1516799D01*
Y2006507D01*
X1506902D01*
Y2001559D01*
X1501955D01*
Y1996610D01*
X1487110D01*
Y1991662D01*
X1482162D01*
Y1986714D01*
X1472266D01*
Y1981766D01*
X1457422D01*
Y1976818D01*
X1447526D01*
Y1971870D01*
X1437630D01*
Y1966922D01*
X1427734D01*
Y1961974D01*
X1417838D01*
Y1957026D01*
X1407942D01*
Y1952078D01*
X1393097D01*
Y1947130D01*
X1383201D01*
Y1942182D01*
X1368357D01*
Y1937234D01*
X1353513D01*
Y1932286D01*
X1299085D01*
Y1937234D01*
X1289188D01*
Y1942182D01*
X1284240D01*
Y1952078D01*
X1289188D01*
Y1961974D01*
X1294136D01*
Y1966922D01*
X1304032D01*
Y1971870D01*
X1313929D01*
Y1976818D01*
X1328773D01*
Y1981766D01*
X1338669D01*
Y1986714D01*
X1348565D01*
Y1991662D01*
X1353513D01*
Y1996610D01*
X1368357D01*
Y2001559D01*
X1373305D01*
Y2006507D01*
X1388149D01*
Y2011455D01*
X1393097D01*
Y2016403D01*
X1398045D01*
Y2021351D01*
X1407942D01*
Y2026299D01*
X1412890D01*
Y2031247D01*
X1422786D01*
Y2036195D01*
X1427734D01*
Y2046091D01*
X1437630D01*
Y2051039D01*
X1442578D01*
Y2055987D01*
X1447526D01*
Y2060935D01*
X1452474D01*
Y2065883D01*
X1457422D01*
Y2070831D01*
X1462370D01*
Y2080727D01*
X1467318D01*
Y2090623D01*
X1472266D01*
Y2125260D01*
X1467318D01*
Y2135156D01*
X1462370D01*
Y2140104D01*
X1457422D01*
Y2145052D01*
X1452474D01*
Y2150000D01*
X1447526D01*
Y2154948D01*
X1442578D01*
Y2164844D01*
X1432682D01*
Y2169792D01*
X1427734D01*
Y2174740D01*
X1422786D01*
Y2179688D01*
X1417838D01*
Y2184636D01*
X1412890D01*
Y2189584D01*
X1402994D01*
Y2194533D01*
X1393097D01*
Y2199480D01*
X1383201D01*
Y2204429D01*
X1373305D01*
Y2209377D01*
X1363409D01*
Y2214325D01*
X1353513D01*
Y2219273D01*
X1348565D01*
Y2224221D01*
X1343617D01*
Y2229169D01*
X1333721D01*
Y2234117D01*
X1318877D01*
Y2239065D01*
X1313929D01*
Y2244013D01*
X1304032D01*
Y2248961D01*
X1299085D01*
Y2258857D01*
X1304032D01*
Y2263805D01*
X1308981D01*
Y2268753D01*
X1313929D01*
Y2273701D01*
X1328773D01*
Y2278649D01*
X1358461D01*
Y2273701D01*
D02*
G37*
G36*
X1393097Y1635403D02*
X1363409D01*
Y1699727D01*
Y1704675D01*
Y1749208D01*
X1393097D01*
Y1635403D01*
D02*
G37*
G36*
X1482162Y1625507D02*
X1442578D01*
Y1778896D01*
X1304032D01*
Y1625507D01*
X1269396D01*
Y1813533D01*
X1482162D01*
Y1625507D01*
D02*
G37*
G36*
Y1556234D02*
X1304032D01*
Y1412740D01*
X1269396D01*
Y1590870D01*
X1482162D01*
Y1556234D01*
D02*
G37*
G36*
X1447526Y1383052D02*
X1452474D01*
Y1378104D01*
X1462370D01*
Y1373156D01*
X1467318D01*
Y1363260D01*
X1472266D01*
Y1353364D01*
X1477214D01*
Y1333571D01*
X1482162D01*
Y1204922D01*
Y1199974D01*
Y1175234D01*
X1442578D01*
Y1343467D01*
X1437630D01*
Y1348416D01*
X1427734D01*
Y1353364D01*
X1407942D01*
Y1348416D01*
X1398045D01*
Y1338520D01*
X1393097D01*
Y1219766D01*
X1388149D01*
Y1195026D01*
X1383201D01*
Y1185130D01*
X1378253D01*
Y1180182D01*
X1373305D01*
Y1175234D01*
X1368357D01*
Y1170286D01*
X1358461D01*
Y1165338D01*
X1304032D01*
Y1170286D01*
X1294136D01*
Y1175234D01*
X1289188D01*
Y1180182D01*
X1284240D01*
Y1185130D01*
X1279292D01*
Y1195026D01*
X1274344D01*
Y1209870D01*
X1269396D01*
Y1388000D01*
X1304032D01*
Y1214818D01*
X1308981D01*
Y1209870D01*
X1313929D01*
Y1199974D01*
X1328773D01*
Y1195026D01*
X1338669D01*
Y1199974D01*
X1353513D01*
Y1209870D01*
X1358461D01*
Y1219766D01*
X1363409D01*
Y1353364D01*
X1368357D01*
Y1363260D01*
X1373305D01*
Y1368208D01*
X1378253D01*
Y1373156D01*
X1383201D01*
Y1378104D01*
X1388149D01*
Y1383052D01*
X1398045D01*
Y1388000D01*
X1447526D01*
Y1383052D01*
D02*
G37*
G36*
X1219916Y1160390D02*
X1214968D01*
Y1150494D01*
X1210019D01*
Y1140597D01*
X1205072D01*
Y1135649D01*
X1195175D01*
Y1130701D01*
X1165487D01*
Y1135649D01*
X1160539D01*
Y1140597D01*
X1155591D01*
Y1145546D01*
X1150643D01*
Y1150494D01*
X1145695D01*
Y1165338D01*
X1140747D01*
Y1219766D01*
X1219916D01*
Y1160390D01*
D02*
G37*
G36*
Y1031740D02*
X1214968D01*
Y1096065D01*
X1185279D01*
Y1036688D01*
X1180331D01*
Y1061429D01*
Y1066377D01*
Y1091117D01*
X1175383D01*
Y1096065D01*
X1150643D01*
Y1091117D01*
X1145695D01*
Y1031740D01*
X1140747D01*
Y1105961D01*
X1219916D01*
Y1031740D01*
D02*
G37*
G36*
X1155591Y997104D02*
X1150643D01*
Y987208D01*
X1145695D01*
Y957520D01*
X1150643D01*
Y952571D01*
X1155591D01*
Y947623D01*
X1170435D01*
Y957520D01*
X1175383D01*
Y972364D01*
X1180331D01*
Y992156D01*
X1185279D01*
Y1002052D01*
X1190227D01*
Y1007000D01*
X1214968D01*
Y997104D01*
X1219916D01*
Y987208D01*
X1224864D01*
Y972364D01*
Y967416D01*
Y962467D01*
X1219916D01*
Y947623D01*
X1214968D01*
Y942675D01*
X1210019D01*
Y957520D01*
X1214968D01*
Y992156D01*
X1210019D01*
Y997104D01*
X1195175D01*
Y992156D01*
X1190227D01*
Y982260D01*
X1185279D01*
Y962467D01*
X1180331D01*
Y947623D01*
X1175383D01*
Y942675D01*
X1170435D01*
Y937727D01*
X1155591D01*
Y942675D01*
X1145695D01*
Y952571D01*
X1140747D01*
Y997104D01*
X1145695D01*
Y1007000D01*
X1150643D01*
Y1011948D01*
X1155591D01*
Y997104D01*
D02*
G37*
G36*
X1219916Y903091D02*
X1140747D01*
Y912987D01*
X1219916D01*
Y903091D01*
D02*
G37*
G36*
X1482162Y1096065D02*
X1477214D01*
Y1091117D01*
X1472266D01*
Y1086169D01*
X1467318D01*
Y1081221D01*
X1457422D01*
Y1076273D01*
X1452474D01*
Y1071325D01*
X1447526D01*
Y1066377D01*
X1442578D01*
Y1061429D01*
X1437630D01*
Y1056480D01*
X1427734D01*
Y1051533D01*
X1422786D01*
Y1046584D01*
X1417838D01*
Y1041636D01*
X1412890D01*
Y1036688D01*
X1407942D01*
Y1031740D01*
X1402994D01*
Y1026792D01*
X1393097D01*
Y1021844D01*
X1388149D01*
Y1016896D01*
X1383201D01*
Y1011948D01*
X1388149D01*
Y1007000D01*
X1393097D01*
Y1002052D01*
X1398045D01*
Y997104D01*
X1402994D01*
Y992156D01*
X1407942D01*
Y987208D01*
X1417838D01*
Y982260D01*
X1422786D01*
Y977312D01*
X1427734D01*
Y972364D01*
X1432682D01*
Y967416D01*
X1437630D01*
Y962467D01*
X1442578D01*
Y957520D01*
X1452474D01*
Y952571D01*
X1457422D01*
Y947623D01*
X1462370D01*
Y942675D01*
X1467318D01*
Y937727D01*
X1472266D01*
Y932779D01*
X1477214D01*
Y927831D01*
X1482162D01*
Y888247D01*
X1472266D01*
Y893195D01*
X1467318D01*
Y898143D01*
X1462370D01*
Y903091D01*
X1457422D01*
Y908039D01*
X1447526D01*
Y912987D01*
X1442578D01*
Y917935D01*
X1437630D01*
Y922883D01*
X1432682D01*
Y927831D01*
X1427734D01*
Y932779D01*
X1422786D01*
Y937727D01*
X1417838D01*
Y942675D01*
X1407942D01*
Y947623D01*
X1402994D01*
Y952571D01*
X1398045D01*
Y957520D01*
X1393097D01*
Y962467D01*
X1388149D01*
Y967416D01*
X1383201D01*
Y972364D01*
X1373305D01*
Y977312D01*
X1368357D01*
Y982260D01*
X1363409D01*
Y987208D01*
X1358461D01*
Y992156D01*
X1353513D01*
Y997104D01*
X1269396D01*
Y1031740D01*
X1353513D01*
Y1036688D01*
X1358461D01*
Y1041636D01*
X1363409D01*
Y1046584D01*
X1368357D01*
Y1051533D01*
X1373305D01*
Y1056480D01*
X1378253D01*
Y1061429D01*
X1388149D01*
Y1066377D01*
X1393097D01*
Y1071325D01*
X1398045D01*
Y1076273D01*
X1402994D01*
Y1081221D01*
X1407942D01*
Y1086169D01*
X1412890D01*
Y1091117D01*
X1422786D01*
Y1096065D01*
X1427734D01*
Y1101013D01*
X1432682D01*
Y1105961D01*
X1437630D01*
Y1110909D01*
X1442578D01*
Y1115857D01*
X1447526D01*
Y1120805D01*
X1457422D01*
Y1125753D01*
X1462370D01*
Y1130701D01*
X1467318D01*
Y1135649D01*
X1472266D01*
Y1140597D01*
X1482162D01*
Y1096065D01*
D02*
G37*
G36*
X1200123Y868455D02*
X1205072D01*
Y863507D01*
X1210019D01*
Y858559D01*
X1214968D01*
Y853610D01*
X1219916D01*
Y833818D01*
X1224864D01*
Y809078D01*
X1219916D01*
Y794234D01*
X1214968D01*
Y789286D01*
X1210019D01*
Y804130D01*
X1214968D01*
Y843714D01*
X1210019D01*
Y848662D01*
X1205072D01*
Y858559D01*
X1195175D01*
Y863507D01*
X1165487D01*
Y858559D01*
X1160539D01*
Y853610D01*
X1155591D01*
Y848662D01*
X1150643D01*
Y838766D01*
X1145695D01*
Y823922D01*
Y818974D01*
Y809078D01*
X1150643D01*
Y794234D01*
X1175383D01*
Y823922D01*
X1185279D01*
Y784338D01*
X1150643D01*
Y789286D01*
X1145695D01*
Y799182D01*
X1140747D01*
Y848662D01*
X1145695D01*
Y858559D01*
X1150643D01*
Y863507D01*
X1155591D01*
Y868455D01*
X1165487D01*
Y873403D01*
X1200123D01*
Y868455D01*
D02*
G37*
G36*
X1442578Y873403D02*
X1452474D01*
Y868455D01*
X1462370D01*
Y863507D01*
X1467318D01*
Y853610D01*
X1472266D01*
Y843714D01*
X1477214D01*
Y818974D01*
X1482162D01*
Y665584D01*
X1442578D01*
Y833818D01*
X1437630D01*
Y838766D01*
X1427734D01*
Y843714D01*
X1407942D01*
Y838766D01*
X1398045D01*
Y828870D01*
X1393097D01*
Y710117D01*
X1388149D01*
Y685377D01*
X1383201D01*
Y675480D01*
X1378253D01*
Y670533D01*
X1373305D01*
Y665584D01*
X1368357D01*
Y660636D01*
X1358461D01*
Y655688D01*
X1304032D01*
Y660636D01*
X1294136D01*
Y665584D01*
X1289188D01*
Y670533D01*
X1284240D01*
Y675480D01*
X1279292D01*
Y685377D01*
X1274344D01*
Y700221D01*
X1269396D01*
Y878351D01*
X1304032D01*
Y705169D01*
X1308981D01*
Y695273D01*
X1313929D01*
Y690325D01*
X1328773D01*
Y685377D01*
X1338669D01*
Y690325D01*
X1353513D01*
Y700221D01*
X1358461D01*
Y710117D01*
X1363409D01*
Y843714D01*
X1368357D01*
Y853610D01*
X1373305D01*
Y858559D01*
X1378253D01*
Y863507D01*
X1383201D01*
Y868455D01*
X1388149D01*
Y873403D01*
X1398045D01*
Y878351D01*
X1442578D01*
Y873403D01*
D02*
G37*
G36*
X1219916Y739805D02*
X1214968D01*
Y734857D01*
X1210019D01*
Y729909D01*
X1200123D01*
Y724961D01*
X1195175D01*
Y720013D01*
X1190227D01*
Y715065D01*
X1185279D01*
Y710117D01*
X1180331D01*
Y705169D01*
X1175383D01*
Y700221D01*
X1170435D01*
Y695273D01*
X1165487D01*
Y690325D01*
X1160539D01*
Y685377D01*
X1155591D01*
Y680429D01*
X1219916D01*
Y670533D01*
X1140747D01*
Y680429D01*
X1145695D01*
Y685377D01*
X1150643D01*
Y690325D01*
X1155591D01*
Y695273D01*
X1160539D01*
Y700221D01*
X1165487D01*
Y705169D01*
X1170435D01*
Y710117D01*
X1175383D01*
Y715065D01*
X1180331D01*
Y720013D01*
X1185279D01*
Y724961D01*
X1190227D01*
Y729909D01*
X1195175D01*
Y734857D01*
X1200123D01*
Y739805D01*
X1205072D01*
Y744753D01*
X1140747D01*
Y754649D01*
X1219916D01*
Y739805D01*
D02*
G37*
G36*
X909305Y1649859D02*
X910291Y1649577D01*
X910432Y1649436D01*
X910855Y1649295D01*
X911419Y1649013D01*
X911983Y1648731D01*
X912124Y1648590D01*
X912688Y1648308D01*
X913393Y1647885D01*
X914238Y1647321D01*
X971190Y1610951D01*
Y1647180D01*
X971331Y1647885D01*
X971472Y1648167D01*
X972036Y1648590D01*
X972177D01*
X972459Y1648731D01*
X972882Y1648872D01*
X973446Y1649013D01*
X973587D01*
X974010D01*
X974574Y1649154D01*
X975419D01*
X975560D01*
X976124D01*
X976688D01*
X977393Y1649013D01*
X977534D01*
X977957Y1648872D01*
X978803Y1648590D01*
X978944D01*
X979085Y1648449D01*
X979649Y1647885D01*
Y1647744D01*
X979790Y1647603D01*
X979930Y1646898D01*
Y1602775D01*
X979790Y1602070D01*
X979508Y1601224D01*
X978944Y1600519D01*
X978803Y1600378D01*
X978239Y1599955D01*
X977252Y1599673D01*
X975983Y1599532D01*
X973728D01*
X973587D01*
X973164D01*
X972600D01*
X971895Y1599673D01*
X971754D01*
X971472D01*
X970908Y1599814D01*
X970345Y1600096D01*
X970204D01*
X969922Y1600237D01*
X969358Y1600519D01*
X968653Y1600942D01*
X968512Y1601083D01*
X968089Y1601224D01*
X967384Y1601647D01*
X966538Y1602211D01*
X910009Y1638440D01*
Y1599814D01*
X909868Y1599391D01*
X909586Y1598827D01*
X908882Y1598404D01*
X908741Y1598264D01*
X908036Y1598123D01*
X907049Y1597982D01*
X905498Y1597841D01*
X905357D01*
X904793D01*
X904230D01*
X903525Y1597982D01*
X903384D01*
X903102D01*
X902115Y1598264D01*
X901974D01*
X901833Y1598404D01*
X901269Y1598968D01*
Y1599250D01*
X901128Y1599955D01*
Y1646757D01*
X901269Y1647321D01*
X901551Y1648167D01*
X901974Y1649013D01*
X902115Y1649154D01*
X902820Y1649436D01*
X903807Y1649859D01*
X905216Y1649999D01*
X907472D01*
X907613D01*
X907895D01*
X908882D01*
X909023D01*
X909305Y1649859D01*
D02*
G37*
G36*
X1038687D02*
X1039674D01*
X1041929Y1649718D01*
X1044608Y1649436D01*
X1047568Y1649013D01*
X1050528Y1648449D01*
X1053489Y1647603D01*
X1053630D01*
X1053771Y1647462D01*
X1054193Y1647321D01*
X1054757Y1647180D01*
X1056167Y1646616D01*
X1058000Y1645770D01*
X1060114Y1644784D01*
X1062229Y1643515D01*
X1064484Y1642105D01*
X1066599Y1640555D01*
X1066881Y1640273D01*
X1067445Y1639709D01*
X1068431Y1638722D01*
X1069700Y1637453D01*
X1070969Y1635762D01*
X1072379Y1633929D01*
X1073647Y1631814D01*
X1074775Y1629559D01*
Y1629418D01*
X1074916Y1629277D01*
X1075198Y1628431D01*
X1075621Y1627162D01*
X1076185Y1625330D01*
X1076749Y1623215D01*
X1077172Y1620819D01*
X1077454Y1618140D01*
X1077594Y1615321D01*
Y1614052D01*
X1077454Y1613206D01*
Y1612220D01*
X1077313Y1611092D01*
X1076890Y1608695D01*
Y1608554D01*
X1076749Y1608131D01*
X1076608Y1607568D01*
X1076467Y1606722D01*
X1075903Y1604889D01*
X1075198Y1602775D01*
Y1602634D01*
X1075057Y1602352D01*
X1074775Y1601788D01*
X1074493Y1601083D01*
X1073788Y1599532D01*
X1072942Y1597841D01*
Y1597700D01*
X1072802Y1597559D01*
X1072238Y1596713D01*
X1071533Y1595726D01*
X1070828Y1594880D01*
X1070687Y1594739D01*
X1070405Y1594457D01*
X1069982Y1594034D01*
X1069559Y1593893D01*
X1069277Y1593752D01*
X1068572Y1593471D01*
X1068431D01*
X1068150Y1593330D01*
X1067727D01*
X1067163Y1593189D01*
X1067022D01*
X1066740Y1593048D01*
X1066035D01*
X1065330D01*
X1065189D01*
X1064625D01*
X1064061D01*
X1063357Y1593189D01*
X1063216D01*
X1062793Y1593330D01*
X1061806Y1593611D01*
X1061665D01*
X1061524Y1593752D01*
X1060960Y1594175D01*
Y1594316D01*
X1060819Y1595021D01*
Y1595162D01*
X1060960Y1595585D01*
X1061242Y1596431D01*
X1061947Y1597418D01*
X1062088Y1597700D01*
X1062652Y1598545D01*
X1063497Y1599673D01*
X1064484Y1601365D01*
X1064625Y1601506D01*
X1064766Y1601788D01*
X1065048Y1602352D01*
X1065471Y1603056D01*
X1065894Y1603902D01*
X1066317Y1604889D01*
X1067163Y1607286D01*
Y1607427D01*
X1067304Y1607849D01*
X1067586Y1608554D01*
X1067868Y1609541D01*
X1068009Y1610810D01*
X1068290Y1612220D01*
X1068431Y1613770D01*
Y1616449D01*
X1068290Y1617435D01*
X1068150Y1618704D01*
X1067868Y1620255D01*
X1067586Y1621805D01*
X1067022Y1623497D01*
X1066317Y1625189D01*
X1066176Y1625330D01*
X1065894Y1625894D01*
X1065471Y1626739D01*
X1064766Y1627726D01*
X1063920Y1628854D01*
X1062793Y1630123D01*
X1061524Y1631250D01*
X1060114Y1632519D01*
X1059973Y1632660D01*
X1059409Y1633083D01*
X1058564Y1633647D01*
X1057295Y1634211D01*
X1055885Y1635057D01*
X1054193Y1635902D01*
X1052220Y1636607D01*
X1050105Y1637312D01*
X1049823D01*
X1049119Y1637594D01*
X1047850Y1637735D01*
X1046299Y1638017D01*
X1044326Y1638299D01*
X1042070Y1638581D01*
X1039533Y1638722D01*
X1036713Y1638863D01*
X1036572D01*
X1036431D01*
X1036008D01*
X1035444D01*
X1034035Y1638722D01*
X1032202D01*
X1030229Y1638440D01*
X1027973Y1638158D01*
X1025718Y1637876D01*
X1023462Y1637312D01*
X1023180Y1637171D01*
X1022475Y1637030D01*
X1021488Y1636607D01*
X1020079Y1636043D01*
X1018528Y1635480D01*
X1016977Y1634634D01*
X1015427Y1633647D01*
X1013876Y1632660D01*
X1013735Y1632519D01*
X1013312Y1632096D01*
X1012607Y1631391D01*
X1011762Y1630546D01*
X1010775Y1629418D01*
X1009788Y1628149D01*
X1008942Y1626739D01*
X1008096Y1625189D01*
X1007955Y1625048D01*
X1007814Y1624343D01*
X1007532Y1623497D01*
X1007109Y1622228D01*
X1006687Y1620819D01*
X1006405Y1619127D01*
X1006264Y1617294D01*
X1006123Y1615180D01*
Y1613488D01*
X1006264Y1612361D01*
X1006405Y1611092D01*
X1006546Y1609823D01*
X1007250Y1607004D01*
Y1606863D01*
X1007391Y1606440D01*
X1007673Y1605735D01*
X1007955Y1604889D01*
X1008801Y1603056D01*
X1009788Y1601083D01*
Y1600942D01*
X1010070Y1600660D01*
X1010352Y1600237D01*
X1010634Y1599673D01*
X1011480Y1598264D01*
X1012325Y1596995D01*
Y1596854D01*
X1012466Y1596713D01*
X1013030Y1596008D01*
X1013453Y1595162D01*
X1013594Y1594457D01*
Y1594175D01*
X1013312Y1593752D01*
Y1593611D01*
X1013171Y1593471D01*
X1013030Y1593330D01*
X1012607Y1593189D01*
X1012466D01*
X1012325Y1593048D01*
X1011902D01*
X1011198Y1592907D01*
X1011057D01*
X1010634Y1592766D01*
X1009929D01*
X1008942D01*
X1008801D01*
X1008378D01*
X1007814D01*
X1007109Y1592907D01*
X1006969D01*
X1006687D01*
X1005841Y1593189D01*
X1005559Y1593330D01*
X1004995Y1593611D01*
X1004854D01*
X1004713Y1593752D01*
X1004290Y1594034D01*
X1003867Y1594457D01*
X1003726Y1594598D01*
X1003444Y1595021D01*
X1002880Y1595726D01*
X1002035Y1596995D01*
Y1597136D01*
X1001753Y1597277D01*
X1001612Y1597700D01*
X1001189Y1598264D01*
X1000484Y1599814D01*
X999497Y1601788D01*
Y1601929D01*
X999356Y1602352D01*
X999074Y1602916D01*
X998792Y1603620D01*
X998510Y1604607D01*
X998228Y1605735D01*
X997665Y1608413D01*
Y1608554D01*
X997524Y1609118D01*
X997383Y1609823D01*
X997242Y1610810D01*
X997101Y1612079D01*
X996960Y1613488D01*
X996819Y1616590D01*
Y1617858D01*
X996960Y1619409D01*
X997101Y1621242D01*
X997383Y1623356D01*
X997946Y1625753D01*
X998510Y1628149D01*
X999356Y1630546D01*
X999497Y1630828D01*
X999779Y1631532D01*
X1000484Y1632660D01*
X1001189Y1634070D01*
X1002317Y1635762D01*
X1003585Y1637453D01*
X1005136Y1639286D01*
X1006828Y1640977D01*
X1007109Y1641118D01*
X1007673Y1641682D01*
X1008801Y1642528D01*
X1010352Y1643515D01*
X1012043Y1644502D01*
X1014158Y1645629D01*
X1016554Y1646757D01*
X1019233Y1647744D01*
X1019374D01*
X1019515Y1647885D01*
X1019938D01*
X1020502Y1648026D01*
X1021206Y1648308D01*
X1022052Y1648449D01*
X1024167Y1648872D01*
X1026563Y1649295D01*
X1029524Y1649577D01*
X1032625Y1649859D01*
X1036149Y1649999D01*
X1036290D01*
X1036572D01*
X1037136D01*
X1037841D01*
X1038687Y1649859D01*
D02*
G37*
G36*
X979649Y1593048D02*
X979790Y1592907D01*
X979930Y1592625D01*
X980071Y1592061D01*
X980212Y1591356D01*
Y1591074D01*
X980353Y1590510D01*
Y1586140D01*
X980212Y1585153D01*
Y1585012D01*
X980071Y1584448D01*
X979930Y1584026D01*
X979790Y1583462D01*
Y1583321D01*
X979649Y1583039D01*
X979508Y1582757D01*
X979226Y1582475D01*
Y1582334D01*
X978944Y1582193D01*
X978239Y1581770D01*
X955543Y1570774D01*
X955402D01*
X954979Y1570492D01*
X954274Y1570210D01*
X953428Y1569929D01*
X952441Y1569365D01*
X951314Y1568942D01*
X948776Y1567814D01*
X948635Y1567673D01*
X948212Y1567532D01*
X947507Y1567250D01*
X946521Y1566827D01*
X945534Y1566404D01*
X944265Y1565840D01*
X941587Y1564713D01*
Y1564572D01*
X941728D01*
X942151Y1564290D01*
X942855Y1564008D01*
X943842Y1563726D01*
X944829Y1563303D01*
X945957Y1562739D01*
X948494Y1561752D01*
X948635Y1561611D01*
X949058Y1561470D01*
X949763Y1561188D01*
X950750Y1560765D01*
X951736Y1560343D01*
X952864Y1559779D01*
X955402Y1558792D01*
X978098Y1547796D01*
X978239D01*
X978521Y1547655D01*
X979226Y1547232D01*
X979367D01*
X979508Y1546950D01*
X979790Y1546387D01*
Y1546246D01*
X979930Y1545964D01*
X980071Y1545541D01*
X980212Y1544836D01*
Y1544695D01*
X980353Y1544131D01*
Y1540889D01*
X980212Y1539761D01*
X980071Y1538633D01*
Y1538492D01*
X979930Y1537928D01*
X979790Y1537364D01*
X979508Y1536942D01*
X979367Y1536801D01*
X979226Y1536660D01*
X978803Y1536519D01*
X978239Y1536660D01*
X978098D01*
X977675Y1536801D01*
X977111Y1536942D01*
X976265Y1537364D01*
X931719Y1559638D01*
X902538D01*
X902256D01*
X901692Y1559920D01*
X901551Y1560061D01*
X901269Y1560765D01*
Y1560906D01*
X901128Y1561188D01*
Y1561752D01*
X900987Y1562457D01*
Y1562598D01*
X900846Y1563162D01*
X900705Y1563867D01*
Y1565699D01*
X900846Y1566545D01*
X900987Y1567391D01*
Y1567532D01*
X901128Y1567955D01*
X901269Y1569083D01*
Y1569224D01*
X901410Y1569365D01*
X901692Y1569929D01*
X901833D01*
X901974D01*
X902538Y1570070D01*
X931719D01*
X976265Y1592484D01*
X976547Y1592625D01*
X976970Y1592766D01*
X977675Y1593048D01*
X978380Y1593330D01*
X978521D01*
X978803D01*
X979226D01*
X979649Y1593048D01*
D02*
G37*
G36*
X999779Y1587127D02*
X1000484Y1586986D01*
X1001471Y1586704D01*
X1074775Y1560343D01*
X1074916D01*
X1075198Y1560202D01*
X1075903Y1559779D01*
X1076044Y1559638D01*
X1076185Y1559497D01*
X1076467Y1558651D01*
Y1558510D01*
X1076608Y1558087D01*
X1076749Y1557523D01*
X1076890Y1556677D01*
Y1556395D01*
X1077031Y1555832D01*
Y1551320D01*
X1076890Y1550334D01*
Y1550052D01*
X1076749Y1549629D01*
X1076608Y1548924D01*
X1076467Y1548360D01*
Y1548219D01*
X1076326Y1547937D01*
X1076185Y1547514D01*
X1075762Y1547091D01*
Y1546950D01*
X1075480Y1546809D01*
X1074775Y1546387D01*
X1001471Y1519884D01*
X1001189Y1519743D01*
X1000625Y1519602D01*
X999920Y1519461D01*
X999215D01*
X999074D01*
X998792D01*
X998369Y1519602D01*
X997946Y1519884D01*
Y1520025D01*
X997805Y1520166D01*
X997665Y1520730D01*
X997524Y1521435D01*
Y1522281D01*
X997383Y1523267D01*
Y1526510D01*
X997524Y1527497D01*
Y1527638D01*
X997665Y1528060D01*
Y1528624D01*
X997805Y1529188D01*
Y1529329D01*
X997946Y1529470D01*
X998228Y1530034D01*
X998369D01*
X998510Y1530175D01*
X999215Y1530598D01*
X1018528Y1537364D01*
Y1570210D01*
X999497Y1576554D01*
X999356D01*
X999215Y1576695D01*
X998510Y1577118D01*
X998228Y1577259D01*
X997805Y1577964D01*
Y1578105D01*
X997665Y1578387D01*
Y1578951D01*
X997524Y1579655D01*
Y1580360D01*
X997383Y1581206D01*
Y1583321D01*
X997524Y1584307D01*
X997665Y1585294D01*
Y1585435D01*
X997805Y1585858D01*
X997946Y1586422D01*
X998087Y1586845D01*
X998228D01*
X998369Y1586986D01*
X998792Y1587127D01*
X999215Y1587268D01*
X999356D01*
X999779Y1587127D01*
D02*
G37*
G36*
X976829Y1523831D02*
X977957Y1523549D01*
X978944Y1522845D01*
X979085Y1522563D01*
X979508Y1521999D01*
X979790Y1521153D01*
X979930Y1520166D01*
Y1499585D01*
X979790Y1498034D01*
X979649Y1496201D01*
X979367Y1494228D01*
X978944Y1492395D01*
X978521Y1490562D01*
Y1490421D01*
X978239Y1489858D01*
X977957Y1489012D01*
X977534Y1487884D01*
X976265Y1485488D01*
X975419Y1484219D01*
X974574Y1483091D01*
X974433Y1482950D01*
X974151Y1482527D01*
X973587Y1481963D01*
X972882Y1481399D01*
X971895Y1480554D01*
X970767Y1479849D01*
X969640Y1479144D01*
X968230Y1478439D01*
X968089Y1478298D01*
X967525Y1478157D01*
X966820Y1477875D01*
X965833Y1477593D01*
X964565Y1477311D01*
X963155Y1477170D01*
X961604Y1476888D01*
X959913D01*
X959772D01*
X959490D01*
X958926D01*
X958221Y1477029D01*
X956529Y1477170D01*
X954556Y1477593D01*
X954415D01*
X954133Y1477734D01*
X953569Y1477875D01*
X953005Y1478157D01*
X951455Y1478721D01*
X949763Y1479708D01*
X949622D01*
X949481Y1479990D01*
X948494Y1480554D01*
X947225Y1481540D01*
X945957Y1482950D01*
Y1483091D01*
X945675Y1483232D01*
X945393Y1483655D01*
X944970Y1484219D01*
X944124Y1485628D01*
X943137Y1487461D01*
Y1487320D01*
X942996Y1486897D01*
X942855Y1486333D01*
X942714Y1485488D01*
X942010Y1483514D01*
X940882Y1481399D01*
Y1481258D01*
X940600Y1480976D01*
X940318Y1480413D01*
X939754Y1479708D01*
X938485Y1478157D01*
X936794Y1476606D01*
X936653Y1476465D01*
X936371Y1476183D01*
X935807Y1475902D01*
X935102Y1475338D01*
X934256Y1474915D01*
X933269Y1474351D01*
X930873Y1473223D01*
X930732D01*
X930309Y1473082D01*
X929604Y1472800D01*
X928758Y1472518D01*
X927631Y1472377D01*
X926503Y1472095D01*
X923683Y1471954D01*
X923542D01*
X922979D01*
X922274D01*
X921428Y1472095D01*
X920300Y1472236D01*
X919172Y1472377D01*
X916776Y1472941D01*
X916635D01*
X916212Y1473082D01*
X915648Y1473364D01*
X914943Y1473646D01*
X913111Y1474492D01*
X911137Y1475620D01*
X910996Y1475761D01*
X910714Y1475902D01*
X910291Y1476324D01*
X909586Y1476747D01*
X908177Y1478016D01*
X906767Y1479708D01*
X906626Y1479849D01*
X906485Y1480131D01*
X906062Y1480695D01*
X905639Y1481258D01*
X905216Y1482104D01*
X904652Y1483091D01*
X903666Y1485206D01*
Y1485347D01*
X903525Y1485769D01*
X903243Y1486333D01*
X902961Y1487179D01*
X902679Y1488025D01*
X902256Y1489153D01*
X901692Y1491690D01*
Y1491831D01*
X901551Y1492254D01*
Y1492959D01*
X901410Y1493946D01*
X901269Y1495073D01*
Y1496483D01*
X901128Y1497893D01*
Y1520448D01*
X901269Y1521012D01*
X901551Y1521858D01*
X901974Y1522845D01*
X902115Y1522986D01*
X902820Y1523408D01*
X903807Y1523831D01*
X905357Y1523972D01*
X975560D01*
X975701D01*
X975983D01*
X976829Y1523831D01*
D02*
G37*
G36*
X1073506Y1506633D02*
X1074634Y1506351D01*
X1075621Y1505646D01*
X1075762Y1505364D01*
X1076185Y1504800D01*
X1076467Y1503955D01*
X1076608Y1502968D01*
Y1484501D01*
X1076467Y1482809D01*
X1076326Y1481258D01*
Y1480976D01*
X1076185Y1479990D01*
Y1478862D01*
X1076044Y1477593D01*
Y1477452D01*
X1075903Y1476888D01*
X1075762Y1476043D01*
X1075480Y1474915D01*
X1075057Y1473646D01*
X1074634Y1472236D01*
X1073506Y1469558D01*
X1073365Y1469417D01*
X1073224Y1468994D01*
X1072802Y1468289D01*
X1072379Y1467443D01*
X1070969Y1465611D01*
X1069136Y1463637D01*
X1068995Y1463496D01*
X1068713Y1463214D01*
X1068150Y1462791D01*
X1067445Y1462227D01*
X1066599Y1461664D01*
X1065612Y1461100D01*
X1063216Y1460113D01*
X1063075D01*
X1062652Y1459972D01*
X1061947Y1459690D01*
X1060960Y1459408D01*
X1059973Y1459267D01*
X1058705Y1458985D01*
X1055744Y1458844D01*
X1055603D01*
X1055039D01*
X1054334D01*
X1053348Y1458985D01*
X1052220Y1459126D01*
X1051092Y1459267D01*
X1048555Y1459972D01*
X1048414D01*
X1047991Y1460113D01*
X1047427Y1460395D01*
X1046722Y1460818D01*
X1044889Y1461805D01*
X1043057Y1463073D01*
X1042916Y1463214D01*
X1042634Y1463355D01*
X1042211Y1463778D01*
X1041647Y1464342D01*
X1040237Y1465893D01*
X1038828Y1467866D01*
Y1468007D01*
X1038546Y1468289D01*
X1038264Y1468994D01*
X1037841Y1469699D01*
X1037418Y1470686D01*
X1036995Y1471672D01*
X1036008Y1474210D01*
Y1474069D01*
X1035867Y1473928D01*
X1035303Y1473082D01*
X1034599Y1471954D01*
X1033753Y1470686D01*
Y1470545D01*
X1033471Y1470404D01*
X1032907Y1469699D01*
X1031920Y1468712D01*
X1030651Y1467725D01*
X1030511D01*
X1030370Y1467443D01*
X1029947Y1467161D01*
X1029383Y1466879D01*
X1028114Y1466034D01*
X1026422Y1465188D01*
X1026281D01*
X1025999Y1464906D01*
X1025577Y1464765D01*
X1024872Y1464342D01*
X1023180Y1463637D01*
X1021066Y1462650D01*
X1003726Y1455602D01*
X1003585D01*
X1003303Y1455461D01*
X1002457Y1455179D01*
X1001471Y1454756D01*
X1000625Y1454615D01*
X1000484D01*
X1000202Y1454474D01*
X999215Y1454333D01*
X998933D01*
X998369Y1454474D01*
X998228Y1454615D01*
X998087Y1454897D01*
X997805Y1455320D01*
Y1455461D01*
X997665Y1455743D01*
Y1456307D01*
X997524Y1457012D01*
Y1457716D01*
X997383Y1458562D01*
Y1461664D01*
X997524Y1462509D01*
Y1462650D01*
X997665Y1463073D01*
Y1463637D01*
X997805Y1464060D01*
Y1464201D01*
X997946Y1464342D01*
X998510Y1465047D01*
X998651D01*
X998933Y1465188D01*
X999779Y1465611D01*
X1018387Y1472800D01*
X1018528D01*
X1018951Y1473082D01*
X1019515Y1473223D01*
X1020361Y1473646D01*
X1022193Y1474492D01*
X1024167Y1475479D01*
X1024308D01*
X1024590Y1475761D01*
X1025154Y1476043D01*
X1025718Y1476465D01*
X1027268Y1477452D01*
X1028678Y1478862D01*
X1028819Y1479003D01*
X1028960Y1479144D01*
X1029383Y1479567D01*
X1029806Y1480131D01*
X1030792Y1481540D01*
X1031779Y1483232D01*
Y1483373D01*
X1031920Y1483655D01*
X1032202Y1484219D01*
X1032343Y1484924D01*
X1032625Y1485910D01*
X1032766Y1486897D01*
X1032907Y1489435D01*
Y1496342D01*
X999215D01*
X998933D01*
X998369Y1496624D01*
X998228Y1496906D01*
X998087Y1497188D01*
X997946Y1497611D01*
Y1497752D01*
X997805Y1498034D01*
Y1498457D01*
X997665Y1499162D01*
Y1499303D01*
X997524Y1499866D01*
X997383Y1500571D01*
Y1502404D01*
X997524Y1503250D01*
X997665Y1504096D01*
Y1504237D01*
X997805Y1504659D01*
X997946Y1505787D01*
Y1505928D01*
X998087Y1506069D01*
X998369Y1506633D01*
X998510D01*
X998651D01*
X999215Y1506774D01*
X1072238D01*
X1072379D01*
X1072661D01*
X1073506Y1506633D01*
D02*
G37*
G36*
X943419Y1460395D02*
X945675Y1460254D01*
X948212Y1459972D01*
X951173Y1459690D01*
X953992Y1459126D01*
X956952Y1458421D01*
X957093D01*
X957234Y1458280D01*
X957657Y1458139D01*
X958221Y1457998D01*
X959631Y1457434D01*
X961463Y1456730D01*
X963437Y1455743D01*
X965552Y1454615D01*
X967666Y1453205D01*
X969781Y1451655D01*
X970063Y1451373D01*
X970626Y1450809D01*
X971613Y1449822D01*
X972882Y1448553D01*
X974151Y1446862D01*
X975560Y1445029D01*
X976829Y1442774D01*
X978098Y1440377D01*
Y1440236D01*
X978239Y1440095D01*
X978380Y1439672D01*
X978521Y1439108D01*
X979085Y1437699D01*
X979649Y1435866D01*
X980071Y1433611D01*
X980635Y1430791D01*
X980917Y1427831D01*
X981058Y1424588D01*
Y1423179D01*
X980917Y1421487D01*
X980776Y1419373D01*
X980353Y1416976D01*
X979930Y1414439D01*
X979226Y1411901D01*
X978380Y1409364D01*
Y1409223D01*
X978239Y1409082D01*
X977957Y1408236D01*
X977252Y1407108D01*
X976406Y1405558D01*
X975278Y1403866D01*
X974010Y1402033D01*
X972459Y1400342D01*
X970626Y1398650D01*
X970345Y1398509D01*
X969781Y1397945D01*
X968653Y1397099D01*
X967243Y1396253D01*
X965411Y1395126D01*
X963296Y1393998D01*
X960900Y1393011D01*
X958221Y1392165D01*
X958080D01*
X957939Y1392024D01*
X957516D01*
X956952Y1391883D01*
X956248Y1391601D01*
X955402Y1391461D01*
X953428Y1391038D01*
X950891Y1390756D01*
X947930Y1390333D01*
X944829Y1390192D01*
X941305Y1390051D01*
X941164D01*
X940882D01*
X940318D01*
X939754D01*
X938908D01*
X937921Y1390192D01*
X935666Y1390333D01*
X932987Y1390615D01*
X930027Y1391038D01*
X927067Y1391601D01*
X924106Y1392306D01*
X923965D01*
X923824Y1392447D01*
X923402Y1392588D01*
X922838Y1392729D01*
X921428Y1393293D01*
X919595Y1393998D01*
X917622Y1394985D01*
X915366Y1396113D01*
X913252Y1397522D01*
X911137Y1399073D01*
X910855Y1399214D01*
X910291Y1399919D01*
X909305Y1400906D01*
X908036Y1402174D01*
X906767Y1403866D01*
X905357Y1405698D01*
X904089Y1407954D01*
X902820Y1410350D01*
Y1410491D01*
X902679Y1410632D01*
X902538Y1411055D01*
X902397Y1411478D01*
X901974Y1413029D01*
X901410Y1414862D01*
X900846Y1417117D01*
X900423Y1419795D01*
X900141Y1422897D01*
X900000Y1426139D01*
Y1427690D01*
X900141Y1428395D01*
Y1429240D01*
X900282Y1431355D01*
X900564Y1433752D01*
X901128Y1436430D01*
X901692Y1438967D01*
X902538Y1441505D01*
X902679Y1441787D01*
X903102Y1442633D01*
X903666Y1443760D01*
X904512Y1445311D01*
X905639Y1447003D01*
X906908Y1448694D01*
X908459Y1450527D01*
X910291Y1452219D01*
X910573Y1452360D01*
X911137Y1452923D01*
X912265Y1453628D01*
X913816Y1454615D01*
X915648Y1455602D01*
X917763Y1456730D01*
X920159Y1457716D01*
X922838Y1458562D01*
X922979D01*
X923120Y1458703D01*
X923542D01*
X924106Y1458844D01*
X924811Y1458985D01*
X925657Y1459126D01*
X927772Y1459549D01*
X930309Y1459972D01*
X933269Y1460254D01*
X936512Y1460395D01*
X940036Y1460536D01*
X940177D01*
X940459D01*
X940882D01*
X941587D01*
X942432D01*
X943419Y1460395D01*
D02*
G37*
G36*
X1074070Y1448412D02*
X1074211D01*
X1074634Y1448271D01*
X1075480Y1448130D01*
X1075621D01*
X1075762Y1447989D01*
X1076326Y1447426D01*
Y1447285D01*
X1076467Y1447144D01*
X1076608Y1446580D01*
Y1391461D01*
X1076326Y1390897D01*
Y1390756D01*
X1076185Y1390615D01*
X1075480Y1390192D01*
X1075339D01*
X1075057Y1390051D01*
X1074634Y1389910D01*
X1074070Y1389769D01*
X1073929D01*
X1073506Y1389628D01*
X1072942D01*
X1072097D01*
X1071956D01*
X1071392D01*
X1070687D01*
X1069982Y1389769D01*
X1069841D01*
X1069559Y1389910D01*
X1068572Y1390192D01*
X1068290Y1390333D01*
X1067868Y1390897D01*
Y1391179D01*
X1067727Y1391742D01*
Y1413875D01*
X999215D01*
X998933D01*
X998369Y1414157D01*
X998228Y1414439D01*
X998087Y1414721D01*
X997946Y1415143D01*
Y1415284D01*
X997805Y1415566D01*
Y1415989D01*
X997665Y1416694D01*
Y1416835D01*
X997524Y1417399D01*
X997383Y1418104D01*
Y1419936D01*
X997524Y1420782D01*
X997665Y1421628D01*
Y1421769D01*
X997805Y1422192D01*
X997946Y1423320D01*
Y1423461D01*
X998087Y1423602D01*
X998369Y1424166D01*
X998510D01*
X998651D01*
X999215Y1424307D01*
X1067727D01*
Y1446862D01*
X1067868Y1447426D01*
X1068009Y1447708D01*
X1068572Y1448130D01*
X1068713D01*
X1068995Y1448271D01*
X1069418D01*
X1069982Y1448412D01*
X1070123D01*
X1070546D01*
X1071251Y1448553D01*
X1072097D01*
X1072238D01*
X1072802D01*
X1073365D01*
X1074070Y1448412D01*
D02*
G37*
G36*
X1073506Y1378068D02*
X1074634Y1377786D01*
X1075621Y1377082D01*
X1075762Y1376800D01*
X1076185Y1376236D01*
X1076467Y1375390D01*
X1076608Y1374403D01*
Y1336623D01*
X1076326Y1336059D01*
Y1335918D01*
X1076185Y1335777D01*
X1075480Y1335495D01*
X1075339D01*
X1075057Y1335354D01*
X1074634Y1335213D01*
X1074070Y1335073D01*
X1073929D01*
X1073506Y1334932D01*
X1072942Y1334791D01*
X1072097D01*
X1071956D01*
X1071392D01*
X1070828Y1334932D01*
X1070123Y1335073D01*
X1069982D01*
X1069700Y1335213D01*
X1068713Y1335495D01*
X1068431Y1335636D01*
X1068009Y1336059D01*
Y1336341D01*
X1067868Y1336905D01*
Y1367778D01*
X1043198D01*
Y1341134D01*
X1042916Y1340570D01*
Y1340429D01*
X1042775Y1340288D01*
X1042070Y1339865D01*
X1041929D01*
X1041788Y1339725D01*
X1041365Y1339584D01*
X1040801Y1339443D01*
X1040660D01*
X1040237Y1339302D01*
X1039533D01*
X1038687D01*
X1038546D01*
X1038123D01*
X1037559D01*
X1036854Y1339443D01*
X1036713D01*
X1036431Y1339584D01*
X1036008Y1339725D01*
X1035585Y1339865D01*
X1035303Y1340006D01*
X1034881Y1340570D01*
Y1340852D01*
X1034740Y1341416D01*
Y1367778D01*
X1006546D01*
Y1336341D01*
X1006264Y1335777D01*
Y1335636D01*
X1006123Y1335495D01*
X1005418Y1335073D01*
X1005277Y1334932D01*
X1005136Y1334791D01*
X1004713Y1334650D01*
X1004149Y1334509D01*
X1004008D01*
X1003585Y1334368D01*
X1002880D01*
X1002035D01*
X1001894D01*
X1001330D01*
X1000766D01*
X1000061Y1334509D01*
X999920D01*
X999638Y1334650D01*
X998792Y1335073D01*
X998651D01*
X998510Y1335213D01*
X997946Y1335777D01*
Y1335918D01*
X997805Y1336623D01*
Y1374685D01*
X997946Y1375249D01*
X998228Y1376095D01*
X998651Y1377082D01*
X998792Y1377223D01*
X999497Y1377645D01*
X1000484Y1378068D01*
X1002035Y1378209D01*
X1072238D01*
X1072379D01*
X1072661D01*
X1073506Y1378068D01*
D02*
G37*
G36*
X909305Y1352130D02*
X910291Y1351848D01*
X910432Y1351707D01*
X910855Y1351566D01*
X911419Y1351284D01*
X911983Y1351002D01*
X912124Y1350861D01*
X912688Y1350579D01*
X913393Y1350156D01*
X914238Y1349592D01*
X971190Y1313222D01*
Y1349451D01*
X971331Y1350156D01*
X971472Y1350438D01*
X972036Y1350861D01*
X972177D01*
X972459Y1351002D01*
X972882Y1351143D01*
X973446Y1351284D01*
X973587D01*
X974010D01*
X974574Y1351425D01*
X975419D01*
X975560D01*
X976124D01*
X976688D01*
X977393Y1351284D01*
X977534D01*
X977957Y1351143D01*
X978803Y1350861D01*
X978944D01*
X979085Y1350720D01*
X979649Y1350156D01*
Y1350015D01*
X979790Y1349874D01*
X979930Y1349170D01*
Y1305046D01*
X979790Y1304341D01*
X979508Y1303495D01*
X978944Y1302790D01*
X978803Y1302649D01*
X978239Y1302227D01*
X977252Y1301945D01*
X975983Y1301804D01*
X973728D01*
X973587D01*
X973164D01*
X972600D01*
X971895Y1301945D01*
X971754D01*
X971472D01*
X970908Y1302086D01*
X970345Y1302367D01*
X970204D01*
X969922Y1302508D01*
X969358Y1302790D01*
X968653Y1303213D01*
X968512Y1303354D01*
X968089Y1303495D01*
X967384Y1303918D01*
X966538Y1304482D01*
X910009Y1340711D01*
Y1302086D01*
X909868Y1301663D01*
X909586Y1301099D01*
X908882Y1300676D01*
X908741Y1300535D01*
X908036Y1300394D01*
X907049Y1300253D01*
X905498Y1300112D01*
X905357D01*
X904793D01*
X904230D01*
X903525Y1300253D01*
X903384D01*
X903102D01*
X902115Y1300535D01*
X901974D01*
X901833Y1300676D01*
X901269Y1301240D01*
Y1301522D01*
X901128Y1302227D01*
Y1349029D01*
X901269Y1349592D01*
X901551Y1350438D01*
X901974Y1351284D01*
X902115Y1351425D01*
X902820Y1351707D01*
X903807Y1352130D01*
X905216Y1352271D01*
X907472D01*
X907613D01*
X907895D01*
X908882D01*
X909023D01*
X909305Y1352130D01*
D02*
G37*
G36*
X1075762Y1288975D02*
X1075903D01*
X1076044Y1288693D01*
X1076326Y1288130D01*
Y1287989D01*
X1076467Y1287707D01*
X1076608Y1287143D01*
X1076749Y1286438D01*
Y1286297D01*
X1076890Y1285733D01*
X1077031Y1284887D01*
Y1283055D01*
X1076890Y1282350D01*
X1076749Y1281504D01*
Y1281363D01*
X1076608Y1280940D01*
X1076467Y1280376D01*
X1076326Y1279953D01*
Y1279812D01*
X1076185Y1279530D01*
X1076044Y1279248D01*
X1075762Y1278966D01*
X1075621Y1278825D01*
X1075057Y1278685D01*
X999215D01*
X998933D01*
X998369Y1278966D01*
X998228Y1279248D01*
X998087Y1279530D01*
X997946Y1279953D01*
Y1280094D01*
X997805Y1280376D01*
Y1280799D01*
X997665Y1281504D01*
Y1281645D01*
X997524Y1282209D01*
X997383Y1282914D01*
Y1284746D01*
X997524Y1285592D01*
X997665Y1286438D01*
Y1286579D01*
X997805Y1287002D01*
X997946Y1288130D01*
Y1288270D01*
X998087Y1288411D01*
X998369Y1288975D01*
X998510D01*
X998651D01*
X999215Y1289116D01*
X1075057D01*
X1075198D01*
X1075339D01*
X1075762Y1288975D01*
D02*
G37*
G36*
X977252Y1291231D02*
X977393D01*
X977816Y1291090D01*
X978662Y1290808D01*
X978803D01*
X979085Y1290667D01*
X979367Y1290385D01*
X979649Y1290103D01*
Y1289962D01*
X979790Y1289821D01*
X979930Y1289116D01*
Y1242596D01*
X979649Y1241750D01*
Y1241609D01*
X979508Y1241327D01*
X979367Y1241046D01*
X978944Y1240764D01*
X978803Y1240623D01*
X978521Y1240482D01*
X978098Y1240341D01*
X977534Y1240200D01*
X977393D01*
X976970Y1240059D01*
X976265Y1239918D01*
X975419D01*
X975278D01*
X974715D01*
X974010D01*
X973305Y1240059D01*
X973164D01*
X972741Y1240200D01*
X972177D01*
X971613Y1240341D01*
X971472D01*
X971190Y1240482D01*
X970626Y1240623D01*
X970063Y1240764D01*
X969922D01*
X969640Y1240905D01*
X969076Y1241046D01*
X968512Y1241327D01*
X902961Y1269803D01*
X902820D01*
X902538Y1269944D01*
X901833Y1270649D01*
Y1270790D01*
X901551Y1270931D01*
X901128Y1271777D01*
Y1271918D01*
X900987Y1272200D01*
Y1272905D01*
X900846Y1273610D01*
Y1274314D01*
X900705Y1275160D01*
Y1277416D01*
X900846Y1278403D01*
X900987Y1279530D01*
Y1279671D01*
X901128Y1280094D01*
X901269Y1280658D01*
X901410Y1281222D01*
X901551D01*
X901692Y1281363D01*
X901974Y1281504D01*
X902397Y1281645D01*
X902538D01*
X902820Y1281504D01*
X903243Y1281363D01*
X903807Y1281081D01*
X970767Y1251195D01*
Y1289257D01*
X970908Y1289680D01*
X971190Y1290244D01*
X971895Y1290808D01*
X972177Y1290949D01*
X972741Y1291090D01*
X973869Y1291231D01*
X975278Y1291372D01*
X975419D01*
X975983D01*
X976547D01*
X977252Y1291231D01*
D02*
G37*
G36*
X1073365Y1257539D02*
X1074493Y1257116D01*
X1075480Y1256411D01*
X1075621Y1256129D01*
X1076044Y1255424D01*
X1076467Y1254438D01*
X1076608Y1253310D01*
Y1247107D01*
X1076467Y1246261D01*
X1076185Y1245275D01*
Y1244993D01*
X1075903Y1244570D01*
X1075621Y1243724D01*
X1075198Y1243019D01*
X1075057Y1242878D01*
X1074634Y1242455D01*
X1074070Y1241891D01*
X1073224Y1241186D01*
X1073083Y1241046D01*
X1072379Y1240623D01*
X1071392Y1239918D01*
X1070123Y1239213D01*
X1035585Y1220605D01*
X1035444Y1220464D01*
X1035022Y1220323D01*
X1034458Y1220041D01*
X1033612Y1219618D01*
X1032625Y1219054D01*
X1031497Y1218490D01*
X1029242Y1217363D01*
X1029101Y1217222D01*
X1028678Y1217081D01*
X1028114Y1216799D01*
X1027409Y1216376D01*
X1025436Y1215389D01*
X1023321Y1214261D01*
X1023180Y1214120D01*
X1022898Y1213979D01*
X1022334Y1213697D01*
X1021629Y1213274D01*
X1019797Y1212288D01*
X1017682Y1211301D01*
X1017541D01*
X1017259Y1211019D01*
X1016695Y1210737D01*
X1015850Y1210455D01*
X1014017Y1209468D01*
X1011902Y1208481D01*
Y1208340D01*
X1012184D01*
X1012748D01*
X1013735D01*
X1015004D01*
X1016414Y1208481D01*
X1018105D01*
X1019938D01*
X1021911D01*
X1022193D01*
X1022757D01*
X1023885D01*
X1025154D01*
X1026704D01*
X1028396D01*
X1031920D01*
X1074775D01*
X1074916D01*
X1075057D01*
X1075480Y1208340D01*
X1075621D01*
X1075762Y1208059D01*
X1076185Y1207495D01*
Y1207354D01*
X1076326Y1207072D01*
X1076467Y1206508D01*
X1076608Y1205803D01*
Y1205662D01*
X1076749Y1205098D01*
Y1201715D01*
X1076608Y1200869D01*
Y1200728D01*
X1076467Y1200164D01*
X1076326Y1199741D01*
X1076185Y1199177D01*
Y1199036D01*
X1076044Y1198895D01*
X1075480Y1198332D01*
X1075339Y1198191D01*
X1074775Y1198050D01*
X1002035D01*
X1001894D01*
X1001330D01*
X1000766Y1198191D01*
X1000061Y1198473D01*
X999920Y1198614D01*
X999638Y1198755D01*
X998651Y1199600D01*
X998510Y1199741D01*
X998369Y1200023D01*
X998087Y1200587D01*
X997805Y1201151D01*
Y1201574D01*
X997665Y1202138D01*
Y1207213D01*
X997805Y1208059D01*
X997946Y1209045D01*
Y1209186D01*
X998228Y1209750D01*
X998510Y1210596D01*
X999074Y1211442D01*
X999215Y1211583D01*
X999638Y1212006D01*
X1000484Y1212711D01*
X1001471Y1213556D01*
X1001612D01*
X1001753Y1213697D01*
X1002598Y1214261D01*
X1003726Y1215107D01*
X1005418Y1215953D01*
X1050246Y1240059D01*
X1050387Y1240200D01*
X1050810Y1240341D01*
X1051515Y1240764D01*
X1052361Y1241186D01*
X1053489Y1241750D01*
X1054757Y1242455D01*
X1057436Y1243865D01*
X1057577Y1244006D01*
X1058141Y1244147D01*
X1058845Y1244570D01*
X1059832Y1244993D01*
X1060960Y1245557D01*
X1062229Y1246120D01*
X1064907Y1247389D01*
Y1247530D01*
X1064766D01*
X1064202D01*
X1063216D01*
X1062088Y1247389D01*
X1060819D01*
X1059268D01*
X1055885D01*
X1055744D01*
X1055180D01*
X1054193D01*
X1053066Y1247248D01*
X1051656D01*
X1050246D01*
X1046863D01*
X999215D01*
X998933D01*
X998369Y1247530D01*
X998228Y1247812D01*
X998087Y1248094D01*
X997946Y1248517D01*
Y1248658D01*
X997805Y1248940D01*
Y1249363D01*
X997665Y1250068D01*
Y1250209D01*
X997524Y1250772D01*
X997383Y1251618D01*
Y1253451D01*
X997524Y1254297D01*
X997665Y1255143D01*
Y1255283D01*
X997805Y1255706D01*
Y1256270D01*
X997946Y1256693D01*
Y1256834D01*
X998087Y1256975D01*
X998369Y1257539D01*
X998510D01*
X998651D01*
X999215Y1257680D01*
X1072097D01*
X1072238D01*
X1072520D01*
X1073365Y1257539D01*
D02*
G37*
G36*
X977252Y1199741D02*
X977393D01*
X977816Y1199600D01*
X978662Y1199318D01*
X978803D01*
X979085Y1199177D01*
X979367Y1198895D01*
X979649Y1198614D01*
Y1198473D01*
X979790Y1198332D01*
X979930Y1197627D01*
Y1151107D01*
X979649Y1150261D01*
Y1150120D01*
X979508Y1149838D01*
X979367Y1149556D01*
X978944Y1149274D01*
X978803Y1149133D01*
X978521Y1148992D01*
X978098Y1148851D01*
X977534Y1148710D01*
X977393D01*
X976970Y1148569D01*
X976265Y1148428D01*
X975419D01*
X975278D01*
X974715D01*
X974010D01*
X973305Y1148569D01*
X973164D01*
X972741Y1148710D01*
X972177D01*
X971613Y1148851D01*
X971472D01*
X971190Y1148992D01*
X970626Y1149133D01*
X970063Y1149274D01*
X969922D01*
X969640Y1149415D01*
X969076Y1149556D01*
X968512Y1149838D01*
X902961Y1178314D01*
X902820D01*
X902538Y1178455D01*
X901833Y1179160D01*
Y1179301D01*
X901551Y1179442D01*
X901128Y1180287D01*
Y1180428D01*
X900987Y1180710D01*
Y1181415D01*
X900846Y1182120D01*
Y1182825D01*
X900705Y1183671D01*
Y1185926D01*
X900846Y1186913D01*
X900987Y1188041D01*
Y1188182D01*
X901128Y1188605D01*
X901269Y1189169D01*
X901410Y1189732D01*
X901551D01*
X901692Y1189873D01*
X901974Y1190014D01*
X902397Y1190155D01*
X902538D01*
X902820Y1190014D01*
X903243Y1189873D01*
X903807Y1189591D01*
X970767Y1159706D01*
Y1197768D01*
X970908Y1198191D01*
X971190Y1198755D01*
X971895Y1199318D01*
X972177Y1199459D01*
X972741Y1199600D01*
X973869Y1199741D01*
X975278Y1199882D01*
X975419D01*
X975983D01*
X976547D01*
X977252Y1199741D01*
D02*
G37*
G36*
X1074070Y1186631D02*
X1074211D01*
X1074634Y1186490D01*
X1075480Y1186349D01*
X1075621D01*
X1075762Y1186208D01*
X1076326Y1185644D01*
Y1185503D01*
X1076467Y1185362D01*
X1076608Y1184798D01*
Y1129679D01*
X1076326Y1129115D01*
Y1128974D01*
X1076185Y1128833D01*
X1075480Y1128410D01*
X1075339D01*
X1075057Y1128270D01*
X1074634Y1128129D01*
X1074070Y1127988D01*
X1073929D01*
X1073506Y1127847D01*
X1072942D01*
X1072097D01*
X1071956D01*
X1071392D01*
X1070687D01*
X1069982Y1127988D01*
X1069841D01*
X1069559Y1128129D01*
X1068572Y1128410D01*
X1068290Y1128551D01*
X1067868Y1129115D01*
Y1129397D01*
X1067727Y1129961D01*
Y1152093D01*
X999215D01*
X998933D01*
X998369Y1152375D01*
X998228Y1152657D01*
X998087Y1152939D01*
X997946Y1153362D01*
Y1153503D01*
X997805Y1153785D01*
Y1154208D01*
X997665Y1154913D01*
Y1155054D01*
X997524Y1155618D01*
X997383Y1156323D01*
Y1158155D01*
X997524Y1159001D01*
X997665Y1159847D01*
Y1159988D01*
X997805Y1160411D01*
X997946Y1161538D01*
Y1161679D01*
X998087Y1161820D01*
X998369Y1162384D01*
X998510D01*
X998651D01*
X999215Y1162525D01*
X1067727D01*
Y1185080D01*
X1067868Y1185644D01*
X1068009Y1185926D01*
X1068572Y1186349D01*
X1068713D01*
X1068995Y1186490D01*
X1069418D01*
X1069982Y1186631D01*
X1070123D01*
X1070546D01*
X1071251Y1186772D01*
X1072097D01*
X1072238D01*
X1072802D01*
X1073365D01*
X1074070Y1186631D01*
D02*
G37*
G36*
X943560Y1138137D02*
X945816D01*
X948353Y1137996D01*
X951032Y1137715D01*
X953992Y1137292D01*
X956811Y1136869D01*
X956952D01*
X957093Y1136728D01*
X957516D01*
X958080Y1136587D01*
X959490Y1136305D01*
X961181Y1135741D01*
X963296Y1135177D01*
X965411Y1134331D01*
X967525Y1133344D01*
X969640Y1132217D01*
X969922Y1132076D01*
X970485Y1131653D01*
X971472Y1130807D01*
X972741Y1129820D01*
X974151Y1128551D01*
X975560Y1127142D01*
X976829Y1125450D01*
X978098Y1123477D01*
X978239Y1123195D01*
X978521Y1122490D01*
X979085Y1121362D01*
X979649Y1119811D01*
X980071Y1117979D01*
X980635Y1115723D01*
X980917Y1113186D01*
X981058Y1110366D01*
Y1109098D01*
X980917Y1107688D01*
X980776Y1105855D01*
X980353Y1103882D01*
X979930Y1101767D01*
X979226Y1099653D01*
X978380Y1097679D01*
X978239Y1097397D01*
X977816Y1096833D01*
X977252Y1095846D01*
X976406Y1094719D01*
X975278Y1093450D01*
X973869Y1092040D01*
X972318Y1090772D01*
X970485Y1089503D01*
X970204Y1089362D01*
X969640Y1088939D01*
X968512Y1088516D01*
X966961Y1087811D01*
X965129Y1087106D01*
X963014Y1086401D01*
X960477Y1085697D01*
X957798Y1085133D01*
X957657D01*
X957516D01*
X957093Y1084992D01*
X956529Y1084851D01*
X955825D01*
X954979Y1084710D01*
X952864Y1084428D01*
X950327Y1084146D01*
X947366Y1084005D01*
X944124Y1083723D01*
X940600D01*
X940459D01*
X940177D01*
X939754D01*
X939049D01*
X938344D01*
X937358Y1083864D01*
X935102D01*
X932565Y1084146D01*
X929886Y1084428D01*
X926926Y1084710D01*
X924106Y1085274D01*
X923965D01*
X923824D01*
X923402Y1085415D01*
X922838Y1085556D01*
X921428Y1085838D01*
X919736Y1086401D01*
X917622Y1087106D01*
X915507Y1087952D01*
X913252Y1088939D01*
X911137Y1090067D01*
X910855Y1090208D01*
X910291Y1090631D01*
X909305Y1091335D01*
X908036Y1092322D01*
X906767Y1093591D01*
X905357Y1095001D01*
X904089Y1096692D01*
X902820Y1098666D01*
X902679Y1098948D01*
X902397Y1099653D01*
X901974Y1100780D01*
X901410Y1102331D01*
X900846Y1104305D01*
X900423Y1106560D01*
X900141Y1109098D01*
X900000Y1111917D01*
Y1113186D01*
X900141Y1114595D01*
X900282Y1116287D01*
X900564Y1118261D01*
X901128Y1120375D01*
X901692Y1122490D01*
X902538Y1124463D01*
X902679Y1124745D01*
X903102Y1125309D01*
X903666Y1126296D01*
X904512Y1127424D01*
X905639Y1128692D01*
X906908Y1130102D01*
X908459Y1131371D01*
X910291Y1132640D01*
X910573Y1132781D01*
X911278Y1133203D01*
X912406Y1133626D01*
X913816Y1134331D01*
X915648Y1135036D01*
X917904Y1135741D01*
X920300Y1136446D01*
X922979Y1137010D01*
X923120D01*
X923261D01*
X923683Y1137151D01*
X924388D01*
X925093Y1137292D01*
X925939Y1137433D01*
X928054Y1137574D01*
X930591Y1137855D01*
X933551Y1138137D01*
X936794Y1138278D01*
X940318D01*
X940459D01*
X940741D01*
X941164D01*
X941869D01*
X942573D01*
X943560Y1138137D01*
D02*
G37*
G36*
X1073506Y1116287D02*
X1074634Y1116005D01*
X1075621Y1115300D01*
X1075762Y1115018D01*
X1076185Y1114454D01*
X1076467Y1113609D01*
X1076608Y1112622D01*
Y1074842D01*
X1076326Y1074278D01*
Y1074137D01*
X1076185Y1073996D01*
X1075480Y1073714D01*
X1075339D01*
X1075057Y1073573D01*
X1074634Y1073432D01*
X1074070Y1073291D01*
X1073929D01*
X1073506Y1073150D01*
X1072942Y1073009D01*
X1072097D01*
X1071956D01*
X1071392D01*
X1070828Y1073150D01*
X1070123Y1073291D01*
X1069982D01*
X1069700Y1073432D01*
X1068713Y1073714D01*
X1068431Y1073855D01*
X1068009Y1074278D01*
Y1074560D01*
X1067868Y1075124D01*
Y1105996D01*
X1043198D01*
Y1079353D01*
X1042916Y1078789D01*
Y1078648D01*
X1042775Y1078507D01*
X1042070Y1078084D01*
X1041929D01*
X1041788Y1077943D01*
X1041365Y1077802D01*
X1040801Y1077661D01*
X1040660D01*
X1040237Y1077520D01*
X1039533D01*
X1038687D01*
X1038546D01*
X1038123D01*
X1037559D01*
X1036854Y1077661D01*
X1036713D01*
X1036431Y1077802D01*
X1036008Y1077943D01*
X1035585Y1078084D01*
X1035303Y1078225D01*
X1034881Y1078789D01*
Y1079071D01*
X1034740Y1079635D01*
Y1105996D01*
X1006546D01*
Y1074560D01*
X1006264Y1073996D01*
Y1073855D01*
X1006123Y1073714D01*
X1005418Y1073291D01*
X1005277Y1073150D01*
X1005136Y1073009D01*
X1004713Y1072868D01*
X1004149Y1072727D01*
X1004008D01*
X1003585Y1072586D01*
X1002880D01*
X1002035D01*
X1001894D01*
X1001330D01*
X1000766D01*
X1000061Y1072727D01*
X999920D01*
X999638Y1072868D01*
X998792Y1073291D01*
X998651D01*
X998510Y1073432D01*
X997946Y1073996D01*
Y1074137D01*
X997805Y1074842D01*
Y1112904D01*
X997946Y1113468D01*
X998228Y1114313D01*
X998651Y1115300D01*
X998792Y1115441D01*
X999497Y1115864D01*
X1000484Y1116287D01*
X1002035Y1116428D01*
X1072238D01*
X1072379D01*
X1072661D01*
X1073506Y1116287D01*
D02*
G37*
G36*
X908318Y1072304D02*
X909305Y1072022D01*
X909445D01*
X909727Y1071882D01*
X910714Y1071318D01*
X910855Y1071177D01*
X911137Y1070895D01*
X911701Y1070472D01*
X912265Y1070049D01*
X928476Y1054260D01*
X928758Y1053978D01*
X929463Y1053414D01*
X930450Y1052287D01*
X931719Y1051159D01*
X933269Y1049749D01*
X934961Y1048199D01*
X936653Y1046789D01*
X938344Y1045520D01*
X938485Y1045379D01*
X939049Y1044956D01*
X940036Y1044392D01*
X941023Y1043547D01*
X942291Y1042842D01*
X943701Y1041996D01*
X945111Y1041150D01*
X946521Y1040445D01*
X946662Y1040304D01*
X947084Y1040163D01*
X947789Y1039881D01*
X948776Y1039458D01*
X950891Y1038613D01*
X953146Y1038049D01*
X953287D01*
X953710Y1037908D01*
X954274Y1037767D01*
X954979Y1037626D01*
X956811Y1037485D01*
X958785Y1037344D01*
X958926D01*
X959208D01*
X959772D01*
X960477Y1037485D01*
X962027Y1037767D01*
X963719Y1038331D01*
X963860D01*
X964142Y1038472D01*
X964565Y1038613D01*
X965129Y1038895D01*
X966397Y1039740D01*
X967807Y1040868D01*
X967948Y1041009D01*
X968089Y1041150D01*
X968794Y1041996D01*
X969781Y1043406D01*
X970626Y1045097D01*
Y1045238D01*
X970767Y1045520D01*
X971049Y1046084D01*
X971190Y1046789D01*
X971472Y1047635D01*
X971613Y1048621D01*
X971754Y1050877D01*
Y1052287D01*
X971613Y1053133D01*
X971472Y1054260D01*
X971331Y1055388D01*
X970626Y1057785D01*
Y1057925D01*
X970485Y1058348D01*
X970204Y1058912D01*
X969922Y1059617D01*
X969217Y1061309D01*
X968371Y1063141D01*
Y1063282D01*
X968230Y1063564D01*
X967948Y1063987D01*
X967666Y1064410D01*
X966820Y1065679D01*
X966115Y1066948D01*
X965974Y1067230D01*
X965693Y1067793D01*
X965270Y1068639D01*
X965129Y1069344D01*
Y1069626D01*
X965270Y1070190D01*
X965552Y1070331D01*
X966115Y1070754D01*
X966256D01*
X966538Y1070895D01*
X966961D01*
X967525Y1071036D01*
X967666D01*
X968230D01*
X968935D01*
X969781D01*
X969922D01*
X970345D01*
X971331D01*
X971472D01*
X971754D01*
X972459Y1070895D01*
X972600D01*
X972741Y1070754D01*
X973446Y1070472D01*
X973587D01*
X973728Y1070190D01*
X974010Y1069908D01*
X974433Y1069485D01*
X974574Y1069344D01*
X974997Y1068921D01*
X975560Y1068075D01*
X976265Y1066948D01*
Y1066807D01*
X976406Y1066666D01*
X976688Y1066243D01*
X976970Y1065679D01*
X977675Y1064269D01*
X978380Y1062437D01*
Y1062296D01*
X978521Y1061873D01*
X978803Y1061309D01*
X979085Y1060604D01*
X979367Y1059758D01*
X979649Y1058630D01*
X980212Y1056375D01*
Y1056234D01*
X980353Y1055811D01*
X980494Y1055106D01*
X980635Y1054260D01*
X980776Y1053273D01*
X980917Y1052146D01*
X981058Y1049608D01*
Y1048621D01*
X980917Y1047494D01*
Y1046225D01*
X980635Y1044674D01*
X980353Y1042983D01*
X979930Y1041291D01*
X979367Y1039599D01*
Y1039458D01*
X979085Y1038895D01*
X978662Y1038049D01*
X978239Y1037062D01*
X976829Y1034665D01*
X975983Y1033538D01*
X974997Y1032410D01*
X974856Y1032269D01*
X974433Y1031987D01*
X973869Y1031423D01*
X973164Y1030718D01*
X972177Y1030013D01*
X971049Y1029309D01*
X969781Y1028604D01*
X968371Y1028040D01*
X968230D01*
X967807Y1027758D01*
X966961Y1027617D01*
X965974Y1027335D01*
X964847Y1027053D01*
X963437Y1026912D01*
X960477Y1026630D01*
X960336D01*
X959913D01*
X959067D01*
X958221Y1026771D01*
X957093D01*
X955825Y1026912D01*
X953005Y1027335D01*
X952864D01*
X952300Y1027476D01*
X951596Y1027617D01*
X950609Y1027899D01*
X949340Y1028322D01*
X947930Y1028886D01*
X946380Y1029450D01*
X944829Y1030295D01*
X944688Y1030436D01*
X944124Y1030718D01*
X943278Y1031141D01*
X942010Y1031846D01*
X940600Y1032692D01*
X939049Y1033820D01*
X937217Y1035088D01*
X935243Y1036498D01*
X934961Y1036639D01*
X934256Y1037203D01*
X933128Y1038190D01*
X931719Y1039317D01*
X929886Y1041009D01*
X927772Y1042842D01*
X925516Y1044956D01*
X922979Y1047353D01*
X910009Y1059758D01*
Y1025220D01*
X909727Y1024657D01*
Y1024516D01*
X909586Y1024375D01*
X908882Y1023811D01*
X908741D01*
X908459Y1023670D01*
X908036Y1023529D01*
X907472Y1023388D01*
X907331D01*
X906908Y1023247D01*
X906344Y1023106D01*
X905498D01*
X905357D01*
X904934D01*
X904371Y1023247D01*
X903666Y1023388D01*
X903525D01*
X903102Y1023529D01*
X902115Y1023811D01*
X901974D01*
X901833Y1023952D01*
X901269Y1024516D01*
Y1024798D01*
X901128Y1025502D01*
Y1069626D01*
X901269Y1070613D01*
Y1070754D01*
X901410Y1070895D01*
X901974Y1071600D01*
X902115D01*
X902256Y1071882D01*
X902679Y1072022D01*
X903243Y1072304D01*
X903384D01*
X903948D01*
X904652Y1072445D01*
X905639D01*
X905921D01*
X906344D01*
X907049D01*
X907754D01*
X907895D01*
X908318Y1072304D01*
D02*
G37*
G36*
X1073506Y1055388D02*
X1074634Y1055106D01*
X1075621Y1054401D01*
X1075762Y1054119D01*
X1076185Y1053555D01*
X1076467Y1052710D01*
X1076608Y1051723D01*
Y1033256D01*
X1076467Y1031564D01*
X1076326Y1030013D01*
Y1029731D01*
X1076185Y1028745D01*
Y1027617D01*
X1076044Y1026348D01*
Y1026207D01*
X1075903Y1025643D01*
X1075762Y1024798D01*
X1075480Y1023670D01*
X1075057Y1022401D01*
X1074634Y1020991D01*
X1073506Y1018313D01*
X1073365Y1018172D01*
X1073224Y1017749D01*
X1072802Y1017044D01*
X1072379Y1016198D01*
X1070969Y1014366D01*
X1069136Y1012392D01*
X1068995Y1012251D01*
X1068713Y1011969D01*
X1068150Y1011546D01*
X1067445Y1010982D01*
X1066599Y1010419D01*
X1065612Y1009855D01*
X1063216Y1008868D01*
X1063075D01*
X1062652Y1008727D01*
X1061947Y1008445D01*
X1060960Y1008163D01*
X1059973Y1008022D01*
X1058705Y1007740D01*
X1055744Y1007599D01*
X1055603D01*
X1055039D01*
X1054334D01*
X1053348Y1007740D01*
X1052220Y1007881D01*
X1051092Y1008022D01*
X1048555Y1008727D01*
X1048414D01*
X1047991Y1008868D01*
X1047427Y1009150D01*
X1046722Y1009573D01*
X1044889Y1010560D01*
X1043057Y1011828D01*
X1042916Y1011969D01*
X1042634Y1012110D01*
X1042211Y1012533D01*
X1041647Y1013097D01*
X1040237Y1014648D01*
X1038828Y1016621D01*
Y1016762D01*
X1038546Y1017044D01*
X1038264Y1017749D01*
X1037841Y1018454D01*
X1037418Y1019441D01*
X1036995Y1020427D01*
X1036008Y1022965D01*
Y1022824D01*
X1035867Y1022683D01*
X1035303Y1021837D01*
X1034599Y1020709D01*
X1033753Y1019441D01*
Y1019300D01*
X1033471Y1019159D01*
X1032907Y1018454D01*
X1031920Y1017467D01*
X1030651Y1016480D01*
X1030511D01*
X1030370Y1016198D01*
X1029947Y1015916D01*
X1029383Y1015634D01*
X1028114Y1014789D01*
X1026422Y1013943D01*
X1026281D01*
X1025999Y1013661D01*
X1025577Y1013520D01*
X1024872Y1013097D01*
X1023180Y1012392D01*
X1021066Y1011405D01*
X1003726Y1004357D01*
X1003585D01*
X1003303Y1004216D01*
X1002457Y1003934D01*
X1001471Y1003511D01*
X1000625Y1003370D01*
X1000484D01*
X1000202Y1003229D01*
X999215Y1003088D01*
X998933D01*
X998369Y1003229D01*
X998228Y1003370D01*
X998087Y1003652D01*
X997805Y1004075D01*
Y1004216D01*
X997665Y1004498D01*
Y1005062D01*
X997524Y1005767D01*
Y1006471D01*
X997383Y1007317D01*
Y1010419D01*
X997524Y1011264D01*
Y1011405D01*
X997665Y1011828D01*
Y1012392D01*
X997805Y1012815D01*
Y1012956D01*
X997946Y1013097D01*
X998510Y1013802D01*
X998651D01*
X998933Y1013943D01*
X999779Y1014366D01*
X1018387Y1021555D01*
X1018528D01*
X1018951Y1021837D01*
X1019515Y1021978D01*
X1020361Y1022401D01*
X1022193Y1023247D01*
X1024167Y1024234D01*
X1024308D01*
X1024590Y1024516D01*
X1025154Y1024798D01*
X1025718Y1025220D01*
X1027268Y1026207D01*
X1028678Y1027617D01*
X1028819Y1027758D01*
X1028960Y1027899D01*
X1029383Y1028322D01*
X1029806Y1028886D01*
X1030792Y1030295D01*
X1031779Y1031987D01*
Y1032128D01*
X1031920Y1032410D01*
X1032202Y1032974D01*
X1032343Y1033679D01*
X1032625Y1034665D01*
X1032766Y1035652D01*
X1032907Y1038190D01*
Y1045097D01*
X999215D01*
X998933D01*
X998369Y1045379D01*
X998228Y1045661D01*
X998087Y1045943D01*
X997946Y1046366D01*
Y1046507D01*
X997805Y1046789D01*
Y1047212D01*
X997665Y1047917D01*
Y1048058D01*
X997524Y1048621D01*
X997383Y1049326D01*
Y1051159D01*
X997524Y1052005D01*
X997665Y1052851D01*
Y1052992D01*
X997805Y1053414D01*
X997946Y1054542D01*
Y1054683D01*
X998087Y1054824D01*
X998369Y1055388D01*
X998510D01*
X998651D01*
X999215Y1055529D01*
X1072238D01*
X1072379D01*
X1072661D01*
X1073506Y1055388D01*
D02*
G37*
G36*
X943560Y1011546D02*
X945816D01*
X948353Y1011405D01*
X951032Y1011123D01*
X953992Y1010701D01*
X956811Y1010278D01*
X956952D01*
X957093Y1010137D01*
X957516D01*
X958080Y1009996D01*
X959490Y1009714D01*
X961181Y1009150D01*
X963296Y1008586D01*
X965411Y1007740D01*
X967525Y1006753D01*
X969640Y1005626D01*
X969922Y1005485D01*
X970485Y1005062D01*
X971472Y1004216D01*
X972741Y1003229D01*
X974151Y1001960D01*
X975560Y1000551D01*
X976829Y998859D01*
X978098Y996885D01*
X978239Y996604D01*
X978521Y995899D01*
X979085Y994771D01*
X979649Y993220D01*
X980071Y991388D01*
X980635Y989132D01*
X980917Y986595D01*
X981058Y983775D01*
Y982507D01*
X980917Y981097D01*
X980776Y979264D01*
X980353Y977291D01*
X979930Y975176D01*
X979226Y973062D01*
X978380Y971088D01*
X978239Y970806D01*
X977816Y970242D01*
X977252Y969255D01*
X976406Y968128D01*
X975278Y966859D01*
X973869Y965449D01*
X972318Y964180D01*
X970485Y962912D01*
X970204Y962771D01*
X969640Y962348D01*
X968512Y961925D01*
X966961Y961220D01*
X965129Y960515D01*
X963014Y959810D01*
X960477Y959106D01*
X957798Y958542D01*
X957657D01*
X957516D01*
X957093Y958401D01*
X956529Y958260D01*
X955825D01*
X954979Y958119D01*
X952864Y957837D01*
X950327Y957555D01*
X947366Y957414D01*
X944124Y957132D01*
X940600D01*
X940459D01*
X940177D01*
X939754D01*
X939049D01*
X938344D01*
X937358Y957273D01*
X935102D01*
X932565Y957555D01*
X929886Y957837D01*
X926926Y958119D01*
X924106Y958683D01*
X923965D01*
X923824D01*
X923402Y958824D01*
X922838Y958965D01*
X921428Y959246D01*
X919736Y959810D01*
X917622Y960515D01*
X915507Y961361D01*
X913252Y962348D01*
X911137Y963476D01*
X910855Y963617D01*
X910291Y964039D01*
X909305Y964744D01*
X908036Y965731D01*
X906767Y967000D01*
X905357Y968410D01*
X904089Y970101D01*
X902820Y972075D01*
X902679Y972357D01*
X902397Y973062D01*
X901974Y974189D01*
X901410Y975740D01*
X900846Y977714D01*
X900423Y979969D01*
X900141Y982507D01*
X900000Y985326D01*
Y986595D01*
X900141Y988004D01*
X900282Y989696D01*
X900564Y991670D01*
X901128Y993784D01*
X901692Y995899D01*
X902538Y997872D01*
X902679Y998154D01*
X903102Y998718D01*
X903666Y999705D01*
X904512Y1000833D01*
X905639Y1002101D01*
X906908Y1003511D01*
X908459Y1004780D01*
X910291Y1006049D01*
X910573Y1006190D01*
X911278Y1006612D01*
X912406Y1007035D01*
X913816Y1007740D01*
X915648Y1008445D01*
X917904Y1009150D01*
X920300Y1009855D01*
X922979Y1010419D01*
X923120D01*
X923261D01*
X923683Y1010560D01*
X924388D01*
X925093Y1010701D01*
X925939Y1010842D01*
X928054Y1010982D01*
X930591Y1011264D01*
X933551Y1011546D01*
X936794Y1011687D01*
X940318D01*
X940459D01*
X940741D01*
X941164D01*
X941869D01*
X942573D01*
X943560Y1011546D01*
D02*
G37*
G36*
X1073506Y987581D02*
X1074634Y987300D01*
X1075621Y986595D01*
X1075762Y986313D01*
X1076185Y985749D01*
X1076467Y984903D01*
X1076608Y983916D01*
Y948110D01*
X1076326Y947687D01*
Y947546D01*
X1076185Y947405D01*
X1075480Y946982D01*
X1075339Y946841D01*
X1075057Y946700D01*
X1074634Y946559D01*
X1074070Y946418D01*
X1073929D01*
X1073506Y946277D01*
X1072942D01*
X1072097D01*
X1071956D01*
X1071392D01*
X1070687D01*
X1069982Y946418D01*
X1069841D01*
X1069559Y946559D01*
X1068572Y946982D01*
X1068290Y947123D01*
X1067868Y947687D01*
Y947828D01*
X1067727Y948392D01*
Y977291D01*
X1040942D01*
Y949661D01*
X1040660Y949238D01*
Y949097D01*
X1040519Y948956D01*
X1039956Y948533D01*
X1039815Y948392D01*
X1039674Y948251D01*
X1039251Y948110D01*
X1038687D01*
X1038546D01*
X1038123Y947969D01*
X1037418D01*
X1036572D01*
X1036431D01*
X1035867D01*
X1035163D01*
X1034458Y948110D01*
X1034317D01*
X1034035D01*
X1033612Y948251D01*
X1033189Y948533D01*
X1033048D01*
X1032907Y948674D01*
X1032343Y949238D01*
Y949379D01*
X1032202Y949942D01*
Y977291D01*
X999215D01*
X998933D01*
X998369Y977573D01*
X998228Y977855D01*
X998087Y978136D01*
X997946Y978559D01*
Y978700D01*
X997805Y978982D01*
Y979405D01*
X997665Y980110D01*
Y980251D01*
X997524Y980674D01*
X997383Y981520D01*
Y983352D01*
X997524Y984198D01*
X997665Y985044D01*
Y985185D01*
X997805Y985608D01*
X997946Y986736D01*
Y986877D01*
X998087Y987018D01*
X998369Y987581D01*
X998510D01*
X998651D01*
X999215Y987722D01*
X1072238D01*
X1072379D01*
X1072661D01*
X1073506Y987581D01*
D02*
G37*
G36*
X908318Y917519D02*
X909305Y917237D01*
X909445D01*
X909727Y917096D01*
X910714Y916533D01*
X910855Y916392D01*
X911137Y916110D01*
X911701Y915687D01*
X912265Y915264D01*
X928476Y899475D01*
X928758Y899193D01*
X929463Y898629D01*
X930450Y897502D01*
X931719Y896374D01*
X933269Y894964D01*
X934961Y893414D01*
X936653Y892004D01*
X938344Y890735D01*
X938485Y890594D01*
X939049Y890171D01*
X940036Y889607D01*
X941023Y888761D01*
X942291Y888057D01*
X943701Y887211D01*
X945111Y886365D01*
X946521Y885660D01*
X946662Y885519D01*
X947084Y885378D01*
X947789Y885096D01*
X948776Y884673D01*
X950891Y883828D01*
X953146Y883264D01*
X953287D01*
X953710Y883123D01*
X954274Y882982D01*
X954979Y882841D01*
X956811Y882700D01*
X958785Y882559D01*
X958926D01*
X959208D01*
X959772D01*
X960477Y882700D01*
X962027Y882982D01*
X963719Y883546D01*
X963860D01*
X964142Y883687D01*
X964565Y883828D01*
X965129Y884109D01*
X966397Y884955D01*
X967807Y886083D01*
X967948Y886224D01*
X968089Y886365D01*
X968794Y887211D01*
X969781Y888621D01*
X970626Y890312D01*
Y890453D01*
X970767Y890735D01*
X971049Y891299D01*
X971190Y892004D01*
X971472Y892850D01*
X971613Y893836D01*
X971754Y896092D01*
Y897502D01*
X971613Y898347D01*
X971472Y899475D01*
X971331Y900603D01*
X970626Y902999D01*
Y903140D01*
X970485Y903563D01*
X970204Y904127D01*
X969922Y904832D01*
X969217Y906524D01*
X968371Y908356D01*
Y908497D01*
X968230Y908779D01*
X967948Y909202D01*
X967666Y909625D01*
X966820Y910894D01*
X966115Y912163D01*
X965974Y912444D01*
X965693Y913008D01*
X965270Y913854D01*
X965129Y914559D01*
Y914841D01*
X965270Y915405D01*
X965552Y915546D01*
X966115Y915969D01*
X966256D01*
X966538Y916110D01*
X966961D01*
X967525Y916251D01*
X967666D01*
X968230D01*
X968935D01*
X969781D01*
X969922D01*
X970345D01*
X971331D01*
X971472D01*
X971754D01*
X972459Y916110D01*
X972600D01*
X972741Y915969D01*
X973446Y915687D01*
X973587D01*
X973728Y915405D01*
X974010Y915123D01*
X974433Y914700D01*
X974574Y914559D01*
X974997Y914136D01*
X975560Y913290D01*
X976265Y912163D01*
Y912022D01*
X976406Y911881D01*
X976688Y911458D01*
X976970Y910894D01*
X977675Y909484D01*
X978380Y907651D01*
Y907511D01*
X978521Y907088D01*
X978803Y906524D01*
X979085Y905819D01*
X979367Y904973D01*
X979649Y903845D01*
X980212Y901590D01*
Y901449D01*
X980353Y901026D01*
X980494Y900321D01*
X980635Y899475D01*
X980776Y898488D01*
X980917Y897361D01*
X981058Y894823D01*
Y893836D01*
X980917Y892709D01*
Y891440D01*
X980635Y889889D01*
X980353Y888198D01*
X979930Y886506D01*
X979367Y884814D01*
Y884673D01*
X979085Y884109D01*
X978662Y883264D01*
X978239Y882277D01*
X976829Y879880D01*
X975983Y878753D01*
X974997Y877625D01*
X974856Y877484D01*
X974433Y877202D01*
X973869Y876638D01*
X973164Y875933D01*
X972177Y875228D01*
X971049Y874524D01*
X969781Y873819D01*
X968371Y873255D01*
X968230D01*
X967807Y872973D01*
X966961Y872832D01*
X965974Y872550D01*
X964847Y872268D01*
X963437Y872127D01*
X960477Y871845D01*
X960336D01*
X959913D01*
X959067D01*
X958221Y871986D01*
X957093D01*
X955825Y872127D01*
X953005Y872550D01*
X952864D01*
X952300Y872691D01*
X951596Y872832D01*
X950609Y873114D01*
X949340Y873537D01*
X947930Y874101D01*
X946380Y874664D01*
X944829Y875510D01*
X944688Y875651D01*
X944124Y875933D01*
X943278Y876356D01*
X942010Y877061D01*
X940600Y877907D01*
X939049Y879035D01*
X937217Y880303D01*
X935243Y881713D01*
X934961Y881854D01*
X934256Y882418D01*
X933128Y883405D01*
X931719Y884532D01*
X929886Y886224D01*
X927772Y888057D01*
X925516Y890171D01*
X922979Y892568D01*
X910009Y904973D01*
Y870435D01*
X909727Y869872D01*
Y869731D01*
X909586Y869590D01*
X908882Y869026D01*
X908741D01*
X908459Y868885D01*
X908036Y868744D01*
X907472Y868603D01*
X907331D01*
X906908Y868462D01*
X906344Y868321D01*
X905498D01*
X905357D01*
X904934D01*
X904371Y868462D01*
X903666Y868603D01*
X903525D01*
X903102Y868744D01*
X902115Y869026D01*
X901974D01*
X901833Y869167D01*
X901269Y869731D01*
Y870012D01*
X901128Y870717D01*
Y914841D01*
X901269Y915828D01*
Y915969D01*
X901410Y916110D01*
X901974Y916815D01*
X902115D01*
X902256Y917096D01*
X902679Y917237D01*
X903243Y917519D01*
X903384D01*
X903948D01*
X904652Y917660D01*
X905639D01*
X905921D01*
X906344D01*
X907049D01*
X907754D01*
X907895D01*
X908318Y917519D01*
D02*
G37*
G36*
X999779Y938524D02*
X1000484Y938383D01*
X1001471Y938101D01*
X1074775Y911740D01*
X1074916D01*
X1075198Y911599D01*
X1075903Y911176D01*
X1076044Y911035D01*
X1076185Y910894D01*
X1076467Y910048D01*
Y909907D01*
X1076608Y909484D01*
X1076749Y908920D01*
X1076890Y908074D01*
Y907792D01*
X1077031Y907229D01*
Y902718D01*
X1076890Y901731D01*
Y901449D01*
X1076749Y901026D01*
X1076608Y900321D01*
X1076467Y899757D01*
Y899616D01*
X1076326Y899334D01*
X1076185Y898911D01*
X1075762Y898488D01*
Y898347D01*
X1075480Y898206D01*
X1074775Y897784D01*
X1001471Y871281D01*
X1001189Y871140D01*
X1000625Y870999D01*
X999920Y870858D01*
X999215D01*
X999074D01*
X998792D01*
X998369Y870999D01*
X997946Y871281D01*
Y871422D01*
X997805Y871563D01*
X997665Y872127D01*
X997524Y872832D01*
Y873678D01*
X997383Y874664D01*
Y877907D01*
X997524Y878894D01*
Y879035D01*
X997665Y879457D01*
Y880021D01*
X997805Y880585D01*
Y880726D01*
X997946Y880867D01*
X998228Y881431D01*
X998369D01*
X998510Y881572D01*
X999215Y881995D01*
X1018528Y888761D01*
Y921608D01*
X999497Y927951D01*
X999356D01*
X999215Y928092D01*
X998510Y928515D01*
X998228Y928656D01*
X997805Y929361D01*
Y929502D01*
X997665Y929784D01*
Y930348D01*
X997524Y931052D01*
Y931757D01*
X997383Y932603D01*
Y934718D01*
X997524Y935705D01*
X997665Y936691D01*
Y936832D01*
X997805Y937255D01*
X997946Y937819D01*
X998087Y938242D01*
X998228D01*
X998369Y938383D01*
X998792Y938524D01*
X999215Y938665D01*
X999356D01*
X999779Y938524D01*
D02*
G37*
G36*
X1038687Y862541D02*
X1039674D01*
X1041929Y862400D01*
X1044608Y862118D01*
X1047568Y861695D01*
X1050528Y861131D01*
X1053489Y860286D01*
X1053630D01*
X1053771Y860145D01*
X1054193Y860004D01*
X1054757Y859863D01*
X1056167Y859299D01*
X1058000Y858453D01*
X1060114Y857466D01*
X1062229Y856197D01*
X1064484Y854788D01*
X1066599Y853237D01*
X1066881Y852955D01*
X1067445Y852391D01*
X1068431Y851404D01*
X1069700Y850136D01*
X1070969Y848444D01*
X1072379Y846611D01*
X1073647Y844497D01*
X1074775Y842241D01*
Y842100D01*
X1074916Y841959D01*
X1075198Y841114D01*
X1075621Y839845D01*
X1076185Y838012D01*
X1076749Y835898D01*
X1077172Y833501D01*
X1077454Y830823D01*
X1077594Y828003D01*
Y826735D01*
X1077454Y825889D01*
Y824902D01*
X1077313Y823774D01*
X1076890Y821378D01*
Y821237D01*
X1076749Y820814D01*
X1076608Y820250D01*
X1076467Y819404D01*
X1075903Y817572D01*
X1075198Y815457D01*
Y815316D01*
X1075057Y815034D01*
X1074775Y814470D01*
X1074493Y813765D01*
X1073788Y812215D01*
X1072942Y810523D01*
Y810382D01*
X1072802Y810241D01*
X1072238Y809395D01*
X1071533Y808409D01*
X1070828Y807563D01*
X1070687Y807422D01*
X1070405Y807140D01*
X1069982Y806717D01*
X1069559Y806576D01*
X1069277Y806435D01*
X1068572Y806153D01*
X1068431D01*
X1068150Y806012D01*
X1067727D01*
X1067163Y805871D01*
X1067022D01*
X1066740Y805730D01*
X1066035D01*
X1065330D01*
X1065189D01*
X1064625D01*
X1064061D01*
X1063357Y805871D01*
X1063216D01*
X1062793Y806012D01*
X1061806Y806294D01*
X1061665D01*
X1061524Y806435D01*
X1060960Y806858D01*
Y806999D01*
X1060819Y807704D01*
Y807845D01*
X1060960Y808268D01*
X1061242Y809113D01*
X1061947Y810100D01*
X1062088Y810382D01*
X1062652Y811228D01*
X1063497Y812356D01*
X1064484Y814047D01*
X1064625Y814188D01*
X1064766Y814470D01*
X1065048Y815034D01*
X1065471Y815739D01*
X1065894Y816585D01*
X1066317Y817572D01*
X1067163Y819968D01*
Y820109D01*
X1067304Y820532D01*
X1067586Y821237D01*
X1067868Y822224D01*
X1068009Y823492D01*
X1068290Y824902D01*
X1068431Y826453D01*
Y829131D01*
X1068290Y830118D01*
X1068150Y831387D01*
X1067868Y832937D01*
X1067586Y834488D01*
X1067022Y836180D01*
X1066317Y837871D01*
X1066176Y838012D01*
X1065894Y838576D01*
X1065471Y839422D01*
X1064766Y840409D01*
X1063920Y841537D01*
X1062793Y842805D01*
X1061524Y843933D01*
X1060114Y845202D01*
X1059973Y845343D01*
X1059409Y845766D01*
X1058564Y846330D01*
X1057295Y846893D01*
X1055885Y847739D01*
X1054193Y848585D01*
X1052220Y849290D01*
X1050105Y849995D01*
X1049823D01*
X1049119Y850277D01*
X1047850Y850418D01*
X1046299Y850700D01*
X1044326Y850982D01*
X1042070Y851263D01*
X1039533Y851404D01*
X1036713Y851545D01*
X1036572D01*
X1036431D01*
X1036008D01*
X1035444D01*
X1034035Y851404D01*
X1032202D01*
X1030229Y851123D01*
X1027973Y850841D01*
X1025718Y850559D01*
X1023462Y849995D01*
X1023180Y849854D01*
X1022475Y849713D01*
X1021488Y849290D01*
X1020079Y848726D01*
X1018528Y848162D01*
X1016977Y847316D01*
X1015427Y846330D01*
X1013876Y845343D01*
X1013735Y845202D01*
X1013312Y844779D01*
X1012607Y844074D01*
X1011762Y843228D01*
X1010775Y842100D01*
X1009788Y840832D01*
X1008942Y839422D01*
X1008096Y837871D01*
X1007955Y837730D01*
X1007814Y837026D01*
X1007532Y836180D01*
X1007109Y834911D01*
X1006687Y833501D01*
X1006405Y831810D01*
X1006264Y829977D01*
X1006123Y827862D01*
Y826171D01*
X1006264Y825043D01*
X1006405Y823774D01*
X1006546Y822506D01*
X1007250Y819686D01*
Y819545D01*
X1007391Y819122D01*
X1007673Y818417D01*
X1007955Y817572D01*
X1008801Y815739D01*
X1009788Y813765D01*
Y813624D01*
X1010070Y813343D01*
X1010352Y812920D01*
X1010634Y812356D01*
X1011480Y810946D01*
X1012325Y809677D01*
Y809536D01*
X1012466Y809395D01*
X1013030Y808691D01*
X1013453Y807845D01*
X1013594Y807140D01*
Y806858D01*
X1013312Y806435D01*
Y806294D01*
X1013171Y806153D01*
X1013030Y806012D01*
X1012607Y805871D01*
X1012466D01*
X1012325Y805730D01*
X1011902D01*
X1011198Y805589D01*
X1011057D01*
X1010634Y805448D01*
X1009929D01*
X1008942D01*
X1008801D01*
X1008378D01*
X1007814D01*
X1007109Y805589D01*
X1006969D01*
X1006687D01*
X1005841Y805871D01*
X1005559Y806012D01*
X1004995Y806294D01*
X1004854D01*
X1004713Y806435D01*
X1004290Y806717D01*
X1003867Y807140D01*
X1003726Y807281D01*
X1003444Y807704D01*
X1002880Y808409D01*
X1002035Y809677D01*
Y809818D01*
X1001753Y809959D01*
X1001612Y810382D01*
X1001189Y810946D01*
X1000484Y812497D01*
X999497Y814470D01*
Y814611D01*
X999356Y815034D01*
X999074Y815598D01*
X998792Y816303D01*
X998510Y817290D01*
X998228Y818417D01*
X997665Y821096D01*
Y821237D01*
X997524Y821801D01*
X997383Y822506D01*
X997242Y823492D01*
X997101Y824761D01*
X996960Y826171D01*
X996819Y829272D01*
Y830541D01*
X996960Y832092D01*
X997101Y833924D01*
X997383Y836039D01*
X997946Y838435D01*
X998510Y840832D01*
X999356Y843228D01*
X999497Y843510D01*
X999779Y844215D01*
X1000484Y845343D01*
X1001189Y846752D01*
X1002317Y848444D01*
X1003585Y850136D01*
X1005136Y851968D01*
X1006828Y853660D01*
X1007109Y853801D01*
X1007673Y854365D01*
X1008801Y855211D01*
X1010352Y856197D01*
X1012043Y857184D01*
X1014158Y858312D01*
X1016554Y859440D01*
X1019233Y860427D01*
X1019374D01*
X1019515Y860567D01*
X1019938D01*
X1020502Y860708D01*
X1021206Y860990D01*
X1022052Y861131D01*
X1024167Y861554D01*
X1026563Y861977D01*
X1029524Y862259D01*
X1032625Y862541D01*
X1036149Y862682D01*
X1036290D01*
X1036572D01*
X1037136D01*
X1037841D01*
X1038687Y862541D01*
D02*
G37*
G36*
X943560Y856761D02*
X945816D01*
X948353Y856620D01*
X951032Y856338D01*
X953992Y855915D01*
X956811Y855493D01*
X956952D01*
X957093Y855352D01*
X957516D01*
X958080Y855211D01*
X959490Y854929D01*
X961181Y854365D01*
X963296Y853801D01*
X965411Y852955D01*
X967525Y851968D01*
X969640Y850841D01*
X969922Y850700D01*
X970485Y850277D01*
X971472Y849431D01*
X972741Y848444D01*
X974151Y847175D01*
X975560Y845766D01*
X976829Y844074D01*
X978098Y842100D01*
X978239Y841818D01*
X978521Y841114D01*
X979085Y839986D01*
X979649Y838435D01*
X980071Y836603D01*
X980635Y834347D01*
X980917Y831810D01*
X981058Y828990D01*
Y827721D01*
X980917Y826312D01*
X980776Y824479D01*
X980353Y822506D01*
X979930Y820391D01*
X979226Y818276D01*
X978380Y816303D01*
X978239Y816021D01*
X977816Y815457D01*
X977252Y814470D01*
X976406Y813343D01*
X975278Y812074D01*
X973869Y810664D01*
X972318Y809395D01*
X970485Y808127D01*
X970204Y807986D01*
X969640Y807563D01*
X968512Y807140D01*
X966961Y806435D01*
X965129Y805730D01*
X963014Y805025D01*
X960477Y804320D01*
X957798Y803757D01*
X957657D01*
X957516D01*
X957093Y803616D01*
X956529Y803475D01*
X955825D01*
X954979Y803334D01*
X952864Y803052D01*
X950327Y802770D01*
X947366Y802629D01*
X944124Y802347D01*
X940600D01*
X940459D01*
X940177D01*
X939754D01*
X939049D01*
X938344D01*
X937358Y802488D01*
X935102D01*
X932565Y802770D01*
X929886Y803052D01*
X926926Y803334D01*
X924106Y803898D01*
X923965D01*
X923824D01*
X923402Y804039D01*
X922838Y804179D01*
X921428Y804461D01*
X919736Y805025D01*
X917622Y805730D01*
X915507Y806576D01*
X913252Y807563D01*
X911137Y808691D01*
X910855Y808832D01*
X910291Y809254D01*
X909305Y809959D01*
X908036Y810946D01*
X906767Y812215D01*
X905357Y813624D01*
X904089Y815316D01*
X902820Y817290D01*
X902679Y817572D01*
X902397Y818276D01*
X901974Y819404D01*
X901410Y820955D01*
X900846Y822929D01*
X900423Y825184D01*
X900141Y827721D01*
X900000Y830541D01*
Y831810D01*
X900141Y833219D01*
X900282Y834911D01*
X900564Y836885D01*
X901128Y838999D01*
X901692Y841114D01*
X902538Y843087D01*
X902679Y843369D01*
X903102Y843933D01*
X903666Y844920D01*
X904512Y846048D01*
X905639Y847316D01*
X906908Y848726D01*
X908459Y849995D01*
X910291Y851263D01*
X910573Y851404D01*
X911278Y851827D01*
X912406Y852250D01*
X913816Y852955D01*
X915648Y853660D01*
X917904Y854365D01*
X920300Y855070D01*
X922979Y855634D01*
X923120D01*
X923261D01*
X923683Y855775D01*
X924388D01*
X925093Y855915D01*
X925939Y856056D01*
X928054Y856197D01*
X930591Y856479D01*
X933551Y856761D01*
X936794Y856902D01*
X940318D01*
X940459D01*
X940741D01*
X941164D01*
X941869D01*
X942573D01*
X943560Y856761D01*
D02*
G37*
G36*
X1073506Y791492D02*
X1074634Y791210D01*
X1075621Y790505D01*
X1075762Y790223D01*
X1076185Y789660D01*
X1076467Y788814D01*
X1076608Y787827D01*
Y750047D01*
X1076326Y749483D01*
Y749342D01*
X1076185Y749201D01*
X1075480Y748919D01*
X1075339D01*
X1075057Y748778D01*
X1074634Y748637D01*
X1074070Y748496D01*
X1073929D01*
X1073506Y748355D01*
X1072942Y748214D01*
X1072097D01*
X1071956D01*
X1071392D01*
X1070828Y748355D01*
X1070123Y748496D01*
X1069982D01*
X1069700Y748637D01*
X1068713Y748919D01*
X1068431Y749060D01*
X1068009Y749483D01*
Y749765D01*
X1067868Y750329D01*
Y781201D01*
X1043198D01*
Y754558D01*
X1042916Y753994D01*
Y753853D01*
X1042775Y753712D01*
X1042070Y753289D01*
X1041929D01*
X1041788Y753148D01*
X1041365Y753007D01*
X1040801Y752866D01*
X1040660D01*
X1040237Y752725D01*
X1039533D01*
X1038687D01*
X1038546D01*
X1038123D01*
X1037559D01*
X1036854Y752866D01*
X1036713D01*
X1036431Y753007D01*
X1036008Y753148D01*
X1035585Y753289D01*
X1035303Y753430D01*
X1034881Y753994D01*
Y754276D01*
X1034740Y754840D01*
Y781201D01*
X1006546D01*
Y749765D01*
X1006264Y749201D01*
Y749060D01*
X1006123Y748919D01*
X1005418Y748496D01*
X1005277Y748355D01*
X1005136Y748214D01*
X1004713Y748073D01*
X1004149Y747932D01*
X1004008D01*
X1003585Y747791D01*
X1002880D01*
X1002035D01*
X1001894D01*
X1001330D01*
X1000766D01*
X1000061Y747932D01*
X999920D01*
X999638Y748073D01*
X998792Y748496D01*
X998651D01*
X998510Y748637D01*
X997946Y749201D01*
Y749342D01*
X997805Y750047D01*
Y788109D01*
X997946Y788673D01*
X998228Y789519D01*
X998651Y790505D01*
X998792Y790646D01*
X999497Y791069D01*
X1000484Y791492D01*
X1002035Y791633D01*
X1072238D01*
X1072379D01*
X1072661D01*
X1073506Y791492D01*
D02*
G37*
G36*
X908318Y790928D02*
X909305Y790646D01*
X909445D01*
X909727Y790505D01*
X910714Y789942D01*
X910855Y789801D01*
X911137Y789519D01*
X911701Y789096D01*
X912265Y788673D01*
X928476Y772884D01*
X928758Y772602D01*
X929463Y772038D01*
X930450Y770911D01*
X931719Y769783D01*
X933269Y768373D01*
X934961Y766822D01*
X936653Y765413D01*
X938344Y764144D01*
X938485Y764003D01*
X939049Y763580D01*
X940036Y763016D01*
X941023Y762170D01*
X942291Y761466D01*
X943701Y760620D01*
X945111Y759774D01*
X946521Y759069D01*
X946662Y758928D01*
X947084Y758787D01*
X947789Y758505D01*
X948776Y758082D01*
X950891Y757236D01*
X953146Y756673D01*
X953287D01*
X953710Y756532D01*
X954274Y756391D01*
X954979Y756250D01*
X956811Y756109D01*
X958785Y755968D01*
X958926D01*
X959208D01*
X959772D01*
X960477Y756109D01*
X962027Y756391D01*
X963719Y756955D01*
X963860D01*
X964142Y757096D01*
X964565Y757236D01*
X965129Y757518D01*
X966397Y758364D01*
X967807Y759492D01*
X967948Y759633D01*
X968089Y759774D01*
X968794Y760620D01*
X969781Y762029D01*
X970626Y763721D01*
Y763862D01*
X970767Y764144D01*
X971049Y764708D01*
X971190Y765413D01*
X971472Y766259D01*
X971613Y767245D01*
X971754Y769501D01*
Y770911D01*
X971613Y771756D01*
X971472Y772884D01*
X971331Y774012D01*
X970626Y776408D01*
Y776549D01*
X970485Y776972D01*
X970204Y777536D01*
X969922Y778241D01*
X969217Y779933D01*
X968371Y781765D01*
Y781906D01*
X968230Y782188D01*
X967948Y782611D01*
X967666Y783034D01*
X966820Y784303D01*
X966115Y785571D01*
X965974Y785853D01*
X965693Y786417D01*
X965270Y787263D01*
X965129Y787968D01*
Y788250D01*
X965270Y788814D01*
X965552Y788955D01*
X966115Y789378D01*
X966256D01*
X966538Y789519D01*
X966961D01*
X967525Y789660D01*
X967666D01*
X968230D01*
X968935D01*
X969781D01*
X969922D01*
X970345D01*
X971331D01*
X971472D01*
X971754D01*
X972459Y789519D01*
X972600D01*
X972741Y789378D01*
X973446Y789096D01*
X973587D01*
X973728Y788814D01*
X974010Y788532D01*
X974433Y788109D01*
X974574Y787968D01*
X974997Y787545D01*
X975560Y786699D01*
X976265Y785571D01*
Y785430D01*
X976406Y785290D01*
X976688Y784867D01*
X976970Y784303D01*
X977675Y782893D01*
X978380Y781060D01*
Y780919D01*
X978521Y780497D01*
X978803Y779933D01*
X979085Y779228D01*
X979367Y778382D01*
X979649Y777254D01*
X980212Y774999D01*
Y774858D01*
X980353Y774435D01*
X980494Y773730D01*
X980635Y772884D01*
X980776Y771897D01*
X980917Y770770D01*
X981058Y768232D01*
Y767245D01*
X980917Y766118D01*
Y764849D01*
X980635Y763298D01*
X980353Y761607D01*
X979930Y759915D01*
X979367Y758223D01*
Y758082D01*
X979085Y757518D01*
X978662Y756673D01*
X978239Y755686D01*
X976829Y753289D01*
X975983Y752162D01*
X974997Y751034D01*
X974856Y750893D01*
X974433Y750611D01*
X973869Y750047D01*
X973164Y749342D01*
X972177Y748637D01*
X971049Y747932D01*
X969781Y747228D01*
X968371Y746664D01*
X968230D01*
X967807Y746382D01*
X966961Y746241D01*
X965974Y745959D01*
X964847Y745677D01*
X963437Y745536D01*
X960477Y745254D01*
X960336D01*
X959913D01*
X959067D01*
X958221Y745395D01*
X957093D01*
X955825Y745536D01*
X953005Y745959D01*
X952864D01*
X952300Y746100D01*
X951596Y746241D01*
X950609Y746523D01*
X949340Y746946D01*
X947930Y747510D01*
X946380Y748073D01*
X944829Y748919D01*
X944688Y749060D01*
X944124Y749342D01*
X943278Y749765D01*
X942010Y750470D01*
X940600Y751316D01*
X939049Y752444D01*
X937217Y753712D01*
X935243Y755122D01*
X934961Y755263D01*
X934256Y755827D01*
X933128Y756814D01*
X931719Y757941D01*
X929886Y759633D01*
X927772Y761466D01*
X925516Y763580D01*
X922979Y765977D01*
X910009Y778382D01*
Y743844D01*
X909727Y743280D01*
Y743139D01*
X909586Y742999D01*
X908882Y742435D01*
X908741D01*
X908459Y742294D01*
X908036Y742153D01*
X907472Y742012D01*
X907331D01*
X906908Y741871D01*
X906344Y741730D01*
X905498D01*
X905357D01*
X904934D01*
X904371Y741871D01*
X903666Y742012D01*
X903525D01*
X903102Y742153D01*
X902115Y742435D01*
X901974D01*
X901833Y742576D01*
X901269Y743139D01*
Y743421D01*
X901128Y744126D01*
Y788250D01*
X901269Y789237D01*
Y789378D01*
X901410Y789519D01*
X901974Y790223D01*
X902115D01*
X902256Y790505D01*
X902679Y790646D01*
X903243Y790928D01*
X903384D01*
X903948D01*
X904652Y791069D01*
X905639D01*
X905921D01*
X906344D01*
X907049D01*
X907754D01*
X907895D01*
X908318Y790928D01*
D02*
G37*
G36*
Y727633D02*
X909305Y727351D01*
X909445D01*
X909727Y727210D01*
X910714Y726646D01*
X910855Y726505D01*
X911137Y726223D01*
X911701Y725800D01*
X912265Y725377D01*
X928476Y709589D01*
X928758Y709307D01*
X929463Y708743D01*
X930450Y707615D01*
X931719Y706487D01*
X933269Y705078D01*
X934961Y703527D01*
X936653Y702117D01*
X938344Y700848D01*
X938485Y700708D01*
X939049Y700285D01*
X940036Y699721D01*
X941023Y698875D01*
X942291Y698170D01*
X943701Y697324D01*
X945111Y696478D01*
X946521Y695774D01*
X946662Y695633D01*
X947084Y695492D01*
X947789Y695210D01*
X948776Y694787D01*
X950891Y693941D01*
X953146Y693377D01*
X953287D01*
X953710Y693236D01*
X954274Y693095D01*
X954979Y692954D01*
X956811Y692813D01*
X958785Y692672D01*
X958926D01*
X959208D01*
X959772D01*
X960477Y692813D01*
X962027Y693095D01*
X963719Y693659D01*
X963860D01*
X964142Y693800D01*
X964565Y693941D01*
X965129Y694223D01*
X966397Y695069D01*
X967807Y696196D01*
X967948Y696337D01*
X968089Y696478D01*
X968794Y697324D01*
X969781Y698734D01*
X970626Y700426D01*
Y700567D01*
X970767Y700848D01*
X971049Y701412D01*
X971190Y702117D01*
X971472Y702963D01*
X971613Y703950D01*
X971754Y706205D01*
Y707615D01*
X971613Y708461D01*
X971472Y709589D01*
X971331Y710716D01*
X970626Y713113D01*
Y713254D01*
X970485Y713677D01*
X970204Y714241D01*
X969922Y714945D01*
X969217Y716637D01*
X968371Y718470D01*
Y718611D01*
X968230Y718893D01*
X967948Y719316D01*
X967666Y719738D01*
X966820Y721007D01*
X966115Y722276D01*
X965974Y722558D01*
X965693Y723122D01*
X965270Y723968D01*
X965129Y724672D01*
Y724954D01*
X965270Y725518D01*
X965552Y725659D01*
X966115Y726082D01*
X966256D01*
X966538Y726223D01*
X966961D01*
X967525Y726364D01*
X967666D01*
X968230D01*
X968935D01*
X969781D01*
X969922D01*
X970345D01*
X971331D01*
X971472D01*
X971754D01*
X972459Y726223D01*
X972600D01*
X972741Y726082D01*
X973446Y725800D01*
X973587D01*
X973728Y725518D01*
X974010Y725236D01*
X974433Y724813D01*
X974574Y724672D01*
X974997Y724250D01*
X975560Y723404D01*
X976265Y722276D01*
Y722135D01*
X976406Y721994D01*
X976688Y721571D01*
X976970Y721007D01*
X977675Y719597D01*
X978380Y717765D01*
Y717624D01*
X978521Y717201D01*
X978803Y716637D01*
X979085Y715932D01*
X979367Y715086D01*
X979649Y713959D01*
X980212Y711703D01*
Y711562D01*
X980353Y711139D01*
X980494Y710434D01*
X980635Y709589D01*
X980776Y708602D01*
X980917Y707474D01*
X981058Y704937D01*
Y703950D01*
X980917Y702822D01*
Y701553D01*
X980635Y700003D01*
X980353Y698311D01*
X979930Y696619D01*
X979367Y694928D01*
Y694787D01*
X979085Y694223D01*
X978662Y693377D01*
X978239Y692390D01*
X976829Y689994D01*
X975983Y688866D01*
X974997Y687738D01*
X974856Y687597D01*
X974433Y687315D01*
X973869Y686751D01*
X973164Y686047D01*
X972177Y685342D01*
X971049Y684637D01*
X969781Y683932D01*
X968371Y683368D01*
X968230D01*
X967807Y683086D01*
X966961Y682945D01*
X965974Y682663D01*
X964847Y682381D01*
X963437Y682240D01*
X960477Y681959D01*
X960336D01*
X959913D01*
X959067D01*
X958221Y682099D01*
X957093D01*
X955825Y682240D01*
X953005Y682663D01*
X952864D01*
X952300Y682804D01*
X951596Y682945D01*
X950609Y683227D01*
X949340Y683650D01*
X947930Y684214D01*
X946380Y684778D01*
X944829Y685624D01*
X944688Y685765D01*
X944124Y686047D01*
X943278Y686470D01*
X942010Y687174D01*
X940600Y688020D01*
X939049Y689148D01*
X937217Y690417D01*
X935243Y691826D01*
X934961Y691967D01*
X934256Y692531D01*
X933128Y693518D01*
X931719Y694646D01*
X929886Y696337D01*
X927772Y698170D01*
X925516Y700285D01*
X922979Y702681D01*
X910009Y715086D01*
Y680549D01*
X909727Y679985D01*
Y679844D01*
X909586Y679703D01*
X908882Y679139D01*
X908741D01*
X908459Y678998D01*
X908036Y678857D01*
X907472Y678716D01*
X907331D01*
X906908Y678575D01*
X906344Y678434D01*
X905498D01*
X905357D01*
X904934D01*
X904371Y678575D01*
X903666Y678716D01*
X903525D01*
X903102Y678857D01*
X902115Y679139D01*
X901974D01*
X901833Y679280D01*
X901269Y679844D01*
Y680126D01*
X901128Y680831D01*
Y724954D01*
X901269Y725941D01*
Y726082D01*
X901410Y726223D01*
X901974Y726928D01*
X902115D01*
X902256Y727210D01*
X902679Y727351D01*
X903243Y727633D01*
X903384D01*
X903948D01*
X904652Y727774D01*
X905639D01*
X905921D01*
X906344D01*
X907049D01*
X907754D01*
X907895D01*
X908318Y727633D01*
D02*
G37*
%LPC*%
G36*
X1214968Y1209870D02*
X1150643D01*
Y1204922D01*
X1145695D01*
Y1175234D01*
X1150643D01*
Y1160390D01*
X1155591D01*
Y1150494D01*
X1160539D01*
Y1145546D01*
X1170435D01*
Y1140597D01*
X1190227D01*
Y1145546D01*
X1200123D01*
Y1150494D01*
X1205072D01*
Y1155442D01*
X1210019D01*
Y1165338D01*
X1214968D01*
Y1209870D01*
D02*
G37*
G36*
X1026845Y1567532D02*
Y1540043D01*
X1066176Y1553858D01*
Y1553999D01*
X1026845Y1567532D01*
D02*
G37*
G36*
X971331Y1513541D02*
X945816D01*
Y1500148D01*
X945957Y1499162D01*
X946239Y1497047D01*
X946521Y1496060D01*
X946803Y1495073D01*
Y1494932D01*
X946943Y1494651D01*
X947225Y1494228D01*
X947648Y1493523D01*
X948494Y1492254D01*
X949622Y1490844D01*
X949763Y1490703D01*
X949904Y1490562D01*
X950327Y1490280D01*
X950891Y1489858D01*
X952159Y1489153D01*
X953851Y1488448D01*
X953992D01*
X954274Y1488307D01*
X954697Y1488166D01*
X955402Y1488025D01*
X956952Y1487743D01*
X958785Y1487602D01*
X958926D01*
X959349D01*
X959913D01*
X960618Y1487743D01*
X962309Y1487884D01*
X964001Y1488448D01*
X964142D01*
X964424Y1488589D01*
X964847Y1488730D01*
X965411Y1489012D01*
X966679Y1489858D01*
X967948Y1490985D01*
X968089Y1491126D01*
X968230Y1491267D01*
X968512Y1491690D01*
X968794Y1492113D01*
X969640Y1493664D01*
X970345Y1495496D01*
Y1495637D01*
X970485Y1495919D01*
X970626Y1496624D01*
X970908Y1497329D01*
X971049Y1498457D01*
X971190Y1499585D01*
X971331Y1501135D01*
Y1513541D01*
D02*
G37*
G36*
X937499D02*
X909727D01*
Y1497047D01*
X909868Y1496201D01*
X910150Y1494228D01*
X910573Y1492113D01*
Y1491972D01*
X910714Y1491690D01*
X910996Y1491126D01*
X911137Y1490562D01*
X911983Y1489012D01*
X912970Y1487461D01*
X913111Y1487320D01*
X913252Y1487038D01*
X914097Y1486192D01*
X915507Y1485206D01*
X917199Y1484219D01*
X917340D01*
X917622Y1484078D01*
X918186Y1483796D01*
X918890Y1483514D01*
X919736Y1483373D01*
X920723Y1483091D01*
X922979Y1482950D01*
X923120D01*
X923542D01*
X924247D01*
X925093Y1483091D01*
X927067Y1483373D01*
X929181Y1484078D01*
X929322D01*
X929604Y1484219D01*
X930168Y1484501D01*
X930732Y1484924D01*
X932283Y1485910D01*
X933692Y1487461D01*
X933833Y1487602D01*
X933974Y1487884D01*
X934397Y1488307D01*
X934679Y1488871D01*
X935243Y1489717D01*
X935666Y1490562D01*
X936512Y1492818D01*
Y1492959D01*
X936653Y1493382D01*
X936794Y1494087D01*
X937076Y1495073D01*
X937217Y1496201D01*
X937358Y1497611D01*
X937499Y1499162D01*
Y1513541D01*
D02*
G37*
G36*
X1068009Y1496342D02*
X1041365D01*
Y1484642D01*
X1041506Y1483655D01*
X1041788Y1481399D01*
X1042352Y1479003D01*
Y1478862D01*
X1042493Y1478439D01*
X1042775Y1477875D01*
X1043057Y1477170D01*
X1043903Y1475479D01*
X1045030Y1473928D01*
X1045171Y1473787D01*
X1045312Y1473646D01*
X1045735Y1473223D01*
X1046299Y1472800D01*
X1047568Y1471813D01*
X1049260Y1470968D01*
X1049400D01*
X1049682Y1470827D01*
X1050246Y1470686D01*
X1050951Y1470404D01*
X1052643Y1470122D01*
X1054616Y1469981D01*
X1054757D01*
X1055462D01*
X1056308Y1470122D01*
X1057295Y1470263D01*
X1058564Y1470545D01*
X1059973Y1470827D01*
X1061242Y1471391D01*
X1062511Y1472095D01*
X1062652Y1472236D01*
X1063075Y1472518D01*
X1063638Y1473082D01*
X1064343Y1473787D01*
X1065048Y1474774D01*
X1065894Y1475902D01*
X1066599Y1477452D01*
X1067163Y1479144D01*
X1067304Y1479426D01*
X1067445Y1480131D01*
X1067586Y1481117D01*
X1067727Y1482527D01*
Y1482809D01*
X1067868Y1483373D01*
Y1484642D01*
X1068009Y1485488D01*
Y1496342D01*
D02*
G37*
G36*
X942996Y1449399D02*
X940741D01*
X940600D01*
X940459D01*
X939613D01*
X938203D01*
X936512Y1449258D01*
X934538Y1449117D01*
X932424Y1448976D01*
X927913Y1448271D01*
X927631D01*
X926926Y1447989D01*
X925798Y1447708D01*
X924529Y1447426D01*
X922979Y1446862D01*
X921287Y1446157D01*
X919595Y1445452D01*
X917904Y1444465D01*
X917763Y1444324D01*
X917199Y1443901D01*
X916494Y1443337D01*
X915507Y1442492D01*
X914379Y1441364D01*
X913393Y1440236D01*
X912265Y1438685D01*
X911278Y1437135D01*
X911137Y1436853D01*
X910996Y1436289D01*
X910573Y1435302D01*
X910150Y1433892D01*
X909727Y1432201D01*
X909445Y1430227D01*
X909164Y1428113D01*
X909023Y1425575D01*
Y1424447D01*
X909164Y1423179D01*
X909305Y1421628D01*
X909586Y1419795D01*
X910150Y1417963D01*
X910714Y1415989D01*
X911560Y1414157D01*
X911701Y1413875D01*
X911983Y1413311D01*
X912547Y1412465D01*
X913393Y1411337D01*
X914379Y1410210D01*
X915507Y1408941D01*
X916776Y1407672D01*
X918327Y1406544D01*
X918468Y1406403D01*
X919172Y1406121D01*
X920018Y1405558D01*
X921287Y1404994D01*
X922697Y1404289D01*
X924388Y1403584D01*
X926362Y1403020D01*
X928476Y1402456D01*
X928758D01*
X929463Y1402315D01*
X930591Y1402033D01*
X932142Y1401751D01*
X933974Y1401610D01*
X936089Y1401328D01*
X938203Y1401187D01*
X940600D01*
X940741D01*
X940882D01*
X941728D01*
X942996D01*
X944688Y1401328D01*
X946521Y1401469D01*
X948635Y1401751D01*
X953005Y1402456D01*
X953287D01*
X953992Y1402738D01*
X955120Y1403020D01*
X956388Y1403302D01*
X957939Y1403866D01*
X959631Y1404571D01*
X961322Y1405417D01*
X963014Y1406403D01*
X963155Y1406544D01*
X963719Y1406826D01*
X964424Y1407531D01*
X965411Y1408377D01*
X966538Y1409364D01*
X967666Y1410632D01*
X968653Y1412042D01*
X969640Y1413734D01*
X969781Y1413875D01*
X970063Y1414580D01*
X970345Y1415566D01*
X970908Y1416835D01*
X971331Y1418527D01*
X971613Y1420500D01*
X971895Y1422756D01*
X972036Y1425152D01*
Y1426280D01*
X971895Y1427549D01*
X971754Y1429100D01*
X971331Y1430932D01*
X970908Y1432765D01*
X970204Y1434738D01*
X969358Y1436571D01*
X969217Y1436712D01*
X968935Y1437276D01*
X968371Y1438263D01*
X967525Y1439249D01*
X966538Y1440518D01*
X965411Y1441787D01*
X964142Y1443056D01*
X962591Y1444183D01*
X962450Y1444324D01*
X961886Y1444606D01*
X960900Y1445170D01*
X959772Y1445734D01*
X958362Y1446439D01*
X956529Y1447144D01*
X954697Y1447708D01*
X952582Y1448271D01*
X952300D01*
X951596Y1448412D01*
X950468Y1448553D01*
X949058Y1448835D01*
X947225Y1448976D01*
X945252Y1449258D01*
X942996Y1449399D01*
D02*
G37*
G36*
X943419Y1127565D02*
X941023D01*
X940882D01*
X940600D01*
X940177D01*
X939613D01*
X937921D01*
X935807Y1127424D01*
X933410D01*
X930873Y1127142D01*
X928335Y1127001D01*
X925939Y1126719D01*
X925657D01*
X924952Y1126578D01*
X923824Y1126296D01*
X922415Y1126014D01*
X920864Y1125591D01*
X919172Y1125168D01*
X917481Y1124604D01*
X915930Y1123899D01*
X915789Y1123758D01*
X915366Y1123477D01*
X914661Y1123054D01*
X913816Y1122490D01*
X911983Y1120798D01*
X910996Y1119952D01*
X910291Y1118825D01*
Y1118684D01*
X910009Y1118261D01*
X909727Y1117556D01*
X909445Y1116710D01*
X909164Y1115582D01*
X908882Y1114313D01*
X908741Y1112904D01*
X908600Y1111353D01*
Y1110084D01*
X908741Y1109239D01*
X909023Y1107265D01*
X909586Y1105291D01*
Y1105150D01*
X909868Y1104869D01*
X910009Y1104305D01*
X910432Y1103741D01*
X911419Y1102190D01*
X912688Y1100780D01*
X912829Y1100639D01*
X913111Y1100498D01*
X913534Y1100076D01*
X914097Y1099653D01*
X915648Y1098807D01*
X917622Y1097820D01*
X917763D01*
X918186Y1097538D01*
X918749Y1097397D01*
X919454Y1097115D01*
X920441Y1096833D01*
X921428Y1096410D01*
X923965Y1095846D01*
X924106D01*
X924529Y1095705D01*
X925234Y1095564D01*
X926221Y1095424D01*
X927349Y1095142D01*
X928617Y1095001D01*
X931437Y1094719D01*
X931578D01*
X932142D01*
X932987Y1094578D01*
X933974D01*
X935243D01*
X936794Y1094437D01*
X939895D01*
X940177D01*
X940882D01*
X942010D01*
X943419D01*
X945111Y1094578D01*
X946803Y1094719D01*
X950468Y1095001D01*
X950609D01*
X951314Y1095142D01*
X952159D01*
X953287Y1095283D01*
X954556Y1095424D01*
X955825Y1095705D01*
X958644Y1096269D01*
X958785D01*
X959208Y1096410D01*
X959913Y1096551D01*
X960759Y1096833D01*
X962873Y1097397D01*
X964847Y1098384D01*
X964988D01*
X965270Y1098666D01*
X965833Y1098948D01*
X966397Y1099230D01*
X967807Y1100216D01*
X969217Y1101485D01*
X969358Y1101626D01*
X969499Y1101767D01*
X969781Y1102190D01*
X970204Y1102754D01*
X970908Y1104023D01*
X971613Y1105714D01*
Y1105855D01*
X971754Y1106137D01*
X971895Y1106560D01*
X972036Y1107265D01*
X972318Y1108816D01*
X972459Y1110930D01*
Y1111776D01*
X972318Y1112763D01*
X972177Y1113891D01*
X971895Y1115300D01*
X971331Y1116710D01*
X970767Y1118120D01*
X969922Y1119388D01*
X969781Y1119529D01*
X969499Y1119952D01*
X968935Y1120516D01*
X968230Y1121221D01*
X967243Y1122067D01*
X966115Y1122913D01*
X964847Y1123758D01*
X963296Y1124463D01*
X963155Y1124604D01*
X962591Y1124745D01*
X961604Y1125027D01*
X960477Y1125450D01*
X959067Y1125873D01*
X957234Y1126296D01*
X955402Y1126719D01*
X953287Y1127001D01*
X953005D01*
X952300Y1127142D01*
X951173D01*
X949622Y1127283D01*
X947789Y1127424D01*
X945675D01*
X943419Y1127565D01*
D02*
G37*
G36*
X1068009Y1045097D02*
X1041365D01*
Y1033397D01*
X1041506Y1032410D01*
X1041788Y1030154D01*
X1042352Y1027758D01*
Y1027617D01*
X1042493Y1027194D01*
X1042775Y1026630D01*
X1043057Y1025925D01*
X1043903Y1024234D01*
X1045030Y1022683D01*
X1045171Y1022542D01*
X1045312Y1022401D01*
X1045735Y1021978D01*
X1046299Y1021555D01*
X1047568Y1020568D01*
X1049260Y1019723D01*
X1049400D01*
X1049682Y1019582D01*
X1050246Y1019441D01*
X1050951Y1019159D01*
X1052643Y1018877D01*
X1054616Y1018736D01*
X1054757D01*
X1055462D01*
X1056308Y1018877D01*
X1057295Y1019018D01*
X1058564Y1019300D01*
X1059973Y1019582D01*
X1061242Y1020146D01*
X1062511Y1020850D01*
X1062652Y1020991D01*
X1063075Y1021273D01*
X1063638Y1021837D01*
X1064343Y1022542D01*
X1065048Y1023529D01*
X1065894Y1024657D01*
X1066599Y1026207D01*
X1067163Y1027899D01*
X1067304Y1028181D01*
X1067445Y1028886D01*
X1067586Y1029872D01*
X1067727Y1031282D01*
Y1031564D01*
X1067868Y1032128D01*
Y1033397D01*
X1068009Y1034243D01*
Y1045097D01*
D02*
G37*
G36*
X943419Y1000974D02*
X941023D01*
X940882D01*
X940600D01*
X940177D01*
X939613D01*
X937921D01*
X935807Y1000833D01*
X933410D01*
X930873Y1000551D01*
X928335Y1000410D01*
X925939Y1000128D01*
X925657D01*
X924952Y999987D01*
X923824Y999705D01*
X922415Y999423D01*
X920864Y999000D01*
X919172Y998577D01*
X917481Y998013D01*
X915930Y997308D01*
X915789Y997167D01*
X915366Y996885D01*
X914661Y996463D01*
X913816Y995899D01*
X911983Y994207D01*
X910996Y993361D01*
X910291Y992233D01*
Y992093D01*
X910009Y991670D01*
X909727Y990965D01*
X909445Y990119D01*
X909164Y988991D01*
X908882Y987722D01*
X908741Y986313D01*
X908600Y984762D01*
Y983493D01*
X908741Y982648D01*
X909023Y980674D01*
X909586Y978700D01*
Y978559D01*
X909868Y978277D01*
X910009Y977714D01*
X910432Y977150D01*
X911419Y975599D01*
X912688Y974189D01*
X912829Y974048D01*
X913111Y973907D01*
X913534Y973484D01*
X914097Y973062D01*
X915648Y972216D01*
X917622Y971229D01*
X917763D01*
X918186Y970947D01*
X918749Y970806D01*
X919454Y970524D01*
X920441Y970242D01*
X921428Y969819D01*
X923965Y969255D01*
X924106D01*
X924529Y969114D01*
X925234Y968973D01*
X926221Y968832D01*
X927349Y968551D01*
X928617Y968410D01*
X931437Y968128D01*
X931578D01*
X932142D01*
X932987Y967987D01*
X933974D01*
X935243D01*
X936794Y967846D01*
X939895D01*
X940177D01*
X940882D01*
X942010D01*
X943419D01*
X945111Y967987D01*
X946803Y968128D01*
X950468Y968410D01*
X950609D01*
X951314Y968551D01*
X952159D01*
X953287Y968691D01*
X954556Y968832D01*
X955825Y969114D01*
X958644Y969678D01*
X958785D01*
X959208Y969819D01*
X959913Y969960D01*
X960759Y970242D01*
X962873Y970806D01*
X964847Y971793D01*
X964988D01*
X965270Y972075D01*
X965833Y972357D01*
X966397Y972639D01*
X967807Y973625D01*
X969217Y974894D01*
X969358Y975035D01*
X969499Y975176D01*
X969781Y975599D01*
X970204Y976163D01*
X970908Y977432D01*
X971613Y979123D01*
Y979264D01*
X971754Y979546D01*
X971895Y979969D01*
X972036Y980674D01*
X972318Y982225D01*
X972459Y984339D01*
Y985185D01*
X972318Y986172D01*
X972177Y987300D01*
X971895Y988709D01*
X971331Y990119D01*
X970767Y991529D01*
X969922Y992797D01*
X969781Y992938D01*
X969499Y993361D01*
X968935Y993925D01*
X968230Y994630D01*
X967243Y995476D01*
X966115Y996322D01*
X964847Y997167D01*
X963296Y997872D01*
X963155Y998013D01*
X962591Y998154D01*
X961604Y998436D01*
X960477Y998859D01*
X959067Y999282D01*
X957234Y999705D01*
X955402Y1000128D01*
X953287Y1000410D01*
X953005D01*
X952300Y1000551D01*
X951173D01*
X949622Y1000692D01*
X947789Y1000833D01*
X945675D01*
X943419Y1000974D01*
D02*
G37*
G36*
X1026845Y918929D02*
Y891440D01*
X1066176Y905255D01*
Y905396D01*
X1026845Y918929D01*
D02*
G37*
G36*
X943419Y846189D02*
X941023D01*
X940882D01*
X940600D01*
X940177D01*
X939613D01*
X937921D01*
X935807Y846048D01*
X933410D01*
X930873Y845766D01*
X928335Y845625D01*
X925939Y845343D01*
X925657D01*
X924952Y845202D01*
X923824Y844920D01*
X922415Y844638D01*
X920864Y844215D01*
X919172Y843792D01*
X917481Y843228D01*
X915930Y842523D01*
X915789Y842382D01*
X915366Y842100D01*
X914661Y841678D01*
X913816Y841114D01*
X911983Y839422D01*
X910996Y838576D01*
X910291Y837448D01*
Y837307D01*
X910009Y836885D01*
X909727Y836180D01*
X909445Y835334D01*
X909164Y834206D01*
X908882Y832937D01*
X908741Y831528D01*
X908600Y829977D01*
Y828708D01*
X908741Y827862D01*
X909023Y825889D01*
X909586Y823915D01*
Y823774D01*
X909868Y823492D01*
X910009Y822929D01*
X910432Y822365D01*
X911419Y820814D01*
X912688Y819404D01*
X912829Y819263D01*
X913111Y819122D01*
X913534Y818699D01*
X914097Y818276D01*
X915648Y817431D01*
X917622Y816444D01*
X917763D01*
X918186Y816162D01*
X918749Y816021D01*
X919454Y815739D01*
X920441Y815457D01*
X921428Y815034D01*
X923965Y814470D01*
X924106D01*
X924529Y814329D01*
X925234Y814188D01*
X926221Y814047D01*
X927349Y813765D01*
X928617Y813624D01*
X931437Y813343D01*
X931578D01*
X932142D01*
X932987Y813202D01*
X933974D01*
X935243D01*
X936794Y813061D01*
X939895D01*
X940177D01*
X940882D01*
X942010D01*
X943419D01*
X945111Y813202D01*
X946803Y813343D01*
X950468Y813624D01*
X950609D01*
X951314Y813765D01*
X952159D01*
X953287Y813906D01*
X954556Y814047D01*
X955825Y814329D01*
X958644Y814893D01*
X958785D01*
X959208Y815034D01*
X959913Y815175D01*
X960759Y815457D01*
X962873Y816021D01*
X964847Y817008D01*
X964988D01*
X965270Y817290D01*
X965833Y817572D01*
X966397Y817854D01*
X967807Y818840D01*
X969217Y820109D01*
X969358Y820250D01*
X969499Y820391D01*
X969781Y820814D01*
X970204Y821378D01*
X970908Y822647D01*
X971613Y824338D01*
Y824479D01*
X971754Y824761D01*
X971895Y825184D01*
X972036Y825889D01*
X972318Y827440D01*
X972459Y829554D01*
Y830400D01*
X972318Y831387D01*
X972177Y832514D01*
X971895Y833924D01*
X971331Y835334D01*
X970767Y836744D01*
X969922Y838012D01*
X969781Y838153D01*
X969499Y838576D01*
X968935Y839140D01*
X968230Y839845D01*
X967243Y840691D01*
X966115Y841537D01*
X964847Y842382D01*
X963296Y843087D01*
X963155Y843228D01*
X962591Y843369D01*
X961604Y843651D01*
X960477Y844074D01*
X959067Y844497D01*
X957234Y844920D01*
X955402Y845343D01*
X953287Y845625D01*
X953005D01*
X952300Y845766D01*
X951173D01*
X949622Y845907D01*
X947789Y846048D01*
X945675D01*
X943419Y846189D01*
D02*
G37*
%LPD*%
D59*
X997500Y6370000D02*
G03*
X997500Y6370000I-12500J0D01*
G01*
X2972500Y4055001D02*
G03*
X2972500Y4055001I-12500J0D01*
G01*
X3392500Y5885000D02*
G03*
X3392500Y5885000I-12500J0D01*
G01*
X2772811Y922500D02*
G03*
X2772811Y922500I-12500J0D01*
G01*
X705000Y5400000D02*
G03*
X705000Y5400000I-12500J0D01*
G01*
X1985000Y7350000D02*
G03*
X1985000Y7350000I-12500J0D01*
G01*
X2985000Y7250000D02*
G03*
X2985000Y7250000I-12500J0D01*
G01*
X2982500Y6450000D02*
G03*
X2982500Y6450000I-12500J0D01*
G01*
X3402810Y1002500D02*
G03*
X3402810Y1002500I-12500J0D01*
G01*
X2985000Y6850000D02*
G03*
X2985000Y6850000I-12500J0D01*
G01*
X922500Y4055000D02*
G03*
X922500Y4055000I-12500J0D01*
G01*
X2772190Y2447500D02*
G03*
X2772190Y2447500I-12500J0D01*
G01*
X2772810Y2222500D02*
G03*
X2772810Y2222500I-12500J0D01*
G01*
X1762500Y6515500D02*
G03*
X1762500Y6515500I-12500J0D01*
G01*
X3612500Y1965500D02*
G03*
X3612500Y1965500I-12500J0D01*
G01*
X2012500Y2984500D02*
G03*
X2012500Y2984500I-12500J0D01*
G01*
D60*
X3438000Y6350000D02*
G03*
X3438000Y6350000I-10000J0D01*
G01*
X3705500Y7950000D02*
G03*
X3705500Y7950000I-10000J0D01*
G01*
X1635000Y7730000D02*
G03*
X1635000Y7730000I-10000J0D01*
G01*
X3658350Y4905001D02*
G03*
X3658350Y4905001I-10000J0D01*
G01*
X3514500Y7000000D02*
G03*
X3514500Y7000000I-10000J0D01*
G01*
X3438000Y6750000D02*
G03*
X3438000Y6750000I-10000J0D01*
G01*
X3442000Y7145000D02*
G03*
X3442000Y7145000I-10000J0D01*
G01*
X511650Y5095000D02*
G03*
X511650Y5095000I-10000J0D01*
G01*
X2557750Y5097501D02*
G03*
X2557750Y5097501I-10000J0D01*
G01*
X1608350Y4905000D02*
G03*
X1608350Y4905000I-10000J0D01*
G01*
X895000Y6395000D02*
Y6705000D01*
X805000Y6395000D02*
Y6705000D01*
Y6395000D02*
X895000D01*
X805000Y6705000D02*
X895000D01*
X2042500Y8172500D02*
X3630500D01*
X2042500Y7600500D02*
X3630500D01*
X2042500D02*
Y8172500D01*
X3630500Y7600500D02*
Y8172500D01*
X2990000Y4180001D02*
X3210000D01*
X2990000Y4120001D02*
X3210000D01*
Y4180001D01*
X2990000Y4120001D02*
Y4180001D01*
X3475000Y5857500D02*
X3525000D01*
X3475000Y5547500D02*
X3525000D01*
X3475000D02*
Y5857500D01*
X3525000Y5547500D02*
Y5857500D01*
X545000Y6115000D02*
X755000D01*
X545000Y5785000D02*
X755000D01*
X1972499Y7158500D02*
X1973000Y7158000D01*
X1972499Y7158500D02*
X2227500D01*
Y5331000D02*
Y7158500D01*
X2227000Y5331500D02*
Y5332000D01*
X2226499Y5331000D02*
X2227000Y5331500D01*
X1972499Y5331000D02*
X2226499D01*
X1972499D02*
Y7157500D01*
X3035500Y276500D02*
X3036000Y277000D01*
X3035500Y22500D02*
Y276500D01*
Y22500D02*
X4610500D01*
Y277500D01*
X3035500D02*
X4610500D01*
X3035500D02*
X3036000Y277000D01*
X374000Y2860000D02*
X627000D01*
X373000Y2859000D02*
X374000Y2860000D01*
X373000Y1792500D02*
Y2859000D01*
Y1792500D02*
X627000D01*
Y2860000D01*
X3583400Y4855001D02*
Y4917501D01*
Y4855001D02*
Y4917501D01*
Y4855001D02*
X3645901D01*
X3583400Y5082501D02*
Y5145001D01*
Y5082501D02*
Y5145001D01*
X3645901D01*
X3713400Y4972501D02*
Y5000001D01*
Y5027501D01*
X2439768Y900000D02*
Y1400000D01*
X2160234D02*
X2439768D01*
X2160234Y900000D02*
Y1400000D01*
Y900000D02*
X2439768D01*
X71000Y5268000D02*
X629000D01*
X71000D02*
Y5532000D01*
X629000D01*
Y5268000D02*
Y5532000D01*
X1715000Y7430000D02*
X1885000D01*
X1715000Y7270000D02*
X1885000D01*
X2715000Y7170000D02*
X2885000D01*
X2715000Y7330000D02*
X2885000D01*
X2685000Y6365000D02*
X2915000D01*
X2685000Y6535000D02*
X2915000D01*
X237093Y6813107D02*
X558306D01*
X237093Y6586893D02*
X558306D01*
X3263107Y5239394D02*
Y5560607D01*
X3036893Y5239394D02*
Y5560607D01*
X2960000Y1270000D02*
X3240000D01*
X2960000Y930000D02*
X3240000D01*
X2842911Y5709589D02*
Y5995411D01*
X2657089Y5709589D02*
Y5995411D01*
X274503Y6357089D02*
X560325D01*
X274503Y6542911D02*
X560325D01*
X2874503Y2892911D02*
X3160325D01*
X2874503Y2707089D02*
X3160325D01*
X857775Y6992911D02*
X932497D01*
X857775Y6807089D02*
X932497D01*
X700000Y550000D02*
X1700000D01*
X700000Y32500D02*
X1700000D01*
X700000D02*
Y550000D01*
X1700000Y32500D02*
Y550000D01*
X4634500Y533000D02*
X5207000D01*
X4634500Y597000D02*
X5207000D01*
Y533000D02*
X5227000Y553000D01*
X5207000Y597000D02*
X5227000Y577000D01*
Y553000D02*
Y577000D01*
X4634500Y1041000D02*
X5207000D01*
X4634500Y1105000D02*
X5207000D01*
Y1041000D02*
X5227000Y1061000D01*
X5207000Y1105000D02*
X5227000Y1085000D01*
Y1061000D02*
Y1085000D01*
X4634500Y1549000D02*
X5207000D01*
X4634500Y1613000D02*
X5207000D01*
Y1549000D02*
X5227000Y1569000D01*
X5207000Y1613000D02*
X5227000Y1593000D01*
Y1569000D02*
Y1593000D01*
Y1823000D02*
Y1847000D01*
X5207000Y1867000D02*
X5227000Y1847000D01*
X5207000Y1803000D02*
X5227000Y1823000D01*
X4634500Y1867000D02*
X5207000D01*
X4634500Y1803000D02*
X5207000D01*
X4365500Y423000D02*
X4634500D01*
Y1977000D01*
X4365500D02*
X4634500D01*
X4365500Y423000D02*
Y1977000D01*
X5227000Y1315000D02*
Y1339000D01*
X5207000Y1359000D02*
X5227000Y1339000D01*
X5207000Y1295000D02*
X5227000Y1315000D01*
X4634500Y1359000D02*
X5207000D01*
X4634500Y1295000D02*
X5207000D01*
X5227000Y807000D02*
Y831000D01*
X5207000Y851000D02*
X5227000Y831000D01*
X5207000Y787000D02*
X5227000Y807000D01*
X4634500Y851000D02*
X5207000D01*
X4634500Y787000D02*
X5207000D01*
X1623089Y5657089D02*
X1908911D01*
X1623089Y5842911D02*
X1908911D01*
X1623089Y5407089D02*
X1908911D01*
X1623089Y5592911D02*
X1908911D01*
X742911Y4457089D02*
Y4742911D01*
X557089Y4457089D02*
Y4742911D01*
X492911Y4457089D02*
Y4742911D01*
X307089Y4457089D02*
Y4742911D01*
X642911Y3507089D02*
Y3792911D01*
X457089Y3507089D02*
Y3792911D01*
X2792911Y4462090D02*
Y4747912D01*
X2607089Y4462090D02*
Y4747912D01*
X2542911Y4462090D02*
Y4747912D01*
X2357089Y4462090D02*
Y4747912D01*
X2692911Y3507090D02*
Y3792912D01*
X2507089Y3507090D02*
Y3792912D01*
X1542911Y4457089D02*
Y4742911D01*
X1357089Y4457089D02*
Y4742911D01*
X2042911Y4457089D02*
Y4742911D01*
X1857089Y4457089D02*
Y4742911D01*
X1592911Y3507089D02*
Y3792911D01*
X1407089Y3507089D02*
Y3792911D01*
X3592911Y4457090D02*
Y4742912D01*
X3407089Y4457090D02*
Y4742912D01*
X4092911Y4457090D02*
Y4742912D01*
X3907089Y4457090D02*
Y4742912D01*
X3692911Y3507090D02*
Y3792912D01*
X3507089Y3507090D02*
Y3792912D01*
X2715000Y6930000D02*
X2885000D01*
X2715000Y6770000D02*
X2885000D01*
X3569500Y6777500D02*
X5157500D01*
X3569500Y7349500D02*
X5157500D01*
Y6777500D02*
Y7349500D01*
X3569500Y6777500D02*
Y7349500D01*
X724000Y2864000D02*
X977000D01*
X723000Y2863000D02*
X724000Y2864000D01*
X723000Y1796500D02*
Y2863000D01*
Y1796500D02*
X977000D01*
Y2864000D01*
X277000Y1788500D02*
Y2856000D01*
X23000Y1788500D02*
X277000D01*
X23000D02*
Y2855000D01*
X24000Y2856000D01*
X277000D01*
X374000Y1706000D02*
X627000D01*
X373000Y1705000D02*
X374000Y1706000D01*
X373000Y638500D02*
Y1705000D01*
Y638500D02*
X627000D01*
Y1706000D01*
X24000Y1714000D02*
X277000D01*
X23000Y1713000D02*
X24000Y1714000D01*
X23000Y646500D02*
Y1713000D01*
Y646500D02*
X277000D01*
Y1714000D01*
X1836000Y277000D02*
X2903500D01*
Y23000D02*
Y277000D01*
X1837000Y23000D02*
X2903500D01*
X1836000Y24000D02*
X1837000Y23000D01*
X1836000Y24000D02*
Y277000D01*
X940000Y4180000D02*
X1160000D01*
X940000Y4120000D02*
X1160000D01*
Y4180000D01*
X940000Y4120000D02*
Y4180000D01*
X436600Y4972500D02*
Y5000000D01*
Y5027500D01*
X504100Y4855000D02*
X566600D01*
Y4917500D01*
Y4855000D02*
Y4917500D01*
X504100Y5145000D02*
X566600D01*
Y5082500D02*
Y5145000D01*
Y5082500D02*
Y5145000D01*
X2482700Y4975000D02*
Y5002501D01*
Y5030001D01*
X2550200Y4857501D02*
X2612700D01*
Y4920001D01*
Y4857501D02*
Y4920001D01*
X2550200Y5147500D02*
X2612700D01*
Y5085000D02*
Y5147500D01*
Y5085000D02*
Y5147500D01*
X1663400Y5000000D02*
Y5027500D01*
Y4972500D02*
Y5000000D01*
X1533400Y5145000D02*
X1595900D01*
X1533400Y5082500D02*
Y5145000D01*
Y5082500D02*
Y5145000D01*
Y4855000D02*
X1595900D01*
X1533400D02*
Y4917500D01*
Y4855000D02*
Y4917500D01*
X1339394Y4113107D02*
X1660607D01*
X1339394Y3886894D02*
X1660607D01*
X1339394Y4363107D02*
X1660607D01*
X1339394Y4136894D02*
X1660607D01*
X3863107Y4439394D02*
Y4760607D01*
X3636893Y4439394D02*
Y4760607D01*
X3136893Y4439394D02*
Y4760607D01*
X3363107Y4439394D02*
Y4760607D01*
X3186893Y3041894D02*
Y3363107D01*
X3413106Y3041894D02*
Y3363107D01*
X3713107Y3039394D02*
Y3360607D01*
X3486893Y3039394D02*
Y3360607D01*
X3413106Y3489394D02*
Y3810607D01*
X3186893Y3489394D02*
Y3810607D01*
X3389394Y4113107D02*
X3710606D01*
X3389394Y3886894D02*
X3710606D01*
X3386893Y4363107D02*
X3708106D01*
X3386893Y4136894D02*
X3708106D01*
X2289393Y6963107D02*
X2610606D01*
X2289393Y6736893D02*
X2610606D01*
X2289393Y7363107D02*
X2610606D01*
X2289393Y7136893D02*
X2610606D01*
X2289393Y6563107D02*
X2610606D01*
X2289393Y6336893D02*
X2610606D01*
X263107Y4439394D02*
Y4760607D01*
X36893Y4439394D02*
Y4760607D01*
X786893Y4439394D02*
Y4760607D01*
X1013107Y4439394D02*
Y4760607D01*
X736893Y3039394D02*
Y3360607D01*
X963107Y3039394D02*
Y3360607D01*
X663107Y3039394D02*
Y3360607D01*
X436893Y3039394D02*
Y3360607D01*
X963107Y3489394D02*
Y3810607D01*
X736893Y3489394D02*
Y3810607D01*
X439393Y3886893D02*
X760606D01*
X439393Y4113107D02*
X760606D01*
X439393Y4136893D02*
X760606D01*
X439393Y4363107D02*
X760606D01*
X2313107Y4444394D02*
Y4765607D01*
X2086893Y4444394D02*
Y4765607D01*
X2836893Y4441894D02*
Y4763107D01*
X3063107Y4441894D02*
Y4763107D01*
X2786893Y3039394D02*
Y3360607D01*
X3013106Y3039394D02*
Y3360607D01*
X2713106Y3039394D02*
Y3360607D01*
X2486893Y3039394D02*
Y3360607D01*
X3013106Y3489394D02*
Y3810607D01*
X2786893Y3489394D02*
Y3810607D01*
X2439393Y3886893D02*
X2760606D01*
X2439393Y4113107D02*
X2760606D01*
X2439393Y4136893D02*
X2760606D01*
X2439393Y4363107D02*
X2760606D01*
X1813107Y4439394D02*
Y4760607D01*
X1586893Y4439394D02*
Y4760607D01*
X1086893Y4439394D02*
Y4760607D01*
X1313107Y4439394D02*
Y4760607D01*
X1136893Y3039394D02*
Y3360607D01*
X1363107Y3039394D02*
Y3360607D01*
X1663107Y3039394D02*
Y3360607D01*
X1436893Y3039394D02*
Y3360607D01*
X1363107Y3489394D02*
Y3810607D01*
X1136893Y3489394D02*
Y3810607D01*
X2592911Y5559589D02*
Y5845411D01*
X2407089Y5559589D02*
Y5845411D01*
X3092911Y5709589D02*
Y5995411D01*
X2907089Y5709589D02*
Y5995411D01*
X2863107Y5241894D02*
Y5563107D01*
X2636893Y5241894D02*
Y5563107D01*
X2910000Y2180000D02*
X3190000D01*
X2910000Y2520000D02*
X3190000D01*
X2160233Y2200000D02*
X2439767D01*
X2160233D02*
Y2700000D01*
X2439767D01*
Y2200000D02*
Y2700000D01*
X1907089Y1907089D02*
X2192911D01*
X1907089Y2092911D02*
X2192911D01*
X1907089Y792911D02*
X2192912D01*
X1907089Y607089D02*
X2192912D01*
X1882000Y5894000D02*
Y6452000D01*
X1618000Y5894000D02*
X1882000D01*
X1618000D02*
Y6452000D01*
X1882000D01*
X3468000Y1902000D02*
X3732000D01*
X3468000Y1344000D02*
Y1902000D01*
Y1344000D02*
X3732000D01*
Y1902000D01*
X1868000Y3048000D02*
X2132000D01*
Y3606000D01*
X1868000D02*
X2132000D01*
X1868000Y3048000D02*
Y3606000D01*
X239393Y6886893D02*
X560606D01*
X239393Y7113107D02*
X560606D01*
X1491894Y7213107D02*
X1813107D01*
X1491894Y6986893D02*
X1813107D01*
X2889675Y657089D02*
X3175497D01*
X2889675Y842911D02*
X3175497D01*
X2689393Y1686893D02*
X3010606D01*
X2689393Y1913107D02*
X3010606D01*
X2689393Y1936893D02*
X3010606D01*
X2689393Y2163107D02*
X3010606D01*
X3186893Y1439394D02*
Y1760607D01*
X3413107Y1439394D02*
Y1760607D01*
X3613107Y2286893D02*
Y2608106D01*
X3386893Y2286893D02*
Y2608106D01*
X3989394Y7386893D02*
X4310607D01*
X3989394Y7613107D02*
X4310607D01*
X3989394Y7636893D02*
X4310607D01*
X3989394Y7863107D02*
X4310607D01*
X3389394Y6036893D02*
X3710606D01*
X3389394Y6263107D02*
X3710606D01*
X2689393Y1436893D02*
X3010606D01*
X2689393Y1663107D02*
X3010606D01*
X4634500Y5133000D02*
X5207000D01*
X4634500Y5197000D02*
X5207000D01*
Y5133000D02*
X5227000Y5153000D01*
X5207000Y5197000D02*
X5227000Y5177000D01*
Y5153000D02*
Y5177000D01*
X4634500Y5641000D02*
X5207000D01*
X4634500Y5705000D02*
X5207000D01*
Y5641000D02*
X5227000Y5661000D01*
X5207000Y5705000D02*
X5227000Y5685000D01*
Y5661000D02*
Y5685000D01*
X4634500Y6149000D02*
X5207000D01*
X4634500Y6213000D02*
X5207000D01*
Y6149000D02*
X5227000Y6169000D01*
X5207000Y6213000D02*
X5227000Y6193000D01*
Y6169000D02*
Y6193000D01*
Y6423000D02*
Y6447000D01*
X5207000Y6467000D02*
X5227000Y6447000D01*
X5207000Y6403000D02*
X5227000Y6423000D01*
X4634500Y6467000D02*
X5207000D01*
X4634500Y6403000D02*
X5207000D01*
X4365500Y5023000D02*
X4634500D01*
Y6577000D01*
X4365500D02*
X4634500D01*
X4365500Y5023000D02*
Y6577000D01*
X5227000Y5915000D02*
Y5939000D01*
X5207000Y5959000D02*
X5227000Y5939000D01*
X5207000Y5895000D02*
X5227000Y5915000D01*
X4634500Y5959000D02*
X5207000D01*
X4634500Y5895000D02*
X5207000D01*
X5227000Y5407000D02*
Y5431000D01*
X5207000Y5451000D02*
X5227000Y5431000D01*
X5207000Y5387000D02*
X5227000Y5407000D01*
X4634500Y5451000D02*
X5207000D01*
X4634500Y5387000D02*
X5207000D01*
X4634500Y2833000D02*
X5207000D01*
X4634500Y2897000D02*
X5207000D01*
Y2833000D02*
X5227000Y2853000D01*
X5207000Y2897000D02*
X5227000Y2877000D01*
Y2853000D02*
Y2877000D01*
X4634500Y3341000D02*
X5207000D01*
X4634500Y3405000D02*
X5207000D01*
Y3341000D02*
X5227000Y3361000D01*
X5207000Y3405000D02*
X5227000Y3385000D01*
Y3361000D02*
Y3385000D01*
X4634500Y3849000D02*
X5207000D01*
X4634500Y3913000D02*
X5207000D01*
Y3849000D02*
X5227000Y3869000D01*
X5207000Y3913000D02*
X5227000Y3893000D01*
Y3869000D02*
Y3893000D01*
Y4123000D02*
Y4147000D01*
X5207000Y4167000D02*
X5227000Y4147000D01*
X5207000Y4103000D02*
X5227000Y4123000D01*
X4634500Y4167000D02*
X5207000D01*
X4634500Y4103000D02*
X5207000D01*
X4365500Y2723000D02*
X4634500D01*
Y4277000D01*
X4365500D02*
X4634500D01*
X4365500Y2723000D02*
Y4277000D01*
X5227000Y3615000D02*
Y3639000D01*
X5207000Y3659000D02*
X5227000Y3639000D01*
X5207000Y3595000D02*
X5227000Y3615000D01*
X4634500Y3659000D02*
X5207000D01*
X4634500Y3595000D02*
X5207000D01*
X5227000Y3107000D02*
Y3131000D01*
X5207000Y3151000D02*
X5227000Y3131000D01*
X5207000Y3087000D02*
X5227000Y3107000D01*
X4634500Y3151000D02*
X5207000D01*
X4634500Y3087000D02*
X5207000D01*
X2937093Y6263107D02*
X3258306D01*
X2937093Y6036893D02*
X3258306D01*
D61*
X2119819Y5331000D02*
G03*
X2119819Y5331000I-20320J0D01*
G01*
X3055820Y149500D02*
G03*
X3055820Y149500I-20320J0D01*
G01*
X520820Y2860000D02*
G03*
X520820Y2860000I-20320J0D01*
G01*
X870820Y2864000D02*
G03*
X870820Y2864000I-20320J0D01*
G01*
X170820Y2856000D02*
G03*
X170820Y2856000I-20320J0D01*
G01*
X520820Y1706000D02*
G03*
X520820Y1706000I-20320J0D01*
G01*
X170820Y1714000D02*
G03*
X170820Y1714000I-20320J0D01*
G01*
X1856320Y150500D02*
G03*
X1856320Y150500I-20320J0D01*
G01*
D62*
X2389767Y975000D02*
G03*
X2389767Y975000I-25000J0D01*
G01*
X2389767Y2275000D02*
G03*
X2389767Y2275000I-25000J0D01*
G01*
D63*
X350000Y3450000D02*
G03*
X350000Y3450000I-100000J0D01*
G01*
X5050000Y7950000D02*
G03*
X5050000Y7950000I-100000J0D01*
G01*
X250000Y3300000D02*
Y3600000D01*
X100000Y3450000D02*
X400000D01*
X4800000Y7950000D02*
X5100000D01*
X4950000Y7800000D02*
Y8100000D01*
D64*
X3133000Y6294100D02*
X3263000D01*
X3133000D02*
Y6388500D01*
Y6511500D02*
Y6605900D01*
X3263000Y6415850D02*
Y6484150D01*
X3133000Y6605900D02*
X3263000D01*
X95000Y7280000D02*
Y8180000D01*
Y7280000D02*
X940000D01*
X1410000D02*
X1445000D01*
Y7495000D01*
Y7965000D02*
Y8180000D01*
X95000D02*
X1445000D01*
X1638000Y6700000D02*
Y6800000D01*
X1462000Y6700000D02*
Y6800000D01*
X3133000Y7005900D02*
X3263000D01*
Y6815850D02*
Y6884150D01*
X3133000Y6911500D02*
Y7005900D01*
Y6694100D02*
Y6788500D01*
Y6694100D02*
X3263000D01*
X3137000Y7089100D02*
X3267000D01*
X3137000D02*
Y7183500D01*
Y7306500D02*
Y7400900D01*
X3267000Y7210850D02*
Y7279150D01*
X3137000Y7400900D02*
X3267000D01*
X1388000Y6700000D02*
Y6800000D01*
X1212000Y6700000D02*
Y6800000D01*
D65*
X683371Y6299984D02*
Y6216677D01*
X700032Y6200016D01*
X733355D01*
X750016Y6216677D01*
Y6299984D01*
X849984D02*
X816661Y6283322D01*
X783339Y6250000D01*
Y6216677D01*
X800000Y6200016D01*
X833323D01*
X849984Y6216677D01*
Y6233339D01*
X833323Y6250000D01*
X783339D01*
X883307Y6200016D02*
X916629D01*
X899968D01*
Y6299984D01*
X883307Y6283322D01*
X3583355Y6366677D02*
Y6433322D01*
X3566694Y6449984D01*
X3533371D01*
X3516710Y6433322D01*
Y6366677D01*
X3533371Y6350016D01*
X3566694D01*
X3550032Y6383339D02*
X3583355Y6350016D01*
X3566694D02*
X3583355Y6366677D01*
X3666661Y6350016D02*
Y6449984D01*
X3616678Y6400000D01*
X3683323D01*
X3716645Y6433322D02*
X3733307Y6449984D01*
X3766629D01*
X3783290Y6433322D01*
Y6416661D01*
X3766629Y6400000D01*
X3749968D01*
X3766629D01*
X3783290Y6383339D01*
Y6366677D01*
X3766629Y6350016D01*
X3733307D01*
X3716645Y6366677D01*
X3741685Y8199984D02*
X3708363D01*
X3725024D01*
Y8116677D01*
X3708363Y8100016D01*
X3691702D01*
X3675040Y8116677D01*
X3775008Y8100016D02*
X3808331D01*
X3791670D01*
Y8199984D01*
X3775008Y8183322D01*
X3924960Y8100016D02*
X3858315D01*
X3924960Y8166661D01*
Y8183322D01*
X3908299Y8199984D01*
X3874976D01*
X3858315Y8183322D01*
X2933355Y4316678D02*
Y4383323D01*
X2916693Y4399984D01*
X2883371D01*
X2866710Y4383323D01*
Y4316678D01*
X2883371Y4300016D01*
X2916693D01*
X2900032Y4333339D02*
X2933355Y4300016D01*
X2916693D02*
X2933355Y4316678D01*
X3033322Y4399984D02*
X2966677D01*
Y4350000D01*
X3000000Y4366661D01*
X3016661D01*
X3033322Y4350000D01*
Y4316678D01*
X3016661Y4300016D01*
X2983339D01*
X2966677Y4316678D01*
X3133290Y4300016D02*
X3066645D01*
X3133290Y4366661D01*
Y4383323D01*
X3116629Y4399984D01*
X3083307D01*
X3066645Y4383323D01*
X3433371Y5499984D02*
Y5416677D01*
X3450032Y5400016D01*
X3483355D01*
X3500016Y5416677D01*
Y5499984D01*
X3533339Y5483322D02*
X3550000Y5499984D01*
X3583323D01*
X3599984Y5483322D01*
Y5466661D01*
X3583323Y5450000D01*
X3566661D01*
X3583323D01*
X3599984Y5433338D01*
Y5416677D01*
X3583323Y5400016D01*
X3550000D01*
X3533339Y5416677D01*
X3633307Y5400016D02*
X3666629D01*
X3649968D01*
Y5499984D01*
X3633307Y5483322D01*
X1083371Y5699984D02*
Y5600016D01*
X1150016D01*
X1249984Y5699984D02*
X1216661Y5683322D01*
X1183339Y5650000D01*
Y5616677D01*
X1200000Y5600016D01*
X1233323D01*
X1249984Y5616677D01*
Y5633338D01*
X1233323Y5650000D01*
X1183339D01*
X1283307Y5600016D02*
X1316629D01*
X1299968D01*
Y5699984D01*
X1283307Y5683322D01*
X2149984Y7408314D02*
Y7441637D01*
Y7424975D01*
X2066678D01*
X2050016Y7441637D01*
Y7458298D01*
X2066678Y7474959D01*
X2050016Y7374991D02*
Y7341669D01*
Y7358330D01*
X2149984D01*
X2133323Y7374991D01*
Y7291685D02*
X2149984Y7275024D01*
Y7241701D01*
X2133323Y7225040D01*
X2116661D01*
X2100000Y7241701D01*
Y7258362D01*
Y7241701D01*
X2083339Y7225040D01*
X2066678D01*
X2050016Y7241701D01*
Y7275024D01*
X2066678Y7291685D01*
X3070805Y452208D02*
X3037482D01*
X3054144D01*
Y368901D01*
X3037482Y352240D01*
X3020821D01*
X3004160Y368901D01*
X3104128Y435547D02*
X3120789Y452208D01*
X3154112D01*
X3170773Y435547D01*
Y418885D01*
X3154112Y402224D01*
X3137450D01*
X3154112D01*
X3170773Y385563D01*
Y368901D01*
X3154112Y352240D01*
X3120789D01*
X3104128Y368901D01*
X3204095Y352240D02*
X3237418D01*
X3220757D01*
Y452208D01*
X3204095Y435547D01*
X1133355Y2849984D02*
X1100032D01*
X1116693D01*
Y2766677D01*
X1100032Y2750016D01*
X1083371D01*
X1066710Y2766677D01*
X1233322Y2750016D02*
X1166677D01*
X1233322Y2816661D01*
Y2833323D01*
X1216661Y2849984D01*
X1183339D01*
X1166677Y2833323D01*
X1333290Y2750016D02*
X1266645D01*
X1333290Y2816661D01*
Y2833323D01*
X1316629Y2849984D01*
X1283307D01*
X1266645Y2833323D01*
X1650016Y8099984D02*
X1616693D01*
X1633355D01*
Y8016677D01*
X1616693Y8000016D01*
X1600032D01*
X1583371Y8016677D01*
X1683339Y8083322D02*
X1700000Y8099984D01*
X1733323D01*
X1749984Y8083322D01*
Y8016677D01*
X1733323Y8000016D01*
X1700000D01*
X1683339Y8016677D01*
Y8083322D01*
X1783307Y8000016D02*
X1816629D01*
X1799968D01*
Y8099984D01*
X1783307Y8083322D01*
X3586425Y5238081D02*
Y5304727D01*
X3569764Y5321388D01*
X3536441D01*
X3519780Y5304727D01*
Y5238081D01*
X3536441Y5221420D01*
X3569764D01*
X3553102Y5254743D02*
X3586425Y5221420D01*
X3569764D02*
X3586425Y5238081D01*
X3686393Y5321388D02*
X3619748D01*
Y5271404D01*
X3653070Y5288065D01*
X3669732D01*
X3686393Y5271404D01*
Y5238081D01*
X3669732Y5221420D01*
X3636409D01*
X3619748Y5238081D01*
X3786360Y5321388D02*
X3753038Y5304727D01*
X3719715Y5271404D01*
Y5238081D01*
X3736377Y5221420D01*
X3769699D01*
X3786360Y5238081D01*
Y5254743D01*
X3769699Y5271404D01*
X3719715D01*
X1633371Y1399984D02*
Y1316678D01*
X1650033Y1300016D01*
X1683355D01*
X1700016Y1316678D01*
Y1399984D01*
X1799984Y1300016D02*
X1733339D01*
X1799984Y1366661D01*
Y1383323D01*
X1783323Y1399984D01*
X1750000D01*
X1733339Y1383323D01*
X1833307Y1300016D02*
X1866629D01*
X1849968D01*
Y1399984D01*
X1833307Y1383323D01*
X100016Y5699984D02*
X66694D01*
X83355D01*
Y5616677D01*
X66694Y5600016D01*
X50032D01*
X33371Y5616677D01*
X199984Y5699984D02*
X133339D01*
Y5650000D01*
X166661Y5666661D01*
X183323D01*
X199984Y5650000D01*
Y5616677D01*
X183323Y5600016D01*
X150000D01*
X133339Y5616677D01*
X233307Y5600016D02*
X266629D01*
X249968D01*
Y5699984D01*
X233307Y5683322D01*
X1616693Y7599984D02*
Y7500016D01*
X1666677D01*
X1683339Y7516677D01*
Y7583322D01*
X1666677Y7599984D01*
X1616693D01*
X1766645Y7500016D02*
Y7599984D01*
X1716661Y7550000D01*
X1783306D01*
X2716694Y7499984D02*
Y7400016D01*
X2766677D01*
X2783339Y7416678D01*
Y7483323D01*
X2766677Y7499984D01*
X2716694D01*
X2883306Y7400016D02*
X2816661D01*
X2883306Y7466661D01*
Y7483323D01*
X2866645Y7499984D01*
X2833323D01*
X2816661Y7483323D01*
X2716694Y6699984D02*
Y6600016D01*
X2766677D01*
X2783339Y6616677D01*
Y6683322D01*
X2766677Y6699984D01*
X2716694D01*
X2816661Y6683322D02*
X2833323Y6699984D01*
X2866645D01*
X2883306Y6683322D01*
Y6666661D01*
X2866645Y6650000D01*
X2849984D01*
X2866645D01*
X2883306Y6633339D01*
Y6616677D01*
X2866645Y6600016D01*
X2833323D01*
X2816661Y6616677D01*
X3416710Y1199984D02*
Y1116677D01*
X3433371Y1100016D01*
X3466694D01*
X3483355Y1116677D01*
Y1199984D01*
X3583323Y1100016D02*
X3516677D01*
X3583323Y1166661D01*
Y1183323D01*
X3566661Y1199984D01*
X3533339D01*
X3516677Y1183323D01*
X3616645D02*
X3633307Y1199984D01*
X3666629D01*
X3683290Y1183323D01*
Y1166661D01*
X3666629Y1150000D01*
X3649968D01*
X3666629D01*
X3683290Y1133339D01*
Y1116677D01*
X3666629Y1100016D01*
X3633307D01*
X3616645Y1116677D01*
X2383323Y6216645D02*
X2399984Y6233306D01*
Y6266628D01*
X2383323Y6283290D01*
X2316678D01*
X2300016Y6266628D01*
Y6233306D01*
X2316678Y6216645D01*
X2383323Y6183322D02*
X2399984Y6166661D01*
Y6133338D01*
X2383323Y6116677D01*
X2366661D01*
X2350000Y6133338D01*
Y6149999D01*
Y6133338D01*
X2333339Y6116677D01*
X2316678D01*
X2300016Y6133338D01*
Y6166661D01*
X2316678Y6183322D01*
X2300016Y6016709D02*
Y6083354D01*
X2366661Y6016709D01*
X2383323D01*
X2399984Y6033370D01*
Y6066693D01*
X2383323Y6083354D01*
X133323Y6266645D02*
X149984Y6283306D01*
Y6316629D01*
X133323Y6333290D01*
X66678D01*
X50016Y6316629D01*
Y6283306D01*
X66678Y6266645D01*
X149984Y6166677D02*
X133323Y6200000D01*
X100000Y6233322D01*
X66678D01*
X50016Y6216661D01*
Y6183338D01*
X66678Y6166677D01*
X83339D01*
X100000Y6183338D01*
Y6233322D01*
X133323Y6133355D02*
X149984Y6116693D01*
Y6083371D01*
X133323Y6066709D01*
X116661D01*
X100000Y6083371D01*
Y6100032D01*
Y6083371D01*
X83339Y6066709D01*
X66678D01*
X50016Y6083371D01*
Y6116693D01*
X66678Y6133355D01*
X3333355Y2833323D02*
X3316694Y2849984D01*
X3283371D01*
X3266710Y2833323D01*
Y2766677D01*
X3283371Y2750016D01*
X3316694D01*
X3333355Y2766677D01*
X3433323Y2750016D02*
X3366678D01*
X3433323Y2816661D01*
Y2833323D01*
X3416661Y2849984D01*
X3383339D01*
X3366678Y2833323D01*
X3516629Y2750016D02*
Y2849984D01*
X3466645Y2800000D01*
X3533290D01*
X850016Y7133323D02*
X833355Y7149984D01*
X800032D01*
X783371Y7133323D01*
Y7066678D01*
X800032Y7050016D01*
X833355D01*
X850016Y7066678D01*
X949984Y7149984D02*
X916661Y7133323D01*
X883339Y7100000D01*
Y7066678D01*
X900000Y7050016D01*
X933323D01*
X949984Y7066678D01*
Y7083339D01*
X933323Y7100000D01*
X883339D01*
X983307Y7050016D02*
X1016629D01*
X999968D01*
Y7149984D01*
X983307Y7133323D01*
X799984Y816645D02*
Y849968D01*
Y833306D01*
X716677D01*
X700016Y849968D01*
Y866629D01*
X716677Y883290D01*
X783322Y783322D02*
X799984Y766661D01*
Y733338D01*
X783322Y716677D01*
X766661D01*
X750000Y733338D01*
Y750000D01*
Y733338D01*
X733338Y716677D01*
X716677D01*
X700016Y733338D01*
Y766661D01*
X716677Y783322D01*
X700016Y616709D02*
Y683354D01*
X766661Y616709D01*
X783322D01*
X799984Y633371D01*
Y666693D01*
X783322Y683354D01*
X1883323Y6866629D02*
X1899984Y6883290D01*
Y6916612D01*
X1883323Y6933274D01*
X1816678D01*
X1800016Y6916612D01*
Y6883290D01*
X1816678Y6866629D01*
X1899984Y6766661D02*
X1883323Y6799983D01*
X1850000Y6833306D01*
X1816678D01*
X1800016Y6816644D01*
Y6783322D01*
X1816678Y6766661D01*
X1833339D01*
X1850000Y6783322D01*
Y6833306D01*
X1800016Y6666693D02*
Y6733338D01*
X1866661Y6666693D01*
X1883323D01*
X1899984Y6683354D01*
Y6716677D01*
X1883323Y6733338D01*
X1800016Y6566725D02*
Y6633370D01*
X1866661Y6566725D01*
X1883323D01*
X1899984Y6583386D01*
Y6616709D01*
X1883323Y6633370D01*
X2683355Y6183322D02*
X2666694Y6199984D01*
X2633371D01*
X2616710Y6183322D01*
Y6116677D01*
X2633371Y6100016D01*
X2666694D01*
X2683355Y6116677D01*
X2716678Y6183322D02*
X2733339Y6199984D01*
X2766661D01*
X2783323Y6183322D01*
Y6166661D01*
X2766661Y6150000D01*
X2750000D01*
X2766661D01*
X2783323Y6133339D01*
Y6116677D01*
X2766661Y6100016D01*
X2733339D01*
X2716678Y6116677D01*
X2866629Y6100016D02*
Y6199984D01*
X2816645Y6150000D01*
X2883290D01*
X4799645Y2084348D02*
X4766322D01*
X4782984D01*
Y2001041D01*
X4766322Y1984380D01*
X4749661D01*
X4733000Y2001041D01*
X4832968Y2067686D02*
X4849629Y2084348D01*
X4882952D01*
X4899613Y2067686D01*
Y2051025D01*
X4882952Y2034364D01*
X4866290D01*
X4882952D01*
X4899613Y2017703D01*
Y2001041D01*
X4882952Y1984380D01*
X4849629D01*
X4832968Y2001041D01*
X4982919Y1984380D02*
Y2084348D01*
X4932936Y2034364D01*
X4999581D01*
X1408347Y5783322D02*
X1391686Y5799984D01*
X1358363D01*
X1341702Y5783322D01*
Y5716677D01*
X1358363Y5700016D01*
X1391686D01*
X1408347Y5716677D01*
X1441669Y5700016D02*
X1474992D01*
X1458331D01*
Y5799984D01*
X1441669Y5783322D01*
X1524976Y5700016D02*
X1558298D01*
X1541637D01*
Y5799984D01*
X1524976Y5783322D01*
X1391685Y5533322D02*
X1375024Y5549984D01*
X1341702D01*
X1325040Y5533322D01*
Y5466677D01*
X1341702Y5450016D01*
X1375024D01*
X1391685Y5466677D01*
X1425008Y5450016D02*
X1458331D01*
X1441669D01*
Y5549984D01*
X1425008Y5533322D01*
X1574960Y5450016D02*
X1508314D01*
X1574960Y5516661D01*
Y5533322D01*
X1558298Y5549984D01*
X1524976D01*
X1508314Y5533322D01*
X1391685Y5333323D02*
X1375024Y5349984D01*
X1341702D01*
X1325040Y5333323D01*
Y5266678D01*
X1341702Y5250016D01*
X1375024D01*
X1391685Y5266678D01*
X1425008Y5250016D02*
X1458331D01*
X1441669D01*
Y5349984D01*
X1425008Y5333323D01*
X1508314D02*
X1524976Y5349984D01*
X1558298D01*
X1574960Y5333323D01*
Y5316661D01*
X1558298Y5300000D01*
X1541637D01*
X1558298D01*
X1574960Y5283339D01*
Y5266678D01*
X1558298Y5250016D01*
X1524976D01*
X1508314Y5266678D01*
X700016Y4933323D02*
X683355Y4949984D01*
X650032D01*
X633371Y4933323D01*
Y4866678D01*
X650032Y4850016D01*
X683355D01*
X700016Y4866678D01*
X799984Y4949984D02*
X733339D01*
Y4900000D01*
X766661Y4916661D01*
X783323D01*
X799984Y4900000D01*
Y4866678D01*
X783323Y4850016D01*
X750000D01*
X733339Y4866678D01*
X833307Y4850016D02*
X866629D01*
X849968D01*
Y4949984D01*
X833307Y4933323D01*
X133355Y4333323D02*
X116694Y4349984D01*
X83371D01*
X66710Y4333323D01*
Y4266678D01*
X83371Y4250016D01*
X116694D01*
X133355Y4266678D01*
X233323Y4349984D02*
X166678D01*
Y4300000D01*
X200000Y4316661D01*
X216661D01*
X233323Y4300000D01*
Y4266678D01*
X216661Y4250016D01*
X183339D01*
X166678Y4266678D01*
X333290Y4250016D02*
X266645D01*
X333290Y4316661D01*
Y4333323D01*
X316629Y4349984D01*
X283307D01*
X266645Y4333323D01*
X183355Y3783323D02*
X166694Y3799984D01*
X133371D01*
X116710Y3783323D01*
Y3716678D01*
X133371Y3700016D01*
X166694D01*
X183355Y3716678D01*
X283323Y3799984D02*
X216677D01*
Y3750000D01*
X250000Y3766661D01*
X266661D01*
X283323Y3750000D01*
Y3716678D01*
X266661Y3700016D01*
X233339D01*
X216677Y3716678D01*
X316645Y3783323D02*
X333307Y3799984D01*
X366629D01*
X383290Y3783323D01*
Y3766661D01*
X366629Y3750000D01*
X349968D01*
X366629D01*
X383290Y3733339D01*
Y3716678D01*
X366629Y3700016D01*
X333307D01*
X316645Y3716678D01*
X2833355Y4933323D02*
X2816694Y4949984D01*
X2783371D01*
X2766710Y4933323D01*
Y4866678D01*
X2783371Y4850016D01*
X2816694D01*
X2833355Y4866678D01*
X2933323Y4949984D02*
X2866678D01*
Y4900000D01*
X2900000Y4916661D01*
X2916661D01*
X2933323Y4900000D01*
Y4866678D01*
X2916661Y4850016D01*
X2883339D01*
X2866678Y4866678D01*
X3016629Y4850016D02*
Y4949984D01*
X2966645Y4900000D01*
X3033290D01*
X2133355Y4333323D02*
X2116694Y4349984D01*
X2083371D01*
X2066710Y4333323D01*
Y4266678D01*
X2083371Y4250016D01*
X2116694D01*
X2133355Y4266678D01*
X2233322Y4349984D02*
X2166677D01*
Y4300000D01*
X2200000Y4316661D01*
X2216661D01*
X2233322Y4300000D01*
Y4266678D01*
X2216661Y4250016D01*
X2183339D01*
X2166677Y4266678D01*
X2333290Y4349984D02*
X2266645D01*
Y4300000D01*
X2299968Y4316661D01*
X2316629D01*
X2333290Y4300000D01*
Y4266678D01*
X2316629Y4250016D01*
X2283307D01*
X2266645Y4266678D01*
X2433323Y3716645D02*
X2449984Y3733306D01*
Y3766629D01*
X2433323Y3783290D01*
X2366678D01*
X2350016Y3766629D01*
Y3733306D01*
X2366678Y3716645D01*
X2449984Y3616677D02*
Y3683322D01*
X2400000D01*
X2416661Y3650000D01*
Y3633338D01*
X2400000Y3616677D01*
X2366678D01*
X2350016Y3633338D01*
Y3666661D01*
X2366678Y3683322D01*
X2449984Y3516710D02*
X2433323Y3550032D01*
X2400000Y3583355D01*
X2366678D01*
X2350016Y3566693D01*
Y3533371D01*
X2366678Y3516710D01*
X2383339D01*
X2400000Y3533371D01*
Y3583355D01*
X1283355Y4883322D02*
X1266694Y4899984D01*
X1233371D01*
X1216710Y4883322D01*
Y4816677D01*
X1233371Y4800016D01*
X1266694D01*
X1283355Y4816677D01*
X1383323Y4899984D02*
X1316678D01*
Y4850000D01*
X1350000Y4866661D01*
X1366661D01*
X1383323Y4850000D01*
Y4816677D01*
X1366661Y4800016D01*
X1333339D01*
X1316678Y4816677D01*
X1416645Y4899984D02*
X1483290D01*
Y4883322D01*
X1416645Y4816677D01*
Y4800016D01*
X1883355Y4933323D02*
X1866693Y4949984D01*
X1833371D01*
X1816710Y4933323D01*
Y4866678D01*
X1833371Y4850016D01*
X1866693D01*
X1883355Y4866678D01*
X1983322Y4949984D02*
X1916677D01*
Y4900000D01*
X1950000Y4916661D01*
X1966661D01*
X1983322Y4900000D01*
Y4866678D01*
X1966661Y4850016D01*
X1933339D01*
X1916677Y4866678D01*
X2016645Y4933323D02*
X2033307Y4949984D01*
X2066629D01*
X2083290Y4933323D01*
Y4916661D01*
X2066629Y4900000D01*
X2083290Y4883339D01*
Y4866678D01*
X2066629Y4850016D01*
X2033307D01*
X2016645Y4866678D01*
Y4883339D01*
X2033307Y4900000D01*
X2016645Y4916661D01*
Y4933323D01*
X2033307Y4900000D02*
X2066629D01*
X1783323Y3716645D02*
X1799984Y3733306D01*
Y3766629D01*
X1783323Y3783290D01*
X1716678D01*
X1700016Y3766629D01*
Y3733306D01*
X1716678Y3716645D01*
X1799984Y3616678D02*
Y3683323D01*
X1750000D01*
X1766661Y3650000D01*
Y3633339D01*
X1750000Y3616678D01*
X1716678D01*
X1700016Y3633339D01*
Y3666661D01*
X1716678Y3683323D01*
Y3583355D02*
X1700016Y3566693D01*
Y3533371D01*
X1716678Y3516710D01*
X1783323D01*
X1799984Y3533371D01*
Y3566693D01*
X1783323Y3583355D01*
X1766661D01*
X1750000Y3566693D01*
Y3516710D01*
X3191702Y4933323D02*
X3175040Y4949984D01*
X3141718D01*
X3125056Y4933323D01*
Y4866678D01*
X3141718Y4850016D01*
X3175040D01*
X3191702Y4866678D01*
X3291669Y4949984D02*
X3225024D01*
Y4900000D01*
X3258347Y4916661D01*
X3275008D01*
X3291669Y4900000D01*
Y4866678D01*
X3275008Y4850016D01*
X3241686D01*
X3225024Y4866678D01*
X3324992Y4850016D02*
X3358315D01*
X3341653D01*
Y4949984D01*
X3324992Y4933323D01*
X3408298D02*
X3424960Y4949984D01*
X3458282D01*
X3474944Y4933323D01*
Y4866678D01*
X3458282Y4850016D01*
X3424960D01*
X3408298Y4866678D01*
Y4933323D01*
X4233323Y4791637D02*
X4249984Y4808298D01*
Y4841620D01*
X4233323Y4858282D01*
X4166678D01*
X4150016Y4841620D01*
Y4808298D01*
X4166678Y4791637D01*
X4249984Y4691669D02*
Y4758314D01*
X4200000D01*
X4216661Y4724992D01*
Y4708330D01*
X4200000Y4691669D01*
X4166678D01*
X4150016Y4708330D01*
Y4741653D01*
X4166678Y4758314D01*
X4150016Y4658346D02*
Y4625024D01*
Y4641685D01*
X4249984D01*
X4233323Y4658346D01*
X4150016Y4575040D02*
Y4541717D01*
Y4558378D01*
X4249984D01*
X4233323Y4575040D01*
X3833322Y3808298D02*
X3849984Y3824959D01*
Y3858282D01*
X3833322Y3874943D01*
X3766677D01*
X3750016Y3858282D01*
Y3824959D01*
X3766677Y3808298D01*
X3849984Y3708330D02*
Y3774975D01*
X3800000D01*
X3816661Y3741653D01*
Y3724992D01*
X3800000Y3708330D01*
X3766677D01*
X3750016Y3724992D01*
Y3758314D01*
X3766677Y3774975D01*
X3750016Y3675008D02*
Y3641685D01*
Y3658346D01*
X3849984D01*
X3833322Y3675008D01*
X3750016Y3525056D02*
Y3591701D01*
X3816661Y3525056D01*
X3833322D01*
X3849984Y3541717D01*
Y3575040D01*
X3833322Y3591701D01*
X2633355Y7099984D02*
Y7000016D01*
X2683339D01*
X2700000Y7016678D01*
Y7083323D01*
X2683339Y7099984D01*
X2633355D01*
X2733323Y7000016D02*
X2766645D01*
X2749984D01*
Y7099984D01*
X2733323Y7083323D01*
X4908347Y7499984D02*
X4875024D01*
X4891686D01*
Y7416678D01*
X4875024Y7400016D01*
X4858363D01*
X4841702Y7416678D01*
X4941670Y7400016D02*
X4974992D01*
X4958331D01*
Y7499984D01*
X4941670Y7483323D01*
X5024976Y7400016D02*
X5058298D01*
X5041637D01*
Y7499984D01*
X5024976Y7483323D01*
X1150016Y2649984D02*
X1116693D01*
X1133355D01*
Y2566677D01*
X1116693Y2550016D01*
X1100032D01*
X1083371Y2566677D01*
X1249984Y2550016D02*
X1183339D01*
X1249984Y2616661D01*
Y2633322D01*
X1233323Y2649984D01*
X1200000D01*
X1183339Y2633322D01*
X1283307Y2550016D02*
X1316629D01*
X1299968D01*
Y2649984D01*
X1283307Y2633322D01*
X93925Y3068408D02*
X60602D01*
X77264D01*
Y2985101D01*
X60602Y2968440D01*
X43941D01*
X27280Y2985101D01*
X193893Y2968440D02*
X127248D01*
X193893Y3035085D01*
Y3051746D01*
X177232Y3068408D01*
X143909D01*
X127248Y3051746D01*
X227215D02*
X243877Y3068408D01*
X277199D01*
X293860Y3051746D01*
Y3035085D01*
X277199Y3018424D01*
X260538D01*
X277199D01*
X293860Y3001763D01*
Y2985101D01*
X277199Y2968440D01*
X243877D01*
X227215Y2985101D01*
X799984Y1316645D02*
Y1349968D01*
Y1333306D01*
X716677D01*
X700016Y1349968D01*
Y1366629D01*
X716677Y1383290D01*
X700016Y1216677D02*
Y1283322D01*
X766661Y1216677D01*
X783322D01*
X799984Y1233338D01*
Y1266661D01*
X783322Y1283322D01*
X700016Y1133371D02*
X799984D01*
X750000Y1183355D01*
Y1116709D01*
X799984Y1666645D02*
Y1699968D01*
Y1683307D01*
X716678D01*
X700016Y1699968D01*
Y1716629D01*
X716678Y1733290D01*
X700016Y1566678D02*
Y1633323D01*
X766661Y1566678D01*
X783323D01*
X799984Y1583339D01*
Y1616661D01*
X783323Y1633323D01*
X799984Y1466710D02*
Y1533355D01*
X750000D01*
X766661Y1500032D01*
Y1483371D01*
X750000Y1466710D01*
X716678D01*
X700016Y1483371D01*
Y1516693D01*
X716678Y1533355D01*
X1871925Y452208D02*
X1838602D01*
X1855264D01*
Y368901D01*
X1838602Y352240D01*
X1821941D01*
X1805280Y368901D01*
X1905248Y435547D02*
X1921909Y452208D01*
X1955232D01*
X1971893Y435547D01*
Y418885D01*
X1955232Y402224D01*
X1938570D01*
X1955232D01*
X1971893Y385563D01*
Y368901D01*
X1955232Y352240D01*
X1921909D01*
X1905248Y368901D01*
X2005215Y435547D02*
X2021877Y452208D01*
X2055199D01*
X2071860Y435547D01*
Y418885D01*
X2055199Y402224D01*
X2038538D01*
X2055199D01*
X2071860Y385563D01*
Y368901D01*
X2055199Y352240D01*
X2021877D01*
X2005215Y368901D01*
X2900016Y7016678D02*
Y7083323D01*
X2883355Y7099984D01*
X2850032D01*
X2833371Y7083323D01*
Y7016678D01*
X2850032Y7000016D01*
X2883355D01*
X2866694Y7033339D02*
X2900016Y7000016D01*
X2883355D02*
X2900016Y7016678D01*
X2983323Y7000016D02*
Y7099984D01*
X2933339Y7050000D01*
X2999984D01*
X3033307Y7000016D02*
X3066629D01*
X3049968D01*
Y7099984D01*
X3033307Y7083323D01*
X3137355Y7461677D02*
Y7528323D01*
X3120694Y7544984D01*
X3087371D01*
X3070710Y7528323D01*
Y7461677D01*
X3087371Y7445016D01*
X3120694D01*
X3104032Y7478339D02*
X3137355Y7445016D01*
X3120694D02*
X3137355Y7461677D01*
X3220661Y7445016D02*
Y7544984D01*
X3170677Y7495000D01*
X3237322D01*
X3337290Y7445016D02*
X3270645D01*
X3337290Y7511661D01*
Y7528323D01*
X3320629Y7544984D01*
X3287307D01*
X3270645Y7528323D01*
X1050016Y3916677D02*
Y3983322D01*
X1033355Y3999984D01*
X1000033D01*
X983371Y3983322D01*
Y3916677D01*
X1000033Y3900016D01*
X1033355D01*
X1016694Y3933339D02*
X1050016Y3900016D01*
X1033355D02*
X1050016Y3916677D01*
X1149984Y3999984D02*
X1083339D01*
Y3950000D01*
X1116661Y3966661D01*
X1133323D01*
X1149984Y3950000D01*
Y3916677D01*
X1133323Y3900016D01*
X1100000D01*
X1083339Y3916677D01*
X1183307Y3900016D02*
X1216629D01*
X1199968D01*
Y3999984D01*
X1183307Y3983322D01*
X683355Y5116678D02*
Y5183323D01*
X666694Y5199984D01*
X633371D01*
X616710Y5183323D01*
Y5116678D01*
X633371Y5100016D01*
X666694D01*
X650032Y5133339D02*
X683355Y5100016D01*
X666694D02*
X683355Y5116678D01*
X783323Y5199984D02*
X716678D01*
Y5150000D01*
X750000Y5166661D01*
X766661D01*
X783323Y5150000D01*
Y5116678D01*
X766661Y5100016D01*
X733339D01*
X716678Y5116678D01*
X816645Y5183323D02*
X833307Y5199984D01*
X866629D01*
X883290Y5183323D01*
Y5166661D01*
X866629Y5150000D01*
X849968D01*
X866629D01*
X883290Y5133339D01*
Y5116678D01*
X866629Y5100016D01*
X833307D01*
X816645Y5116678D01*
X2733355D02*
Y5183323D01*
X2716694Y5199984D01*
X2683371D01*
X2666710Y5183323D01*
Y5116678D01*
X2683371Y5100016D01*
X2716694D01*
X2700032Y5133339D02*
X2733355Y5100016D01*
X2716694D02*
X2733355Y5116678D01*
X2833323Y5199984D02*
X2766677D01*
Y5150000D01*
X2800000Y5166661D01*
X2816661D01*
X2833323Y5150000D01*
Y5116678D01*
X2816661Y5100016D01*
X2783339D01*
X2766677Y5116678D01*
X2916629Y5100016D02*
Y5199984D01*
X2866645Y5150000D01*
X2933290D01*
X1833355Y5066677D02*
Y5133322D01*
X1816694Y5149984D01*
X1783371D01*
X1766710Y5133322D01*
Y5066677D01*
X1783371Y5050016D01*
X1816694D01*
X1800032Y5083339D02*
X1833355Y5050016D01*
X1816694D02*
X1833355Y5066677D01*
X1933323Y5149984D02*
X1866677D01*
Y5100000D01*
X1900000Y5116661D01*
X1916661D01*
X1933323Y5100000D01*
Y5066677D01*
X1916661Y5050016D01*
X1883339D01*
X1866677Y5066677D01*
X2033290Y5149984D02*
X1966645D01*
Y5100000D01*
X1999968Y5116661D01*
X2016629D01*
X2033290Y5100000D01*
Y5066677D01*
X2016629Y5050016D01*
X1983307D01*
X1966645Y5066677D01*
X2533323Y5449984D02*
X2549984Y5466645D01*
Y5499967D01*
X2533323Y5516629D01*
X2466678D01*
X2450016Y5499967D01*
Y5466645D01*
X2466678Y5449984D01*
X2533323Y5416661D02*
X2549984Y5400000D01*
Y5366677D01*
X2533323Y5350016D01*
X2516661D01*
X2500000Y5366677D01*
Y5383338D01*
Y5366677D01*
X2483339Y5350016D01*
X2466678D01*
X2450016Y5366677D01*
Y5400000D01*
X2466678Y5416661D01*
X2450016Y5316693D02*
Y5283371D01*
Y5300032D01*
X2549984D01*
X2533323Y5316693D01*
X2533322Y6216645D02*
X2549984Y6233306D01*
Y6266629D01*
X2533322Y6283290D01*
X2466677D01*
X2450016Y6266629D01*
Y6233306D01*
X2466677Y6216645D01*
X2533322Y6183322D02*
X2549984Y6166661D01*
Y6133338D01*
X2533322Y6116677D01*
X2516661D01*
X2500000Y6133338D01*
Y6150000D01*
Y6133338D01*
X2483338Y6116677D01*
X2466677D01*
X2450016Y6133338D01*
Y6166661D01*
X2466677Y6183322D01*
X2533322Y6083354D02*
X2549984Y6066693D01*
Y6033370D01*
X2533322Y6016709D01*
X2516661D01*
X2500000Y6033370D01*
Y6050032D01*
Y6033370D01*
X2483338Y6016709D01*
X2466677D01*
X2450016Y6033370D01*
Y6066693D01*
X2466677Y6083354D01*
X3316710Y2199984D02*
Y2116678D01*
X3333371Y2100016D01*
X3366694D01*
X3383355Y2116678D01*
Y2199984D01*
X3483322Y2100016D02*
X3416677D01*
X3483322Y2166661D01*
Y2183323D01*
X3466661Y2199984D01*
X3433339D01*
X3416677Y2183323D01*
X3566629Y2100016D02*
Y2199984D01*
X3516645Y2150000D01*
X3583290D01*
X2366710Y2149984D02*
Y2066678D01*
X2383371Y2050016D01*
X2416694D01*
X2433355Y2066678D01*
Y2149984D01*
X2533323Y2050016D02*
X2466678D01*
X2533323Y2116661D01*
Y2133323D01*
X2516661Y2149984D01*
X2483339D01*
X2466678Y2133323D01*
X2633290Y2050016D02*
X2566645D01*
X2633290Y2116661D01*
Y2133323D01*
X2616629Y2149984D01*
X2583307D01*
X2566645Y2133323D01*
X2083355Y1833322D02*
X2066694Y1849984D01*
X2033371D01*
X2016710Y1833322D01*
Y1766677D01*
X2033371Y1750016D01*
X2066694D01*
X2083355Y1766677D01*
X2183323Y1750016D02*
X2116678D01*
X2183323Y1816661D01*
Y1833322D01*
X2166661Y1849984D01*
X2133339D01*
X2116678Y1833322D01*
X2283290Y1750016D02*
X2216645D01*
X2283290Y1816661D01*
Y1833322D01*
X2266629Y1849984D01*
X2233307D01*
X2216645Y1833322D01*
X1650016Y733323D02*
X1633355Y749984D01*
X1600032D01*
X1583371Y733323D01*
Y666678D01*
X1600032Y650016D01*
X1633355D01*
X1650016Y666678D01*
X1749984Y650016D02*
X1683339D01*
X1749984Y716661D01*
Y733323D01*
X1733323Y749984D01*
X1700000D01*
X1683339Y733323D01*
X1783307Y650016D02*
X1816629D01*
X1799968D01*
Y749984D01*
X1783307Y733323D01*
X1333355Y5999984D02*
X1300032D01*
X1316694D01*
Y5916678D01*
X1300032Y5900016D01*
X1283371D01*
X1266710Y5916678D01*
X1433323Y5999984D02*
X1366677D01*
Y5950000D01*
X1400000Y5966661D01*
X1416661D01*
X1433323Y5950000D01*
Y5916678D01*
X1416661Y5900016D01*
X1383339D01*
X1366677Y5916678D01*
X1466645Y5983323D02*
X1483307Y5999984D01*
X1516629D01*
X1533290Y5983323D01*
Y5966661D01*
X1516629Y5950000D01*
X1499968D01*
X1516629D01*
X1533290Y5933339D01*
Y5916678D01*
X1516629Y5900016D01*
X1483307D01*
X1466645Y5916678D01*
X3233355Y1999984D02*
X3200032D01*
X3216694D01*
Y1916677D01*
X3200032Y1900016D01*
X3183371D01*
X3166710Y1916677D01*
X3333323Y1999984D02*
X3266677D01*
Y1950000D01*
X3300000Y1966661D01*
X3316661D01*
X3333323Y1950000D01*
Y1916677D01*
X3316661Y1900016D01*
X3283339D01*
X3266677Y1916677D01*
X3416629Y1900016D02*
Y1999984D01*
X3366645Y1950000D01*
X3433290D01*
X2299984Y3416645D02*
Y3449967D01*
Y3433306D01*
X2216677D01*
X2200016Y3449967D01*
Y3466629D01*
X2216677Y3483290D01*
X2299984Y3316677D02*
Y3383322D01*
X2250000D01*
X2266661Y3350000D01*
Y3333338D01*
X2250000Y3316677D01*
X2216677D01*
X2200016Y3333338D01*
Y3366661D01*
X2216677Y3383322D01*
X2200016Y3216709D02*
Y3283354D01*
X2266661Y3216709D01*
X2283322D01*
X2299984Y3233370D01*
Y3266693D01*
X2283322Y3283354D01*
X1200032Y6333323D02*
X1183371Y6349984D01*
X1150048D01*
X1133387Y6333323D01*
Y6266678D01*
X1150048Y6250016D01*
X1183371D01*
X1200032Y6266678D01*
X1300000Y6349984D02*
X1266677Y6333323D01*
X1233355Y6300000D01*
Y6266678D01*
X1250016Y6250016D01*
X1283339D01*
X1300000Y6266678D01*
Y6283339D01*
X1283339Y6300000D01*
X1233355D01*
X1399968Y6250016D02*
X1333323D01*
X1399968Y6316661D01*
Y6333323D01*
X1383307Y6349984D01*
X1349984D01*
X1333323Y6333323D01*
X1433291Y6250016D02*
X1466613D01*
X1449952D01*
Y6349984D01*
X1433291Y6333323D01*
X3283355Y783323D02*
X3266693Y799984D01*
X3233371D01*
X3216710Y783323D01*
Y716678D01*
X3233371Y700016D01*
X3266693D01*
X3283355Y716678D01*
X3383322Y700016D02*
X3316677D01*
X3383322Y766661D01*
Y783323D01*
X3366661Y799984D01*
X3333339D01*
X3316677Y783323D01*
X3416645D02*
X3433307Y799984D01*
X3466629D01*
X3483290Y783323D01*
Y766661D01*
X3466629Y750000D01*
X3449968D01*
X3466629D01*
X3483290Y733339D01*
Y716678D01*
X3466629Y700016D01*
X3433307D01*
X3416645Y716678D01*
X4799645Y6684288D02*
X4766322D01*
X4782984D01*
Y6600981D01*
X4766322Y6584320D01*
X4749661D01*
X4733000Y6600981D01*
X4832968Y6584320D02*
X4866290D01*
X4849629D01*
Y6684288D01*
X4832968Y6667626D01*
X4966258Y6584320D02*
Y6684288D01*
X4916274Y6634304D01*
X4982919D01*
X4799645Y4383048D02*
X4766322D01*
X4782984D01*
Y4299741D01*
X4766322Y4283080D01*
X4749661D01*
X4733000Y4299741D01*
X4899613Y4283080D02*
X4832968D01*
X4899613Y4349725D01*
Y4366386D01*
X4882952Y4383048D01*
X4849629D01*
X4832968Y4366386D01*
X4999581Y4383048D02*
X4966258Y4366386D01*
X4932936Y4333064D01*
Y4299741D01*
X4949597Y4283080D01*
X4982919D01*
X4999581Y4299741D01*
Y4316403D01*
X4982919Y4333064D01*
X4932936D01*
X5081645Y364968D02*
X5048322D01*
X5064984D01*
Y281661D01*
X5048322Y265000D01*
X5031661D01*
X5015000Y281661D01*
X5181612Y348306D02*
X5164951Y364968D01*
X5131629D01*
X5114967Y348306D01*
Y281661D01*
X5131629Y265000D01*
X5164951D01*
X5181612Y281661D01*
X5081645Y2664967D02*
X5048322D01*
X5064984D01*
Y2581661D01*
X5048322Y2565000D01*
X5031661D01*
X5015000Y2581661D01*
X5114967Y2664967D02*
Y2565000D01*
X5164951D01*
X5181612Y2581661D01*
Y2648306D01*
X5164951Y2664967D01*
X5114967D01*
X5081645Y4964967D02*
X5048322D01*
X5064984D01*
Y4881661D01*
X5048322Y4865000D01*
X5031661D01*
X5015000Y4881661D01*
X5181612Y4964967D02*
X5114967D01*
Y4865000D01*
X5181612D01*
X5114967Y4914984D02*
X5148290D01*
X3765000Y7915000D02*
Y7981645D01*
X3798322Y8014967D01*
X3831645Y7981645D01*
Y7915000D01*
Y7964984D01*
X3765000D01*
X3864968Y8014967D02*
Y7915000D01*
X3931613D01*
X3964935Y8014967D02*
X3998258D01*
X3981597D01*
Y7915000D01*
X3964935D01*
X3998258D01*
X4048242D02*
Y8014967D01*
X4081564Y7981645D01*
X4114887Y8014967D01*
Y7915000D01*
X4248177Y8014967D02*
Y7915000D01*
Y7964984D01*
X4314822D01*
Y8014967D01*
Y7915000D01*
X4398129Y8014967D02*
X4364807D01*
X4348145Y7998306D01*
Y7931661D01*
X4364807Y7915000D01*
X4398129D01*
X4414790Y7931661D01*
Y7998306D01*
X4398129Y8014967D01*
X4448113D02*
Y7915000D01*
X4514758D01*
X4598065Y8014967D02*
X4564742D01*
X4548081Y7998306D01*
Y7931661D01*
X4564742Y7915000D01*
X4598065D01*
X4614726Y7931661D01*
Y7998306D01*
X4598065Y8014967D01*
D66*
X4250000Y1950000D02*
Y1983856D01*
Y1966928D01*
X4148433D01*
X4165360Y1950000D01*
X4250000Y2102351D02*
Y2034639D01*
X4182289Y2102351D01*
X4165360D01*
X4148433Y2085423D01*
Y2051567D01*
X4165360Y2034639D01*
X3898433Y2067711D02*
X3915360Y2033855D01*
X3949216Y2000000D01*
X3983072D01*
X4000000Y2016928D01*
Y2050783D01*
X3983072Y2067711D01*
X3966144D01*
X3949216Y2050783D01*
Y2000000D01*
X4148433Y350000D02*
Y417711D01*
X4165360D01*
X4233072Y350000D01*
X4250000D01*
X4050000D02*
Y383855D01*
Y366928D01*
X3948433D01*
X3965360Y350000D01*
X4250000Y6550000D02*
Y6583856D01*
Y6566928D01*
X4148433D01*
X4165360Y6550000D01*
X4250000Y6702351D02*
Y6634640D01*
X4182289Y6702351D01*
X4165360D01*
X4148433Y6685423D01*
Y6651567D01*
X4165360Y6634640D01*
X3898433Y6667711D02*
X3915360Y6633856D01*
X3949216Y6600000D01*
X3983072D01*
X4000000Y6616928D01*
Y6650783D01*
X3983072Y6667711D01*
X3966144D01*
X3949216Y6650783D01*
Y6600000D01*
X4148433Y4950000D02*
Y5017711D01*
X4165360D01*
X4233072Y4950000D01*
X4250000D01*
X4050000D02*
Y4983856D01*
Y4966928D01*
X3948433D01*
X3965360Y4950000D01*
X4250000Y4250000D02*
Y4283856D01*
Y4266928D01*
X4148433D01*
X4165360Y4250000D01*
X4250000Y4402351D02*
Y4334639D01*
X4182289Y4402351D01*
X4165360D01*
X4148433Y4385423D01*
Y4351567D01*
X4165360Y4334639D01*
X3898433Y4367711D02*
X3915360Y4333856D01*
X3949216Y4300000D01*
X3983072D01*
X4000000Y4316928D01*
Y4350784D01*
X3983072Y4367711D01*
X3966144D01*
X3949216Y4350784D01*
Y4300000D01*
X4148433Y2650000D02*
Y2717711D01*
X4165360D01*
X4233072Y2650000D01*
X4250000D01*
X4050000D02*
Y2683856D01*
Y2666928D01*
X3948433D01*
X3965360Y2650000D01*
%TF.MD5,20c971ecd83d9503623a530490e731aa*%
M02*
