%TF.GenerationSoftware,Altium Limited,Altium Designer,21.2.1 (34)*%
G04 Layer_Color=8388736*
%FSLAX45Y45*%
%MOMM*%
%TF.SameCoordinates,1A5297F3-7C59-4284-9812-4E6276DD2B67*%
%TF.FilePolarity,Negative*%
%TF.FileFunction,Soldermask,Top*%
%TF.Part,Single*%
G01*
G75*
%TA.AperFunction,SMDPad,CuDef*%
G04:AMPARAMS|DCode=16|XSize=1.95543mm|YSize=0.42077mm|CornerRadius=0.21038mm|HoleSize=0mm|Usage=FLASHONLY|Rotation=180.000|XOffset=0mm|YOffset=0mm|HoleType=Round|Shape=RoundedRectangle|*
%AMROUNDEDRECTD16*
21,1,1.95543,0.00000,0,0,180.0*
21,1,1.53467,0.42077,0,0,180.0*
1,1,0.42077,-0.76733,0.00000*
1,1,0.42077,0.76733,0.00000*
1,1,0.42077,0.76733,0.00000*
1,1,0.42077,-0.76733,0.00000*
%
%ADD16ROUNDEDRECTD16*%
%ADD17R,1.95543X0.42077*%
%ADD18R,0.80000X0.80000*%
%ADD19R,1.25814X1.46213*%
%ADD20R,1.46213X1.25814*%
%ADD21R,1.80524X0.61213*%
G04:AMPARAMS|DCode=22|XSize=1.80524mm|YSize=0.61213mm|CornerRadius=0.30606mm|HoleSize=0mm|Usage=FLASHONLY|Rotation=180.000|XOffset=0mm|YOffset=0mm|HoleType=Round|Shape=RoundedRectangle|*
%AMROUNDEDRECTD22*
21,1,1.80524,0.00000,0,0,180.0*
21,1,1.19311,0.61213,0,0,180.0*
1,1,0.61213,-0.59655,0.00000*
1,1,0.61213,0.59655,0.00000*
1,1,0.61213,0.59655,0.00000*
1,1,0.61213,-0.59655,0.00000*
%
%ADD22ROUNDEDRECTD22*%
%ADD23R,1.05822X1.20651*%
%ADD24R,1.20651X1.05822*%
%ADD25R,1.55550X1.85822*%
%TA.AperFunction,ConnectorPad*%
%ADD29R,1.46213X1.25814*%
%TA.AperFunction,ComponentPad*%
%ADD40R,1.57000X1.57000*%
%ADD41C,1.57000*%
%ADD44R,1.57000X1.57000*%
%ADD47C,1.25320*%
%ADD48R,1.25320X1.25320*%
%ADD49R,2.20320X1.80320*%
%ADD50O,2.20320X1.80320*%
%ADD51O,1.80320X2.20320*%
%ADD52R,1.80320X2.20320*%
%ADD53O,4.20320X2.20320*%
%ADD54O,2.20320X4.20320*%
%ADD55R,1.85320X1.85320*%
%ADD56C,1.85320*%
%TA.AperFunction,ViaPad*%
%ADD57C,5.20320*%
%ADD58C,1.20320*%
%TA.AperFunction,SMDPad,CuDef*%
%ADD67R,0.60320X0.86320*%
%ADD68O,1.20320X0.90320*%
G04:AMPARAMS|DCode=69|XSize=1.4632mm|YSize=0.7932mm|CornerRadius=0.17535mm|HoleSize=0mm|Usage=FLASHONLY|Rotation=180.000|XOffset=0mm|YOffset=0mm|HoleType=Round|Shape=RoundedRectangle|*
%AMROUNDEDRECTD69*
21,1,1.46320,0.44250,0,0,180.0*
21,1,1.11250,0.79320,0,0,180.0*
1,1,0.35070,-0.55625,0.22125*
1,1,0.35070,0.55625,0.22125*
1,1,0.35070,0.55625,-0.22125*
1,1,0.35070,-0.55625,-0.22125*
%
%ADD69ROUNDEDRECTD69*%
%ADD70R,1.30320X0.85320*%
%ADD71R,3.00320X3.70320*%
%ADD72R,0.92720X0.76220*%
%ADD73R,1.97320X1.41320*%
%ADD74R,1.20320X1.25320*%
%ADD75R,1.25320X1.20320*%
D16*
X2012462Y922500D02*
D03*
Y987500D02*
D03*
Y1052500D02*
D03*
Y1117500D02*
D03*
Y1182500D02*
D03*
Y1247500D02*
D03*
Y1312500D02*
D03*
Y1377500D02*
D03*
X2587539D02*
D03*
Y1312500D02*
D03*
Y1247500D02*
D03*
Y1182500D02*
D03*
Y1117500D02*
D03*
Y1052500D02*
D03*
Y987500D02*
D03*
X2587538Y2287500D02*
D03*
Y2352500D02*
D03*
Y2417500D02*
D03*
Y2482500D02*
D03*
Y2547500D02*
D03*
Y2612500D02*
D03*
Y2677500D02*
D03*
X2012462D02*
D03*
Y2612500D02*
D03*
Y2547500D02*
D03*
Y2482500D02*
D03*
Y2417500D02*
D03*
Y2352500D02*
D03*
Y2287500D02*
D03*
Y2222500D02*
D03*
D17*
X2587539Y922500D02*
D03*
X2587538Y2222500D02*
D03*
D18*
X1875000Y7350000D02*
D03*
X1725000D02*
D03*
X2725000Y7250000D02*
D03*
X2875000D02*
D03*
Y6450000D02*
D03*
X2725000D02*
D03*
X2875000Y6850000D02*
D03*
X2725000D02*
D03*
D19*
X495399Y6700000D02*
D03*
X300000D02*
D03*
X1597699Y4000000D02*
D03*
X1402301D02*
D03*
X1597699Y4250000D02*
D03*
X1402301D02*
D03*
X3647699Y4000000D02*
D03*
X3452301D02*
D03*
X3645199Y4250000D02*
D03*
X3449800D02*
D03*
X2547699Y6850000D02*
D03*
X2352301D02*
D03*
X2547699Y7250000D02*
D03*
X2352301D02*
D03*
X2547699Y6450000D02*
D03*
X2352301D02*
D03*
X502300Y4000000D02*
D03*
X697699D02*
D03*
X502300Y4250000D02*
D03*
X697699D02*
D03*
X2502301Y4000000D02*
D03*
X2697699D02*
D03*
X2502301Y4250000D02*
D03*
X2697699D02*
D03*
X302301Y7000000D02*
D03*
X497699D02*
D03*
X1750199Y7100000D02*
D03*
X1554801D02*
D03*
X2752301Y1800000D02*
D03*
X2947699D02*
D03*
X2752301Y2050000D02*
D03*
X2947699D02*
D03*
X4247699Y7500000D02*
D03*
X4052301D02*
D03*
X4247699Y7750000D02*
D03*
X4052301D02*
D03*
X2752301Y1550000D02*
D03*
X2947699D02*
D03*
D20*
X3150000Y5302301D02*
D03*
Y5497699D02*
D03*
X3750000Y4502301D02*
D03*
Y4697700D02*
D03*
X3250000D02*
D03*
Y4502301D02*
D03*
X3300000Y3300200D02*
D03*
Y3104801D02*
D03*
X3600000Y3102301D02*
D03*
Y3297700D02*
D03*
X3300000Y3552301D02*
D03*
Y3747700D02*
D03*
X900000Y4697700D02*
D03*
Y4502301D02*
D03*
X850000Y3297700D02*
D03*
Y3102301D02*
D03*
X550000D02*
D03*
Y3297700D02*
D03*
X850000Y3552301D02*
D03*
Y3747699D02*
D03*
X2200000Y4507301D02*
D03*
Y4702700D02*
D03*
X2950000Y4700200D02*
D03*
Y4504802D02*
D03*
X2900000Y3297700D02*
D03*
Y3102301D02*
D03*
X2600000D02*
D03*
Y3297700D02*
D03*
X2900000Y3552301D02*
D03*
Y3747700D02*
D03*
X1700000Y4502301D02*
D03*
Y4697700D02*
D03*
X1200000D02*
D03*
Y4502301D02*
D03*
X1250000Y3297700D02*
D03*
Y3102301D02*
D03*
X1550000D02*
D03*
Y3297700D02*
D03*
X1250000Y3552301D02*
D03*
Y3747699D02*
D03*
X2750000Y5304801D02*
D03*
Y5500200D02*
D03*
X3300000Y1697699D02*
D03*
Y1502301D02*
D03*
X3500000Y2349800D02*
D03*
Y2545199D02*
D03*
X3550000Y6052301D02*
D03*
Y6247699D02*
D03*
D21*
X3215048Y1005000D02*
D03*
X2934952Y2445000D02*
D03*
D22*
X3215048Y1100000D02*
D03*
Y1195000D02*
D03*
X2984952D02*
D03*
Y1005000D02*
D03*
X2934952Y2350000D02*
D03*
Y2255000D02*
D03*
X3165048D02*
D03*
Y2445000D02*
D03*
D23*
X2750000Y5769915D02*
D03*
Y5935086D02*
D03*
X650000Y4517414D02*
D03*
Y4682586D02*
D03*
X400000Y4517414D02*
D03*
Y4682586D02*
D03*
X550000Y3567414D02*
D03*
Y3732586D02*
D03*
X2700000Y4522415D02*
D03*
Y4687587D02*
D03*
X2450000Y4522415D02*
D03*
Y4687587D02*
D03*
X2600000Y3567415D02*
D03*
Y3732586D02*
D03*
X1450000Y4517414D02*
D03*
Y4682586D02*
D03*
X1950000Y4517414D02*
D03*
Y4682586D02*
D03*
X1500000Y3567414D02*
D03*
Y3732586D02*
D03*
X3500000Y4517415D02*
D03*
Y4682587D02*
D03*
X4000000Y4517415D02*
D03*
Y4682587D02*
D03*
X3600000Y3567415D02*
D03*
Y3732586D02*
D03*
X2500000Y5619914D02*
D03*
Y5785086D02*
D03*
X3000000Y5769915D02*
D03*
Y5935086D02*
D03*
D24*
X334828Y6450000D02*
D03*
X500000D02*
D03*
X3100000Y2800000D02*
D03*
X2934828D02*
D03*
X1683414Y5750000D02*
D03*
X1848586D02*
D03*
X1683414Y5500000D02*
D03*
X1848586D02*
D03*
X1967414Y2000000D02*
D03*
X2132586D02*
D03*
X2132586Y700000D02*
D03*
X1967415D02*
D03*
X2950000Y750000D02*
D03*
X3115172D02*
D03*
D25*
X1040272Y6900000D02*
D03*
X750000D02*
D03*
D29*
X150000Y4502301D02*
D03*
Y4697700D02*
D03*
D40*
X477000Y5400000D02*
D03*
D41*
X223000D02*
D03*
X1750000Y6046000D02*
D03*
X3600000Y1496000D02*
D03*
X2000000Y3454000D02*
D03*
D44*
X1750000Y6300000D02*
D03*
X3600000Y1750000D02*
D03*
X2000000Y3200000D02*
D03*
D47*
X4935000Y7127000D02*
D03*
Y7000000D02*
D03*
X4808000Y7127000D02*
D03*
Y7000000D02*
D03*
X4681000Y7127000D02*
D03*
Y7000000D02*
D03*
X4554000Y7127000D02*
D03*
Y7000000D02*
D03*
X4427000Y7127000D02*
D03*
X4300000D02*
D03*
Y7000000D02*
D03*
X4173000Y7127000D02*
D03*
Y7000000D02*
D03*
X4046000Y7127000D02*
D03*
Y7000000D02*
D03*
X3919000Y7127000D02*
D03*
Y7000000D02*
D03*
X3792000Y7127000D02*
D03*
X4427000Y7000000D02*
D03*
X2265000Y7823000D02*
D03*
Y7950000D02*
D03*
X2392000Y7823000D02*
D03*
Y7950000D02*
D03*
X2519000Y7823000D02*
D03*
Y7950000D02*
D03*
X2646000Y7823000D02*
D03*
Y7950000D02*
D03*
X2773000Y7823000D02*
D03*
X2900000D02*
D03*
Y7950000D02*
D03*
X3027000Y7823000D02*
D03*
Y7950000D02*
D03*
X3154000Y7823000D02*
D03*
Y7950000D02*
D03*
X3281000Y7823000D02*
D03*
Y7950000D02*
D03*
X3408000Y7823000D02*
D03*
X2773000Y7950000D02*
D03*
D48*
X3792000Y7000000D02*
D03*
X3408000Y7950000D02*
D03*
D49*
X2100000Y5484000D02*
D03*
X500000Y2708000D02*
D03*
X850000Y2712000D02*
D03*
X150000Y2704000D02*
D03*
X500000Y1554000D02*
D03*
X150000Y1562000D02*
D03*
D50*
X2100000Y5738000D02*
D03*
Y5992000D02*
D03*
Y6246000D02*
D03*
Y6500000D02*
D03*
Y6754000D02*
D03*
Y7008000D02*
D03*
X500000Y1946000D02*
D03*
Y2200000D02*
D03*
Y2454000D02*
D03*
X850000Y1950000D02*
D03*
Y2204000D02*
D03*
Y2458000D02*
D03*
X150000Y2450000D02*
D03*
Y2196000D02*
D03*
Y1942000D02*
D03*
X500000Y792000D02*
D03*
Y1046000D02*
D03*
Y1300000D02*
D03*
X150000Y800000D02*
D03*
Y1054000D02*
D03*
Y1308000D02*
D03*
D51*
X4458000Y150000D02*
D03*
X4204000D02*
D03*
X3950000D02*
D03*
X3696000D02*
D03*
X3442000D02*
D03*
X1500000Y250000D02*
D03*
X1300000D02*
D03*
X1100000D02*
D03*
X2242000Y150000D02*
D03*
X2496000D02*
D03*
X2750000D02*
D03*
D52*
X3188000D02*
D03*
X900000Y250000D02*
D03*
X1988000Y150000D02*
D03*
D53*
X1175000Y7270000D02*
D03*
D54*
X1455000Y7730000D02*
D03*
X845000D02*
D03*
D55*
X3973000Y565000D02*
D03*
Y5165000D02*
D03*
Y2865000D02*
D03*
D56*
Y819000D02*
D03*
X4227000Y565000D02*
D03*
Y819000D02*
D03*
X3973000Y1327000D02*
D03*
X4227000D02*
D03*
X3973000Y1835000D02*
D03*
X4227000D02*
D03*
Y1581000D02*
D03*
X3973000D02*
D03*
X4227000Y1073000D02*
D03*
X3973000D02*
D03*
Y5419000D02*
D03*
X4227000Y5165000D02*
D03*
Y5419000D02*
D03*
X3973000Y5927000D02*
D03*
X4227000D02*
D03*
X3973000Y6435000D02*
D03*
X4227000D02*
D03*
Y6181000D02*
D03*
X3973000D02*
D03*
X4227000Y5673000D02*
D03*
X3973000D02*
D03*
Y3119000D02*
D03*
X4227000Y2865000D02*
D03*
Y3119000D02*
D03*
X3973000Y3627000D02*
D03*
X4227000D02*
D03*
X3973000Y4135000D02*
D03*
X4227000D02*
D03*
Y3881000D02*
D03*
X3973000D02*
D03*
X4227000Y3373000D02*
D03*
X3973000D02*
D03*
D57*
X2050000Y3950000D02*
D03*
X400000Y350000D02*
D03*
X4550000Y4650000D02*
D03*
Y2350000D02*
D03*
D58*
X2350000Y5300000D02*
D03*
X2504627Y6000000D02*
D03*
X3100000Y1550000D02*
D03*
X2717141Y800000D02*
D03*
X2953174Y5603174D02*
D03*
X3400000Y5000000D02*
D03*
X1900000Y7500000D02*
D03*
X1300000Y7050000D02*
D03*
X2369360Y3122209D02*
D03*
X3150000Y2600000D02*
D03*
X3100000Y1800000D02*
D03*
Y2050000D02*
D03*
X2000000Y1650000D02*
D03*
X2200000Y1550000D02*
D03*
X1700000Y1650000D02*
D03*
Y1866128D02*
D03*
Y2050000D02*
D03*
Y2250000D02*
D03*
Y2450000D02*
D03*
Y2650000D02*
D03*
X2400000Y2850000D02*
D03*
X2200000D02*
D03*
X2000000D02*
D03*
X2400000Y1500000D02*
D03*
X1750000Y850000D02*
D03*
X2450000Y6650000D02*
D03*
X3100000Y3800001D02*
D03*
X1350000Y5100000D02*
D03*
X1100000Y6650000D02*
D03*
X650000Y7150000D02*
D03*
X1200000Y6450000D02*
D03*
X100000Y6700000D02*
D03*
X150000Y5950000D02*
D03*
X3450000Y6950000D02*
D03*
X2300000Y700000D02*
D03*
X2850000Y1400000D02*
D03*
X2300000Y2000000D02*
D03*
X2950000Y5300000D02*
D03*
X3450000Y7350000D02*
D03*
X3100000Y3300000D02*
D03*
X3900000Y4900000D02*
D03*
X3100000Y4700000D02*
D03*
X2300000Y4900001D02*
D03*
X3250000Y4350001D02*
D03*
X1208708Y4356207D02*
D03*
X1058708Y3806207D02*
D03*
X1050000Y3300000D02*
D03*
X268083Y4904375D02*
D03*
X1050000Y4700000D02*
D03*
X1750000Y3200000D02*
D03*
X3450000Y6550000D02*
D03*
D67*
X985000Y4058000D02*
D03*
X1050000D02*
D03*
X1115000D02*
D03*
Y4242000D02*
D03*
X1050000D02*
D03*
X985000D02*
D03*
X3035000Y4242001D02*
D03*
X3100000D02*
D03*
X3165000D02*
D03*
Y4058001D02*
D03*
X3100000D02*
D03*
X3035000D02*
D03*
D68*
X740000Y6645000D02*
D03*
Y6550000D02*
D03*
Y6455000D02*
D03*
X960000D02*
D03*
Y6550000D02*
D03*
Y6645000D02*
D03*
D69*
X3296000Y6545000D02*
D03*
X3100000Y6450000D02*
D03*
X3296000Y6355000D02*
D03*
X3100000Y6850000D02*
D03*
X3296000Y6945000D02*
D03*
Y6755000D02*
D03*
X3300000Y7340000D02*
D03*
X3104000Y7245000D02*
D03*
X3300000Y7150000D02*
D03*
D70*
X3380000Y5797500D02*
D03*
Y5702500D02*
D03*
Y5607500D02*
D03*
X3620000D02*
D03*
Y5702500D02*
D03*
Y5797500D02*
D03*
D71*
X375000Y5950000D02*
D03*
X925000D02*
D03*
D72*
X3746800Y5095000D02*
D03*
X3550000Y5000001D02*
D03*
X3746800Y4905001D02*
D03*
X403200Y5095000D02*
D03*
X600000Y5000000D02*
D03*
X403200Y4905000D02*
D03*
X2449300Y5097501D02*
D03*
X2646100Y5002501D02*
D03*
X2449300Y4907501D02*
D03*
X1696800Y4905000D02*
D03*
X1500000Y5000000D02*
D03*
X1696800Y5095000D02*
D03*
D73*
X1550000Y6892800D02*
D03*
Y6607200D02*
D03*
X1300000Y6892800D02*
D03*
Y6607200D02*
D03*
D74*
X3200000Y5777500D02*
D03*
Y5927500D02*
D03*
D75*
X1841000Y5300000D02*
D03*
X1691000D02*
D03*
%TF.MD5,f10162d1697cf2c31c2ad3421994fb88*%
M02*
