%TF.GenerationSoftware,Altium Limited,Altium Designer,21.2.1 (34)*%
G04 Layer_Color=16711935*
%FSLAX26Y26*%
%MOIN*%
%TF.SameCoordinates,2E7F18B9-7671-40DC-A7DD-494BE6684AB2*%
%TF.FilePolarity,Negative*%
%TF.FileFunction,Soldermask,Bot*%
%TF.Part,Single*%
G01*
G75*
%TA.AperFunction,ComponentPad*%
%ADD31R,0.061811X0.061811*%
%ADD32C,0.061811*%
%ADD49R,0.084181X0.084181*%
%ADD50C,0.084181*%
%ADD51R,0.057213X0.057213*%
%ADD52C,0.057213*%
%ADD53C,0.244220*%
%ADD54C,0.061150*%
%ADD55C,0.114299*%
%ADD56R,0.114299X0.114299*%
%ADD57R,0.065843X0.065843*%
%ADD58C,0.065843*%
%ADD59C,0.046157*%
%ADD60R,0.074929X0.074929*%
%ADD61C,0.074929*%
%ADD62C,0.072961*%
%ADD63C,0.083000*%
%ADD64R,0.084378X0.084378*%
%ADD65C,0.084378*%
%ADD66C,0.070992*%
%ADD67O,0.067370X0.126740*%
%ADD68O,0.110992X0.059496*%
%ADD69C,0.126110*%
%TA.AperFunction,ViaPad*%
%ADD70C,0.058000*%
D31*
X205905Y1929134D02*
D03*
X424016Y1299213D02*
D03*
X769291Y925197D02*
D03*
D32*
X305906Y1929134D02*
D03*
X324016Y1299213D02*
D03*
X669291Y925197D02*
D03*
D49*
X1437008Y1633858D02*
D03*
Y452756D02*
D03*
D50*
X1537008Y1633858D02*
D03*
X1637008D02*
D03*
Y452756D02*
D03*
X1537008D02*
D03*
D51*
X1397637Y1807087D02*
D03*
X1456692Y665354D02*
D03*
D52*
X1397637Y1909449D02*
D03*
Y2011811D02*
D03*
X1456692Y870079D02*
D03*
Y767717D02*
D03*
D53*
X3614173Y1227362D02*
D03*
Y873032D02*
D03*
D54*
X2431102Y1240158D02*
D03*
Y846457D02*
D03*
X2667323Y1240158D02*
D03*
Y846457D02*
D03*
X2903543Y1240158D02*
D03*
Y846457D02*
D03*
X3139764Y1240158D02*
D03*
Y846457D02*
D03*
X3375984Y1240158D02*
D03*
Y846457D02*
D03*
D55*
X267716Y1043307D02*
D03*
X82677D02*
D03*
D56*
X452756D02*
D03*
D57*
X1102361Y1200787D02*
D03*
D58*
X1220472D02*
D03*
D59*
X1270865Y1162205D02*
D03*
D60*
X2127559Y492126D02*
D03*
X2127558Y1653543D02*
D03*
D61*
X2027559Y492126D02*
D03*
X1927559D02*
D03*
X2027558Y1653543D02*
D03*
X1927558D02*
D03*
D62*
X2322835Y708661D02*
D03*
X1968504D02*
D03*
X1948819Y1456693D02*
D03*
X2303150D02*
D03*
D63*
X3070865Y610236D02*
D03*
Y170236D02*
D03*
Y1476378D02*
D03*
Y1916378D02*
D03*
D64*
X687402Y1614173D02*
D03*
D65*
X787402D02*
D03*
X887402D02*
D03*
D66*
X275591Y283465D02*
D03*
D67*
X509842Y525591D02*
D03*
Y320866D02*
D03*
X41339D02*
D03*
Y525591D02*
D03*
D68*
X275591Y480315D02*
D03*
D69*
Y742126D02*
D03*
D70*
X196850Y1614173D02*
D03*
X2145669Y1161417D02*
D03*
Y1082677D02*
D03*
Y1003937D02*
D03*
X1466693D02*
D03*
Y1122047D02*
D03*
Y1240158D02*
D03*
Y1358268D02*
D03*
X1259842Y649606D02*
D03*
X1771653Y629921D02*
D03*
X1712598Y1850394D02*
D03*
Y1456693D02*
D03*
X1200787Y1830709D02*
D03*
%TF.MD5,99ba7c9c16cbb0c4cfaa709129a38bf0*%
M02*
