%TF.GenerationSoftware,Altium Limited,Altium Designer,21.2.1 (34)*%
G04 Layer_Physical_Order=1*
G04 Layer_Color=255*
%FSLAX26Y26*%
%MOIN*%
%TF.SameCoordinates,2E7F18B9-7671-40DC-A7DD-494BE6684AB2*%
%TF.FilePolarity,Positive*%
%TF.FileFunction,Copper,L1,Top,Signal*%
%TF.Part,Single*%
G01*
G75*
%TA.AperFunction,SMDPad,CuDef*%
%ADD10R,0.049533X0.057564*%
G04:AMPARAMS|DCode=11|XSize=49.606mil|YSize=23.228mil|CornerRadius=2.904mil|HoleSize=0mil|Usage=FLASHONLY|Rotation=90.000|XOffset=0mil|YOffset=0mil|HoleType=Round|Shape=RoundedRectangle|*
%AMROUNDEDRECTD11*
21,1,0.049606,0.017421,0,0,90.0*
21,1,0.043799,0.023228,0,0,90.0*
1,1,0.005807,0.008711,0.021900*
1,1,0.005807,0.008711,-0.021900*
1,1,0.005807,-0.008711,-0.021900*
1,1,0.005807,-0.008711,0.021900*
%
%ADD11ROUNDEDRECTD11*%
%ADD12R,0.047500X0.041662*%
G04:AMPARAMS|DCode=13|XSize=49.606mil|YSize=23.228mil|CornerRadius=2.904mil|HoleSize=0mil|Usage=FLASHONLY|Rotation=0.000|XOffset=0mil|YOffset=0mil|HoleType=Round|Shape=RoundedRectangle|*
%AMROUNDEDRECTD13*
21,1,0.049606,0.017421,0,0,0.0*
21,1,0.043799,0.023228,0,0,0.0*
1,1,0.005807,0.021900,-0.008711*
1,1,0.005807,-0.021900,-0.008711*
1,1,0.005807,-0.021900,0.008711*
1,1,0.005807,0.021900,0.008711*
%
%ADD13ROUNDEDRECTD13*%
%ADD14R,0.039764X0.110630*%
%ADD15R,0.041339X0.039370*%
%ADD16R,0.045276X0.128740*%
%ADD17R,0.053470X0.138039*%
%ADD18R,0.047244X0.047244*%
%ADD19R,0.057564X0.049533*%
%ADD20R,0.023622X0.037402*%
%TA.AperFunction,Conductor*%
%ADD21C,0.010000*%
%ADD22C,0.039370*%
%ADD23C,0.078740*%
%ADD24C,0.020000*%
%TA.AperFunction,ComponentPad*%
%ADD25R,0.076181X0.076181*%
%ADD26C,0.076181*%
%ADD27R,0.049213X0.049213*%
%ADD28C,0.049213*%
%ADD29C,0.236220*%
%ADD30C,0.053150*%
%ADD31R,0.061811X0.061811*%
%ADD32C,0.061811*%
%ADD33C,0.106299*%
%ADD34R,0.106299X0.106299*%
%ADD35R,0.059843X0.059843*%
%ADD36C,0.059843*%
%ADD37C,0.040157*%
%ADD38R,0.066929X0.066929*%
%ADD39C,0.066929*%
%ADD40C,0.064961*%
%ADD41C,0.075000*%
%ADD42R,0.076378X0.076378*%
%ADD43C,0.076378*%
%ADD44C,0.062992*%
%ADD45O,0.059370X0.118740*%
%ADD46O,0.102992X0.051496*%
%ADD47C,0.118110*%
%TA.AperFunction,ViaPad*%
%ADD48C,0.050000*%
G36*
X2706693Y1958661D02*
Y1722675D01*
X2703186Y1719168D01*
X2819554Y1594488D01*
X3740157Y1594488D01*
X3740157Y1270377D01*
X3735157Y1269585D01*
X3732898Y1276539D01*
X3723743Y1294507D01*
X3711890Y1310820D01*
X3697631Y1325079D01*
X3681318Y1336932D01*
X3663350Y1346086D01*
X3644172Y1352318D01*
X3629174Y1354694D01*
Y1227362D01*
Y1100031D01*
X3644172Y1102407D01*
X3663350Y1108638D01*
X3681318Y1117793D01*
X3697631Y1129645D01*
X3711890Y1143904D01*
X3723743Y1160218D01*
X3732898Y1178185D01*
X3735157Y1185139D01*
X3740157Y1184348D01*
Y1062992D01*
X3454724Y1062992D01*
X3415354Y1102362D01*
X2450787Y1102362D01*
X2372047Y1181103D01*
Y1624016D01*
X2273622Y1722441D01*
X2165354D01*
X2145304Y1702391D01*
X2140684Y1704304D01*
Y1774368D01*
X2156813D01*
Y1847680D01*
X2091532D01*
Y1774368D01*
X2114432D01*
Y1694882D01*
X2086220D01*
Y1643307D01*
X1938662Y1495749D01*
X1933243Y1494297D01*
X1924041Y1488984D01*
X1921277Y1486221D01*
X1892541D01*
X1890628Y1490840D01*
X2014132Y1614344D01*
X2022116Y1612205D01*
X2033001D01*
X2043514Y1615022D01*
X2052941Y1620464D01*
X2060637Y1628161D01*
X2066079Y1637587D01*
X2068897Y1648101D01*
Y1658986D01*
X2066079Y1669499D01*
X2060637Y1678926D01*
X2052941Y1686622D01*
X2043514Y1692065D01*
X2033001Y1694882D01*
X2022116D01*
X2011602Y1692065D01*
X2002176Y1686622D01*
X1994479Y1678926D01*
X1989037Y1669499D01*
X1986220Y1658986D01*
Y1648101D01*
X1988359Y1640117D01*
X1834462Y1486220D01*
X1727203Y1486220D01*
X1725287Y1487327D01*
X1716926Y1489567D01*
X1708271D01*
X1699909Y1487327D01*
X1697994Y1486220D01*
X1564960Y1486220D01*
X1509189Y1541992D01*
Y1587476D01*
X1513572Y1591859D01*
X1518446Y1589045D01*
X1522008Y1588091D01*
Y1633858D01*
Y1679626D01*
X1518446Y1678671D01*
X1507480Y1672340D01*
X1501063Y1665924D01*
X1496063Y1667995D01*
Y1719168D01*
X1544612Y1767717D01*
X1566928D01*
Y1790033D01*
X1603667Y1826772D01*
X1665353D01*
Y1837267D01*
X1682217D01*
X1686293Y1830209D01*
X1692413Y1824088D01*
X1699909Y1819760D01*
X1708271Y1817520D01*
X1716926D01*
X1725287Y1819760D01*
X1732784Y1824088D01*
X1738904Y1830209D01*
X1743232Y1837705D01*
X1745472Y1846066D01*
Y1854722D01*
X1743232Y1863083D01*
X1738904Y1870579D01*
X1732784Y1876699D01*
X1725287Y1881027D01*
X1716926Y1883268D01*
X1708271D01*
X1699909Y1881027D01*
X1692413Y1876699D01*
X1686293Y1870579D01*
X1682217Y1863520D01*
X1665353D01*
Y1888458D01*
X1883194Y2106299D01*
X2559055D01*
X2706693Y1958661D01*
D02*
G37*
G36*
X3740158Y916045D02*
X3735158Y915253D01*
X3732898Y922209D01*
X3723743Y940176D01*
X3711890Y956490D01*
X3697631Y970749D01*
X3681318Y982601D01*
X3663350Y991756D01*
X3644172Y997987D01*
X3629174Y1000363D01*
Y873032D01*
Y745700D01*
X3644172Y748076D01*
X3663350Y754307D01*
X3681318Y763462D01*
X3697631Y775314D01*
X3711890Y789573D01*
X3723743Y805887D01*
X3732898Y823854D01*
X3735157Y830810D01*
X3740158Y830018D01*
X3740157Y501969D01*
X2819554Y501969D01*
X2703186Y377289D01*
X2706693Y373782D01*
Y137795D01*
X2568898Y0D01*
X2144268D01*
D01*
X1811024Y-0D01*
X1456693Y354331D01*
Y406791D01*
X1482972D01*
Y498720D01*
X1456693D01*
Y511811D01*
X1555118Y610236D01*
X1742604Y610236D01*
X1743647Y608431D01*
X1750163Y601914D01*
X1758144Y597307D01*
X1766653Y595026D01*
Y629921D01*
X1776653D01*
Y595026D01*
X1785163Y597307D01*
X1793144Y601914D01*
X1799660Y608431D01*
X1800703Y610236D01*
X1883676Y610236D01*
X1988360Y505552D01*
X1986221Y497568D01*
Y486684D01*
X1989038Y476170D01*
X1994480Y466743D01*
X2002177Y459047D01*
X2011603Y453605D01*
X2022117Y450787D01*
X2033001D01*
X2043515Y453605D01*
X2052941Y459047D01*
X2060638Y466743D01*
X2062973Y470787D01*
X2067930Y471440D01*
X2086221Y453149D01*
Y450787D01*
X2088583D01*
X2112858Y426512D01*
Y351617D01*
X2093344D01*
Y278305D01*
X2158625D01*
Y351617D01*
X2139110D01*
Y393727D01*
X2143730Y395640D01*
X2165354Y374016D01*
X2273622D01*
X2372047Y472441D01*
X2372047Y925197D01*
X2440945Y994094D01*
X3425197Y994095D01*
X3464567Y1033465D01*
X3740158Y1033465D01*
Y916045D01*
D02*
G37*
G36*
X866142Y2106299D02*
X1201348Y1771093D01*
X1171820Y1741565D01*
X1168975Y1737307D01*
X1167975Y1732284D01*
Y1725554D01*
X1144446D01*
Y1660273D01*
X1217758D01*
Y1725554D01*
X1200006D01*
X1197935Y1730554D01*
X1219911Y1752530D01*
X1535433Y1437008D01*
Y905512D01*
X1493845Y863924D01*
X1490440Y865293D01*
X1489172Y866322D01*
Y874355D01*
X1486959Y882616D01*
X1482683Y890022D01*
X1476636Y896069D01*
X1469229Y900346D01*
X1460968Y902559D01*
X1452416D01*
X1444155Y900346D01*
X1436749Y896069D01*
X1430701Y890022D01*
X1426425Y882616D01*
X1425528Y879268D01*
X1318897D01*
X1313873Y878269D01*
X1309615Y875423D01*
X1273919Y839727D01*
X1223186D01*
Y774446D01*
X1283049D01*
X1284963Y769827D01*
X1277935Y762798D01*
X1223186D01*
Y697518D01*
X1246716D01*
Y679987D01*
X1239657Y675912D01*
X1233537Y669791D01*
X1229209Y662295D01*
X1226968Y653934D01*
Y645278D01*
X1229209Y636917D01*
X1233537Y629421D01*
X1239657Y623301D01*
X1247154Y618973D01*
X1255515Y616732D01*
X1260388D01*
X1262459Y611732D01*
X1230875Y580148D01*
X1228030Y575889D01*
X1227030Y570866D01*
Y542640D01*
X1203501D01*
Y477359D01*
X1276813D01*
Y542640D01*
X1253283D01*
Y565429D01*
X1294593Y606739D01*
X1299213Y604826D01*
X1299213Y374016D01*
X925197Y0D01*
X0D01*
X-0Y280358D01*
X4746Y281376D01*
X8531Y272240D01*
X14551Y264394D01*
X22397Y258373D01*
X31534Y254589D01*
X41339Y253298D01*
X51143Y254589D01*
X60280Y258373D01*
X68126Y264394D01*
X74146Y272240D01*
X77931Y281376D01*
X79222Y291181D01*
Y350551D01*
X77931Y360356D01*
X74146Y369493D01*
X68126Y377339D01*
X60280Y383359D01*
X51143Y387144D01*
X41339Y388434D01*
X31534Y387144D01*
X22397Y383359D01*
X14551Y377339D01*
X8531Y369493D01*
X4746Y360356D01*
X-0Y361374D01*
Y374016D01*
Y478938D01*
X5000Y479933D01*
X6674Y475892D01*
X13035Y467602D01*
X21325Y461241D01*
X30979Y457242D01*
X31338Y457195D01*
Y525591D01*
Y593987D01*
X30979Y593939D01*
X21325Y589940D01*
X13035Y583579D01*
X6674Y575289D01*
X5000Y571248D01*
X-0Y572243D01*
X0Y2106299D01*
X866142Y2106299D01*
D02*
G37*
G36*
X1430701Y850135D02*
X1436749Y844088D01*
X1444155Y839812D01*
X1452416Y837598D01*
X1460449D01*
X1461478Y836331D01*
X1462847Y832925D01*
X1410764Y780843D01*
X1301416D01*
X1300363Y780633D01*
X1296498Y783805D01*
Y825179D01*
X1324334Y853015D01*
X1429039D01*
X1430701Y850135D01*
D02*
G37*
G36*
X2224409Y1240158D02*
Y905512D01*
X2086614Y767716D01*
X1968504D01*
Y784146D01*
X1971296Y787990D01*
X1973504Y787990D01*
X2001063D01*
Y826771D01*
Y865554D01*
X1973504D01*
X1971296Y865554D01*
X1968504Y869397D01*
Y1298843D01*
X1973108Y1299801D01*
X1973504Y1299801D01*
X2002874D01*
Y1338583D01*
X2007874D01*
Y1343583D01*
X2042640D01*
X2042641Y1377365D01*
X2047397Y1377953D01*
X2086614D01*
X2224409Y1240158D01*
D02*
G37*
G36*
X1379892Y749971D02*
X1299213Y669291D01*
Y651782D01*
X1297716Y650775D01*
X1292716Y653437D01*
Y653934D01*
X1290476Y662295D01*
X1286148Y669791D01*
X1280028Y675912D01*
X1272969Y679987D01*
Y697518D01*
X1296498D01*
Y744235D01*
X1306853Y754590D01*
X1377979D01*
X1379892Y749971D01*
D02*
G37*
%LPC*%
G36*
X2082011Y1849806D02*
X2052244D01*
Y1816024D01*
X2082011D01*
Y1849806D01*
D02*
G37*
G36*
X2042244D02*
X2012478D01*
Y1816024D01*
X2042244D01*
Y1849806D01*
D02*
G37*
G36*
X2082011Y1806024D02*
X2052244D01*
Y1772242D01*
X2082011D01*
Y1806024D01*
D02*
G37*
G36*
X2042244D02*
X2012478D01*
Y1772242D01*
X2042244D01*
Y1806024D01*
D02*
G37*
G36*
X1933280Y1697008D02*
X1932558D01*
Y1658544D01*
X1971023D01*
Y1659266D01*
X1968061Y1670320D01*
X1962339Y1680231D01*
X1954246Y1688324D01*
X1944335Y1694046D01*
X1933280Y1697008D01*
D02*
G37*
G36*
X1922558D02*
X1921836D01*
X1910782Y1694046D01*
X1900870Y1688324D01*
X1892778Y1680231D01*
X1887056Y1670320D01*
X1884094Y1659266D01*
Y1658544D01*
X1922558D01*
Y1697008D01*
D02*
G37*
G36*
X1552008Y1679626D02*
Y1648858D01*
X1582776D01*
X1581821Y1652421D01*
X1575490Y1663387D01*
X1566536Y1672340D01*
X1555570Y1678671D01*
X1552008Y1679626D01*
D02*
G37*
G36*
X1971023Y1648544D02*
X1932558D01*
Y1610079D01*
X1933280D01*
X1944335Y1613041D01*
X1954246Y1618763D01*
X1962339Y1626855D01*
X1968061Y1636767D01*
X1971023Y1647821D01*
Y1648544D01*
D02*
G37*
G36*
X1922558D02*
X1884094D01*
Y1647821D01*
X1887056Y1636767D01*
X1892778Y1626855D01*
X1900870Y1618763D01*
X1910782Y1613041D01*
X1921836Y1610079D01*
X1922558D01*
Y1648544D01*
D02*
G37*
G36*
X1582776Y1618858D02*
X1552008D01*
Y1588091D01*
X1555570Y1589045D01*
X1566536Y1595376D01*
X1575490Y1604330D01*
X1581821Y1615296D01*
X1582776Y1618858D01*
D02*
G37*
G36*
X1643059Y1679823D02*
X1630957D01*
X1619266Y1676690D01*
X1608785Y1670639D01*
X1600227Y1662081D01*
X1594176Y1651600D01*
X1591043Y1639910D01*
Y1627807D01*
X1594176Y1616117D01*
X1600227Y1605636D01*
X1608785Y1597078D01*
X1619266Y1591026D01*
X1630957Y1587894D01*
X1643059D01*
X1654749Y1591026D01*
X1665231Y1597078D01*
X1673789Y1605636D01*
X1679840Y1616117D01*
X1682972Y1627807D01*
Y1639910D01*
X1679840Y1651600D01*
X1673789Y1662081D01*
X1665231Y1670639D01*
X1654749Y1676690D01*
X1643059Y1679823D01*
D02*
G37*
G36*
X3080865Y1522874D02*
Y1486378D01*
X3117361D01*
X3115128Y1494712D01*
X3108875Y1505544D01*
X3100031Y1514387D01*
X3089200Y1520641D01*
X3080865Y1522874D01*
D02*
G37*
G36*
X3060865Y1522874D02*
X3052531Y1520641D01*
X3041700Y1514387D01*
X3032856Y1505544D01*
X3026602Y1494712D01*
X3024369Y1486378D01*
X3060865D01*
Y1522874D01*
D02*
G37*
G36*
X3117362Y1466378D02*
X3080865D01*
Y1429882D01*
X3089200Y1432115D01*
X3100031Y1438368D01*
X3108875Y1447212D01*
X3115128Y1458044D01*
X3117362Y1466378D01*
D02*
G37*
G36*
X3060865D02*
X3024369D01*
X3026602Y1458044D01*
X3032856Y1447212D01*
X3041700Y1438368D01*
X3052531Y1432115D01*
X3060865Y1429882D01*
Y1466378D01*
D02*
G37*
G36*
X3380984Y1276683D02*
Y1245158D01*
X3412510D01*
X3410067Y1254275D01*
X3405251Y1262615D01*
X3398442Y1269425D01*
X3390102Y1274240D01*
X3380984Y1276683D01*
D02*
G37*
G36*
X3370984D02*
X3361867Y1274240D01*
X3353527Y1269425D01*
X3346717Y1262615D01*
X3341902Y1254275D01*
X3339459Y1245158D01*
X3370984D01*
Y1276683D01*
D02*
G37*
G36*
X3144764D02*
Y1245158D01*
X3176289D01*
X3173846Y1254275D01*
X3169031Y1262615D01*
X3162221Y1269425D01*
X3153881Y1274240D01*
X3144764Y1276683D01*
D02*
G37*
G36*
X3134764D02*
X3125646Y1274240D01*
X3117306Y1269425D01*
X3110497Y1262615D01*
X3105682Y1254275D01*
X3103238Y1245158D01*
X3134764D01*
Y1276683D01*
D02*
G37*
G36*
X2908544Y1276683D02*
Y1245158D01*
X2940069D01*
X2937626Y1254275D01*
X2932810Y1262615D01*
X2926001Y1269425D01*
X2917661Y1274240D01*
X2908544Y1276683D01*
D02*
G37*
G36*
X2898544Y1276683D02*
X2889426Y1274240D01*
X2881086Y1269425D01*
X2874276Y1262615D01*
X2869461Y1254275D01*
X2867018Y1245158D01*
X2898544D01*
Y1276683D01*
D02*
G37*
G36*
X2672323Y1276683D02*
Y1245157D01*
X2703848D01*
X2701405Y1254275D01*
X2696590Y1262615D01*
X2689780Y1269425D01*
X2681440Y1274240D01*
X2672323Y1276683D01*
D02*
G37*
G36*
X2662323Y1276683D02*
X2653206Y1274240D01*
X2644865Y1269425D01*
X2638056Y1262615D01*
X2633240Y1254275D01*
X2630798Y1245157D01*
X2662323D01*
Y1276683D01*
D02*
G37*
G36*
X3599174Y1354694D02*
X3584174Y1352318D01*
X3564996Y1346086D01*
X3547029Y1336932D01*
X3530715Y1325079D01*
X3516456Y1310820D01*
X3504604Y1294507D01*
X3495449Y1276539D01*
X3489218Y1257361D01*
X3486842Y1242362D01*
X3599174D01*
Y1354694D01*
D02*
G37*
G36*
X2435638Y1274606D02*
X2426567D01*
X2417806Y1272259D01*
X2409950Y1267723D01*
X2403537Y1261310D01*
X2399001Y1253454D01*
X2396654Y1244693D01*
Y1235622D01*
X2399001Y1226861D01*
X2403537Y1219005D01*
X2409950Y1212592D01*
X2417806Y1208056D01*
X2426567Y1205709D01*
X2435638D01*
X2444399Y1208056D01*
X2452255Y1212592D01*
X2458668Y1219005D01*
X2463204Y1226861D01*
X2465551Y1235622D01*
Y1244693D01*
X2463204Y1253454D01*
X2458668Y1261310D01*
X2452255Y1267723D01*
X2444399Y1272259D01*
X2435638Y1274606D01*
D02*
G37*
G36*
X2703848Y1235157D02*
X2672323D01*
Y1203632D01*
X2681440Y1206075D01*
X2689780Y1210890D01*
X2696590Y1217700D01*
X2701405Y1226040D01*
X2703848Y1235157D01*
D02*
G37*
G36*
X2940069Y1235158D02*
X2908544D01*
Y1203632D01*
X2917661Y1206075D01*
X2926001Y1210890D01*
X2932810Y1217700D01*
X2937626Y1226040D01*
X2940069Y1235158D01*
D02*
G37*
G36*
X3176289Y1235158D02*
X3144764D01*
Y1203632D01*
X3153881Y1206075D01*
X3162221Y1210890D01*
X3169031Y1217700D01*
X3173846Y1226040D01*
X3176289Y1235158D01*
D02*
G37*
G36*
X3412510Y1235158D02*
X3380984D01*
Y1203632D01*
X3390102Y1206075D01*
X3398442Y1210890D01*
X3405251Y1217700D01*
X3410067Y1226040D01*
X3412510Y1235158D01*
D02*
G37*
G36*
X3370984D02*
X3339459D01*
X3341902Y1226040D01*
X3346717Y1217700D01*
X3353527Y1210890D01*
X3361867Y1206075D01*
X3370984Y1203632D01*
Y1235158D01*
D02*
G37*
G36*
X3134764Y1235158D02*
X3103238D01*
X3105682Y1226040D01*
X3110497Y1217700D01*
X3117306Y1210890D01*
X3125646Y1206075D01*
X3134764Y1203632D01*
Y1235158D01*
D02*
G37*
G36*
X2898544Y1235158D02*
X2867018D01*
X2869461Y1226040D01*
X2874276Y1217700D01*
X2881086Y1210890D01*
X2889426Y1206075D01*
X2898544Y1203632D01*
Y1235158D01*
D02*
G37*
G36*
X2662323Y1235157D02*
X2630798D01*
X2633240Y1226040D01*
X2638056Y1217700D01*
X2644865Y1210890D01*
X2653206Y1206075D01*
X2662323Y1203632D01*
Y1235157D01*
D02*
G37*
G36*
X3599174Y1212362D02*
X3486842D01*
X3489218Y1197363D01*
X3495449Y1178185D01*
X3504604Y1160218D01*
X3516456Y1143904D01*
X3530715Y1129645D01*
X3547029Y1117793D01*
X3564996Y1108638D01*
X3584174Y1102407D01*
X3599174Y1100031D01*
Y1212362D01*
D02*
G37*
G36*
Y1000363D02*
X3584174Y997987D01*
X3564996Y991756D01*
X3547029Y982601D01*
X3530715Y970749D01*
X3516456Y956490D01*
X3504604Y940176D01*
X3495449Y922209D01*
X3489218Y903031D01*
X3486842Y888032D01*
X3599174D01*
Y1000363D01*
D02*
G37*
G36*
X2436102Y882982D02*
Y851457D01*
X2467628D01*
X2465185Y860574D01*
X2460369Y868914D01*
X2453560Y875724D01*
X2445220Y880539D01*
X2436102Y882982D01*
D02*
G37*
G36*
X2426102D02*
X2416985Y880539D01*
X2408645Y875724D01*
X2401835Y868914D01*
X2397020Y860574D01*
X2394577Y851457D01*
X2426102D01*
Y882982D01*
D02*
G37*
G36*
X3380984D02*
Y851457D01*
X3412510D01*
X3410067Y860574D01*
X3405251Y868914D01*
X3398442Y875724D01*
X3390102Y880539D01*
X3380984Y882982D01*
D02*
G37*
G36*
X3370984D02*
X3361867Y880539D01*
X3353527Y875724D01*
X3346717Y868914D01*
X3341902Y860574D01*
X3339459Y851457D01*
X3370984D01*
Y882982D01*
D02*
G37*
G36*
X3144764D02*
Y851457D01*
X3176289D01*
X3173846Y860574D01*
X3169031Y868914D01*
X3162221Y875724D01*
X3153881Y880539D01*
X3144764Y882982D01*
D02*
G37*
G36*
X3134764D02*
X3125646Y880539D01*
X3117306Y875724D01*
X3110497Y868914D01*
X3105682Y860574D01*
X3103238Y851457D01*
X3134764D01*
Y882982D01*
D02*
G37*
G36*
X2908544Y882982D02*
Y851457D01*
X2940069D01*
X2937626Y860574D01*
X2932810Y868914D01*
X2926001Y875724D01*
X2917661Y880539D01*
X2908544Y882982D01*
D02*
G37*
G36*
X2898544Y882982D02*
X2889426Y880539D01*
X2881086Y875724D01*
X2874276Y868914D01*
X2869461Y860574D01*
X2867018Y851457D01*
X2898544D01*
Y882982D01*
D02*
G37*
G36*
X2671858Y880905D02*
X2662787D01*
X2654026Y878558D01*
X2646171Y874023D01*
X2639757Y867609D01*
X2635222Y859754D01*
X2632874Y850992D01*
Y841921D01*
X2635222Y833160D01*
X2639757Y825305D01*
X2646171Y818891D01*
X2654026Y814356D01*
X2662787Y812008D01*
X2671858D01*
X2680620Y814356D01*
X2688475Y818891D01*
X2694889Y825305D01*
X2699424Y833160D01*
X2701772Y841921D01*
Y850992D01*
X2699424Y859754D01*
X2694889Y867609D01*
X2688475Y874023D01*
X2680620Y878558D01*
X2671858Y880905D01*
D02*
G37*
G36*
X2940069Y841457D02*
X2908544D01*
Y809932D01*
X2917661Y812374D01*
X2926001Y817190D01*
X2932810Y823999D01*
X2937626Y832339D01*
X2940069Y841457D01*
D02*
G37*
G36*
X3176289Y841457D02*
X3144764D01*
Y809931D01*
X3153881Y812374D01*
X3162221Y817190D01*
X3169031Y823999D01*
X3173846Y832339D01*
X3176289Y841457D01*
D02*
G37*
G36*
X2426102Y841457D02*
X2394577D01*
X2397020Y832339D01*
X2401835Y823999D01*
X2408645Y817190D01*
X2416985Y812374D01*
X2426102Y809931D01*
Y841457D01*
D02*
G37*
G36*
X3412510Y841457D02*
X3380984D01*
Y809931D01*
X3390102Y812374D01*
X3398442Y817190D01*
X3405251Y823999D01*
X3410067Y832339D01*
X3412510Y841457D01*
D02*
G37*
G36*
X3370984D02*
X3339459D01*
X3341902Y832339D01*
X3346717Y823999D01*
X3353527Y817190D01*
X3361867Y812374D01*
X3370984Y809931D01*
Y841457D01*
D02*
G37*
G36*
X2467628Y841457D02*
X2436102D01*
Y809931D01*
X2445220Y812374D01*
X2453560Y817190D01*
X2460369Y823999D01*
X2465185Y832339D01*
X2467628Y841457D01*
D02*
G37*
G36*
X3134764Y841457D02*
X3103238D01*
X3105682Y832339D01*
X3110497Y823999D01*
X3117306Y817190D01*
X3125646Y812374D01*
X3134764Y809931D01*
Y841457D01*
D02*
G37*
G36*
X2898544Y841457D02*
X2867018D01*
X2869461Y832339D01*
X2874276Y823999D01*
X2881086Y817190D01*
X2889426Y812374D01*
X2898544Y809931D01*
Y841457D01*
D02*
G37*
G36*
X3599174Y858032D02*
X3486842D01*
X3489218Y843032D01*
X3495449Y823854D01*
X3504604Y805887D01*
X3516456Y789573D01*
X3530715Y775314D01*
X3547029Y763462D01*
X3564996Y754307D01*
X3584174Y748076D01*
X3599174Y745700D01*
Y858032D01*
D02*
G37*
G36*
X3080865Y656732D02*
Y620236D01*
X3117361D01*
X3115128Y628571D01*
X3108875Y639402D01*
X3100031Y648246D01*
X3089200Y654499D01*
X3080865Y656732D01*
D02*
G37*
G36*
X3060865D02*
X3052531Y654499D01*
X3041700Y648246D01*
X3032856Y639402D01*
X3026602Y628571D01*
X3024369Y620236D01*
X3060865D01*
Y656732D01*
D02*
G37*
G36*
X3117361Y600236D02*
X3080865D01*
Y563740D01*
X3089200Y565973D01*
X3100031Y572227D01*
X3108875Y581071D01*
X3115128Y591902D01*
X3117361Y600236D01*
D02*
G37*
G36*
X3060865D02*
X3024369D01*
X3026602Y591902D01*
X3032856Y581071D01*
X3041700Y572227D01*
X3052531Y565973D01*
X3060865Y563740D01*
Y600236D01*
D02*
G37*
G36*
X1933281Y535590D02*
X1932559D01*
Y497126D01*
X1971024D01*
Y497848D01*
X1968062Y508903D01*
X1962339Y518814D01*
X1954247Y526906D01*
X1944336Y532628D01*
X1933281Y535590D01*
D02*
G37*
G36*
X1922559D02*
X1921837D01*
X1910782Y532628D01*
X1900871Y526906D01*
X1892779Y518814D01*
X1887057Y508903D01*
X1884095Y497848D01*
Y497126D01*
X1922559D01*
Y535590D01*
D02*
G37*
G36*
X1552008Y498524D02*
Y467756D01*
X1582776D01*
X1581821Y471318D01*
X1575490Y482284D01*
X1566536Y491238D01*
X1555570Y497569D01*
X1552008Y498524D01*
D02*
G37*
G36*
X1522008D02*
X1518446Y497569D01*
X1507480Y491238D01*
X1498526Y482284D01*
X1492195Y471318D01*
X1491240Y467756D01*
X1522008D01*
Y498524D01*
D02*
G37*
G36*
X1971024Y487126D02*
X1932559D01*
Y448661D01*
X1933281D01*
X1944336Y451623D01*
X1954247Y457346D01*
X1962339Y465438D01*
X1968062Y475349D01*
X1971024Y486404D01*
Y487126D01*
D02*
G37*
G36*
X1922559D02*
X1884095D01*
Y486404D01*
X1887057Y475349D01*
X1892779Y465438D01*
X1900871Y457346D01*
X1910782Y451623D01*
X1921837Y448661D01*
X1922559D01*
Y487126D01*
D02*
G37*
G36*
X1582776Y437756D02*
X1552008D01*
Y406988D01*
X1555570Y407943D01*
X1566536Y414274D01*
X1575490Y423228D01*
X1581821Y434194D01*
X1582776Y437756D01*
D02*
G37*
G36*
X1522008D02*
X1491240D01*
X1492195Y434194D01*
X1498526Y423228D01*
X1507480Y414274D01*
X1518446Y407943D01*
X1522008Y406988D01*
Y437756D01*
D02*
G37*
G36*
X1643059Y498720D02*
X1630957D01*
X1619266Y495588D01*
X1608785Y489537D01*
X1600227Y480979D01*
X1594176Y470498D01*
X1591043Y458807D01*
Y446705D01*
X1594176Y435014D01*
X1600227Y424533D01*
X1608785Y415975D01*
X1619266Y409924D01*
X1630957Y406791D01*
X1643059D01*
X1654749Y409924D01*
X1665231Y415975D01*
X1673789Y424533D01*
X1679840Y435014D01*
X1682972Y446705D01*
Y458807D01*
X1679840Y470498D01*
X1673789Y480979D01*
X1665231Y489537D01*
X1654749Y495588D01*
X1643059Y498720D01*
D02*
G37*
G36*
X2083822Y353743D02*
X2054056D01*
Y319961D01*
X2083822D01*
Y353743D01*
D02*
G37*
G36*
X2044056D02*
X2014289D01*
Y319961D01*
X2044056D01*
Y353743D01*
D02*
G37*
G36*
X2083822Y309961D02*
X2054056D01*
Y276178D01*
X2083822D01*
Y309961D01*
D02*
G37*
G36*
X2044056D02*
X2014289D01*
Y276178D01*
X2044056D01*
Y309961D01*
D02*
G37*
G36*
X831614Y2037559D02*
X805945D01*
Y2035433D01*
X780349D01*
X778543Y2035671D01*
X777559D01*
X775753Y2035433D01*
X749016D01*
Y1980315D01*
X750746D01*
Y1930280D01*
X750778Y1930044D01*
Y1900429D01*
X751731D01*
Y1811024D01*
Y1775591D01*
X751772Y1775280D01*
Y1747835D01*
X759605D01*
Y1651314D01*
X759118Y1651033D01*
X750542Y1642457D01*
X744478Y1631953D01*
X741339Y1620237D01*
Y1608109D01*
X744478Y1596393D01*
X750542Y1585890D01*
X759118Y1577314D01*
X766960Y1572786D01*
X768042Y1566798D01*
X724885Y1523640D01*
X718448Y1524274D01*
X717943Y1525030D01*
X700528Y1542445D01*
Y1568110D01*
X733465D01*
Y1660236D01*
X694142D01*
Y1661504D01*
X693142Y1666527D01*
X690297Y1670786D01*
X643773Y1717310D01*
X639515Y1720155D01*
X634491Y1721155D01*
X419244D01*
X414221Y1720155D01*
X409962Y1717310D01*
X404104Y1711452D01*
X401259Y1707194D01*
X400260Y1702170D01*
Y1690199D01*
X380745D01*
Y1686674D01*
X376126Y1684760D01*
X355810Y1705076D01*
X351552Y1707921D01*
X347357Y1708755D01*
X346584Y1712643D01*
X344202Y1716208D01*
X340637Y1718590D01*
X336432Y1719426D01*
X327658D01*
Y1743511D01*
X345074Y1760926D01*
X347919Y1765185D01*
X348918Y1770208D01*
Y1787164D01*
X373389D01*
Y1844574D01*
X354891D01*
Y1893274D01*
X353892Y1898298D01*
X351046Y1902556D01*
X341089Y1912514D01*
X342042Y1914166D01*
X344685Y1924028D01*
Y1934239D01*
X342042Y1944102D01*
X336937Y1952945D01*
X329717Y1960165D01*
X320874Y1965271D01*
X311011Y1967913D01*
X300800D01*
X290937Y1965271D01*
X282094Y1960165D01*
X274874Y1952945D01*
X269769Y1944102D01*
X267126Y1934239D01*
Y1924028D01*
X269769Y1914166D01*
X274874Y1905323D01*
X282094Y1898103D01*
X290937Y1892997D01*
X300800Y1890354D01*
X311011D01*
X320874Y1892997D01*
X322525Y1893951D01*
X328639Y1887837D01*
Y1844574D01*
X310141D01*
Y1844574D01*
X308361D01*
Y1844574D01*
X245113D01*
Y1828995D01*
X189711D01*
X189144Y1829562D01*
X184885Y1832408D01*
X179862Y1833407D01*
X99968D01*
X94945Y1832408D01*
X90686Y1829562D01*
X74279Y1813155D01*
X27561D01*
Y1739843D01*
X47075D01*
Y1717444D01*
X48074Y1712420D01*
X50920Y1708162D01*
X60787Y1698294D01*
Y1687093D01*
X42289D01*
Y1629683D01*
X105537D01*
Y1629683D01*
X107318D01*
Y1629683D01*
X125815D01*
Y1576934D01*
X106301D01*
Y1503622D01*
X171582D01*
Y1576934D01*
X152068D01*
Y1599834D01*
X155933Y1603006D01*
X156850Y1602823D01*
X165858D01*
X166217Y1601484D01*
X170545Y1593988D01*
X176665Y1587867D01*
X184161Y1583540D01*
X192523Y1581299D01*
X201178D01*
X209539Y1583540D01*
X217036Y1587867D01*
X223156Y1593988D01*
X227484Y1601484D01*
X229724Y1609845D01*
Y1618501D01*
X227484Y1626862D01*
X223156Y1634358D01*
X219888Y1637626D01*
X221959Y1642626D01*
X259266D01*
X263611Y1638392D01*
Y1631244D01*
X260256Y1629003D01*
X257874Y1625438D01*
X257038Y1621233D01*
Y1577434D01*
X257874Y1573228D01*
X260256Y1569664D01*
X263821Y1567282D01*
X268026Y1566445D01*
X285447D01*
X289652Y1567282D01*
X293217Y1569664D01*
X295599Y1573228D01*
X296436Y1577434D01*
Y1586207D01*
X313537D01*
X368748Y1530996D01*
X373006Y1528151D01*
X378029Y1527152D01*
X380745D01*
Y1498777D01*
X441261D01*
X442817Y1497671D01*
X443235Y1497250D01*
X443661Y1496612D01*
X444914Y1493777D01*
X444912Y1493735D01*
X444728Y1492807D01*
Y1340118D01*
X429016D01*
Y1299212D01*
Y1258307D01*
X444728D01*
Y1243483D01*
X322762Y1121518D01*
X321022Y1118913D01*
X320411Y1115841D01*
X320411Y1082896D01*
X315626Y1081445D01*
X315117Y1082207D01*
X306617Y1090707D01*
X296622Y1097386D01*
X285516Y1101986D01*
X273727Y1104331D01*
X261706D01*
X249917Y1101986D01*
X238811Y1097386D01*
X228816Y1090707D01*
X220316Y1082207D01*
X213638Y1072213D01*
X209038Y1061107D01*
X206693Y1049317D01*
Y1037297D01*
X209038Y1025507D01*
X213638Y1014402D01*
X220316Y1004407D01*
X224002Y1000721D01*
Y785189D01*
X223603Y784791D01*
X216279Y773829D01*
X211233Y761649D01*
X208661Y748718D01*
Y735534D01*
X211233Y722604D01*
X216279Y710423D01*
X223603Y699461D01*
X232926Y690139D01*
X243888Y682814D01*
X256068Y677769D01*
X268999Y675197D01*
X282182D01*
X295113Y677769D01*
X307293Y682814D01*
X318255Y690139D01*
X327578Y699461D01*
X334902Y710423D01*
X339947Y722604D01*
X342520Y735534D01*
Y748718D01*
X339947Y761649D01*
X334902Y773829D01*
X327578Y784791D01*
X319305Y793063D01*
Y922112D01*
X324305Y924183D01*
X388024Y860465D01*
X390629Y858724D01*
X393701Y858113D01*
X708661Y858113D01*
X711734Y858724D01*
X712676Y859354D01*
X713617Y858724D01*
X716690Y858113D01*
X964566Y858114D01*
X964567Y858113D01*
X967639Y858725D01*
X970244Y860465D01*
X1009614Y899835D01*
X1011354Y902439D01*
X1011965Y905512D01*
Y1673228D01*
X1011354Y1676301D01*
X1009614Y1678905D01*
X989929Y1698590D01*
X989929Y1698590D01*
X987324Y1700331D01*
X984252Y1700942D01*
X846457D01*
X843385Y1700331D01*
X840780Y1698590D01*
X840780Y1698590D01*
X821095Y1678905D01*
X820198Y1677564D01*
X815198Y1679080D01*
Y1767716D01*
X814251Y1774911D01*
X811474Y1781615D01*
X807324Y1787023D01*
Y1811024D01*
Y1900429D01*
X813680D01*
Y1898303D01*
X842430D01*
Y1929134D01*
Y1959965D01*
X813680D01*
Y1957839D01*
X806340D01*
Y1978189D01*
X831614D01*
Y2007874D01*
Y2037559D01*
D02*
G37*
G36*
X867283D02*
X841614D01*
Y2012874D01*
X867283D01*
Y2037559D01*
D02*
G37*
G36*
Y2002874D02*
X841614D01*
Y1978189D01*
X867283D01*
Y2002874D01*
D02*
G37*
G36*
X881180Y1959965D02*
X852430D01*
Y1934134D01*
X881180D01*
Y1959965D01*
D02*
G37*
G36*
Y1924134D02*
X852430D01*
Y1898303D01*
X881180D01*
Y1924134D01*
D02*
G37*
G36*
X244685Y1967913D02*
X167126D01*
Y1890354D01*
X244685D01*
Y1967913D01*
D02*
G37*
G36*
X943268Y1876339D02*
X918386D01*
Y1816024D01*
X943268D01*
Y1876339D01*
D02*
G37*
G36*
X908386D02*
X883504D01*
Y1816024D01*
X908386D01*
Y1876339D01*
D02*
G37*
G36*
X943268Y1806024D02*
X918386D01*
Y1745709D01*
X943268D01*
Y1806024D01*
D02*
G37*
G36*
X908386D02*
X883504D01*
Y1745709D01*
X908386D01*
Y1806024D01*
D02*
G37*
G36*
X1219884Y1650751D02*
X1186102D01*
Y1620985D01*
X1219884D01*
Y1650751D01*
D02*
G37*
G36*
X1176102D02*
X1142320D01*
Y1620985D01*
X1176102D01*
Y1650751D01*
D02*
G37*
G36*
X1219884Y1610985D02*
X1186102D01*
Y1581218D01*
X1219884D01*
Y1610985D01*
D02*
G37*
G36*
X1176102D02*
X1142320D01*
Y1581218D01*
X1176102D01*
Y1610985D01*
D02*
G37*
G36*
X96779Y1579060D02*
X67013D01*
Y1545278D01*
X96779D01*
Y1579060D01*
D02*
G37*
G36*
X57013D02*
X27246D01*
Y1545278D01*
X57013D01*
Y1579060D01*
D02*
G37*
G36*
X96779Y1535278D02*
X67013D01*
Y1501496D01*
X96779D01*
Y1535278D01*
D02*
G37*
G36*
X57013D02*
X27246D01*
Y1501496D01*
X57013D01*
Y1535278D01*
D02*
G37*
G36*
X248046Y1555056D02*
X230625D01*
X226419Y1554219D01*
X222854Y1551838D01*
X220472Y1548273D01*
X219636Y1544067D01*
Y1500268D01*
X220472Y1496063D01*
X222854Y1492498D01*
X226209Y1490257D01*
Y1480344D01*
X214373Y1468508D01*
X211528Y1464250D01*
X210529Y1459227D01*
Y1450873D01*
X192377D01*
Y1452999D01*
X163626D01*
Y1422168D01*
Y1391337D01*
X192377D01*
Y1393463D01*
X206411D01*
X208482Y1388463D01*
X191413Y1371394D01*
X157480D01*
X152457Y1370395D01*
X148199Y1367549D01*
X128514Y1347864D01*
X125668Y1343606D01*
X124669Y1338583D01*
Y1335869D01*
X106966D01*
Y1262556D01*
X172247D01*
Y1335869D01*
X160177D01*
X158264Y1340488D01*
X162917Y1345141D01*
X196850D01*
X201874Y1346141D01*
X206132Y1348986D01*
X232936Y1375790D01*
X235782Y1380049D01*
X236781Y1385072D01*
Y1393463D01*
X255279D01*
Y1450873D01*
X240935D01*
X238864Y1455873D01*
X248617Y1465626D01*
X251462Y1469884D01*
X252461Y1474907D01*
Y1490257D01*
X255816Y1492498D01*
X258198Y1496063D01*
X259034Y1500268D01*
Y1544067D01*
X258198Y1548273D01*
X255816Y1551838D01*
X252251Y1554219D01*
X248046Y1555056D01*
D02*
G37*
G36*
X429613Y1460950D02*
X399847D01*
Y1427168D01*
X429613D01*
Y1460950D01*
D02*
G37*
G36*
X389847D02*
X360080D01*
Y1427168D01*
X389847D01*
Y1460950D01*
D02*
G37*
G36*
X153626Y1452999D02*
X124876D01*
Y1427168D01*
X153626D01*
Y1452999D01*
D02*
G37*
G36*
Y1417168D02*
X124876D01*
Y1391337D01*
X153626D01*
Y1417168D01*
D02*
G37*
G36*
X322849Y1555056D02*
X305428D01*
X301223Y1554219D01*
X297658Y1551838D01*
X295276Y1548273D01*
X294439Y1544067D01*
Y1500268D01*
X295276Y1496063D01*
X297658Y1492498D01*
X301012Y1490257D01*
Y1458824D01*
X285278D01*
Y1385512D01*
X350559D01*
Y1458824D01*
X327264D01*
Y1490257D01*
X330619Y1492498D01*
X333001Y1496063D01*
X333837Y1500268D01*
Y1544067D01*
X333001Y1548273D01*
X330619Y1551838D01*
X327054Y1554219D01*
X322849Y1555056D01*
D02*
G37*
G36*
X429613Y1417168D02*
X399847D01*
Y1383386D01*
X429613D01*
Y1417168D01*
D02*
G37*
G36*
X389847D02*
X360080D01*
Y1383386D01*
X389847D01*
Y1417168D01*
D02*
G37*
G36*
X1471693Y1393163D02*
Y1363268D01*
X1501588D01*
X1499308Y1371777D01*
X1494700Y1379758D01*
X1488183Y1386275D01*
X1480202Y1390882D01*
X1471693Y1393163D01*
D02*
G37*
G36*
X1461693D02*
X1453183Y1390882D01*
X1445202Y1386275D01*
X1438686Y1379758D01*
X1434078Y1371777D01*
X1431798Y1363268D01*
X1461693D01*
Y1393163D01*
D02*
G37*
G36*
X1501588Y1353268D02*
X1471693D01*
Y1323373D01*
X1480202Y1325653D01*
X1488183Y1330261D01*
X1494700Y1336777D01*
X1499308Y1344758D01*
X1501588Y1353268D01*
D02*
G37*
G36*
X1461693D02*
X1431798D01*
X1434078Y1344758D01*
X1438686Y1336777D01*
X1445202Y1330261D01*
X1453183Y1325653D01*
X1461693Y1323373D01*
Y1353268D01*
D02*
G37*
G36*
X329121Y1337992D02*
X318910D01*
X309047Y1335349D01*
X300204Y1330244D01*
X292984Y1323024D01*
X287879Y1314181D01*
X287385Y1312339D01*
X249176D01*
Y1335869D01*
X183895D01*
Y1262556D01*
X249176D01*
Y1286086D01*
X287385D01*
X287879Y1284244D01*
X292984Y1275401D01*
X300204Y1268181D01*
X309047Y1263076D01*
X318910Y1260433D01*
X329121D01*
X338984Y1263076D01*
X347827Y1268181D01*
X355047Y1275401D01*
X360152Y1284244D01*
X362795Y1294107D01*
Y1304318D01*
X360152Y1314181D01*
X355047Y1323024D01*
X347827Y1330244D01*
X338984Y1335349D01*
X329121Y1337992D01*
D02*
G37*
G36*
X419016Y1340118D02*
X383110D01*
Y1304212D01*
X419016D01*
Y1340118D01*
D02*
G37*
G36*
Y1294212D02*
X383110D01*
Y1258307D01*
X419016D01*
Y1294212D01*
D02*
G37*
G36*
X1471693Y1275052D02*
Y1245158D01*
X1501588D01*
X1499308Y1253667D01*
X1494700Y1261648D01*
X1488183Y1268165D01*
X1480202Y1272772D01*
X1471693Y1275052D01*
D02*
G37*
G36*
X1461693D02*
X1453183Y1272772D01*
X1445202Y1268165D01*
X1438686Y1261648D01*
X1434078Y1253667D01*
X1431798Y1245158D01*
X1461693D01*
Y1275052D01*
D02*
G37*
G36*
X1501588Y1235158D02*
X1471693D01*
Y1205263D01*
X1480202Y1207543D01*
X1488183Y1212150D01*
X1494700Y1218667D01*
X1499308Y1226648D01*
X1501588Y1235158D01*
D02*
G37*
G36*
X1461693D02*
X1431798D01*
X1434078Y1226648D01*
X1438686Y1218667D01*
X1445202Y1212150D01*
X1453183Y1207543D01*
X1461693Y1205263D01*
Y1235158D01*
D02*
G37*
G36*
X1140157Y1238583D02*
X1064566D01*
Y1162992D01*
X1140157D01*
Y1238583D01*
D02*
G37*
G36*
X1225447D02*
X1215496D01*
X1205883Y1236007D01*
X1197265Y1231031D01*
X1190228Y1223994D01*
X1185252Y1215376D01*
X1182676Y1205763D01*
Y1195812D01*
X1185252Y1186199D01*
X1190228Y1177581D01*
X1197265Y1170544D01*
X1205883Y1165568D01*
X1215496Y1162992D01*
X1225447D01*
X1235060Y1165568D01*
X1238126Y1167338D01*
X1239596Y1166891D01*
X1242913Y1164328D01*
Y1158525D01*
X1244818Y1151415D01*
X1248498Y1145041D01*
X1253702Y1139837D01*
X1260076Y1136157D01*
X1267185Y1134252D01*
X1274545D01*
X1281655Y1136157D01*
X1288029Y1139837D01*
X1293233Y1145041D01*
X1296913Y1151415D01*
X1298818Y1158525D01*
Y1165885D01*
X1296913Y1172994D01*
X1293233Y1179368D01*
X1288029Y1184572D01*
X1281655Y1188253D01*
X1274545Y1190157D01*
X1267185D01*
X1261522Y1188640D01*
X1258244Y1191103D01*
X1257370Y1192464D01*
X1258267Y1195812D01*
Y1205763D01*
X1255691Y1215376D01*
X1250715Y1223994D01*
X1243678Y1231031D01*
X1235060Y1236007D01*
X1225447Y1238583D01*
D02*
G37*
G36*
X1471693Y1156942D02*
Y1127047D01*
X1501588D01*
X1499308Y1135557D01*
X1494700Y1143538D01*
X1488183Y1150054D01*
X1480202Y1154662D01*
X1471693Y1156942D01*
D02*
G37*
G36*
X1461693D02*
X1453183Y1154662D01*
X1445202Y1150054D01*
X1438686Y1143538D01*
X1434078Y1135557D01*
X1431798Y1127047D01*
X1461693D01*
Y1156942D01*
D02*
G37*
G36*
X1501588Y1117047D02*
X1471693D01*
Y1087152D01*
X1480202Y1089432D01*
X1488183Y1094040D01*
X1494700Y1100557D01*
X1499308Y1108538D01*
X1501588Y1117047D01*
D02*
G37*
G36*
X1461693D02*
X1431798D01*
X1434078Y1108538D01*
X1438686Y1100557D01*
X1445202Y1094040D01*
X1453183Y1089432D01*
X1461693Y1087152D01*
Y1117047D01*
D02*
G37*
G36*
X1471693Y1038832D02*
Y1008937D01*
X1501588D01*
X1499308Y1017447D01*
X1494700Y1025428D01*
X1488183Y1031944D01*
X1480202Y1036552D01*
X1471693Y1038832D01*
D02*
G37*
G36*
X1461693D02*
X1453183Y1036552D01*
X1445202Y1031944D01*
X1438686Y1025428D01*
X1434078Y1017447D01*
X1431798Y1008937D01*
X1461693D01*
Y1038832D01*
D02*
G37*
G36*
X88687Y1104331D02*
X76667D01*
X64877Y1101986D01*
X53772Y1097386D01*
X43777Y1090707D01*
X35277Y1082207D01*
X28599Y1072213D01*
X23999Y1061107D01*
X21654Y1049317D01*
Y1037297D01*
X23999Y1025507D01*
X28599Y1014402D01*
X35277Y1004407D01*
X43777Y995907D01*
X53772Y989229D01*
X64877Y984629D01*
X76667Y982284D01*
X88687D01*
X100477Y984629D01*
X111583Y989229D01*
X121577Y995907D01*
X130077Y1004407D01*
X136756Y1014402D01*
X141356Y1025507D01*
X143701Y1037297D01*
Y1049317D01*
X141356Y1061107D01*
X136756Y1072213D01*
X130077Y1082207D01*
X121577Y1090707D01*
X111583Y1097386D01*
X100477Y1101986D01*
X88687Y1104331D01*
D02*
G37*
G36*
X1501588Y998937D02*
X1471693D01*
Y969042D01*
X1480202Y971322D01*
X1488183Y975930D01*
X1494700Y982447D01*
X1499308Y990428D01*
X1501588Y998937D01*
D02*
G37*
G36*
X1461693D02*
X1431798D01*
X1434078Y990428D01*
X1438686Y982447D01*
X1445202Y975930D01*
X1453183Y971322D01*
X1461693Y969042D01*
Y998937D01*
D02*
G37*
G36*
X51339Y593987D02*
Y535591D01*
X81366D01*
Y555276D01*
X80002Y565636D01*
X76003Y575289D01*
X69642Y583579D01*
X61352Y589940D01*
X51698Y593939D01*
X51339Y593987D01*
D02*
G37*
G36*
X301339Y516371D02*
X285591D01*
Y490315D01*
X335890D01*
X332564Y498343D01*
X326834Y505811D01*
X319367Y511541D01*
X310671Y515143D01*
X301339Y516371D01*
D02*
G37*
G36*
X265591D02*
X249843D01*
X240510Y515143D01*
X231814Y511541D01*
X224347Y505811D01*
X218617Y498343D01*
X215291Y490315D01*
X265591D01*
Y516371D01*
D02*
G37*
G36*
X509842Y593159D02*
X500038Y591868D01*
X490901Y588083D01*
X483055Y582063D01*
X477035Y574217D01*
X473250Y565081D01*
X471959Y555276D01*
Y495906D01*
X473250Y486101D01*
X477035Y476964D01*
X483055Y469118D01*
X490901Y463098D01*
X500038Y459313D01*
X509842Y458022D01*
X519647Y459313D01*
X528784Y463098D01*
X536630Y469118D01*
X542650Y476964D01*
X546435Y486101D01*
X547726Y495906D01*
Y555276D01*
X546435Y565081D01*
X542650Y574217D01*
X536630Y582063D01*
X528784Y588083D01*
X519647Y591868D01*
X509842Y593159D01*
D02*
G37*
G36*
X81366Y515591D02*
X51339D01*
Y457195D01*
X51698Y457242D01*
X61352Y461241D01*
X69642Y467602D01*
X76003Y475892D01*
X80002Y485546D01*
X81366Y495906D01*
Y515591D01*
D02*
G37*
G36*
X335890Y470315D02*
X285591D01*
Y444259D01*
X301339D01*
X310671Y445487D01*
X319367Y449089D01*
X326834Y454819D01*
X332564Y462287D01*
X335890Y470315D01*
D02*
G37*
G36*
X265591D02*
X215291D01*
X218617Y462287D01*
X224347Y454819D01*
X231814Y449089D01*
X240510Y445487D01*
X249843Y444259D01*
X265591D01*
Y470315D01*
D02*
G37*
G36*
X1278939Y467837D02*
X1245157D01*
Y438071D01*
X1278939D01*
Y467837D01*
D02*
G37*
G36*
X1235157D02*
X1201374D01*
Y438071D01*
X1235157D01*
Y467837D01*
D02*
G37*
G36*
X1278939Y428071D02*
X1245157D01*
Y398304D01*
X1278939D01*
Y428071D01*
D02*
G37*
G36*
X1235157D02*
X1201374D01*
Y398304D01*
X1235157D01*
Y428071D01*
D02*
G37*
G36*
X509842Y388434D02*
X500038Y387144D01*
X490901Y383359D01*
X483055Y377339D01*
X477035Y369493D01*
X473250Y360356D01*
X471959Y350551D01*
Y291181D01*
X473250Y281376D01*
X477035Y272240D01*
X483055Y264394D01*
X490901Y258373D01*
X500038Y254589D01*
X509842Y253298D01*
X519647Y254589D01*
X528784Y258373D01*
X536630Y264394D01*
X542650Y272240D01*
X546435Y281376D01*
X547726Y291181D01*
Y350551D01*
X546435Y360356D01*
X542650Y369493D01*
X536630Y377339D01*
X528784Y383359D01*
X519647Y387144D01*
X509842Y388434D01*
D02*
G37*
G36*
X280774Y322835D02*
X270407D01*
X260394Y320152D01*
X251417Y314968D01*
X244087Y307638D01*
X238904Y298661D01*
X236220Y288648D01*
Y278281D01*
X238904Y268268D01*
X244087Y259291D01*
X251417Y251961D01*
X260394Y246778D01*
X270407Y244095D01*
X280774D01*
X290787Y246778D01*
X299764Y251961D01*
X307094Y259291D01*
X312277Y268268D01*
X314961Y278281D01*
Y288648D01*
X312277Y298661D01*
X307094Y307638D01*
X299764Y314968D01*
X290787Y320152D01*
X280774Y322835D01*
D02*
G37*
%LPD*%
G36*
X174993Y1806587D02*
X179251Y1803742D01*
X184274Y1802743D01*
X245113D01*
Y1787164D01*
X263611D01*
Y1761062D01*
X259266Y1756828D01*
X215467D01*
X210310Y1760900D01*
X210124Y1761837D01*
X207278Y1766095D01*
X187593Y1785780D01*
X183335Y1788626D01*
X178311Y1789625D01*
X169770D01*
Y1806321D01*
X174770Y1806810D01*
X174993Y1806587D01*
D02*
G37*
G36*
X104489Y1799706D02*
Y1739843D01*
X169770D01*
Y1759406D01*
X174770Y1761476D01*
X184870Y1751377D01*
Y1742986D01*
X185870Y1737963D01*
X188715Y1733705D01*
X194573Y1727847D01*
X198831Y1725002D01*
X203855Y1724002D01*
X205456D01*
X207697Y1720648D01*
X211262Y1718266D01*
X215467Y1717429D01*
X256748D01*
X259473Y1717020D01*
X261603Y1712796D01*
Y1686658D01*
X259421Y1682332D01*
X256781Y1682024D01*
X215467D01*
X211262Y1681188D01*
X207697Y1678806D01*
X205456Y1675451D01*
X170566D01*
Y1687093D01*
X107318D01*
Y1687094D01*
X105537D01*
Y1687093D01*
X87040D01*
Y1703732D01*
X86040Y1708755D01*
X83195Y1713013D01*
X73328Y1722880D01*
Y1739843D01*
X92842D01*
Y1794592D01*
X99870Y1801620D01*
X104489Y1799706D01*
D02*
G37*
G36*
X1003937Y1673228D02*
Y905512D01*
X964567Y866142D01*
X716690Y866142D01*
Y901577D01*
X716586Y902096D01*
X716621Y902625D01*
X716283Y903619D01*
X716079Y904649D01*
X715784Y905089D01*
X715614Y905591D01*
X714922Y906380D01*
X714338Y907253D01*
X713898Y907548D01*
X713549Y907946D01*
X712607Y908410D01*
X711734Y908994D01*
X711214Y909097D01*
X710739Y909331D01*
X708661Y909888D01*
Y940506D01*
X710739Y941062D01*
X711214Y941297D01*
X711734Y941400D01*
X712607Y941983D01*
X713549Y942448D01*
X713898Y942846D01*
X714338Y943140D01*
X714922Y944013D01*
X715614Y944803D01*
X715784Y945304D01*
X716079Y945745D01*
X716284Y946775D01*
X716621Y947769D01*
X716586Y948298D01*
X716690Y948817D01*
X716690Y1344488D01*
X728346D01*
Y1397638D01*
X721788D01*
Y1430902D01*
X724252Y1434882D01*
X726788Y1434882D01*
X741063D01*
Y1463583D01*
Y1492283D01*
X726788D01*
X724252Y1492284D01*
X721788Y1496263D01*
Y1509189D01*
X780841Y1568243D01*
X781337Y1568110D01*
X793466D01*
X805181Y1571249D01*
X815685Y1577314D01*
X824261Y1585890D01*
X830326Y1596393D01*
X833465Y1608109D01*
Y1620237D01*
X830326Y1631953D01*
X826772Y1638108D01*
Y1673228D01*
X846457Y1692913D01*
X984252D01*
X1003937Y1673228D01*
D02*
G37*
G36*
X371342Y1652418D02*
X375600Y1649572D01*
X380624Y1648573D01*
X380745D01*
Y1616887D01*
X441261D01*
X442817Y1615782D01*
X443235Y1615361D01*
X443661Y1614723D01*
X444914Y1611887D01*
X444912Y1611845D01*
X444728Y1610918D01*
Y1578059D01*
X444912Y1577131D01*
X444914Y1577089D01*
X443661Y1574254D01*
X443235Y1573616D01*
X442817Y1573195D01*
X441261Y1572089D01*
X380745D01*
Y1562658D01*
X376126Y1560745D01*
X328256Y1608615D01*
X323997Y1611460D01*
X318974Y1612459D01*
X296436D01*
Y1621233D01*
X295599Y1625438D01*
X293217Y1629003D01*
X289863Y1631244D01*
Y1644021D01*
X290296Y1646199D01*
Y1675394D01*
X292633Y1680028D01*
X336432D01*
X340637Y1680864D01*
X341991Y1681769D01*
X371342Y1652418D01*
D02*
G37*
G36*
X659101Y1664856D02*
X657187Y1660236D01*
X641339D01*
Y1568110D01*
X674275D01*
Y1537008D01*
X675275Y1531985D01*
X678120Y1527726D01*
X695535Y1510311D01*
Y1496263D01*
X693071Y1492284D01*
X690535Y1492283D01*
X676260D01*
Y1463583D01*
Y1434882D01*
X690535D01*
X693071Y1434882D01*
X695535Y1430902D01*
Y1397638D01*
X688976D01*
Y1344488D01*
X708661D01*
X708661Y948817D01*
X703661Y947477D01*
X702024Y950313D01*
X694408Y957929D01*
X685080Y963315D01*
X674677Y966102D01*
X674291D01*
Y925197D01*
Y884291D01*
X674677D01*
X685080Y887079D01*
X694408Y892464D01*
X702024Y900080D01*
X703661Y902916D01*
X708661Y901577D01*
Y866142D01*
X393701Y866141D01*
X328439Y931403D01*
X328439Y1035784D01*
X328740Y1037297D01*
Y1049317D01*
X328439Y1050830D01*
X328439Y1115841D01*
X452756Y1240158D01*
Y1260433D01*
X462795D01*
Y1337992D01*
X452756D01*
Y1492807D01*
X455548Y1496651D01*
X457756Y1496651D01*
X485314D01*
Y1535433D01*
Y1574215D01*
X457756D01*
X455548Y1574215D01*
X452756Y1578059D01*
Y1610918D01*
X455548Y1614761D01*
X457756Y1614761D01*
X485314D01*
Y1653543D01*
X490314D01*
Y1658543D01*
X525081D01*
Y1689902D01*
X525081Y1692325D01*
X529014Y1694902D01*
X629054D01*
X659101Y1664856D01*
D02*
G37*
%LPC*%
G36*
X902402Y1660043D02*
Y1629173D01*
X933271D01*
X932307Y1632774D01*
X925962Y1643762D01*
X916990Y1652734D01*
X906002Y1659078D01*
X902402Y1660043D01*
D02*
G37*
G36*
X872402D02*
X868801Y1659078D01*
X857813Y1652734D01*
X848841Y1643762D01*
X842497Y1632774D01*
X841532Y1629173D01*
X872402D01*
Y1660043D01*
D02*
G37*
G36*
X933271Y1599173D02*
X902402D01*
Y1568303D01*
X906002Y1569268D01*
X916990Y1575612D01*
X925962Y1584584D01*
X932307Y1595573D01*
X933271Y1599173D01*
D02*
G37*
G36*
X872402D02*
X841532D01*
X842497Y1595573D01*
X848841Y1584584D01*
X857813Y1575612D01*
X868801Y1569268D01*
X872402Y1568303D01*
Y1599173D01*
D02*
G37*
G36*
X751063Y1492283D02*
Y1468583D01*
X767874D01*
Y1492283D01*
X751063D01*
D02*
G37*
G36*
X767874Y1458583D02*
X751063D01*
Y1434882D01*
X767874D01*
Y1458583D01*
D02*
G37*
G36*
X859409Y1334213D02*
X836772D01*
Y1269842D01*
X859409D01*
Y1334213D01*
D02*
G37*
G36*
X816772D02*
X794134D01*
Y1269842D01*
X816772D01*
Y1334213D01*
D02*
G37*
G36*
X859409Y1249842D02*
X836772D01*
Y1185472D01*
X859409D01*
Y1249842D01*
D02*
G37*
G36*
X816772D02*
X794134D01*
Y1185472D01*
X816772D01*
Y1249842D01*
D02*
G37*
G36*
X859409Y1157047D02*
X836772D01*
Y1092677D01*
X859409D01*
Y1157047D01*
D02*
G37*
G36*
X816772D02*
X794134D01*
Y1092677D01*
X816772D01*
Y1157047D01*
D02*
G37*
G36*
X859409Y1072677D02*
X836772D01*
Y1008307D01*
X859409D01*
Y1072677D01*
D02*
G37*
G36*
X816772D02*
X794134D01*
Y1008307D01*
X816772D01*
Y1072677D01*
D02*
G37*
G36*
X810197Y966102D02*
X774291D01*
Y930197D01*
X810197D01*
Y966102D01*
D02*
G37*
G36*
X764291D02*
X728386D01*
Y930197D01*
X764291D01*
Y966102D01*
D02*
G37*
G36*
X810197Y920197D02*
X774291D01*
Y884291D01*
X810197D01*
Y920197D01*
D02*
G37*
G36*
X764291D02*
X728386D01*
Y884291D01*
X764291D01*
Y920197D01*
D02*
G37*
G36*
X525081Y1648543D02*
X495314D01*
Y1614761D01*
X525081D01*
Y1648543D01*
D02*
G37*
G36*
X495314Y1574215D02*
Y1540433D01*
X525081D01*
Y1574215D01*
X495314D01*
D02*
G37*
G36*
X525081Y1530433D02*
X495314D01*
Y1496651D01*
X525081D01*
Y1530433D01*
D02*
G37*
G36*
X666260Y1492283D02*
X649449D01*
Y1468583D01*
X666260D01*
Y1492283D01*
D02*
G37*
G36*
Y1458583D02*
X649449D01*
Y1434882D01*
X666260D01*
Y1458583D01*
D02*
G37*
G36*
X622165Y1334213D02*
X599528D01*
Y1269842D01*
X622165D01*
Y1334213D01*
D02*
G37*
G36*
X579528D02*
X556890D01*
Y1269842D01*
X579528D01*
Y1334213D01*
D02*
G37*
G36*
X622165Y1249842D02*
X599528D01*
Y1185472D01*
X622165D01*
Y1249842D01*
D02*
G37*
G36*
X579528D02*
X556890D01*
Y1185472D01*
X579528D01*
Y1249842D01*
D02*
G37*
G36*
X622165Y1157047D02*
X599528D01*
Y1092677D01*
X622165D01*
Y1157047D01*
D02*
G37*
G36*
X579528D02*
X556890D01*
Y1092677D01*
X579528D01*
Y1157047D01*
D02*
G37*
G36*
X515905Y1106457D02*
X462756D01*
Y1053307D01*
X515905D01*
Y1106457D01*
D02*
G37*
G36*
X442756D02*
X389606D01*
Y1053307D01*
X442756D01*
Y1106457D01*
D02*
G37*
G36*
X622165Y1072677D02*
X599528D01*
Y1008307D01*
X622165D01*
Y1072677D01*
D02*
G37*
G36*
X579528D02*
X556890D01*
Y1008307D01*
X579528D01*
Y1072677D01*
D02*
G37*
G36*
X515905Y1033307D02*
X462756D01*
Y980158D01*
X515905D01*
Y1033307D01*
D02*
G37*
G36*
X442756D02*
X389606D01*
Y980158D01*
X442756D01*
Y1033307D01*
D02*
G37*
G36*
X664291Y966102D02*
X663906D01*
X653503Y963315D01*
X644175Y957929D01*
X636559Y950313D01*
X631173Y940986D01*
X628386Y930582D01*
Y930197D01*
X664291D01*
Y966102D01*
D02*
G37*
G36*
Y920197D02*
X628386D01*
Y919812D01*
X631173Y909408D01*
X636559Y900080D01*
X644175Y892464D01*
X653503Y887079D01*
X663906Y884291D01*
X664291D01*
Y920197D01*
D02*
G37*
G36*
X2042640Y1333583D02*
X2012874D01*
Y1299801D01*
X2042640D01*
Y1333583D01*
D02*
G37*
G36*
X2087995Y1260122D02*
X2056260D01*
Y1186102D01*
X2087995D01*
Y1260122D01*
D02*
G37*
G36*
X2046260D02*
X2014524D01*
Y1186102D01*
X2046260D01*
Y1260122D01*
D02*
G37*
G36*
X2150669Y1196312D02*
Y1166417D01*
X2180564D01*
X2178284Y1174927D01*
X2173676Y1182908D01*
X2167160Y1189424D01*
X2159179Y1194032D01*
X2150669Y1196312D01*
D02*
G37*
G36*
X2140669D02*
X2132160Y1194032D01*
X2124179Y1189424D01*
X2117662Y1182908D01*
X2113055Y1174927D01*
X2110774Y1166417D01*
X2140669D01*
Y1196312D01*
D02*
G37*
G36*
X2180564Y1156417D02*
X2150669D01*
Y1126522D01*
X2159179Y1128803D01*
X2167160Y1133410D01*
X2173676Y1139927D01*
X2178284Y1147908D01*
X2180564Y1156417D01*
D02*
G37*
G36*
X2140669D02*
X2110774D01*
X2113055Y1147908D01*
X2117662Y1139927D01*
X2124179Y1133410D01*
X2132160Y1128803D01*
X2140669Y1126522D01*
Y1156417D01*
D02*
G37*
G36*
X2087995Y1176102D02*
X2056260D01*
Y1102083D01*
X2087995D01*
Y1176102D01*
D02*
G37*
G36*
X2046260D02*
X2014524D01*
Y1102083D01*
X2046260D01*
Y1176102D01*
D02*
G37*
G36*
X2150669Y1117572D02*
Y1087677D01*
X2180564D01*
X2178284Y1096187D01*
X2173676Y1104168D01*
X2167160Y1110684D01*
X2159179Y1115292D01*
X2150669Y1117572D01*
D02*
G37*
G36*
X2140669D02*
X2132160Y1115292D01*
X2124179Y1110684D01*
X2117662Y1104168D01*
X2113055Y1096187D01*
X2110774Y1087677D01*
X2140669D01*
Y1117572D01*
D02*
G37*
G36*
X2180564Y1077677D02*
X2150669D01*
Y1047782D01*
X2159179Y1050062D01*
X2167160Y1054670D01*
X2173676Y1061187D01*
X2178284Y1069168D01*
X2180564Y1077677D01*
D02*
G37*
G36*
X2140669D02*
X2110774D01*
X2113055Y1069168D01*
X2117662Y1061187D01*
X2124179Y1054670D01*
X2132160Y1050062D01*
X2140669Y1047782D01*
Y1077677D01*
D02*
G37*
G36*
X2150669Y1038832D02*
Y1008937D01*
X2180564D01*
X2178284Y1017447D01*
X2173676Y1025428D01*
X2167160Y1031944D01*
X2159179Y1036552D01*
X2150669Y1038832D01*
D02*
G37*
G36*
X2140669D02*
X2132160Y1036552D01*
X2124179Y1031944D01*
X2117662Y1025428D01*
X2113055Y1017447D01*
X2110774Y1008937D01*
X2140669D01*
Y1038832D01*
D02*
G37*
G36*
X2087995Y1063272D02*
X2056260D01*
Y989252D01*
X2087995D01*
Y1063272D01*
D02*
G37*
G36*
X2046260D02*
X2014524D01*
Y989252D01*
X2046260D01*
Y1063272D01*
D02*
G37*
G36*
X2180564Y998937D02*
X2150669D01*
Y969042D01*
X2159179Y971322D01*
X2167160Y975930D01*
X2173676Y982447D01*
X2178284Y990428D01*
X2180564Y998937D01*
D02*
G37*
G36*
X2140669D02*
X2110774D01*
X2113055Y990428D01*
X2117662Y982447D01*
X2124179Y975930D01*
X2132160Y971322D01*
X2140669Y969042D01*
Y998937D01*
D02*
G37*
G36*
X2087995Y979252D02*
X2056260D01*
Y905232D01*
X2087995D01*
Y979252D01*
D02*
G37*
G36*
X2046260D02*
X2014524D01*
Y905232D01*
X2046260D01*
Y979252D01*
D02*
G37*
G36*
X2011063Y865554D02*
Y831771D01*
X2040829D01*
Y865554D01*
X2011063D01*
D02*
G37*
G36*
X2040829Y821771D02*
X2011063D01*
Y787990D01*
X2040829D01*
Y821771D01*
D02*
G37*
%LPD*%
D10*
X413386Y1653543D02*
D03*
X490314D02*
D03*
X317918Y1422168D02*
D03*
X394847D02*
D03*
X138941Y1540278D02*
D03*
X62013D02*
D03*
X137130Y1776499D02*
D03*
X60201D02*
D03*
X413386Y1535433D02*
D03*
X490314D02*
D03*
X139607Y1299213D02*
D03*
X216535D02*
D03*
X2006062Y826772D02*
D03*
X1929134D02*
D03*
X2049056Y314961D02*
D03*
X2125984D02*
D03*
X1930945Y1338583D02*
D03*
X2007874D02*
D03*
X2047244Y1811024D02*
D03*
X2124173D02*
D03*
D11*
X276737Y1599333D02*
D03*
X314138Y1522168D02*
D03*
X239335D02*
D03*
D12*
X223655Y1422168D02*
D03*
X158626D02*
D03*
X341765Y1815869D02*
D03*
X276737D02*
D03*
X138941Y1658388D02*
D03*
X73913D02*
D03*
X782402Y1929134D02*
D03*
X847430D02*
D03*
D13*
X314532Y1699727D02*
D03*
X237367Y1662325D02*
D03*
Y1737129D02*
D03*
D14*
X913386Y1811024D02*
D03*
X779528D02*
D03*
D15*
X836614Y2007874D02*
D03*
X777559D02*
D03*
D16*
X589528Y1082677D02*
D03*
X826772D02*
D03*
X589528Y1259842D02*
D03*
X826772D02*
D03*
D17*
X1807008Y1181102D02*
D03*
X2051260D02*
D03*
X1807008Y984252D02*
D03*
X2051260D02*
D03*
D18*
X1673227Y759843D02*
D03*
Y649606D02*
D03*
X1574802Y708662D02*
D03*
Y818898D02*
D03*
X1535432Y1799213D02*
D03*
Y1909449D02*
D03*
X1633857Y1858268D02*
D03*
Y1968504D02*
D03*
D19*
X1240157Y510000D02*
D03*
Y433071D02*
D03*
X1259842Y730158D02*
D03*
Y807087D02*
D03*
X1181102Y1692913D02*
D03*
Y1615985D02*
D03*
X1200786Y1988189D02*
D03*
Y1911260D02*
D03*
D20*
X746063Y1463583D02*
D03*
X671260D02*
D03*
X708661Y1371063D02*
D03*
D21*
X1259842Y1811024D02*
X1397637D01*
X1181102Y1732284D02*
X1259842Y1811024D01*
X1437008Y2007874D02*
X1476378Y1968504D01*
X1633857D01*
X1401574Y2007874D02*
X1437008D01*
X1397637Y2011811D02*
X1401574Y2007874D01*
X1397637Y1751969D02*
Y1807087D01*
X1433858Y1633858D02*
Y1715749D01*
X1397637Y1751969D02*
X1433858Y1715749D01*
X1284448Y2007874D02*
X1387587D01*
X1523621Y1811024D02*
X1535432Y1799213D01*
X1397637Y1811024D02*
X1523621D01*
X1202598Y1909449D02*
X1397637D01*
X1387587Y2007874D02*
X1387587Y2007874D01*
X1387587D02*
X1397637Y2032480D01*
Y2011811D02*
Y2032480D01*
X1200787Y1911259D02*
X1202598Y1909449D01*
X1264763Y1988189D02*
X1284448Y2007874D01*
X1200786Y1988189D02*
X1264763D01*
X1633857Y1968504D02*
X1633857Y1968504D01*
X1181102Y1692913D02*
Y1732284D01*
X1338582Y669291D02*
X1457368D01*
X1535433Y649606D02*
X1673227D01*
X1673227Y649606D01*
X1456692Y665354D02*
X1519685D01*
X1535433Y649606D01*
X1456693Y590551D02*
Y665354D01*
X1456692Y665354D02*
X1456693Y665354D01*
X1437008Y452756D02*
Y570866D01*
X1456693Y590551D01*
X1456692Y668615D02*
X1457368Y669291D01*
X1456692Y665354D02*
Y668615D01*
X1259842Y807087D02*
X1318897Y866142D01*
X1456692D02*
X1574802Y748032D01*
X1318897Y866142D02*
X1456692D01*
X1240157Y570866D02*
X1338582Y669291D01*
X408541Y1540278D02*
X413386Y1535433D01*
X406344Y1540278D02*
X408541D01*
X378029D02*
X406344D01*
X318974Y1599333D02*
X378029Y1540278D01*
X276737Y1599333D02*
X318974D01*
X413386Y1653543D02*
Y1661699D01*
X380624D02*
X413386D01*
X346529Y1695794D02*
X380624Y1661699D01*
X318465Y1695794D02*
X346529D01*
X314532Y1699727D02*
X318465Y1695794D01*
X413386Y1661699D02*
Y1702170D01*
X681015Y1620559D02*
X687402Y1614173D01*
X681015Y1620559D02*
Y1661504D01*
X634491Y1708028D02*
X681015Y1661504D01*
X419244Y1708028D02*
X634491D01*
X413386Y1702170D02*
X419244Y1708028D01*
X314138Y1425948D02*
X317918Y1422168D01*
X314138Y1425948D02*
Y1522168D01*
X216535Y1299213D02*
X324016D01*
X223655Y1385072D02*
Y1422168D01*
X196850Y1358268D02*
X223655Y1385072D01*
X157480Y1358268D02*
X196850D01*
X137795Y1338583D02*
X157480Y1358268D01*
X137795Y1301024D02*
Y1338583D01*
Y1301024D02*
X139607Y1299213D01*
X140070Y1299675D01*
X341765Y1815869D02*
Y1893274D01*
X305906Y1929134D02*
X341765Y1893274D01*
X138941Y1633858D02*
Y1658388D01*
Y1540278D02*
Y1633858D01*
X156850Y1615949D01*
X195074D02*
X196850Y1614173D01*
X156850Y1615949D02*
X195074D01*
X223655Y1422168D02*
Y1459227D01*
X239335Y1474907D01*
X142879Y1662325D02*
X237367D01*
X73913Y1658388D02*
Y1703732D01*
X60201Y1717444D02*
X73913Y1703732D01*
X138941Y1658388D02*
X142879Y1662325D01*
X239335Y1474907D02*
Y1522168D01*
X184274Y1815869D02*
X276737D01*
X274729Y1682585D02*
Y1716700D01*
X335792Y1770208D02*
Y1809896D01*
X314532Y1748948D02*
X335792Y1770208D01*
X314532Y1699727D02*
Y1748948D01*
X277170Y1719141D02*
Y1753255D01*
X276737Y1753688D02*
X277170Y1753255D01*
X274729Y1716700D02*
X277170Y1719141D01*
X335792Y1809896D02*
X341765Y1815869D01*
X276737Y1753688D02*
Y1815869D01*
X274729Y1682585D02*
X277170Y1680144D01*
X276737Y1645766D02*
X277170Y1646199D01*
Y1680144D01*
X276737Y1599333D02*
Y1645766D01*
X60201Y1717444D02*
Y1780514D01*
X197997Y1742986D02*
Y1756814D01*
Y1742986D02*
X203855Y1737129D01*
X237367D01*
X137130Y1776499D02*
X178311D01*
X60201Y1780514D02*
X99968Y1820281D01*
X179862D02*
X184274Y1815869D01*
X178311Y1776499D02*
X197997Y1756814D01*
X99968Y1820281D02*
X179862D01*
X1496063Y1535433D02*
Y1592913D01*
Y1535433D02*
X1574803Y1456693D01*
Y818899D02*
Y1456693D01*
X1930945Y1338583D02*
Y1423947D01*
X1948819Y1441821D01*
Y1456693D01*
X2303150D02*
Y1594488D01*
X2244094Y1653543D02*
X2303150Y1594488D01*
X2127558Y1653543D02*
X2244094D01*
X2124173Y1811024D02*
X2127558Y1807638D01*
Y1653543D02*
Y1807638D01*
X2322835Y590551D02*
Y708661D01*
X2224409Y492126D02*
X2322835Y590551D01*
X2127559Y492126D02*
X2127559Y492126D01*
X2224409D01*
X2125984Y314961D02*
Y490551D01*
X2127559Y492126D01*
X1930945Y746220D02*
X1968504Y708661D01*
X1930945Y746220D02*
Y824960D01*
X1929134Y826772D02*
X1930945Y824960D01*
X1263857Y730158D02*
X1301416Y767717D01*
X1240157Y510000D02*
Y570866D01*
X1259842Y730158D02*
X1259842Y730157D01*
Y649606D02*
Y730157D01*
X1259842Y730158D02*
X1263857D01*
X1301416Y767717D02*
X1456692D01*
X1712598Y707087D02*
X1712599D01*
X1764000Y637575D02*
X1771653Y629921D01*
X1764000Y637575D02*
Y655685D01*
X1712599Y707087D02*
X1764000Y655685D01*
X1574802Y708662D02*
Y748032D01*
X1582676Y826772D02*
X1653543D01*
X1673227Y759843D02*
Y807087D01*
X1653543Y826772D02*
X1673227Y807087D01*
X1574802Y818898D02*
X1574803Y818899D01*
X1582676Y826772D01*
X1712598Y707087D02*
Y1456693D01*
X1496063Y1592913D02*
X1537008Y1633858D01*
X1535432Y1909449D02*
X1574803D01*
X1594488Y1889764D01*
Y1856252D02*
Y1889764D01*
X1600346Y1850394D02*
X1625983D01*
X1594488Y1856252D02*
X1600346Y1850394D01*
X1625983D02*
X1633857Y1858268D01*
X1641732Y1850394D02*
X1712598D01*
X1633857Y1858268D02*
X1641732Y1850394D01*
X1200787Y1830709D02*
Y1911259D01*
X1200786Y1911260D02*
X1200787Y1911259D01*
X787402Y1614173D02*
X787402Y1614173D01*
X271654Y746063D02*
X275591Y742126D01*
X687402Y1537008D02*
Y1614173D01*
Y1537008D02*
X708661Y1515748D01*
Y1371063D02*
Y1515748D01*
D22*
X780674Y1929134D02*
X782402D01*
X779528Y1927988D02*
X780674Y1929134D01*
X779528Y1811024D02*
Y1927988D01*
X779689Y1929134D02*
X782402D01*
X778543Y1930280D02*
X779689Y1929134D01*
X778543Y1930280D02*
Y2007874D01*
X777559D02*
X778543D01*
X779528Y1775591D02*
Y1811024D01*
Y1775591D02*
Y1811024D01*
Y1775591D02*
X787402Y1767716D01*
Y1614173D02*
Y1767716D01*
D23*
X271654Y746063D02*
Y1039370D01*
X267716Y1043307D02*
X271654Y1039370D01*
D24*
X1807008Y984252D02*
Y1181102D01*
Y984252D02*
X1807008Y984252D01*
X1807008Y1181102D02*
X1807008Y1181102D01*
X1807008Y712677D02*
Y984252D01*
X1807008Y984252D01*
X1807008Y712677D02*
X2027559Y492126D01*
X1807008Y1181103D02*
Y1432993D01*
Y1181103D02*
X1807008Y1181102D01*
X1807008Y1432993D02*
X2027558Y1653543D01*
D25*
X1437008Y1633858D02*
D03*
Y452756D02*
D03*
D26*
X1537008Y1633858D02*
D03*
X1637008D02*
D03*
Y452756D02*
D03*
X1537008D02*
D03*
D27*
X1397637Y1807087D02*
D03*
X1456692Y665354D02*
D03*
D28*
X1397637Y1909449D02*
D03*
Y2011811D02*
D03*
X1456692Y870079D02*
D03*
Y767717D02*
D03*
D29*
X3614173Y1227362D02*
D03*
Y873032D02*
D03*
D30*
X2431102Y1240158D02*
D03*
Y846457D02*
D03*
X2667323Y1240158D02*
D03*
Y846457D02*
D03*
X2903543Y1240158D02*
D03*
Y846457D02*
D03*
X3139764Y1240158D02*
D03*
Y846457D02*
D03*
X3375984Y1240158D02*
D03*
Y846457D02*
D03*
D31*
X205905Y1929134D02*
D03*
X424016Y1299213D02*
D03*
X769291Y925197D02*
D03*
D32*
X305906Y1929134D02*
D03*
X324016Y1299213D02*
D03*
X669291Y925197D02*
D03*
D33*
X267716Y1043307D02*
D03*
X82677D02*
D03*
D34*
X452756D02*
D03*
D35*
X1102361Y1200787D02*
D03*
D36*
X1220472D02*
D03*
D37*
X1270865Y1162205D02*
D03*
D38*
X2127559Y492126D02*
D03*
X2127558Y1653543D02*
D03*
D39*
X2027559Y492126D02*
D03*
X1927559D02*
D03*
X2027558Y1653543D02*
D03*
X1927558D02*
D03*
D40*
X2322835Y708661D02*
D03*
X1968504D02*
D03*
X1948819Y1456693D02*
D03*
X2303150D02*
D03*
D41*
X3070865Y610236D02*
D03*
Y170236D02*
D03*
Y1476378D02*
D03*
Y1916378D02*
D03*
D42*
X687402Y1614173D02*
D03*
D43*
X787402D02*
D03*
X887402D02*
D03*
D44*
X275591Y283465D02*
D03*
D45*
X509842Y525591D02*
D03*
Y320866D02*
D03*
X41339D02*
D03*
Y525591D02*
D03*
D46*
X275591Y480315D02*
D03*
D47*
Y742126D02*
D03*
D48*
X196850Y1614173D02*
D03*
X2145669Y1161417D02*
D03*
Y1082677D02*
D03*
Y1003937D02*
D03*
X1466693D02*
D03*
Y1122047D02*
D03*
Y1240158D02*
D03*
Y1358268D02*
D03*
X1259842Y649606D02*
D03*
X1771653Y629921D02*
D03*
X1712598Y1850394D02*
D03*
Y1456693D02*
D03*
X1200787Y1830709D02*
D03*
%TF.MD5,2dc6e019d890112c4362805ac194a5c2*%
M02*
