%TF.GenerationSoftware,Altium Limited,Altium Designer,21.2.1 (34)*%
G04 Layer_Physical_Order=2*
G04 Layer_Color=16711680*
%FSLAX26Y26*%
%MOIN*%
%TF.SameCoordinates,2E7F18B9-7671-40DC-A7DD-494BE6684AB2*%
%TF.FilePolarity,Positive*%
%TF.FileFunction,Copper,L2,Bot,Signal*%
%TF.Part,Single*%
G01*
G75*
%TA.AperFunction,Conductor*%
%ADD21C,0.010000*%
%ADD23C,0.078740*%
%ADD24C,0.020000*%
%TA.AperFunction,ComponentPad*%
%ADD25R,0.076181X0.076181*%
%ADD26C,0.076181*%
%ADD27R,0.049213X0.049213*%
%ADD28C,0.049213*%
%ADD29C,0.236220*%
%ADD30C,0.053150*%
%ADD31R,0.061811X0.061811*%
%ADD32C,0.061811*%
%ADD33C,0.106299*%
%ADD34R,0.106299X0.106299*%
%ADD35R,0.059843X0.059843*%
%ADD36C,0.059843*%
%ADD37C,0.040157*%
%ADD38R,0.066929X0.066929*%
%ADD39C,0.066929*%
%ADD40C,0.064961*%
%ADD41C,0.075000*%
%ADD42R,0.076378X0.076378*%
%ADD43C,0.076378*%
%ADD44C,0.062992*%
%ADD45O,0.059370X0.118740*%
%ADD46O,0.102992X0.051496*%
%ADD47C,0.118110*%
%TA.AperFunction,ViaPad*%
%ADD48C,0.050000*%
G36*
X2106299Y2106299D02*
Y2106299D01*
X3267716D01*
Y1889764D01*
X3169291Y1791339D01*
X2106299D01*
Y1791338D01*
X1730823Y1791338D01*
Y1822956D01*
X1732784Y1824088D01*
X1738904Y1830209D01*
X1743232Y1837705D01*
X1745472Y1846066D01*
Y1854722D01*
X1743232Y1863083D01*
X1738904Y1870579D01*
X1732784Y1876699D01*
X1725287Y1881027D01*
X1716926Y1883268D01*
X1708271D01*
X1699909Y1881027D01*
X1692413Y1876699D01*
X1686293Y1870579D01*
X1681965Y1863083D01*
X1679724Y1854722D01*
Y1846066D01*
X1681965Y1837705D01*
X1686293Y1830209D01*
X1692413Y1824088D01*
X1694374Y1822956D01*
Y1791338D01*
X1496063Y1791339D01*
X1377953Y1673228D01*
X1377953Y433071D01*
X1391043Y419980D01*
Y406791D01*
X1404232D01*
X1476378Y334646D01*
X3129921D01*
X3208662Y255905D01*
Y0D01*
X1240158D01*
X1161417Y78740D01*
X1141732Y98425D01*
Y1174490D01*
X1143629Y1176961D01*
X1148389Y1188454D01*
X1150013Y1200787D01*
X1148389Y1213121D01*
X1143629Y1224613D01*
X1141732Y1227085D01*
Y2066929D01*
X1181102Y2106299D01*
X2106299Y2106299D01*
D02*
G37*
G36*
X2273622Y1732284D02*
Y1484235D01*
X2270858Y1481471D01*
X2265546Y1472269D01*
X2262795Y1462006D01*
Y1451380D01*
X2265546Y1441117D01*
X2270858Y1431915D01*
X2278372Y1424401D01*
X2287573Y1419089D01*
X2292994Y1417636D01*
X2352362Y1358267D01*
X2509842Y1358268D01*
X2588583Y1279527D01*
X2588583Y1003937D01*
X2647638Y944882D01*
X2726378Y944882D01*
X2765748Y905512D01*
X2765748Y787401D01*
X2726378Y748031D01*
X2352362D01*
X2346136Y741805D01*
X2338411Y746266D01*
X2328147Y749016D01*
X2317522D01*
X2307258Y746266D01*
X2298057Y740953D01*
X2290543Y733439D01*
X2285231Y724238D01*
X2282480Y713974D01*
Y703349D01*
X2285231Y693085D01*
X2289691Y685360D01*
X2273622Y669291D01*
Y393701D01*
X2222595Y342674D01*
X1479703D01*
X1420206Y402172D01*
X1422119Y406791D01*
X1482972D01*
Y498720D01*
X1391043D01*
Y443813D01*
X1386043Y441141D01*
X1385981Y441182D01*
X1385981Y1665117D01*
X1386043Y1665159D01*
X1391043Y1662486D01*
Y1587894D01*
X1482972D01*
Y1679823D01*
X1402434D01*
X1400521Y1684442D01*
X1499389Y1783310D01*
X1694374Y1783310D01*
Y1484131D01*
X1692413Y1482999D01*
X1686293Y1476878D01*
X1681965Y1469382D01*
X1679724Y1461021D01*
Y1452365D01*
X1681965Y1444004D01*
X1686293Y1436508D01*
X1692413Y1430387D01*
X1699909Y1426059D01*
X1708271Y1423819D01*
X1716926D01*
X1725287Y1426059D01*
X1732784Y1430387D01*
X1738904Y1436508D01*
X1743232Y1444004D01*
X1745472Y1452365D01*
Y1461021D01*
X1743232Y1469382D01*
X1738904Y1476878D01*
X1732784Y1482999D01*
X1730823Y1484131D01*
Y1783310D01*
X2106299Y1783310D01*
X2106301Y1783310D01*
X2222595D01*
X2273622Y1732284D01*
D02*
G37*
%LPC*%
G36*
X1401913Y2044291D02*
X1393361D01*
X1385100Y2042078D01*
X1377694Y2037802D01*
X1371646Y2031755D01*
X1367370Y2024348D01*
X1365157Y2016087D01*
Y2007535D01*
X1367370Y1999274D01*
X1371646Y1991868D01*
X1377694Y1985820D01*
X1385100Y1981544D01*
X1393361Y1979331D01*
X1401913D01*
X1410174Y1981544D01*
X1417580Y1985820D01*
X1423628Y1991868D01*
X1427904Y1999274D01*
X1430117Y2007535D01*
Y2016087D01*
X1427904Y2024348D01*
X1423628Y2031755D01*
X1417580Y2037802D01*
X1410174Y2042078D01*
X1401913Y2044291D01*
D02*
G37*
G36*
X3080865Y1962874D02*
Y1926378D01*
X3117361D01*
X3115128Y1934712D01*
X3108875Y1945544D01*
X3100031Y1954387D01*
X3089200Y1960641D01*
X3080865Y1962874D01*
D02*
G37*
G36*
X3060865Y1962874D02*
X3052531Y1960641D01*
X3041700Y1954387D01*
X3032856Y1945544D01*
X3026602Y1934712D01*
X3024369Y1926378D01*
X3060865D01*
Y1962874D01*
D02*
G37*
G36*
X1402637Y1943936D02*
Y1914449D01*
X1432124D01*
X1429885Y1922806D01*
X1425329Y1930698D01*
X1418886Y1937141D01*
X1410995Y1941697D01*
X1402637Y1943936D01*
D02*
G37*
G36*
X1392637Y1943936D02*
X1384280Y1941697D01*
X1376388Y1937141D01*
X1369945Y1930698D01*
X1365389Y1922806D01*
X1363150Y1914449D01*
X1392637D01*
Y1943936D01*
D02*
G37*
G36*
Y1904449D02*
X1363150D01*
X1365389Y1896091D01*
X1369945Y1888200D01*
X1376388Y1881757D01*
X1384280Y1877201D01*
X1392637Y1874962D01*
Y1904449D01*
D02*
G37*
G36*
X1432124D02*
X1402637D01*
Y1874961D01*
X1410995Y1877201D01*
X1418886Y1881757D01*
X1425329Y1888200D01*
X1429885Y1896091D01*
X1432124Y1904449D01*
D02*
G37*
G36*
X3117362Y1906378D02*
X3080865D01*
Y1869882D01*
X3089200Y1872115D01*
X3100031Y1878368D01*
X3108875Y1887212D01*
X3115128Y1898044D01*
X3117362Y1906378D01*
D02*
G37*
G36*
X3060865D02*
X3024369D01*
X3026602Y1898044D01*
X3032856Y1887212D01*
X3041700Y1878368D01*
X3052531Y1872115D01*
X3060865Y1869882D01*
Y1906378D01*
D02*
G37*
G36*
X1205787Y1865604D02*
Y1835709D01*
X1235682D01*
X1233402Y1844218D01*
X1228794Y1852199D01*
X1222278Y1858716D01*
X1214297Y1863323D01*
X1205787Y1865604D01*
D02*
G37*
G36*
X1195787D02*
X1187278Y1863323D01*
X1179297Y1858716D01*
X1172780Y1852199D01*
X1168173Y1844218D01*
X1165892Y1835709D01*
X1195787D01*
Y1865604D01*
D02*
G37*
G36*
X1235682Y1825709D02*
X1205787D01*
Y1795814D01*
X1214297Y1798094D01*
X1222278Y1802702D01*
X1228794Y1809218D01*
X1233402Y1817199D01*
X1235682Y1825709D01*
D02*
G37*
G36*
X1195787D02*
X1165892D01*
X1168173Y1817199D01*
X1172780Y1809218D01*
X1179297Y1802702D01*
X1187278Y1798094D01*
X1195787Y1795814D01*
Y1825709D01*
D02*
G37*
G36*
X1430117Y1839567D02*
X1365157D01*
Y1774606D01*
X1430117D01*
Y1839567D01*
D02*
G37*
G36*
X1205472Y1238098D02*
X1205063Y1237988D01*
X1195959Y1232732D01*
X1188527Y1225300D01*
X1183271Y1216196D01*
X1183161Y1215787D01*
X1205472D01*
Y1238098D01*
D02*
G37*
G36*
Y1185787D02*
X1183161D01*
X1183271Y1185378D01*
X1188527Y1176275D01*
X1195959Y1168842D01*
X1205063Y1163587D01*
X1205472Y1163477D01*
Y1185787D01*
D02*
G37*
G36*
X1235472Y1238098D02*
Y1200787D01*
Y1163477D01*
X1235881Y1163587D01*
X1237913Y1164760D01*
X1242913Y1161873D01*
Y1158525D01*
X1244818Y1151415D01*
X1248498Y1145041D01*
X1253702Y1139837D01*
X1260076Y1136157D01*
X1267185Y1134252D01*
X1274545D01*
X1281655Y1136157D01*
X1288029Y1139837D01*
X1293233Y1145041D01*
X1296913Y1151415D01*
X1298818Y1158525D01*
Y1165885D01*
X1296913Y1172994D01*
X1293233Y1179368D01*
X1288029Y1184572D01*
X1281655Y1188253D01*
X1274545Y1190157D01*
X1267185D01*
X1263893Y1189275D01*
X1259810Y1193358D01*
X1260393Y1195532D01*
Y1206043D01*
X1257672Y1216196D01*
X1252417Y1225300D01*
X1244984Y1232732D01*
X1235881Y1237988D01*
X1235472Y1238098D01*
D02*
G37*
G36*
X1264842Y684501D02*
Y654606D01*
X1294737D01*
X1292457Y663116D01*
X1287850Y671097D01*
X1281333Y677613D01*
X1273352Y682221D01*
X1264842Y684501D01*
D02*
G37*
G36*
X1254842D02*
X1246333Y682221D01*
X1238352Y677613D01*
X1231835Y671097D01*
X1227228Y663116D01*
X1224948Y654606D01*
X1254842D01*
Y684501D01*
D02*
G37*
G36*
X1294737Y644606D02*
X1264842D01*
Y614711D01*
X1273352Y616991D01*
X1281333Y621599D01*
X1287850Y628116D01*
X1292457Y636097D01*
X1294737Y644606D01*
D02*
G37*
G36*
X1254842D02*
X1224948D01*
X1227228Y636097D01*
X1231835Y628116D01*
X1238352Y621599D01*
X1246333Y616991D01*
X1254842Y614711D01*
Y644606D01*
D02*
G37*
G36*
X3080865Y216732D02*
Y180236D01*
X3117361D01*
X3115128Y188571D01*
X3108875Y199402D01*
X3100031Y208246D01*
X3089200Y214499D01*
X3080865Y216732D01*
D02*
G37*
G36*
X3060865D02*
X3052531Y214499D01*
X3041700Y208246D01*
X3032856Y199402D01*
X3026602Y188571D01*
X3024369Y180236D01*
X3060865D01*
Y216732D01*
D02*
G37*
G36*
X3117361Y160236D02*
X3080865D01*
Y123740D01*
X3089200Y125973D01*
X3100031Y132227D01*
X3108875Y141071D01*
X3115128Y151902D01*
X3117361Y160236D01*
D02*
G37*
G36*
X3060865D02*
X3024369D01*
X3026602Y151902D01*
X3032856Y141071D01*
X3041700Y132227D01*
X3052531Y125973D01*
X3060865Y123740D01*
Y160236D01*
D02*
G37*
G36*
X1643339Y1681949D02*
X1642008D01*
Y1638858D01*
X1685098D01*
Y1640189D01*
X1681821Y1652421D01*
X1675490Y1663387D01*
X1666536Y1672340D01*
X1655570Y1678671D01*
X1643339Y1681949D01*
D02*
G37*
G36*
X1632008D02*
X1630677D01*
X1618446Y1678671D01*
X1607480Y1672340D01*
X1598526Y1663387D01*
X1592195Y1652421D01*
X1588917Y1640189D01*
Y1638858D01*
X1632008D01*
Y1681949D01*
D02*
G37*
G36*
X2112268Y1694882D02*
D01*
X2086220D01*
Y1612205D01*
X2168897D01*
Y1694882D01*
X2112268D01*
D02*
G37*
G36*
X2033001D02*
X2022116D01*
X2011602Y1692065D01*
X2002176Y1686622D01*
X1994479Y1678926D01*
X1989037Y1669499D01*
X1986220Y1658986D01*
Y1648101D01*
X1989037Y1637587D01*
X1994479Y1628161D01*
X2002176Y1620464D01*
X2011602Y1615022D01*
X2022116Y1612205D01*
X2033001D01*
X2043514Y1615022D01*
X2052941Y1620464D01*
X2060637Y1628161D01*
X2066079Y1637587D01*
X2068897Y1648101D01*
Y1658986D01*
X2066079Y1669499D01*
X2060637Y1678926D01*
X2052941Y1686622D01*
X2043514Y1692065D01*
X2033001Y1694882D01*
D02*
G37*
G36*
X1933001D02*
X1922116D01*
X1911602Y1692065D01*
X1902176Y1686622D01*
X1894479Y1678926D01*
X1889037Y1669499D01*
X1886220Y1658986D01*
Y1648101D01*
X1889037Y1637587D01*
X1894479Y1628161D01*
X1902176Y1620464D01*
X1911602Y1615022D01*
X1922116Y1612205D01*
X1933001D01*
X1943514Y1615022D01*
X1952941Y1620464D01*
X1960637Y1628161D01*
X1966080Y1637587D01*
X1968897Y1648101D01*
Y1658986D01*
X1966080Y1669499D01*
X1960637Y1678926D01*
X1952941Y1686622D01*
X1943514Y1692065D01*
X1933001Y1694882D01*
D02*
G37*
G36*
X1543059Y1679823D02*
X1530957D01*
X1519266Y1676690D01*
X1508785Y1670639D01*
X1500227Y1662081D01*
X1494176Y1651600D01*
X1491043Y1639910D01*
Y1627807D01*
X1494176Y1616117D01*
X1500227Y1605636D01*
X1508785Y1597078D01*
X1519266Y1591026D01*
X1530957Y1587894D01*
X1543059D01*
X1554749Y1591026D01*
X1565231Y1597078D01*
X1573789Y1605636D01*
X1579840Y1616117D01*
X1582972Y1627807D01*
Y1639910D01*
X1579840Y1651600D01*
X1573789Y1662081D01*
X1565231Y1670639D01*
X1554749Y1676690D01*
X1543059Y1679823D01*
D02*
G37*
G36*
X1685098Y1628858D02*
X1642008D01*
Y1585768D01*
X1643339D01*
X1655570Y1589045D01*
X1666536Y1595376D01*
X1675490Y1604330D01*
X1681821Y1615296D01*
X1685098Y1627527D01*
Y1628858D01*
D02*
G37*
G36*
X1632008D02*
X1588917D01*
Y1627527D01*
X1592195Y1615296D01*
X1598526Y1604330D01*
X1607480Y1595376D01*
X1618446Y1589045D01*
X1630677Y1585768D01*
X1632008D01*
Y1628858D01*
D02*
G37*
G36*
X1954132Y1497047D02*
X1943506D01*
X1933243Y1494297D01*
X1924041Y1488984D01*
X1916527Y1481471D01*
X1911215Y1472269D01*
X1908465Y1462006D01*
Y1451380D01*
X1911215Y1441117D01*
X1916527Y1431915D01*
X1924041Y1424401D01*
X1933243Y1419089D01*
X1943506Y1416339D01*
X1954132D01*
X1964395Y1419089D01*
X1973597Y1424401D01*
X1981111Y1431915D01*
X1986423Y1441117D01*
X1989173Y1451380D01*
Y1462006D01*
X1986423Y1472269D01*
X1981111Y1481471D01*
X1973597Y1488984D01*
X1964395Y1494297D01*
X1954132Y1497047D01*
D02*
G37*
G36*
X1471693Y1393163D02*
Y1363268D01*
X1501588D01*
X1499308Y1371777D01*
X1494700Y1379758D01*
X1488183Y1386275D01*
X1480202Y1390882D01*
X1471693Y1393163D01*
D02*
G37*
G36*
X1461693D02*
X1453183Y1390882D01*
X1445202Y1386275D01*
X1438686Y1379758D01*
X1434078Y1371777D01*
X1431798Y1363268D01*
X1461693D01*
Y1393163D01*
D02*
G37*
G36*
X1501588Y1353268D02*
X1471693D01*
Y1323373D01*
X1480202Y1325653D01*
X1488183Y1330261D01*
X1494700Y1336777D01*
X1499308Y1344758D01*
X1501588Y1353268D01*
D02*
G37*
G36*
X1461693D02*
X1431798D01*
X1434078Y1344758D01*
X1438686Y1336777D01*
X1445202Y1330261D01*
X1453183Y1325653D01*
X1461693Y1323373D01*
Y1353268D01*
D02*
G37*
G36*
X2436102Y1276683D02*
Y1245158D01*
X2467628D01*
X2465185Y1254275D01*
X2460369Y1262615D01*
X2453560Y1269425D01*
X2445220Y1274240D01*
X2436102Y1276683D01*
D02*
G37*
G36*
X2426102D02*
X2416985Y1274240D01*
X2408645Y1269425D01*
X2401835Y1262615D01*
X2397020Y1254275D01*
X2394577Y1245158D01*
X2426102D01*
Y1276683D01*
D02*
G37*
G36*
X1471693Y1275052D02*
Y1245158D01*
X1501588D01*
X1499308Y1253667D01*
X1494700Y1261648D01*
X1488183Y1268165D01*
X1480202Y1272772D01*
X1471693Y1275052D01*
D02*
G37*
G36*
X1461693D02*
X1453183Y1272772D01*
X1445202Y1268165D01*
X1438686Y1261648D01*
X1434078Y1253667D01*
X1431798Y1245158D01*
X1461693D01*
Y1275052D01*
D02*
G37*
G36*
X1501588Y1235158D02*
X1471693D01*
Y1205263D01*
X1480202Y1207543D01*
X1488183Y1212150D01*
X1494700Y1218667D01*
X1499308Y1226648D01*
X1501588Y1235158D01*
D02*
G37*
G36*
X1461693D02*
X1431798D01*
X1434078Y1226648D01*
X1438686Y1218667D01*
X1445202Y1212150D01*
X1453183Y1207543D01*
X1461693Y1205263D01*
Y1235158D01*
D02*
G37*
G36*
X2426102Y1235158D02*
X2394577D01*
X2397020Y1226040D01*
X2401835Y1217700D01*
X2408645Y1210890D01*
X2416985Y1206075D01*
X2426102Y1203632D01*
Y1235158D01*
D02*
G37*
G36*
X2467628D02*
X2436102D01*
Y1203632D01*
X2445220Y1206075D01*
X2453560Y1210890D01*
X2460369Y1217700D01*
X2465185Y1226040D01*
X2467628Y1235158D01*
D02*
G37*
G36*
X2150669Y1196312D02*
Y1166417D01*
X2180564D01*
X2178284Y1174927D01*
X2173676Y1182908D01*
X2167160Y1189424D01*
X2159179Y1194032D01*
X2150669Y1196312D01*
D02*
G37*
G36*
X2140669D02*
X2132160Y1194032D01*
X2124179Y1189424D01*
X2117662Y1182908D01*
X2113055Y1174927D01*
X2110774Y1166417D01*
X2140669D01*
Y1196312D01*
D02*
G37*
G36*
X1471693Y1156942D02*
Y1127047D01*
X1501588D01*
X1499308Y1135557D01*
X1494700Y1143538D01*
X1488183Y1150054D01*
X1480202Y1154662D01*
X1471693Y1156942D01*
D02*
G37*
G36*
X1461693D02*
X1453183Y1154662D01*
X1445202Y1150054D01*
X1438686Y1143538D01*
X1434078Y1135557D01*
X1431798Y1127047D01*
X1461693D01*
Y1156942D01*
D02*
G37*
G36*
X2180564Y1156417D02*
X2150669D01*
Y1126522D01*
X2159179Y1128803D01*
X2167160Y1133410D01*
X2173676Y1139927D01*
X2178284Y1147908D01*
X2180564Y1156417D01*
D02*
G37*
G36*
X2140669D02*
X2110774D01*
X2113055Y1147908D01*
X2117662Y1139927D01*
X2124179Y1133410D01*
X2132160Y1128803D01*
X2140669Y1126522D01*
Y1156417D01*
D02*
G37*
G36*
X2150669Y1117572D02*
Y1087677D01*
X2180564D01*
X2178284Y1096187D01*
X2173676Y1104168D01*
X2167160Y1110684D01*
X2159179Y1115292D01*
X2150669Y1117572D01*
D02*
G37*
G36*
X2140669D02*
X2132160Y1115292D01*
X2124179Y1110684D01*
X2117662Y1104168D01*
X2113055Y1096187D01*
X2112268Y1093251D01*
D01*
X2110774Y1087677D01*
X2140669D01*
Y1117572D01*
D02*
G37*
G36*
X1501588Y1117047D02*
X1471693D01*
Y1087152D01*
X1480202Y1089432D01*
X1488183Y1094040D01*
X1494700Y1100557D01*
X1499308Y1108538D01*
X1501588Y1117047D01*
D02*
G37*
G36*
X1461693D02*
X1431798D01*
X1434078Y1108538D01*
X1438686Y1100557D01*
X1445202Y1094040D01*
X1453183Y1089432D01*
X1461693Y1087152D01*
Y1117047D01*
D02*
G37*
G36*
X2180564Y1077677D02*
X2150669D01*
Y1047782D01*
X2159179Y1050062D01*
X2167160Y1054670D01*
X2173676Y1061187D01*
X2178284Y1069168D01*
X2180564Y1077677D01*
D02*
G37*
G36*
X2140669D02*
X2110774D01*
X2113055Y1069168D01*
X2117662Y1061187D01*
X2124179Y1054670D01*
X2132160Y1050062D01*
X2140669Y1047782D01*
Y1077677D01*
D02*
G37*
G36*
X2150669Y1038832D02*
Y1008937D01*
X2180564D01*
X2178284Y1017447D01*
X2173676Y1025428D01*
X2167160Y1031944D01*
X2159179Y1036552D01*
X2150669Y1038832D01*
D02*
G37*
G36*
X2140669D02*
X2132160Y1036552D01*
X2124179Y1031944D01*
X2117662Y1025428D01*
X2113055Y1017447D01*
X2110774Y1008937D01*
X2140669D01*
Y1038832D01*
D02*
G37*
G36*
X1471693D02*
Y1008937D01*
X1501588D01*
X1499308Y1017447D01*
X1494700Y1025428D01*
X1488183Y1031944D01*
X1480202Y1036552D01*
X1471693Y1038832D01*
D02*
G37*
G36*
X1461693D02*
X1453183Y1036552D01*
X1445202Y1031944D01*
X1438686Y1025428D01*
X1434078Y1017447D01*
X1431798Y1008937D01*
X1461693D01*
Y1038832D01*
D02*
G37*
G36*
X2180564Y998937D02*
X2150669D01*
Y969042D01*
X2159179Y971322D01*
X2167160Y975930D01*
X2173676Y982447D01*
X2178284Y990428D01*
X2180564Y998937D01*
D02*
G37*
G36*
X2140669D02*
X2110774D01*
X2113055Y990428D01*
X2117662Y982447D01*
X2124179Y975930D01*
X2132160Y971322D01*
X2140669Y969042D01*
Y998937D01*
D02*
G37*
G36*
X1501588D02*
X1471693D01*
Y969042D01*
X1480202Y971322D01*
X1488183Y975930D01*
X1494700Y982447D01*
X1499308Y990428D01*
X1501588Y998937D01*
D02*
G37*
G36*
X1461693D02*
X1431798D01*
X1434078Y990428D01*
X1438686Y982447D01*
X1445202Y975930D01*
X1453183Y971322D01*
X1461693Y969042D01*
Y998937D01*
D02*
G37*
G36*
X2672323Y882982D02*
Y851457D01*
X2703848D01*
X2701405Y860574D01*
X2696590Y868914D01*
X2689780Y875724D01*
X2681440Y880539D01*
X2672323Y882982D01*
D02*
G37*
G36*
X2662323Y882982D02*
X2653206Y880539D01*
X2644865Y875724D01*
X2638056Y868914D01*
X2633240Y860574D01*
X2630798Y851457D01*
X2662323D01*
Y882982D01*
D02*
G37*
G36*
X1460968Y902559D02*
X1452416D01*
X1444155Y900346D01*
X1436749Y896069D01*
X1430701Y890022D01*
X1426425Y882616D01*
X1424212Y874355D01*
Y865803D01*
X1426425Y857542D01*
X1430701Y850135D01*
X1436749Y844088D01*
X1444155Y839812D01*
X1452416Y837598D01*
X1460968D01*
X1469229Y839812D01*
X1476636Y844088D01*
X1482683Y850135D01*
X1486959Y857542D01*
X1489172Y865803D01*
Y874355D01*
X1486959Y882616D01*
X1482683Y890022D01*
X1476636Y896069D01*
X1469229Y900346D01*
X1460968Y902559D01*
D02*
G37*
G36*
X2435638Y880905D02*
X2426567D01*
X2417806Y878558D01*
X2409950Y874023D01*
X2403537Y867609D01*
X2399001Y859754D01*
X2396654Y850992D01*
Y841921D01*
X2399001Y833160D01*
X2403537Y825305D01*
X2409950Y818891D01*
X2417806Y814356D01*
X2426567Y812008D01*
X2435638D01*
X2444399Y814356D01*
X2452255Y818891D01*
X2458668Y825305D01*
X2463204Y833160D01*
X2465551Y841921D01*
Y850992D01*
X2463204Y859754D01*
X2458668Y867609D01*
X2452255Y874023D01*
X2444399Y878558D01*
X2435638Y880905D01*
D02*
G37*
G36*
X2703848Y841457D02*
X2672323D01*
Y809932D01*
X2681440Y812374D01*
X2689780Y817190D01*
X2696590Y823999D01*
X2701405Y832339D01*
X2703848Y841457D01*
D02*
G37*
G36*
X2662323D02*
X2630798D01*
X2633240Y832339D01*
X2638056Y823999D01*
X2644865Y817190D01*
X2653206Y812374D01*
X2662323Y809931D01*
Y841457D01*
D02*
G37*
G36*
X1460968Y800197D02*
X1452416D01*
X1444155Y797983D01*
X1436749Y793707D01*
X1430701Y787660D01*
X1426425Y780254D01*
X1424212Y771993D01*
Y763441D01*
X1426425Y755180D01*
X1430701Y747773D01*
X1436749Y741726D01*
X1444155Y737450D01*
X1452416Y735236D01*
X1460968D01*
X1469229Y737450D01*
X1476636Y741726D01*
X1482683Y747773D01*
X1486959Y755180D01*
X1489172Y763441D01*
Y771993D01*
X1486959Y780254D01*
X1482683Y787660D01*
X1476636Y793707D01*
X1469229Y797983D01*
X1460968Y800197D01*
D02*
G37*
G36*
X1973817Y749016D02*
X1963191D01*
X1952928Y746266D01*
X1943726Y740953D01*
X1936213Y733439D01*
X1930900Y724238D01*
X1928150Y713974D01*
Y703349D01*
X1930900Y693085D01*
X1936213Y683883D01*
X1943726Y676370D01*
X1952928Y671057D01*
X1963191Y668307D01*
X1973817D01*
X1984080Y671057D01*
X1993282Y676370D01*
X2000795Y683883D01*
X2006108Y693085D01*
X2008858Y703349D01*
Y713974D01*
X2006108Y724238D01*
X2000795Y733439D01*
X1993282Y740953D01*
X1984080Y746266D01*
X1973817Y749016D01*
D02*
G37*
G36*
X1489172Y697835D02*
X1424212D01*
Y632874D01*
X1489172D01*
Y697835D01*
D02*
G37*
G36*
X1643339Y500846D02*
X1642008D01*
Y457756D01*
X1685098D01*
Y459087D01*
X1681821Y471318D01*
X1675490Y482284D01*
X1666536Y491238D01*
X1655570Y497569D01*
X1643339Y500846D01*
D02*
G37*
G36*
X1632008D02*
X1630677D01*
X1618446Y497569D01*
X1607480Y491238D01*
X1598526Y482284D01*
X1592195Y471318D01*
X1588917Y459087D01*
Y457756D01*
X1632008D01*
Y500846D01*
D02*
G37*
G36*
X2112268Y533464D02*
D01*
X2086221D01*
Y450787D01*
X2168898D01*
Y533464D01*
X2112268D01*
D02*
G37*
G36*
X2033001D02*
X2022117D01*
X2011603Y530647D01*
X2002177Y525205D01*
X1994480Y517508D01*
X1989038Y508082D01*
X1986221Y497568D01*
Y486684D01*
X1989038Y476170D01*
X1994480Y466743D01*
X2002177Y459047D01*
X2011603Y453605D01*
X2022117Y450787D01*
X2033001D01*
X2043515Y453605D01*
X2052941Y459047D01*
X2060638Y466743D01*
X2066080Y476170D01*
X2068898Y486684D01*
Y497568D01*
X2066080Y508082D01*
X2060638Y517508D01*
X2052941Y525205D01*
X2043515Y530647D01*
X2033001Y533464D01*
D02*
G37*
G36*
X1775981Y662795D02*
X1767326D01*
X1758965Y660555D01*
X1751468Y656227D01*
X1745348Y650106D01*
X1741020Y642610D01*
X1738780Y634249D01*
Y625593D01*
X1741020Y617232D01*
X1745348Y609736D01*
X1751468Y603615D01*
X1758965Y599288D01*
X1767326Y597047D01*
X1775981D01*
X1784342Y599288D01*
X1789691Y602376D01*
X1887970Y504097D01*
X1886221Y497568D01*
Y486684D01*
X1889038Y476170D01*
X1894480Y466743D01*
X1902177Y459047D01*
X1911603Y453605D01*
X1922117Y450787D01*
X1933001D01*
X1943515Y453605D01*
X1952941Y459047D01*
X1960638Y466743D01*
X1966080Y476170D01*
X1968898Y486684D01*
Y497568D01*
X1966080Y508082D01*
X1960638Y517508D01*
X1952941Y525205D01*
X1943515Y530647D01*
X1933001Y533464D01*
X1922117D01*
X1911603Y530647D01*
X1903325Y525868D01*
X1804331Y624862D01*
X1804527Y625593D01*
Y634249D01*
X1802287Y642610D01*
X1797959Y650106D01*
X1791839Y656227D01*
X1784342Y660555D01*
X1775981Y662795D01*
D02*
G37*
G36*
X1543059Y498720D02*
X1530957D01*
X1519266Y495588D01*
X1508785Y489537D01*
X1500227Y480979D01*
X1494176Y470498D01*
X1491043Y458807D01*
Y446705D01*
X1494176Y435014D01*
X1500227Y424533D01*
X1508785Y415975D01*
X1519266Y409924D01*
X1530957Y406791D01*
X1543059D01*
X1554749Y409924D01*
X1565231Y415975D01*
X1573789Y424533D01*
X1579840Y435014D01*
X1582972Y446705D01*
Y458807D01*
X1579840Y470498D01*
X1573789Y480979D01*
X1565231Y489537D01*
X1554749Y495588D01*
X1543059Y498720D01*
D02*
G37*
G36*
X1685098Y447756D02*
X1642008D01*
Y404665D01*
X1643339D01*
X1655570Y407943D01*
X1666536Y414274D01*
X1675490Y423228D01*
X1681821Y434194D01*
X1685098Y446425D01*
Y447756D01*
D02*
G37*
G36*
X1632008D02*
X1588917D01*
Y446425D01*
X1592195Y434194D01*
X1598526Y423228D01*
X1607480Y414274D01*
X1618446Y407943D01*
X1630677Y404665D01*
X1632008D01*
Y447756D01*
D02*
G37*
%LPD*%
D21*
X196850Y1614173D02*
Y1920079D01*
X205905Y1929134D01*
X1780709Y629921D02*
X1918504Y492126D01*
X1771653Y629921D02*
X1780709D01*
X1918504Y492126D02*
X1927559D01*
D23*
X787402Y1515747D02*
Y1614173D01*
Y1515747D02*
X1102361Y1200787D01*
D24*
X1712598Y1456693D02*
Y1850394D01*
D25*
X1437008Y1633858D02*
D03*
Y452756D02*
D03*
D26*
X1537008Y1633858D02*
D03*
X1637008D02*
D03*
Y452756D02*
D03*
X1537008D02*
D03*
D27*
X1397637Y1807087D02*
D03*
X1456692Y665354D02*
D03*
D28*
X1397637Y1909449D02*
D03*
Y2011811D02*
D03*
X1456692Y870079D02*
D03*
Y767717D02*
D03*
D29*
X3614173Y1227362D02*
D03*
Y873032D02*
D03*
D30*
X2431102Y1240158D02*
D03*
Y846457D02*
D03*
X2667323Y1240158D02*
D03*
Y846457D02*
D03*
X2903543Y1240158D02*
D03*
Y846457D02*
D03*
X3139764Y1240158D02*
D03*
Y846457D02*
D03*
X3375984Y1240158D02*
D03*
Y846457D02*
D03*
D31*
X205905Y1929134D02*
D03*
X424016Y1299213D02*
D03*
X769291Y925197D02*
D03*
D32*
X305906Y1929134D02*
D03*
X324016Y1299213D02*
D03*
X669291Y925197D02*
D03*
D33*
X267716Y1043307D02*
D03*
X82677D02*
D03*
D34*
X452756D02*
D03*
D35*
X1102361Y1200787D02*
D03*
D36*
X1220472D02*
D03*
D37*
X1270865Y1162205D02*
D03*
D38*
X2127559Y492126D02*
D03*
X2127558Y1653543D02*
D03*
D39*
X2027559Y492126D02*
D03*
X1927559D02*
D03*
X2027558Y1653543D02*
D03*
X1927558D02*
D03*
D40*
X2322835Y708661D02*
D03*
X1968504D02*
D03*
X1948819Y1456693D02*
D03*
X2303150D02*
D03*
D41*
X3070865Y610236D02*
D03*
Y170236D02*
D03*
Y1476378D02*
D03*
Y1916378D02*
D03*
D42*
X687402Y1614173D02*
D03*
D43*
X787402D02*
D03*
X887402D02*
D03*
D44*
X275591Y283465D02*
D03*
D45*
X509842Y525591D02*
D03*
Y320866D02*
D03*
X41339D02*
D03*
Y525591D02*
D03*
D46*
X275591Y480315D02*
D03*
D47*
Y742126D02*
D03*
D48*
X196850Y1614173D02*
D03*
X2145669Y1161417D02*
D03*
Y1082677D02*
D03*
Y1003937D02*
D03*
X1466693D02*
D03*
Y1122047D02*
D03*
Y1240158D02*
D03*
Y1358268D02*
D03*
X1259842Y649606D02*
D03*
X1771653Y629921D02*
D03*
X1712598Y1850394D02*
D03*
Y1456693D02*
D03*
X1200787Y1830709D02*
D03*
%TF.MD5,32768abac21ffd308c111ec660b05ae8*%
M02*
